<svg width="48" height="48" viewBox="0 0 48 48" fill="none" xmlns="http://www.w3.org/2000/svg">
<path d="M6.89474 11C6.89474 8.79086 8.6856 7 10.8947 7H15V11H10.8947V18C10.8947 20.3894 9.84723 22.5341 8.18638 24C9.84723 25.4659 10.8947 27.6106 10.8947 30V37H15V41H10.8947C8.6856 41 6.89474 39.2091 6.89474 37V30C6.89474 27.7909 5.10387 26 2.89473 26H1V22H2.89473C5.10387 22 6.89474 20.2091 6.89474 18V11Z" fill="#324558"/>
<path d="M37.1053 7C39.3144 7 41.1053 8.79086 41.1053 11V18C41.1053 20.2091 42.8961 22 45.1053 22H47V26H45.1053C42.8961 26 41.1053 27.7909 41.1053 30V37C41.1053 39.2091 39.3144 41 37.1053 41H33V37H37.1053V30C37.1053 27.6106 38.1528 25.4659 39.8136 24C38.1528 22.5341 37.1053 20.3894 37.1053 18V11H33V7H37.1053Z" fill="#324558"/>
<path d="M29.0174 13H24.8763L18.9814 35H23.1225L29.0174 13Z" fill="#324558"/>
</svg>
