<svg width="48" height="48" viewBox="0 0 48 48" fill="none" xmlns="http://www.w3.org/2000/svg">
<path fill-rule="evenodd" clip-rule="evenodd" d="M8 6C6.89543 6 6 6.89543 6 8V40C6 41.1046 6.89543 42 8 42H40C41.1046 42 42 41.1046 42 40V8C42 6.89543 41.1046 6 40 6H8ZM15.5 12.5H18.5V16H22V19H18.5V22.5H15.5V19H12V16H15.5V12.5ZM22 29.5H12V32.5H22V29.5ZM36 27H26V30H36V27ZM36 32H26V35H36V32ZM31 15.3787L28.5251 12.9038L26.4038 15.0251L28.8787 17.5L26.4038 19.9749L28.5251 22.0962L31 19.6213L33.4749 22.0962L35.5962 19.9749L33.1213 17.5L35.5962 15.0251L33.4749 12.9038L31 15.3787Z" fill="#324558"/>
</svg>
