<svg width="48" height="48" viewBox="0 0 48 48" fill="none" xmlns="http://www.w3.org/2000/svg">
<path fill-rule="evenodd" clip-rule="evenodd" d="M24 44C35.0457 44 44 35.0457 44 24C44 12.9543 35.0457 4 24 4C12.9543 4 4 12.9543 4 24C4 35.0457 12.9543 44 24 44ZM24.8582 15H27.9641L23.141 33H20.0352L24.8582 15ZM15.9396 17.9395L18.0609 20.0608L14.1215 24.0001L18.0609 27.9395L15.9396 30.0608L9.87891 24.0001L15.9396 17.9395ZM32.0604 17.9395L29.9391 20.0608L33.8785 24.0001L29.9391 27.9395L32.0604 30.0608L38.1211 24.0001L32.0604 17.9395Z" fill="#324558"/>
</svg>
