<svg width="48" height="48" viewBox="0 0 48 48" fill="none" xmlns="http://www.w3.org/2000/svg">
<path d="M1.29274 26.1215C0.121169 24.9499 0.121169 23.0504 1.29274 21.8788L12.5856 10.5859L15.4141 13.4144L4.82828 24.0002L15.4141 34.5859L12.5856 37.4144L1.29274 26.1215Z" fill="#324558"/>
<path d="M46.7073 21.8788L35.4144 10.5859L32.5859 13.4144L43.1717 24.0002L32.5859 34.5859L35.4144 37.4144L46.7073 26.1215C47.8788 24.9499 47.8788 23.0504 46.7073 21.8788Z" fill="#324558"/>
<path d="M19 22.0001H15V26.0001H19V22.0001Z" fill="#324558"/>
<path d="M22 22.0001H26V26.0001H22V22.0001Z" fill="#324558"/>
<path d="M33 22.0001H29V26.0001H33V22.0001Z" fill="#324558"/>
</svg>
