<svg width="48" height="48" viewBox="0 0 48 48" fill="none" xmlns="http://www.w3.org/2000/svg">
<path fill-rule="evenodd" clip-rule="evenodd" d="M7 7C5.89543 7 5 7.89543 5 9V39C5 40.1046 5.89543 41 7 41H41C42.1046 41 43 40.1046 43 39V9C43 7.89543 42.1046 7 41 7H7ZM24.8592 15H27.965L23.142 33H20.0361L24.8592 15ZM15.9396 17.9393L18.0609 20.0607L14.1215 24L18.0609 27.9393L15.9396 30.0607L9.87891 24L15.9396 17.9393ZM32.0604 17.9393L29.9391 20.0607L33.8785 24L29.9391 27.9393L32.0604 30.0607L38.1211 24L32.0604 17.9393Z" fill="#324558"/>
</svg>
