<svg width="48" height="48" viewBox="0 0 48 48" fill="none" xmlns="http://www.w3.org/2000/svg">
<path fill-rule="evenodd" clip-rule="evenodd" d="M8 6C6.89543 6 6 6.89543 6 8V40C6 41.1046 6.89543 42 8 42H40C41.1046 42 42 41.1046 42 40V8C42 6.89543 41.1046 6 40 6H8ZM30.3242 29.6836C30.9102 28.7695 31.2305 27.7188 31.2852 26.5312H27.1953C27.1641 27.5 26.8984 28.207 26.3984 28.6523C25.8984 29.0977 25.1758 29.3203 24.2305 29.3203C23.1133 29.3203 22.3242 28.9297 21.8633 28.1484C21.4102 27.3672 21.1836 26.0664 21.1836 24.2461V23.0391C21.207 21.3594 21.457 20.1367 21.9336 19.3711C22.4102 18.6055 23.1602 18.2227 24.1836 18.2227C25.1914 18.2227 25.9414 18.4492 26.4336 18.9023C26.9258 19.3555 27.1875 20.1016 27.2188 21.1406H31.3203C31.1484 19.2266 30.4336 17.7266 29.1758 16.6406C27.918 15.5469 26.2539 15 24.1836 15C22.7461 15 21.4805 15.3438 20.3867 16.0312C19.293 16.7109 18.4531 17.6797 17.8672 18.9375C17.2891 20.1875 17 21.6484 17 23.3203V24.1641C17 26.8281 17.6445 28.8906 18.9336 30.3516C20.2227 31.8125 21.9883 32.543 24.2305 32.543C25.5898 32.543 26.7969 32.293 27.8516 31.793C28.9141 31.293 29.7383 30.5898 30.3242 29.6836Z" fill="#324558"/>
</svg>
