<svg width="48" height="48" viewBox="0 0 48 48" fill="none" xmlns="http://www.w3.org/2000/svg">
<path d="M24.6774 43.3806C24.2942 43.731 23.7068 43.7298 23.325 43.3781L20.955 41.1945L20.9284 41.1701C10.1283 31.2585 3 24.7166 3 16.6894C3 10.1433 8.082 5 14.55 5C18.204 5 21.711 6.72153 24 9.44196C26.289 6.72153 29.796 5 33.45 5C39.918 5 45 10.1433 45 16.6894C45 18.6422 44.5781 20.5072 43.7841 22.3545C42.042 21.4875 40.0779 21 38 21C30.8203 21 25 26.8203 25 34C25 36.6353 25.7842 39.0875 27.1319 41.1359L27.045 41.2158L24.6774 43.3806Z" fill="#324558"/>
<path fill-rule="evenodd" clip-rule="evenodd" d="M48 34C48 39.5228 43.5228 44 38 44C32.4772 44 28 39.5228 28 34C28 28.4772 32.4772 24 38 24C43.5228 24 48 28.4772 48 34ZM36.5 29V32.5H33V35.5H36.5V39H39.5V35.5H43V32.5H39.5V29H36.5Z" fill="#324558"/>
</svg>
