<svg width="48" height="48" viewBox="0 0 48 48" fill="none" xmlns="http://www.w3.org/2000/svg">
<path d="M24.6759 42.3843C24.2932 42.7329 23.7078 42.7318 23.3264 42.3818L21.1 40.3384L21.0746 40.3152C10.7888 30.9119 4 24.7055 4 17.0899C4 10.8796 8.84 6 15 6C18.48 6 21.82 7.63324 24 10.2142C26.18 7.63324 29.52 6 33 6C39.16 6 44 10.8796 44 17.0899C44 18.4437 43.7855 19.753 43.3749 21.0437C43.088 21.0148 42.7962 21 42.5 21C40.8827 21 39.3326 21.4636 38 22.2637C36.6674 21.4636 35.1173 21 33.5 21C28.6656 21 25 24.9482 25 29.6948C25 32.6036 26.2897 35.0261 27.9896 37.1781C28.3113 37.5853 28.6579 37.9952 29.0259 38.4085C28.3618 39.0193 27.6805 39.6435 26.983 40.2826L26.9 40.3586L24.6759 42.3843Z" fill="#324558"/>
<path d="M36.55 41.6332L38 43L39.45 41.6436L39.4895 41.6065C44.6174 36.7815 48 33.5987 48 29.6948C48 26.5057 45.58 24 42.5 24C40.76 24 39.09 24.8387 38 26.164C36.91 24.8387 35.24 24 33.5 24C30.42 24 28 26.5057 28 29.6948C28 33.6055 31.3944 36.7926 36.5373 41.6213L36.55 41.6332Z" fill="#324558"/>
</svg>
