<svg width="48" height="48" viewBox="0 0 48 48" fill="none" xmlns="http://www.w3.org/2000/svg">
<path fill-rule="evenodd" clip-rule="evenodd" d="M14.55 5C18.204 5 21.711 6.72153 24 9.44196C24.8595 8.42052 25.8906 7.53989 27.0368 6.83835C28.9433 5.67146 31.168 5 33.45 5C39.918 5 45 10.1433 45 16.6894C45 24.7026 37.8965 31.2357 27.1279 41.1395L27.045 41.2158L24.6774 43.3806C24.4856 43.556 24.2427 43.6433 24 43.6426C23.7577 43.642 23.5157 43.5538 23.325 43.3781L20.955 41.1945L20.9284 41.1701C10.1283 31.2585 3 24.7166 3 16.6894C3 10.1433 8.082 5 14.55 5ZM24 38.5611L24.0103 38.5706L24.3372 38.2716L24.3408 38.2684C29.8272 33.2225 34.058 29.323 36.9663 25.7221C39.8277 22.1791 41 19.408 41 16.6894C41 12.3071 37.6638 9 33.45 9C31.0252 9 28.6216 10.1622 27.0607 12.0173L24 15.6548V38.5611Z" fill="#324558"/>
</svg>
