<svg width="48" height="48" viewBox="0 0 48 48" fill="none" xmlns="http://www.w3.org/2000/svg">
<path fill-rule="evenodd" clip-rule="evenodd" d="M24 44C35.0457 44 44 35.0457 44 24C44 12.9543 35.0457 4 24 4C12.9543 4 4 12.9543 4 24C4 35.0457 12.9543 44 24 44ZM23.5918 32V29.0996H16.5986V25.3721H22.5176V22.5684H16.5986V19.2705H23.624V16.3594H12.8281V32H23.5918ZM28.5225 23.7715V32H24.9023V20.377H28.2969L28.4199 21.7306C28.4396 21.7052 28.4594 21.6801 28.4795 21.6553C28.8734 21.1683 29.3424 20.7995 29.8867 20.5488C30.4382 20.291 31.0505 20.1621 31.7236 20.1621C32.2607 20.1621 32.7513 20.2409 33.1953 20.3984C33.6465 20.556 34.0332 20.8102 34.3555 21.1611C34.6849 21.512 34.9355 21.9775 35.1074 22.5576C35.2865 23.1305 35.376 23.8395 35.376 24.6846V32H31.7344V24.6738C31.7344 24.2083 31.6699 23.8538 31.541 23.6104C31.4121 23.3597 31.2259 23.1878 30.9824 23.0947C30.7389 23.0016 30.4417 22.9551 30.0908 22.9551C29.7184 22.9551 29.4033 23.0267 29.1455 23.1699C28.8877 23.3132 28.68 23.5137 28.5225 23.7715Z" fill="#324558"/>
</svg>
