<svg width="48" height="48" viewBox="0 0 48 48" fill="none" xmlns="http://www.w3.org/2000/svg">
<path d="M17.5761 24.476H22.5481V19.746H17.5761V24.476Z" fill="#324558"/>
<path d="M25.3421 19.746V24.476H30.3361V19.746H25.3421Z" fill="#324558"/>
<path fill-rule="evenodd" clip-rule="evenodd" d="M8 6C6.89543 6 6 6.89543 6 8V40C6 41.1046 6.89543 42 8 42H40C41.1046 42 42 41.1046 42 40V8C42 6.89543 41.1046 6 40 6H8ZM14.9141 28.304V17.15H22.5481V13.322H25.3421V17.15H33.1081V28.194H30.3361V27.072H25.3421V33.98H22.5481V27.072H17.5761V28.304H14.9141Z" fill="#324558"/>
</svg>
