<svg width="48" height="48" viewBox="0 0 48 48" fill="none" xmlns="http://www.w3.org/2000/svg">
<path d="M25.9453 23.5913V21.9492C25.9453 21.4023 25.8984 20.9297 25.8047 20.5312C25.7109 20.125 25.5742 19.7891 25.3945 19.5234C25.2148 19.2578 25 19.0625 24.75 18.9375C24.5 18.8047 24.2188 18.7383 23.9062 18.7383C23.5938 18.7383 23.3164 18.8281 23.0742 19.0078C22.8398 19.1797 22.6367 19.4141 22.4648 19.7109C22.3008 20 22.1758 20.3281 22.0898 20.6953C22.0039 21.0547 21.9609 21.418 21.9609 21.7852C21.9609 22.1992 22.0039 22.5859 22.0898 22.9453C22.1836 23.2969 22.3164 23.6055 22.4883 23.8711C22.668 24.1289 22.8906 24.332 23.1562 24.4805C23.4297 24.6289 23.7461 24.7031 24.1055 24.7031C24.4648 24.7031 24.7734 24.6406 25.0312 24.5156C25.2969 24.3828 25.5156 24.2109 25.6875 24C25.7902 23.8693 25.8761 23.7331 25.9453 23.5913Z" fill="#324558"/>
<path fill-rule="evenodd" clip-rule="evenodd" d="M24 44C35.0457 44 44 35.0457 44 24C44 12.9543 35.0457 4 24 4C12.9543 4 4 12.9543 4 24C4 35.0457 12.9543 44 24 44ZM20.8477 30.0703H20.6133V33.2344H20.918C21.9258 33.2344 22.8789 33.1094 23.7773 32.8594C24.6836 32.6094 25.5078 32.2383 26.25 31.7461C27 31.2461 27.6484 30.6289 28.1953 29.8945C28.7422 29.1523 29.1641 28.293 29.4609 27.3164C29.7578 26.3398 29.9062 25.2461 29.9062 24.0352V22.6758C29.9062 21.5586 29.75 20.5664 29.4375 19.6992C29.125 18.832 28.6953 18.1016 28.1484 17.5078C27.6016 16.9141 26.9688 16.4648 26.25 16.1602C25.5312 15.8477 24.7617 15.6914 23.9414 15.6914C23.0742 15.6914 22.2773 15.8516 21.5508 16.1719C20.8242 16.4922 20.1953 16.9336 19.6641 17.4961C19.1328 18.0508 18.7227 18.6953 18.4336 19.4297C18.1445 20.1641 18 20.9492 18 21.7852C18 22.6523 18.1133 23.4414 18.3398 24.1523C18.5742 24.8555 18.9102 25.4609 19.3477 25.9688C19.7852 26.4766 20.3125 26.8672 20.9297 27.1406C21.5547 27.4141 22.2539 27.5508 23.0273 27.5508C23.6055 27.5508 24.1523 27.4336 24.668 27.1992C25.1211 26.9963 25.5274 26.7349 25.8868 26.4149C25.8286 26.8526 25.727 27.2468 25.582 27.5977C25.3477 28.1758 25.0078 28.6484 24.5625 29.0156C24.1172 29.375 23.582 29.6406 22.957 29.8125C22.332 29.9844 21.6289 30.0703 20.8477 30.0703Z" fill="#324558"/>
</svg>
