<svg width="48" height="48" viewBox="0 0 48 48" fill="none" xmlns="http://www.w3.org/2000/svg">
<path d="M24.7148 22.8633H22.1133V18.1758H24.7148C25.4883 18.1758 26.0742 18.3867 26.4727 18.8086C26.8711 19.2227 27.0703 19.7969 27.0703 20.5312C27.0703 21.2656 26.8711 21.8398 26.4727 22.2539C26.082 22.6602 25.4961 22.8633 24.7148 22.8633Z" fill="#324558"/>
<path fill-rule="evenodd" clip-rule="evenodd" d="M8 6C6.89543 6 6 6.89543 6 8V40C6 41.1046 6.89543 42 8 42H40C41.1046 42 42 41.1046 42 40V8C42 6.89543 41.1046 6 40 6H8ZM22.1133 26.0391H24.3398L27.3516 32.0625H31.7578V31.8867L28.1953 25.0078C29.2188 24.5234 29.9688 23.8906 30.4453 23.1094C30.9297 22.3281 31.1719 21.3438 31.1719 20.1562C31.1719 18.5156 30.6016 17.2461 29.4609 16.3477C28.3203 15.4492 26.7383 15 24.7148 15H18V32.0625H22.1133V26.0391Z" fill="#324558"/>
</svg>
