<svg width="24" height="24" viewBox="0 0 24 24" fill="none" xmlns="http://www.w3.org/2000/svg">
<path fill-rule="evenodd" clip-rule="evenodd" d="M8 4H2V7V18C2 19.1046 2.89543 20 4 20H20C21.1046 20 22 19.1046 22 18V7V5H9L8 4Z" fill="#324558"/>
<path d="M5.7998 13.0002V12.5008L7.78503 12.5062C8.04527 12.6561 8.23459 12.8351 8.35301 13.0432C8.4517 13.2166 8.51637 13.4536 8.54703 13.7542L8.56135 13.9422L8.62714 14.6524C8.65345 14.769 8.71632 14.8571 8.81573 14.9167C8.83537 14.9285 8.87156 14.9389 8.91974 14.9481L9.09571 14.9716L9.31632 14.9879L9.55423 14.9974L9.79542 15.0008V16.5008H8.56735C8.09951 16.5008 7.7384 16.4501 7.48401 16.3488C7.22963 16.2476 7.04542 16.0818 6.93138 15.8514C6.8316 15.6499 6.77548 15.34 6.763 14.9218L6.7573 14.3888L6.7482 14.102L6.73304 13.8757L6.71181 13.7098C6.70777 13.6872 6.70348 13.6671 6.69893 13.6496C6.65799 13.4914 6.57904 13.3464 6.46209 13.2146C6.36183 13.1016 6.18532 13.033 5.93255 13.0087L5.7998 13.0002ZM18.2998 12.5008V13.0002L18.1671 13.0087C17.9143 13.033 17.7378 13.1016 17.6375 13.2146C17.5206 13.3464 17.4416 13.4914 17.4007 13.6496L17.3878 13.7098L17.3666 13.8757L17.3514 14.102L17.3423 14.3888L17.3393 14.7359C17.3393 15.2493 17.2823 15.6211 17.1682 15.8514C17.0542 16.0818 16.87 16.2476 16.6156 16.3488C16.3975 16.4357 16.1011 16.4853 15.7262 16.4977L15.5323 16.5008H14.3042V15.0008L14.5454 14.9974L14.7833 14.9879L15.0039 14.9716L15.1799 14.9481C15.228 14.9389 15.2642 14.9285 15.2839 14.9167C15.3584 14.872 15.4124 14.8113 15.4459 14.7345L15.4725 14.6524L15.5383 13.9422L15.5526 13.7542C15.5832 13.4536 15.6479 13.2166 15.7466 13.0432C15.8413 12.8767 15.9814 12.7288 16.1669 12.5996L16.3146 12.5062L18.2998 12.5008ZM9.79542 8.5V10L9.67114 10.0009L9.31632 10.0129L9.09571 10.0292C8.96048 10.0424 8.85501 10.0604 8.81573 10.084C8.74117 10.1288 8.68717 10.1895 8.65373 10.2662L8.62714 10.3483L8.56135 11.0585L8.54703 11.2465C8.51637 11.5471 8.4517 11.7842 8.35301 11.9576C8.25828 12.1241 8.11816 12.2719 7.93266 12.4011L7.78503 12.4945L5.7998 12.5V12.0005L5.93255 11.9921C6.18532 11.9678 6.36183 11.8991 6.46209 11.7862C6.57904 11.6544 6.65799 11.5094 6.69893 11.3512C6.71257 11.2985 6.72394 11.2231 6.73304 11.125L6.7482 10.8987L6.7573 10.612L6.76033 10.2648C6.76033 9.75147 6.81735 9.37964 6.93138 9.14932C7.04542 8.91901 7.22963 8.75321 7.48401 8.65193C7.70206 8.56511 7.99852 8.5155 8.37338 8.5031L8.56735 8.5H9.79542ZM15.5323 8.5L15.7262 8.5031C16.1011 8.5155 16.3975 8.56511 16.6156 8.65193C16.87 8.75321 17.0542 8.91901 17.1682 9.14932C17.268 9.35085 17.3241 9.66073 17.3366 10.079L17.3423 10.612L17.3514 10.8987L17.3666 11.125C17.3757 11.2231 17.387 11.2985 17.4007 11.3512C17.4416 11.5094 17.5206 11.6544 17.6375 11.7862C17.7177 11.8765 17.8467 11.9385 18.0245 11.9722L18.1671 11.9921L18.2998 12.0005V12.5L16.3146 12.4945L16.1669 12.4011C15.9814 12.2719 15.8413 12.1241 15.7466 11.9576C15.6676 11.8188 15.6105 11.6394 15.5751 11.4193L15.5526 11.2465L15.5383 11.0585L15.4725 10.3483L15.4459 10.2662C15.4124 10.1895 15.3584 10.1288 15.2839 10.084C15.2544 10.0663 15.1877 10.0518 15.0992 10.04L14.8975 10.0201C14.8605 10.0174 14.8223 10.015 14.7833 10.0129L14.4285 10.0009L14.3042 10V8.5H15.5323Z" fill="white"/>
</svg>
