<svg width="48" height="48" viewBox="0 0 48 48" fill="none" xmlns="http://www.w3.org/2000/svg">
<path fill-rule="evenodd" clip-rule="evenodd" d="M24.7968 3.34599C24.2885 3.12523 23.7115 3.12523 23.2032 3.34599L7.20323 10.2955C6.47264 10.6128 6 11.3322 6 12.1287V22.5454C6 37.4849 18.2718 44.6502 23.6211 45.9176C23.8732 45.9774 24.1268 45.9774 24.3789 45.9176C29.7282 44.6502 42 37.4849 42 22.5454V12.1287C42 11.3322 41.5274 10.6128 40.7968 10.2955L24.7968 3.34599ZM23.9999 21.1716L30.5858 14.5857L33.4142 17.4141L26.8284 24L33.4142 30.5859L30.5858 33.4143L23.9999 26.8284L17.4142 33.4141L14.5858 30.5857L21.1715 24L14.5858 17.4143L17.4142 14.5859L23.9999 21.1716Z" fill="#324558"/>
</svg>
