<svg width="48" height="48" viewBox="0 0 48 48" fill="none" xmlns="http://www.w3.org/2000/svg">
<path fill-rule="evenodd" clip-rule="evenodd" d="M23.2032 3.34599C23.7115 3.12523 24.2885 3.12523 24.7968 3.34599L40.7968 10.2955C41.5274 10.6128 42 11.3322 42 12.1287V22.5454C42 37.4849 29.7282 44.6502 24.3789 45.9176C24.1268 45.9774 23.8732 45.9774 23.6211 45.9176C18.2718 44.6502 6 37.4849 6 22.5454V12.1287C6 11.3322 6.47264 10.6128 7.20323 10.2955L23.2032 3.34599ZM29 18C29 20.7614 26.7614 23 24 23C21.2386 23 19 20.7614 19 18C19 15.2386 21.2386 13 24 13C26.7614 13 29 15.2386 29 18ZM16 30C16 27.7909 17.7909 26 20 26H28C30.2091 26 32 27.7909 32 30V32H16V30Z" fill="#324558"/>
</svg>
