<svg width="48" height="48" viewBox="0 0 48 48" fill="none" xmlns="http://www.w3.org/2000/svg">
<path fill-rule="evenodd" clip-rule="evenodd" d="M23.2032 3.34599C23.7115 3.12523 24.2885 3.12523 24.7968 3.34599L40.7968 10.2955C41.5274 10.6128 42 11.3322 42 12.1287V22.5454C42 37.4849 29.7282 44.6502 24.3789 45.9176C24.1268 45.9774 23.8732 45.9774 23.6211 45.9176C18.2718 44.6502 6 37.4849 6 22.5454V12.1287C6 11.3322 6.47264 10.6128 7.20323 10.2955L23.2032 3.34599ZM25.5 25.8109C28.0878 25.1448 30 22.7957 30 19.9999C30 16.6862 27.3137 13.9999 24 13.9999C20.6863 13.9999 18 16.6862 18 19.9999C18 22.7957 19.9122 25.1448 22.5 25.8109V34.9999H25.5V31.9999H29V28.9999H25.5V25.8109Z" fill="#324558"/>
</svg>
