<svg width="48" height="48" viewBox="0 0 48 48" fill="none" xmlns="http://www.w3.org/2000/svg">
<path d="M21.6492 25.7472V26.9531C21.6492 27.5 21.696 27.9766 21.7898 28.3828C21.8835 28.7891 22.0242 29.125 22.2117 29.3906C22.3992 29.6562 22.6296 29.8555 22.9031 29.9883C23.1843 30.1211 23.5085 30.1875 23.8757 30.1875C24.1804 30.1875 24.4617 30.1172 24.7195 29.9766C24.9773 29.8359 25.2 29.6367 25.3875 29.3789C25.5828 29.1211 25.7312 28.8203 25.8328 28.4766C25.9343 28.1328 25.9851 27.7578 25.9851 27.3516C25.9851 26.9141 25.9304 26.5195 25.821 26.168C25.7117 25.8164 25.5554 25.5195 25.3523 25.2773C25.157 25.0273 24.9187 24.8398 24.6375 24.7148C24.364 24.582 24.0632 24.5156 23.7351 24.5156C23.2351 24.5156 22.8093 24.6289 22.4578 24.8555C22.114 25.0742 21.8523 25.3555 21.6726 25.6992C21.6646 25.7152 21.6568 25.7312 21.6492 25.7472Z" fill="#324558"/>
<path fill-rule="evenodd" clip-rule="evenodd" d="M8 6C6.89543 6 6 6.89543 6 8V40C6 41.1046 6.89543 42 8 42H40C41.1046 42 42 41.1046 42 40V8C42 6.89543 41.1046 6 40 6H8ZM27.2976 15.6914H26.6648C25.4695 15.6914 24.3328 15.8984 23.2546 16.3125C22.1765 16.7266 21.2195 17.332 20.3835 18.1289C19.5554 18.918 18.8992 19.8828 18.4148 21.0234C17.9382 22.1641 17.7 23.4648 17.7 24.9258V26.3672C17.7 27.4453 17.8562 28.4102 18.1687 29.2617C18.489 30.1133 18.9304 30.8359 19.4929 31.4297C20.0632 32.0156 20.7273 32.4648 21.4851 32.7773C22.2507 33.082 23.0828 33.2344 23.9812 33.2344C24.8562 33.2344 25.657 33.0859 26.3835 32.7891C27.1101 32.4922 27.739 32.0781 28.2703 31.5469C28.8015 31.0156 29.2117 30.3945 29.5007 29.6836C29.7976 28.9648 29.946 28.1875 29.946 27.3516C29.946 26.5234 29.8406 25.7539 29.6296 25.043C29.4187 24.332 29.1062 23.7109 28.6921 23.1797C28.2859 22.6484 27.782 22.2344 27.1804 21.9375C26.5867 21.6406 25.8992 21.4922 25.1179 21.4922C24.3445 21.4922 23.6648 21.625 23.0789 21.8906C22.5546 22.1283 22.1086 22.4316 21.7407 22.8005C21.8089 22.3954 21.9151 22.0218 22.0593 21.6797C22.3406 21.0312 22.7273 20.4961 23.2195 20.0742C23.7195 19.6445 24.2976 19.3242 24.9539 19.1133C25.6179 18.9023 26.3289 18.7969 27.0867 18.7969H27.2976V15.6914Z" fill="#324558"/>
</svg>
