<svg width="48" height="48" viewBox="0 0 48 48" fill="none" xmlns="http://www.w3.org/2000/svg">
<path fill-rule="evenodd" clip-rule="evenodd" d="M24 44C35.0457 44 44 35.0457 44 24C44 12.9543 35.0457 4 24 4C12.9543 4 4 12.9543 4 24C4 35.0457 12.9543 44 24 44ZM23.5117 22.8164H21.5898V25.7578H23.5117C24.0195 25.7578 24.4531 25.8359 24.8125 25.9922C25.1797 26.1484 25.457 26.3984 25.6445 26.7422C25.8398 27.0859 25.9375 27.5469 25.9375 28.125C25.9375 28.5078 25.8477 28.8555 25.668 29.168C25.4883 29.4805 25.2266 29.7305 24.8828 29.918C24.5469 30.0977 24.1367 30.1875 23.6523 30.1875C23.2617 30.1875 22.8984 30.1016 22.5625 29.9297C22.2266 29.7578 21.957 29.5273 21.7539 29.2383C21.5586 28.9414 21.4609 28.6133 21.4609 28.2539H17.5C17.5 29.1289 17.6758 29.8828 18.0273 30.5156C18.3867 31.1406 18.8594 31.6562 19.4453 32.0625C20.0312 32.4609 20.6797 32.7578 21.3906 32.9531C22.1016 33.1406 22.8125 33.2344 23.5234 33.2344C24.4297 33.2344 25.2695 33.125 26.043 32.9062C26.8164 32.6797 27.4922 32.3516 28.0703 31.9219C28.6484 31.4922 29.0977 30.9648 29.418 30.3398C29.7383 29.7148 29.8984 29.0039 29.8984 28.207C29.8984 27.4961 29.7617 26.8672 29.4883 26.3203C29.2148 25.7656 28.8242 25.3008 28.3164 24.9258C27.9314 24.6414 27.4902 24.411 26.9929 24.2345C27.3842 24.0502 27.7395 23.8314 28.0586 23.5781C28.5508 23.1875 28.9336 22.7344 29.207 22.2188C29.4805 21.7031 29.6172 21.1523 29.6172 20.5664C29.6172 19.5039 29.3594 18.6133 28.8438 17.8945C28.3359 17.168 27.625 16.6211 26.7109 16.2539C25.7969 15.8789 24.7344 15.6914 23.5234 15.6914C22.5078 15.6914 21.5586 15.8789 20.6758 16.2539C19.8008 16.6211 19.0938 17.1523 18.5547 17.8477C18.0234 18.5352 17.7578 19.3633 17.7578 20.332H21.7188C21.7188 19.9961 21.8125 19.7109 22 19.4766C22.1953 19.2422 22.4414 19.0625 22.7383 18.9375C23.0352 18.8047 23.3398 18.7383 23.6523 18.7383C24.1133 18.7383 24.4922 18.8281 24.7891 19.0078C25.0859 19.1797 25.3047 19.4102 25.4453 19.6992C25.5938 19.9883 25.668 20.3047 25.668 20.6484C25.668 21.0938 25.5898 21.4805 25.4336 21.8086C25.2773 22.1289 25.0391 22.3789 24.7188 22.5586C24.4062 22.7305 24.0039 22.8164 23.5117 22.8164Z" fill="#324558"/>
</svg>
