<svg width="48" height="48" viewBox="0 0 48 48" fill="none" xmlns="http://www.w3.org/2000/svg">
<path fill-rule="evenodd" clip-rule="evenodd" d="M8 6C6.89543 6 6 6.89543 6 8V40C6 41.1046 6.89543 42 8 42H40C41.1046 42 42 41.1046 42 40V8C42 6.89543 41.1046 6 40 6H8ZM30.0078 33V29.9531H23.2812L25.4844 27.4102C26.125 26.7773 26.6953 26.1797 27.1953 25.6172C27.7031 25.0547 28.1328 24.5078 28.4844 23.9766C28.8359 23.4375 29.1055 22.8945 29.293 22.3477C29.4805 21.8008 29.5742 21.2305 29.5742 20.6367C29.5742 19.5977 29.3555 18.7109 28.918 17.9766C28.4883 17.2344 27.8477 16.668 26.9961 16.2773C26.1445 15.8867 25.0898 15.6914 23.832 15.6914C22.6289 15.6914 21.5703 15.9531 20.6562 16.4766C19.7422 16.9922 19.0273 17.6836 18.5117 18.5508C18.0039 19.418 17.75 20.375 17.75 21.4219H21.7109C21.7109 20.9141 21.793 20.457 21.957 20.0508C22.1289 19.6445 22.3672 19.3242 22.6719 19.0898C22.9766 18.8555 23.332 18.7383 23.7383 18.7383C24.1445 18.7383 24.4844 18.8242 24.7578 18.9961C25.0391 19.168 25.25 19.4219 25.3906 19.7578C25.5391 20.0859 25.6133 20.4961 25.6133 20.9883C25.6133 21.2773 25.543 21.6016 25.4023 21.9609C25.2695 22.3203 25.0547 22.7227 24.7578 23.168C24.4609 23.6055 24.0703 24.1016 23.5859 24.6562L18.1016 30.4219V33H30.0078Z" fill="#324558"/>
</svg>
