<svg width="48" height="48" viewBox="0 0 48 48" fill="none" xmlns="http://www.w3.org/2000/svg">
<path fill-rule="evenodd" clip-rule="evenodd" d="M10.8968 27.6338C10.8971 27.6331 10.8973 27.6325 8.99991 27C7.10255 26.3675 7.10279 26.3668 7.10303 26.3661L7.10357 26.3645L7.10479 26.3609L7.1078 26.3519L7.11619 26.3275C7.12283 26.3084 7.13159 26.2835 7.14249 26.2533C7.16428 26.193 7.19472 26.1112 7.23411 26.0109C7.31276 25.8107 7.42789 25.5349 7.58204 25.2085C7.88783 24.5609 8.36008 23.6864 9.02491 22.8C10.3319 21.0574 12.6033 19 15.9999 19C17.6303 19 19.2254 19.4844 20.6784 20.0926C22.1176 20.6951 23.5683 21.4864 24.9099 22.2182L24.9576 22.2442C26.3527 23.0051 27.6347 23.7022 28.8659 24.2176C30.1004 24.7344 31.1303 25 31.9999 25C33.6033 25 34.8319 24.0574 35.7749 22.8C36.2351 22.1864 36.5753 21.5609 36.8008 21.0835C36.9123 20.8474 36.9924 20.6544 37.0427 20.5265C37.0678 20.4627 37.0852 20.4156 37.0951 20.3881L37.1044 20.3619L37.1041 20.363L37.1034 20.365L37.103 20.3662C37.1028 20.3669 37.1025 20.3675 38.9999 21C40.8973 21.6325 40.897 21.6332 40.8968 21.6339L40.895 21.6391L40.892 21.6481L40.8836 21.6725C40.877 21.6916 40.8682 21.7165 40.8573 21.7467C40.8355 21.807 40.8051 21.8888 40.7657 21.9891C40.6871 22.1893 40.5719 22.4651 40.4178 22.7915C40.112 23.4391 39.6397 24.3136 38.9749 25.2C37.668 26.9426 35.3965 29 31.9999 29C30.3695 29 28.7744 28.5156 27.3214 27.9074C25.8822 27.3049 24.4316 26.5136 23.0899 25.7818L23.0422 25.7558C21.6472 24.9949 20.3651 24.2978 19.1339 23.7824C17.8994 23.2656 16.8695 23 15.9999 23C14.3965 23 13.168 23.9426 12.2249 25.2C11.7647 25.8136 11.4245 26.4391 11.199 26.9165C11.0876 27.1526 11.0074 27.3456 10.9571 27.4735C10.9321 27.5373 10.9147 27.5844 10.9047 27.6119L10.8954 27.6381L10.8958 27.637L10.8964 27.635L10.8968 27.6338ZM10.895 27.6394C10.8948 27.6399 10.8948 27.6397 10.895 27.6394V27.6394Z" fill="#324558"/>
</svg>
