<svg width="48" height="48" viewBox="0 0 48 48" fill="none" xmlns="http://www.w3.org/2000/svg">
<path d="M44 12.4821C38.2946 8.3926 31.3468 6 23.8849 6C16.5231 6 9.66169 8.32887 4 12.3185L8.3877 18.8123C12.7909 15.7278 18.1301 13.9215 23.8849 13.9215C29.7405 13.9215 35.1658 15.7916 39.6125 18.9754L44 12.4821Z" fill="#324558"/>
<path d="M37.4151 22.2275C33.5632 19.4805 28.8781 17.8823 23.885 17.8823C18.9911 17.8823 14.3931 19.4176 10.5855 22.0651L14.9724 28.5576C17.5102 26.82 20.5791 25.8038 23.885 25.8038C27.292 25.8038 30.4473 26.8831 33.0289 28.719L37.4151 22.2275Z" fill="#324558"/>
<path d="M24.0553 29.7644C26.5742 29.7644 28.904 30.601 30.7985 32.0198L24.0553 42.0805L17.312 32.0199C19.2066 30.601 21.5364 29.7644 24.0553 29.7644Z" fill="#324558"/>
</svg>
