<svg width="48" height="48" viewBox="0 0 48 48" fill="none" xmlns="http://www.w3.org/2000/svg">
<path d="M8.79718 6.09155L5.96875 8.91998L7.30408 10.2553C6.16367 10.8818 5.06078 11.571 4 12.3185L8.3877 18.8123C9.88393 17.7642 11.4882 16.8636 13.1802 16.1314L16.2297 19.181C14.2156 19.8853 12.3187 20.86 10.5854 22.0651L14.9723 28.5576C17.252 26.9968 19.9602 26.018 22.8838 25.835L27.2894 30.2406C26.2635 29.9306 25.1782 29.7644 24.0553 29.7644C21.5364 29.7644 19.2066 30.601 17.312 32.0199L24.0553 42L30.101 33.0522L37.0814 40.0327L39.9099 37.2043L8.79718 6.09155Z" fill="#324558"/>
<path d="M14.3048 7.35662L21.0203 14.0721C21.9618 13.9725 22.9175 13.9215 23.8849 13.9215C29.7405 13.9215 35.1658 15.7916 39.6125 18.9754L44 12.4821C38.2946 8.3926 31.3468 6 23.8849 6C20.5687 6 17.3541 6.47256 14.3048 7.35662Z" fill="#324558"/>
<path d="M24.8505 17.9023L34.0927 27.1445L37.4151 22.2275C33.8125 19.6583 29.4811 18.094 24.8505 17.9023Z" fill="#324558"/>
</svg>
