<svg width="48" height="48" viewBox="0 0 48 48" fill="none" xmlns="http://www.w3.org/2000/svg">
<path d="M25.9453 22.4062V26.5078C25.9453 27.1953 25.8984 27.7773 25.8047 28.2539C25.7188 28.7227 25.5859 29.1016 25.4062 29.3906C25.2344 29.6719 25.0273 29.875 24.7852 30C24.543 30.125 24.2695 30.1875 23.9648 30.1875C23.7148 30.1875 23.4844 30.1484 23.2734 30.0703C23.0625 29.9922 22.875 29.8672 22.7109 29.6953C22.5469 29.5156 22.4062 29.2852 22.2891 29.0039C22.1797 28.7148 22.0938 28.3672 22.0312 27.9609C21.9766 27.5469 21.9492 27.0625 21.9492 26.5078V22.4062C21.9492 21.7266 21.9922 21.1523 22.0781 20.6836C22.1719 20.2148 22.3047 19.8398 22.4766 19.5586C22.6484 19.2773 22.8555 19.0742 23.0977 18.9492C23.3477 18.8164 23.6289 18.75 23.9414 18.75C24.1914 18.75 24.418 18.793 24.6211 18.8789C24.832 18.957 25.0195 19.0859 25.1836 19.2656C25.3477 19.4375 25.4844 19.6641 25.5938 19.9453C25.7109 20.2266 25.7969 20.5703 25.8516 20.9766C25.9141 21.3828 25.9453 21.8594 25.9453 22.4062Z" fill="#324558"/>
<path fill-rule="evenodd" clip-rule="evenodd" d="M8 6C6.89543 6 6 6.89543 6 8V40C6 41.1046 6.89543 42 8 42H40C41.1046 42 42 41.1046 42 40V8C42 6.89543 41.1046 6 40 6H8ZM29.8945 26.0273V22.9102C29.8945 21.9258 29.8008 21.0469 29.6133 20.2734C29.4258 19.4922 29.1562 18.8164 28.8047 18.2461C28.4609 17.6758 28.043 17.2031 27.5508 16.8281C27.0586 16.4453 26.5078 16.1641 25.8984 15.9844C25.2969 15.7969 24.6445 15.7031 23.9414 15.7031C23.0664 15.7031 22.2656 15.8477 21.5391 16.1367C20.8125 16.4258 20.1836 16.8672 19.6523 17.4609C19.1211 18.0547 18.7109 18.8047 18.4219 19.7109C18.1406 20.6094 18 21.6758 18 22.9102V26.0273C18 27.0117 18.0938 27.8945 18.2812 28.6758C18.4688 29.4492 18.7383 30.1211 19.0898 30.6914C19.4414 31.2617 19.8594 31.7383 20.3438 32.1211C20.8359 32.4961 21.3867 32.7773 21.9961 32.9648C22.6055 33.1445 23.2617 33.2344 23.9648 33.2344C24.8398 33.2344 25.6406 33.0898 26.3672 32.8008C27.0938 32.5117 27.7188 32.0703 28.2422 31.4766C28.7734 30.8828 29.1797 30.1328 29.4609 29.2266C29.75 28.3203 29.8945 27.2539 29.8945 26.0273Z" fill="#324558"/>
</svg>
