<svg width="48" height="48" viewBox="0 0 48 48" fill="none" xmlns="http://www.w3.org/2000/svg">
<path d="M4 4H8V44H4V4Z" fill="#B6C2CD"/>
<path d="M11 9C11 8.44771 11.4477 8 12 8H27C27.5523 8 28 8.44771 28 9V15C28 15.5523 27.5523 16 27 16H12C11.4477 16 11 15.5523 11 15V9Z" fill="#324558"/>
<path d="M11 21C11 20.4477 11.4477 20 12 20H43C43.5523 20 44 20.4477 44 21V27C44 27.5523 43.5523 28 43 28H12C11.4477 28 11 27.5523 11 27V21Z" fill="#324558"/>
<path d="M12 32C11.4477 32 11 32.4477 11 33V39C11 39.5523 11.4477 40 12 40H35C35.5523 40 36 39.5523 36 39V33C36 32.4477 35.5523 32 35 32H12Z" fill="#324558"/>
</svg>
