<svg width="48" height="48" viewBox="0 0 48 48" fill="none" xmlns="http://www.w3.org/2000/svg">
<path d="M4 40H44V44H4V40Z" fill="#B6C2CD"/>
<path d="M20 5C20 4.44771 20.4477 4 21 4H27C27.5523 4 28 4.44772 28 5V36C28 36.5523 27.5523 37 27 37H21C20.4477 37 20 36.5523 20 36V5Z" fill="#324558"/>
<path d="M8 22C8 21.4477 8.44771 21 9 21H15C15.5523 21 16 21.4477 16 22V36C16 36.5523 15.5523 37 15 37H9C8.44771 37 8 36.5523 8 36V22Z" fill="#324558"/>
<path d="M33 13C32.4477 13 32 13.4477 32 14V36C32 36.5523 32.4477 37 33 37H39C39.5523 37 40 36.5523 40 36V14C40 13.4477 39.5523 13 39 13H33Z" fill="#324558"/>
</svg>
