<svg width="48" height="48" viewBox="0 0 48 48" fill="none" xmlns="http://www.w3.org/2000/svg">
<path fill-rule="evenodd" clip-rule="evenodd" d="M44 24C44 35.0457 35.0457 44 24 44C12.9543 44 4 35.0457 4 24C4 12.9543 12.9543 4 24 4C35.0457 4 44 12.9543 44 24ZM24 8C15.1634 8 8 15.1634 8 24H19.4138C19.3572 24.2156 19.3057 24.4216 19.2596 24.6171C19.0626 25.4515 19 25.9478 19 26.1642C19 28.835 21.2386 31 24 31C26.7614 31 29 28.835 29 26.1642C29 25.9478 28.9374 25.4515 28.7404 24.6171C28.6943 24.4216 28.6428 24.2156 28.5862 24H40C40 15.1634 32.8366 8 24 8Z" fill="#B6C2CD"/>
<path fill-rule="evenodd" clip-rule="evenodd" d="M24.9197 13.3515C24.5935 12.5062 23.4065 12.5062 23.0803 13.3515C22.92 13.7672 22.7584 14.1891 22.5968 14.6146C21.666 17.0668 20.7465 19.614 20.063 21.7798C19.7209 22.8638 19.4464 23.8256 19.2596 24.617C19.0626 25.4514 19 25.9477 19 26.1641C19 28.8348 21.2386 30.9999 24 30.9999C26.7614 30.9999 29 28.8348 29 26.1641C29 25.9477 28.9374 25.4514 28.7404 24.617C28.5536 23.8256 28.2791 22.8638 27.937 21.7798C27.2535 19.614 26.334 17.0668 25.4032 14.6146C25.2416 14.1891 25.08 13.7672 24.9197 13.3515Z" fill="#324558"/>
</svg>
