<svg width="48" height="48" viewBox="0 0 48 48" fill="none" xmlns="http://www.w3.org/2000/svg">
<path d="M4 23.9446C4 13.4035 12.1549 4.76705 22.5 4V12.0374C16.5805 12.7756 12 17.8252 12 23.9446C12 30.572 17.3726 35.9446 24 35.9446C26.7731 35.9446 29.3265 35.004 31.3585 33.4244L37.0419 39.1078C33.5403 42.1223 28.9829 43.9446 24 43.9446C12.9543 43.9446 4 34.9903 4 23.9446Z" fill="#B6C2CD"/>
<path fill-rule="evenodd" clip-rule="evenodd" d="M25.5 12.0929C30.9281 12.7697 35.2303 17.0719 35.9072 22.5H43.9446C43.2143 12.6501 35.3499 4.78575 25.5 4.05542V12.0929ZM33.4798 31.3585C34.77 29.6987 35.6339 27.6911 35.9072 25.5H43.9446C43.6187 29.8951 41.8725 33.8949 39.1632 37.0419L33.4798 31.3585Z" fill="#324558"/>
</svg>
