<svg width="48" height="48" viewBox="0 0 48 48" fill="none" xmlns="http://www.w3.org/2000/svg">
<path fill-rule="evenodd" clip-rule="evenodd" d="M6 8C6 6.89543 6.89543 6 8 6H40C41.1046 6 42 6.89543 42 8V40C42 41.1046 41.1046 42 40 42H8C6.89543 42 6 41.1046 6 40V8ZM35 13L24 9L13 13L24 17L35 13ZM25.5 19V23L29 23L24 29L19 23H22.5V19H25.5ZM35 35L24 31L13 35L24 39L35 35Z" fill="#B6C2CD"/>
<path d="M35 13L24 9L13 13L24 17L35 13Z" fill="#324558"/>
<path d="M25.5 19V23L29 23L24 29L19 23H22.5V19H25.5Z" fill="#324558"/>
<path d="M24 31L35 35L24 39L13 35L24 31Z" fill="#324558"/>
</svg>
