<svg width="48" height="48" viewBox="0 0 48 48" fill="none" xmlns="http://www.w3.org/2000/svg">
<path d="M42 21C42 20.4477 41.5523 20 41 20H37C36.4477 20 36 20.4477 36 21V43C36 43.5523 36.4477 44 37 44H41C41.5523 44 42 43.5523 42 43V21Z" fill="#B6C2CD"/>
<path d="M22 27C22 26.4477 21.5523 26 21 26H17C16.4477 26 16 26.4477 16 27V43C16 43.5523 16.4477 44 17 44H21C21.5523 44 22 43.5523 22 43V27Z" fill="#B6C2CD"/>
<path d="M12 33C12 32.4477 11.5523 32 11 32H7C6.44772 32 6 32.4477 6 33V43C6 43.5523 6.44772 44 7 44H11C11.5523 44 12 43.5523 12 43V33Z" fill="#B6C2CD"/>
<path d="M26 31C26 30.4477 26.4477 30 27 30H31C31.5523 30 32 30.4477 32 31V43C32 43.5523 31.5523 44 31 44H27C26.4477 44 26 43.5523 26 43V31Z" fill="#B6C2CD"/>
<path d="M32 4H42V14L38.4142 10.4142L28.4138 20.4143C27.6328 21.1953 26.3665 21.1953 25.5854 20.4142L20.4996 15.3284L8.828 27L5.99957 24.1716L19.0854 11.0858C19.8665 10.3047 21.1328 10.3047 21.9138 11.0858L26.9996 16.1716L35.5858 7.58579L32 4Z" fill="#324558"/>
</svg>
