<svg width="48" height="48" viewBox="0 0 48 48" fill="none" xmlns="http://www.w3.org/2000/svg">
<path fill-rule="evenodd" clip-rule="evenodd" d="M4 8C4 6.89543 4.89543 6 6 6H42C43.1046 6 44 6.89543 44 8V32C44 33.1046 43.1046 34 42 34H6C4.89543 34 4 33.1046 4 32V8ZM20.0745 9.88232L25.3092 24.016L30.0636 15.9335L32.7641 20.9934H40V23.9934H30.9647L29.9364 22.0666L24.6908 30.9841L19.9255 18.1178L17.5042 23.9934H8V20.9934H15.4958L20.0745 9.88232Z" fill="#B6C2CD"/>
<path d="M25.3092 24.016L20.0745 9.88232L15.4958 20.9934H8V23.9934H17.5042L19.9255 18.1178L24.6908 30.9841L29.9364 22.0666L30.9647 23.9934H40V20.9934H32.7641L30.0636 15.9335L25.3092 24.016Z" fill="#324558"/>
<path d="M27 34H21V37.9821C20.7141 38.1063 18.7807 38.9034 16.0347 38.996C15.4695 39.015 15 39.4649 15 40.0304V41.9955H21V42H27V41.9955H33V40.0304C33 39.4649 32.5305 39.015 31.9653 38.996C29.2193 38.9034 27.2859 38.1063 27 37.9821V34Z" fill="#324558"/>
</svg>
