<svg width="48" height="48" viewBox="0 0 48 48" fill="none" xmlns="http://www.w3.org/2000/svg">
<path d="M7 6C6.44772 6 6 6.44772 6 7V26H12V7C12 6.44772 11.5523 6 11 6H7Z" fill="#B6C2CD"/>
<path d="M17 6C16.4477 6 16 6.44772 16 7V19H22V7C22 6.44772 21.5523 6 21 6H17Z" fill="#B6C2CD"/>
<path d="M36 7C36 6.44772 36.4477 6 37 6H41C41.5523 6 42 6.44772 42 7V21H36V7Z" fill="#B6C2CD"/>
<path d="M27 6C26.4477 6 26 6.44772 26 7V26H32V7C32 6.44772 31.5523 6 31 6H27Z" fill="#B6C2CD"/>
<path d="M22 22H16V41C16 41.5523 16.4477 42 17 42H21C21.5523 42 22 41.5523 22 41V22Z" fill="#324558"/>
<path d="M12 29H6V41C6 41.5523 6.44772 42 7 42H11C11.5523 42 12 41.5523 12 41V29Z" fill="#324558"/>
<path d="M26 29H32V41C32 41.5523 31.5523 42 31 42H27C26.4477 42 26 41.5523 26 41V29Z" fill="#324558"/>
<path d="M42 24H36V41C36 41.5523 36.4477 42 37 42H41C41.5523 42 42 41.5523 42 41V24Z" fill="#324558"/>
</svg>
