<svg width="48" height="48" viewBox="0 0 48 48" fill="none" xmlns="http://www.w3.org/2000/svg">
<path d="M4 23.9446C4 13.4035 12.1549 4.76705 22.5 4V18.1336C19.9122 18.7997 18 21.1488 18 23.9446C18 26.7404 19.9122 29.0895 22.5 29.7556V43.8892C12.1549 43.1221 4 34.4857 4 23.9446Z" fill="#B6C2CD"/>
<path d="M29.811 22.4999C29.2684 20.3914 27.6085 18.7315 25.5 18.1888V4.05518C35.3499 4.78551 43.2143 12.65 43.9446 22.4999H29.811Z" fill="#324558"/>
<path d="M25.5 29.8107V43.9444C35.3498 43.214 43.2142 35.3498 43.9446 25.4999H29.8109C29.2682 27.6083 27.6084 29.2681 25.5 29.8107Z" fill="#324558"/>
</svg>
