<svg width="48" height="48" viewBox="0 0 48 48" fill="none" xmlns="http://www.w3.org/2000/svg">
<path fill-rule="evenodd" clip-rule="evenodd" d="M4 8C4 6.89543 4.89543 6 6 6H42C43.1046 6 44 6.89543 44 8V32C44 33.1046 43.1046 34 42 34H6C4.89543 34 4 33.1046 4 32V8ZM17 27C20.866 27 24 23.866 24 20H17V13C13.134 13 10 16.134 10 20C10 23.866 13.134 27 17 27ZM28 14H38V17H28V14ZM38 20H28V23H38V20Z" fill="#B6C2CD"/>
<path d="M24 20C24 23.866 20.866 27 17 27C13.134 27 10 23.866 10 20C10 16.134 13.134 13 17 13V20H24Z" fill="#324558"/>
<path d="M38 14H28V17H38V14Z" fill="#324558"/>
<path d="M27 37.9821V34H21V37.9821C20.7141 38.1063 18.7807 38.9034 16.0347 38.996C15.4695 39.015 15 39.4649 15 40.0304V41.9955H21V42H27V41.9955H33V40.0304C33 39.4649 32.5305 39.015 31.9653 38.996C29.2193 38.9034 27.2859 38.1063 27 37.9821Z" fill="#324558"/>
<path d="M28 20H38V23H28V20Z" fill="#324558"/>
</svg>
