<svg width="48" height="48" viewBox="0 0 48 48" fill="none" xmlns="http://www.w3.org/2000/svg">
<path fill-rule="evenodd" clip-rule="evenodd" d="M24 7.61873L9.81348 15.8093V32.1905L24 40.3811L38.1865 32.1905V15.8093L24 7.61873ZM25 3.57728C24.3812 3.22001 23.6188 3.22001 23 3.57728L6.81348 12.9226C6.19467 13.2798 5.81348 13.9401 5.81348 14.6546V33.3452C5.81348 34.0598 6.19467 34.72 6.81348 35.0773L23 44.4226C23.6188 44.7798 24.3812 44.7798 25 44.4226L41.1865 35.0773C41.8053 34.72 42.1865 34.0598 42.1865 33.3452V14.6546C42.1865 13.9401 41.8053 13.2798 41.1865 12.9226L25 3.57728Z" fill="#B6C2CD"/>
<path d="M34 18L24 12L20.5 23L13.5 30L24 36L34 30V18Z" fill="#324558"/>
</svg>
