<svg width="48" height="48" viewBox="0 0 48 48" fill="none" xmlns="http://www.w3.org/2000/svg">
<path d="M8 24C8 32.8366 15.1634 40 24 40C32.8366 40 40 32.8366 40 24C40 15.1634 32.8366 8 24 8C23.9999 8 24.0001 8 24 8L23.9997 4C23.9996 4 23.9998 4 23.9997 4C35.0454 4 44 12.9543 44 24C44 35.0457 35.0457 44 24 44C12.9543 44 4 35.0457 4 24C4 18.934 5.88355 14.3079 8.98855 10.7839C8.57715 11.2511 8.1869 11.7384 7.81934 12.2443L11.0547 14.5949C9.13341 17.2349 8 20.4851 8 24Z" fill="#B6C2CD"/>
<path d="M23.9744 4.00002C20.8269 4.00399 17.7246 4.7508 14.9199 6.17987C12.6648 7.32886 10.6535 8.89272 8.98855 10.7839C12.6483 6.63017 18.005 4.00749 23.9744 4.00002Z" fill="#B6C2CD"/>
<path d="M24 33C19.0294 33 15 28.9706 15 24H11C11 31.1797 16.8203 37 24 37C31.1797 37 37 31.1797 37 24C37 16.8203 31.1797 11 24 11V15C28.9706 15 33 19.0294 33 24C33 28.9706 28.9706 33 24 33Z" fill="#324558"/>
<path fill-rule="evenodd" clip-rule="evenodd" d="M24 30C27.3137 30 30 27.3137 30 24C30 20.6863 27.3137 18 24 18C22.3546 18 20.8639 18.6623 19.7799 19.7349C19.7724 19.7424 19.7649 19.7499 19.7574 19.7574C19.7499 19.7649 19.7424 19.7724 19.7349 19.7799C18.6623 20.8639 18 22.3546 18 24C18 27.3137 20.6863 30 24 30ZM24 30C23.2121 30 22.4319 29.8448 21.7039 29.5433C20.9759 29.2417 20.3145 28.7998 19.7574 28.2426C19.2002 27.6855 18.7583 27.0241 18.4567 26.2961C18.1552 25.5681 18 24.7879 18 24C18 23.2121 18.1552 22.4319 18.4567 21.7039C18.7542 20.9858 19.1883 20.3323 19.7349 19.7799C19.7498 19.7648 19.7648 19.7498 19.7799 19.7349C20.3323 19.1883 20.9858 18.7542 21.7039 18.4567C22.4319 18.1552 23.2121 18 24 18V22C25.1046 22 26 22.8954 26 24C26 25.1046 25.1046 26 24 26V30Z" fill="#324558"/>
</svg>
