<svg width="48" height="48" viewBox="0 0 48 48" fill="none" xmlns="http://www.w3.org/2000/svg">
<path d="M8 6H4V40C4 41.1046 4.89543 42 6 42H44V38H8V6Z" fill="#B6C2CD"/>
<path d="M22 10C22 12.2091 20.2091 14 18 14C15.7909 14 14 12.2091 14 10C14 7.79086 15.7909 6 18 6C20.2091 6 22 7.79086 22 10Z" fill="#324558"/>
<path d="M23 29C23 32.3137 20.3137 35 17 35C13.6863 35 11 32.3137 11 29C11 25.6863 13.6863 23 17 23C20.3137 23 23 25.6863 23 29Z" fill="#324558"/>
<path d="M41 21C41 26.5228 36.5228 31 31 31C29.169 31 27.453 30.5079 25.977 29.6488C25.9922 29.4345 26 29.2182 26 29C26 25.4664 23.9635 22.4084 21.0002 20.9356C21.0348 15.4424 25.4986 11 31 11C36.5228 11 41 15.4772 41 21Z" fill="#324558"/>
</svg>
