<svg width="48" height="48" viewBox="0 0 48 48" fill="none" xmlns="http://www.w3.org/2000/svg">
<path d="M6 17H15V28H6V17Z" fill="#B6C2CD"/>
<path d="M6 31V40C6 41.1046 6.89543 42 8 42H15V31H6Z" fill="#B6C2CD"/>
<path d="M18 31V42H30V31H18Z" fill="#B6C2CD"/>
<path d="M33 31V42H40C41.1046 42 42 41.1046 42 40V31H33Z" fill="#B6C2CD"/>
<path d="M42 28V17H33V28H42Z" fill="#B6C2CD"/>
<path d="M30 28H18V17H30V28Z" fill="#B6C2CD"/>
<path d="M6 8C6 6.89543 6.89543 6 8 6H40C41.1046 6 42 6.89543 42 8V14H6V8Z" fill="#324558"/>
</svg>
