<svg width="48" height="48" viewBox="0 0 48 48" fill="none" xmlns="http://www.w3.org/2000/svg">
<path fill-rule="evenodd" clip-rule="evenodd" d="M24 44C35.0457 44 44 35.0457 44 24C44 12.9543 35.0457 4 24 4C12.9543 4 4 12.9543 4 24C4 35.0457 12.9543 44 24 44ZM26.9999 15C26.9999 16.1046 26.1045 17 24.9999 17C23.8954 17 22.9999 16.1046 22.9999 15C22.9999 13.8954 23.8954 13 24.9999 13C26.1045 13 26.9999 13.8954 26.9999 15ZM28.1882 34.8187C27.1002 35.2606 26.1105 35.5755 25.2228 35.776C24.3351 35.9724 23.4926 36.0746 22.6951 36.0746C21.9098 36.0746 21.3167 35.8619 20.9116 35.4364C20.5068 35.0111 20.3062 34.3934 20.3062 33.5754C20.3062 33.3668 20.3268 33.1092 20.3678 32.7983C20.4085 32.4915 20.4864 32.0252 20.6009 31.4075L22.327 22.7568L19.6887 22.3478V21.2189L25.2104 20H26.6217L24.5643 30.8636C24.5028 31.1989 24.458 31.469 24.4292 31.6817C24.4006 31.8904 24.3882 32.062 24.3882 32.2011C24.3882 32.7736 24.5233 33.2155 24.7972 33.5101C25.0674 33.8085 25.4599 33.9597 25.9754 33.9597C26.2045 33.9597 26.5071 33.9231 26.8875 33.8493C27.2637 33.7759 27.6974 33.6612 28.1881 33.5018L28.1882 34.8187Z" fill="#B6C2CD"/>
<path d="M25 17C26.1046 17 27 16.1046 27 15C27 13.8954 26.1046 13 25 13C23.8954 13 23 13.8954 23 15C23 16.1046 23.8954 17 25 17Z" fill="#324558"/>
<path d="M25.2228 35.776C26.1106 35.5755 27.1003 35.2606 28.1882 34.8187L28.1882 33.5018C27.6975 33.6612 27.2638 33.7759 26.8875 33.8493C26.5072 33.9231 26.2046 33.9597 25.9754 33.9597C25.46 33.9597 25.0674 33.8085 24.7973 33.5101C24.5234 33.2155 24.3883 32.7736 24.3883 32.2011C24.3883 32.062 24.4007 31.8904 24.4292 31.6817C24.4581 31.469 24.5029 31.1989 24.5643 30.8636L26.6218 20H25.2105L19.6888 21.2189V22.3478L22.3271 22.7568L20.6009 31.4075C20.4865 32.0252 20.4086 32.4915 20.3679 32.7983C20.3269 33.1092 20.3063 33.3668 20.3063 33.5754C20.3063 34.3934 20.5068 35.0111 20.9117 35.4364C21.3168 35.8619 21.9099 36.0746 22.6952 36.0746C23.4927 36.0746 24.3352 35.9724 25.2228 35.776Z" fill="#324558"/>
</svg>
