<svg width="48" height="48" viewBox="0 0 48 48" fill="none" xmlns="http://www.w3.org/2000/svg">
<path fill-rule="evenodd" clip-rule="evenodd" d="M32.8891 10.6965C30.2579 8.93838 27.1645 8 24 8V4C27.9556 4 31.8224 5.17298 35.1114 7.37061C38.4004 9.56824 40.9638 12.6918 42.4776 16.3463C43.9913 20.0009 44.3874 24.0222 43.6157 27.9018C42.844 31.7814 40.9392 35.3451 38.1421 38.1421C35.3451 40.9392 31.7814 42.844 27.9018 43.6157C24.0222 44.3874 20.0009 43.9913 16.3463 42.4776C12.6918 40.9638 9.56823 38.4004 7.37061 35.1114C5.17298 31.8224 4 27.9556 4 24H8C8 27.1645 8.93838 30.2579 10.6965 32.8891C12.4546 35.5203 14.9534 37.5711 17.8771 38.7821C20.8007 39.9931 24.0177 40.3099 27.1214 39.6926C30.2251 39.0752 33.0761 37.5513 35.3137 35.3137C37.5513 33.0761 39.0752 30.2251 39.6926 27.1214C40.3099 24.0177 39.9931 20.8007 38.7821 17.8771C37.5711 14.9534 35.5203 12.4546 32.8891 10.6965Z" fill="#B6C2CD"/>
<path fill-rule="evenodd" clip-rule="evenodd" d="M24 18C22.4087 18 20.8826 18.6321 19.7574 19.7574C18.6321 20.8826 18 22.4087 18 24C18 25.5913 18.6321 27.1174 19.7574 28.2426C20.8826 29.3679 22.4087 30 24 30L24 34C21.3478 34 18.8043 32.9464 16.9289 31.0711C15.0536 29.1957 14 26.6522 14 24C14 21.3478 15.0536 18.8043 16.9289 16.9289C18.8043 15.0536 21.3478 14 24 14V18Z" fill="#324558"/>
</svg>
