<svg width="48" height="48" viewBox="0 0 48 48" fill="none" xmlns="http://www.w3.org/2000/svg">
<path d="M36 24C36 25.1 35.1 26 34 26C32.9 26 32 25.1 32 24C32 18.5 27.5 14 22 14C16.5 14 12 18.5 12 24C12 22.9 12.9 22 14 22C15.1 22 16 22.9 16 24C16 29.5 20.5 34 26 34C31.5 34 36 29.5 36 24Z" fill="#B6C2CD"/>
<path fill-rule="evenodd" clip-rule="evenodd" d="M24 44C35.0457 44 44 35.0457 44 24C44 12.9543 35.0457 4 24 4C12.9543 4 4 12.9543 4 24C4 35.0457 12.9543 44 24 44ZM24 12C17.4 12 12 17.4 12 24C12 30.6 17.4 36 24 36C30.6 36 36 30.6 36 24C36 17.4 30.6 12 24 12Z" fill="#B6C2CD"/>
<path d="M12 24C12 17.4 17.4 12 24 12C30.6 12 36 17.4 36 24C36 25.1 35.1 26 34 26C32.9 26 32 25.1 32 24C32 18.5 27.5 14 22 14C16.5 14 12 18.5 12 24Z" fill="#324558"/>
<path d="M12 24C12 30.6 17.4 36 24 36C30.6 36 36 30.6 36 24C36 29.5 31.5 34 26 34C20.5 34 16 29.5 16 24C16 22.9 15.1 22 14 22C12.9 22 12 22.9 12 24Z" fill="#324558"/>
</svg>
