<svg width="48" height="48" viewBox="0 0 48 48" fill="none" xmlns="http://www.w3.org/2000/svg">
<path d="M22.8333 10C24.7663 10 26.3333 8.433 26.3333 6.5C26.3333 4.567 24.7663 3 22.8333 3C20.9003 3 19.3333 4.567 19.3333 6.5C19.3333 8.433 20.9003 10 22.8333 10Z" fill="#324558"/>
<path d="M22.8334 44.9998C26.055 44.9998 28.6667 42.3881 28.6667 39.1665C28.6667 35.9448 26.055 33.3331 22.8334 33.3331C19.6117 33.3331 17 35.9448 17 39.1665C17 42.3881 19.6117 44.9998 22.8334 44.9998Z" fill="#324558"/>
<path d="M38 8.83325C38 10.7662 36.433 12.3333 34.5 12.3333C32.567 12.3333 31 10.7662 31 8.83325C31 6.90026 32.567 5.33325 34.5 5.33325C36.433 5.33325 38 6.90026 38 8.83325Z" fill="#324558"/>
<path d="M41.5 24.0001C43.433 24.0001 45 22.4331 45 20.5001C45 18.5671 43.433 17.0001 41.5 17.0001C39.567 17.0001 38 18.5671 38 20.5001C38 22.4331 39.567 24.0001 41.5 24.0001Z" fill="#324558"/>
<path d="M42.6667 33.3332C42.6667 35.9105 40.5774 37.9998 38 37.9998C35.4227 37.9998 33.3334 35.9105 33.3334 33.3332C33.3334 30.7558 35.4227 28.6665 38 28.6665C40.5774 28.6665 42.6667 30.7558 42.6667 33.3332Z" fill="#324558"/>
<path d="M5.33333 24.0002C6.622 24.0002 7.66667 22.9555 7.66667 21.6668C7.66667 20.3782 6.622 19.3335 5.33333 19.3335C4.04467 19.3335 3 20.3782 3 21.6668C3 22.9555 4.04467 24.0002 5.33333 24.0002Z" fill="#324558"/>
<path d="M12.3333 9.99984C12.3333 11.2885 11.2887 12.3332 10 12.3332C8.71135 12.3332 7.66668 11.2885 7.66668 9.99984C7.66668 8.71117 8.71135 7.6665 10 7.6665C11.2887 7.6665 12.3333 8.71117 12.3333 9.99984Z" fill="#324558"/>
<path d="M10 35.6665C11.2887 35.6665 12.3333 34.6219 12.3333 33.3332C12.3333 32.0445 11.2887 30.9999 10 30.9999C8.71135 30.9999 7.66668 32.0445 7.66668 33.3332C7.66668 34.6219 8.71135 35.6665 10 35.6665Z" fill="#324558"/>
</svg>
