<svg width="48" height="48" viewBox="0 0 48 48" fill="none" xmlns="http://www.w3.org/2000/svg">
<path fill-rule="evenodd" clip-rule="evenodd" d="M24 44C35.0457 44 44 35.0457 44 24C44 12.9543 35.0457 4 24 4C12.9543 4 4 12.9543 4 24C4 35.0457 12.9543 44 24 44ZM21.0461 18.3677L17 17.5683C17.7102 14.1954 20.5108 12 24.0812 12C27.4255 12 30.433 14.1278 30.9221 17.766C31.2679 20.338 30.4616 21.9389 28.5111 23.86C28.4537 23.9166 28.3123 24.0543 28.1783 24.1848L28.1771 24.1859C28.0589 24.3011 27.9466 24.4104 27.9029 24.4534C26.491 25.8426 26.0014 26.741 26.0014 28.4962H21.872C21.872 25.5244 22.8574 23.7161 24.9603 21.6471C25.0134 21.5949 25.1419 21.4697 25.2688 21.3461C25.3948 21.2234 25.5196 21.1018 25.567 21.0551C26.7155 19.9241 26.9779 19.4029 26.8273 18.2826C26.6286 16.805 25.4907 16 24.0812 16C22.4658 16 21.3626 16.8648 21.0461 18.3677ZM26 33.5C26 34.6046 25.1046 35.5 24 35.5C22.8954 35.5 22 34.6046 22 33.5C22 32.3954 22.8954 31.5 24 31.5C25.1046 31.5 26 32.3954 26 33.5Z" fill="#B6C2CD"/>
<path d="M17 17.5683L21.0461 18.3677C21.3626 16.8648 22.4658 16 24.0812 16C25.4907 16 26.6286 16.805 26.8273 18.2826C26.9779 19.4029 26.7155 19.9241 25.567 21.0551C25.5196 21.1019 25.395 21.2232 25.2688 21.3461C25.1419 21.4697 25.0134 21.5949 24.9603 21.6471C22.8574 23.7161 21.872 25.5244 21.872 28.4962H26.0014C26.0014 26.741 26.491 25.8426 27.9029 24.4534C27.9467 24.4103 28.0596 24.3003 28.1783 24.1848C28.3123 24.0543 28.4537 23.9166 28.5111 23.86C30.4616 21.9389 31.2679 20.338 30.9221 17.766C30.433 14.1278 27.4255 12 24.0812 12C20.5108 12 17.7102 14.1954 17 17.5683Z" fill="#324558"/>
<path d="M24 35.5C25.1046 35.5 26 34.6046 26 33.5C26 32.3954 25.1046 31.5 24 31.5C22.8954 31.5 22 32.3954 22 33.5C22 34.6046 22.8954 35.5 24 35.5Z" fill="#324558"/>
</svg>
