<svg xmlns="http://www.w3.org/2000/svg" width="24" height="24" viewBox="0 0 24 24">
  <g fill="none" fill-rule="evenodd">
    <path fill="#324558" d="M6.122 12.318c.025.51.534.274.765.114.22-.151.283-.025.303-.324.012-.196.035-.393.024-.59a1.446 1.446 0 00-.964.246c-.14.102-.402.426-.128.554"/>
    <path fill="#B6C2CD" d="M7.205 6.212c-1.806-.6-.386-2.978 1.153-1.989.954-.836 2.318-1.098 3.751-1.212 1.466 0 2.863.157 3.873 1.028 1.539-1.072 2.926 1.355 1.154 1.979.5 1.86.286 3.822.4 5.751.112 1.91.36 4.118-.526 5.888-.932 1.863-3.262 2.331-5.181 2.263-1.508-.054-3.33-.546-4.18-1.924-.998-1.616-.526-4.019-.453-5.817.08-2-.499-4.005.009-5.967z"/>
    <path fill="#324558" d="M16.308 18.595c.392.243 1.11.978.521 1.334-.566.518-.882-.569-1.38-.72.215-.29.486-.555.859-.614zm-7.014.83c-.46.072-.72.487-1.104.699-.362.216-.5-.07-.533-.127-.057-.026-.052.024-.14-.064-.336-.53.35-.917.706-1.18.497-.1.809.33 1.07.672zM7.381 5.588c-.258-.14-.447-.331-.289-.638.146-.284.417-.254.675-.113l-.386.751zm9.333-.267c.258-.14.447-.331.29-.638-.146-.284-.417-.254-.675-.113l.385.751zm1.774 6.932c-.025.51-.534.274-.765.114-.22-.151-.283-.025-.303-.324-.012-.196-.035-.393-.024-.59.331-.03.692.049.963.246.14.102.403.426.129.554"/>
    <path fill="#FFF" d="M12.454 5.636c.351 2.04 3.686 1.5 3.207-.557-.43-1.846-3.323-1.335-3.207.557m-3.985.33c.455 1.776 3.299 1.321 3.192-.46-.129-2.135-3.627-1.723-3.192.46m4.388 2.118c.001.265.06.563.01.845-.068.128-.2.142-.315.193a.464.464 0 01-.355-.277c-.04-.322.015-.634.025-.956l.635.195z"/>
    <path fill="#324558" d="M8.773 5.676a.53.53 0 00.24.45.449.449 0 00.48 0 .53.53 0 00.24-.45.53.53 0 00-.24-.45.449.449 0 00-.48 0 .53.53 0 00-.24.45z"/>
    <path fill="#FFF" fill-rule="nonzero" d="M9.359 5.793c0 .047.021.091.056.115a.1.1 0 00.113 0 .138.138 0 00.057-.115.138.138 0 00-.057-.114.1.1 0 00-.113 0 .138.138 0 00-.056.114z"/>
    <path fill="#324558" d="M12.805 5.546c0 .186.09.358.236.45a.435.435 0 00.472 0 .532.532 0 00.236-.45.532.532 0 00-.236-.45.435.435 0 00-.472 0 .532.532 0 00-.236.45z"/>
    <path fill="#FFF" fill-rule="nonzero" d="M13.38 5.664c0 .047.022.09.056.114a.096.096 0 00.111 0 .138.138 0 00.056-.114.138.138 0 00-.056-.115.096.096 0 00-.11 0 .138.138 0 00-.057.115z"/>
    <path fill="#FFF" d="M11.484 8.055c-.21.508.117 1.523.686.774-.04-.322.015-.634.025-.956l-.71.182z"/>
    <path fill="#324558" d="M11.556 7.077c-.39.033-.71.498-.507.865.27.487.87-.043 1.243.007.43.008.783.455 1.129.08.384-.416-.166-.821-.596-1.003l-1.269.051z"/>
    <path fill="#324558" d="M11.507 7.057c-.029-.677 1.26-.761 1.413-.195.152.565-1.35.696-1.413.195-.05-.4 0 0 0 0z"/>
  </g>
</svg>
