<svg xmlns="http://www.w3.org/2000/svg" width="24" height="24" viewBox="0 0 24 24">
  <path fill="#324558" fill-rule="evenodd" d="M20.46 6.481c-.637-1.127-1.777-1.465-2.582-1.48-.987-.02-1.799.518-1.644.871.032.075.217.471.33.634.166.237.46.056.563.002a1.682 1.682 0 011.011-.17c.356.04.831.256 1.15.857.747 1.416-1.564 4.328-4.456 2.311-2.892-2.017-5.705-1.349-6.978-.942-1.274.407-1.86.815-1.356 1.76.684 1.285.457.89 1.12 1.953 1.054 1.689 3.358-.777 3.358-.777-1.716 2.49-3.188 1.889-3.754 1.018-.509-.784-.904-1.689-.904-1.689C1.968 12.34 3.145 19 3.145 19h2.16c.551-2.453 2.52-2.363 2.858 0H9.81c1.459-4.79 5.153 0 5.153 0h2.149c-.601-3.267 1.209-4.293 2.35-6.21 1.14-1.914 2.22-4.258.998-6.31v.001zm-5.543 6.308c-1.136-.365-.729-1.476-.729-1.476s.992.315 2.335.745c-.079.345-.746 1.007-1.606.731z"/>
</svg>
