<svg xmlns="http://www.w3.org/2000/svg" width="24" height="24" viewBox="0 0 24 24">
  <g fill="none" fill-rule="evenodd">
    <path fill="#324558" d="M9.86 12.01c-.46.217-1.225.257-1.56.723.338.258.834.25 1.292.272 1.881.086 4.235-.077 5.84-.361.054.117-.223.32-.4.452-1.013.75-4.16.962-6.33.813-.727-.05-2.39-.244-2.407-.904-.022-.8 2.015-.886 2.853-.95.162-.012.471-.08.712-.045zm-.937 2.034c.21.026-.147.154-.09.315.767.77 3.152.552 4.323.317.246-.05.491-.2.67-.18.445.04.73.565 1.114.632-1.355.62-3.973.913-5.886.541-.494-.094-1.354-.366-1.382-.769-.036-.544.855-.776 1.251-.856zm.58 1.853c.139.046-.048.123-.044.18.406.715 2.412.461 3.433.226.206-.049.41-.194.579-.18.516.035.713.583 1.16.678-1.423.881-4.868 1.239-6.287.135-.067-.804.57-.894 1.16-1.039zm-1.292 1.356c-.423.109-1.52-.046-1.56.541-.014.226.375.493.624.587 1.453.555 4.373.641 6.775.361 1.114-.131 3.21-.512 2.942-1.673.335.04.633.258.669.587.133 1.247-2.692 1.77-3.834 1.899-2.483.275-5.586.22-7.489-.452-.62-.217-1.368-.62-1.337-1.221.054-1.01 2.46-1.29 3.21-.629zM12.001 21c-1.671-.186-3.282-.434-4.636-1.039 3.543.864 8.71.8 11.19-1.039.132-.1.258-.294.445-.271-.625 1.897-3.024 2.028-5.083 2.349H12zm3.789-8.536c.919-.796 2.474-.484 2.54.858.076 1.573-1.623 2.454-2.853 2.531.57-.552 2.077-1.436 1.783-2.711-.12-.515-.753-.827-1.47-.678z"/>
    <path fill="#B6C2CD" d="M13.527 3c.277.29.473.83.473 1.405 0 1.698-1.619 2.682-2.409 3.82-.174.255-.398.645-.394 1.053.007.925.869 1.962 1.184 2.722-.552-.403-1.224-.944-1.697-1.58-.473-.632-.947-1.66-.513-2.546.652-1.334 2.591-2.128 3.277-3.555.166-.348.296-.878.08-1.319z"/>
    <path fill="#B6C2CD" d="M17 6c-.503.333-.992.616-1.53 1.027-.406.313-1.139.74-1.18 1.316-.06.874 1.372 1.685.612 2.794-.288.423-.777.603-1.399.863-.074-.127.161-.234.263-.37.953-1.298-.993-1.73-.744-3.328C13.264 6.757 15.2 6.217 17 6z"/>
  </g>
</svg>
