<svg xmlns="http://www.w3.org/2000/svg" width="24" height="24" viewBox="0 0 24 24">
  <path fill="#324558" fill-rule="evenodd" d="M3 3h18v18H3V3zm4 15.53c.403.804 1.198 1.47 2.566 1.47 1.515 0 2.554-.758 2.554-2.422v-5.486h-1.71v5.463c0 .804-.355 1.01-.917 1.01-.587 0-.831-.379-1.1-.826L7 18.53zm6.05-.171c.5.93 1.527 1.641 3.115 1.641C17.79 20 19 19.208 19 17.762c0-1.343-.819-1.94-2.273-2.525l-.428-.172c-.733-.299-1.05-.494-1.05-.976 0-.39.317-.689.818-.689.49 0 .807.196 1.1.689l1.332-.803c-.562-.93-1.344-1.286-2.432-1.286-1.527 0-2.505.918-2.505 2.123 0 1.309.82 1.929 2.053 2.422l.428.172c.782.322 1.246.517 1.246 1.068 0 .459-.452.792-1.16.792-.844 0-1.32-.413-1.687-.976l-1.393.758z"/>
</svg>
