<svg xmlns="http://www.w3.org/2000/svg" width="24" height="24" viewBox="0 0 24 24">
  <g fill="none" fill-rule="evenodd">
    <path fill="#324558" d="M5.16 11.997a.17.17 0 00-.08-.144l-1.4-.807c-.027-.018-.054-.018-.08-.018h-.02c-.027 0-.053.009-.08.018l-1.4.807c-.054.027-.08.09-.08.144v2.17a.09.09 0 00.044.073.067.067 0 00.081 0l.834-.476c.054-.027.081-.09.081-.143v-1.014a.17.17 0 01.08-.144l.35-.206a.145.145 0 01.081-.027c.027 0 .063.01.081.027l.35.206c.054.027.08.09.08.144v1.005a.17.17 0 00.082.143l.834.476c.027.018.063.018.08 0 .027-.018.045-.045.045-.072l.036-2.162zm7.473-2.978a.067.067 0 00-.08 0c-.028.017-.046.044-.046.071v2.144c0 .018-.008.045-.026.054a.077.077 0 01-.063 0l-.35-.197a.19.19 0 00-.17 0l-1.4.807c-.054.027-.08.09-.08.144v1.614a.17.17 0 00.08.144l1.4.807a.19.19 0 00.17 0l1.4-.807c.053-.027.08-.09.08-.144V9.63a.16.16 0 00-.09-.144l-.825-.466zm-.134 4.108c0 .018-.01.027-.018.036l-.485.278c-.009.01-.027.01-.045 0l-.484-.278c-.01-.009-.018-.018-.018-.036v-.556c0-.018.009-.027.018-.036l.484-.278c.01-.009.027-.009.045 0l.485.278c.009.01.018.018.018.036v.556zm5.14-.574c.054-.027.08-.09.08-.143v-.395a.17.17 0 00-.08-.144l-1.39-.807a.19.19 0 00-.171 0l-1.4.807c-.053.027-.08.09-.08.144v1.615a.16.16 0 00.09.143l1.39.79a.171.171 0 00.161 0l.844-.467c.027-.018.045-.045.045-.072 0-.027-.018-.063-.045-.071l-1.409-.808c-.027-.018-.045-.045-.045-.072v-.502c0-.027.018-.054.045-.072l.44-.251a.067.067 0 01.08 0l.44.251c.027.018.045.045.045.072v.395c0 .027.018.054.045.071.027.018.063.018.08 0l.835-.484z"/>
    <path fill="#B6C2CD" d="M7.708 11.055a.19.19 0 01.17 0l1.4.807c.054.027.08.09.08.144v1.615a.17.17 0 01-.08.143l-1.4.808a.19.19 0 01-.17 0l-1.4-.808c-.053-.027-.08-.09-.08-.143v-1.615a.17.17 0 01.08-.144l1.4-.807zm12.64 3.543a.234.234 0 01-.134-.035l-.44-.26c-.063-.037-.036-.054-.009-.054a.643.643 0 00.197-.09c.01-.01.027 0 .036 0l.341.197c.01.01.027.01.045 0l1.319-.762c.009-.01.018-.018.018-.036v-1.525c0-.018-.01-.027-.018-.036l-1.32-.763c-.008-.009-.026-.009-.044 0l-1.319.763c-.009.009-.018.018-.018.036v1.525c0 .018.01.027.018.036l.36.206c.197.099.313-.018.313-.135v-1.507c0-.018.018-.036.036-.036h.17c.018 0 .036.018.036.036v1.507c0 .26-.143.413-.394.413-.081 0-.135 0-.305-.08l-.35-.198a.274.274 0 01-.135-.242v-1.525c0-.099.054-.189.135-.242l1.319-.763a.304.304 0 01.278 0l1.318.763c.09.053.135.143.135.242v1.525a.294.294 0 01-.135.242l-1.318.763a.216.216 0 01-.135.035z"/>
    <path fill="#B6C2CD" d="M20.76 13.549c-.573 0-.699-.27-.699-.485 0-.018.018-.035.036-.035h.17c.018 0 .036.017.036.035.027.17.099.26.449.26.278 0 .394-.062.394-.206 0-.08-.035-.152-.466-.188-.359-.036-.583-.117-.583-.404 0-.269.224-.421.6-.421.423 0 .629.143.656.457 0 .009 0 .018-.01.027-.008.009-.017.009-.026.009h-.17c-.018 0-.036-.01-.036-.027-.045-.18-.144-.242-.413-.242-.305 0-.341.107-.341.188 0 .099.045.126.449.18.403.053.6.125.6.412.01.278-.233.44-.645.44zm-4.62-1.068c.01-.009.019-.009.037 0l.269.153c.009.009.018.018.018.027v.314c0 .009-.01.018-.018.027l-.27.152c-.008.01-.017.01-.035 0l-.27-.152c-.008-.01-.017-.018-.017-.027v-.314c0-.01.009-.018.018-.027l.269-.153z"/>
  </g>
</svg>
