<svg width="48" height="48" viewBox="0 0 48 48" fill="none" xmlns="http://www.w3.org/2000/svg">
<path d="M11.7747 28.3633V24.9551H14.1477C14.5839 24.9551 14.9322 25.0299 15.1926 25.1797C15.453 25.3229 15.6418 25.528 15.759 25.7949C15.8827 26.0618 15.9446 26.3776 15.9446 26.7422C15.9446 27.0417 15.8795 27.3151 15.7493 27.5625C15.6256 27.8034 15.4205 27.9987 15.134 28.1484C14.8541 28.2917 14.4797 28.3633 14.011 28.3633H11.7747Z" fill="#324558"/>
<path d="M14.7141 22.5332C14.3951 22.6504 13.9687 22.709 13.4348 22.709H11.7747V19.4277H13.4543C13.9622 19.4277 14.3756 19.4863 14.6946 19.6035C15.0201 19.7142 15.2577 19.8932 15.4075 20.1406C15.5572 20.388 15.6321 20.7135 15.6321 21.1172C15.6321 21.4688 15.5572 21.7617 15.4075 21.9961C15.2642 22.2305 15.0331 22.4095 14.7141 22.5332Z" fill="#324558"/>
<path fill-rule="evenodd" clip-rule="evenodd" d="M3 9C1.89543 9 1 9.89543 1 11V37C1 38.1046 1.89543 39 3 39H45C46.1046 39 47 38.1046 47 37V11C47 9.89543 46.1046 9 45 9H3ZM17.4485 23.5781C17.3396 23.6375 17.223 23.6915 17.0988 23.7401C17.3562 23.806 17.5867 23.8952 17.7903 24.0078C18.3502 24.3138 18.7506 24.7174 18.9915 25.2188C19.2323 25.7201 19.3528 26.2441 19.3528 26.791C19.3528 27.722 19.151 28.5 18.7473 29.125C18.3502 29.75 17.7545 30.2188 16.9602 30.5312C16.1659 30.8438 15.1829 31 14.011 31H8.34692V16.7812H13.4543C14.3333 16.7812 15.1178 16.8626 15.8079 17.0254C16.498 17.1816 17.0839 17.4225 17.5657 17.748C18.054 18.0736 18.425 18.4837 18.679 18.9785C18.9329 19.4668 19.0598 20.043 19.0598 20.707C19.0598 21.2865 18.9361 21.8301 18.6887 22.3379C18.4413 22.8457 18.0279 23.2591 17.4485 23.5781ZM27.8672 20.4336V22.7188H26.129V27.5527C26.129 27.8327 26.1615 28.0508 26.2266 28.207C26.2917 28.3568 26.4024 28.4642 26.5586 28.5293C26.7214 28.5879 26.9362 28.6172 27.2032 28.6172C27.392 28.6172 27.5482 28.6139 27.6719 28.6074C27.7956 28.5944 27.9128 28.5781 28.0235 28.5586V30.9121C27.7435 31.0033 27.4506 31.0716 27.1446 31.1172C26.8386 31.1693 26.5131 31.1953 26.168 31.1953C25.4649 31.1953 24.8627 31.0846 24.3614 30.8633C23.8666 30.6419 23.489 30.2936 23.2286 29.8184C22.9681 29.3431 22.8379 28.7246 22.8379 27.9629V22.7188H21.5V20.4336H22.8379V17.8066H26.129V20.4336H27.8672ZM33.6083 23.5195V31H30.3172V20.4336H33.4032L33.515 21.6642C33.5329 21.6411 33.5509 21.6183 33.5692 21.5957C33.9273 21.153 34.3537 20.8177 34.8485 20.5898C35.3498 20.3555 35.9064 20.2383 36.5184 20.2383C37.0067 20.2383 37.4527 20.3099 37.8563 20.4531C38.2665 20.5964 38.618 20.8275 38.911 21.1465C39.2105 21.4655 39.4383 21.8887 39.5946 22.416C39.7573 22.9368 39.8387 23.5814 39.8387 24.3496V31H36.5282V24.3398C36.5282 23.9167 36.4696 23.5944 36.3524 23.373C36.2352 23.1452 36.0659 22.9889 35.8446 22.9043C35.6232 22.8197 35.353 22.7773 35.034 22.7773C34.6955 22.7773 34.409 22.8424 34.1747 22.9727C33.9403 23.1029 33.7515 23.2852 33.6083 23.5195Z" fill="#324558"/>
</svg>
