<svg width="48" height="48" viewBox="0 0 48 48" fill="none" xmlns="http://www.w3.org/2000/svg">
<path d="M23.2929 2.70696C23.6834 2.31643 24.3166 2.31643 24.7071 2.70696L32.0001 9.99988H16L23.2929 2.70696Z" fill="#324558"/>
<path d="M16.0001 37.9999H32L24.7071 45.2927C24.3166 45.6833 23.6834 45.6833 23.2929 45.2927L16.0001 37.9999Z" fill="#324558"/>
<path fill-rule="evenodd" clip-rule="evenodd" d="M4 14.9999C4 13.8953 4.89543 12.9999 6 12.9999H42C43.1046 12.9999 44 13.8953 44 14.9999V32.9999C44 34.1044 43.1046 34.9999 42 34.9999H6C4.89543 34.9999 4 34.1044 4 32.9999V14.9999ZM18.5393 29.9813H27.469V27.6962H22.4329L24.0852 25.7889C24.9641 24.91 25.5999 24.2098 25.9924 23.6884C26.3909 23.161 26.6838 22.66 26.8713 22.1854C27.0588 21.705 27.1526 21.2128 27.1526 20.7089C27.1526 19.5135 26.7776 18.5966 26.0276 17.9579C25.2834 17.3192 24.22 16.9999 22.8372 16.9999C21.9758 16.9999 21.1965 17.1874 20.4993 17.5624C19.802 17.9374 19.2571 18.4589 18.8645 19.1268C18.4719 19.7889 18.2756 20.5126 18.2756 21.2977H21.2463C21.2463 20.7235 21.387 20.246 21.6682 19.8651C21.9495 19.4784 22.3157 19.285 22.7668 19.285C23.2239 19.285 23.5725 19.4286 23.8127 19.7157C24.053 20.0028 24.1731 20.4218 24.1731 20.9725C24.1731 21.6522 23.6663 22.5692 22.6526 23.7235L18.5393 28.0477V29.9813ZM33.7876 22.3436H32.3902V24.5497H33.8316C34.3999 24.5497 34.8452 24.6844 35.1675 24.954C35.4898 25.2235 35.6509 25.6805 35.6509 26.3251C35.6509 26.7762 35.4956 27.1483 35.1851 27.4413C34.8745 27.7284 34.4585 27.8719 33.937 27.8719C33.4742 27.8719 33.0845 27.7284 32.7681 27.4413C32.4517 27.1542 32.2935 26.8143 32.2935 26.4218H29.314C29.314 27.1425 29.4986 27.787 29.8677 28.3553C30.2368 28.9178 30.7788 29.3602 31.4937 29.6825C32.2144 29.9989 32.9937 30.1571 33.8316 30.1571C35.2613 30.1571 36.4156 29.8143 37.2945 29.1288C38.1734 28.4432 38.6128 27.5292 38.6128 26.3866C38.6128 25.6483 38.4195 25.0302 38.0327 24.5321C37.646 24.0282 37.1128 23.6532 36.4331 23.4071C37.0777 23.1024 37.5669 22.7069 37.9009 22.2206C38.2408 21.7284 38.4107 21.2069 38.4107 20.6561C38.4107 19.5194 38.0034 18.6259 37.189 17.9755C36.3745 17.3251 35.2554 16.9999 33.8316 16.9999C33.0347 16.9999 32.3023 17.1493 31.6343 17.4481C30.9722 17.7411 30.4536 18.1512 30.0786 18.6786C29.7036 19.2059 29.5161 19.8065 29.5161 20.4803H32.4781C32.4781 20.1405 32.6216 19.8563 32.9087 19.6278C33.2017 19.3993 33.5445 19.285 33.937 19.285C34.4175 19.285 34.7896 19.4198 35.0533 19.6893C35.3169 19.953 35.4488 20.2958 35.4488 20.7177C35.4488 21.8016 34.8951 22.3436 33.7876 22.3436ZM15.8887 29.9813H12.918V20.5243L10 21.3768V19.1268L15.6162 17.1844H15.8887V29.9813Z" fill="#324558"/>
</svg>
