<svg width="48" height="48" viewBox="0 0 48 48" fill="none" xmlns="http://www.w3.org/2000/svg">
<path fill-rule="evenodd" clip-rule="evenodd" d="M3 9C1.89543 9 1 9.89543 1 11V37C1 38.1046 1.89543 39 3 39H29V29H32C32 24.5817 35.5817 21 40 21C43.012 21 45.6353 22.6646 47 25.124V11C47 9.89543 46.1046 9 45 9H3ZM17 24C17 25.6569 15.6569 27 14 27C12.3431 27 11 25.6569 11 24C11 22.3431 12.3431 21 14 21C15.6569 21 17 22.3431 17 24ZM27 24C27 25.6569 25.6569 27 24 27C22.3431 27 21 25.6569 21 24C21 22.3431 22.3431 21 24 21C25.6569 21 27 22.3431 27 24Z" fill="#324558"/>
<path fill-rule="evenodd" clip-rule="evenodd" d="M32 32H35V29C35 26.2386 37.2386 24 40 24C42.7614 24 45 26.2386 45 29V32H48V44H32V32ZM42 29V32H38V29C38 27.8954 38.8954 27 40 27C41.1046 27 42 27.8954 42 29Z" fill="#324558"/>
</svg>
