<svg width="48" height="48" viewBox="0 0 48 48" fill="none" xmlns="http://www.w3.org/2000/svg">
<path fill-rule="evenodd" clip-rule="evenodd" d="M4 14C4 9.58172 7.58172 6 12 6H36C40.4183 6 44 9.58172 44 14C44 18.4183 40.4183 22 36 22H12C7.58172 22 4 18.4183 4 14ZM40 14C40 16.7614 37.7614 19 35 19C32.2386 19 30 16.7614 30 14C30 11.2386 32.2386 9 35 9C37.7614 9 40 11.2386 40 14Z" fill="#324558"/>
<path fill-rule="evenodd" clip-rule="evenodd" d="M4 34C4 29.5817 7.58172 26 12 26H36C40.4183 26 44 29.5817 44 34C44 38.4183 40.4183 42 36 42H12C7.58172 42 4 38.4183 4 34ZM18 34C18 36.7614 15.7614 39 13 39C10.2386 39 8 36.7614 8 34C8 31.2386 10.2386 29 13 29C15.7614 29 18 31.2386 18 34Z" fill="#324558"/>
</svg>
