<svg width="48" height="48" viewBox="0 0 48 48" fill="none" xmlns="http://www.w3.org/2000/svg">
<path d="M24 5C39.2016 5 43 8.79842 43 24C43 39.2016 39.2016 43 24 43C8.79842 43 5 39.2016 5 24C5 8.79842 8.79842 5 24 5ZM20.8824 34.393C24.8788 34.3977 28.1721 31.1155 28.18 27.1176C28.18 23.126 24.8962 19.8422 20.9046 19.8422C16.913 19.8422 13.6292 23.1276 13.6292 27.1176C13.6292 31.1013 16.8988 34.3819 20.8824 34.393ZM34.0938 34.0938V13.9062H13.9062V17.464H30.5281V34.0938H34.0938ZM20.8824 23.4094C21.3696 23.4096 21.8519 23.5058 22.302 23.6924C22.752 23.879 23.1608 24.1525 23.5051 24.4971C23.8495 24.8417 24.1226 25.2508 24.3088 25.701C24.495 26.1511 24.5908 26.6336 24.5906 27.1208C24.5904 27.6079 24.4942 28.0903 24.3076 28.5403C24.121 28.9903 23.8475 29.3991 23.5029 29.7435C23.1583 30.0878 22.7492 30.3609 22.299 30.5471C21.8489 30.7334 21.3664 30.8291 20.8793 30.8289C19.8954 30.8285 18.9519 30.4372 18.2565 29.7412C17.5611 29.0452 17.1707 28.1015 17.1711 27.1176C17.1715 26.1337 17.5628 25.1903 18.2588 24.4949C18.9548 23.7994 19.8985 23.409 20.8824 23.4094Z" fill="#324558"/>
</svg>
