<svg width="48" height="48" viewBox="0 0 48 48" fill="none" xmlns="http://www.w3.org/2000/svg">
<path d="M29.1003 8C28.6768 8.03617 28.235 8.07234 27.8115 8.1266C26.0045 8.32503 24.2471 8.83559 22.6195 9.6349C20.9417 10.4451 19.4164 11.532 18.1095 12.8486C18.0545 12.921 17.9445 12.9572 17.851 12.9391C16.9434 12.806 16.0245 12.7636 15.1083 12.8125C13.2395 12.9031 11.4096 13.3728 9.733 14.1924C6.49167 15.7911 4.20917 18.2796 2.88367 21.6218C2.40006 22.8603 2.11433 24.1653 2.03667 25.4902C2.03667 25.5806 2.01833 25.653 2 25.7253V27.1233C2.03667 27.4868 2.09167 27.8323 2.12833 28.1958C2.31167 29.6661 2.737 31.0822 3.41717 32.4096C4.92783 35.3865 7.247 37.5657 10.3582 38.9095C11.7789 39.5274 13.2999 39.8905 14.8498 39.9819C14.9085 39.9819 14.9598 39.9891 15.0075 40H30.7302C31.0657 39.9693 31.3938 39.9367 31.733 39.8915C33.5276 39.6927 35.2724 39.1821 36.8865 38.3832C39.6432 37.0559 41.9612 34.9837 43.5708 32.4078C44.6731 30.7086 45.4118 28.8051 45.7415 26.8141C45.8332 26.1992 45.8882 25.5626 45.9633 24.944C45.9633 24.8536 45.9817 24.7813 46 24.7089V23.273C45.9633 22.857 45.9083 22.4555 45.9083 22.0757C45.707 20.3048 45.1894 18.583 44.3793 16.9902C43.0139 14.2732 40.9024 11.9891 38.2853 10.3981C36.5717 9.32382 34.6563 8.60111 32.6533 8.27309C31.9897 8.16458 31.3462 8.11032 30.6825 8.03798C30.5908 8.03798 30.5175 8.01989 30.4258 8.00181L29.1003 8ZM29.7768 11.0618C33.6745 11.0709 36.9818 12.5557 39.6677 15.5018C41.1884 17.2036 42.2124 19.2806 42.6303 21.5115C42.9053 22.8932 42.9622 24.3093 42.7587 25.7072C42.4103 28.1415 41.4717 30.319 39.8693 32.227C38.0075 34.4818 35.4232 36.0444 32.5415 36.6579C31.0001 36.9907 29.4112 37.0519 27.8482 36.8387C25.8407 36.5855 24 35.9326 22.3427 34.7517C21.903 34.4413 21.4908 34.0946 21.1107 33.7154C18.863 31.5361 16.6373 29.3388 14.3897 27.1595C13.8378 26.6169 13.8012 26.0165 14.0597 25.4703C14.1948 25.1788 14.4219 24.9381 14.707 24.7843C14.9922 24.6305 15.3201 24.5717 15.6418 24.6167C16.0268 24.6529 16.3238 24.8717 16.5988 25.1448C18.6247 27.1595 20.6322 29.1398 22.6562 31.1563C24.1758 32.6851 26.1736 33.6638 28.3267 33.9342C31.898 34.4062 34.9358 33.3175 37.3467 30.6825C38.6538 29.2483 39.4458 27.523 39.7777 25.5987C40.2543 22.7286 39.576 20.1497 37.7702 17.88C36.1697 15.8635 34.0705 14.6101 31.5295 14.1562C28.9335 13.7041 26.486 14.1924 24.2585 15.5922C24.2035 15.6283 24.0752 15.6464 24.0183 15.6103C23.2085 15.0192 22.3457 14.5023 21.4407 14.0658C21.4407 14.0658 21.4223 14.0477 21.404 14.0115C22.1111 13.4307 22.883 12.9314 23.7048 12.5231C25.2007 11.7221 26.85 11.2391 28.5467 11.1052C28.9554 11.0747 29.3651 11.0603 29.775 11.0618H29.7768ZM15.8343 15.8779C18.5018 15.8345 20.9512 16.8274 23.1347 18.8258C24.7003 20.2763 26.1358 21.7846 27.6447 23.2929C28.0682 23.7088 28.1598 24.2369 27.9582 24.7994C27.7565 25.3618 27.2945 25.6349 26.706 25.7253C26.4932 25.754 26.2764 25.731 26.0746 25.6586C25.8727 25.5861 25.6918 25.4662 25.5473 25.3094C24.11 23.8915 22.6745 22.4935 21.2573 21.0593C20.0968 19.8784 18.7163 19.2056 17.0957 18.9144C13.506 18.2796 9.87967 20.3323 8.59083 23.6907C6.9335 27.9589 9.54783 32.7894 14.0578 33.8076C14.9415 34.0066 15.882 34.0066 16.8023 33.9885C17.059 33.9704 17.2057 34.0608 17.389 34.2236C18.2745 35.079 19.2132 35.9326 20.1335 36.7844C20.1885 36.8387 20.2618 36.893 20.3168 36.9472C20.2068 36.9472 20.1335 36.9653 20.0602 36.9653H15.8435C13.4106 36.9648 11.0507 36.146 9.15313 34.6441C7.2556 33.1421 5.93395 31.0468 5.40633 28.704C4.20917 23.3833 7.302 17.9885 12.604 16.4096C13.6499 16.0827 14.7375 15.9036 15.8343 15.8779Z" fill="#324558"/>
</svg>
