<svg width="48" height="48" viewBox="0 0 48 48" fill="none" xmlns="http://www.w3.org/2000/svg">
<path d="M21.6822 6.44164L6.08379 12.8961C5.21635 13.2551 5.22534 14.4872 6.09821 14.8331L21.7619 21.0447C23.1383 21.5905 24.6709 21.5905 26.0471 21.0447L41.711 14.8331C42.5836 14.4872 42.5929 13.2551 41.7252 12.8961L26.127 6.44164C24.7038 5.85279 23.1052 5.85279 21.6822 6.44164Z" fill="#324558"/>
<path d="M25.2941 24.4367V39.954C25.2941 40.6921 26.0383 41.1974 26.7243 40.9255L44.1785 34.1506C44.577 33.9926 44.8383 33.6076 44.8383 33.1791V17.6618C44.8383 16.9237 44.0941 16.4183 43.408 16.6903L25.9539 23.4652C25.5556 23.6232 25.2941 24.0082 25.2941 24.4367Z" fill="#324558"/>
<path d="M15.5125 27.9928L21.2185 25.2374C22.0405 24.8404 21.9743 23.6594 21.1314 23.325L4.54993 16.7551C4.23304 16.6298 3.86034 16.6717 3.59902 16.8284C3.5049 16.8807 3.41432 16.9467 3.33439 17.0269C3.14284 17.208 3 17.4485 3 17.7271V32.2914C3 33.0614 3.8847 33.5665 4.57784 33.2321L15.5125 27.9928Z" fill="#324558"/>
</svg>
