<svg width="48" height="48" viewBox="0 0 48 48" fill="none" xmlns="http://www.w3.org/2000/svg">
<path d="M29.2014 9.00001H39.3565C41.3826 9.00346 43.3247 9.79031 44.7574 11.1882C46.19 12.586 46.9965 14.481 47 16.4578V29.5422C47.0013 30.5219 46.8045 31.4923 46.4209 32.3977C46.0372 33.3031 45.4742 34.1257 44.7642 34.8185C44.0542 35.5113 43.211 36.0606 42.2831 36.4349C41.3551 36.8093 40.3606 37.0013 39.3565 37H29.2014L31.6427 33.6166L39.0384 31.4062C39.6915 31.2062 40.2611 30.8061 40.6626 30.2651C41.0641 29.7242 41.276 29.0713 41.2669 28.4035V17.5965C41.2764 16.9284 41.0646 16.2752 40.6631 15.7339C40.2616 15.1926 39.6918 14.7922 39.0384 14.5922L31.6427 12.3834L29.2014 9.00001Z" fill="#324558"/>
<path d="M7.33692 30.2302C7.73844 30.7714 8.30824 31.1719 8.96164 31.3719L16.3573 33.5823L18.7986 36.9657H8.64351C7.63938 36.967 6.64485 36.775 5.7169 36.4006C4.78895 36.0263 3.94582 35.477 3.23579 34.7842C2.52576 34.0914 1.96279 33.2688 1.57914 32.3634C1.19549 31.458 0.998684 30.4876 1.00001 29.5078V16.4578C0.998684 15.4781 1.19549 14.5077 1.57914 13.6023C1.96279 12.6969 2.52576 11.8743 3.23579 11.1815C3.94582 10.4887 4.78895 9.93941 5.7169 9.56507C6.64485 9.19074 7.63938 8.99872 8.64351 9.00001H18.7986L16.3573 12.3834L8.96164 14.5922C8.31136 14.7972 7.74485 15.1989 7.34418 15.739C6.9435 16.2792 6.72946 16.9298 6.73305 17.5965V28.3675C6.72363 29.0356 6.93541 29.6889 7.33692 30.2302Z" fill="#324558"/>
<path d="M32 22H16V26H32V22Z" fill="#324558"/>
</svg>
