<svg width="48" height="48" viewBox="0 0 48 48" fill="none" xmlns="http://www.w3.org/2000/svg">
<path d="M24.0754 4C23.3175 4.00096 22.5602 4.04448 21.8071 4.13036C22.8658 4.86108 23.8752 5.66113 24.8288 6.52528L25.6288 7.25729L24.8538 8.00936C24.192 8.64574 23.5655 9.31804 22.9771 10.0232L22.6804 10.3826C23.1565 10.3305 23.6349 10.3026 24.1138 10.299C26.2011 10.323 28.2548 10.8289 30.1156 11.7774C31.9765 12.726 33.5944 14.0916 34.844 15.7685C36.0936 17.4454 36.9412 19.3883 37.3211 21.4468C37.701 23.5052 37.603 25.6237 37.0346 27.638C36.4663 29.6523 35.4429 31.5083 34.0439 33.0619C32.6448 34.6155 30.9077 35.825 28.9673 36.5967C27.0269 37.3683 24.9353 37.6813 22.8547 37.5114C20.7742 37.3415 18.7607 36.6933 16.9703 35.6169C15.9518 35.736 14.9273 35.7951 13.9019 35.7941H12.4685C12.51 37.3987 12.657 38.9988 12.9085 40.5839C15.493 42.331 18.4499 43.4464 21.5419 43.8404C24.6339 44.2345 27.775 43.8963 30.7131 42.853C33.6512 41.8097 36.3046 40.0904 38.4604 37.8329C40.6161 35.5754 42.2143 32.8427 43.1266 29.8539C44.0389 26.8651 44.2399 23.7035 43.7136 20.6228C43.1873 17.542 41.9482 14.6278 40.0959 12.114C38.2435 9.60022 35.8294 7.5568 33.0473 6.14769C30.2651 4.73858 27.1923 4.00301 24.0754 4ZM17.617 5.07796C16.0793 5.60999 14.611 6.32541 13.2435 7.20882C14.2642 7.38741 15.2733 7.62739 16.2653 7.92747C16.6673 6.95524 17.1185 6.00418 17.617 5.07796ZM19.7053 5.1983C19.0768 6.27189 18.5227 7.38759 18.047 8.53748C18.9577 8.85681 19.8507 9.22502 20.722 9.64051C20.9473 9.34568 21.1865 9.06179 21.4387 8.78984C21.8287 8.31186 22.2254 7.8556 22.6321 7.42442C21.7121 6.61163 20.7339 5.86759 19.7053 5.1983ZM11.8002 8.8734C11.6988 10.1728 11.6988 11.4781 11.8002 12.7775C12.7785 12.6688 13.7936 12.6103 14.8202 12.5986C15.0337 11.611 15.3008 10.6357 15.6203 9.67728C14.3675 9.31882 13.0909 9.05018 11.8002 8.8734ZM10.0335 9.79427C8.8375 10.9834 7.79693 12.3199 6.93673 13.7719C7.96469 13.4654 9.00917 13.2176 10.0651 13.0298C9.99467 11.9527 9.9841 10.8725 10.0335 9.79427ZM17.377 10.2739C17.1386 11.0043 16.9353 11.758 16.7436 12.5251C17.6182 11.9744 18.5519 11.5243 19.527 11.1831C18.822 10.8488 18.1186 10.548 17.377 10.2739ZM14.5002 14.3334C13.6337 14.3454 12.7684 14.4057 11.9085 14.5139C12.0152 15.388 12.1702 16.2487 12.3619 17.1111C12.9559 16.099 13.6743 15.1659 14.5002 14.3334ZM10.2501 14.5624C8.77225 14.8325 7.32103 15.2329 5.91338 15.759H5.78337V15.891C6.36844 17.3646 7.07479 18.7867 7.89509 20.1427L7.96675 20.2614L8.08676 20.1795C9.01142 19.5162 9.97667 18.9116 10.9768 18.3695L11.0718 18.311V18.2174C10.7717 17.0664 10.5446 15.8976 10.3918 14.7178V14.5641L10.2501 14.5624ZM5.07336 17.4737L4.96835 17.808C4.37719 19.6232 4.05102 21.5146 4 23.4234V23.7727L4.23834 23.5187C5.0688 22.6598 5.95044 21.8522 6.8784 21.1004L6.9734 21.0285L6.90173 20.9215C6.26436 19.9186 5.69366 18.8746 5.19336 17.7963L5.07336 17.4737ZM11.3568 19.5678L11.0568 19.7349C10.2818 20.1912 9.50679 20.6926 8.76511 21.2207L8.65677 21.3043L8.74011 21.4112C9.25512 22.1416 9.81513 22.8602 10.4001 23.5437L10.6285 23.8195V23.4719C10.6698 22.2524 10.8738 21.0439 11.2352 19.8787L11.3568 19.5678ZM7.66675 22.0831L7.54675 22.1666C6.46793 23.0547 5.4578 24.0234 4.52501 25.0646L4.42834 25.1615L4.53835 25.2568C5.57639 26.1709 6.68611 26.9997 7.85675 27.7353L7.97675 27.8188L8.04842 27.6851C8.57986 26.7381 9.16587 25.8229 9.80346 24.9443V24.8607L9.73179 24.7771C9.02217 23.9579 8.35996 23.0986 7.74842 22.2034L7.66675 22.0831ZM10.7585 25.5442L10.5568 25.8317C10.0036 26.6011 9.49339 27.4006 9.02844 28.2266L8.95678 28.347L9.07511 28.4188C9.92001 28.8909 10.789 29.3182 11.6785 29.699L12.0002 29.8427L11.8568 29.5202C11.3208 28.3684 10.9504 27.1463 10.7568 25.8902L10.7585 25.5442ZM4.13167 26.3465V26.6807C4.38121 28.6014 4.91252 30.4745 5.70837 32.2393L5.83837 32.5502L5.95838 32.226C6.35284 31.0815 6.82335 29.9648 7.36674 28.8834L7.46174 28.7781L7.35507 28.7063C6.32389 28.0548 5.3352 27.3381 4.39501 26.5604L4.13167 26.3465ZM8.3701 29.3631L8.31176 29.4968C7.64993 30.8289 7.10185 32.2149 6.67339 33.6398V33.7735H6.81673C8.28386 34.1786 9.78259 34.4581 11.2968 34.6092L11.4168 34.6209V34.4771C11.4407 33.3274 11.532 32.18 11.6902 31.041V30.9324H11.5835C10.5258 30.4989 9.49651 29.9987 8.50177 29.4349L8.3701 29.3631ZM12.6102 31.3168V31.5073C12.4723 32.5205 12.3883 33.5403 12.3585 34.5624V34.6927H13.9102C14.3886 34.6927 14.9502 34.7161 15.4869 34.6927H15.8353L15.5586 34.4771C14.4955 33.6027 13.5735 32.5688 12.8252 31.4121L12.6102 31.3168ZM7.12674 34.8264L7.31841 35.1139C8.46342 36.8463 9.87028 38.3895 11.4885 39.6881L11.7502 39.9037V39.5678C11.5717 38.2731 11.4605 36.97 11.4168 35.6637V35.5451H11.2968C10.0052 35.422 8.72409 35.2058 7.46341 34.8983L7.12674 34.8264Z" fill="#324558"/>
</svg>
