<svg width="48" height="48" viewBox="0 0 48 48" fill="none" xmlns="http://www.w3.org/2000/svg">
<path d="M35.2727 17.489L39.101 11.074C39.1542 10.9441 39.1705 10.8027 39.1484 10.6646C39.1262 10.5264 39.0663 10.3965 38.9749 10.2883C38.8835 10.18 38.7638 10.0974 38.6283 10.0488C38.4928 10.0003 38.3464 9.98765 38.2041 10.0122C38.0136 10.0457 37.842 10.1446 37.7208 10.2907L33.8437 16.8053C30.7468 15.4609 27.3909 14.7659 23.9965 14.7659C20.6022 14.7659 17.2462 15.4609 14.1493 16.8053L10.2722 10.3059C10.1501 10.1611 9.97841 10.0633 9.78823 10.0302C9.59806 9.99706 9.40191 10.0309 9.23524 10.1254C9.06857 10.22 8.94237 10.3692 8.87943 10.5459C8.81649 10.7227 8.82097 10.9154 8.89205 11.0892L12.7203 17.4906C9.41385 19.2337 6.60991 21.7483 4.56312 24.8061C2.51632 27.8639 1.29153 31.3679 1 35H47C46.7071 31.3675 45.481 27.8632 43.4331 24.8055C41.3851 21.7477 38.5801 19.2334 35.2727 17.4906V17.489ZM13.4025 28.6594C13.0241 28.6582 12.6544 28.5487 12.34 28.3448C12.0256 28.1409 11.7806 27.8516 11.6357 27.5133C11.4908 27.175 11.4525 26.8029 11.5257 26.4436C11.5988 26.0843 11.7801 25.754 12.0468 25.4941C12.2696 25.2788 12.5439 25.12 12.8453 25.0317C13.1467 24.9435 13.4659 24.9284 13.7748 24.9879C14.0836 25.0475 14.3725 25.1797 14.616 25.373C14.8594 25.5663 15.0498 25.8147 15.1704 26.0962C15.2909 26.3776 15.3379 26.6835 15.3072 26.9867C15.2764 27.29 15.1689 27.5812 14.9941 27.8346C14.8193 28.088 14.5826 28.2959 14.305 28.4397C14.0274 28.5836 13.7175 28.659 13.4025 28.6594ZM34.58 28.6594C34.3283 28.6598 34.079 28.6123 33.8463 28.5195C33.6135 28.4267 33.402 28.2905 33.2237 28.1186C33.0454 27.9467 32.9038 27.7425 32.807 27.5177C32.7103 27.2929 32.6602 27.0518 32.6598 26.8083C32.6593 26.5648 32.7084 26.3236 32.8043 26.0984C32.9003 25.8732 33.0411 25.6686 33.2187 25.4961C33.3964 25.3235 33.6074 25.1866 33.8398 25.093C34.0722 24.9994 34.3213 24.951 34.573 24.9505C35.0814 24.9496 35.5693 25.1441 35.9294 25.4913C36.2895 25.8384 36.4923 26.3097 36.4933 26.8016C36.4942 27.2934 36.2931 27.7654 35.9343 28.1138C35.5755 28.4622 35.0884 28.6585 34.58 28.6594Z" fill="#324558"/>
</svg>
