<svg width="48" height="48" viewBox="0 0 48 48" fill="none" xmlns="http://www.w3.org/2000/svg">
<path fill-rule="evenodd" clip-rule="evenodd" d="M23.9959 2C22.0371 6.80149 20.8557 9.94222 18.6748 14.601C20.0119 16.0181 21.6532 17.6683 24.3186 19.5322C21.453 18.3532 19.4984 17.1696 18.0376 15.9413C15.2466 21.7642 10.8738 30.0586 2 46C8.97449 41.9743 14.381 39.4923 19.4196 38.5453C19.2032 37.6149 19.0802 36.6085 19.0886 35.5585L19.0969 35.3351C19.2075 30.8676 21.532 27.432 24.2855 27.6653C27.039 27.8986 29.1793 31.7115 29.0686 36.179C29.0478 37.0197 28.953 37.8284 28.7873 38.5784C33.7712 39.5532 39.1199 42.0287 46 46C44.6434 43.5028 43.4325 41.2518 42.2761 39.1079C40.4546 37.6964 38.5547 35.8594 34.6793 33.8706C37.3431 34.5626 39.2503 35.3611 40.7369 36.2535C28.9797 14.3678 28.0277 11.4597 23.9959 2Z" fill="#324558"/>
</svg>
