<svg width="48" height="48" viewBox="0 0 48 48" fill="none" xmlns="http://www.w3.org/2000/svg">
<path d="M10.7584 18.7184C10.7358 16.6983 11.016 14.9502 11.7325 13.2895C12.8736 10.6443 14.6954 8.6086 17.1072 7.10419C17.239 7.02826 17.3919 6.99902 17.5419 7.02107C17.6918 7.04312 17.8303 7.1152 17.9355 7.22599C18.0442 7.33636 18.0011 7.44109 17.9557 7.55167L17.9548 7.55386C17.7752 7.95354 17.4707 8.28166 17.0886 8.48714C15.142 9.65959 13.7893 11.3676 12.8379 13.4167C12.0307 15.1208 11.6474 17.0003 11.7215 18.8901C11.822 21.289 12.5146 23.5041 13.9098 25.4674C14.0688 25.6595 14.1764 25.8901 14.2221 26.1368C14.2261 26.1689 14.2333 26.2016 14.2405 26.2343C14.2666 26.352 14.2925 26.4694 14.1666 26.5549C14.0925 26.6097 14.0064 26.6453 13.9157 26.6586C13.825 26.6719 13.7325 26.6626 13.6461 26.6314C13.475 26.5641 13.328 26.4456 13.2246 26.2915C11.925 24.4977 11.0717 22.5226 10.8241 20.29C10.7899 19.9809 10.7887 19.6713 10.7877 19.3924C10.7867 19.1326 10.7859 18.8995 10.7584 18.7184Z" fill="#324558"/>
<path d="M18.5277 6.02148C18.4942 6.10697 18.4779 6.19844 18.4798 6.29045C18.4799 6.79799 18.7142 7.15462 19.0539 7.16411C19.3558 7.17254 19.9186 6.70945 19.9122 6.45794C19.9006 6.00387 19.5443 5.59095 19.1625 5.58899C19.072 5.58804 18.9822 5.60559 18.8984 5.6406C18.8147 5.67561 18.7387 5.72737 18.675 5.7928C18.6114 5.85823 18.5613 5.936 18.5277 6.02148Z" fill="#324558"/>
<path d="M17.6408 20.0042C17.6308 19.708 17.7366 19.4198 17.9351 19.2028C18.1337 18.9857 18.4088 18.8574 18.7002 18.8459C19.3853 18.8422 19.9095 19.3426 19.9165 20.0071C19.9235 20.6587 19.4289 21.1468 18.7638 21.1449C18.0771 21.1429 17.6441 20.7031 17.6408 20.0042Z" fill="#324558"/>
<path d="M28.24 19.9622C28.2324 20.6779 28.6711 21.141 29.3606 21.1451C30.024 21.149 30.5232 20.664 30.5222 20.0165C30.5158 19.6973 30.3849 19.3938 30.1583 19.1727C29.9317 18.9516 29.628 18.8309 29.314 18.8373C29.029 18.8545 28.7607 18.9795 28.5619 19.1877C28.3632 19.3959 28.2483 19.6722 28.24 19.9622Z" fill="#324558"/>
<path fill-rule="evenodd" clip-rule="evenodd" d="M25.049 2C25.836 2.06822 26.6185 2.18218 27.3927 2.34133C30.4215 3.04445 33.0202 4.56432 35.2959 6.67618C37.3904 8.61984 38.7538 11.0257 39.5081 13.7919C39.6684 14.3799 39.8972 14.8186 40.565 14.9359C40.9351 15.0009 40.9947 15.3843 40.9962 15.7243C41.0005 16.6816 41.0001 17.639 40.9998 18.5964L40.9997 19.2812C40.9996 20.0209 40.9985 20.7606 40.9962 21.5002C40.9932 22.1519 40.7873 22.3774 40.1565 22.368C39.7752 22.3623 39.627 22.5872 39.5339 22.9027C39.2722 23.7996 38.9396 24.6736 38.5394 25.5161C37.0644 28.6001 34.7803 30.9012 31.8866 32.6115C31.7479 32.6935 31.6076 32.7727 31.4668 32.8509C31.0123 33.1034 31.0016 33.1193 31.1874 33.6113C31.2889 33.882 31.4493 34.1258 31.6567 34.3244C31.864 34.5231 32.1129 34.6715 32.3847 34.7585C32.6782 34.8654 32.9811 34.9329 33.284 35.0004C33.4823 35.0445 33.6805 35.0887 33.8761 35.1439C34.0277 35.1731 34.1726 35.2311 34.3032 35.3147C34.2126 35.4296 34.0969 35.4414 33.9868 35.4527C33.952 35.4562 33.9177 35.4597 33.885 35.4664C33.7313 35.4978 33.5782 35.5332 33.4252 35.5686C32.9326 35.6826 32.44 35.7966 31.9256 35.7767C31.658 35.7847 31.3911 35.7454 31.1367 35.6605C30.9315 35.5769 30.8615 35.6485 30.8195 35.8608C30.7206 36.4171 30.6698 36.9811 30.6674 37.5464C30.6469 38.4011 30.5849 39.2528 30.5229 40.1043C30.5029 40.3789 30.4829 40.6535 30.4643 40.9282C30.3903 42.0227 30.4325 42.1215 31.4717 42.4717C31.9792 42.6428 32.4867 42.8142 32.9907 42.9954C33.01 43.0023 33.0299 43.0088 33.0499 43.0154C33.1587 43.051 33.2731 43.0884 33.3371 43.2096C33.2805 43.2914 33.2034 43.2846 33.1304 43.2783C33.1107 43.2766 33.0914 43.2749 33.0728 43.2749L32.8302 43.2759C32.0228 43.2791 31.2153 43.2823 30.408 43.2754C29.4616 43.2673 28.9528 42.7587 28.8839 41.8033C28.8089 40.764 28.7254 39.7254 28.6419 38.6867L28.6417 38.684C28.613 38.3271 28.5843 37.9702 28.556 37.6134C28.5439 37.5389 28.5281 37.4651 28.5086 37.3923C28.4035 38.0076 28.3896 38.5918 28.3759 39.1652C28.3711 39.369 28.3662 39.5715 28.3574 39.7735C28.3267 40.4729 28.3329 41.1741 28.3392 41.8753C28.3416 42.1426 28.3439 42.41 28.3443 42.6773C28.3449 43.1713 28.4989 43.3873 28.948 43.5604C29.0182 43.5875 29.0883 43.6151 29.1583 43.6426C29.7354 43.8696 30.3099 44.0957 30.9582 44.0415C31.2056 44.0208 31.4421 44.1484 31.665 44.2687L31.684 44.279C31.6878 44.281 31.6917 44.2831 31.6957 44.2852L31.7035 44.2892C31.7558 44.3162 31.8147 44.3466 31.8084 44.4116C31.8007 44.4917 31.7188 44.498 31.6568 44.4961C31.2159 44.4822 30.7743 44.4948 30.3329 44.5075C29.5871 44.5288 28.8415 44.5502 28.0989 44.4438C27.5174 44.3605 27.1367 44.0117 26.9596 43.4321C26.7985 42.9052 26.7595 42.3607 26.7206 41.8182L26.714 41.7268C26.6539 40.8968 26.6065 40.0659 26.5591 39.2351C26.541 38.9164 26.5228 38.5977 26.5039 38.2791C26.5084 38.2222 26.5011 38.165 26.4824 38.1112C26.4636 38.0573 26.434 38.0081 26.3953 37.9667C26.3357 38.074 26.3154 38.1993 26.3379 38.3204C26.3357 40.0716 26.3354 41.8229 26.3368 43.5742C26.3372 44.2868 26.5583 44.6296 27.2284 44.8732C28.095 45.1882 28.987 45.4196 29.8789 45.6485L29.9161 45.6579C30.103 45.7048 30.2874 45.7511 30.3159 46H26.9759C26.9462 45.9942 26.9166 45.988 26.887 45.9819C26.8233 45.9686 26.7596 45.9553 26.6953 45.946C25.4298 45.762 24.8899 45.2624 24.6336 44.0345C24.608 43.9116 24.5839 43.7883 24.5598 43.665L24.5596 43.6642C24.5442 43.5858 24.5289 43.5073 24.5132 43.429C24.3776 42.7546 24.242 42.0803 24.1061 41.406C23.9803 41.6253 23.892 41.8647 23.8449 42.114C23.7864 42.3999 23.732 42.6868 23.6775 42.9737L23.6774 42.9743C23.5926 43.4215 23.5078 43.8689 23.4074 44.3125C23.2027 45.2166 22.6049 45.7127 21.7258 45.8849C21.5889 45.9117 21.4519 45.9381 21.315 45.9645L21.1309 46H17.7908C17.8806 45.7278 18.107 45.673 18.3296 45.6192C18.3641 45.6109 18.3985 45.6025 18.4324 45.5934C18.6477 45.5353 18.8641 45.4808 19.0805 45.4262C19.7254 45.2635 20.3707 45.1007 20.9891 44.846C21.1862 44.7733 21.3586 44.6444 21.4854 44.4747C21.6123 44.305 21.6883 44.1017 21.7044 43.8893C21.7818 43.3043 21.7472 42.723 21.7127 42.1418C21.7003 41.9323 21.6878 41.7228 21.6806 41.5131C21.654 41.3161 21.6068 41.1226 21.54 40.9357C21.4642 41.0485 21.4198 41.18 21.4117 41.3163C21.3852 41.6151 21.3609 41.9141 21.3365 42.2132L21.3364 42.2139C21.3167 42.456 21.297 42.698 21.2761 42.94C21.2079 43.7323 20.7842 44.2532 20.0519 44.4243C19.8333 44.4769 19.6098 44.505 19.3852 44.508C18.4452 44.513 17.5051 44.5067 16.565 44.5003L16.367 44.499C16.3582 44.499 16.3492 44.4993 16.34 44.4997C16.3347 44.5 16.3293 44.5003 16.3239 44.5006C16.2457 44.5051 16.159 44.5102 16.1003 44.3808C16.4216 44.1899 16.7799 44.0724 17.1504 44.0366C17.7236 43.9674 18.2901 43.8493 18.8438 43.6833C19.6008 43.4742 19.7851 43.2267 19.7659 42.4234C19.7523 41.8536 19.7295 41.284 19.7068 40.7144C19.6615 39.5789 19.6162 38.4432 19.6429 37.3058C19.6484 37.0757 19.6469 36.8455 19.6454 36.6153C19.6447 36.5091 19.6441 36.403 19.6441 36.2968C19.5954 36.5291 19.5651 36.7651 19.5535 37.0023C19.4986 38.6099 19.3762 40.2123 19.2177 41.8122C19.1246 42.7518 18.684 43.1823 17.7683 43.2879C17.1371 43.3607 16.5094 43.3204 15.8819 43.2802C15.7101 43.2691 15.538 43.2581 15.3662 43.2494C15.3276 43.2474 15.2878 43.2471 15.2473 43.2468C15.0824 43.2455 14.9061 43.2441 14.7549 43.1318C14.8167 43.0351 14.9027 43.0123 14.9849 42.9905C15.0046 42.9852 15.0241 42.9801 15.043 42.974C15.2809 42.897 15.5193 42.8214 15.7577 42.7459L15.7595 42.7453C16.174 42.6139 16.5885 42.4825 17.0006 42.3435C17.444 42.194 17.6335 41.9117 17.6425 41.4395C17.6451 41.2982 17.6464 41.1561 17.6356 41.0154C17.5351 39.7041 17.4873 38.3904 17.4475 37.0761C17.4387 36.7831 17.418 36.4896 17.3829 36.1988C17.3413 35.854 17.1481 35.6719 16.852 35.7262C15.9407 35.8935 15.0655 35.7153 14.1952 35.4715C14.1708 35.4647 14.1451 35.4602 14.1189 35.4557C14.0298 35.4402 13.936 35.4239 13.8747 35.3115C14.0358 35.2291 14.2086 35.1727 14.3868 35.1445C14.8482 35.0499 15.3026 34.9228 15.7466 34.764C16.0247 34.6628 16.2795 34.5046 16.4951 34.2993C16.7107 34.0939 16.8826 33.8458 17 33.5702C17.1604 33.1979 17.0999 32.9888 16.7968 32.8403C14.24 31.5882 12.266 29.6701 10.6818 27.309C9.76623 25.9381 9.08134 24.422 8.65518 22.8227C8.53302 22.3721 8.37353 22.2726 7.96463 22.3459C7.41156 22.4449 7.2415 22.3567 7 21.8457V15.4481C7.25873 14.8918 7.36965 14.8223 7.96216 14.8453C8.38573 14.8617 8.40767 14.8357 8.5204 14.3995C9.23453 11.6362 10.471 9.1557 12.4363 7.08979C14.8011 4.60376 17.7296 3.15651 21.0064 2.3715C21.7241 2.19955 22.4546 2.11792 23.1852 2.03629C23.2926 2.02429 23.4001 2.01228 23.5074 2H25.049ZM39.433 18.4047C39.4401 17.8302 39.4112 17.2558 39.3465 16.685C39.2991 16.2863 39.2441 15.8873 39.166 15.4939C38.0881 10.0606 34.9391 6.2903 30.0556 4.00292C27.2543 2.69082 24.2654 2.47063 21.2574 3.06595C15.3972 4.22577 11.523 7.80068 9.46224 13.4283C8.67501 15.5782 8.56971 17.8379 8.79444 20.1184C8.95219 21.8321 9.40666 23.504 10.1369 25.057C11.1929 27.2825 12.7428 29.104 14.6074 30.6649C15.2239 31.1888 15.9028 31.6319 16.6281 31.9837C17.0519 32.1859 17.0728 32.1744 17.0711 31.715C17.082 31.4214 17.0759 31.1275 17.0529 30.8346C16.8452 29.1102 16.8026 27.3767 16.7599 25.6437C16.7563 25.4982 16.7528 25.3527 16.7491 25.2072C16.7554 25.0792 16.7279 24.9518 16.6696 24.8382C16.6112 24.7246 16.524 24.6289 16.417 24.561C15.7233 24.0703 15.1306 23.4748 14.755 22.6931C13.901 20.9156 14.0839 18.3636 16.2222 16.7994C16.4675 16.6199 16.615 16.4496 16.5786 16.1148C16.564 15.8433 16.5833 15.571 16.6361 15.3044C16.9538 13.1284 17.9836 11.3851 19.7404 10.0977C20.9698 9.19689 22.3423 8.6829 23.8646 8.66326C24.7361 8.65202 25.5842 8.86545 26.4165 9.11144C29.3169 9.96862 31.5502 12.9073 31.5476 15.8899C31.5343 16.09 31.5717 16.2903 31.6561 16.4717C31.7406 16.653 31.8693 16.8094 32.03 16.9259C32.8666 17.6048 33.512 18.4471 33.7318 19.5406C34.1286 21.5144 33.5827 23.1736 31.966 24.3693C31.4861 24.7243 31.3405 25.112 31.3646 25.6478C31.3685 25.7346 31.3654 25.8219 31.3618 25.9088C31.3249 26.7881 31.2876 27.6674 31.2499 28.5466C31.2318 28.971 31.1893 29.3937 31.1469 29.8165C31.0819 30.4633 31.017 31.1103 31.0392 31.7635L31.0396 31.775C31.0531 32.1708 31.0532 32.1754 31.401 31.9975C33.0611 31.1491 34.5308 29.9612 35.718 28.5085C38.0993 25.6157 39.4599 22.3267 39.433 18.4047ZM18.7999 24.1883C19.2611 24.1948 19.719 24.1083 20.1471 23.9339C20.5751 23.7595 20.965 23.5006 21.2941 23.1721C21.6231 22.8437 21.8849 22.4522 22.0642 22.0204C22.2435 21.5885 22.3369 21.1248 22.3389 20.656C22.3409 20.1873 22.2514 19.7228 22.0757 19.2894C21.9 18.8559 21.6416 18.4622 21.3153 18.1309C20.989 17.7996 20.6014 17.5373 20.1748 17.3591C19.7482 17.181 19.2911 17.0905 18.8299 17.093C16.8561 17.0852 15.3059 18.5988 15.2984 20.5414C15.2902 22.6446 16.7642 24.1798 18.7999 24.1883ZM29.2503 24.1881C31.2372 24.1911 32.7414 22.6769 32.7414 20.6736C32.7413 18.6719 31.2165 17.0995 29.2795 17.1036C27.3596 17.1077 25.7793 18.6907 25.7742 20.6147C25.7689 22.6395 27.2724 24.185 29.2503 24.1881ZM26.2333 27.9754C25.9831 28.1424 25.7319 28.3101 25.46 28.4425C24.4934 28.9132 23.5423 28.9142 22.6105 28.3534C22.4501 28.2569 22.2944 28.1524 22.1386 28.0478C22.0179 27.9668 21.8971 27.8857 21.7742 27.8084C21.7514 27.7941 21.7289 27.7737 21.7061 27.7531C21.6442 27.6971 21.5801 27.6391 21.5026 27.6942C21.4429 27.7367 21.4643 27.8191 21.4846 27.8978C21.4912 27.9232 21.4977 27.9482 21.5013 27.9713C21.5688 28.3006 21.6184 28.6335 21.65 28.9683C21.6985 30.0043 22.1783 30.7867 22.99 31.3699C23.1898 31.5266 23.4204 31.6381 23.6661 31.6969C23.9119 31.7557 24.1671 31.7604 24.4148 31.7107C25.4351 31.4942 26.2645 30.5846 26.4427 29.4774C26.4714 29.2992 26.4802 29.1184 26.4891 28.9376C26.5045 28.6227 26.5199 28.3077 26.6399 28.0062C26.6594 27.9622 26.6656 27.9133 26.6579 27.8657C26.6501 27.8181 26.6288 27.7739 26.5964 27.7385C26.4742 27.8146 26.3537 27.895 26.2333 27.9754Z" fill="#324558"/>
</svg>
