<svg width="48" height="48" viewBox="0 0 48 48" fill="none" xmlns="http://www.w3.org/2000/svg">
<path d="M21.4721 30.1634C17.8559 22.9128 17.4943 13.3058 22.9789 4.60503C23.5214 3.75912 24.6062 3.81954 24.9076 4.66545C25.3899 5.57177 43.7122 42.3081 43.7122 42.3081C44.1342 43.0936 43.5315 44 42.6876 44H29.0663C28.6445 44 28.2226 43.7584 28.0418 43.3353C27.9323 43.0794 26.8743 40.9658 25.2547 37.7303C24.1974 35.6179 22.9006 33.0273 21.4721 30.1634Z" fill="#324558"/>
<path d="M13.8778 22.6715C14.2997 21.886 15.2038 21.8254 15.8065 22.4902C20.9898 27.9885 22.798 37.2331 19.7844 43.3357C19.6036 43.7586 19.1817 44.0003 18.7598 44.0003H5.13848C4.29468 44.0003 3.75224 43.0939 4.11387 42.3084L13.8778 22.6715Z" fill="#324558"/>
</svg>
