<svg width="48" height="48" viewBox="0 0 48 48" fill="none" xmlns="http://www.w3.org/2000/svg">
<path d="M44.9979 36.0345C44.9979 37.5637 44.1473 40.5084 42.2382 42.1259C41.8559 42.4204 41.4716 42.2542 41.6396 41.8251C42.1962 40.4621 43.471 37.3091 42.8725 36.5835C42.4524 36.0324 40.7092 36.0724 39.2222 36.2007C38.5417 36.2869 37.9474 36.3269 37.4832 36.4215C37.0569 36.4573 36.9687 36.0787 37.3971 35.7842C37.9474 35.3951 38.5417 35.1006 39.2243 34.8839C41.6396 34.1604 44.4329 34.5958 44.832 35.0585C44.9076 35.1469 45 35.3951 45 36.0324L44.9979 36.0345ZM40.9633 38.7563C40.4088 39.1805 39.8264 39.567 39.2201 39.9131C34.7634 42.5949 28.9919 44 23.9765 44C15.9053 44 8.68676 41.0195 3.20932 36.0324C2.74096 35.6496 3.12951 35.0943 3.67767 35.3951C9.57936 38.8446 16.884 40.9312 24.447 40.9312C29.2041 40.9312 34.335 40.0393 39.2222 38.121C39.5625 37.9927 39.9447 37.8182 40.2787 37.6962C41.0494 37.3491 41.7278 38.2073 40.9633 38.7563ZM28.0048 15.556C28.0048 13.3664 28.0909 12.077 27.3663 10.9706C26.7237 10.0598 25.6168 9.51296 24.0732 9.5992C22.3972 9.69175 20.5973 10.7918 20.1373 12.809C20.0491 13.2717 19.7782 13.726 19.2216 13.8249L14.1054 13.1728C13.7399 13.0887 13.1855 12.809 13.3661 12.077C14.4645 6.28848 19.4043 4.27134 24.0732 4H25.1716C27.7339 4 31.025 4.73408 33.1315 6.65867C35.6875 9.04811 35.4166 12.2579 35.4166 15.7453V24.0053C35.4166 26.483 36.4184 27.581 37.4286 28.8725C37.7016 29.3331 37.7941 29.8758 37.3341 30.2502C36.326 31.1652 34.4064 32.8142 33.3079 33.7292C32.9425 34.0089 32.283 34.0384 32.0268 33.8238C30.4096 32.4672 30.0148 31.7141 29.0129 30.3364C27.2697 32.1685 25.808 33.1802 24.0669 33.7292C22.8424 34.0404 21.5832 34.1931 20.32 34.1835C15.9305 34.1835 12.4525 31.4428 12.4525 26.0224C12.4525 21.7126 14.7418 18.7826 18.1232 17.3964C21.5046 16.0082 26.4191 15.5665 28.0027 15.5581L28.0048 15.556ZM27.0009 26.4767C28.093 24.6426 28.0027 23.1408 28.0027 19.7775C26.6355 19.7775 25.2598 19.8721 24.0732 20.1519C21.8784 20.7892 20.1373 22.1732 20.1373 25.1053C20.1373 27.398 21.3281 28.9587 23.3402 28.9587C23.6174 28.9587 23.861 28.9251 24.0732 28.8641C25.4803 28.4728 26.3582 27.7661 27.0009 26.4767Z" fill="#324558"/>
</svg>
