<svg width="48" height="48" viewBox="0 0 48 48" fill="none" xmlns="http://www.w3.org/2000/svg">
<path d="M14.7986 10C16.0679 10 17.2419 10.1 18.3146 10.396C19.288 10.5761 20.2171 10.9457 21.0499 11.484C21.8326 11.978 22.4186 12.672 22.8079 13.562C23.1992 14.452 23.3939 15.542 23.3939 16.728C23.3939 18.114 23.1019 19.3 22.4186 20.19C21.8326 21.082 20.8553 21.872 19.6833 22.466C21.3439 22.962 22.6132 23.852 23.3939 25.038C24.1766 26.226 24.6652 27.71 24.6652 29.392C24.6652 30.778 24.3712 31.964 23.8826 32.954C23.3939 33.944 22.6132 34.834 21.7333 35.4279C20.7774 36.0647 19.7207 36.5327 18.6086 36.8119C17.4366 37.1099 16.2646 37.3079 15.0926 37.3079H2V10H14.7986ZM14.016 21.08C15.0906 21.08 15.9706 20.784 16.6539 20.29C17.3373 19.796 17.6313 18.904 17.6313 17.816C17.6313 17.222 17.5319 16.628 17.3373 16.234C17.1426 15.838 16.8486 15.54 16.4593 15.244C16.0679 15.046 15.6766 14.848 15.1879 14.75C14.6993 14.65 14.2126 14.65 13.6246 14.65H7.95931V21.082H14.0179L14.016 21.08ZM14.3099 32.756C14.8959 32.756 15.4819 32.656 15.9706 32.558C16.464 32.4635 16.9306 32.2607 17.3373 31.964C17.7353 31.6744 18.0683 31.3037 18.3146 30.876C18.5093 30.382 18.7059 29.788 18.7059 29.096C18.7059 27.71 18.3146 26.72 17.5339 26.028C16.7513 25.434 15.6766 25.138 14.4073 25.138H7.95931V32.758H14.3099V32.756ZM33.1652 32.656C33.9459 33.448 35.1179 33.844 36.6812 33.844C37.7558 33.844 38.7332 33.548 39.5138 33.054C40.2965 32.46 40.7852 31.866 40.9798 31.272H45.7671C44.9845 33.646 43.8125 35.328 42.2512 36.416C40.6858 37.4059 38.8305 37.9999 36.5839 37.9999C35.1464 38.0043 33.721 37.7356 32.3825 37.2079C31.1782 36.753 30.1041 36.0056 29.2559 35.0319C28.3487 34.1211 27.6781 32.9995 27.3032 31.766C26.8146 30.48 26.6179 29.096 26.6179 27.512C26.6179 26.028 26.8146 24.644 27.3032 23.356C27.773 22.1162 28.4683 20.9753 29.3532 19.992C30.2332 19.102 31.3079 18.312 32.4799 17.816C33.7844 17.2881 35.1779 17.0192 36.5839 17.024C38.2445 17.024 39.7105 17.322 40.9798 18.014C42.2512 18.706 43.2265 19.498 44.0092 20.686C44.8075 21.827 45.4024 23.0994 45.7671 24.446C45.9618 25.83 46.0592 27.216 45.9618 28.798H31.7965C31.7965 30.382 32.3825 31.866 33.1652 32.658V32.656ZM39.3192 22.268C38.6358 21.576 37.5612 21.18 36.2899 21.18C35.4119 21.18 34.7265 21.378 34.1405 21.674C33.5545 21.972 33.1652 22.368 32.7739 22.764C32.4143 23.1465 32.1763 23.6284 32.0905 24.148C31.9912 24.644 31.8939 25.038 31.8939 25.434H40.6858C40.4912 23.95 40.0025 22.962 39.3192 22.268ZM30.7219 11.88H41.6632V14.552H30.7239V11.88H30.7219Z" fill="#324558"/>
</svg>
