<svg width="48" height="48" viewBox="0 0 48 48" fill="none" xmlns="http://www.w3.org/2000/svg">
<path d="M6.23283 7.0001C6.05521 6.99782 5.87923 7.03427 5.71726 7.10688C5.55529 7.17949 5.41126 7.28651 5.29527 7.42042C5.17928 7.55433 5.09414 7.71188 5.04585 7.88202C4.99755 8.05216 4.98726 8.23076 5.0157 8.40528L10.1824 39.6221C10.2468 40.0041 10.4444 40.3514 10.7404 40.6028C11.0365 40.8542 11.4121 40.9938 11.8012 40.997H36.5882C36.88 41.0008 37.1634 40.9001 37.3868 40.7133C37.6102 40.5265 37.7587 40.2661 37.8054 39.9795L42.9843 8.4174C43.0127 8.24288 43.0024 8.06428 42.9542 7.89414C42.9059 7.724 42.8207 7.56644 42.7047 7.43253C42.5887 7.29862 42.4447 7.1916 42.2827 7.11899C42.1208 7.04638 41.9448 7.00993 41.7672 7.01221L6.23283 7.0001ZM27.9892 29.5618H20.0778L17.9356 18.4293H29.9062L27.9892 29.5618Z" fill="#324558"/>
</svg>
