<svg width="48" height="48" viewBox="0 0 48 48" fill="none" xmlns="http://www.w3.org/2000/svg">
<path d="M43.4005 28.8405C40.7301 39.5571 29.8766 46.0737 19.1597 43.4004C8.44792 40.7504 1.92348 29.8755 4.6006 19.1756C7.26772 8.45061 18.1246 1.92898 28.8347 4.5973C39.5532 7.27229 46.0743 18.1222 43.4005 28.8438V28.8405ZM32.8154 21.1522C33.2155 18.5022 31.1918 17.0689 28.4146 16.1022L29.3148 12.5139L27.1228 11.9639L26.2476 15.4756C25.6725 15.3306 25.0724 15.1972 24.474 15.0589L25.3508 11.5139L23.1504 10.9639L22.2503 14.5722C21.7752 14.4606 21.3084 14.3522 20.85 14.2389L17.8245 13.4889L17.2411 15.8339C17.2411 15.8339 18.8664 16.2089 18.833 16.2272C19.7248 16.4539 19.8832 17.0372 19.8582 17.5039L17.3961 27.3705C17.2711 27.6472 16.996 28.0472 16.3726 27.8938C16.3976 27.9272 14.7723 27.4938 14.7723 27.4938L13.6721 30.0105L16.5226 30.7205L18.0729 31.1238L17.1727 34.7738L19.3731 35.3188L20.2733 31.7021C20.8734 31.8688 21.4485 32.0188 22.0236 32.1571L21.1734 35.7471L23.3738 36.2971L24.2823 32.6471C28.0162 33.3588 30.8334 33.0755 32.0169 29.6905C32.9671 26.9622 31.9669 25.3905 29.9882 24.3639C31.4118 24.0422 32.4887 23.0972 32.7887 21.1472H32.8054L32.8154 21.1522ZM27.7979 28.1855C27.1244 30.9188 22.5353 29.4355 21.0467 29.0688L22.2469 24.2355C23.7405 24.6189 28.5097 25.3522 27.7979 28.1855ZM28.4813 21.1189C27.8645 23.6022 24.0439 22.3439 22.8054 22.0355L23.8955 17.6356C25.1358 17.9356 29.1248 18.5089 28.4797 21.1089V21.1189H28.4813Z" fill="#324558"/>
</svg>
