<svg width="48" height="48" viewBox="0 0 48 48" fill="none" xmlns="http://www.w3.org/2000/svg">
<path d="M26.9753 22.4562C25.8309 23.4306 25.0724 24.8052 24.9855 26.3655C24.8979 27.967 25.536 29.4563 26.6591 30.5603C27.8027 31.6832 29.4337 32.3878 31.2564 32.3878C33.0791 32.3878 34.7069 31.6832 35.8513 30.5603C36.9736 29.4563 37.6134 27.967 37.5265 26.3638C37.4389 24.8052 36.6803 23.4306 35.5367 22.4562C34.4136 21.4991 32.903 20.9141 31.2564 20.9141C29.6082 20.9141 28.0976 21.4991 26.9753 22.4562Z" fill="#324558"/>
<path fill-rule="evenodd" clip-rule="evenodd" d="M15.4969 32.2424C15.2069 31.3158 15.0136 30.1293 15.0029 29.5187C14.9923 28.9106 15.125 27.8974 15.125 27.8974L6.02049 35.4025C4.43044 36.6962 2.29153 36.6938 1.28556 35.3951C0.294344 34.1178 0.803062 32.0996 2.37673 30.8859C2.39261 30.8733 2.41064 30.8601 2.42821 30.8472C2.43239 30.8441 2.43654 30.8411 2.44062 30.8381L19.1226 17.941L9.77402 17.9592L9.77647 17.9534C8.19134 17.9476 7.15588 16.8717 7.45407 15.5746C7.74406 14.3015 9.20959 13.2941 10.7341 13.2924H10.7587L29.2028 13.2726L23.1514 8.31627L23.1555 8.31214C22.2134 7.53408 22.3347 6.30056 23.3931 5.55467C24.44 4.81704 26.0407 4.81456 26.9926 5.55055C27.001 5.55603 27.0082 5.56211 27.0155 5.56824C27.0203 5.57227 27.0251 5.57633 27.0303 5.58025L41.5389 16.8007L41.5357 16.8032C42.9733 17.9262 44.1825 19.2603 45.1204 20.7843C46.1461 22.4427 46.8121 24.2621 47.0857 26.201C47.2258 27.1961 47.2577 28.192 47.1815 29.1862C47.1037 30.1953 46.9096 31.2011 46.6024 32.1921C45.9912 34.1533 44.9591 35.971 43.5214 37.5766C42.0477 39.221 40.2315 40.547 38.1319 41.4934C35.925 42.4851 33.5338 42.9967 31.0541 43C28.5703 43.0041 26.1791 42.5024 23.9722 41.5181C21.8726 40.5808 20.0549 39.2606 18.5787 37.6171C17.1402 36.018 16.1064 34.2036 15.4969 32.2424ZM31.0541 35.9339C33.8959 35.9281 36.5222 34.8365 38.3982 32.9115C39.3148 31.9709 39.9858 30.8934 40.4019 29.7423C40.809 28.6136 40.9672 27.4181 40.8639 26.2118C40.7607 25.0278 40.4142 23.9056 39.8547 22.8875C39.3075 21.8874 38.5546 20.9856 37.6257 20.2232C35.8005 18.7314 33.4806 17.9286 31.05 17.9319C28.622 17.9352 26.3004 18.7455 24.4768 20.2422C23.5462 21.0079 22.7926 21.913 22.2454 22.9147C21.6883 23.9337 21.3393 25.0599 21.2402 26.2406C21.1354 27.4486 21.2935 28.6458 21.7006 29.7737C22.1159 30.9214 22.7893 31.999 23.706 32.9355C25.5819 34.8571 28.2083 35.9388 31.0541 35.9339Z" fill="#324558"/>
</svg>
