<svg width="48" height="48" viewBox="0 0 48 48" fill="none" xmlns="http://www.w3.org/2000/svg">
<path d="M23.6505 22.5116H20.1362V16.5383H24.3099C26.5791 16.5383 27.867 17.5647 27.867 19.4208C27.867 21.4027 26.3677 22.5116 23.6505 22.5116Z" fill="#324558"/>
<path d="M28.794 28.1526C28.794 28.423 28.7706 28.6775 28.7241 28.9159C28.6593 29.248 28.5497 29.5489 28.3962 29.8178C27.7782 30.9006 26.4484 31.4656 24.4651 31.4656H20.1381V24.8829H24.2828C27.2521 24.8829 28.794 25.9898 28.794 28.1526Z" fill="#324558"/>
<path fill-rule="evenodd" clip-rule="evenodd" d="M46 25.1463V22.8537C43.932 22.6504 42.6688 21.0769 41.919 18.5848C41.1728 16.1021 41.0702 13.0566 41.149 10.7056C41.2315 8.25871 39.3762 6 36.8645 6H11.1392C8.6275 6 6.77033 8.25871 6.85283 10.7056C6.9335 13.0566 6.83083 16.1021 6.08283 18.5848C5.33483 21.0769 4.068 22.6504 2 22.8537V25.1463C4.068 25.3496 5.333 26.9231 6.08467 29.4152C6.83083 31.8979 6.9335 34.9434 6.85467 37.2944C6.77033 39.7413 8.6275 42 11.1392 42H36.8645C39.3743 42 41.2315 39.7413 41.149 37.2944C41.0702 34.9434 41.1728 31.8979 41.919 29.4152C42.6688 26.9231 43.932 25.3496 46 25.1463ZM32 28.3453C32 25.6831 30.1517 23.7582 27.4073 23.4534V23.3413C29.4244 23.009 31.007 21.1097 31.007 18.9902C31.007 15.9682 28.6544 14 25.0683 14H17V34H25.109C29.4108 34 32 31.8647 32 28.3453Z" fill="#324558"/>
</svg>
