<svg width="48" height="48" viewBox="0 0 48 48" fill="none" xmlns="http://www.w3.org/2000/svg">
<path d="M41.5475 14.0007C41.2655 13.5174 40.8756 13.0957 40.4468 12.8507L25.564 4.3675C24.7048 3.8775 23.3019 3.8775 22.4443 4.3675L7.55817 12.8507C6.70058 13.3391 6 14.5391 6 15.5174V32.4839C6 32.9739 6.17557 33.5172 6.45749 34.0005C6.73941 34.4838 7.12938 34.9055 7.55817 35.1505L22.4409 43.6338C23.2985 44.1221 24.7031 44.1221 25.5606 43.6338L40.4434 35.1505C40.8722 34.9055 41.2622 34.4838 41.5441 34.0005C41.826 33.5172 41.9999 32.9739 41.9999 32.4839V15.5174C42.005 15.0274 41.8311 14.4841 41.5475 14.0007ZM24.0008 35.8505C17.3832 35.8505 11.9997 30.5339 11.9997 24.0006C11.9997 17.4674 17.3849 12.1507 24.0025 12.1507C26.1079 12.1547 28.1754 12.7036 29.9989 13.7426C31.8224 14.7816 33.3381 16.2745 34.3948 18.0724L29.202 21.039C28.674 20.1386 27.916 19.3907 27.0036 18.8701C26.0911 18.3495 25.0563 18.0744 24.0025 18.0724C22.4103 18.0737 20.8838 18.6987 19.7579 19.8102C18.6321 20.9216 17.9991 22.4288 17.9977 24.0006C17.9999 25.5716 18.6332 27.0776 19.7585 28.1883C20.8839 29.2991 22.4095 29.9238 24.0008 29.9256C25.0542 29.9233 26.0886 29.6485 27.0009 29.1286C27.9132 28.6087 28.6715 27.8617 29.2003 26.9623L34.3964 29.9289C33.3392 31.727 31.823 33.22 29.9989 34.259C28.1748 35.2981 26.1067 35.8468 24.0008 35.8505ZM36.0036 24.659H34.6699V25.9756H33.3363V24.659H32.0026V23.3423H33.3363V22.0256H34.6699V23.3423H36.0036V24.659ZM41.0039 24.659H39.6702V25.9756H38.3366V24.659H37.003V23.3423H38.3366V22.0256H39.6702V23.3423H41.0039V24.659Z" fill="#324558"/>
</svg>
