<svg width="48" height="48" viewBox="0 0 48 48" fill="none" xmlns="http://www.w3.org/2000/svg">
<path d="M24 4C18.6957 4 13.6086 6.10714 9.85786 9.85786C6.10714 13.6086 4 18.6957 4 24C4 29.3043 6.10714 34.3914 9.85786 38.1421C13.6086 41.8929 18.6957 44 24 44C29.3043 44 34.3914 41.8929 38.1421 38.1421C41.8929 34.3914 44 29.3043 44 24C44 18.6957 41.8929 13.6086 38.1421 9.85786C34.3914 6.10714 29.3043 4 24 4ZM19.71 15.8667C20.8422 15.8735 21.9636 16.0882 23.0183 16.5V18.4683C21.8723 17.8315 20.5793 17.5063 19.2683 17.525C18.4521 17.4979 17.6395 17.6455 16.885 17.9579C16.1305 18.2704 15.4514 18.7404 14.8933 19.3367C13.7235 20.6708 13.1186 22.4078 13.2067 24.18C13.1194 25.856 13.6838 27.5007 14.7817 28.77C15.3077 29.3353 15.9497 29.7803 16.6637 30.0746C17.3776 30.3689 18.1467 30.5055 18.9183 30.475C20.3588 30.5108 21.7807 30.1449 23.025 29.4183L23.0183 31.2183C21.6578 31.8803 20.1554 32.1979 18.6433 32.1433C17.6443 32.1871 16.6475 32.0168 15.7197 31.644C14.7918 31.2712 13.9543 30.7044 13.2633 29.9817C11.8736 28.4244 11.1486 26.3851 11.2433 24.3C11.1951 23.182 11.3715 22.0656 11.7623 21.017C12.1531 19.9684 12.7502 19.0088 13.5183 18.195C14.2687 17.4269 15.1711 16.8239 16.1678 16.4244C17.1645 16.0249 18.2335 15.8378 19.3067 15.875C19.3733 15.8721 19.44 15.8698 19.5067 15.8683C19.5744 15.8676 19.6422 15.8676 19.71 15.8683V15.8667ZM29.4817 16.125H30.875L29.95 20.545H32.7183L33.6633 16.125H35.0133L34.0883 20.545L36.975 20.5383L36.725 21.7H33.85L33.1633 25H36.25L35.9567 26.1633H32.93L31.9633 30.5383H30.58L31.525 26.1633H28.775L27.85 30.5383H26.5L27.425 26.1633H24.525L24.7433 25H27.6567L28.325 21.7067H25.2817L25.5117 20.545H28.555L29.4817 16.125ZM29.7183 21.7L29 25H31.7883L32.4933 21.7H29.7183Z" fill="#324558"/>
</svg>
