<svg width="48" height="48" viewBox="0 0 48 48" fill="none" xmlns="http://www.w3.org/2000/svg">
<path d="M32.662 36.3421V34.1201L32.618 34.1401C32.118 34.3821 31.574 34.5201 31.016 34.5461C30.4388 34.5901 29.8655 34.4215 29.404 34.0721C29.0749 33.8181 28.8296 33.4711 28.7 33.0761C28.5599 32.6445 28.544 32.1823 28.654 31.7421C28.758 31.2921 29.01 30.8901 29.368 30.6041C29.688 30.3361 30.078 30.1681 30.492 30.1201C31.223 30.0383 31.9618 30.1761 32.614 30.5161L32.662 30.5421V28.3081L32.56 28.2801C31.9072 28.0718 31.2224 27.9824 30.538 28.0161C29.9146 28.0317 29.3005 28.1718 28.732 28.4281C28.158 28.6921 27.652 29.0821 27.254 29.5701C26.6468 30.3372 26.3097 31.2833 26.2953 32.2615C26.2808 33.2398 26.5897 34.1954 27.174 34.9801C27.764 35.7361 28.592 36.2701 29.524 36.4921C30.506 36.7321 31.536 36.6961 32.498 36.3881L32.662 36.3421ZM10.672 36.3421V34.1201L10.628 34.1401C10.128 34.3821 9.584 34.5201 9.026 34.5461C8.44877 34.5907 7.87524 34.422 7.414 34.0721C7.08492 33.8185 6.84021 33.4713 6.712 33.0761C6.57039 32.6449 6.55375 32.1824 6.664 31.7421C6.768 31.2921 7.018 30.8901 7.378 30.6041C7.698 30.3361 8.088 30.1681 8.502 30.1201C9.23297 30.0383 9.97175 30.1761 10.624 30.5161L10.672 30.5421V28.3081L10.57 28.2801C9.91723 28.0718 9.23237 27.9824 8.548 28.0161C7.92459 28.032 7.31061 28.172 6.742 28.4281C6.16842 28.6916 5.66231 29.0821 5.262 29.5701C4.65542 30.3374 4.31865 31.2832 4.30383 32.2612C4.289 33.2392 4.59695 34.1948 5.18 34.9801C5.7694 35.7367 6.59896 36.27 7.532 36.4921C8.514 36.7321 9.542 36.6961 10.506 36.3881L10.672 36.3421ZM18.52 34.4981L18.512 36.4121L18.652 36.4361C19.092 36.5181 19.534 36.5741 19.98 36.6061C20.37 36.6441 20.762 36.6501 21.154 36.6301C21.528 36.6021 21.898 36.5321 22.256 36.4221C22.676 36.3021 23.066 36.0961 23.398 35.8121C23.6977 35.5553 23.9269 35.2262 24.064 34.8561C24.3025 34.2374 24.2975 33.5513 24.05 32.9361C23.9211 32.616 23.7166 32.3319 23.454 32.1081C23.1995 31.8806 22.9015 31.7071 22.578 31.5981L21.134 31.0621C20.9616 30.9885 20.8216 30.8549 20.74 30.6861C20.7085 30.6169 20.6935 30.5412 20.6963 30.4652C20.6991 30.3892 20.7195 30.3149 20.756 30.2481C20.8302 30.1266 20.9369 30.0282 21.064 29.9641C21.2258 29.8862 21.3996 29.8362 21.578 29.8161C21.884 29.7721 22.194 29.7741 22.498 29.8261C22.858 29.8661 23.214 29.9281 23.564 30.0181L23.64 30.0341V28.2681L23.502 28.2381C23.1441 28.1525 22.7815 28.0877 22.416 28.0441C21.9421 27.9821 21.4624 27.9801 20.988 28.0381C20.388 28.0921 19.818 28.3241 19.346 28.6981C19.026 28.9501 18.784 29.2841 18.644 29.6661C18.436 30.2461 18.434 30.8821 18.644 31.4641C18.752 31.7541 18.924 32.0121 19.148 32.2261C19.342 32.4121 19.562 32.5721 19.802 32.6981C20.116 32.8661 20.45 32.9961 20.796 33.0881C20.91 33.1221 21.024 33.1581 21.136 33.1961L21.306 33.2581L21.354 33.2781C21.522 33.3381 21.678 33.4341 21.806 33.5581C21.896 33.6421 21.966 33.7461 22.008 33.8601C22.0357 33.9656 22.0364 34.0763 22.01 34.1821C21.9559 34.3528 21.8366 34.4951 21.678 34.5781C21.5057 34.6661 21.3197 34.7243 21.128 34.7501C20.8456 34.7941 20.5594 34.8082 20.274 34.7921C19.9003 34.7629 19.5284 34.7135 19.16 34.6441C18.968 34.6025 18.7766 34.5578 18.586 34.5101L18.52 34.4981ZM13.57 36.4881H15.67V28.1541H13.57V36.4881ZM37.894 30.6161C38.1171 30.4344 38.3738 30.2984 38.6494 30.216C38.9251 30.1335 39.2143 30.1062 39.5005 30.1355C39.7867 30.1649 40.0643 30.2503 40.3175 30.387C40.5707 30.5237 40.7944 30.7089 40.976 30.9321C41.1581 31.1549 41.2944 31.4115 41.3772 31.6871C41.4599 31.9627 41.4875 32.252 41.4584 32.5382C41.4292 32.8245 41.3438 33.1023 41.2072 33.3555C41.0705 33.6088 40.8853 33.8326 40.662 34.0141L40.628 34.0421C40.1725 34.3914 39.5982 34.548 39.0284 34.4784C38.4586 34.4088 37.9389 34.1185 37.5809 33.6699C37.2229 33.2212 37.0551 32.65 37.1136 32.079C37.1722 31.508 37.4524 30.9828 37.894 30.6161ZM34.844 32.3241C34.8542 32.9746 35.0089 33.6147 35.2971 34.198C35.5852 34.7813 35.9995 35.2931 36.5099 35.6965C37.0203 36.0999 37.6141 36.3847 38.2482 36.5303C38.8822 36.6758 39.5408 36.6785 40.176 36.5381C41.0285 36.3768 41.8118 35.9601 42.422 35.3433C43.0321 34.7265 43.4404 33.9388 43.5925 33.0846C43.7445 32.2304 43.6333 31.3502 43.2735 30.5607C42.9138 29.7712 42.3224 29.1097 41.578 28.6641C40.9162 28.255 40.158 28.0281 39.3802 28.0063C38.6025 27.9846 37.8328 28.1689 37.1491 28.5404C36.4655 28.912 35.8923 29.4576 35.4875 30.1221C35.0826 30.7866 34.8607 31.5462 34.844 32.3241ZM45.922 21.4561C45.9337 21.7238 46.0483 21.9766 46.2419 22.1618C46.4355 22.3471 46.6931 22.4505 46.961 22.4505C47.2289 22.4505 47.4865 22.3471 47.6801 22.1618C47.8737 21.9766 47.9883 21.7238 48 21.4561V19.1461C47.9883 18.8784 47.8737 18.6256 47.6801 18.4404C47.4865 18.2551 47.2289 18.1517 46.961 18.1517C46.6931 18.1517 46.4355 18.2551 46.2419 18.4404C46.0483 18.6256 45.9337 18.8784 45.922 19.1461V21.4561ZM40.234 21.4561C40.2539 21.7185 40.3723 21.9638 40.5653 22.1427C40.7583 22.3216 41.0118 22.421 41.275 22.421C41.5382 22.421 41.7917 22.3216 41.9847 22.1427C42.1777 21.9638 42.2961 21.7185 42.316 21.4561V16.2781C42.2996 16.0134 42.1829 15.765 41.9896 15.5834C41.7964 15.4017 41.5412 15.3006 41.276 15.3006C41.0108 15.3006 40.7556 15.4017 40.5624 15.5834C40.3691 15.765 40.2524 16.0134 40.236 16.2781V21.4561H40.234ZM34.462 23.5421C34.4819 23.804 34.6 24.0488 34.7927 24.2273C34.9853 24.4059 35.2383 24.5051 35.501 24.5051C35.7637 24.5051 36.0167 24.4059 36.2093 24.2273C36.402 24.0488 36.5201 23.804 36.54 23.5421V12.3401C36.5283 12.0724 36.4137 11.8196 36.2201 11.6344C36.0265 11.4491 35.7689 11.3457 35.501 11.3457C35.2331 11.3457 34.9755 11.4491 34.7819 11.6344C34.5883 11.8196 34.4737 12.0724 34.462 12.3401V23.5421ZM28.786 21.4561C28.8024 21.7208 28.9191 21.9692 29.1124 22.1509C29.3056 22.3325 29.5608 22.4336 29.826 22.4336C30.0912 22.4336 30.3464 22.3325 30.5396 22.1509C30.7329 21.9692 30.8496 21.7208 30.866 21.4561V16.2781C30.8543 16.0104 30.7397 15.7576 30.5461 15.5724C30.3525 15.3871 30.0949 15.2837 29.827 15.2837C29.5591 15.2837 29.3015 15.3871 29.1079 15.5724C28.9143 15.7576 28.7997 16.0104 28.788 16.2781V21.4561H28.786ZM22.988 21.4561C23.0133 21.7141 23.1337 21.9534 23.3258 22.1275C23.5178 22.3016 23.7678 22.3981 24.027 22.3981C24.2862 22.3981 24.5362 22.3016 24.7282 22.1275C24.9203 21.9534 25.0407 21.7141 25.066 21.4561V19.1461C25.0543 18.8784 24.9397 18.6256 24.7461 18.4404C24.5525 18.2551 24.2949 18.1517 24.027 18.1517C23.7591 18.1517 23.5015 18.2551 23.3079 18.4404C23.1143 18.6256 22.9997 18.8784 22.988 19.1461V21.4561ZM17.248 21.4561C17.2597 21.7238 17.3743 21.9766 17.5679 22.1618C17.7615 22.3471 18.0191 22.4505 18.287 22.4505C18.5549 22.4505 18.8125 22.3471 19.0061 22.1618C19.1997 21.9766 19.3143 21.7238 19.326 21.4561V16.2781C19.3143 16.0104 19.1997 15.7576 19.0061 15.5724C18.8125 15.3871 18.5549 15.2837 18.287 15.2837C18.0191 15.2837 17.7615 15.3871 17.5679 15.5724C17.3743 15.7576 17.2597 16.0104 17.248 16.2781V21.4561ZM11.474 23.5421C11.4857 23.8098 11.6003 24.0626 11.7939 24.2479C11.9875 24.4331 12.2451 24.5365 12.513 24.5365C12.7809 24.5365 13.0385 24.4331 13.2321 24.2479C13.4257 24.0626 13.5403 23.8098 13.552 23.5421V12.3401C13.5403 12.0724 13.4257 11.8196 13.2321 11.6344C13.0385 11.4491 12.7809 11.3457 12.513 11.3457C12.2451 11.3457 11.9875 11.4491 11.7939 11.6344C11.6003 11.8196 11.4857 12.0724 11.474 12.3401V23.5421ZM5.752 21.4561C5.77483 21.7162 5.89428 21.9583 6.0868 22.1346C6.27931 22.311 6.53092 22.4088 6.792 22.4088C7.05308 22.4088 7.30469 22.311 7.4972 22.1346C7.68972 21.9583 7.80917 21.7162 7.832 21.4561V16.2781C7.82025 16.0104 7.70565 15.7576 7.51209 15.5724C7.31853 15.3871 7.06093 15.2837 6.793 15.2837C6.52507 15.2837 6.26747 15.3871 6.07391 15.5724C5.88035 15.7576 5.76575 16.0104 5.754 16.2781V21.4561H5.752ZM0 21.4561C0.0199183 21.718 0.138026 21.9628 0.330681 22.1413C0.523336 22.3199 0.776322 22.4191 1.039 22.4191C1.30168 22.4191 1.55466 22.3199 1.74732 22.1413C1.93997 21.9628 2.05808 21.718 2.078 21.4561V19.1461C2.06625 18.8784 1.95165 18.6256 1.75809 18.4404C1.56453 18.2551 1.30693 18.1517 1.039 18.1517C0.771069 18.1517 0.513475 18.2551 0.31991 18.4404C0.126346 18.6256 0.0117467 18.8784 0 19.1461L0 21.4561Z" fill="#324558"/>
</svg>
