<svg width="48" height="48" viewBox="0 0 48 48" fill="none" xmlns="http://www.w3.org/2000/svg">
<path d="M23.2388 3.00031C22.9085 2.99685 22.5786 3.02202 22.2526 3.07556L42.9394 24.0002L22.2526 44.9248C22.481 44.9632 22.7837 45 23.2388 45C34.7024 45 44 35.5938 44 24.0002C44 12.4065 34.7024 3.00031 23.2388 3.00031ZM20.583 7.22478C11.436 7.22478 4 14.748 4 24.0002C4 33.2523 11.4394 40.779 20.5848 40.779C21.0415 40.779 21.346 40.7388 21.5709 40.7003L5.06228 24.0002L21.5727 7.30003C21.2467 7.24647 20.9167 7.22129 20.5865 7.22478H20.583ZM21.8737 11.5245C21.4187 11.5245 21.1159 11.5613 20.8875 11.5998L33.1471 24.0002L20.8875 36.4006C21.1159 36.4391 21.4187 36.4793 21.8737 36.4793C28.6678 36.4793 34.2093 30.8724 34.2093 24.0002C34.2093 17.128 28.6678 11.5245 21.8737 11.5245ZM21.154 15.784C19.0005 15.7867 16.936 16.6533 15.4133 18.1935C13.8906 19.7337 13.0339 21.8219 13.0311 24.0002C13.0339 26.1784 13.8906 28.2666 15.4133 29.8068C16.936 31.347 19.0005 32.2136 21.154 32.2163C21.6107 32.2163 21.9152 32.1761 22.1401 32.1376L14.0934 24.0002L22.1436 15.8627C21.8178 15.8076 21.4878 15.7813 21.1574 15.784H21.154Z" fill="#324558"/>
</svg>
