<svg width="48" height="48" viewBox="0 0 48 48" fill="none" xmlns="http://www.w3.org/2000/svg">
<path d="M24 44C12.954 44 4 35.046 4 24C4 12.954 12.954 4 24 4C35.046 4 44 12.954 44 24C44 35.046 35.046 44 24 44ZM16.658 24.608C16.578 26.308 16.732 28.002 16.894 29.696C16.904 29.816 16.948 29.844 17.054 29.856C17.866 29.964 18.68 30.06 19.498 30.11C21.426 30.232 23.354 30.388 25.29 30.28C26.39 30.22 27.49 30.184 28.586 30.09C30.146 29.954 31.706 29.78 33.246 29.466C35.162 29.078 37.06 28.616 38.846 27.776C39.658 27.396 40.426 26.946 41.074 26.304C41.55 25.834 41.89 25.29 41.894 24.584C41.8971 23.9562 41.8671 23.3286 41.804 22.704C41.6651 21.2164 41.3419 19.7519 40.842 18.344C39.674 15.108 37.822 12.366 35.19 10.204C32.9651 8.35222 30.3209 7.07302 27.488 6.478C26.488 6.268 25.476 6.19 24.46 6.118C23.314 6.036 22.332 6.358 21.484 7.146C20.494 8.06 19.81 9.194 19.24 10.412C17.906 13.266 17.294 16.32 16.908 19.428C16.6774 21.1444 16.5938 22.8774 16.658 24.608ZM23.798 14.548C25.716 14.608 27.338 15.196 28.786 16.26C30.5395 17.5135 31.762 19.3764 32.214 21.484C32.35 22.092 32.408 22.708 32.42 23.328C32.43 23.746 32.2 24.052 31.896 24.308C31.282 24.824 30.556 25.11 29.796 25.324C28.316 25.738 26.804 25.976 25.266 26.056C24.266 26.108 23.266 26.126 22.266 26.076C21.882 26.056 21.496 26.028 21.112 26.012C20.992 26.008 20.952 25.972 20.944 25.85C20.898 24.982 20.83 24.114 20.844 23.246C20.876 21.194 21.032 19.156 21.638 17.178C21.838 16.52 22.084 15.878 22.478 15.306C22.824 14.806 23.234 14.432 23.798 14.546V14.548Z" fill="#324558"/>
</svg>
