<svg width="48" height="48" viewBox="0 0 48 48" fill="none" xmlns="http://www.w3.org/2000/svg">
<path fill-rule="evenodd" clip-rule="evenodd" d="M8 6C6.89543 6 6 6.89543 6 8V40C6 41.1046 6.89543 42 8 42H40C41.1046 42 42 41.1046 42 40V8C42 6.89543 41.1046 6 40 6H8ZM32.7802 23.2301C32.9649 22.7508 33.1188 22.3513 33.0953 21.6953L32.8329 22.2635C33.0989 21.4355 33.0755 20.5569 33.0532 19.7206C33.0432 19.3448 33.0334 18.9768 33.0502 18.6265L32.943 18.5968C32.8488 15.7542 30.4594 12.733 28.3327 11.711C26.4999 10.8402 23.6782 10.691 22.3745 11.3469C22.452 11.2763 22.6294 11.2234 22.7886 11.176C22.998 11.1135 23.176 11.0604 23.0536 10.9888C21.8775 11.109 21.5304 11.3337 21.1481 11.5812C20.8669 11.7633 20.5667 11.9576 19.9036 12.1318C19.6883 12.3456 20.0045 12.2588 20.2587 12.189C20.511 12.1198 20.7022 12.0673 20.2513 12.3425C20.0303 12.4052 19.8403 12.4244 19.6578 12.4429C19.147 12.4947 18.6936 12.5406 17.7775 13.5155C17.8271 13.5981 17.9908 13.4973 18.1053 13.4267C18.2464 13.3399 18.313 13.2988 18.0006 13.7024C16.8319 13.5533 14.3084 16.452 13.7726 17.4131L14.0529 17.4628C13.8575 17.9661 13.636 18.392 13.4395 18.7698C13.1733 19.2816 12.953 19.7052 12.9056 20.1137C12.8803 20.4863 12.8333 20.9243 12.7832 21.3925C12.5982 23.118 12.3695 25.2521 13.0172 26.0221L12.9374 26.8393C12.9734 26.9132 13.0066 26.9874 13.0396 27.0614C13.1103 27.2197 13.1804 27.3767 13.2761 27.5249L13.0929 27.5401C13.5228 28.9345 13.7551 28.9576 14.0199 28.9839C14.2886 29.0106 14.5908 29.0406 15.1667 30.5102C15.0008 30.4528 14.8332 30.3901 14.5916 30.0546C14.5627 30.3105 14.9433 31.0784 15.3962 31.6776L15.2046 31.9028C15.3978 32.2638 15.5795 32.4086 15.7325 32.5306C15.779 32.5676 15.8231 32.6028 15.8638 32.641C15.1343 32.2316 16.0604 33.5032 16.5899 34.2301C16.7434 34.4408 16.8636 34.6059 16.9004 34.6708L17.0449 34.406C17.0241 34.7867 17.3105 35.2783 17.848 35.9603L18.2954 35.9422C18.4797 36.317 19.154 36.9939 19.5629 37.0257L19.2909 37.391C19.788 37.5529 19.9206 37.6619 20.0683 37.7835C20.2258 37.913 20.4004 38.0567 21.0512 38.2935L20.7966 37.8308C21.0098 38.0211 21.1742 38.2034 21.3317 38.3782C21.6497 38.731 21.94 39.053 22.5473 39.3471C23.2351 39.5937 23.5971 39.6523 23.9946 39.7166C24.3248 39.7701 24.6797 39.8275 25.2662 40C25.1273 39.9959 24.9852 39.9924 24.8414 39.989C23.8507 39.9651 22.7727 39.9391 22.0164 39.6609C16.1074 38.0151 10.7015 30.8867 11.0968 23.545C11.0585 22.9191 11.0779 22.2273 11.0954 21.6086C11.1193 20.7579 11.1394 20.0452 11 19.8311L11.0625 19.6213C11.387 18.5308 11.7768 17.2206 12.5161 15.6793L12.5085 15.6652C12.5067 15.6619 12.5059 15.6603 12.506 15.6602C12.5062 15.6601 12.507 15.661 12.5085 15.6625C12.5315 15.6863 12.7161 15.8773 13.0458 15.2995C13.1258 15.1189 13.2009 14.9322 13.2766 14.744C13.4307 14.361 13.5873 13.9718 13.7925 13.6145L13.9498 13.5767C14.0562 12.9415 14.9928 12.0771 15.7706 11.3593C16.1441 11.0146 16.481 10.7037 16.6718 10.4681L16.7123 10.7454C17.7569 9.73812 19.4666 9.00118 20.7611 8.44323C21.0568 8.31575 21.331 8.19756 21.5705 8.08767C21.3608 8.3264 21.7026 8.25421 22.1809 8.15319C22.4736 8.09136 22.8175 8.01873 23.1172 8C23.0369 8.0462 22.9568 8.0891 22.8773 8.13167C22.7103 8.22107 22.546 8.30905 22.3878 8.4232C22.8958 8.29857 23.1183 8.33495 23.3648 8.37524C23.5779 8.41009 23.8089 8.44785 24.2579 8.38694C23.9183 8.43776 23.5056 8.57625 23.5715 8.62915C24.0526 8.68648 24.3525 8.62484 24.6252 8.56879C24.966 8.49876 25.2642 8.43745 25.8205 8.62796L25.7572 8.32393C26.2177 8.49493 26.5576 8.59971 26.8612 8.69328C27.4747 8.88236 27.9398 9.0257 28.9509 9.57718C29.1455 9.58687 29.2759 9.54432 29.4024 9.50304C29.6212 9.43165 29.8285 9.36401 30.3366 9.57658C30.3647 9.62743 30.3804 9.67 30.3952 9.71036C30.4546 9.87217 30.501 9.99857 31.2888 10.4809C31.3975 10.4365 31.0993 10.1558 30.8584 9.92911L30.8507 9.92191C32.83 11.0102 34.9816 13.3295 35.6376 15.8116C35.269 15.1126 35.3201 15.4668 35.3742 15.8418C35.4103 16.0916 35.4477 16.3506 35.3633 16.3141C35.637 17.0734 35.8613 17.8583 36 18.6684L35.9784 18.5888L35.9533 18.4958C35.7543 17.7562 35.3676 16.3187 34.7273 15.3646C34.7039 15.6399 34.5478 15.6101 34.4044 15.5827C34.1997 15.5436 34.0208 15.5094 34.2903 16.3739C34.4501 16.612 34.4786 16.5218 34.5037 16.4424C34.5334 16.3481 34.5584 16.2691 34.792 16.7712C34.7961 17.0398 34.8585 17.3074 34.9281 17.6055C34.9725 17.7957 35.0198 17.9983 35.0567 18.2215C34.9909 18.2103 34.9184 18.0829 34.8486 17.9602C34.7621 17.8081 34.6798 17.6635 34.6198 17.7573C34.7692 18.4782 35.0148 18.8542 35.1085 18.9095C35.0927 18.9492 35.0686 18.9506 35.0431 18.952C34.9912 18.955 34.9335 18.9582 34.9278 19.2872C34.9716 20.15 35.1282 20.0752 35.2523 20.016C35.2905 19.9977 35.3257 19.9809 35.3535 19.9936C35.32 20.1495 35.2577 20.3131 35.1908 20.4889C35.0215 20.9339 34.8224 21.4572 34.9823 22.1318C34.9324 21.9322 34.853 21.732 34.7759 21.5374C34.7446 21.4583 34.7135 21.3801 34.6851 21.3033C34.6501 21.6065 34.6653 21.8189 34.6795 22.017C34.7036 22.352 34.7247 22.6458 34.4943 23.2674C34.7585 22.3759 34.7296 21.5714 34.4808 21.9589C34.5408 22.6494 34.246 23.2525 33.9842 23.7881C33.7655 24.2355 33.5699 24.6357 33.6233 25.0003L33.3077 24.5534C32.8427 25.2467 32.878 25.3932 32.913 25.5383C32.9423 25.6598 32.9713 25.7804 32.706 26.2203C32.8072 26.0404 32.7872 25.996 32.7679 25.9532C32.7465 25.9057 32.726 25.8602 32.8719 25.6345C32.7719 25.6405 32.5381 25.8777 32.2518 26.1682C32.0107 26.4129 31.7324 26.6953 31.4654 26.9092C29.1693 28.802 26.4282 29.0492 23.7747 28.0299L23.7731 28.0313C23.7871 27.9676 23.7632 27.8968 23.5848 27.7731C21.3356 26.0004 20.0059 24.4933 20.4674 21.0052C20.6015 20.9012 20.6972 20.6155 20.8109 20.2756C20.9882 19.7459 21.2095 19.0847 21.689 18.7743C22.1688 17.6842 23.6062 16.68 25.1428 16.655C26.7114 16.5661 28.035 17.5157 28.7 18.4114C27.4894 17.2512 25.5081 16.8981 23.818 17.7585C22.0901 18.5576 21.0657 20.5149 21.2151 22.4635C21.2357 22.4323 21.2556 22.4173 21.2741 22.4033C21.3132 22.3739 21.3461 22.3491 21.3671 22.186C21.3142 25.9733 25.3358 28.7491 28.231 27.3484L28.2654 27.4269C29.0433 27.2086 29.2391 27.0157 29.5061 26.7527C29.6419 26.6188 29.7962 26.4667 30.0551 26.2839C30.0355 26.3255 29.9733 26.3884 29.9081 26.4543C29.7741 26.5895 29.6274 26.7377 29.8106 26.7419C30.1339 26.6536 31.0521 25.8048 31.6648 25.2383C31.7595 25.1508 31.8472 25.0696 31.924 24.9994C32.0457 24.7295 32.0248 24.6418 32.0037 24.5528C31.9791 24.4495 31.9541 24.3445 32.1515 23.9504L32.6003 23.7198C32.6602 23.5414 32.7218 23.3818 32.7802 23.2301ZM23.7731 28.0313C23.7646 28.0394 23.7614 28.0505 23.763 28.0641C23.7671 28.0532 23.7707 28.0424 23.7731 28.0313ZM23.763 28.0641C23.7792 28.2027 24.289 28.6036 24.6735 28.807C25.6844 29.1913 26.8273 29.2064 27.727 29.1723C25.7826 30.0085 22.0693 28.3229 20.8547 26.0866C20.9649 26.1112 21.1823 26.3689 21.4486 26.6845C21.8463 27.1559 22.3533 27.7568 22.7753 27.9039C22.3589 27.5606 22.0367 27.1237 21.7381 26.6744C22.3008 27.3395 22.9852 27.8828 23.7325 28.2427C23.716 28.1783 23.7353 28.1318 23.7532 28.0883C23.7566 28.0802 23.7599 28.0721 23.763 28.0641ZM28.6562 24.0838C28.9654 23.6449 29.1908 23.1643 29.2703 22.6674C29.2095 22.9779 29.0583 23.2512 28.9034 23.5313C28.8816 23.5708 28.8597 23.6104 28.8379 23.6502C28.1803 24.0761 28.3718 23.7536 28.592 23.3829C28.6968 23.2064 28.8081 23.0191 28.8374 22.8963C28.1343 23.8062 28.3133 23.8579 28.4935 23.91C28.5809 23.9353 28.6685 23.9606 28.6562 24.0838ZM20.2006 25.5316L20.1277 25.906C20.2203 26.0353 20.3077 26.1676 20.3946 26.299C20.628 26.6523 20.8581 27.0004 21.1756 27.2719C21.0285 26.9767 20.8992 26.7627 20.7591 26.5309C20.6005 26.2685 20.4281 25.9833 20.2006 25.5316ZM35.2847 22.3076L35.2084 22.5043C35.0686 23.526 34.7666 24.5371 34.3036 25.4744C34.8151 24.4854 35.146 23.4036 35.2847 22.3076Z" fill="#324558"/>
</svg>
