<svg width="48" height="48" viewBox="0 0 48 48" fill="none" xmlns="http://www.w3.org/2000/svg">
<path d="M20.3658 22.1429C21.4991 22.1429 22.4171 23 22.3963 24.0476C22.3963 25.0952 21.501 25.9524 20.3658 25.9524C19.2513 25.9524 18.3333 25.0952 18.3333 24.0476C18.3333 23 19.2306 22.1429 20.3658 22.1429ZM27.6342 22.1429C28.7694 22.1429 29.6667 23 29.6667 24.0476C29.6667 25.0952 28.7694 25.9524 27.6342 25.9524C26.5198 25.9524 25.6037 25.0952 25.6037 24.0476C25.6037 23 26.499 22.1429 27.6342 22.1429ZM37.0163 5C39.2131 5 41 6.84 41 9.12V45L36.8237 41.2L34.472 38.96L31.9843 36.579L33.0157 40.28H10.9837C8.78689 40.28 7 38.44 7 36.16V9.12C7 6.84 8.78689 5 10.9837 5H37.0144H37.0163ZM29.5174 31.12C33.8109 30.981 35.4637 28.08 35.4637 28.08C35.4637 21.64 32.6643 16.419 32.6643 16.419C29.8688 14.261 27.2054 14.32 27.2054 14.32L26.9334 14.64C30.2371 15.68 31.7709 17.181 31.7709 17.181C29.9671 16.1562 27.9792 15.5035 25.9229 15.261C24.6185 15.1124 23.301 15.1252 21.9997 15.299C21.8826 15.299 21.7843 15.32 21.6691 15.339C20.9891 15.4 19.3363 15.659 17.2586 16.6C16.5408 16.939 16.112 17.181 16.112 17.181C16.112 17.181 17.7251 15.6 21.2214 14.56L21.0269 14.32C21.0269 14.32 18.3654 14.261 15.568 16.421C15.568 16.421 12.7706 21.64 12.7706 28.08C12.7706 28.08 14.4026 30.979 18.696 31.12C18.696 31.12 19.4138 30.221 19.9993 29.461C17.5306 28.699 16.5993 27.099 16.5993 27.099C16.5993 27.099 16.792 27.24 17.1414 27.44C17.1603 27.459 17.1792 27.48 17.2189 27.499C17.2774 27.541 17.336 27.56 17.3946 27.6C17.88 27.88 18.3654 28.099 18.8112 28.28C19.6083 28.6 20.5603 28.92 21.6691 29.141C23.33 29.4693 25.0378 29.4757 26.7011 29.16C27.67 28.9856 28.6152 28.6973 29.5174 28.301C30.1974 28.04 30.9549 27.659 31.752 27.12C31.752 27.12 30.7811 28.76 28.2349 29.501C28.8186 30.261 29.5193 31.12 29.5193 31.12H29.5174Z" fill="#324558"/>
</svg>
