<svg width="48" height="48" viewBox="0 0 48 48" fill="none" xmlns="http://www.w3.org/2000/svg">
<path d="M32.628 38.276H40.758C40.921 38.2757 41.0825 38.3076 41.2331 38.3698C41.3838 38.432 41.5207 38.5233 41.6361 38.6385C41.7515 38.7537 41.843 38.8904 41.9054 39.041C41.9679 39.1916 42 39.353 42 39.516V40.758C42.0003 40.921 41.9684 41.0825 41.9062 41.2331C41.844 41.3838 41.7527 41.5207 41.6375 41.6361C41.5223 41.7515 41.3856 41.843 41.235 41.9054C41.0844 41.9679 40.923 42 40.76 42H7.24C6.91113 42 6.59573 41.8694 6.36319 41.6368C6.13064 41.4043 6 41.0889 6 40.76V39.518C5.99974 39.355 6.03162 39.1935 6.09382 39.0429C6.15601 38.8922 6.24731 38.7552 6.36248 38.6399C6.47765 38.5245 6.61444 38.433 6.76501 38.3706C6.91559 38.3081 7.07699 38.276 7.24 38.276H14.748L12.828 32.068H17.208C17.4691 32.0674 17.7238 32.1492 17.9357 32.3019C18.1476 32.4545 18.3059 32.6701 18.388 32.918L20.172 38.276H27.2L29.65 30.206H10.344C10.0151 30.206 9.69973 30.0754 9.46719 29.8428C9.23464 29.6103 9.104 29.2949 9.104 28.966V14.69C9.104 14.3611 9.23464 14.0457 9.46719 13.8132C9.69973 13.5806 10.0151 13.45 10.344 13.45H37.656C37.9849 13.45 38.3003 13.5806 38.5328 13.8132C38.7654 14.0457 38.896 14.3611 38.896 14.69V28.966C38.896 29.2949 38.7654 29.6103 38.5328 29.8428C38.3003 30.0754 37.9849 30.206 37.656 30.206H35.078L32.628 38.276ZM7.862 6H40.138C40.4669 6 40.7823 6.13064 41.0148 6.36319C41.2474 6.59573 41.378 6.91113 41.378 7.24V8.482C41.3783 8.64501 41.3464 8.80647 41.2842 8.95714C41.222 9.10782 41.1307 9.24475 41.0155 9.36011C40.9003 9.47546 40.7636 9.56698 40.613 9.62942C40.4624 9.69186 40.301 9.724 40.138 9.724H7.862C7.53313 9.724 7.21773 9.59336 6.98519 9.36081C6.75264 9.12827 6.622 8.81287 6.622 8.484V7.24C6.622 6.91148 6.75237 6.59638 6.98448 6.36389C7.21659 6.13141 7.53148 6.00053 7.86 6H7.862ZM14.38 17.172C14.3391 17.1717 14.2986 17.1796 14.2608 17.195C14.2229 17.2105 14.1885 17.2333 14.1595 17.2621C14.1305 17.2909 14.1075 17.3252 14.0918 17.3629C14.0761 17.4006 14.068 17.4411 14.068 17.482V25.552C14.068 25.724 14.208 25.862 14.38 25.862H33.62C33.792 25.862 33.932 25.722 33.932 25.552V17.48C33.932 17.4391 33.9239 17.3986 33.9082 17.3609C33.8925 17.3232 33.8695 17.2889 33.8405 17.2601C33.8115 17.2313 33.7771 17.2085 33.7392 17.193C33.7014 17.1776 33.6609 17.1697 33.62 17.17H14.38V17.172Z" fill="#324558"/>
</svg>
