<svg width="48" height="48" viewBox="0 0 48 48" fill="none" xmlns="http://www.w3.org/2000/svg">
<path fill-rule="evenodd" clip-rule="evenodd" d="M44 24C44 35.0457 35.0457 44 24 44C12.9543 44 4 35.0457 4 24C4 12.9543 12.9543 4 24 4C35.0457 4 44 12.9543 44 24ZM30.1562 38.7728C28.2612 39.5634 26.1816 40 24 40C20.4558 40 17.1808 38.8476 14.5291 36.8972C16.2539 34.5379 18.726 31.5802 22.394 29.4084C23.726 28.6197 25.2331 27.925 26.9417 27.4064C28.2574 30.8698 29.3483 34.6202 30.1562 38.7728ZM33.8046 36.6449C36.8107 34.3106 38.9622 30.9281 39.7104 27.0459C36.3833 26.402 33.4678 26.3088 30.9095 26.5962C32.0551 29.6988 33.0338 33.0259 33.8046 36.6449ZM25.402 23.6967C25.1022 23.0317 24.794 22.3768 24.4778 21.7311C24.0944 21.8444 23.7102 21.952 23.3256 22.054C18.0726 23.4485 12.5245 23.8878 8.00001 23.9798L8 24C8 27.8392 9.35221 31.3626 11.6063 34.1199C13.4641 31.6296 16.254 28.3953 20.3561 25.9665C21.8697 25.0702 23.5466 24.2921 25.402 23.6967ZM28.272 20.3874C28.6475 21.1666 29.0123 21.9593 29.3658 22.7669C32.4719 22.2901 35.9905 22.3068 39.9708 23.0254C39.7796 19.8426 38.6579 16.9107 36.8741 14.4979C34.5418 17.1261 31.5264 19.02 28.272 20.3874ZM26.4334 16.82C29.5165 15.5643 32.1732 13.8631 34.1002 11.5902C31.3458 9.34576 27.8301 8 24 8C23.0044 8 22.0301 8.09093 21.0848 8.26494C22.9809 10.9935 24.783 13.8135 26.4334 16.82ZM17.1052 9.55766C19.057 12.3115 20.8995 15.1261 22.5764 18.1133C22.4843 18.1385 22.3919 18.1634 22.2994 18.1879C17.6836 19.4132 12.7361 19.8522 8.51273 19.9665C9.70755 15.3658 12.8982 11.5697 17.1052 9.55766Z" fill="#324558"/>
</svg>
