<svg width="48" height="48" viewBox="0 0 48 48" fill="none" xmlns="http://www.w3.org/2000/svg">
<path d="M21.2867 4.03841C21.6958 4.0159 22.1053 4.00309 22.515 4H23.3317L22.5934 4.16367C20.0453 4.69728 17.6387 5.76501 15.5317 7.29671C12.0234 9.80516 9.38172 13.486 8.07339 17.6979C7.34923 20.0044 7.03336 22.4201 7.14006 24.8358C7.28016 28.7262 8.51294 32.4981 10.6967 35.7179C11.8359 37.3774 13.2116 38.8606 14.78 40.1202C17.095 41.9607 19.9517 43.2967 22.7417 43.8478C22.9322 43.8754 23.1205 43.9167 23.305 43.9714C23.3434 44.0182 22.305 44.0048 21.605 43.9514C16.8534 43.624 12.4801 41.463 9.21006 37.8339C6.34839 34.6524 4.6034 30.681 4.0934 26.2019C4.00173 25.4286 3.9684 23.3778 4.03506 22.5144C4.24486 19.4357 5.13159 16.4415 6.63173 13.7465C9.78172 8.16348 15.2134 4.56281 21.2867 4.03841Z" fill="#324558"/>
<path d="M16.1684 7.9681C18.6784 6.12935 21.7434 5.04548 24.9717 4.85175H24.9684C26.2767 4.77326 27.9684 4.87179 29.2767 5.10727C32.9884 5.7753 36.2267 7.63576 38.9767 10.6753C39.9167 11.7091 40.7667 12.8614 41.4334 14.0021C41.84 14.6901 42.545 16.1765 42.8 16.8779C43.0167 17.4674 43.2717 18.2657 43.2717 18.3442C43.2717 18.391 40.185 18.4044 26.0801 18.4044C15.2767 18.4044 8.89675 18.3843 8.89675 18.3643C8.89675 18.2657 9.12508 17.5593 9.36675 16.8963C10.6584 13.3858 13.0434 10.2561 16.1684 7.9681Z" fill="#324558"/>
<path d="M26.0351 20.6172C35.73 20.6105 43.6834 20.6105 43.7167 20.6105H43.7184C43.7567 20.6105 43.79 20.704 43.8234 20.9712C43.8834 21.4105 44 22.5612 44 22.7315V22.8568H26.0817C11.1467 22.8568 8.17175 22.8501 8.17175 22.8033C8.17175 22.5344 8.33509 20.9963 8.39509 20.7291L8.41342 20.6306L26.0351 20.6172Z" fill="#324558"/>
<path d="M8.19175 25.0696C8.21175 25.0111 10.4784 25.0045 26.0951 25.0111L43.9717 25.0245L43.985 25.1815C43.9984 25.3435 43.9 26.419 43.8284 26.9635L43.7884 27.2774H26.0817C11.9367 27.2774 8.37509 27.2641 8.37509 27.219C8.37509 27.1923 8.35009 26.9568 8.31675 26.6946C8.23175 25.9998 8.15842 25.1364 8.19175 25.0696Z" fill="#324558"/>
<path d="M8.89842 29.6088C8.89842 29.5571 11.2968 29.5504 26.1001 29.5504H43.3117L43.1167 30.1616C42.2467 32.9172 40.8484 35.2754 38.7367 37.5266C36.0434 40.3975 33.0367 42.126 29.5201 42.8208C28.3101 43.0629 27.6651 43.1164 26.1484 43.1164C24.7084 43.1214 24.2401 43.0896 23.2317 42.9326C20.0101 42.4082 17.2117 41.0455 14.5984 38.7074C14.1267 38.2882 13.0217 37.1292 12.5517 36.558C11.0081 34.7189 9.83536 32.5971 9.09842 30.3103C8.98842 29.9562 8.89842 29.6422 8.89842 29.6088Z" fill="#324558"/>
</svg>
