<svg width="48" height="48" viewBox="0 0 48 48" fill="none" xmlns="http://www.w3.org/2000/svg">
<path fill-rule="evenodd" clip-rule="evenodd" d="M39.4738 25.0518C40.9612 25.3665 42.5126 25.3499 44 25.0021C43.7281 28.2484 42.7365 31.3789 41.0732 34.1449C40.0656 32.9689 38.8501 32.0414 37.4746 31.3954C36.3391 34.3603 35.0596 36.8116 34.052 37.5072C33.0444 38.2029 30.3095 38.6998 27.2067 38.882C27.3507 40.4886 27.8305 42.0621 28.6142 43.4534C25.5914 44.1822 22.4246 44.1822 19.4018 43.4534C20.1855 42.0456 20.6653 40.4886 20.8093 38.8654C17.9144 38.6832 15.4034 38.236 14.3319 37.5072C13.2603 36.7785 11.9168 34.2774 10.7653 31.2961C9.29388 31.942 7.98241 32.9193 6.92683 34.1615C5.26349 31.3954 4.27189 28.2484 4 25.0021C5.58337 25.383 7.23071 25.3665 8.81407 24.9855C8.07837 21.9379 7.77449 19.2381 8.2383 18.0787C8.70212 16.9193 10.5094 14.9979 12.8125 12.9938C11.7089 11.5859 10.2695 10.4928 8.65414 9.7971C10.7173 7.26294 13.3403 5.27536 16.2991 4C16.427 5.80538 16.9868 7.54451 17.9144 9.06832C20.4574 7.34576 22.8565 6.08696 24.1839 6.08696C25.5114 6.08696 27.7505 7.24638 30.1975 8.88613C31.0612 7.39544 31.573 5.72257 31.7009 4C34.6597 5.27536 37.2827 7.2795 39.3459 9.81366C37.8105 10.4762 36.435 11.5031 35.3475 12.8116C37.7465 14.8654 39.6657 16.9027 40.1296 18.0952C40.5934 19.2878 40.2255 21.9876 39.4738 25.0518ZM24.184 12.5465C22.0409 12.5465 15.2596 17.9461 14.5079 19.8343C13.7562 21.7225 16.4111 30.4016 18.2024 31.6107C19.9937 32.8198 28.5183 32.7536 30.1656 31.6107C31.813 30.4679 34.5959 21.7225 33.8601 19.8343C33.1244 17.9461 26.3432 12.5465 24.184 12.5465ZM17.4825 21.8218C17.4825 20.3477 18.6341 19.1552 20.0575 19.1552C21.4809 19.1552 22.6325 20.3477 22.6325 21.8218C22.6325 23.2959 21.4809 24.4885 20.0575 24.4885C18.6341 24.4885 17.4825 23.2959 17.4825 21.8218ZM25.5115 21.8218C25.5115 20.3477 26.663 19.1552 28.0865 19.1552C29.5099 19.1552 30.6614 20.3477 30.6614 21.8218C30.6614 23.2959 29.5099 24.4885 28.0865 24.4885C26.663 24.4885 25.5115 23.2959 25.5115 21.8218Z" fill="#324558"/>
</svg>
