<svg width="48" height="48" viewBox="0 0 48 48" fill="none" xmlns="http://www.w3.org/2000/svg">
<path fill-rule="evenodd" clip-rule="evenodd" d="M24 4C12.9543 4 4 12.9543 4 24V39.7143C4 42.0812 5.91878 44 8.28571 44H24C35.0457 44 44 35.0457 44 24C44 12.9543 35.0457 4 24 4ZM33.5133 12.6238L38.9911 18.1837C38.9829 17.5134 38.8996 16.846 38.743 16.1942L33.8501 11.2116V11.3537C33.8501 11.8067 33.7172 12.2064 33.5133 12.6238ZM36.5319 12.0341C35.6384 11.0577 34.5494 10.2811 33.336 9.75502C33.5114 10.0009 33.6377 10.2783 33.7083 10.5721L38.5214 15.4215C38.1033 14.1648 37.4254 13.0105 36.5319 12.0341ZM13.7824 24.3476C13.962 23.98 14.1917 23.6392 14.4649 23.3351C13.9792 23.3747 13.4983 23.4609 13.029 23.5927L13.7824 24.3476ZM13.6406 24.7651L12.5947 23.7081C12.1767 23.8248 11.7703 23.9794 11.3803 24.17L13.7736 26.5858C13.635 26.232 13.5629 25.8556 13.5608 25.4756L13.6406 24.7651ZM13.1176 28.1934C13.5127 27.9963 13.9334 27.8558 14.3674 27.7759L10.9815 24.3654C10.6376 24.5577 10.3061 24.7713 9.98872 25.0049L13.1176 28.1934ZM12.7631 28.3888L9.63417 25.2358C9.30674 25.4811 9.0066 25.761 8.73892 26.0707L11.8324 29.1437C12.1166 28.8614 12.4284 28.6085 12.7631 28.3888ZM11.5488 29.4368L8.45528 26.3282C8.19823 26.6213 7.94118 26.9233 7.69299 27.2608L10.8662 30.4493C11.052 30.0854 11.2812 29.7454 11.5488 29.4368ZM10.7067 30.849L7.48026 27.5983C7.25809 27.9395 7.05967 28.2956 6.88638 28.6641L10.3876 32.199C10.4201 31.7346 10.5279 31.2787 10.7067 30.849ZM10.361 32.7586L6.70024 29.046C6.54069 29.4812 6.40774 29.8987 6.28364 30.3339L10.9549 35.0856C10.5924 34.3617 10.3898 33.568 10.361 32.7586ZM11.4867 38.3896L6 32.8652C6.00406 33.5217 6.09042 34.1752 6.25705 34.8102L11.1676 39.7573V39.6596C11.1713 39.2168 11.2807 38.7813 11.4867 38.3896ZM11.2828 40.4412L6.46978 35.5918C6.88915 36.8479 7.56754 38.0015 8.46089 38.9778C9.35423 39.954 10.4425 40.731 11.6551 41.2583C11.4833 41.0104 11.3572 40.7337 11.2828 40.4412ZM6.18614 30.7957C6.0708 31.291 6.00841 31.7971 6 32.3056L11.7083 38.0076C11.9531 37.7003 12.2502 37.4387 12.5858 37.2349L6.18614 30.7957ZM24.6761 27.696L28.4521 27.7049C31.3417 27.7138 31.3505 23.3351 28.4698 23.3173L25.4915 23.3085C25.3873 23.308 25.2842 23.2869 25.1882 23.2465C25.0921 23.2061 25.0049 23.147 24.9316 23.0728C24.8583 22.9985 24.8004 22.9105 24.7611 22.8138C24.7218 22.7171 24.702 22.6135 24.7027 22.5091L24.7115 18.3347C24.7204 14.7376 28.133 12.9347 30.5616 13.4587C31.9267 13.8051 33.2474 12.7126 33.2474 11.336C33.2474 10.2613 32.4762 9.36423 31.4835 9.20436C30.8968 9.06586 30.2958 8.99729 29.693 9.00008C28.4669 8.99517 27.2519 9.23265 26.1175 9.69892C24.9831 10.1652 23.9517 10.8511 23.0822 11.7174C22.2128 12.5836 21.5224 13.6132 21.0506 14.7472C20.5788 15.8812 20.3349 17.0973 20.3328 18.3258L20.3239 23.2996L16.5479 23.2907C13.6583 23.2818 13.6495 27.6605 16.5391 27.6694L19.5173 27.6783C19.9073 27.6783 20.3062 28.0779 20.3062 28.4776L20.2973 32.652C20.2972 33.3055 20.1684 33.9525 19.9182 34.5559C19.6681 35.1594 19.3015 35.7075 18.8396 36.1687C18.3776 36.6299 17.8293 36.9953 17.2262 37.2438C16.623 37.4923 15.9769 37.6191 15.3247 37.6169C14.8666 37.6169 14.6604 37.5739 14.4747 37.5352C14.3227 37.5035 14.1845 37.4747 13.9331 37.4747C13.3584 37.4837 12.8099 37.7171 12.4043 38.1251C11.9988 38.5332 11.7681 39.0838 11.7615 39.6596C11.7615 41.0363 13.0201 41.809 13.5254 41.809C18.9589 42.9547 24.6495 38.8248 24.6672 32.6698L24.6761 27.696ZM31.2087 26.6657C31.0517 27.0438 30.8229 27.3877 30.5351 27.6783C31.0169 27.6308 31.4941 27.5447 31.9621 27.4207L31.2087 26.6657ZM31.3505 26.2483L32.3965 27.3052C32.8157 27.1886 33.2224 27.0309 33.6108 26.8345L31.2176 24.4187C31.3561 24.7725 31.4282 25.1488 31.4303 25.5289L31.3505 26.2483ZM30.6237 23.2374L33.9919 26.648C34.3465 26.4526 34.7099 26.2305 35.0467 26.0085L31.838 22.82C31.4746 23.0243 31.058 23.1397 30.6237 23.2374ZM32.2369 22.6246L35.3658 25.7776C35.6785 25.5276 35.9773 25.2607 36.2611 24.9782L33.1676 21.8696C32.8862 22.155 32.5741 22.4082 32.2369 22.6246ZM33.4424 21.5765L36.5359 24.6851C36.806 24.3877 37.0604 24.0765 37.2981 23.7525L34.1249 20.564C33.9349 20.9254 33.706 21.2649 33.4424 21.5765ZM34.2845 20.1644L37.5109 23.415C37.7364 23.0759 37.9349 22.7195 38.1048 22.3492L34.6035 18.8143C34.571 19.2787 34.4632 19.7347 34.2845 20.1644ZM38.2909 21.9407C38.4523 21.5251 38.5914 21.1011 38.7075 20.6706L34.0008 15.9278C34.3907 16.6429 34.6064 17.4403 34.6301 18.2548L38.2909 21.9407ZM32.423 13.7695L38.7961 20.1732C38.9092 19.6891 38.9775 19.1956 39 18.6989L33.3006 12.9524C33.0695 13.2843 32.7703 13.5629 32.423 13.7695Z" fill="#324558"/>
</svg>
