<svg width="48" height="48" viewBox="0 0 48 48" fill="none" xmlns="http://www.w3.org/2000/svg">
<path d="M42 8.7915V7.2045C41.6805 7.20311 41.3744 7.07593 41.1479 6.8505C40.9239 6.62398 40.7979 6.31855 40.7969 6H39.2068C39.1852 6.30515 39.0488 6.5908 38.825 6.79936C38.6012 7.00792 38.3066 7.12388 38.0007 7.12388C37.6947 7.12388 37.4002 7.00792 37.1763 6.79936C36.9525 6.5908 36.8161 6.30515 36.7946 6H35.2044C35.189 6.30945 35.0552 6.60112 34.8307 6.81468C34.6062 7.02823 34.3082 7.14733 33.9983 7.14733C33.6885 7.14733 33.3905 7.02823 33.166 6.81468C32.9415 6.60112 32.8077 6.30945 32.7922 6H31.2036C31.1873 6.32011 31.0447 6.62068 30.8071 6.8358C30.5694 7.05091 30.2562 7.16301 29.936 7.1475C29.6369 7.1316 29.3544 7.00555 29.1427 6.79366C28.9311 6.58178 28.8054 6.29905 28.7899 6H27.1998C27.181 6.30731 27.0457 6.59588 26.8214 6.80685C26.5971 7.01781 26.3008 7.13527 25.9929 7.13527C25.685 7.13527 25.3887 7.01781 25.1644 6.80685C24.9402 6.59588 24.8048 6.30731 24.7861 6H23.1989C23.1835 6.30945 23.0497 6.60112 22.8252 6.81468C22.6007 7.02823 22.3027 7.14733 21.9928 7.14733C21.683 7.14733 21.385 7.02823 21.1605 6.81468C20.936 6.60112 20.8022 6.30945 20.7867 6H19.1966C19.1927 6.15785 19.1575 6.31337 19.093 6.45749C19.0285 6.60161 18.936 6.73147 18.8208 6.83951C18.7056 6.94754 18.5701 7.0316 18.4222 7.08679C18.2742 7.14199 18.1168 7.16721 17.959 7.161C17.654 7.15093 17.3641 7.02547 17.1481 6.80996C16.932 6.59446 16.8058 6.30497 16.7949 6H15.2048C15.1808 6.30323 15.0435 6.5863 14.82 6.79275C14.5966 6.99919 14.3036 7.11385 13.9994 7.11385C13.6952 7.11385 13.4022 6.99919 13.1788 6.79275C12.9554 6.5863 12.818 6.30323 12.7941 6H11.2039C11.2039 6.31965 11.0769 6.62621 10.8509 6.85224C10.6248 7.07827 10.3183 7.20525 9.99858 7.20525C9.6789 7.20525 9.37232 7.07827 9.14627 6.85224C8.92022 6.62621 8.79323 6.31965 8.79323 6H7.2031C7.20192 6.31883 7.07483 6.62429 6.8495 6.84987C6.62418 7.07546 6.31885 7.20292 6 7.2045V8.79C6.31232 8.80102 6.60817 8.93282 6.82522 9.15765C7.04227 9.38247 7.16357 9.68276 7.16357 9.99525C7.16357 10.3077 7.04227 10.608 6.82522 10.8329C6.60817 11.0577 6.31232 11.1895 6 11.2005V12.7905C6.31968 12.7905 6.62626 12.9175 6.85231 13.1435C7.07836 13.3695 7.20535 13.6761 7.20535 13.9958C7.20535 14.3154 7.07836 14.622 6.85231 14.848C6.62626 15.074 6.31968 15.201 6 15.201V16.7895C6.30947 16.8049 6.60117 16.9387 6.81474 17.1632C7.02832 17.3877 7.14743 17.6857 7.14743 17.9955C7.14743 18.3053 7.02832 18.6033 6.81474 18.8278C6.60117 19.0523 6.30947 19.1861 6 19.2015V20.7915C6.31968 20.7915 6.62626 20.9185 6.85231 21.1445C7.07836 21.3705 7.20535 21.6771 7.20535 21.9967C7.20535 22.3164 7.07836 22.623 6.85231 22.849C6.62626 23.075 6.31968 23.202 6 23.202V24.792C6.31948 24.792 6.62587 24.9189 6.85178 25.1448C7.07769 25.3707 7.2046 25.677 7.2046 25.9965C7.2046 26.316 7.07769 26.6223 6.85178 26.8482C6.62587 27.0741 6.31948 27.201 6 27.201V28.791C6.31988 28.791 6.62665 28.9181 6.85284 29.1442C7.07903 29.3704 7.2061 29.6771 7.2061 29.997C7.2061 30.3169 7.07903 30.6236 6.85284 30.8498C6.62665 31.0759 6.31988 31.203 6 31.203V32.793C6.66606 32.8185 7.1851 33.375 7.1611 34.038C7.15136 34.343 7.02595 34.6328 6.81032 34.8487C6.59468 35.0646 6.30498 35.1904 6 35.2005V36.792C6.31988 36.792 6.62665 36.9191 6.85284 37.1452C7.07903 37.3714 7.2061 37.6782 7.2061 37.998C7.2061 38.3179 7.07903 38.6246 6.85284 38.8508C6.62665 39.0769 6.31988 39.204 6 39.204V40.794C6.3195 40.7948 6.62566 40.9222 6.85143 41.1482C7.07721 41.3742 7.2042 41.6805 7.2046 42H8.79473C8.81867 41.6968 8.95605 41.4137 9.17945 41.2073C9.40286 41.0008 9.69588 40.8862 10.0001 40.8862C10.3043 40.8862 10.5973 41.0008 10.8207 41.2073C11.0441 41.4137 11.1815 41.6968 11.2054 42H12.7956C12.8171 41.6948 12.9535 41.4092 13.1773 41.2006C13.4012 40.9921 13.6957 40.8761 14.0017 40.8761C14.3076 40.8761 14.6022 40.9921 14.826 41.2006C15.0498 41.4092 15.1862 41.6948 15.2078 42H16.7964C16.8152 41.6927 16.9505 41.4041 17.1748 41.1932C17.399 40.9822 17.6953 40.8647 18.0032 40.8647C18.3112 40.8647 18.6075 40.9822 18.8317 41.1932C19.056 41.4041 19.1913 41.6927 19.2101 42H20.8002C20.8113 41.6877 20.9431 41.3919 21.1679 41.1749C21.3928 40.9578 21.6931 40.8365 22.0056 40.8365C22.3181 40.8365 22.6184 40.9578 22.8433 41.1749C23.0681 41.3919 23.1999 41.6877 23.2109 42H24.8011C24.825 41.6968 24.9624 41.4137 25.1858 41.2073C25.4092 41.0008 25.7022 40.8862 26.0064 40.8862C26.3106 40.8862 26.6036 41.0008 26.827 41.2073C27.0505 41.4137 27.1878 41.6968 27.2118 42H28.8004C28.822 41.6945 28.9585 41.4084 29.1826 41.1996C29.4067 40.9908 29.7017 40.8747 30.008 40.8747C30.3143 40.8747 30.6093 40.9908 30.8334 41.1996C31.0575 41.4084 31.194 41.6945 31.2156 42H32.8027C32.8243 41.6945 32.9609 41.4084 33.185 41.1996C33.4091 40.9908 33.704 40.8747 34.0103 40.8747C34.3167 40.8747 34.6116 40.9908 34.8357 41.1996C35.0598 41.4084 35.1964 41.6945 35.2179 42H36.8066C36.822 41.6909 36.9556 41.3996 37.1799 41.1864C37.4041 40.9731 37.7017 40.8541 38.0112 40.8541C38.3206 40.8541 38.6183 40.9731 38.8425 41.1864C39.0667 41.3996 39.2003 41.6909 39.2158 42H40.7969C40.7969 41.685 40.9259 41.373 41.1494 41.148C41.3758 40.9238 41.6814 40.7977 42 40.797V39.207C41.6952 39.1855 41.4099 39.0492 41.2016 38.8257C40.9933 38.6022 40.8775 38.308 40.8775 38.0025C40.8775 37.697 40.9933 37.4028 41.2016 37.1793C41.4099 36.9558 41.6952 36.8195 42 36.798V35.208C41.6905 35.1926 41.3988 35.0588 41.1853 34.8343C40.9717 34.6098 40.8526 34.3118 40.8526 34.002C40.8526 33.6922 40.9717 33.3942 41.1853 33.1697C41.3988 32.9452 41.6905 32.8114 42 32.796V31.206C41.6948 31.1845 41.4092 31.048 41.2006 30.8242C40.992 30.6005 40.876 30.3059 40.876 30C40.876 29.6941 40.992 29.3995 41.2006 29.1758C41.4092 28.952 41.6948 28.8155 42 28.794V27.2025C41.6801 27.2025 41.3733 27.0754 41.1472 26.8493C40.921 26.6231 40.7939 26.3164 40.7939 25.9965C40.7939 25.6766 40.921 25.3699 41.1472 25.1437C41.3733 24.9176 41.6801 24.7905 42 24.7905V23.205C41.6948 23.1835 41.4092 23.047 41.2006 22.8232C40.992 22.5995 40.876 22.3049 40.876 21.999C40.876 21.6931 40.992 21.3985 41.2006 21.1748C41.4092 20.951 41.6948 20.8145 42 20.793V19.203C41.6877 19.192 41.3918 19.0602 41.1748 18.8354C40.9577 18.6105 40.8364 18.3102 40.8364 17.9977C40.8364 17.6853 40.9577 17.385 41.1748 17.1601C41.3918 16.9353 41.6877 16.8035 42 16.7925V15.2025C41.6952 15.181 41.4099 15.0447 41.2016 14.8212C40.9933 14.5977 40.8775 14.3035 40.8775 13.998C40.8775 13.6925 40.9933 13.3983 41.2016 13.1748C41.4099 12.9513 41.6952 12.815 42 12.7935V11.2035C41.6948 11.182 41.4092 11.0455 41.2006 10.8217C40.992 10.598 40.876 10.3034 40.876 9.9975C40.876 9.69159 40.992 9.39705 41.2006 9.17325C41.4092 8.94945 41.6948 8.81304 42 8.7915ZM35.899 23.5455L26.2952 32.88C27.1653 33.015 28.0053 33.2175 28.9084 33.2175C31.1046 33.2175 33.6293 32.55 35.3364 31.8435L34.4604 35.961C31.9477 37.1685 30.41 37.266 28.9084 37.266C27.2658 37.266 25.6921 36.732 24.0855 36.732C23.1824 36.732 21.8758 36.7995 21.0733 37.332L19.3331 34.254L29.2399 24.444H17.839L15.6638 34.653H10.9084L15.8648 11.292H31.5966L30.5915 16.0095H19.6451L18.7091 20.3955H36.6701L35.899 23.5455Z" fill="#324558"/>
</svg>
