<svg width="48" height="48" viewBox="0 0 48 48" fill="none" xmlns="http://www.w3.org/2000/svg">
<path d="M43.4869 16.5557C42.573 14.3573 40.7219 11.984 39.2684 11.2339C40.4514 13.553 41.1361 15.8795 41.3977 17.6157C41.3977 17.6191 41.399 17.6276 41.4018 17.6507C39.024 11.7241 34.9921 9.33434 31.6998 4.13093C31.5335 3.86782 31.3668 3.60401 31.2044 3.32594C31.1218 3.18393 31.0445 3.0388 30.9729 2.89089C30.8361 2.62681 30.7306 2.34766 30.6585 2.05912C30.659 2.04546 30.6544 2.03211 30.6456 2.02168C30.6367 2.01126 30.6243 2.00451 30.6108 2.00277C30.5979 1.99908 30.5842 1.99908 30.5713 2.00277C30.5683 2.00382 30.564 2.00724 30.5608 2.00846C30.5562 2.0103 30.5503 2.0145 30.5454 2.01721C30.5478 2.01406 30.5527 2.00697 30.5542 2.00531C25.2718 5.09894 23.4798 10.8218 23.3152 13.6851C23.5602 13.6681 23.8045 13.6475 24.0538 13.6475C27.9959 13.6475 31.4292 15.8149 33.2675 19.0273C32.1447 18.2386 30.1342 17.4596 28.1972 17.7965C35.7607 21.5777 33.7302 34.5986 23.2495 34.1071C22.3162 34.069 21.3939 33.8911 20.5133 33.5794C20.3051 33.501 20.0991 33.4168 19.8957 33.3268C19.777 33.2728 19.6585 33.2181 19.5413 33.1575C19.5455 33.1604 19.5513 33.1636 19.5556 33.1663C19.4528 33.1168 19.3507 33.066 19.2493 33.0138C19.3477 33.0607 19.4403 33.1125 19.5413 33.1575C16.9732 31.8303 14.8525 29.3218 14.5876 26.276C14.5876 26.276 15.5583 22.6592 21.5379 22.6592C22.1843 22.6592 24.0324 20.8554 24.0666 20.3323C24.0588 20.1615 20.3989 18.7057 18.9721 17.2999C18.2097 16.5488 17.8478 16.1867 17.5272 15.915C17.3532 15.7681 17.1714 15.6308 16.9825 15.5037C16.5032 13.8269 16.4828 12.0521 16.9235 10.3647C14.7633 11.3483 13.0832 12.9031 11.8617 14.276H11.852C11.0184 13.2201 11.0772 9.7371 11.1247 9.00989C11.1147 8.96483 10.5028 9.32752 10.4227 9.38221C9.68706 9.90727 8.99938 10.4964 8.36765 11.1427C7.64897 11.8718 6.99235 12.6596 6.4046 13.4978C5.05242 15.414 4.09341 17.5792 3.58301 19.8682C3.57295 19.9138 3.56446 19.9611 3.55466 20.007C3.51511 20.1921 3.33713 21.1316 3.31229 21.3331C3.31036 21.3486 3.31412 21.3177 3.31229 21.3331C3.14999 22.3039 3.04643 23.2837 3.00219 24.267C3.00219 24.3029 3 24.3384 3 24.3743C3 35.9862 12.4149 45.3996 24.0282 45.3996C34.4288 45.3996 43.0645 37.8494 44.7552 27.9321C44.7908 27.6629 44.8193 27.3924 44.8508 27.1209C45.2687 23.515 44.8044 19.725 43.4869 16.5557ZM41.4008 17.6355C41.4019 17.6429 41.4032 17.6507 41.4043 17.6582L41.4036 17.6559L41.4008 17.6355Z" fill="#324558"/>
</svg>
