<svg width="48" height="48" viewBox="0 0 48 48" fill="none" xmlns="http://www.w3.org/2000/svg">
<path d="M6.91641 29.9556C4.04025 20.3401 9.65681 10.244 19.4528 7.42092C23.801 6.16734 28.2471 6.5576 32.0968 8.2195C31.8961 8.49935 31.7099 8.78302 31.5373 9.06568C29.656 8.63351 28.2141 9.21703 27.8543 10.8114C27.2881 13.3166 29.6037 17.3771 33.0209 19.8728C36.4381 22.3695 39.6702 22.3619 40.2355 19.8566C40.38 19.2151 40.3364 18.4698 40.1327 17.6759C40.5274 17.4408 40.9162 17.181 41.2983 16.8983C41.7415 17.7949 42.1148 18.7392 42.4106 19.7262C45.2867 29.3416 39.6702 39.4378 29.8742 42.2609C20.0782 45.0841 9.7926 39.5711 6.91641 29.9556ZM30.8197 12.0897C30.8343 12.0753 30.8478 12.0621 30.8623 12.0468C35.3006 7.55798 40.829 4.89952 43.2018 6.1131C45.5737 7.32761 42.1613 13.2376 39.4597 16.4472C38.6375 17.2781 37.7783 18.0463 36.9084 18.7392C33.8868 17.6779 31.5944 15.2403 30.8197 12.0897ZM4.04228 8.21375C3.62042 4.99749 6.40352 4.0333 10.2542 6.06265C11.1687 6.54429 12.0608 7.15153 12.8967 7.84064C10.6014 9.39688 8.63187 11.488 7.20254 14.0514C5.48717 12.1715 4.28075 10.027 4.04228 8.21375Z" fill="#324558"/>
</svg>
