<svg width="48" height="48" viewBox="0 0 48 48" fill="none" xmlns="http://www.w3.org/2000/svg">
<path d="M24 4C13 4 4 13 4 24C4 35 13 44 24 44C35 44 44 35 44 24C44 13 35 4 24 4ZM12.858 35.142C9.858 32.142 8.286 28.142 8.286 24.286L23.858 39.714C19.858 39.572 15.858 38.142 12.858 35.142ZM27.428 39.286L8.714 20.572C10.286 13.572 16.572 8.286 24 8.286C29.286 8.286 33.858 10.858 36.714 14.714L34.572 16.572C32.14 13.286 28.286 11.14 24 11.14C18.428 11.14 13.714 14.712 11.858 19.712L28.286 36.14C32.428 34.712 35.572 31.14 36.572 26.856H29.714V24H39.714C39.714 31.428 34.428 37.714 27.428 39.286Z" fill="#324558"/>
</svg>
