<svg width="48" height="48" viewBox="0 0 48 48" fill="none" xmlns="http://www.w3.org/2000/svg">
<path fill-rule="evenodd" clip-rule="evenodd" d="M45.1699 22.0412L25.9593 2.8302C24.8538 1.72327 23.0595 1.72327 21.9513 2.8302L17.4883 7.29365L20.8473 10.6529C21.3862 10.3958 21.9885 10.25 22.6251 10.25C24.9033 10.25 26.7499 12.0968 26.7499 14.3752C26.7499 15.0119 26.6055 15.6155 26.347 16.1532L31.8454 21.6521C32.3844 21.3949 32.9866 21.2492 33.6232 21.2492C35.9014 21.2492 37.748 23.0959 37.748 25.3744C37.748 27.6529 35.9014 29.4996 33.6232 29.4996C31.3449 29.4996 29.4984 27.6529 29.4984 25.3744C29.4984 24.7377 29.6427 24.1341 29.9012 23.5964L24.4029 18.0975C24.2722 18.1608 24.1375 18.2158 24 18.2639V29.7361C25.6018 30.3026 26.7499 31.8289 26.7499 33.6261C26.7499 35.9046 24.9033 37.7513 22.6251 37.7513C20.3468 37.7513 18.5003 35.9046 18.5003 33.6261C18.5003 31.8303 19.6483 30.3026 21.2501 29.7361V18.2639C19.6483 17.6974 18.5003 16.1711 18.5003 14.3739C18.5003 13.7372 18.6446 13.1336 18.9031 12.5959L15.5441 9.23662L2.83012 21.9505C1.72329 23.0588 1.72329 24.8519 2.83012 25.9588L22.0421 45.1698C23.1475 46.2767 24.9418 46.2767 26.05 45.1698L45.1699 26.0482C46.2767 24.9412 46.2767 23.1454 45.1699 22.0398V22.0412Z" fill="#324558"/>
</svg>
