<svg width="48" height="48" viewBox="0 0 48 48" fill="none" xmlns="http://www.w3.org/2000/svg">
<g clip-path="url(#clip0_1475_1137)">
<path d="M21.6042 35.5401C21.7888 35.5404 21.9716 35.577 22.1421 35.6479C22.3126 35.7188 22.4674 35.8226 22.5978 35.9534C22.7282 36.0841 22.8315 36.2392 22.9019 36.4099C22.9724 36.5806 23.0085 36.7635 23.0082 36.9481C23.0079 37.1328 22.9713 37.3155 22.9004 37.486C22.8295 37.6565 22.7257 37.8114 22.595 37.9417C22.4642 38.0721 22.3091 38.1755 22.1384 38.2459C21.9677 38.3163 21.7848 38.3524 21.6002 38.3521C21.2273 38.3516 20.8699 38.203 20.6066 37.9389C20.3433 37.6749 20.1957 37.317 20.1962 36.9441C20.1967 36.5712 20.3454 36.2138 20.6094 35.9505C20.8735 35.6872 21.2313 35.5396 21.6042 35.5401ZM43.6522 26.8461C43.4676 26.846 43.2848 26.8095 43.1142 26.7387C42.9437 26.6679 42.7888 26.5643 42.6583 26.4336C42.5278 26.303 42.4244 26.1479 42.3538 25.9773C42.2833 25.8066 42.2471 25.6238 42.2472 25.4391C42.2473 25.2545 42.2838 25.0717 42.3546 24.9012C42.4254 24.7306 42.5291 24.5757 42.6597 24.4452C42.7904 24.3148 42.9454 24.2113 43.1161 24.1408C43.2867 24.0702 43.4696 24.034 43.6542 24.0341C44.0271 24.0344 44.3846 24.1828 44.6481 24.4466C44.9116 24.7105 45.0595 25.0682 45.0592 25.4411C45.0589 25.814 44.9106 26.1715 44.6467 26.435C44.3828 26.6985 44.0251 26.8464 43.6522 26.8461ZM43.6522 21.0941C42.4994 21.0952 41.3941 21.5536 40.5789 22.3688C39.7637 23.184 39.3053 24.2893 39.3042 25.4421C39.3042 25.9081 39.3822 26.3721 39.5342 26.8241L25.1722 34.4701C24.774 33.8919 24.2411 33.4192 23.6195 33.0927C22.9979 32.7662 22.3063 32.5958 21.6042 32.5961C19.9462 32.5961 18.4362 33.5461 17.7042 35.0281L4.80221 28.2241C3.43821 27.5081 2.41821 25.2641 2.52621 23.2201C2.58221 22.1541 2.95021 21.3261 3.51221 21.0061C3.86821 20.8061 4.29621 20.8221 4.75221 21.0601L4.83621 21.1061C8.25621 22.9061 19.4442 28.8001 19.9162 29.0181C20.6422 29.3561 21.0462 29.4921 22.2862 28.9041L45.4142 16.8761C45.7542 16.7481 46.1502 16.4221 46.1502 15.9281C46.1502 15.2441 45.4402 14.9741 45.4402 14.9741C44.1242 14.3441 42.1022 13.3981 40.1302 12.4741C35.9142 10.5001 31.1362 8.26413 29.0382 7.16413C27.2262 6.21613 25.7682 7.01613 25.5082 7.17613L25.0042 7.42613C15.5602 12.0961 2.92021 18.3561 2.20021 18.7941C0.914207 19.5781 0.116207 21.1401 0.0122074 23.0781C-0.147793 26.1521 1.41821 29.3581 3.66021 30.5321L17.3042 37.5681C17.4545 38.6017 17.9716 39.5466 18.7611 40.2304C19.5506 40.9141 20.5598 41.291 21.6042 41.2921C22.7449 41.2902 23.8392 40.8407 24.6519 40.0403C25.4647 39.24 25.9308 38.1526 25.9502 37.0121L40.9782 28.8661C41.7382 29.4621 42.6842 29.7881 43.6522 29.7881C44.805 29.7871 45.9104 29.3286 46.7255 28.5135C47.5407 27.6983 47.9991 26.593 48.0002 25.4401C47.9991 24.2873 47.5407 23.182 46.7255 22.3668C45.9104 21.5516 44.805 21.0932 43.6522 21.0921" fill="#324558"/>
</g>
<defs>
<clipPath id="clip0_1475_1137">
<rect width="48" height="48" fill="white"/>
</clipPath>
</defs>
</svg>
