<svg width="48" height="48" viewBox="0 0 48 48" fill="none" xmlns="http://www.w3.org/2000/svg">
<path fill-rule="evenodd" clip-rule="evenodd" d="M24 44C35.0457 44 44 35.0457 44 24C44 12.9543 35.0457 4 24 4C12.9543 4 4 12.9543 4 24C4 35.0457 12.9543 44 24 44ZM22.8899 22.0002H33.1099C33.3456 22.0002 33.5716 22.0937 33.7383 22.2603C33.9051 22.4269 33.9989 22.6528 33.9991 22.8885V28.0005C33.9991 29.5917 33.367 31.1177 32.242 32.2428C31.1169 33.3679 29.591 34 27.9999 34H14.8892C14.3978 34 14 33.6022 14 33.1108V20.6673C13.9999 19.7918 14.1722 18.9248 14.5072 18.1159C14.8421 17.307 15.3331 16.572 15.9521 15.9529C16.5711 15.3337 17.306 14.8426 18.1149 14.5075C18.9237 14.1725 19.7906 14 20.6661 14H33.1117C33.3474 14.0002 33.5733 14.094 33.7399 14.2608C33.9064 14.4275 34 14.6535 34 14.8892L33.9973 17.1113C33.9973 17.347 33.9037 17.573 33.7372 17.7398C33.5706 17.9065 33.3447 18.0003 33.109 18.0005H20.6661C19.959 18.0008 19.281 18.2818 18.7811 18.7819C18.2812 19.282 18.0004 19.9602 18.0004 20.6673V29.1112C18.0004 29.3468 18.0939 29.5729 18.2605 29.7396C18.427 29.9063 18.653 30.0001 18.8886 30.0004H27.3339C28.0412 30.0004 28.7194 29.7194 29.2195 29.2193C29.7196 28.7192 30.0005 28.0409 30.0005 27.3336V26.889C30.0005 26.3985 29.6028 26.0007 29.1114 26.0007H22.8881C22.3976 26.0007 21.9998 25.602 21.9998 25.1115L22.0007 22.8894C22.0007 22.6536 22.0944 22.4274 22.2612 22.2606C22.4279 22.0939 22.6541 22.0002 22.8899 22.0002Z" fill="#324558"/>
</svg>
