<svg width="48" height="48" viewBox="0 0 48 48" fill="none" xmlns="http://www.w3.org/2000/svg">
<path d="M26.8553 24.9576C26.8518 23.2566 25.4171 21.8283 23.724 21.8419L23.7252 21.8413C22.0351 21.8549 20.6193 23.3087 20.644 25.0067C20.6664 26.6746 22.0745 28.0757 23.7352 28.0822C25.426 28.0922 26.8588 26.6586 26.8553 24.9576Z" fill="#324558"/>
<path fill-rule="evenodd" clip-rule="evenodd" d="M5.91609 33.8046C5.48641 32.8539 5.07931 31.8927 4.67364 30.931C4.23683 29.8504 3.87478 28.7349 3.65991 27.5793C3.60104 27.2699 3.50803 27.0014 3.18896 26.824C0.595758 25.3951 -0.206631 21.9168 2.04395 19.0667C3.39205 17.3651 5.12046 16.2218 7.31158 15.8865C7.54219 15.8505 7.76439 15.7727 7.96738 15.657C9.33288 14.8566 10.8004 14.2466 12.3296 13.8437L12.3484 13.8386C12.6186 13.7664 12.8573 13.7025 12.8429 13.3031C12.7647 11.2488 13.0002 9.21268 13.2354 7.17905C13.2601 6.96522 13.2848 6.7514 13.3092 6.53759C13.3118 6.51462 13.3153 6.49126 13.3189 6.46739C13.3414 6.31794 13.367 6.14862 13.1867 5.93136C9.3879 8.93174 4.90441 9.94369 0 10.3624C0.504376 9.92841 0.952933 9.73941 1.3796 9.55964L1.4841 9.51549C5.18639 7.95113 8.99936 6.7026 12.8441 5.5487C12.9797 5.50759 13.1172 5.47765 13.255 5.44764C13.2937 5.43923 13.3324 5.4308 13.371 5.42213C13.9273 5.29734 14.1546 5.44283 14.1192 6.08632C14.0269 7.69956 14.0546 9.31473 14.0822 10.9299C14.0925 11.5288 14.1027 12.1276 14.1069 12.7264C14.1116 13.2073 14.1622 13.3947 14.7544 13.2818C18.379 12.5951 22.006 12.491 25.597 13.5119C25.9343 13.6088 26.1321 13.4574 26.3264 13.2209C26.9098 12.5096 27.4993 11.803 28.0889 11.0963C30.1785 8.59202 32.2686 6.08712 34.0854 3.36924C34.4903 2.75993 34.7635 3.02283 35.0708 3.31851L35.1021 3.34854C36.1615 4.37063 37.0651 5.53011 37.9668 6.68719L38.1356 6.90369C40.5934 10.0671 43.3762 12.9614 46.4379 15.5387C46.7587 15.8031 47.0614 16.0888 47.3439 16.3939C47.4115 16.4687 47.5026 16.5464 47.5954 16.6256C47.847 16.8403 48.111 17.0655 47.9515 17.2699C47.7557 17.5223 47.4235 17.3098 47.1263 17.1196C47.0418 17.0656 46.9602 17.0134 46.8854 16.9741C45.5948 16.308 44.4165 15.4691 43.2355 14.6283C43.0837 14.5202 42.9319 14.4121 42.7798 14.3044C40.1082 12.4127 38.3901 9.73309 36.6705 7.05103L36.4808 6.75524C36.1432 6.22868 35.8165 5.69365 35.4726 5.13047C35.2752 4.80705 35.0718 4.47406 34.8572 4.12747L27.9918 14.315C29.8903 15.1661 31.6176 16.2621 33.0028 17.8099C35.739 20.8617 36.9435 24.3417 35.5342 28.373C34.6029 31.04 32.7721 32.7036 30.5572 33.8404C30.5597 33.8434 30.5622 33.8463 30.5646 33.8493C31.4417 34.9067 32.2005 36.6605 31.9523 37.9648C31.8977 38.2667 31.7793 38.5539 31.6048 38.8079C31.8034 40.5454 31.0421 42.1314 29.4181 43.3425L29.0162 43.629C27.8791 44.4582 25.7609 46 20.7941 46C20.2125 46 19.5884 45.979 18.9194 45.9325C15.0471 45.5435 7.48457 43.261 3.47044 37.1496L3 36.4346L3.59101 35.8104C3.66493 35.7312 4.5108 34.8451 5.91609 33.8046ZM13.9668 38.57C13.4731 38.7102 12.7252 38.9914 11.9905 39.2676C10.9089 39.6742 9.85592 40.0701 9.68519 39.9895C8.73525 39.5404 8.03753 38.1252 7.50676 37.0486C7.46534 36.9645 7.42494 36.8826 7.38552 36.8033C7.2639 36.8167 7.14708 36.8314 7.03531 36.8473L6.9646 36.3524C7.02231 36.3441 7.08129 36.3362 7.14149 36.3286C6.86388 35.8024 6.59975 35.2698 6.34521 34.7326C5.11808 35.6603 4.38206 36.4285 4.32189 36.4929L4.31717 36.4979L4.27087 36.5468L4.30584 36.5999C8.07904 42.3446 15.2714 44.557 19.0042 44.9359C19.6452 44.9802 20.241 45 20.7941 45C23.171 45 24.8207 44.6316 25.9874 44.1902C27.1501 43.7502 27.8757 43.223 28.427 42.821L28.4357 42.8147L28.8286 42.5347C30.2131 41.4989 30.7622 40.2425 30.6113 38.9214L30.5688 38.5498L30.7806 38.2416C30.8753 38.1038 30.939 37.9488 30.9683 37.7867L30.9699 37.7778C31.0474 37.3703 30.9762 36.8004 30.7413 36.1579C30.5111 35.5286 30.158 34.9254 29.7944 34.4871C29.7375 34.4183 29.6784 34.3505 29.6169 34.2834C27.8203 35.0607 25.8347 35.5595 23.902 36.0036C24.7292 36.5253 25.418 37.0954 25.819 37.471C27.187 37.6416 28.4211 37.8075 29.4353 37.9524L29.3646 38.4473C28.3259 38.2989 27.0555 38.1285 25.6467 37.9534L25.6232 37.9769L25.5928 37.9467C25.4431 37.9281 25.2917 37.9095 25.139 37.8908C24.5054 38.3429 23.6978 38.9372 22.9746 39.5065C22.53 39.8566 22.1203 40.1949 21.8033 40.4837C21.6448 40.6282 21.512 40.7578 21.4107 40.8687C21.3059 40.9833 21.2475 41.0641 21.2236 41.1119L20.7764 40.8883C20.8325 40.7761 20.9299 40.6536 21.0417 40.5313C21.1571 40.4051 21.3019 40.2642 21.4666 40.1141C21.7963 39.8137 22.2166 39.467 22.6653 39.1137C23.2358 38.6645 23.8571 38.2009 24.406 37.8024C22.8389 37.6157 21.1466 37.4294 19.4397 37.2641C18.8403 37.5995 17.9287 38.1335 17.045 38.7005C16.1138 39.2979 15.2353 39.9182 14.7768 40.3768L14.4232 40.0233C14.9247 39.5218 15.8462 38.8755 16.775 38.2796C17.2658 37.9647 17.7648 37.66 18.2155 37.3931C16.7958 37.772 15.3801 38.1669 13.9668 38.57ZM23.0159 36.2052L23.198 36.164C23.8685 36.5459 24.4729 36.9864 24.9327 37.362C23.4816 37.1864 21.91 37.0092 20.3096 36.8477C20.4848 36.8032 20.6602 36.7591 20.8356 36.7152C21.5391 36.5395 22.2707 36.3739 23.0159 36.2052ZM22.3507 29.8037C21.6878 29.9255 21.0238 30.0184 20.5104 29.9923C17.5305 30.029 15.6955 28.6817 15.2228 26.2373C14.5058 22.5343 17.3527 18.3504 21.0756 17.6253C22.3136 17.3852 23.5393 17.3893 24.7608 17.7306C27.1768 18.4066 28.2894 19.8107 28.4007 22.3237C28.5691 26.1438 26.1802 29.094 22.3507 29.8037ZM4.21685 26.8444C4.45169 26.9289 4.69393 27.016 4.88221 26.6397C5.25444 25.8918 5.65166 25.1549 6.04877 24.4183C6.21677 24.1066 6.3851 23.7944 6.55115 23.482C5.00053 22.9911 4.32589 22.2766 4.30705 21.0985C4.2888 20.0463 4.93519 19.1651 5.97894 18.8226C7.04978 18.4707 7.95872 18.9007 8.88474 20.2137L11.578 16.9253C11.5592 16.9019 11.544 16.88 11.5305 16.8605C11.505 16.8238 11.4857 16.7959 11.4603 16.7839C7.83274 15.1143 2.92833 17.1074 1.4719 20.8383C0.498203 23.314 1.70738 26.0666 4.10278 26.8053C4.1404 26.8169 4.17857 26.8306 4.21685 26.8444Z" fill="#324558"/>
</svg>
