<svg width="48" height="48" viewBox="0 0 48 48" fill="none" xmlns="http://www.w3.org/2000/svg">
<path d="M32.7334 14.7111C31.2889 13.3555 28.7556 11.7333 25.0001 11.7333C19.7113 11.7333 15.2224 15.2222 13.6001 20.0444C13.2001 21.2888 12.9556 22.6219 12.9556 23.9997C12.9556 25.3774 13.1999 26.7108 13.6221 27.9553C15.2223 32.7775 19.7113 36.2666 25.0001 36.2666C27.9778 36.2666 30.2446 35.4443 31.9334 34.2666C34.6001 32.4 35.8002 29.6224 36.0224 27.7779H25.0002V20.3557H43.778C44.0668 21.6001 44.2002 22.8001 44.2002 24.4446C44.2002 30.5334 42.0224 35.6668 38.2447 39.1557C34.9335 42.2222 30.4 44 25.0001 44C17.1778 44 10.4223 39.511 7.13342 32.9777C5.77793 30.2666 5 27.2219 5 23.9997C5 20.7775 5.77779 17.733 7.13328 15.0218C10.4222 8.48882 17.178 4 25.0001 4C30.4001 4 34.9113 5.97779 38.3778 9.2L32.7334 14.7111Z" fill="#324558"/>
</svg>
