<svg width="48" height="48" viewBox="0 0 48 48" fill="none" xmlns="http://www.w3.org/2000/svg">
<path d="M14.9564 15.7298C15.1868 15.4475 15.4842 15.2112 15.8493 15.0405C16.2143 14.8698 16.5885 14.7844 16.9726 14.7844C17.5681 14.7844 18.0907 14.9617 18.5424 15.3162C18.9934 15.6708 19.3723 16.1172 19.6802 16.6556C19.9874 17.1939 20.2172 17.7717 20.3709 18.3823C20.5245 18.9994 20.6013 19.564 20.6013 20.0827C20.6013 20.3519 20.5639 20.6867 20.4864 21.0872C20.4096 21.4943 20.208 21.8553 19.8817 22.1836C19.6513 22.4134 19.3585 22.6038 19.0033 22.7614C18.6481 22.9124 18.2883 22.9912 17.9226 22.9912C17.3088 22.9912 16.7757 22.8139 16.3246 22.4594C15.8729 22.1048 15.4987 21.6649 15.2013 21.1463C14.9039 20.6276 14.6833 20.0696 14.5388 19.4787C14.395 18.8812 14.3235 18.3429 14.3235 17.8636C14.3235 17.4828 14.3662 17.1086 14.4528 16.7409C14.5388 16.3732 14.7069 16.0384 14.9564 15.7298Z" fill="#324558"/>
<path d="M18.3835 27.6265C18.3511 27.6265 18.2936 27.6286 18.2113 27.6316C18.1488 27.6339 18.0721 27.6368 17.9811 27.6396C17.7697 27.6527 17.5202 27.6724 17.232 27.6987C16.9438 27.725 16.6365 27.7775 16.3102 27.8431C15.9839 27.9088 15.6674 27.9941 15.3595 28.086C15.2066 28.1451 14.9906 28.237 14.7122 28.3618C14.4332 28.4865 14.1594 28.6638 13.8915 28.8936C13.6223 29.1234 13.3873 29.4123 13.1857 29.7602C12.9835 30.1016 12.8831 30.5349 12.8831 31.0536C12.8831 32.0909 13.3387 32.9379 14.2513 33.5878C15.1632 34.2444 16.3969 34.5661 17.9522 34.5661C19.3342 34.5661 20.386 34.2772 21.1056 33.6929C21.8258 33.102 22.1856 32.3601 22.1856 31.4607C22.1856 31.093 22.1232 30.7647 21.9984 30.4627C21.8737 30.1673 21.6866 29.8718 21.4364 29.5895C21.187 29.3006 20.8607 28.9986 20.4569 28.6901C20.0544 28.3881 19.5837 28.0401 19.046 27.6593C18.9311 27.6396 18.8306 27.6265 18.744 27.6265H18.3835Z" fill="#324558"/>
<path fill-rule="evenodd" clip-rule="evenodd" d="M44 24C44 35.0457 35.0457 44 24 44C12.9543 44 4 35.0457 4 24C4 12.9543 12.9543 4 24 4C35.0457 4 44 12.9543 44 24ZM25.6987 17.6077H31.171V12.2175H32.899V17.6077H38.343V19.3344H32.899V24.8034H31.171V19.3344H25.6987L25.6987 17.6077ZM13.0276 22.3872C13.4307 22.8074 13.929 23.1488 14.5251 23.4114C15.1206 23.6675 15.8014 23.7988 16.5696 23.7988C16.7226 23.7988 16.8768 23.7922 17.0298 23.7856L17.0337 23.7853C17.186 23.7723 17.339 23.7592 17.4907 23.7397C17.4146 23.9104 17.3476 24.0811 17.2898 24.2452C17.232 24.4094 17.2031 24.6129 17.2031 24.8624C17.2031 25.3022 17.2944 25.6765 17.4769 25.9719C17.6588 26.2674 17.8564 26.5497 18.0671 26.8189C17.8506 26.8319 17.6081 26.8508 17.3409 26.8716C17.2056 26.8821 17.0636 26.8932 16.9156 26.9042C16.4737 26.9436 16.0023 27.0158 15.504 27.1077C15.0051 27.2062 14.5008 27.3375 13.992 27.4951C13.4832 27.6592 13.0072 27.8759 12.5667 28.1451C11.7217 28.644 11.1407 29.2284 10.8242 29.8915C10.5071 30.5546 10.3489 31.1389 10.3489 31.6575C10.3489 32.1959 10.473 32.708 10.7231 33.2004C10.9732 33.6928 11.3567 34.1261 11.8753 34.5135C12.3933 34.8943 13.042 35.2029 13.8193 35.4326C14.5967 35.6624 15.504 35.7806 16.5407 35.7806C17.7697 35.7806 18.8589 35.623 19.8096 35.3013C20.7596 34.9862 21.5514 34.5726 22.1856 34.0671C22.8192 33.555 23.2991 32.9772 23.6254 32.3207C23.9517 31.6707 24.1152 31.0076 24.1152 30.3313C24.1152 29.8324 24.0482 29.3925 23.9143 29.0117C23.779 28.6243 23.6018 28.2829 23.3812 27.9744C23.1599 27.6658 22.9006 27.3769 22.6032 27.1077C22.3064 26.8386 22.0038 26.5694 21.6958 26.3002L20.6592 25.4992C20.5055 25.3613 20.3427 25.2038 20.1694 25.0199C19.9967 24.8361 19.9107 24.5866 19.9107 24.2584C19.9107 23.9301 19.9967 23.6609 20.1694 23.4508C20.3427 23.2407 20.5246 23.0372 20.7169 22.8468C21.0242 22.617 21.3216 22.3741 21.6092 22.1115C21.8981 21.8554 22.1567 21.5665 22.3872 21.2514C22.6176 20.9297 22.7995 20.5752 22.9341 20.1681C23.0687 19.7676 23.1356 19.2949 23.1356 18.7566C23.1356 18.2182 23.0588 17.7389 22.9058 17.3187C22.7522 16.892 22.569 16.5243 22.3583 16.2092C22.1469 15.894 21.9263 15.6249 21.6958 15.4016C21.4654 15.1784 21.2638 15.0012 21.0912 14.8698H22.877L24.7199 13.8325H18.7874C18.0002 13.8325 17.1506 13.931 16.238 14.1214C15.3261 14.3118 14.4582 14.7451 13.6322 15.4148C13.0177 15.9531 12.5568 16.5637 12.2496 17.2465C11.9423 17.9293 11.7887 18.6056 11.7887 19.2752C11.7887 19.8333 11.895 20.3848 12.1058 20.9297C12.3165 21.4812 12.6238 21.9605 13.0276 22.3872Z" fill="#324558"/>
</svg>
