<svg width="48" height="48" viewBox="0 0 48 48" fill="none" xmlns="http://www.w3.org/2000/svg">
<path fill-rule="evenodd" clip-rule="evenodd" d="M34.9622 11.198L34.9539 11.1314C28.1191 5.09855 17.6865 5.7491 11.6546 12.583C9.97764 14.4807 8.76065 16.7394 8.09807 19.1836C8.08803 19.2207 8.07678 19.2579 8.0645 19.2951C8.02368 19.3239 7.98301 19.3529 7.94251 19.3821C5.92721 20.8385 4.41729 22.8881 3.6238 25.2445C2.83032 27.6009 2.79291 30.1463 3.51682 32.5251C4.24072 34.9038 5.68976 36.9969 7.6614 38.5118L7.67255 38.5006L7.65967 38.5521C9.73425 40.1177 12.2263 41.0112 14.8253 41L33.2268 40.9997C35.7886 41.0193 38.2887 40.2141 40.3575 38.7031C42.4263 37.1921 43.9541 35.0556 44.715 32.6094C45.4744 30.1624 45.4266 27.536 44.5785 25.1183C43.7304 22.7006 42.127 20.6199 40.0053 19.1836L40.0044 19.1828C39.1601 16.0745 37.4269 13.2802 35.0174 11.1428L34.9622 11.198ZM12.9774 33.1958C13.5695 33.4658 14.1744 33.6561 14.8253 33.6555H23.0492L23.0513 33.6534H33.2268C34.4432 33.6534 35.6098 33.1702 36.4699 32.3101C37.3301 31.4499 37.8133 30.2834 37.8133 29.067C37.8133 27.8506 37.3301 26.684 36.4699 25.8238C35.6098 24.9637 34.4432 24.4805 33.2268 24.4805V23.565C33.2531 22.178 32.9641 20.8031 32.3816 19.5441C31.8294 18.3507 31.0271 17.2909 30.0301 16.4361L29.8375 16.3622C28.0205 14.8915 25.71 14.171 23.3791 14.3481C21.0482 14.5251 18.8732 15.5864 17.2991 17.3147C17.2924 17.3301 17.2857 17.3457 17.279 17.3615C18.2767 17.5642 19.2475 17.8945 20.1671 18.3466C21.8168 19.1578 23.2566 20.3393 24.3742 21.799L19.0518 27.1205C18.6886 26.316 18.1011 25.6335 17.3596 25.1547C16.6181 24.6759 15.7543 24.4212 14.8716 24.4212C13.989 24.4212 13.1251 24.6759 12.3837 25.1547C11.6422 25.6335 11.0546 26.316 10.6915 27.1205C10.4432 27.6694 10.3056 28.262 10.2864 28.8642C10.2672 29.4664 10.3668 30.0664 10.5796 30.6301C10.7924 31.1938 11.1142 31.71 11.5266 32.1493C11.9389 32.5886 12.4338 32.9423 12.9829 33.1903L12.9774 33.1958Z" fill="#324558"/>
</svg>
