<svg width="48" height="48" viewBox="0 0 48 48" fill="none" xmlns="http://www.w3.org/2000/svg">
<path fill-rule="evenodd" clip-rule="evenodd" d="M44.6793 10.5099C43.1226 7.75328 40.335 6.92797 38.3695 6.89026C35.9567 6.84209 33.972 8.15755 34.3489 9.02056C34.4277 9.2049 34.8813 10.1726 35.1581 10.5706C35.5627 11.1488 36.2804 10.7068 36.5338 10.5748C37.2855 10.181 38.0884 10.0511 39.0041 10.158C39.875 10.2564 41.0356 10.7864 41.8129 12.2548C43.6422 15.7152 37.9925 22.8329 30.9225 17.9041C23.8524 12.9732 16.9783 14.6071 13.8649 15.6C10.7515 16.595 9.31831 17.5941 10.5513 19.9025C12.223 23.0445 11.6672 22.081 13.2878 24.6784C15.8645 28.8049 21.4971 22.7785 21.4971 22.7785C17.3019 28.8656 13.703 27.3952 12.321 25.267C11.0773 23.3503 10.1105 21.1383 10.1105 21.1383C-0.522277 24.8271 2.35473 41.1112 2.35473 41.1112H7.63598C8.98185 35.1141 13.7946 35.3361 14.6209 41.1112H18.6478C22.2127 29.4019 31.244 41.1112 31.244 41.1112H36.4955C35.0261 33.1242 39.4513 30.6168 42.2388 25.9331C45.0285 21.2515 47.6691 15.5225 44.6793 10.5078V10.5099ZM31.1313 25.929C28.3544 25.0367 29.3489 22.3199 29.3489 22.3199C29.3489 22.3199 31.7744 23.0907 35.0561 24.1423C34.8644 24.9864 33.2332 26.6035 31.1313 25.929Z" fill="#324558"/>
</svg>
