<svg width="48" height="48" viewBox="0 0 48 48" fill="none" xmlns="http://www.w3.org/2000/svg">
<path d="M35.5669 36.4819C35.0812 35.7883 34.546 35.207 34.035 34.7876C34.7926 34.0754 35.4798 33.28 36.0825 32.4104L34.1255 31.0542C31.8044 34.4034 27.9944 36.4421 23.8377 36.4421C19.6886 36.4421 15.8847 34.4109 13.5621 31.0719L11.6075 32.4315C12.2685 33.3817 13.0307 34.2431 13.8753 35.0038C13.4421 35.3981 13.0002 35.9006 12.5931 36.4819C11.3696 38.2294 10.9234 40.0281 11.5966 40.4996C12.2699 40.9709 13.8075 39.9365 15.0311 38.189C15.4168 37.6382 15.7252 37.0823 15.9457 36.5645C17.9809 37.8367 20.3231 38.6152 22.7946 38.7869C22.6607 39.3666 22.5838 40.045 22.5838 40.7701C22.5838 42.9034 23.25 44.6327 24.0719 44.6327C24.8937 44.6327 25.56 42.9034 25.56 40.7701C25.56 40.0287 25.4795 39.3361 25.34 38.7479C27.7984 38.5008 30.1159 37.6523 32.1141 36.3159C32.3368 36.902 32.6807 37.549 33.1289 38.189C34.3525 39.9365 35.8902 40.9709 36.5634 40.4996C37.2366 40.0281 36.7905 38.2294 35.5669 36.4819Z" fill="#324558"/>
<path d="M36.5703 16.2704C35.8207 15.0363 34.9061 13.9321 33.8621 12.9817C34.4239 12.5564 35.0262 11.9232 35.5671 11.1508C36.7907 9.40332 37.2368 7.60458 36.5636 7.13317C35.8904 6.66179 34.3527 7.69625 33.1291 9.44369C32.6187 10.1726 32.2436 10.9105 32.0285 11.5572C30.0317 10.242 27.7184 9.40871 25.2643 9.17455C25.4501 8.52996 25.5601 7.72965 25.5601 6.86262C25.5601 4.72932 24.8939 3 24.0721 3C23.2502 3 22.584 4.72932 22.584 6.86262C22.584 7.71331 22.6899 8.49976 22.8694 9.13793C20.4078 9.29672 18.0738 10.0574 16.042 11.3059C15.8191 10.7227 15.4767 10.0798 15.0313 9.44369C13.8077 7.69625 12.27 6.66179 11.5968 7.13317C10.9236 7.60458 11.3697 9.40332 12.5933 11.1508C13.0532 11.8076 13.5575 12.3636 14.0435 12.7768C13.0056 13.6834 12.0881 14.7387 11.3243 15.9211L13.3242 17.213C15.6122 13.6713 19.5373 11.4877 23.8378 11.4877C28.2615 11.4877 32.2835 13.799 34.5353 17.5064L36.5703 16.2704Z" fill="#324558"/>
<path d="M6.86669 18.7276H4V29.5609H6.86672V25.2609H10.1V29.5609H12.9667V18.7276H10.1V22.7609H6.86669V18.7276Z" fill="#324558"/>
<path d="M22.3667 18.7275H15.3667V29.5609H22.5333V27.1609H18.2333V25.2275H21.7666V22.8276H18.2333V21.1275H22.3667V18.7275Z" fill="#324558"/>
<path d="M27.5 18.7275H24.6334V29.5609H31.6001V27.1609H27.5V18.7275Z" fill="#324558"/>
<path d="M36.4333 18.7275H33.4666L33.4665 29.5609H36.0999V26.3609C36.0999 26.0831 36.086 25.7775 36.0582 25.4442C36.0304 25.1109 35.9999 24.7692 35.9666 24.4192C35.9332 24.0692 35.8944 23.7275 35.8499 23.3942C35.8054 23.0609 35.7666 22.7609 35.7332 22.4942H35.7999L36.6666 25.0276L38.1666 28.6776H39.2333L40.7332 25.0276L41.6332 22.4942H41.6999C41.6666 22.7609 41.6277 23.0609 41.5833 23.3942C41.5388 23.7276 41.4999 24.0692 41.4666 24.4193C41.4333 24.7692 41.4027 25.1109 41.3749 25.4442C41.3471 25.7776 41.3332 26.0831 41.3332 26.3609V29.5609H43.9999V18.7276H41.0333L39.3999 23.2276L38.7999 24.9942H38.7333L38.1333 23.2276L36.4333 18.7275Z" fill="#324558"/>
</svg>
