<svg width="48" height="48" viewBox="0 0 48 48" fill="none" xmlns="http://www.w3.org/2000/svg">
<path d="M34.7694 16.8775V11.897C35.4273 11.5888 35.9845 11.1 36.3762 10.4872C36.7679 9.87454 36.9782 9.16308 36.9825 8.43546V8.31821C36.9798 7.30107 36.5753 6.32635 35.8576 5.60695C35.1399 4.88755 34.1672 4.48194 33.152 4.47871H33.0349C32.02 4.48194 31.0475 4.88731 30.3299 5.60633C29.6122 6.32535 29.2076 7.29962 29.2044 8.31646V8.43371C29.2076 9.1571 29.4145 9.8649 29.8014 10.4757C30.1882 11.0865 30.7393 11.5755 31.3913 11.8865L31.414 11.897V16.888C29.5133 17.1789 27.7237 17.97 26.228 19.1805L26.2489 19.163L12.5756 8.49671C12.8359 7.51961 12.7499 6.4823 12.3322 5.56162C11.9145 4.64095 11.1911 3.89393 10.2851 3.44792C9.37916 3.00191 8.34685 2.88453 7.36418 3.11579C6.38151 3.34705 5.50933 3.91264 4.89634 4.71612C4.28335 5.51959 3.9675 6.51122 4.00265 7.52191C4.03779 8.53261 4.42176 9.49981 5.08908 10.2586C5.7564 11.0174 6.66576 11.5208 7.66211 11.683C8.65846 11.8451 9.68011 11.6561 10.5529 11.148L10.5319 11.1585L23.9764 21.6427C22.7879 23.428 22.1567 25.5273 22.1633 27.6732C22.1633 30.0235 22.9057 32.2022 24.1668 33.9855L24.1441 33.9505L20.0533 38.0507C19.7258 37.9448 19.3843 37.8888 19.0402 37.8845H19.0367C18.3344 37.8845 17.6478 38.0932 17.0638 38.4841C16.4799 38.875 16.0247 39.4307 15.7559 40.0808C15.4872 40.7308 15.4168 41.4462 15.5539 42.1363C15.6909 42.8265 16.0291 43.4604 16.5257 43.958C17.0223 44.4555 17.6551 44.7944 18.3439 44.9316C19.0328 45.0689 19.7468 44.9985 20.3956 44.7292C21.0445 44.4599 21.5991 44.0039 21.9893 43.4188C22.3795 42.8338 22.5878 42.1459 22.5878 41.4422C22.5831 41.0883 22.5241 40.7371 22.4131 40.401L22.4219 40.4255L26.469 36.3707C27.7881 37.3792 29.3194 38.0729 30.9464 38.3992C32.5735 38.7255 34.2533 38.6758 35.8583 38.2538C37.4632 37.8318 38.9509 37.0486 40.2083 35.9639C41.4657 34.8791 42.4596 33.5214 43.1144 31.9939C43.7692 30.4664 44.0677 28.8094 43.9871 27.149C43.9066 25.4885 43.4492 23.8684 42.6496 22.4117C41.85 20.955 40.7294 19.7002 39.373 18.7428C38.0166 17.7853 36.46 17.1503 34.8218 16.8862L34.7589 16.8775H34.7694ZM33.0856 33.289C31.9788 33.2859 30.8977 32.9542 29.9789 32.3359C29.0601 31.7176 28.3447 30.8404 27.9233 29.815C27.5018 28.7897 27.393 27.6622 27.6107 26.5749C27.8284 25.4877 28.3628 24.4895 29.1464 23.7063C29.9301 22.9232 30.9278 22.3903 32.0135 22.1749C33.0992 21.9595 34.2243 22.0712 35.2467 22.4961C36.2691 22.9209 37.1429 23.6398 37.7578 24.5618C38.3726 25.4839 38.7009 26.5678 38.7013 27.6767V27.6802C38.7015 28.4173 38.5568 29.1472 38.2754 29.8282C37.9939 30.5092 37.5813 31.128 37.0611 31.6492C36.5409 32.1704 35.9233 32.5838 35.2435 32.8657C34.5638 33.1477 33.8353 33.2927 33.0996 33.2925L33.0856 33.289Z" fill="#324558"/>
</svg>
