<svg width="48" height="48" viewBox="0 0 48 48" fill="none" xmlns="http://www.w3.org/2000/svg">
<path d="M24 6C28.8906 6 29.5008 6.018 31.4196 6.108C33.3366 6.198 34.6416 6.4986 35.79 6.945C36.978 7.4022 37.9788 8.0214 38.9796 9.0204C39.8949 9.92021 40.6031 11.0087 41.055 12.21C41.4996 13.3566 41.802 14.6634 41.892 16.5804C41.9766 18.4992 42 19.1094 42 24C42 28.8906 41.982 29.5008 41.892 31.4196C41.802 33.3366 41.4996 34.6416 41.055 35.79C40.6044 36.992 39.896 38.0807 38.9796 38.9796C38.0795 39.8946 36.9912 40.6028 35.79 41.055C34.6434 41.4996 33.3366 41.802 31.4196 41.892C29.5008 41.9766 28.8906 42 24 42C19.1094 42 18.4992 41.982 16.5804 41.892C14.6634 41.802 13.3584 41.4996 12.21 41.055C11.0082 40.6041 9.91955 39.8957 9.0204 38.9796C8.10493 38.0799 7.39668 36.9914 6.945 35.79C6.4986 34.6434 6.198 33.3366 6.108 31.4196C6.0234 29.5008 6 28.8906 6 24C6 19.1094 6.018 18.4992 6.108 16.5804C6.198 14.6616 6.4986 13.3584 6.945 12.21C7.39543 11.0079 8.10385 9.91918 9.0204 9.0204C9.91981 8.10462 11.0084 7.39631 12.21 6.945C13.3584 6.4986 14.6616 6.198 16.5804 6.108C18.4992 6.0234 19.1094 6 24 6ZM24 15C21.6131 15 19.3239 15.9482 17.636 17.636C15.9482 19.3239 15 21.6131 15 24C15 26.3869 15.9482 28.6761 17.636 30.364C19.3239 32.0518 21.6131 33 24 33C26.3869 33 28.6761 32.0518 30.364 30.364C32.0518 28.6761 33 26.3869 33 24C33 21.6131 32.0518 19.3239 30.364 17.636C28.6761 15.9482 26.3869 15 24 15ZM35.7 14.55C35.7 13.9533 35.4629 13.381 35.041 12.959C34.619 12.5371 34.0467 12.3 33.45 12.3C32.8533 12.3 32.281 12.5371 31.859 12.959C31.437 13.381 31.2 13.9533 31.2 14.55C31.2 15.1467 31.437 15.719 31.859 16.141C32.281 16.5629 32.8533 16.8 33.45 16.8C34.0467 16.8 34.619 16.5629 35.041 16.141C35.4629 15.719 35.7 15.1467 35.7 14.55ZM24 18.6C25.4322 18.6 26.8057 19.1689 27.8184 20.1816C28.8311 21.1943 29.4 22.5678 29.4 24C29.4 25.4322 28.8311 26.8057 27.8184 27.8184C26.8057 28.8311 25.4322 29.4 24 29.4C22.5678 29.4 21.1943 28.8311 20.1816 27.8184C19.1689 26.8057 18.6 25.4322 18.6 24C18.6 22.5678 19.1689 21.1943 20.1816 20.1816C21.1943 19.1689 22.5678 18.6 24 18.6Z" fill="#324558"/>
</svg>
