<svg width="48" height="48" viewBox="0 0 48 48" fill="none" xmlns="http://www.w3.org/2000/svg">
<g clip-path="url(#clip0_29_334)">
<path d="M14.1407 21.6V29.3535H11.6747V19.608L16.7687 19.6125C18.9287 19.6125 19.6667 21.141 19.6667 22.524V29.3535H17.2067V22.5375C17.2067 21.9555 16.9082 21.6 16.1807 21.6H14.1407ZM30.9182 21.4845C30.0737 21.4845 29.4227 21.9165 29.1482 22.5045C28.9944 22.837 28.9141 23.1987 28.9127 23.565H32.7092C32.6627 22.5045 32.1827 21.4845 30.9197 21.4845H30.9182ZM28.9127 25.2435C28.9127 26.502 29.6987 27.4335 31.1012 27.4335C32.1887 27.4335 32.7317 27.1335 33.3632 26.502L34.8872 27.96C33.9137 28.9215 32.8847 29.5065 31.0832 29.5065C28.7237 29.5065 26.4632 28.221 26.4632 24.4665C26.4632 21.2565 28.4327 19.443 31.0247 19.443C33.6542 19.443 35.1752 21.5685 35.1752 24.3525V25.239L28.9127 25.245V25.2435ZM24.3767 29.3385C22.3682 29.3385 21.5132 27.9405 21.5132 26.556V16.956H23.9777V19.6095H25.8332V21.6015H23.9747V26.4015C23.9747 26.97 24.2447 27.282 24.8327 27.282H25.8332V29.3355H24.3767V29.3385ZM9.47872 18.2625H6.99472V15.903H9.47872V18.2625ZM9.48472 29.4525C7.62472 29.277 6.99322 28.1505 6.99322 26.8425V19.6125H9.48172V29.46L9.48622 29.4525H9.48472ZM39.0947 29.244C37.2362 29.064 36.6092 27.9405 36.6092 26.6385V15.5685H39.0947V29.244ZM47.7887 17.1675C45.5387 6.18153 24.2042 5.48553 10.4612 13.854V14.778C24.1907 7.72203 43.6697 7.76253 45.4427 17.8785C46.0352 21.228 44.1512 24.714 40.7852 26.7225V29.3445C44.8352 27.861 48.9947 23.0505 47.7887 17.169V17.1675ZM22.7957 36.3885C13.3112 37.2645 3.42322 35.886 2.04172 28.4745C1.36822 24.8205 3.03622 20.9445 5.23822 18.54V17.2545C1.26472 20.7405 -0.89228 25.155 0.34972 30.369C1.93372 37.059 10.4192 40.8465 23.3672 39.5865C28.4927 39.0885 35.1992 37.4385 39.8612 34.878V31.2465C35.6297 33.768 28.6277 35.85 22.7957 36.3885Z" fill="#324558"/>
</g>
<defs>
<clipPath id="clip0_29_334">
<rect width="48" height="48" fill="white"/>
</clipPath>
</defs>
</svg>
