<svg width="48" height="48" viewBox="0 0 48 48" fill="none" xmlns="http://www.w3.org/2000/svg">
<path d="M8 6H40C40.5304 6 41.0391 6.21071 41.4142 6.58579C41.7893 6.96086 42 7.46957 42 8V40C42 40.5304 41.7893 41.0391 41.4142 41.4142C41.0391 41.7893 40.5304 42 40 42H8C7.46957 42 6.96086 41.7893 6.58579 41.4142C6.21071 41.0391 6 40.5304 6 40V8C6 7.46957 6.21071 6.96086 6.58579 6.58579C6.96086 6.21071 7.46957 6 8 6ZM13.976 28.13C13.856 28.664 13.796 29.24 13.796 29.71C13.796 31.564 14.76 32.794 16.812 32.794C18.514 32.794 19.894 31.742 20.888 30.044L20.282 32.578H23.662L25.594 24.516C26.076 22.476 27.014 21.416 28.432 21.416C29.548 21.416 30.242 22.136 30.242 23.33C30.242 23.676 30.212 24.052 30.092 24.46L29.096 28.166C28.9536 28.6771 28.8823 29.2054 28.884 29.736C28.884 31.496 29.88 32.782 31.964 32.782C33.744 32.782 35.164 31.59 35.948 28.732L34.62 28.198C33.956 30.114 33.38 30.458 32.928 30.458C32.476 30.458 32.234 30.146 32.234 29.518C32.234 29.236 32.294 28.922 32.386 28.544L33.352 24.934C33.592 24.086 33.684 23.334 33.684 22.644C33.684 19.944 32.114 18.534 30.212 18.534C28.432 18.534 26.62 20.204 25.716 21.964L26.378 18.806H21.218L20.492 21.586H22.908L21.42 27.782C20.254 30.482 18.108 30.526 17.84 30.462C17.396 30.36 17.114 30.184 17.114 29.586C17.114 29.242 17.174 28.746 17.326 28.15L19.59 18.806H13.854L13.13 21.586H15.514L13.974 28.13H13.976ZM17.25 17.25C17.8467 17.25 18.419 17.0129 18.841 16.591C19.2629 16.169 19.5 15.5967 19.5 15C19.5 14.4033 19.2629 13.831 18.841 13.409C18.419 12.9871 17.8467 12.75 17.25 12.75C16.6533 12.75 16.081 12.9871 15.659 13.409C15.2371 13.831 15 14.4033 15 15C15 15.5967 15.2371 16.169 15.659 16.591C16.081 17.0129 16.6533 17.25 17.25 17.25Z" fill="#324558"/>
</svg>
