<svg width="48" height="48" viewBox="0 0 48 48" fill="none" xmlns="http://www.w3.org/2000/svg">
<path d="M40.3861 32.3867C40.6516 33.0736 40.7631 33.9543 40.4501 34.6864C40.3455 34.9314 40.1933 35.1597 39.9833 35.3586C39.3036 36.0025 38.8924 36.1377 38.6669 36.1377C38.2142 36.1376 37.8858 35.5143 37.6893 34.2841C37.6761 34.2017 37.6635 34.1166 37.6515 34.0287C37.4849 32.8069 36.9289 32.2219 36.5225 31.7947C36.1671 31.4208 35.9992 31.2241 36.0631 30.8399C36.1556 30.2862 36.824 30.1699 37.3689 30.1699C37.6271 30.1699 37.821 30.1988 37.821 30.1988L37.8567 30.2019C38.8568 30.2228 39.8969 31.1212 40.3861 32.3867Z" fill="#324558"/>
<path d="M11.5827 11.9855C11.5411 12.2567 11.5602 13.1775 11.5945 14.1056C11.4083 13.8574 11.2193 13.6417 11.0273 13.4628C11.0089 12.7701 11.0064 12.1463 11.0442 11.9002C11.1157 11.435 12.2511 10.1079 13.3072 9.09381C14.1936 8.24261 15.8936 6.77117 17.3192 6.48027C17.54 6.43523 17.8001 6.41241 18.0927 6.41241C20.8011 6.41241 26.2883 8.44693 26.5604 8.71888C26.5668 8.72518 26.5729 8.73182 26.5786 8.73877C26.6457 8.07383 26.7113 7.15015 26.592 6.89169C26.592 6.89169 27.1051 7.05202 27.2011 7.37269C27.2011 7.37269 28.4838 6.09013 28.3554 4.48696C28.3554 4.48696 28.6441 4.48696 28.6761 4.99994C28.6761 4.99994 29.606 2.81964 30.2794 3.01202C30.9527 3.2044 30.0548 6.25046 29.5738 6.82759C29.5738 6.82759 30.3433 6.63522 30.4395 6.12217C30.4395 6.12217 30.5357 6.57107 30.4075 6.82759C30.4075 6.82759 32.1389 5.41681 32.075 4.87172C32.075 4.87172 32.2993 5.41681 32.2351 5.8336C32.2351 5.8336 33.678 4.67934 33.678 4.19839C33.678 4.19839 33.9023 6.98787 31.1131 8.01391C31.1131 8.01391 31.8504 7.91772 32.2031 7.85363C32.2031 7.85363 31.9046 8.24711 31.4354 8.81775C31.1595 8.64708 30.8305 8.55878 30.4555 8.55878C29.3435 8.55878 28.3209 9.40548 27.411 11.0771C27.5479 10.3522 27.3637 9.75664 27.0931 9.69711C27.0778 9.69377 27.0622 9.69209 27.0465 9.69211C26.7684 9.69211 26.364 10.1763 26.2054 10.8971C26.0382 11.6588 26.227 12.2969 26.5078 12.3587C26.6126 12.3817 26.7399 12.3261 26.8668 12.2078C26.5968 12.8373 26.394 13.4223 26.2619 13.8368C19.3269 16.9582 14.9118 16.8896 12.9078 16.5761C12.7632 16.2039 12.4973 15.5732 12.1338 14.9348C12.0339 14.7591 11.9328 14.5944 11.8308 14.44C16.6709 15.7464 23.1172 13.3091 25.7034 12.1815C25.575 11.8041 25.5561 11.3114 25.6729 10.7801C25.7873 10.2591 26.0144 9.81779 26.293 9.52539C26.2392 9.32562 26.1948 9.17967 26.1641 9.10559C25.5681 8.78792 20.6549 6.95777 18.0927 6.95777C17.8368 6.95777 17.613 6.97687 17.4282 7.01458C15.1572 7.47804 11.7066 11.4259 11.5827 11.9855Z" fill="#324558"/>
<path d="M14.0962 41.2098C14.5668 41.009 14.9487 40.8461 15.1721 40.795C15.7841 40.6551 18.6345 40.7251 18.7218 41.2322C18.7941 41.6511 15.5657 42.0284 13.8352 42.2307C13.4709 42.2732 13.1729 42.3081 12.9862 42.3339C11.9108 42.4825 11.867 42.7885 11.867 42.7885C11.8669 42.7902 11.8665 42.7927 11.866 42.7959C11.8579 42.8447 11.8225 43.059 12.479 43.0508C13.4607 43.0386 14.1403 43.2432 13.7382 43.7153C13.3359 44.1875 8.84185 44.065 7.91506 43.7153C6.98826 43.3656 7.35548 43.0159 7.82753 42.841C8.11275 42.7353 8.71725 42.6361 9.49438 42.5085C10.0033 42.4249 10.5869 42.3291 11.2026 42.2115C12.1908 42.0227 13.2777 41.559 14.0962 41.2098Z" fill="#324558"/>
<path d="M21.9708 31.7621C21.9392 31.6779 21.9124 31.5952 21.8896 31.5187C21.8114 31.256 21.7563 30.9816 21.721 30.7742C21.627 30.8066 21.5341 30.8424 21.4427 30.8815C21.1271 31.0317 20.8405 31.209 20.5844 31.3694L20.5691 31.3789C20.6381 31.6987 20.8511 32.3896 21.4036 32.3896C21.4733 32.3896 21.5483 32.3787 21.6292 32.3546C21.8854 32.2782 21.9694 32.0393 21.9708 31.7621Z" fill="#324558"/>
<path d="M22.7303 30.6034C22.565 30.6034 22.4444 30.6082 22.3721 30.6177C22.3242 30.6241 22.2765 30.6316 22.229 30.6402C22.2605 30.8326 22.3134 31.1092 22.3909 31.3694C22.488 31.6955 22.6234 31.9939 22.8028 32.0612C22.8546 32.0806 22.9467 32.0995 23.0527 32.0995C23.3327 32.0995 23.7101 31.9682 23.7024 31.3694C23.7021 31.3374 23.7008 31.3055 23.6984 31.2736C23.6767 30.9835 23.6573 30.774 23.6408 30.6218C23.5458 30.6196 23.4508 30.6173 23.3559 30.6149C23.1272 30.609 22.9103 30.6034 22.7303 30.6034Z" fill="#324558"/>
<path d="M21.995 29.3734C23.6829 29.1246 23.7853 27.9253 23.7853 27.9253C25.6075 27.9407 26.3447 28.4631 26.3961 28.7712C26.4424 29.0491 26.4424 29.6051 25.7166 29.9294C25.3955 30.0728 24.8139 30.1064 24.2105 30.1064C23.9266 30.1064 23.638 30.0989 23.3694 30.092C23.1357 30.086 22.9172 30.0804 22.7304 30.0804C22.5565 30.0804 22.4099 30.0853 22.3038 30.0992C21.3822 30.2205 20.6415 30.6846 20.0818 31.0353C19.9287 31.1312 19.7892 31.2186 19.6632 31.2883C19.5152 31.3701 19.3259 31.4106 19.1275 31.4106C18.5396 31.4106 17.8722 31.0545 17.9646 30.3617C18.0881 29.4352 19.7057 28.8888 19.7057 28.8888C19.9135 29.1455 20.2668 29.441 21.1649 29.441C21.4014 29.441 21.6757 29.4205 21.995 29.3734Z" fill="#324558"/>
<path fill-rule="evenodd" clip-rule="evenodd" d="M15.3376 21.6407C14.4164 21.6407 13.5767 21.9908 12.9446 22.5653C12.9025 22.6036 12.8613 22.6429 12.8211 22.6832C12.1769 23.3272 11.7786 24.217 11.7786 25.1998C11.7786 25.5683 11.8346 25.9238 11.9385 26.2582C11.9732 26.3696 12.0134 26.4787 12.0583 26.5852C12.1032 26.6912 12.1532 26.7951 12.2082 26.8963C12.2904 27.0476 12.3831 27.1922 12.4857 27.3292C13.1348 28.1971 14.1704 28.7588 15.3376 28.7588C17.3031 28.7588 18.8968 27.1654 18.8968 25.1998C18.8968 23.2342 17.3031 21.6407 15.3376 21.6407ZM15.017 27.5725C14.7072 27.5725 14.4266 27.4469 14.2235 27.2438C14.1836 27.2039 14.1478 27.1602 14.114 27.1147C14.0919 27.0846 14.0713 27.0535 14.0523 27.0215C14.0132 26.9555 13.9805 26.8854 13.9554 26.8116C13.9492 26.7933 13.9434 26.7749 13.9381 26.7563C13.9105 26.6589 13.8948 26.5565 13.8948 26.4503C13.8948 25.8305 14.3973 25.328 15.017 25.328C15.5206 25.328 15.9467 25.6597 16.0889 26.1165C16.1224 26.2246 16.1394 26.3371 16.1393 26.4503C16.1393 27.07 15.6368 27.5725 15.017 27.5725Z" fill="#324558"/>
<path fill-rule="evenodd" clip-rule="evenodd" d="M27.5912 19.2916C27.3704 19.2108 27.142 19.1522 26.9096 19.1167C26.7302 19.0893 26.549 19.0756 26.3676 19.0757C25.569 19.0757 24.8319 19.3386 24.2381 19.7827C23.9639 19.9878 23.7205 20.2311 23.5154 20.5053C23.4127 20.6428 23.3199 20.7875 23.238 20.9383C23.1833 21.0391 23.1331 21.1429 23.0883 21.2494C23.043 21.3563 23.003 21.4655 22.9685 21.5764C22.8646 21.9107 22.8084 22.2661 22.8084 22.6347C22.8084 23.0647 22.8848 23.4768 23.0245 23.8584C23.0443 23.9129 23.0655 23.9668 23.0883 24.02C23.1778 24.2317 23.2876 24.4342 23.4164 24.6246C23.4481 24.6719 23.4815 24.7185 23.5154 24.7641C23.5838 24.8553 23.6563 24.9433 23.7329 25.0277C23.848 25.1541 23.9717 25.2723 24.1037 25.3811C24.7188 25.8888 25.5074 26.1938 26.3676 26.1938C28.3331 26.1938 29.9266 24.6003 29.9266 22.6347C29.9266 21.099 28.954 19.7906 27.5912 19.2916ZM26.3234 24.8551C26.1892 24.9119 26.0415 24.9433 25.8866 24.9433C25.7705 24.9433 25.6583 24.9256 25.5528 24.8929C25.4212 24.8519 25.3004 24.7866 25.1946 24.7033C25.1591 24.6755 25.1249 24.6464 25.0929 24.6146C25.0676 24.5892 25.0436 24.5626 25.0205 24.5349C24.9836 24.4899 24.9507 24.4414 24.921 24.391C24.8956 24.3481 24.8721 24.3042 24.8525 24.2579C24.8277 24.1994 24.8088 24.1379 24.7943 24.0749C24.7752 23.9932 24.7644 23.9085 24.7644 23.8211C24.7644 23.7823 24.7663 23.7441 24.7701 23.7063C24.7739 23.6689 24.7796 23.6317 24.7872 23.5949C24.8694 23.1931 25.1662 22.8695 25.5527 22.7493C25.6583 22.7165 25.7705 22.6988 25.8866 22.6988C26.0415 22.6988 26.1892 22.7303 26.3234 22.787C26.3901 22.8153 26.4539 22.8499 26.514 22.8905C26.544 22.9106 26.5726 22.9322 26.6004 22.9551C26.8499 23.1609 27.0087 23.4725 27.0087 23.8211C27.0087 24.2859 26.7261 24.6848 26.3234 24.8551Z" fill="#324558"/>
<path fill-rule="evenodd" clip-rule="evenodd" d="M36.1279 32.171C36.5219 32.5855 36.9685 33.0554 37.1112 34.1023C37.1155 34.1338 37.1226 34.1755 37.1314 34.2246C37.2232 34.732 37.5431 36.1048 37.751 36.8899C34.5026 37.2558 29.8984 37.4842 24.7917 37.4842C20.4728 37.4842 16.513 37.3208 13.4289 37.0492C13.1641 36.4402 12.7332 35.4332 12.2494 34.2456C11.2119 31.6997 9.93282 28.3236 9.53429 26.258C9.16597 24.3501 8.72879 22.0404 9.73467 19.9581C9.53073 19.9414 9.33902 19.9233 9.1593 19.904C6.76902 19.6476 6.45024 19.1818 6.32007 18.9913C6.18434 18.7927 6.16012 18.5659 6.25009 18.3354C6.45868 17.8011 7.18021 17.3181 8.01903 16.918C8.09478 17.0885 8.17521 17.2538 8.25718 17.4114C7.49699 17.77 6.9032 18.1621 6.75814 18.5336C6.73081 18.604 6.74192 18.6419 6.77035 18.6836C6.88965 18.8583 7.57475 19.3787 11.4525 19.5065C11.0185 19.427 10.6608 19.0885 10.5775 18.6296C10.5331 18.3864 10.5744 18.1479 10.6779 17.9431C10.3269 18.133 9.96502 18.3472 9.63026 18.5788C9.63026 18.5788 6.74459 14.7793 8.81275 13.5288C9.05046 13.385 9.28304 13.3213 9.50763 13.3213C11.2357 13.3208 12.5162 17.0878 12.5162 17.0878C12.5162 17.0878 12.2685 17.1827 11.8928 17.349C12.356 17.3923 13.2583 17.5978 15.0888 18.337C16.9504 19.0888 17.6979 19.1423 17.9016 19.1392C18.2759 18.9551 18.7391 18.9953 19.0803 19.2787C19.1006 19.2955 19.1192 19.3133 19.1378 19.3312L19.1425 19.3357C19.4878 19.3115 19.7617 19.2886 19.9423 19.2696C20.0251 19.2608 20.1395 19.2387 20.2799 19.2053C20.245 18.8124 20.4243 18.4141 20.7802 18.1877C21.1896 17.9272 21.7068 17.9738 22.0615 18.2675C22.0993 18.2569 22.1508 18.2391 22.2166 18.2094C22.6869 17.9713 24.3603 16.1808 25.625 14.6593C25.8933 14.3363 26.3087 14.2084 26.6928 14.2906C27.034 13.1497 28.39 9.104 30.4555 9.104C32.8605 9.104 31.4656 13.8654 31.225 14.2021C31.225 14.2021 30.6706 14.1567 29.9053 14.1567C29.0605 14.1567 27.9595 14.2127 27.0636 14.4459C27.0969 14.4679 27.1296 14.4915 27.1609 14.5176C27.6241 14.9026 27.6876 15.5902 27.3026 16.0534C27.1018 16.295 26.8359 16.6107 26.5322 16.9605C27.1658 16.7012 27.8147 16.4285 28.4655 16.1463C29.5632 15.6704 30.575 15.2069 31.4743 14.7696L31.489 14.7707L31.4981 14.758C32.2713 14.3815 32.9613 14.0243 33.5469 13.696C35.5831 12.5543 35.8361 12.0544 35.8652 11.9284C35.8842 11.8465 35.8642 11.8207 35.8556 11.8097C35.8334 11.7819 35.6902 11.6429 35.0473 11.6429C34.3444 11.6429 33.3605 11.8036 32.3338 12.0264C32.358 11.8285 32.374 11.6391 32.3829 11.4569C33.383 11.2464 34.3397 11.0975 35.0473 11.0975C35.6875 11.0975 36.08 11.2159 36.2822 11.47C36.3699 11.5804 36.4612 11.771 36.3966 12.051C36.3202 12.3826 35.969 12.9631 33.8137 14.1717C33.6078 14.2871 33.3881 14.4064 33.1582 14.5282C32.9856 14.6197 32.8124 14.7098 32.6386 14.7987C33.6136 15.6185 34.3406 16.8516 34.8003 18.6269C35.7208 22.1817 36.4368 26.3486 36.9253 29.6514C36.1209 29.7505 35.6284 30.1313 35.5253 30.7502C35.4138 31.4197 35.7609 31.7849 36.1279 32.171ZM28.6764 12.5695C28.6761 12.5814 28.6759 12.5922 28.6755 12.6019C28.6748 12.6417 28.6761 12.6631 28.6761 12.6631C28.6761 12.6631 28.7166 12.5895 28.7877 12.4607L28.8459 12.3556C28.9094 12.2412 28.9883 12.1005 29.08 11.9445C29.1724 11.7895 29.2784 11.6174 29.4008 11.4505C29.4417 11.3949 29.4843 11.3398 29.529 11.2861C29.5513 11.2596 29.5742 11.2335 29.5976 11.2079C29.6445 11.1569 29.6931 11.1088 29.7436 11.0652C29.7683 11.0437 29.7939 11.0232 29.8202 11.0037C29.8456 10.9852 29.8719 10.9678 29.8988 10.9515C29.9779 10.9041 30.0579 10.8717 30.1376 10.8588C30.1645 10.8555 30.1912 10.853 30.2183 10.8507C30.2296 10.8519 30.2408 10.8521 30.2523 10.8523C30.2687 10.8525 30.2854 10.8528 30.3034 10.8561C30.3049 10.8562 30.3065 10.8564 30.308 10.8567C30.3176 10.8587 30.3271 10.8601 30.3367 10.8614C30.3529 10.8638 30.3692 10.8661 30.386 10.8715L30.4398 10.886L30.4542 10.8899L30.4757 10.8998L30.4771 10.9013C30.4778 10.9021 30.4785 10.9029 30.4795 10.9034L30.4809 10.9038C30.4842 10.9059 30.4873 10.911 30.4902 10.9178C30.5006 10.9363 30.5088 10.968 30.5148 11.0049C30.5174 11.0211 30.5195 11.0373 30.5211 11.0536C30.5277 11.1723 30.5133 11.3094 30.4911 11.4391C30.4695 11.5696 30.442 11.6962 30.4144 11.8135C30.377 11.9719 30.3407 12.1145 30.3102 12.2339C30.2955 12.2916 30.2821 12.3443 30.2707 12.3904C30.2345 12.5317 30.2152 12.615 30.2152 12.615C30.2152 12.615 30.276 12.5548 30.368 12.4387C30.4604 12.323 30.585 12.1522 30.709 11.9281C30.7705 11.8159 30.8323 11.6904 30.8867 11.5491C30.9134 11.4781 30.9391 11.4036 30.96 11.3231C30.9809 11.2425 30.9969 11.156 31.0047 11.0612C31.0102 10.9703 31.0069 10.8692 30.9718 10.7549C30.9698 10.7484 30.9689 10.7424 30.9667 10.736L30.9652 10.7317L30.9618 10.7227L30.9602 10.7188C30.9514 10.694 30.9411 10.669 30.9258 10.6433L30.8994 10.5969L30.8641 10.5523C30.831 10.4993 30.7008 10.4174 30.6906 10.4166L30.6834 10.4128L30.6772 10.4095L30.6741 10.4078L30.6706 10.4059L30.645 10.3948L30.6428 10.3941L30.6384 10.3925L30.6257 10.388L30.6021 10.3797L30.5544 10.3633L30.5295 10.3548C30.495 10.342 30.4571 10.3352 30.4193 10.3284C30.4045 10.3257 30.3897 10.3231 30.3751 10.32C30.3374 10.3133 30.2978 10.3116 30.2583 10.3099C30.2432 10.3092 30.228 10.3086 30.2129 10.3077C30.1583 10.3095 30.1028 10.3133 30.0486 10.321C29.9664 10.3355 29.8882 10.3594 29.8144 10.3903C29.766 10.4106 29.7189 10.4342 29.6736 10.4607C29.6086 10.4987 29.5472 10.5424 29.4901 10.5914C29.3408 10.717 29.2288 10.861 29.1382 11.0037C28.9578 11.2908 28.8565 11.577 28.7894 11.824C28.7237 12.0715 28.6957 12.2819 28.6841 12.4298C28.6784 12.4853 28.6773 12.5327 28.6764 12.5695ZM21.2336 18.8149C21.2197 18.8213 21.2062 18.8286 21.1934 18.8369C21.0999 18.8964 21.0477 18.9963 21.0446 19.0993C21.0435 19.1412 21.0505 19.1829 21.0654 19.2221C21.0732 19.2423 21.0829 19.2617 21.0945 19.28C21.1121 19.3078 21.1912 19.422 21.3513 19.5239C21.3795 19.5418 21.4085 19.5583 21.4382 19.5735C21.4711 19.5901 21.5048 19.605 21.5393 19.6182C21.6057 19.6435 21.6757 19.6626 21.7487 19.6754C21.8216 19.6882 21.8976 19.6946 21.9762 19.6946C22.1024 19.6946 22.2344 19.678 22.3714 19.645C22.4741 19.6202 22.5796 19.5862 22.6875 19.543C22.724 19.5284 22.7601 19.513 22.7959 19.4969C22.8546 19.4705 22.9212 19.433 22.9954 19.385C23.1189 19.3049 23.2629 19.1957 23.4251 19.0599C23.4899 19.0055 23.5577 18.9469 23.6281 18.8843C23.6985 18.8216 23.7716 18.7548 23.8474 18.6842C23.886 18.648 23.9244 18.6117 23.9627 18.5752C24.3927 18.1653 24.8972 17.6397 25.4475 17.0267C25.8478 16.5809 26.2725 16.0889 26.7106 15.5617C26.8239 15.4255 26.8052 15.2226 26.6691 15.1095C26.5953 15.0481 26.5169 15.0353 26.4642 15.0353C26.3683 15.0353 26.2781 15.0775 26.2168 15.1512C25.5783 15.9193 23.9613 17.7817 23.0123 18.5774C22.8364 18.7248 22.6835 18.8355 22.564 18.896L22.5485 18.904L22.5325 18.9112C22.4407 18.9524 22.3523 18.9851 22.2695 19.0084L21.8811 19.1174L21.5706 18.8601C21.5419 18.8365 21.5094 18.818 21.4744 18.8056C21.4392 18.793 21.4021 18.7866 21.3647 18.7866C21.3187 18.7866 21.2747 18.7961 21.2336 18.8149ZM24.2105 30.6295C25.0666 30.6295 25.5809 30.5629 25.93 30.407C26.6695 30.0765 27.0366 29.4329 26.912 28.6853C26.8498 28.3125 26.5091 27.9819 25.9526 27.7545C25.3993 27.5283 24.6716 27.4099 23.7898 27.4024L23.4026 27.3991C23.3999 27.394 23.3966 27.389 23.3933 27.3841L23.3874 27.3749L23.3813 27.3649C23.3752 27.3548 23.369 27.3447 23.3622 27.3349C23.3558 27.3257 23.3491 27.3166 23.3423 27.3078C23.3392 27.3036 23.3359 27.2996 23.3325 27.2956L23.3202 27.2809C23.2986 27.2552 23.2753 27.2306 23.2507 27.2077C23.2308 27.1892 23.2101 27.1715 23.1887 27.1548L23.186 27.1526C23.0782 27.0686 22.9443 26.9988 22.7901 26.9453C22.7828 26.9428 22.7756 26.9401 22.7682 26.9377C22.7435 26.9294 22.7182 26.9217 22.6925 26.9143L22.67 26.908L22.6581 26.9048C22.6339 26.8983 22.6094 26.892 22.5844 26.8863L22.5673 26.8825L22.552 26.8793L22.5414 26.8771L22.5313 26.875C22.5108 26.8707 22.4903 26.8664 22.4692 26.8627C22.4551 26.8602 22.4407 26.858 22.4263 26.8559L22.4106 26.8536C22.3755 26.8483 22.3404 26.8437 22.3051 26.8398L22.2987 26.8392C22.275 26.8366 22.2514 26.834 22.2272 26.8321C22.2136 26.831 22.1999 26.8303 22.1861 26.8295L22.1712 26.8286C22.1452 26.8271 22.1191 26.8257 22.0926 26.8249C22.0738 26.8244 22.055 26.824 22.0361 26.8238C22.0082 26.8235 21.9804 26.8236 21.9525 26.824C21.9344 26.8243 21.9163 26.8247 21.8982 26.8253C21.867 26.8263 21.8355 26.8281 21.8038 26.8301L21.792 26.8308C21.7805 26.8315 21.769 26.8321 21.7574 26.8331C21.71 26.8368 21.6623 26.8414 21.6141 26.8474C21.5696 26.8529 21.5249 26.8591 21.4798 26.8666C21.4381 26.8735 21.397 26.8814 21.3563 26.8898L21.3258 26.8962C21.2858 26.9048 21.2462 26.9138 21.2068 26.9239C21.1671 26.934 21.1273 26.9452 21.0887 26.9567L21.0617 26.9649C21.0238 26.9765 20.9858 26.9887 20.9491 27.0015C20.9116 27.0147 20.875 27.0286 20.8389 27.0429L20.8161 27.0521C20.7445 27.0813 20.6757 27.1127 20.6102 27.1461L20.5909 27.1561C20.5587 27.1729 20.5269 27.1901 20.4962 27.2079C20.4694 27.2235 20.4429 27.2396 20.4168 27.2563L20.4028 27.2655C20.3829 27.2784 20.3631 27.2917 20.3436 27.3054C20.3194 27.3224 20.2954 27.34 20.2719 27.3581L20.2554 27.3709C20.2113 27.4058 20.1701 27.4417 20.132 27.4786L20.1197 27.4909C20.1054 27.505 20.0915 27.5194 20.0778 27.5341L20.0627 27.5508C20.0504 27.5646 20.0384 27.5786 20.0267 27.5929C20.0225 27.5981 20.0181 27.6033 20.014 27.6085C19.9991 27.6273 19.9848 27.6463 19.9716 27.6655C19.9583 27.6848 19.9452 27.7052 19.9333 27.7254L19.9285 27.7338L19.9244 27.7412C19.9162 27.7556 19.9084 27.7702 19.901 27.785C19.8909 27.8054 19.8816 27.8263 19.8733 27.8475L19.8707 27.8538L19.8662 27.8654C19.859 27.885 19.8524 27.9047 19.847 27.9244L19.8466 27.9258C19.8411 27.946 19.8369 27.9663 19.8333 27.9866L19.8323 27.9933L19.8307 28.0049C19.8286 28.0192 19.8269 28.0336 19.8258 28.048C19.8253 28.055 19.8249 28.062 19.8246 28.0691C19.8241 28.0833 19.824 28.0975 19.8245 28.1117L19.8248 28.125L19.825 28.1308C19.8263 28.1511 19.8283 28.1714 19.8317 28.1916C19.837 28.224 19.8453 28.2555 19.8558 28.2862L19.5384 28.3934C19.3413 28.46 17.608 29.0789 17.4462 30.2927C17.3924 30.6964 17.5012 31.0666 17.761 31.3633C18.0737 31.7205 18.5845 31.9337 19.1275 31.9337C19.4214 31.9337 19.6941 31.8688 19.9162 31.7461C19.974 31.7142 20.0339 31.6789 20.095 31.6421C20.3106 32.4519 20.7817 32.9127 21.4036 32.9127C21.5258 32.9127 21.6519 32.8936 21.7785 32.8559C21.9329 32.8099 22.1941 32.6896 22.3542 32.3855C22.431 32.4556 22.5184 32.5132 22.6192 32.551C22.7405 32.5965 22.8985 32.6226 23.0528 32.6226C23.3854 32.6226 23.6841 32.5056 23.8937 32.2933C24.0485 32.1365 24.2317 31.8478 24.2254 31.3628C24.2249 31.3177 24.2231 31.2758 24.22 31.2347C24.2025 31.0007 24.1848 30.7981 24.1674 30.6292L24.2105 30.6295ZM10.7645 16.4334C10.8936 16.6151 11.0053 16.7674 11.0869 16.8733C11.1673 16.9797 11.2175 17.0397 11.2175 17.0397L11.2113 16.9842L11.2075 16.9586L11.2061 16.9497C11.2017 16.9172 11.1962 16.8765 11.1862 16.8294C11.1679 16.7299 11.1391 16.5998 11.0955 16.449C11.0803 16.3962 11.0641 16.3437 11.0469 16.2916C11.0338 16.2511 11.0184 16.2086 11.0031 16.1661C10.9773 16.094 10.9498 16.0203 10.9176 15.9436C10.8665 15.8217 10.8072 15.695 10.7383 15.5662C10.6683 15.4377 10.5901 15.3062 10.4942 15.178C10.4464 15.1135 10.3953 15.0495 10.3373 14.9871C10.3038 14.951 10.2667 14.9157 10.2278 14.8809C10.1994 14.8555 10.1705 14.8304 10.1387 14.8059C10.1192 14.792 10.099 14.7781 10.0776 14.7647C10.0137 14.7243 9.94125 14.6873 9.85418 14.6611C9.82352 14.6538 9.79131 14.6479 9.75976 14.643L9.736 14.6398L9.70378 14.6393C9.6822 14.6394 9.66064 14.6404 9.63914 14.6423C9.62003 14.6439 9.59115 14.6471 9.58093 14.6497L9.52761 14.6641L9.49253 14.6745L9.48207 14.6791L9.46142 14.6884C9.35169 14.7334 9.24416 14.8236 9.18329 14.9284C9.16823 14.9535 9.15487 14.9795 9.1433 15.0064C9.10953 15.0841 9.09421 15.1605 9.08777 15.2303C9.07 15.418 9.10688 15.5685 9.14376 15.7056C9.17129 15.7971 9.20372 15.8803 9.23772 15.9576C9.25355 15.994 9.27022 16.03 9.2877 16.0656C9.31264 16.1158 9.33916 16.1653 9.36722 16.2138C9.43287 16.3281 9.50651 16.4375 9.5876 16.5414C9.61759 16.5817 9.64584 16.6139 9.66794 16.639C9.67537 16.6474 9.68237 16.6554 9.68823 16.6623C9.71244 16.6895 9.72667 16.7031 9.72667 16.7031C9.72667 16.7031 9.72444 16.6923 9.72067 16.6719L9.71599 16.6484C9.70912 16.6129 9.69889 16.5612 9.68557 16.4962L9.66814 16.4077C9.64434 16.2877 9.61448 16.1371 9.58671 15.9676C9.56939 15.8607 9.55339 15.7459 9.54583 15.6297C9.53917 15.5155 9.53939 15.3932 9.56449 15.3034C9.57694 15.2588 9.59337 15.2242 9.60914 15.2068C9.6247 15.1911 9.63736 15.1859 9.65958 15.1779L9.67623 15.1745L9.70333 15.1691C9.70534 15.1688 9.70645 15.1696 9.70645 15.1696L9.70511 15.1709C9.70356 15.1723 9.70046 15.1741 9.70046 15.1741C9.69756 15.1757 9.69445 15.1765 9.68978 15.1763L9.68712 15.1756L9.69046 15.1775C9.69468 15.1795 9.69874 15.1799 9.70377 15.1804L9.70534 15.1806C9.71821 15.1855 9.73488 15.1932 9.75355 15.2038C9.77444 15.2158 9.79454 15.229 9.81374 15.2436C9.83552 15.2595 9.85773 15.2775 9.87994 15.2973C9.91282 15.3267 9.94614 15.3604 9.97903 15.3953C10.0131 15.4315 10.0465 15.4684 10.079 15.506C10.1652 15.6084 10.2494 15.7163 10.3291 15.8241C10.4435 15.9796 10.5516 16.1325 10.6514 16.2737C10.6904 16.3289 10.7282 16.3824 10.7645 16.4334ZM11.3863 18.2517C11.3581 18.2925 11.3137 18.378 11.3346 18.4919C11.3623 18.6449 11.4941 18.7559 11.6482 18.7559L11.6647 18.7555L11.7226 18.7525L11.7751 18.7577L11.7802 18.7582C11.9472 18.775 12.3744 18.8484 13.2741 19.16C13.3142 19.1739 13.3543 19.1879 13.3943 19.202C13.7215 19.3177 14.1072 19.4632 14.5601 19.6461C14.9324 19.7965 15.2821 19.9284 15.608 20.0416C15.9339 20.1548 16.2362 20.2493 16.5145 20.3251C16.7929 20.4008 17.0473 20.4578 17.2772 20.4958C17.5069 20.5338 17.7124 20.5528 17.8927 20.5528C17.9612 20.5528 18.0231 20.5502 18.0796 20.5453C18.136 20.5405 18.1866 20.5335 18.2322 20.5249C18.3233 20.5078 18.3941 20.4844 18.4492 20.4592C18.4905 20.4403 18.5232 20.4204 18.549 20.4015C18.557 20.3955 18.5648 20.3893 18.5725 20.3829C18.585 20.3723 18.5968 20.3611 18.608 20.3492C18.6159 20.3407 18.6234 20.3319 18.6307 20.323C18.6479 20.3025 18.6625 20.2799 18.674 20.2557C18.6838 20.2349 18.6913 20.2131 18.6965 20.1907C18.7013 20.17 18.7036 20.1506 18.7045 20.1332C18.7052 20.1182 18.7049 20.1032 18.7036 20.0882C18.7013 20.0667 18.697 20.0454 18.6907 20.0246C18.6895 20.0202 18.688 20.0157 18.6864 20.011L18.6858 20.0093C18.6765 19.9838 18.6636 19.9562 18.6436 19.929C18.6279 19.9073 18.6094 19.8877 18.5887 19.8707C18.5518 19.8401 18.5139 19.8216 18.4785 19.8107C18.448 19.8014 18.4163 19.7967 18.3843 19.7967C18.3348 19.7967 18.2853 19.8081 18.2415 19.8296L18.0864 19.906L17.8861 19.9088C17.7797 19.9088 17.6459 19.8997 17.4802 19.8762L17.4444 19.8709C17.3294 19.8537 17.199 19.8293 17.0521 19.7965C17.0259 19.7906 16.9997 19.7846 16.9735 19.7784C16.658 19.7043 16.2686 19.5913 15.7908 19.4246C15.7282 19.4027 15.6637 19.3798 15.598 19.356C15.4762 19.3119 15.3548 19.2667 15.2339 19.2205C15.1535 19.1897 15.0733 19.1585 14.9933 19.1269L14.9426 19.1069C14.896 19.0886 14.8493 19.0702 14.8007 19.0505C14.5626 18.9544 14.3424 18.8684 14.1374 18.7907C14.0947 18.7745 14.0527 18.7587 14.0114 18.7433C13.9443 18.7182 13.877 18.6934 13.8097 18.6688C13.6783 18.6209 13.5464 18.5743 13.4141 18.5289C13.3554 18.5089 13.2967 18.4891 13.2379 18.4697C13.1561 18.4426 13.074 18.4162 12.9918 18.3905C12.9324 18.372 12.873 18.3539 12.8134 18.3362C12.7632 18.3213 12.7147 18.3073 12.6683 18.2943C12.5939 18.2733 12.5239 18.2544 12.4588 18.2378C12.3737 18.216 12.2964 18.1978 12.2265 18.1825C12.1101 18.1572 12.0139 18.1401 11.9352 18.1288C11.8881 18.1221 11.847 18.1174 11.8117 18.1143C11.7644 18.1101 11.7271 18.1087 11.6982 18.1087C11.6871 18.1086 11.676 18.1089 11.6649 18.1094C11.6358 18.1108 11.6173 18.1141 11.5929 18.1186C11.479 18.1392 11.4145 18.2108 11.3863 18.2517ZM15.3376 20.8973C12.9651 20.8973 11.0351 22.8274 11.0351 25.1999C11.0351 27.5724 12.9651 29.5025 15.3376 29.5025C17.7101 29.5025 19.6401 27.5724 19.6401 25.1999C19.6401 22.8274 17.7101 20.8973 15.3376 20.8973ZM22.0651 22.6348C22.0651 25.0073 23.9951 26.9374 26.3676 26.9374C28.7401 26.9374 30.6701 25.0072 30.6701 22.6348C30.6701 20.2624 28.7401 18.3322 26.3676 18.3322C23.9951 18.3322 22.0651 20.2624 22.0651 22.6348Z" fill="#324558"/>
<path d="M12.6937 36.9806C12.2856 37.5229 11.7178 37.929 10.9289 37.929C10.3114 37.929 9.8804 37.6897 9.61226 37.1973C9.50674 37.0039 9.433 36.7819 9.38501 36.5421C9.26882 35.9621 9.30637 35.2768 9.43388 34.6302C9.57538 33.9117 9.82709 33.2416 10.0999 32.8186C10.3491 32.4324 10.5793 32.1764 10.7787 32.0068C11.0818 32.8058 11.3914 33.5874 11.6842 34.3079C12.1023 35.3375 12.4855 36.2417 12.7632 36.8853C12.7405 36.9176 12.7172 36.9492 12.6937 36.9806Z" fill="#324558"/>
<path d="M8.78032 36.4215C7.62517 36.1706 6.97472 35.8887 6.97472 35.5905C6.97472 35.2884 7.64227 35.003 8.82609 34.7497C8.74878 35.2198 8.69813 35.8233 8.78032 36.4215Z" fill="#324558"/>
<path d="M41.0046 34.9611C41.0246 34.9139 41.0434 34.8662 41.0608 34.8179C42.0542 35.0539 42.6085 35.3153 42.6085 35.5905C42.6085 36.019 41.2682 36.4142 39.0108 36.7314C39.4195 36.6235 39.8769 36.3274 40.3988 35.8331C40.6587 35.5869 40.8624 35.2934 41.0046 34.9611Z" fill="#324558"/>
<path d="M12.1478 44.8019C12.6502 44.6926 13.0316 44.4853 12.9997 44.3389C12.9678 44.1925 12.5348 44.1624 12.0325 44.2718C11.5301 44.3811 11.1487 44.5884 11.1806 44.7348C11.2125 44.8812 11.6455 44.9113 12.1478 44.8019Z" fill="#324558"/>
<path d="M10.9105 44.3371C10.9219 44.4816 10.4943 44.6335 9.95521 44.6763C9.41616 44.7191 8.96987 44.6367 8.95839 44.4922C8.94691 44.3476 9.37459 44.1958 9.91364 44.1529C10.4527 44.1101 10.899 44.1926 10.9105 44.3371Z" fill="#324558"/>
<path d="M8.24022 44.404C8.59915 44.355 8.87769 44.2242 8.86235 44.1118C8.84702 43.9993 8.54362 43.9479 8.18469 43.9968C7.82577 44.0458 7.54723 44.1766 7.56257 44.289C7.5779 44.4015 7.8813 44.4529 8.24022 44.404Z" fill="#324558"/>
<path d="M7.56753 43.9127C7.5807 44.0034 7.31049 44.1177 6.964 44.1681C6.6175 44.2184 6.32593 44.1856 6.31275 44.0949C6.29957 44.0042 6.56978 43.8899 6.91628 43.8395C7.26278 43.7892 7.55435 43.822 7.56753 43.9127Z" fill="#324558"/>
<path d="M6.67515 43.8097C7.02164 43.7593 7.29185 43.645 7.27868 43.5543C7.2655 43.4636 6.97393 43.4308 6.62743 43.4811C6.28093 43.5315 6.01072 43.6458 6.0239 43.7365C6.03708 43.8272 6.32865 43.86 6.67515 43.8097Z" fill="#324558"/>
<path d="M7.12155 43.16C7.13305 43.2391 6.89809 43.3388 6.59676 43.3826C6.29542 43.4263 6.04182 43.3977 6.03032 43.3186C6.01882 43.2394 6.25378 43.1398 6.55511 43.096C6.85645 43.0522 7.11005 43.0809 7.12155 43.16Z" fill="#324558"/>
<path d="M24.51 41.2841C24.2836 41.2952 23.9966 41.2985 23.6817 41.302C22.5127 41.3153 20.9596 41.3329 20.698 41.7737C20.3657 42.3333 21.6772 42.5432 23.7405 42.3683L23.9301 42.3522C25.9782 42.1793 28.7281 41.947 28.8468 41.3365C28.918 40.9704 28.723 40.8586 28.5336 40.75C28.3974 40.6719 28.264 40.5955 28.2348 40.4272C28.2009 40.2324 28.3721 40.132 28.5757 40.0126C28.7923 39.8855 29.0455 39.737 29.1267 39.4305C29.269 38.8926 28.2662 38.8986 27.2581 38.9046C27.1519 38.9052 27.0457 38.9059 26.9408 38.9059C25.8391 38.9059 24.0029 39.0108 23.8281 39.5878C23.6875 40.0517 24.3152 40.1427 24.9392 40.2332C25.0916 40.2553 25.2437 40.2774 25.3844 40.3048C26.1015 40.4447 25.8916 40.707 25.8916 40.707C25.8567 41.0742 25.5768 41.2316 24.51 41.2841Z" fill="#324558"/>
<path d="M22.5825 42.8186C22.5825 42.9854 22.1684 43.1206 21.6575 43.1206C21.1467 43.1206 20.7325 42.9854 20.7325 42.8186C20.7325 42.6518 21.1467 42.5166 21.6575 42.5166C22.1684 42.5166 22.5825 42.6518 22.5825 42.8186Z" fill="#324558"/>
<path d="M24.0377 43.0289C24.3781 43.0289 24.6541 42.9055 24.6541 42.7532C24.6541 42.601 24.3781 42.4775 24.0377 42.4775C23.6972 42.4775 23.4212 42.601 23.4212 42.7532C23.4212 42.9055 23.6972 43.0289 24.0377 43.0289Z" fill="#324558"/>
<path d="M26.6349 42.5565C26.6349 42.6797 26.3324 42.7795 25.9592 42.7795C25.5861 42.7795 25.2836 42.6797 25.2836 42.5565C25.2836 42.4333 25.5861 42.3335 25.9592 42.3335C26.3324 42.3335 26.6349 42.4333 26.6349 42.5565Z" fill="#324558"/>
<path d="M27.4415 42.5437C27.7133 42.5437 27.9336 42.4379 27.9336 42.3075C27.9336 42.177 27.7133 42.0713 27.4415 42.0713C27.1697 42.0713 26.9494 42.177 26.9494 42.3075C26.9494 42.4379 27.1697 42.5437 27.4415 42.5437Z" fill="#324558"/>
<path d="M29.2191 42.0387C29.2191 42.1655 28.9958 42.2683 28.7204 42.2683C28.445 42.2683 28.2217 42.1655 28.2217 42.0387C28.2217 41.9119 28.445 41.8091 28.7204 41.8091C28.9958 41.8091 29.2191 41.9119 29.2191 42.0387Z" fill="#324558"/>
</svg>
