<svg width="48" height="48" viewBox="0 0 48 48" fill="none" xmlns="http://www.w3.org/2000/svg">
<path fill-rule="evenodd" clip-rule="evenodd" d="M8 6C6.89543 6 6 6.89543 6 8V40C6 41.1046 6.89543 42 8 42H40C41.1046 42 42 41.1046 42 40V8C42 6.89543 41.1046 6 40 6H8ZM34.0245 39.312C30.0885 39.312 28.8885 37.056 28.8165 34.296H32.4885C32.5845 35.64 32.9445 36.552 34.0725 36.552C35.1525 36.552 35.4885 35.832 35.4885 34.896C35.4885 33.792 34.9365 33.12 33.0165 32.136C30.2085 30.696 29.1525 29.472 29.1525 27.096C29.1525 24.312 30.8325 22.488 34.0485 22.488C37.8405 22.488 38.9205 24.864 38.9445 27.336H35.3685C35.2965 26.208 35.0805 25.248 34.0245 25.248C33.2085 25.248 32.8245 25.776 32.8245 26.688C32.8245 27.624 33.1845 28.104 34.9605 28.968C37.9605 30.48 39.2325 31.776 39.2325 34.488C39.2325 37.176 37.6725 39.312 34.0245 39.312ZM22.52 22.8H26.24V34.416C26.24 37.44 25.592 39.24 22.016 39.24C21.272 39.24 20.672 39.168 20.312 39.096V36.168C20.3808 36.1743 20.4528 36.1822 20.528 36.1904C20.7418 36.2138 20.9818 36.24 21.248 36.24C22.376 36.24 22.52 35.784 22.52 34.776V22.8Z" fill="#324558"/>
</svg>
