<svg width="48" height="48" viewBox="0 0 48 48" fill="none" xmlns="http://www.w3.org/2000/svg">
<path fill-rule="evenodd" clip-rule="evenodd" d="M8 6C6.89543 6 6 6.89543 6 8V40C6 41.1046 6.89543 42 8 42H40C41.1046 42 42 41.1046 42 40V8C42 6.89543 41.1046 6 40 6H8ZM24.0474 16.1911C22.2487 17.6059 20.588 18.9122 22.9364 23.6859C16.7053 18.8577 19.6844 16.591 22.7376 14.2678C24.7068 12.7695 26.7069 11.2477 26.2865 9C27.5355 13.4473 25.731 14.8667 24.0474 16.1911ZM24.448 22.4269C23.219 20.1084 21.549 16.9583 28.9116 14.8289C24.4563 16.4972 25.2552 18.6786 25.98 20.6575C26.5307 22.1613 27.0387 23.5483 25.1654 24.5043C25.2678 23.9732 24.8859 23.2528 24.448 22.4269ZM30.2837 25.1301C27.7111 27.3695 12.4916 27.6813 19.0724 24.1675C6.30073 27.4405 28.1388 31.5322 30.2837 25.1301ZM19.7942 29.7747C16.2938 32.7356 26.9652 34.0328 28.4801 29.7747C25.4089 31.0259 20.437 31.8208 19.7942 29.7747ZM15.0604 32.174C-0.231237 36.989 32.3307 39.7156 36 32.9443C31.8618 35.1834 9.51794 36.989 15.0604 32.174ZM31.0637 29.4141C37.6444 27.0074 33.3061 21.2791 30.2837 24.5043C33.3061 24.1675 33.9883 26.6702 31.0637 29.4141Z" fill="#324558"/>
</svg>
