<svg width="48" height="48" viewBox="0 0 48 48" fill="none" xmlns="http://www.w3.org/2000/svg">
<path d="M26.6101 28.8258C27.5538 31.2149 30.6319 31.1274 33.4243 31.0481C33.6391 31.042 33.8522 31.0359 34.0625 31.0311C33.9218 31.3566 33.6403 31.7556 33.2912 31.8869C32.3479 32.2755 29.7422 32.5642 28.4341 31.8659C27.7963 31.5226 27.3391 30.8608 26.9551 30.3047C26.834 30.1293 26.7201 29.9645 26.6101 29.8234C26.5653 29.7656 26.4858 29.6904 26.3976 29.607C26.0455 29.2737 25.5557 28.8101 26.5893 28.8101L26.6101 28.8258Z" fill="#324558"/>
<path d="M26.8811 27.3767L26.8965 27.3847C27.5786 29.1965 30.6083 29.8284 33.1661 29.6974L33.1654 29.6237C33.1606 29.1168 33.1558 28.6004 33.0514 28.1748C31.0572 28.2376 28.3746 28.1544 26.8965 27.3847L26.8915 27.3714L26.8811 27.3767Z" fill="#324558"/>
<path d="M37.9241 26.4001L37.9153 26.4171C37.5441 26.5882 37.1921 26.7805 36.8399 26.973C35.9175 27.477 34.9941 27.9816 33.7237 28.1065C33.6508 28.39 33.6872 29.1409 33.7237 29.6134C36.0237 29.5611 37.134 27.9142 37.9153 26.4171L37.9293 26.4106L37.9241 26.4001Z" fill="#324558"/>
<path d="M36.8506 25.287L36.8114 25.3124C36.7852 25.1282 36.8731 24.8818 36.97 24.6102C37.0986 24.2496 37.2431 23.8444 37.158 23.4808C37.1278 23.3496 36.9481 23.1937 36.7445 23.0171C36.5976 22.8896 36.4383 22.7514 36.3138 22.6039C35.0735 21.2335 33.385 19.2068 32.7179 17.6054C32.7036 17.5705 32.6901 17.5061 32.6738 17.428C32.6066 17.1073 32.4908 16.5548 32.0717 16.8546C32.027 19.0911 33.6007 20.97 34.8674 22.4822L35.0526 22.7037C35.1589 22.8341 35.2694 22.955 35.3761 23.0717C35.8924 23.6363 36.3201 24.1041 35.7457 25.0875C35.4581 25.1986 35.128 25.3605 34.7702 25.536C33.7084 26.0568 32.402 26.6975 31.2327 26.4893C30.666 26.3942 30.5712 25.9324 30.4788 25.4818C30.4335 25.2611 30.3888 25.0431 30.2894 24.8722C29.7213 25.6335 29.9402 26.7886 30.5239 27.3032C33.2646 27.5741 35.133 26.4027 36.8114 25.3124C36.8122 25.318 36.8131 25.3235 36.8141 25.329L36.8506 25.287Z" fill="#324558"/>
<path d="M14.6186 24.1634C14.3876 24.0283 14.2334 23.689 14.0792 23.3498C13.8857 22.924 13.6923 22.4984 13.3471 22.4779C12.5694 22.4318 12.5988 23.8138 12.6212 24.8626C12.6243 25.0086 12.6272 25.1481 12.6279 25.2765C12.0181 24.7304 11.9087 23.003 12.3569 22.1261C11.982 21.9412 11.7616 22.1748 11.5575 22.3911C11.4835 22.4695 11.4117 22.5456 11.3354 22.5987C11.7002 19.9472 15.2075 21.3753 14.6239 24.2001L14.6186 24.1634Z" fill="#324558"/>
<path d="M27.027 15.8468L27.0389 15.869C26.7308 16.8711 27.6546 18.5109 28.1683 19.3752C27.6829 19.8459 26.9291 19.7062 26.2005 19.5712C25.8887 19.5135 25.5816 19.4566 25.302 19.4487C24.4213 20.8506 27.0322 21.1236 28.1475 20.7981C28.455 20.6983 28.9865 20.2468 29.0595 20.0473C29.3259 19.2876 28.892 18.8944 28.5612 18.5946C28.5102 18.5484 28.4616 18.5044 28.4185 18.4616C27.9468 18.0035 27.7138 17.4297 27.469 16.827C27.3409 16.5114 27.2095 16.1879 27.0389 15.869C27.0434 15.8545 27.0481 15.8401 27.0531 15.8258L27.027 15.8468Z" fill="#324558"/>
<path d="M37.2779 15.8258H37.3925C37.5548 16.1558 37.7078 16.4914 37.8604 16.8259C38.2225 17.6197 38.582 18.4077 39.055 19.1022C38.6068 20.1523 35.6571 21.0869 35.7092 19.1967C36.0081 19.0645 36.4056 19.043 36.8029 19.0216C37.2576 18.997 37.712 18.9725 38.0179 18.7819C37.9449 18.5697 37.8637 18.3667 37.7827 18.1644C37.5111 17.4854 37.2425 16.814 37.2987 15.8311L37.2779 15.8258Z" fill="#324558"/>
<path d="M25.818 13.1323C23.4676 12.581 22.2951 14.1194 21.5811 15.7208C20.9453 15.5633 21.2007 14.697 21.357 14.2507C21.7791 13.0851 23.4728 11.5309 24.8643 11.7409C25.4584 11.8354 26.2714 12.3815 25.818 13.1323Z" fill="#324558"/>
<path fill-rule="evenodd" clip-rule="evenodd" d="M7.28626 44H8.89659L8.9018 43.9737H40.2224C40.5872 42.8239 40.9468 41.6268 41.3064 40.4244C41.3597 40.2443 41.4235 40.0483 41.4905 39.8423C41.7575 39.0212 42.0756 38.0433 41.9839 37.3003C41.9053 36.6395 41.1105 35.9548 40.4157 35.3564C40.1887 35.1608 39.9723 34.9744 39.7951 34.801C39.7003 34.7117 39.5239 34.564 39.3086 34.3836C38.6125 33.8006 37.5087 32.876 37.4291 32.475C37.3515 32.1065 37.7639 31.4132 38.1089 30.8332C38.2504 30.5952 38.3806 30.3764 38.461 30.2068C38.8504 29.3966 39.127 28.4133 39.324 27.7129L39.3417 27.6498C40.8009 22.4675 40.9572 15.353 38.8675 11.0948C38.0753 9.48288 35.8553 7.2514 34.4742 6.19604C31.2171 3.70203 25.1719 3.429 21.2477 4.88865C21.1217 4.93533 20.9964 4.98138 20.8717 5.02721C19.9019 5.3835 18.9704 5.72571 18.1208 6.23279C17.7162 6.47159 17.308 6.69812 16.9041 6.92219C14.7329 8.12683 12.6902 9.2602 12.0443 11.8456C10.1525 12.6962 9.58449 15.1272 9.68351 17.9468C9.69373 18.161 9.74165 18.397 9.79014 18.6359C9.86525 19.0058 9.94172 19.3825 9.88154 19.6952C9.85259 19.8573 9.70841 20.0474 9.58516 20.2099C9.50878 20.3106 9.44043 20.4007 9.41252 20.467C8.52136 22.6355 9.24054 25.4813 10.2828 27.025C10.9238 27.9543 11.9661 28.7787 13.3315 28.9992C13.3836 29.8288 13.5817 30.5428 13.9517 31.3882C14.0163 31.5282 14.1268 31.6982 14.2481 31.8851C14.5866 32.4061 15.0101 33.0582 14.7646 33.5567C14.6352 33.8215 13.7242 34.3299 13.0937 34.6817C12.912 34.7831 12.7532 34.8718 12.6436 34.9375C12.1725 35.2223 11.7383 35.4756 11.3229 35.7178C10.2909 36.3197 9.37486 36.8539 8.29727 37.6363C8.03417 37.8267 7.73123 37.9727 7.43346 38.1163C6.62248 38.5072 5.84976 38.8797 6.02509 40.0778C6.13438 40.8273 6.45831 41.6993 6.76618 42.528C6.9134 42.9244 7.05696 43.3108 7.1716 43.6692C7.20808 43.7847 7.24456 43.8897 7.28626 44ZM27.7817 36.9202C27.8109 36.9097 27.84 36.8992 27.84 36.8593V36.854C28.7854 37.2805 29.9074 37.0094 30.9718 36.7522C31.4799 36.6294 31.975 36.5098 32.4313 36.4708C32.0627 36.7131 31.726 36.9912 31.3897 37.269C31.1648 37.4547 30.9402 37.6403 30.7063 37.8149C29.4035 37.8727 28.6843 37.7151 27.7254 36.9643C27.7325 36.9379 27.7571 36.9291 27.7817 36.9202ZM23.4468 6.09633C26.2975 4.66293 30.8418 5.8023 33.4944 7.31446L33.4632 7.19895C34.7937 7.95784 35.812 9.31456 36.768 10.5883C36.9165 10.7862 37.0637 10.9823 37.2102 11.1736C35.6989 10.7221 34.4064 11.4991 34.6566 12.7698C35.949 11.6199 38.1117 12.7698 38.7528 14.0719C39.291 15.1337 39.3621 16.6662 39.4362 18.2643C39.4475 18.5072 39.4589 18.7524 39.4719 18.9969C39.6908 23.4704 38.6485 28.0961 36.418 31.32C36.2868 31.5079 36.1604 31.7006 36.034 31.8934C35.5882 32.5732 35.1423 33.2532 34.4846 33.7195C32.4782 35.1424 29.4035 36.4445 26.7717 35.5677C23.4255 34.4338 21.8522 32.2311 20.0297 29.6796L19.8249 29.393C19.877 30.8422 20.8932 32.0655 21.9094 33.1944C22.8006 34.1658 23.8689 35.2894 25.0102 35.7409C24.0513 35.5204 22.5869 35.4417 22.1909 36.3185C19.9656 36.1715 17.9019 35.9195 16.8491 34.4178C16.0205 33.2154 15.1763 31.194 14.7906 29.6188C14.7177 29.2933 14.5926 28.6159 14.6187 28.4427C14.6687 28.1823 14.8774 27.9778 15.0888 27.7707C15.4272 27.4391 15.7725 27.1008 15.4838 26.5157C15.0202 26.5157 14.7457 26.7441 14.472 26.9719C14.2256 27.1769 13.9798 27.3815 13.5972 27.4188C11.5283 27.6183 10.0482 24.6413 10.1473 22.8456C10.2202 21.3177 11.5127 19.8528 13.2741 20.0418C14.5249 20.1783 14.947 21.5487 15.1867 22.7616C15.9059 22.8036 16.943 22.7301 17.2713 22.1683C17.2463 21.5115 17.0897 20.9163 16.9367 20.3351C16.7706 19.7036 16.6088 19.0888 16.6251 18.4299C16.6593 17.6103 16.8334 16.8178 17.0054 16.0349C17.3304 14.5558 17.6477 13.111 17.0003 11.5832C18.0374 9.16265 21.1642 7.25145 23.4468 6.09633ZM27.2615 38.0988C26.3599 37.6 25.0102 37.0644 23.848 36.8386C22.4743 36.5779 22.5504 38.6207 22.6009 39.9757L22.6077 40.1622C22.6478 40.9856 22.9804 41.8399 23.2433 42.5155C23.3225 42.7188 23.3953 42.9059 23.452 43.071C23.4827 43.1523 23.5071 43.2348 23.5306 43.314C23.6027 43.5575 23.6657 43.7704 23.8741 43.8219C24.3692 43.9374 26.0056 43.2811 26.4798 43.0238C27.0622 42.7026 27.5688 42.2725 28.0591 41.8562C28.4025 41.5647 28.7378 41.28 29.0855 41.0443C29.0985 40.9034 29.105 40.7625 29.1114 40.6223C29.118 40.4805 29.1245 40.3388 29.1376 40.199C28.5748 39.9155 27.9546 39.7579 27.324 39.7369C27.5611 39.6223 27.839 39.5598 28.1158 39.4976C28.4476 39.423 28.7777 39.3488 29.0334 39.1856L29.0594 38.8653C28.4494 38.8262 28.1146 38.609 27.7569 38.377C27.635 38.2979 27.51 38.2168 27.3709 38.1408L27.2615 38.0988ZM35.5061 36.5494C36.0273 36.8486 36.2514 38.5918 36.2983 39.4477L36.2514 39.3637C36.2722 40.0882 36.1732 40.7866 35.9022 41.1646C34.4378 41.1173 33.0985 40.9441 31.9572 40.6133C31.9907 40.396 31.978 40.1788 31.9661 39.9758C31.9521 39.7373 31.9393 39.5185 32.0041 39.3427C32.2709 39.1562 32.6905 39.1237 33.1075 39.0915C33.1954 39.0847 33.2832 39.0779 33.3695 39.0696C32.9525 38.8701 32.3532 38.7966 31.8842 38.9174C31.8672 38.6916 31.7972 38.5283 31.7303 38.3722C31.6944 38.2886 31.6595 38.2071 31.6341 38.1193C31.8875 38.0347 32.2509 37.7894 32.6643 37.5105C33.5854 36.8889 34.7543 36.1 35.5061 36.5494ZM29.6351 39.8776C29.5543 39.5268 29.4986 39.2851 29.5495 38.8491L29.5234 38.8229C31.4569 37.5207 31.8321 41.0701 29.7475 40.419C29.7097 40.2017 29.67 40.0294 29.6351 39.8776Z" fill="#324558"/>
</svg>
