<svg width="48" height="48" viewBox="0 0 48 48" fill="none" xmlns="http://www.w3.org/2000/svg">
<path d="M24.0722 43.9467C24.8726 43.94 25.6645 43.8983 26.4548 43.79C28.2653 43.5555 30.0343 43.0715 31.7113 42.3517C34.0684 41.3428 36.2173 39.9063 38.0487 38.1151C39.7349 36.466 41.1151 34.5324 42.1256 32.4035C42.9893 30.5715 43.5642 28.6173 43.8298 26.6102C44.0788 24.6769 44.0554 22.7003 43.7546 20.7786C43.5034 19.1819 43.0585 17.6216 42.4296 16.132C42.0285 15.1964 41.5513 14.2951 41.0028 13.437C39.0512 10.3754 36.2225 7.91378 32.9661 6.27047C31.8032 5.67794 30.5884 5.1926 29.337 4.82049H29.3287C29.5275 4.92549 29.7297 5.04049 29.9051 5.15549C30.1056 5.27882 30.3044 5.39882 30.4916 5.53048C31.4422 6.16721 32.3163 6.91098 33.0964 7.74712C34.8725 9.65543 36.0989 11.9937 36.8023 14.482C37.2768 16.1187 37.5274 17.812 37.6294 19.5103C37.7029 20.7486 37.7029 21.9953 37.5508 23.2253C37.3019 25.3419 36.6252 27.4085 35.499 29.2185C34.6699 30.5672 33.5908 31.7459 32.3195 32.6918C30.2409 34.2385 27.5125 35.1618 24.9077 34.5485C24.4776 34.4476 24.0589 34.3035 23.6579 34.1185C23.2009 33.9106 22.7651 33.6595 22.3563 33.3685C21.5821 32.8525 20.8827 32.2328 20.2778 31.5268C19.5439 30.6541 18.9524 29.6715 18.5251 28.6152C18.0017 27.2637 17.7223 25.8305 17.6997 24.3819C17.6496 22.2603 18.0756 20.127 19.1266 18.2653C19.8306 17.0262 20.7752 15.9395 21.9052 15.0687C22.2811 14.772 22.6804 14.5137 23.0814 14.2704L23.1082 14.2587C22.3191 14.0788 21.5085 14.0114 20.7005 14.0587C20.0024 14.1052 19.313 14.2396 18.6487 14.4587C18.0489 14.6587 17.4725 14.9087 16.9462 15.2087C16.5186 15.4535 16.1093 15.7286 15.7214 16.032C15.3689 16.332 15.0197 16.632 14.6939 16.957C12.8175 18.8786 11.7399 21.427 11.3155 24.0503C11.0648 25.6719 11.0648 27.3169 11.1634 28.9669C11.3389 31.2918 11.8167 33.6118 12.7424 35.7368C13.3061 37.0501 14.0655 38.2711 14.9946 39.3584C16.4164 40.9963 18.2108 42.2707 20.2277 43.075C21.3573 43.5357 22.5454 43.8385 23.7581 43.975C23.8818 44 24.0071 44 24.1073 44L24.0722 43.9467ZM19.17 43.2833C18.9118 43.1722 18.6607 43.0453 18.4182 42.9033C17.1607 42.2268 16.0127 41.3649 15.013 40.3467C13.1851 38.4517 11.9604 36.0701 11.2587 33.5468C10.7965 31.8187 10.5192 30.0466 10.4316 28.2602C10.3575 27.1035 10.3832 25.9426 10.5085 24.7902C10.734 22.6953 11.3355 20.622 12.3865 18.8236C13.1417 17.497 14.1545 16.3338 15.3656 15.402C16.1945 14.7683 17.1142 14.2627 18.094 13.902C19.9912 13.2169 22.0646 13.1905 23.9787 13.827C24.0271 13.827 24.0271 13.827 24.0539 13.877C24.0789 13.902 24.1291 13.902 24.1541 13.927C24.2293 13.9537 24.3279 14.002 24.4298 14.0504C24.8291 14.2504 25.2301 14.502 25.6061 14.7504C27.1213 15.8088 28.3299 17.2471 29.1098 18.9203C29.8115 20.4436 30.1374 22.1436 30.1641 23.8169C30.1875 25.6152 29.8633 27.4119 29.0864 29.0602C28.1389 31.0483 26.5997 32.6965 24.6788 33.7801C24.8291 33.8301 24.9795 33.8551 25.1316 33.9051C25.5075 33.9785 25.8818 34.0285 26.2811 34.0285C28.7339 34.1035 31.1131 32.9285 32.8641 31.2835C33.19 30.9835 33.4907 30.6585 33.7664 30.3085C34.1423 29.8585 34.4932 29.4085 34.7923 28.9369C35.1916 28.3119 35.5191 27.6869 35.8182 27.0135C36.2005 26.1222 36.4856 25.1924 36.6686 24.2402C36.9961 22.5669 37.0212 20.8703 36.9176 19.197C36.692 15.827 35.7931 12.4554 33.8399 9.6571C33.5511 9.24243 33.2416 8.84249 32.9126 8.45878C32.3647 7.84072 31.771 7.26465 31.1365 6.73547C30.4286 6.15484 29.666 5.64412 28.8592 5.21049C27.9489 4.79381 27.0027 4.46023 26.0321 4.21383L25.5309 4.11383C25.1817 4.06383 24.8291 4.0405 24.4716 4.01383C23.9062 3.98883 23.3399 3.99773 22.7757 4.0405C21.5994 4.1155 20.4165 4.30716 19.2469 4.60216C13.6396 6.04548 8.73404 9.94376 6.12253 15.117C5.28918 16.7651 4.69188 18.5216 4.34811 20.3353C3.95224 22.4096 3.89357 24.534 4.17434 26.6269C4.37484 28.3269 4.79923 29.9985 5.47425 31.5885C5.85353 32.5385 6.32804 33.4618 6.85268 34.3351C8.68057 37.3068 11.3355 39.7284 14.3881 41.4017C15.5377 42.0517 16.7406 42.5517 17.9921 42.975C18.3697 43.0983 18.744 43.225 19.1433 43.325L19.17 43.2833Z" fill="#324558"/>
</svg>
