<svg width="48" height="48" viewBox="0 0 48 48" fill="none" xmlns="http://www.w3.org/2000/svg">
<path d="M28.9067 23.1795C29.4748 22.8226 30.1482 22.6129 30.8726 22.6129C32.8915 22.6129 34.528 24.2199 34.528 26.2022C34.528 28.1844 32.8914 29.7911 30.8726 29.7911V29.7794C29.9286 29.7794 29.0955 29.3211 28.5849 28.6209L26.9206 26.1971H26.9183C26.3649 25.3235 25.3837 24.7405 24.262 24.7405C23.3484 24.7405 22.5286 25.1285 21.956 25.7437C21.4383 25.1323 20.6622 24.7384 19.7871 24.7384C19.5686 24.7384 19.3568 24.7647 19.1528 24.8111C19.8274 25.2467 20.2739 25.9976 20.2739 26.8526C20.2739 26.9374 20.2682 27.0209 20.2609 27.1041C20.2533 27.1823 20.2429 27.2595 20.2299 27.3358C19.9949 28.7218 18.7714 29.7794 17.293 29.7794C15.1898 29.7794 13.4847 28.1047 13.4847 26.0394C13.4847 23.9744 15.1898 22.3002 17.293 22.3002C17.9588 22.3002 18.5841 22.4689 19.1286 22.7637C19.0184 22.356 18.9571 21.9287 18.9571 21.4866C18.9571 18.707 21.252 16.4538 24.0828 16.4538C26.9136 16.4538 29.2085 18.707 29.2085 21.4866C29.2085 22.0814 29.1012 22.6507 28.9067 23.1795Z" fill="#324558"/>
<path fill-rule="evenodd" clip-rule="evenodd" d="M24 44C35.0457 44 44 35.0457 44 24C44 12.9543 35.0457 4 24 4C12.9543 4 4 12.9543 4 24C4 35.0457 12.9543 44 24 44ZM30.6734 32.2121C30.7395 32.2153 30.8057 32.2184 30.8726 32.2184C34.2567 32.2184 37 29.5249 37 26.2021C37 23.1207 34.6402 20.5819 31.5984 20.2292C30.9891 16.6935 27.8572 14 24.0828 14C20.4284 14 17.376 16.525 16.6326 19.8946C13.4675 20.2188 11 22.846 11 26.0394C11 29.4075 13.7459 32.1409 17.1587 32.2117V32.2147C17.1786 32.2152 17.1983 32.2166 17.218 32.2179C17.2428 32.2197 17.2677 32.2214 17.293 32.2214C19.221 32.2214 20.9104 31.2374 21.8817 29.7552L23.63 32.3811H23.6378C24.2503 33.3516 25.3416 34 26.5898 34C27.5432 34 28.4064 33.6224 29.0341 33.0119C28.7644 33.1249 28.4678 33.1877 28.1561 33.1877C27.3414 33.1877 26.6304 32.7592 26.2385 32.1205L26.2303 32.1253L22.2988 26.241C22.2415 26.132 22.1767 26.0277 22.1058 25.9277C22.3471 25.7925 22.6258 25.7143 22.9236 25.7143C23.4627 25.7143 23.94 25.9686 24.2425 26.3603L24.2484 26.3596L26.6688 29.7964C26.6696 29.7955 26.6703 29.7945 26.671 29.7936C26.6716 29.7928 26.6722 29.7919 26.6729 29.7911L26.8505 30.0426L26.8455 30.0472L27.1002 30.409C27.111 30.4224 27.1223 30.4355 27.1336 30.4485C27.141 30.4571 27.1484 30.4656 27.1556 30.4742L27.2396 30.5933L27.2557 30.5924C28.1081 31.5532 29.3491 32.1687 30.7402 32.2067V32.209H30.6031C30.6266 32.2099 30.65 32.211 30.6734 32.2121Z" fill="#324558"/>
</svg>
