<svg width="48" height="48" viewBox="0 0 48 48" fill="none" xmlns="http://www.w3.org/2000/svg">
<path d="M23.883 26.903L25.1607 26.2879L25.4919 24.9156L24.5928 23.7799H23.1732L22.2741 24.9156L22.6054 26.2879L23.883 26.903Z" fill="#324558"/>
<path d="M33.0632 26.1932C33.1578 25.1995 33.1105 24.2058 32.8739 23.212C32.6373 22.2183 32.2587 21.2719 31.7382 20.4201L28.1892 23.6379C28.0945 23.7326 28.0472 23.8272 27.9999 23.9692C27.9053 24.395 28.1419 24.8209 28.5677 24.9156L33.0632 26.1932Z" fill="#324558"/>
<path d="M26.4383 21.4139L30.3186 18.6693C28.899 17.2497 27.0535 16.3506 24.9714 16.114L25.2553 20.8933C25.2553 21.0353 25.3026 21.1299 25.3973 21.2246C25.6339 21.5558 26.1071 21.6031 26.4383 21.4139Z" fill="#324558"/>
<path d="M22.7 16.0667L21.7536 16.256C20.0974 16.6345 18.5832 17.4863 17.3528 18.6693L21.2804 21.4612C21.3101 21.4711 21.3376 21.4809 21.364 21.4904C21.4639 21.5262 21.5467 21.5558 21.659 21.5558C22.0849 21.5558 22.4634 21.2246 22.4634 20.7987L22.7 16.0667Z" fill="#324558"/>
<path d="M19.4823 23.5433L15.9805 20.4201C14.9395 22.171 14.4663 24.2058 14.6083 26.1932L19.1983 24.8682C19.3876 24.8209 19.4823 24.7736 19.5769 24.6316C19.8608 24.3004 19.8135 23.8272 19.4823 23.5433Z" fill="#324558"/>
<path d="M19.8608 27.6128L15.1761 28.4173C15.8386 30.3101 17.1636 31.9663 18.8198 33.0547L20.6179 28.7012C20.7126 28.5592 20.7126 28.37 20.6653 28.228C20.6179 27.8494 20.2394 27.6128 19.8608 27.6128Z" fill="#324558"/>
<path d="M23.883 34.5216C24.5928 34.5216 25.2553 34.427 25.9178 34.285C26.2491 34.1904 26.533 34.143 26.8169 34.0957L24.5455 29.9788C24.4036 29.8369 24.3089 29.7422 24.167 29.6476C23.8357 29.4583 23.4572 29.553 23.2206 29.8369L20.9019 34.0484C21.8483 34.3323 22.8893 34.5216 23.883 34.5216Z" fill="#324558"/>
<path d="M28.8517 33.0073C29.9874 32.2975 30.9811 31.3038 31.6909 30.1681C32.0695 29.6476 32.3534 29.0324 32.59 28.37L27.8579 27.5655C27.716 27.5655 27.574 27.6128 27.4321 27.6601C27.1008 27.8021 26.9115 28.1807 27.0062 28.5592L28.8517 33.0073Z" fill="#324558"/>
<path fill-rule="evenodd" clip-rule="evenodd" d="M39.546 11.1454C40.2558 11.5239 40.8236 12.1391 41.0602 12.8962L44.6565 28.37C44.7512 29.1744 44.5619 29.9788 44.0887 30.6413L34.1041 42.9919C33.5836 43.7017 32.7791 44.0803 31.9274 43.9857H16.0278C15.2233 43.9383 14.4189 43.5598 13.851 42.9919L3.86644 30.6413C3.39323 29.9788 3.20395 29.1744 3.34591 28.37L6.89494 12.8016C7.08422 11.9971 7.60474 11.382 8.31454 11.0507L22.7472 4.09464C23.1258 4 23.5517 4 23.9302 4C24.3088 4 24.7347 4.04732 25.1133 4.2366L39.546 11.1454ZM38.7416 27.7075C38.7416 27.7548 38.7889 27.7548 38.8363 27.7548C39.2621 27.8494 39.6407 28.228 39.688 28.7485C39.5461 29.1271 39.1675 29.411 38.7416 29.411C38.647 29.411 38.5997 29.411 38.505 29.3637C38.4577 29.3164 38.4577 29.3164 38.4104 29.3164C38.3549 29.3164 38.3157 29.3001 38.2833 29.2867C38.2603 29.2772 38.2407 29.269 38.2211 29.269C38.0807 29.2339 37.9663 29.1728 37.8394 29.105C37.7952 29.0813 37.7495 29.0569 37.7006 29.0324C37.6059 29.0324 37.5113 28.9851 37.4166 28.9378H37.3693C36.8961 28.7485 36.3756 28.6066 35.8551 28.5119H35.8078C35.6658 28.5119 35.5238 28.5592 35.4292 28.6539C35.4292 28.6539 35.4292 28.7012 35.3819 28.7012L35.0033 28.6539C34.1515 31.3511 32.3061 33.6225 29.8927 35.0894L30.0347 35.468C30.0347 35.468 29.9874 35.468 29.9874 35.5153C29.8927 35.6573 29.8927 35.8466 29.94 35.9885C30.1293 36.4617 30.3659 36.9349 30.6972 37.3608V37.4555C30.7918 37.5501 30.8391 37.5974 30.8864 37.6921C31.0284 37.834 31.123 37.976 31.2177 38.1653C31.265 38.2126 31.3123 38.2599 31.3123 38.3072C31.3123 38.3072 31.3596 38.3072 31.3596 38.3545C31.4543 38.5911 31.4543 38.8277 31.407 39.0643C31.3596 39.3009 31.1704 39.4902 30.9811 39.5849C30.9515 39.5947 30.9239 39.6046 30.8975 39.6141C30.7976 39.6499 30.7149 39.6795 30.6025 39.6795C30.224 39.6795 29.8927 39.4429 29.7034 39.1117C29.6561 39.1117 29.6561 39.0643 29.6561 39.0643C29.6325 39.0407 29.6206 39.017 29.6088 38.9934C29.597 38.9697 29.5851 38.946 29.5615 38.9224C29.4668 38.7804 29.4195 38.5911 29.3722 38.4019L29.2776 38.1179V38.0706C29.1356 37.5501 28.899 37.0769 28.6624 36.6037C28.5677 36.4617 28.4258 36.3671 28.2838 36.3198C28.2838 36.2961 28.2838 36.2843 28.2779 36.2784C28.272 36.2724 28.2602 36.2724 28.2365 36.2724L28.0472 35.9412C27.9268 35.9773 27.8033 36.0165 27.6776 36.0564C27.3091 36.1734 26.921 36.2965 26.533 36.3671C25.6812 36.6037 24.8294 36.6983 23.9777 36.6983C22.5581 36.6983 21.1858 36.4617 19.8608 35.9412L19.6715 36.3198C19.6715 36.3434 19.6715 36.3553 19.6656 36.3612C19.6597 36.3671 19.6479 36.3671 19.6242 36.3671C19.4823 36.4144 19.3403 36.509 19.2456 36.651C19.009 37.1242 18.7724 37.5974 18.6305 38.1179L18.5358 38.4019C18.5122 38.4965 18.4767 38.5793 18.4412 38.6621C18.4057 38.7449 18.3702 38.8277 18.3466 38.9224C18.2992 38.9697 18.2519 39.017 18.2519 39.0643C18.2046 39.0643 18.2046 39.1117 18.2046 39.1117C18.0153 39.4429 17.6841 39.6795 17.3055 39.6795C17.2109 39.6795 17.0689 39.6322 16.9743 39.5849C16.5484 39.3483 16.3591 38.7804 16.5957 38.3072C16.643 38.3072 16.643 38.2599 16.643 38.2599C16.6667 38.2362 16.6785 38.2126 16.6904 38.1889C16.7022 38.1653 16.714 38.1416 16.7377 38.1179C16.7999 38.0349 16.8531 37.952 16.9011 37.8769C16.9626 37.7809 17.0158 37.6979 17.0689 37.6447C17.1636 37.5501 17.2109 37.5028 17.2582 37.4081V37.3608C17.5421 36.9349 17.826 36.4617 18.0153 35.9885C18.0626 35.8466 18.0626 35.6573 17.968 35.5153C17.968 35.5153 17.9207 35.5153 17.9207 35.468L18.1573 35.1368C17.6841 34.9002 17.3055 34.6162 16.8796 34.285C15.0341 32.8654 13.7092 30.9253 12.9994 28.7485L12.5735 28.7958C12.5735 28.7958 12.5735 28.7485 12.5262 28.7485C12.4315 28.6539 12.2896 28.6066 12.1476 28.6066H12.1003C11.5324 28.7012 11.0592 28.8432 10.5387 29.0324H10.4914C10.3967 29.0324 10.3021 29.0798 10.2075 29.1271C10.1546 29.1447 10.0952 29.1689 10.0317 29.1947C9.92457 29.2383 9.80576 29.2867 9.68694 29.3164C9.67262 29.3164 9.64961 29.312 9.6245 29.3073C9.56667 29.2964 9.49766 29.2834 9.49766 29.3164C9.49766 29.3637 9.49766 29.3637 9.45034 29.3637C9.3557 29.411 9.30838 29.411 9.21374 29.411C8.78786 29.4583 8.36198 29.1744 8.26733 28.7485C8.17269 28.228 8.50394 27.7548 9.02446 27.6601C9.05167 27.6329 9.06323 27.6214 9.07715 27.6165C9.08743 27.6128 9.09899 27.6128 9.1191 27.6128C9.17454 27.6128 9.21374 27.5966 9.24622 27.5831C9.26918 27.5736 9.28878 27.5655 9.30838 27.5655C9.40302 27.5655 9.49766 27.5537 9.5923 27.5418C9.68694 27.53 9.78158 27.5182 9.87623 27.5182C9.97087 27.4709 10.0655 27.4709 10.1601 27.4709C10.728 27.4235 11.2485 27.3289 11.769 27.1869C11.911 27.0923 12.053 26.9977 12.1003 26.8557C12.1003 26.8557 12.1476 26.8557 12.1476 26.8084L12.5262 26.7137C12.1003 24.0165 12.7154 21.2719 14.1824 18.9532C14.206 18.9059 14.2297 18.8704 14.2534 18.8349C14.277 18.7994 14.3007 18.7639 14.3243 18.7166L14.0496 18.4419C14.0712 18.3058 13.9848 18.1405 13.8985 18.0541C13.5199 17.6756 13.0467 17.3916 12.5735 17.1077L12.2896 16.9658C12.1003 16.8711 11.911 16.7765 11.769 16.6818C11.7217 16.6818 11.6271 16.5872 11.6271 16.5872C11.6271 16.5872 11.6271 16.5399 11.5798 16.5399C11.2012 16.2086 11.1066 15.6408 11.3905 15.2149C11.5324 14.9783 11.769 14.8837 12.053 14.8837C12.2896 14.8837 12.5262 14.9783 12.7154 15.1203L12.7628 15.1676C12.7864 15.1912 12.8101 15.2031 12.8337 15.2149C12.8574 15.2267 12.8811 15.2386 12.9047 15.2622C12.9757 15.3332 13.0349 15.4042 13.094 15.4752C13.1532 15.5461 13.2123 15.6171 13.2833 15.6881C13.2976 15.7024 13.3163 15.7168 13.3367 15.7324C13.3836 15.7684 13.4396 15.8114 13.4726 15.8774C13.8038 16.256 14.2297 16.6345 14.6556 16.9658C14.7502 17.0131 14.8449 17.0604 14.9395 17.0604C14.9949 17.0604 15.0341 17.0442 15.0666 17.0307C15.0896 17.0212 15.1092 17.0131 15.1288 17.0131H15.1761L15.46 17.2024C17.0216 15.5461 19.0564 14.3631 21.2804 13.8899C21.3624 13.8763 21.4434 13.8626 21.5235 13.8491C21.9985 13.769 22.4439 13.6938 22.8893 13.6533L22.9366 13.2748V13.1801C23.0786 13.0855 23.1259 12.9435 23.1732 12.8016C23.1732 12.2337 23.1732 11.7132 23.0786 11.1927V11.1454C23.0786 11.0507 23.0786 10.9561 23.0313 10.8614C22.984 10.6722 22.9366 10.4829 22.9366 10.2936V10.057C22.9366 9.82039 23.0313 9.58379 23.2206 9.39451C23.4572 9.15791 23.7411 9.01595 24.025 9.06327C24.4982 9.11059 24.8768 9.58379 24.8294 10.057V10.3409C24.8058 10.4356 24.794 10.5302 24.7821 10.6248C24.7703 10.7195 24.7585 10.8141 24.7348 10.9088C24.7348 10.9561 24.723 11.0034 24.7111 11.0507C24.6993 11.098 24.6875 11.1454 24.6875 11.1927V11.24C24.5928 11.8078 24.5928 12.3284 24.5928 12.8489C24.6402 12.9909 24.6875 13.1328 24.8294 13.2275V13.1801L24.8768 13.5587C27.1008 13.7953 29.2776 14.6471 31.0284 16.0194C31.2177 16.2086 31.4188 16.3979 31.6199 16.5872C31.821 16.7765 32.0221 16.9658 32.2114 17.155L32.59 16.9184H32.6373C32.6846 16.9658 32.7793 16.9658 32.8266 16.9658C32.9212 16.9658 33.0159 16.9184 33.1105 16.8711C33.5364 16.5872 33.9623 16.2086 34.2935 15.8301C34.3078 15.8157 34.3265 15.8014 34.3469 15.7858C34.3938 15.7498 34.4498 15.7068 34.4828 15.6408C34.5774 15.4988 34.7194 15.3569 34.8614 15.2149C34.9087 15.2149 34.956 15.1676 35.0033 15.1203L35.0506 15.0729C35.2399 14.931 35.4765 14.8363 35.7131 14.8363C35.9497 14.8363 36.2336 14.9783 36.3756 15.1676C36.7068 15.5935 36.6122 16.1613 36.1863 16.4926C36.1863 16.5106 36.1932 16.5218 36.1991 16.5313C36.2087 16.5468 36.2156 16.558 36.1863 16.5872C36.1627 16.6109 36.139 16.6227 36.1153 16.6345C36.0917 16.6463 36.068 16.6582 36.0444 16.6818C35.9497 16.7292 35.8669 16.7765 35.7841 16.8238C35.7013 16.8711 35.6185 16.9184 35.5238 16.9658L35.2399 17.1077C34.7667 17.3916 34.3408 17.6756 33.9149 18.0541C33.8203 18.1488 33.773 18.338 33.773 18.48V18.5273L33.4891 18.8112C34.2462 19.9943 34.814 21.3192 35.1453 22.6915C35.4292 24.0638 35.5238 25.4834 35.3346 26.8557L35.7131 26.9503C35.7604 27.0923 35.9024 27.2343 36.0444 27.2816C36.5649 27.4235 37.1327 27.5182 37.6532 27.5655H37.7006C37.7952 27.6128 37.8899 27.6128 37.9845 27.6128C38.1738 27.6128 38.3631 27.6128 38.5523 27.6601C38.647 27.6601 38.7416 27.6601 38.7416 27.7075ZM14.0496 18.4419L14.0404 18.4327V18.48C14.0445 18.4676 14.0476 18.4549 14.0496 18.4419Z" fill="#324558"/>
</svg>
