<svg width="48" height="48" viewBox="0 0 48 48" fill="none" xmlns="http://www.w3.org/2000/svg">
<path d="M39.4283 27.8205C39.4998 27.8553 39.557 27.9136 39.5903 27.9858C39.6237 28.0579 39.631 28.1393 39.6111 28.2163L38.6503 30.7654C38.6311 30.8403 38.5872 30.9065 38.5257 30.9534C38.4643 31.0003 38.3888 31.0251 38.3115 31.0238L34.4167 30.6432C34.312 30.6449 34.1462 30.6299 33.954 30.8524C33.9243 30.8869 32.7087 32.4073 32.3235 32.8247C32.1918 32.9427 32.1457 33.1001 32.1772 33.2931L33.0973 36.9539C33.1163 37.0272 33.1106 37.1047 33.0811 37.1745C33.0516 37.2442 32.9999 37.3023 32.934 37.3396L30.4123 38.8241C30.344 38.8629 30.2645 38.8772 30.187 38.8645C30.1095 38.8518 30.0387 38.813 29.9863 38.7545L27.404 35.9116C27.318 35.8191 27.1455 35.7459 27.0255 35.7851L24.2838 36.1836C24.1498 36.202 24.0727 36.2895 24.0167 36.3777L22.3603 39.8436C22.3205 39.9081 22.2604 39.9577 22.1895 39.9845C22.1186 40.0113 22.0407 40.014 21.9682 39.992L19.187 39.3344C19.1204 39.3143 19.0615 39.2744 19.018 39.2202C18.9745 39.1659 18.9485 39.0997 18.9433 39.0303C18.9401 38.9843 18.9461 38.9382 18.9608 38.8945L20.4295 33.4871C20.4454 33.4411 20.4702 33.3987 20.5025 33.3622C20.5347 33.3258 20.5739 33.2961 20.6177 33.2749C20.6615 33.2536 20.709 33.2412 20.7576 33.2383C20.8062 33.2355 20.8549 33.2423 20.9008 33.2582L20.9063 33.2566C22.366 33.7328 23.9175 33.8571 25.4343 33.6193C29.3047 33.0032 32.4283 30.1267 33.361 26.3198L33.3793 26.252C33.4255 26.053 33.674 25.9475 33.8732 25.9936C33.8732 25.9936 38.6538 27.6167 39.3625 27.7965C39.3851 27.8023 39.4073 27.8104 39.4283 27.8205ZM13.2317 12.3148C13.2734 12.3343 13.3109 12.3622 13.3417 12.3965L17.3283 16.3249C17.3607 16.3612 17.3856 16.4036 17.4015 16.4496C17.4175 16.4956 17.4242 16.5442 17.4214 16.5928C17.4185 16.6414 17.406 16.689 17.3848 16.7327C17.3635 16.7765 17.3338 16.8157 17.2973 16.8479L17.296 16.8536C16.167 17.8941 15.2999 19.1868 14.7657 20.6263C13.4103 24.3039 14.3917 28.4356 17.2557 31.111L17.3145 31.177C17.4655 31.3148 17.4275 31.5662 17.2898 31.7172C17.2898 31.7172 13.5478 35.0915 13.0445 35.6219C13.0133 35.6547 12.976 35.6811 12.9346 35.6995C12.8932 35.7179 12.8485 35.7279 12.8033 35.729C12.758 35.73 12.7129 35.7222 12.6707 35.7058C12.6285 35.6894 12.5899 35.6649 12.5572 35.6336L10.8037 33.5488C10.7478 33.4954 10.7115 33.4248 10.7007 33.3483C10.6899 33.2718 10.7051 33.1938 10.744 33.1271L12.969 29.9178C13.0185 29.8256 13.1128 29.6884 13.0127 29.4119C12.9973 29.3692 12.2657 27.565 12.09 27.0249C12.0513 26.8524 11.9367 26.7352 11.753 26.6682L8.12152 25.6781C8.04827 25.6589 7.98341 25.616 7.93701 25.5561C7.8906 25.4963 7.86524 25.4228 7.86486 25.347L7.80352 22.4213C7.80312 22.3428 7.8296 22.2664 7.87856 22.205C7.92752 22.1436 7.99603 22.1007 8.07269 22.0836L11.8033 21.2235C11.9262 21.194 12.0742 21.0792 12.0987 20.9553L13.0917 18.3688C13.1413 18.2429 13.103 18.1326 13.0533 18.0408L10.8517 14.8982C10.8149 14.8318 10.8011 14.7552 10.8124 14.6802C10.8236 14.6052 10.8594 14.536 10.914 14.4835L12.8477 12.3788C12.8978 12.3306 12.9613 12.2987 13.0298 12.2872C13.0984 12.2758 13.1687 12.2855 13.2317 12.3148ZM30.716 9.40279C30.734 9.40954 30.7515 9.41773 30.7682 9.42729L33.3323 10.8366C33.4006 10.8756 33.4534 10.9367 33.4821 11.0098C33.5108 11.083 33.5137 11.1637 33.4902 11.2387L32.358 14.9025C32.3223 15.0237 32.3477 15.2094 32.4427 15.2926L34.186 17.4458C34.2702 17.5519 34.3848 17.5737 34.4893 17.5767L38.3226 17.2385C38.3985 17.2398 38.4717 17.2661 38.531 17.3133C38.5903 17.3606 38.6324 17.4261 38.6506 17.4997L39.5063 20.2269C39.5231 20.2944 39.519 20.3654 39.4946 20.4305C39.4702 20.4957 39.4266 20.5519 39.3696 20.5918C39.3319 20.6181 39.289 20.6366 39.244 20.6461L33.8373 22.1373C33.7897 22.1471 33.7406 22.1475 33.6928 22.1383C33.645 22.1292 33.5995 22.1107 33.5589 22.0839C33.5183 22.0571 33.4833 22.0226 33.4561 21.9823C33.4288 21.942 33.4097 21.8968 33.4 21.8491C33.3984 21.848 33.397 21.8466 33.3958 21.8451C33.0594 20.3469 32.3735 18.9494 31.3942 17.7669C28.8873 14.7543 24.8188 13.5383 21.0703 14.6815L21.0033 14.702C20.8085 14.7638 20.59 14.6025 20.5283 14.4076C20.5283 14.4076 19.489 9.47697 19.2815 8.77587C19.2686 8.73245 19.2644 8.6869 19.2692 8.64184C19.2739 8.59679 19.2875 8.55312 19.3092 8.51334C19.3309 8.47357 19.3602 8.43847 19.3955 8.41006C19.4308 8.38165 19.4714 8.3605 19.5148 8.34782L22.197 7.87142C22.2712 7.84971 22.3504 7.85361 22.4221 7.88249C22.4938 7.91137 22.5536 7.96355 22.592 8.03061L24.2468 11.5649C24.3018 11.6539 24.3735 11.8043 24.6632 11.8556C24.7078 11.8636 26.6357 12.132 27.1913 12.25C27.36 12.3027 27.519 12.2622 27.6687 12.1366L30.3532 9.48363C30.3995 9.43679 30.4584 9.40425 30.5227 9.38989C30.587 9.37552 30.6541 9.38011 30.716 9.40279ZM30.7017 5.15673C26.2607 3.57664 21.4044 3.61649 16.99 5.26925C6.64819 9.14142 1.40303 20.6651 5.27453 31.0083C9.14619 41.3513 20.6682 46.5973 31.01 42.7253C41.3518 38.8533 46.597 27.3296 42.7255 16.9865C41.704 14.2576 40.0987 11.785 38.0218 9.74157C35.9449 7.69817 33.4465 6.13339 30.7017 5.15673Z" fill="#324558"/>
</svg>
