<svg width="48" height="48" viewBox="0 0 48 48" fill="none" xmlns="http://www.w3.org/2000/svg">
<path d="M4.352 5.62793C4.818 6.46793 5.304 7.18793 5.812 7.80793C6.306 7.78193 8.076 8.71993 8.436 8.85393C9.452 9.41793 10.562 10.1139 11.57 10.7859C12.58 11.4599 13.49 12.1099 14.114 12.5859C14.426 12.8259 14.67 13.0219 14.818 13.1579C14.8762 13.2063 14.9286 13.2613 14.974 13.3219C14.9827 13.3349 14.9894 13.349 14.994 13.3639C14.9991 13.3793 15.001 13.3956 14.9996 13.4117C14.9983 13.4279 14.9936 13.4436 14.986 13.4579C14.9781 13.4734 14.9668 13.4868 14.9529 13.4972C14.9391 13.5076 14.923 13.5147 14.906 13.5179C14.8875 13.5214 14.8685 13.5214 14.85 13.5179C14.736 13.5179 14.444 13.1919 13.856 12.6879C12.1049 11.3416 10.261 10.1206 8.338 9.03393C7.33 8.47393 6.426 7.94993 5.81 7.80793C5.57166 7.77261 5.33093 7.75589 5.09 7.75793C4.5544 7.76811 4.02327 7.85775 3.514 8.02393C4.502 8.85193 5.334 9.45593 6.074 9.92193C4.934 9.55793 3.71 9.50193 2.27 10.1879C3.322 10.8459 4.204 11.3219 4.978 11.6779C7.184 11.9899 9.494 13.0699 11.426 14.2959C12.392 14.9099 13.234 15.5259 13.864 16.0299C14.178 16.2799 14.444 16.5039 14.644 16.6859C14.84 16.8679 14.992 16.9939 15.038 17.1059C15.098 17.2519 15 17.3139 14.87 17.2219C14.806 17.1779 14.694 17.0179 14.502 16.8399C14.2536 16.6132 13.9974 16.3951 13.734 16.1859C13.11 15.6859 12.276 15.0819 11.316 14.4719C9.53 13.3479 6.852 12.4459 4.97 11.6779C3.766 11.4579 2.52 11.5579 1.158 12.4579C2.056 12.8579 2.832 13.1559 3.522 13.3839C5.146 13.3839 7.306 14.1139 9.392 15.2279C11.476 16.3399 13.472 17.6559 14.438 18.7759C14.57 18.9299 14.406 19.0279 14.29 18.9159C13.25 17.9259 11.364 16.5079 9.294 15.4039C8.016 14.7299 4.988 13.3839 3.522 13.3839L3.53 13.3879C2.396 13.4279 1.27 13.7779 0.172 14.8199C1.126 15.0559 1.942 15.2119 2.66 15.3179C1.78 15.4939 0.92 15.9179 0.082 16.7619C0.73 16.9019 1.314 17.0059 1.846 17.0859C1.19 17.4039 0.568 17.8939 0 18.6459C0.746 18.7059 1.406 18.7299 2 18.7339C1.28 19.0659 0.608 19.5939 0.008 20.4339C1.074 20.4879 1.968 20.4839 2.736 20.4399C1.892 20.7839 1.112 21.3679 0.446 22.3759C1.77 22.3959 2.822 22.3319 3.702 22.2239L3.69 22.2279C5.67 22.0819 8.284 22.4819 9.614 23.9219C9.718 24.0359 9.566 24.1579 9.47 24.0699C8.174 22.9099 6.484 22.4159 3.69 22.2279H3.686C2.6 22.5259 1.594 23.1199 0.766 24.3759C1.838 24.3919 2.73 24.3499 3.498 24.2759C2.56 24.7899 1.752 25.5639 1.22 26.8879C2.186 26.7039 2.996 26.5079 3.694 26.3039C2.968 26.8339 2.358 27.5759 1.948 28.6919C2.596 28.5479 3.172 28.3999 3.69 28.2499C3.17526 28.8858 2.82312 29.6375 2.664 30.4399C3.368 30.1799 3.974 29.9319 4.516 29.6859C4.002 30.2859 3.61 31.0479 3.416 32.0659C4.406 31.6679 5.214 31.2899 5.892 30.9299C5.272 31.5959 4.806 32.4499 4.622 33.6419C5.61629 33.2126 6.5799 32.7154 7.506 32.1539C6.64 32.8779 5.978 33.8399 5.748 35.3279C7.324 34.6319 8.426 34.0019 9.282 33.4179C8.914 34.1619 8.718 35.0299 8.812 36.1139C10.336 34.9459 11.298 34.0019 12.016 33.1679C11.968 33.7059 12.01 34.2879 12.17 34.9359C13.262 33.0579 14.348 32.5119 15.47 31.8839C13.68 32.7859 13.946 33.4639 13.946 34.2519C15.312 32.8119 17.216 31.2879 17.8 30.3319C17.02 31.5019 16.706 32.6119 16.5 33.5919C12.514 35.6999 10.086 36.2499 7.364 37.0919C8.42 37.4799 9.55 37.8579 9.082 38.3959L7.834 39.6399C8.632 39.3919 9.444 39.0399 10.15 39.5219C10.08 40.1759 9.256 40.5059 8.55 40.8879C9.792 40.4399 10.062 40.5439 10.39 40.6479C10.552 41.4339 9.984 41.8539 9.614 42.3719C12.744 39.9919 16.826 38.1119 19.702 37.3279C23.746 35.9659 28.962 34.5499 30.38 31.0979L31.804 25.4039L31.796 25.4119C31.574 25.3439 31.304 25.2859 31.096 25.1459C30.8839 24.9989 30.7203 24.7921 30.626 24.5519C30.122 24.6819 29.746 24.6119 29.506 24.3759C29.272 24.1419 29.172 23.7839 29.1 23.3939C28.694 23.4759 28.376 23.4259 28.166 23.2399C27.934 23.0379 27.826 22.7199 27.77 22.3519L27.754 22.2739L27.828 22.2439C28.0549 22.1595 28.2609 22.0272 28.432 21.8559C28.4895 21.7975 28.5323 21.7262 28.5566 21.6479C28.581 21.5696 28.5862 21.4867 28.572 21.4059L28.56 21.3319L28.62 21.2999C28.946 21.1139 29.31 20.9619 29.476 20.7399C29.5213 20.6808 29.554 20.6131 29.5723 20.5408C29.5905 20.4686 29.5938 20.3935 29.582 20.3199C29.5333 20.0618 29.4273 19.8178 29.272 19.6059L29.218 19.5259L29.298 19.4719C29.534 19.2919 29.786 19.1139 29.914 18.9519C29.978 18.8719 30.01 18.7999 30.008 18.7319C30.008 18.6659 29.978 18.5919 29.88 18.4979L29.684 18.3099L29.954 18.3219C30.38 18.3419 30.744 18.3079 31.03 18.2159C31.2525 18.1515 31.446 18.0123 31.578 17.8219C31.564 17.7559 31.538 17.6959 31.538 17.6259C31.5493 17.3771 31.6561 17.1422 31.8363 16.9701C32.0164 16.798 32.2559 16.7019 32.505 16.7019C32.7541 16.7019 32.9936 16.798 33.1737 16.9701C33.3539 17.1422 33.4607 17.3771 33.472 17.6259C33.472 17.7139 33.442 17.7939 33.42 17.8759C33.774 17.9039 34.114 17.8959 34.434 17.7559L34.438 17.7579L34.508 17.7319C34.98 17.5619 35.176 17.8219 35.948 16.8199C32.568 12.4399 27.634 15.5499 25.994 20.0639C25.574 21.2159 23.184 21.2199 22.492 20.0639C19.752 14.1639 11.432 7.92793 4.352 5.62793ZM6.072 9.91793C7.884 10.5039 9.898 11.4819 11.612 12.5739C12.472 13.1199 13.238 13.6599 13.84 14.1319C14.442 14.6039 14.972 15.0779 15.08 15.2819C15.188 15.4859 15.08 15.5619 14.916 15.4019C14.754 15.2459 14.31 14.7619 13.716 14.2959C13.12 13.8279 12.356 13.2859 11.504 12.7419C9.954 11.7619 7.54 10.8259 6.072 9.91793ZM2.672 15.3179C4.904 15.3459 7.372 16.2119 9.54 17.3119C10.622 17.8619 11.586 18.4459 12.33 18.9719C13.074 19.4979 13.674 20.0199 13.798 20.2859C13.92 20.5539 13.758 20.5459 13.624 20.3959C13.2008 19.9294 12.7288 19.5097 12.216 19.1439C11.3326 18.529 10.4069 17.9769 9.446 17.4919C7.52 16.5279 4.878 15.6399 2.672 15.3199V15.3179ZM32.504 16.8619C32.4039 16.8619 32.3048 16.8816 32.2124 16.9199C32.1199 16.9582 32.0359 17.0144 31.9652 17.0851C31.8944 17.1559 31.8383 17.2399 31.8 17.3323C31.7617 17.4248 31.742 17.5239 31.742 17.6239C31.742 17.724 31.7617 17.8231 31.8 17.9155C31.8383 18.008 31.8944 18.092 31.9652 18.1627C32.0359 18.2335 32.1199 18.2896 32.2124 18.3279C32.3048 18.3662 32.4039 18.3859 32.504 18.3859C32.7061 18.3859 32.8999 18.3056 33.0428 18.1627C33.1857 18.0198 33.266 17.826 33.266 17.6239C33.266 17.4218 33.1857 17.228 33.0428 17.0851C32.8999 16.9422 32.7061 16.8619 32.504 16.8619ZM3.4 16.9559C5.044 17.0999 6.84 17.6919 8.468 18.4559C10.64 19.4739 12.538 20.7719 13.336 21.7899C13.406 21.8799 13.308 22.0519 13.176 21.9139C12.32 21.0339 10.532 19.6519 8.382 18.6439C6.556 17.8019 3.818 16.9039 1.858 17.0839C2.36 17.0239 2.852 16.9079 3.4 16.9559ZM36.078 16.9759C35.346 17.9259 35.018 17.8219 34.672 17.9039C34.86 18.7639 35.372 19.0759 35.842 19.4439L35.722 19.4679C40.352 18.5739 44.094 18.8959 48 18.9959L36.078 16.9759ZM35.722 19.4679H35.718L35.71 19.4999L35.722 19.4679ZM34.472 17.9539C34.106 18.1019 33.726 18.1059 33.346 18.0719C33.2668 18.227 33.1466 18.3575 32.9986 18.4491C32.8505 18.5408 32.6801 18.5902 32.506 18.5919C32.3232 18.591 32.1445 18.5383 31.9905 18.4399C31.8365 18.3415 31.7136 18.2014 31.636 18.0359C31.4917 18.2096 31.302 18.3398 31.088 18.4119C30.81 18.5019 30.472 18.5259 30.102 18.5219C30.142 18.5919 30.21 18.6579 30.212 18.7299C30.2084 18.8586 30.1596 18.9818 30.074 19.0779C29.928 19.2619 29.696 19.4179 29.484 19.5739C29.658 19.8559 29.758 20.0939 29.782 20.2979C29.8108 20.4983 29.7606 20.7019 29.642 20.8659C29.43 21.1459 29.066 21.2859 28.764 21.4519C28.7764 21.6473 28.7118 21.8397 28.584 21.9879C28.4148 22.1587 28.2127 22.2934 27.99 22.3839C28.044 22.6959 28.138 22.9499 28.298 23.0919C28.47 23.2439 28.72 23.2979 29.148 23.1859L29.258 23.1579L29.278 23.2679C29.344 23.6819 29.454 24.0379 29.652 24.2339C29.852 24.4319 30.14 24.5039 30.658 24.3439L30.756 24.3139L30.788 24.4099C30.888 24.6939 31.028 24.8559 31.206 24.9739C31.38 25.0939 31.7 25.1979 31.922 25.2679C33.518 23.5299 34.972 21.7239 35.69 19.5479C35.24 19.1939 34.678 18.8719 34.472 17.9539ZM2.012 18.7259C4.342 18.5659 6.578 19.1179 8.416 19.9779C10.256 20.8379 11.732 21.8559 12.364 22.5919C12.514 22.7659 12.326 22.8319 12.22 22.7359C11.052 21.6943 9.74063 20.8254 8.326 20.1559C6.518 19.3279 3.94 18.8679 2.012 18.7259ZM3.74 20.3299C4.96 20.3699 6.22 20.6399 7.352 21.0339C8.864 21.5579 10.194 22.2619 10.846 22.9939C10.936 23.0939 10.832 23.2479 10.698 23.1319C10 22.5239 8.776 21.7459 7.286 21.2299C6.138 20.8399 4.06 20.4919 2.75 20.4359C3.144 20.3919 3.334 20.3159 3.74 20.3299ZM5.84 23.9059C6.686 23.9739 7.612 24.1719 8.522 24.7199C8.608 24.7719 8.62 24.9919 8.424 24.8999C6.712 24.0959 5.772 23.9199 3.51 24.2799C4.282 24.0239 4.99 23.8379 5.838 23.9059H5.84ZM5.76 25.4819C6.56 25.4119 7.328 25.4779 8.354 25.8899C8.442 25.9259 8.514 26.1419 8.288 26.0779C6.574 25.5919 5.954 25.4219 3.714 26.2859C4.274 25.8279 4.958 25.5539 5.76 25.4819ZM8.33 26.8559C8.964 26.8099 9.6 26.8039 10.198 26.8679C10.302 26.8799 10.308 27.0779 10.186 27.0719C8.95655 27.0046 7.72346 27.0818 6.512 27.3019C6.026 27.3939 5.666 27.3879 3.702 28.2179C4.276 27.7519 5.29 27.3139 6.472 27.0979C7.08736 26.9853 7.70822 26.9052 8.332 26.8579L8.33 26.8559ZM10.89 27.8359C11.088 27.8419 11.014 28.0439 10.902 28.0419C9.446 28.0219 8.294 28.3059 7.152 28.6319C6.24907 28.9177 5.36809 29.2686 4.516 29.6819C5.082 29.2219 5.942 28.7679 7.098 28.4379C8.256 28.1059 9.594 27.7859 10.89 27.8339V27.8359ZM11.946 28.6319C12.018 28.6219 12.156 28.7999 11.982 28.8319C10.522 29.1059 9.494 29.3659 8.394 29.7399C7.962 29.8879 7.234 30.1539 5.908 30.9139C6.428 30.3759 7.22 29.9299 8.334 29.5539C9.45 29.1739 10.726 28.8139 11.946 28.6339V28.6319ZM12.568 29.6459C12.718 29.6219 12.762 29.8199 12.608 29.8499C10.174 30.3319 9.088 30.9619 7.528 32.1379C8.536 31.0919 10.122 30.0359 12.568 29.6459ZM13.758 30.5419C13.932 30.5159 13.978 30.7159 13.8 30.7419C12.056 31.0019 10.846 31.8479 9.29 33.4019C9.88 32.4159 11.298 30.9219 13.758 30.5419ZM14.502 31.3219C14.594 31.3099 14.73 31.4679 14.548 31.5219C14.0762 31.6586 13.6258 31.8605 13.21 32.1219C12.846 32.3579 12.61 32.5219 12.016 33.1359C12.238 32.6459 12.608 32.2679 13.1 31.9559C13.594 31.6419 14.118 31.3699 14.5 31.3219H14.502Z" fill="#324558"/>
</svg>
