<svg width="48" height="48" viewBox="0 0 48 48" fill="none" xmlns="http://www.w3.org/2000/svg">
<path d="M23.7192 12.5952C23.8043 12.6382 23.8724 12.7413 23.9746 12.7413C24.0682 12.7413 24.213 12.7069 24.2215 12.6124C24.2385 12.4921 24.0597 12.4148 23.9491 12.3632C23.8043 12.3031 23.617 12.2773 23.4808 12.3546C23.4467 12.3718 23.4127 12.4148 23.4297 12.4492C23.4553 12.5609 23.6255 12.5437 23.7192 12.5952ZM21.8547 12.7413C21.9569 12.7413 22.025 12.6382 22.1101 12.5952C22.2037 12.5437 22.374 12.5609 22.4081 12.4577C22.4251 12.4234 22.391 12.3804 22.357 12.3632C22.2208 12.2859 22.0335 12.3117 21.8887 12.3718C21.7781 12.4234 21.5993 12.5007 21.6163 12.621C21.6248 12.7069 21.7695 12.7499 21.8547 12.7413ZM40.6784 36.6987C40.3719 36.355 40.2272 35.7019 40.0654 35.0059C39.9122 34.3098 39.7334 33.5622 39.1715 33.081C39.0608 32.9865 38.9501 32.9006 38.831 32.8318C38.7203 32.7631 38.6011 32.7029 38.4819 32.66C39.2651 30.3141 38.9587 27.9768 38.1669 25.8629C37.1963 23.2764 35.5021 21.0164 34.208 19.4697C32.7522 17.6222 31.3389 15.8692 31.3645 13.2827C31.407 9.33848 31.7987 2.00862 24.9111 2.00002C16.1931 1.98284 18.3726 10.8852 18.2789 13.6178C18.1342 15.6286 17.7341 17.2097 16.3634 19.1775C14.7543 21.1109 12.4896 24.2302 11.4169 27.487C10.9061 29.0251 10.6677 30.5891 10.8891 32.0671C10.3357 32.5654 9.91852 33.3302 9.47581 33.8028C9.11823 34.1723 8.5989 34.3098 8.02848 34.5161C7.45806 34.7223 6.83657 35.0317 6.45345 35.7621C6.27466 36.0972 6.21507 36.4581 6.21507 36.8276C6.21507 37.1627 6.26615 37.5064 6.31723 37.8416C6.4194 38.5376 6.53007 39.1907 6.38534 39.6289C5.94263 40.8663 5.88303 41.7256 6.19804 42.3529C6.52156 42.9802 7.1686 43.2552 7.90929 43.4099C9.38215 43.7192 11.3829 43.6419 12.9579 44.484C14.6436 45.3777 16.3549 45.6956 17.717 45.3777C18.7046 45.1542 19.5134 44.5527 19.9221 43.6419C20.9863 43.6333 22.1612 43.1778 24.0342 43.0747C25.3027 42.9716 26.8948 43.5302 28.7252 43.427C28.7763 43.6247 28.8444 43.8223 28.9381 44.0028V44.0114C29.6447 45.4464 30.9643 46.0995 32.3691 45.9878C33.7823 45.8761 35.2722 45.0425 36.4812 43.5903C37.639 42.1811 39.5461 41.5967 40.8146 40.8234C41.4447 40.4367 41.9555 39.9555 41.998 39.2508C42.0321 38.5462 41.6234 37.7642 40.6784 36.6987ZM23.9661 9.50174C24.8004 7.59409 26.8778 7.62846 27.7121 9.46737C28.2655 10.6876 28.0186 12.1226 27.346 12.939C27.2098 12.8702 26.8437 12.7155 26.2733 12.5179C26.3669 12.4148 26.5372 12.2859 26.6053 12.1226C27.014 11.1086 26.5883 9.8025 25.8306 9.77672C25.2091 9.73376 24.6472 10.7048 24.826 11.7531C24.4769 11.5813 24.0257 11.4524 23.7192 11.375C23.634 10.7821 23.6936 10.1204 23.9661 9.50174ZM20.501 8.51355C21.3609 8.51355 22.2719 9.73376 22.1271 11.3922C21.8291 11.4781 21.5227 11.607 21.2587 11.7875C21.3609 11.0227 20.9778 10.0603 20.4414 10.1033C19.7263 10.1634 19.6071 11.925 20.2882 12.5179C20.3733 12.5866 20.4499 12.5007 19.7859 12.9905C18.4577 11.7359 18.8919 8.51354 20.501 8.51355ZM19.3432 13.7295C19.871 13.3342 20.501 12.8702 20.5436 12.8272C20.9437 12.4492 21.6929 11.607 22.9189 11.607C23.5234 11.607 24.247 11.8047 25.1239 12.3718C25.6603 12.7241 26.086 12.7499 27.048 13.171C27.7632 13.4717 28.2144 14.0045 27.942 14.7349C27.7206 15.345 27.0055 15.9723 26.0094 16.2902C25.0643 16.5996 24.3237 17.6651 22.7571 17.5706C22.4251 17.5534 22.1612 17.4847 21.9398 17.3901C21.2587 17.0894 20.9012 16.4965 20.2371 16.1012C19.5049 15.6887 19.1133 15.2075 18.9856 14.7865C18.8664 14.3654 18.9856 14.0131 19.3432 13.7295ZM19.6241 42.4303C19.3942 45.4464 15.8866 45.3863 13.2133 43.977C10.6677 42.6193 7.37293 43.4184 6.70035 42.0951C6.49602 41.6912 6.49602 41.0038 6.9217 39.8266V39.8094C7.12603 39.1563 6.97278 38.4345 6.87062 37.7556C6.76846 37.0854 6.71737 36.4667 6.94724 36.037C7.24522 35.4613 7.67091 35.2551 8.20727 35.066C9.08418 34.7481 9.21188 34.7739 9.87595 34.2153C10.3442 33.7255 10.6847 33.1068 11.0934 32.6686C11.5276 32.1959 11.9448 31.9725 12.6003 32.0756C13.2899 32.1788 13.8859 32.66 14.4648 33.4505L16.1335 36.5097C16.9423 38.2197 19.8029 40.6687 19.6241 42.4303ZM19.5049 40.2047C19.1559 39.6375 18.6876 39.036 18.2789 38.5204C18.8834 38.5204 19.4879 38.3314 19.7007 37.7556C19.8965 37.2229 19.7007 36.4753 19.0707 35.616C17.9214 34.052 15.81 32.8232 15.81 32.8232C14.6606 32.1014 14.0136 31.2163 13.7156 30.2539C13.4176 29.2915 13.4602 28.2517 13.6901 27.2292C14.1328 25.2614 15.2736 23.3451 16.0058 22.1421C16.2016 21.996 16.0739 22.4171 15.2651 23.9294C14.5414 25.3129 13.1878 28.5095 15.0437 31.0101C15.0948 29.2313 15.512 27.4182 16.2186 25.7254C17.2403 23.3709 19.3942 19.2892 19.5645 16.041C19.6582 16.1098 19.9561 16.316 20.0924 16.3934C20.484 16.6254 20.782 16.9691 21.1651 17.2784C22.2208 18.1377 23.5915 18.069 24.7749 17.3816C25.3027 17.0808 25.7284 16.7371 26.1285 16.6082C26.9714 16.3418 27.644 15.8692 28.0271 15.3192C28.6827 17.9315 30.2151 21.7039 31.1942 23.5428C31.7135 24.5224 32.7522 26.5933 33.2034 29.0939C33.4844 29.0853 33.7994 29.1282 34.1314 29.2142C35.3063 26.1465 33.1353 22.8381 32.1477 21.9187C31.7476 21.5234 31.7305 21.3515 31.9264 21.3601C32.9991 22.3226 34.4124 24.256 34.9232 26.43C35.1616 27.4268 35.2041 28.4666 34.9572 29.4977C36.3535 30.0821 38.0136 31.0359 37.5709 32.4881C37.3836 32.4795 37.2985 32.4881 37.2134 32.4881C37.4858 31.6202 36.8813 30.9757 35.2722 30.2453C33.6036 29.5063 32.2073 29.5063 32.0115 31.3195C30.9813 31.6804 30.4535 32.5826 30.1896 33.6654C29.9512 34.6278 29.8831 35.7878 29.815 37.094C29.7724 37.7556 29.5085 38.6407 29.236 39.586C26.5032 41.5538 22.7061 42.4131 19.5049 40.2047ZM41.4191 39.2165C41.3425 40.6601 37.9115 40.9265 36.0385 43.2122C34.9147 44.5613 33.5354 45.3089 32.3265 45.4034C31.1176 45.498 30.0704 44.991 29.4574 43.745C29.0573 42.7912 29.2531 41.76 29.551 40.6257C29.8661 39.4055 30.3343 38.1509 30.3939 37.1369C30.462 35.8308 30.5386 34.6879 30.7515 33.8114C30.9728 32.9264 31.3134 32.3334 31.9179 31.9983C31.9434 31.9811 31.9774 31.9725 32.003 31.9553C32.0711 33.0896 32.6245 34.2411 33.6036 34.4903C34.6763 34.7739 36.2173 33.8458 36.8728 33.0896C37.639 33.0638 38.2095 33.0123 38.7969 33.5279C39.6398 34.2583 39.4014 36.1316 40.2527 37.1026C41.1552 38.0994 41.4447 38.7782 41.4191 39.2165ZM19.6752 14.7779C19.8455 14.9411 20.0753 15.1646 20.3563 15.388C20.9182 15.8348 21.7014 16.2988 22.6805 16.2988C23.6681 16.2988 24.5961 15.7918 25.3879 15.3708C25.805 15.1474 26.3158 14.7693 26.6479 14.4771C26.9799 14.1849 27.1502 13.9357 26.9118 13.91C26.6734 13.8842 26.6905 14.1334 26.401 14.3482C26.0264 14.6232 25.5752 14.9841 25.2176 15.1903C24.5876 15.5512 23.5574 16.0668 22.672 16.0668C21.7866 16.0668 21.0799 15.6544 20.5521 15.2333C20.2882 15.0185 20.0668 14.8036 19.8965 14.6404C19.7688 14.5201 19.7348 14.2451 19.5305 14.2193C19.4113 14.2107 19.3772 14.5373 19.6752 14.7779Z" fill="#324558"/>
</svg>
