<svg width="48" height="48" viewBox="0 0 48 48" fill="none" xmlns="http://www.w3.org/2000/svg">
<path d="M44.54 38.77H3.46C3.00563 38.77 2.5557 38.6805 2.13592 38.5066C1.71613 38.3327 1.3347 38.0779 1.01341 37.7566C0.69212 37.4353 0.437258 37.0538 0.263377 36.6341C0.0894956 36.2143 0 35.7644 0 35.31V12.69C0 11.7723 0.364535 10.8923 1.01341 10.2434C1.66229 9.59452 2.54235 9.22998 3.46 9.22998H44.54C44.9944 9.22998 45.4443 9.31948 45.8641 9.49336C46.2839 9.66724 46.6653 9.9221 46.9866 10.2434C47.3079 10.5647 47.5627 10.9461 47.7366 11.3659C47.9105 11.7857 48 12.2356 48 12.69V35.306C48.0003 35.7605 47.911 36.2107 47.7372 36.6307C47.5634 37.0507 47.3086 37.4324 46.9873 37.7539C46.666 38.0754 46.2845 38.3304 45.8645 38.5044C45.4446 38.6784 44.9945 38.768 44.54 38.768V38.77ZM11.538 31.846V22.846L16.154 28.616L20.768 22.846V31.846H25.384V16.156H20.768L16.154 21.926L11.538 16.156H6.92V31.85L11.538 31.846ZM42.464 24H37.846V16.154H33.232V24H28.616L35.538 32.078L42.464 24Z" fill="#324558"/>
</svg>
