<svg width="48" height="48" viewBox="0 0 48 48" fill="none" xmlns="http://www.w3.org/2000/svg">
<path d="M24 4C12.9617 4 4 12.9617 4 24C4 35.0383 12.9617 44 24 44C35.0383 44 44 35.0383 44 24C44 12.9617 35.0383 4 24 4ZM24 5.25C28.785 5.25 33.1367 7.05333 36.4483 10H11.55C14.974 6.93848 19.4069 5.24724 24 5.25ZM12.0233 11.25H35.9767L24 35.205L12.0233 11.25ZM10 11.55V36.45C6.93848 33.026 5.24724 28.5931 5.25 24C5.25 19.2167 7.05333 14.865 10 11.5533V11.55ZM38 11.55C41.0615 14.974 42.7528 19.4069 42.75 24C42.75 28.785 40.9467 33.1367 38 36.4483V11.55ZM11.25 12.5L23.375 36.75H11.25V12.5ZM36.75 12.5V36.75H24.625L36.7517 12.5H36.75ZM36.4483 38C33.0247 41.0611 28.5926 42.7523 24 42.75C19.408 42.7519 14.9765 41.0608 11.5533 38H36.4483Z" fill="#324558"/>
</svg>
