<svg width="48" height="48" viewBox="0 0 48 48" fill="none" xmlns="http://www.w3.org/2000/svg">
<path d="M30.2181 7.40896C30.3275 7.22845 30.5001 7.0952 30.7023 7.03513C30.9044 6.97506 31.1216 6.99247 31.3116 7.08396L43.1542 12.7885C43.6069 13.0066 43.7727 13.5685 43.5109 13.998L31.8852 33.0798L23.2325 18.9297L30.2181 7.40896Z" fill="#324558"/>
<path d="M22.0653 20.8547L20.4998 23.4367L30.7148 34.9995L22.0653 20.8547Z" fill="#324558"/>
<path d="M16.4168 40.9323L4.38156 35.135C4.26727 35.08 4.17082 34.9937 4.10332 34.8861C4.03582 34.7786 4 34.6541 4 34.5271V7.78867C4 7.30749 4.5018 6.99136 4.93479 7.19998L17.382 13.1957V40.3244C17.382 40.8214 16.8638 41.1477 16.4168 40.9323Z" fill="#324558"/>
<path d="M30.6226 8.10765C30.6204 7.47986 31.2747 7.06619 31.8395 7.33824L43.162 12.7922C43.6088 13.013 43.7712 13.571 43.5109 13.998L32.0682 32.7794L30.6981 23L30.6226 8.10765Z" fill="#324558"/>
<path d="M32.526 35.872L43.0347 40.9325C43.4817 41.1479 43.9998 40.8216 43.9999 40.3246V17.0394L32.526 35.872Z" fill="#324558"/>
<path d="M19.3821 29.5419L30.7148 34.9995L19.3821 16.4667V29.5419Z" fill="#324558"/>
<path d="M17.3821 28.5786L17.382 13.1957L5.99925 7.71297C5.41288 7.43054 4.82042 8.08816 5.16091 8.64356L17.3821 28.5786Z" fill="#324558"/>
</svg>
