<svg width="48" height="48" viewBox="0 0 48 48" fill="none" xmlns="http://www.w3.org/2000/svg">
<path d="M40.4333 33.8157C40.5889 33.8157 40.7278 33.8827 40.85 34.0167C40.9611 34.1619 41.0167 34.3015 41.0167 34.4355C41.0167 34.5695 40.9556 34.7538 40.8333 34.9883L40.3 35.7588L39.5833 36.6466L38.85 37.4841C38.6167 37.7633 38.4056 37.9978 38.2167 38.1876L37.85 38.5729C37.2056 39.1647 36.4611 39.7454 35.6167 40.3149C34.7722 40.8844 33.8833 41.3925 32.95 41.8392C31.9944 42.2859 31.0278 42.6432 30.05 42.9112C29.0722 43.1792 28.1444 43.3132 27.2667 43.3132C26.2667 43.3132 25.3278 43.1569 24.45 42.8442C23.5611 42.5315 22.7389 42.096 21.9833 41.5377C21.2278 40.9793 20.55 40.3261 19.95 39.5779C19.3611 38.8409 18.85 38.0368 18.4167 37.1658C17.9944 36.306 17.6722 35.4126 17.45 34.4858C17.2278 33.5589 17.1167 32.6265 17.1167 31.6884C17.1167 30.5717 17.2944 29.4774 17.65 28.4054C18.0167 27.3222 18.5 26.3171 19.1 25.3903C19.2556 26.4511 19.5611 27.4394 20.0167 28.3551C20.4722 29.2708 21.0389 30.1083 21.7167 30.8677C22.3833 31.627 23.15 32.3026 24.0167 32.8945C24.8833 33.4975 25.7944 34 26.75 34.402C27.7056 34.804 28.6889 35.1167 29.7 35.34C30.7222 35.5634 31.7222 35.675 32.7 35.675C33.9444 35.675 35.1556 35.541 36.3333 35.273C37.5111 35.0162 38.6556 34.6142 39.7667 34.067L40.1 33.8995L40.4333 33.8157ZM14.6 31.6884C14.6 32.9168 14.75 34.1173 15.05 35.2898C15.35 36.4735 15.7833 37.6069 16.35 38.6901C16.9167 39.7621 17.6056 40.7504 18.4167 41.6549C19.2389 42.5706 20.1611 43.3523 21.1833 44C19.55 43.7767 17.9944 43.3635 16.5167 42.7605C15.0389 42.1463 13.6611 41.3814 12.3833 40.4657C11.1056 39.5388 9.95 38.4779 8.91667 37.2831C7.89444 36.0882 7.01667 34.7873 6.28333 33.3802C5.55 31.9732 4.98889 30.488 4.6 28.9246C4.2 27.3612 4 25.7532 4 24.1005C4 23.196 4.17778 22.364 4.53333 21.6047C4.87778 20.8453 5.33889 20.1586 5.91667 19.5444C6.50556 18.9302 7.17222 18.3942 7.91667 17.9363C8.65 17.4897 9.4 17.1212 10.1667 16.8308C10.9889 16.5293 11.8222 16.3116 12.6667 16.1776C13.5333 16.0436 14.3944 15.9765 15.25 15.9765C16.0278 15.9765 16.8167 16.0324 17.6167 16.1441C18.4167 16.2781 19.1944 16.4735 19.95 16.7303C20.7056 16.9872 21.4389 17.3054 22.15 17.6851C22.85 18.0759 23.4944 18.5394 24.0833 19.0754C23.6944 19.0754 23.3056 19.1145 22.9167 19.1926C22.55 19.2708 22.1889 19.3992 21.8333 19.5779V19.5444C21.1333 19.8571 20.4667 20.2702 19.8333 20.7839C19.2 21.2976 18.6167 21.8783 18.0833 22.526C17.55 23.1736 17.0667 23.8772 16.6333 24.6365C16.2111 25.3847 15.85 26.1608 15.55 26.9648C15.25 27.7577 15.0167 28.5617 14.85 29.3769C14.6833 30.1809 14.6 30.9514 14.6 31.6884ZM23.9333 4C25.8222 4 27.6722 4.21776 29.4833 4.65327C31.2944 5.07761 33 5.71971 34.6 6.57956C36.1889 7.43942 37.6444 8.51703 38.9667 9.8124C40.2778 11.1078 41.3778 12.6153 42.2667 14.335C42.8111 15.3847 43.2333 16.4791 43.5333 17.6181C43.8444 18.7348 44 19.8961 44 21.1022C44 22.096 43.8722 23.0452 43.6167 23.9497C43.35 24.8431 42.9667 25.6695 42.4667 26.4288C41.9667 27.1882 41.3556 27.8693 40.6333 28.4724C39.9222 29.0642 39.1167 29.5556 38.2167 29.9464C37.6167 30.2144 37 30.4154 36.3667 30.5494C35.7222 30.6946 35.0778 30.7672 34.4333 30.7672C33.9667 30.7672 33.4278 30.7504 32.8167 30.7169C32.2167 30.6834 31.6056 30.6164 30.9833 30.5159C30.3722 30.4042 29.7889 30.2479 29.2333 30.0469C28.6778 29.8347 28.2111 29.5556 27.8333 29.2094C27.7 29.1089 27.5722 28.9749 27.45 28.8074C27.3389 28.6287 27.2833 28.4444 27.2833 28.2546C27.2833 28.0871 27.3722 27.8917 27.55 27.6683C27.7278 27.445 27.9222 27.1658 28.1333 26.8308C28.3556 26.5181 28.5556 26.1385 28.7333 25.6918C28.9111 25.2451 29 24.7147 29 24.1005C29 22.9168 28.7778 21.8224 28.3333 20.8174C27.8889 19.8012 27.3 18.8855 26.5667 18.0704C25.8333 17.244 24.9889 16.5293 24.0333 15.9263C23.0778 15.3121 22.0833 14.8152 21.05 14.4355C20.1167 14.1005 19.1611 13.8548 18.1833 13.6985C17.2167 13.5422 16.2389 13.464 15.25 13.464C13.5278 13.464 11.8278 13.7152 10.15 14.2178C8.47222 14.7203 6.94444 15.4964 5.56667 16.5461C6.35556 14.603 7.36111 12.8554 8.58333 11.3032C9.80556 9.76214 11.2056 8.45003 12.7833 7.36683C14.35 6.28364 16.0722 5.4517 17.95 4.87102C19.8389 4.29034 21.8278 4 23.9167 4H23.9333Z" fill="#324558"/>
</svg>
