<svg width="48" height="48" viewBox="0 0 48 48" fill="none" xmlns="http://www.w3.org/2000/svg">
<path d="M31.68 25.382L31.546 25.422C31.277 25.5013 30.9984 25.543 30.718 25.546C29.498 25.546 28.81 24.722 29.178 23.704C29.45 22.96 30.16 22.332 31.028 22.042C32.372 21.552 33.312 20.434 33.312 19.132C33.312 17.378 31.606 15.958 29.502 15.958C27.398 15.958 25.694 17.378 25.694 19.132V28.868C25.694 31.208 24.336 33.262 22.306 34.424C21.1459 35.0849 19.8332 35.431 18.498 35.428C14.53 35.428 11.302 32.486 11.302 28.868C11.302 27.716 11.63 26.634 12.204 25.694C13.092 24.234 14.572 23.12 16.344 22.612C16.6416 22.5173 16.9517 22.4681 17.264 22.466C18.488 22.466 19.18 23.294 18.81 24.314C18.558 25.008 17.878 25.604 17.088 25.92C16.9942 25.9515 16.9014 25.9862 16.81 26.024C15.554 26.544 14.688 27.62 14.688 28.868C14.688 30.622 16.394 32.042 18.498 32.042C20.602 32.042 22.306 30.622 22.306 28.868V19.132C22.306 16.792 23.664 14.738 25.694 13.576C26.8541 12.9151 28.1668 12.569 29.502 12.572C33.47 12.572 36.698 15.514 36.698 19.132C36.698 20.284 36.37 21.366 35.796 22.306C34.912 23.758 33.44 24.87 31.68 25.382ZM4 24C4 35.046 12.954 44 24 44C35.046 44 44 35.046 44 24C44 12.954 35.046 4 24 4C12.954 4 4 12.954 4 24Z" fill="#324558"/>
</svg>
