<svg width="48" height="48" viewBox="0 0 48 48" fill="none" xmlns="http://www.w3.org/2000/svg">
<path d="M24 44C12.954 44 4 35.046 4 24C4 12.954 12.954 4 24 4C35.046 4 44 12.954 44 24C44 35.046 35.046 44 24 44ZM21.828 23.136C22.308 21.456 23.978 20.054 25.808 19.84C26.182 21.228 26.584 22.586 26.898 23.966C27.004 24.426 26.972 24.956 26.862 25.42C26.436 27.204 24.366 27.904 22.906 26.79C21.846 25.98 21.422 24.55 21.828 23.136ZM29.462 22.742C29.212 21.812 28.95 20.888 28.676 19.902C29.676 20.162 30.492 20.622 31.186 21.298C33.7 23.74 33.956 27.898 31.774 30.76C29.504 33.74 25.464 35.028 21.718 33.97C17.114 32.67 14.102 28.066 14.836 23.338C15.384 19.802 17.376 17.33 20.636 15.872C21.45 15.508 21.796 14.752 21.476 14.012C21.162 13.284 20.396 13.004 19.588 13.326C14.146 15.504 10.948 21.594 12.248 27.3C13.674 33.536 19.238 37.626 25.598 37.018C29.062 36.688 31.926 35.122 34.03 32.324C37.042 28.32 36.624 22.758 33.104 19.326C31.772 18.026 30.162 17.29 28.324 17.02C28.158 16.994 27.89 16.916 27.86 16.808C27.686 16.182 27.5 15.544 27.448 14.9C27.39 14.186 28.028 13.62 28.748 13.61C29.254 13.604 29.616 13.87 29.954 14.21C30.56 14.81 31.362 14.854 31.93 14.334C32.51 13.806 32.522 12.978 31.966 12.318C30.834 10.974 28.794 10.536 27.106 11.272C25.412 12.012 24.464 13.646 24.706 15.458C24.782 16.018 24.926 16.572 25.04 17.142L24.52 17.286C22.808 17.766 21.398 18.694 20.324 20.114C18.482 22.554 18.452 25.77 20.242 28.008C22.79 31.196 27.736 30.576 29.288 26.872C29.856 25.52 29.838 24.136 29.462 22.742Z" fill="#324558"/>
</svg>
