<svg width="48" height="48" viewBox="0 0 48 48" fill="none" xmlns="http://www.w3.org/2000/svg">
<g clip-path="url(#clip0_1475_1173)">
<path d="M46.4492 21.9647C45.3791 21.9379 44.5504 22.045 43.8553 22.3401C43.8048 22.3604 43.7466 22.3755 43.6874 22.3909C43.5118 22.4366 43.3274 22.4847 43.3069 22.6752C43.368 22.736 43.3986 22.8185 43.4309 22.9055C43.4554 22.9717 43.4809 23.0405 43.5217 23.1045C43.6816 23.3726 43.9619 23.734 44.2164 23.9222C44.4972 24.1367 44.778 24.3504 45.0725 24.5381C45.3292 24.6972 45.6021 24.8233 45.8737 24.9487C46.1535 25.078 46.4319 25.2066 46.6894 25.3699C46.8587 25.4775 47.0273 25.6026 47.196 25.7279C47.3214 25.8209 47.4469 25.9142 47.5727 26.0001C47.6273 26.0401 47.6745 26.0894 47.7219 26.139C47.8017 26.2224 47.8822 26.3065 48 26.3481V26.3076C47.951 26.245 47.9204 26.1678 47.8891 26.0892C47.8603 26.0166 47.831 25.9428 47.7863 25.8781C47.7195 25.8114 47.6525 25.7477 47.5854 25.6839C47.5187 25.6204 47.4517 25.5567 47.385 25.4902C46.9971 24.9675 46.5151 24.5121 45.9949 24.1367C45.8838 24.06 45.7384 23.976 45.581 23.8852C45.132 23.626 44.5854 23.3104 44.4572 22.9443L44.4301 22.9169C44.698 22.8921 45.0106 22.8009 45.2762 22.7233L45.3531 22.701C45.5812 22.6405 45.7994 22.6173 46.0194 22.5939C46.2371 22.5707 46.4567 22.5474 46.6894 22.4876C46.878 22.44 47.0665 22.382 47.2554 22.3238L47.3324 22.3002V22.1787C47.2208 22.0676 47.1239 21.9392 47.0269 21.8108C46.9136 21.6608 46.8002 21.5106 46.6634 21.388C45.9821 20.7984 45.2325 20.2224 44.4572 19.739C44.2059 19.5766 43.9106 19.4489 43.6188 19.3228C43.4287 19.2406 43.2401 19.159 43.066 19.0689C43.0126 19.042 42.9472 19.0196 42.8802 18.9967C42.747 18.9512 42.6078 18.9036 42.5453 18.8139C42.371 18.6005 42.2526 18.3383 42.1347 18.0773C42.0897 17.9777 42.0447 17.8782 41.9968 17.7817C41.6094 17.0452 41.2344 16.2278 40.9007 15.449C40.813 15.2585 40.7377 15.0679 40.6632 14.8793C40.5333 14.5508 40.4058 14.228 40.2188 13.9212C38.8411 11.6418 37.3442 10.2618 35.0446 8.9076C34.5935 8.65061 34.0647 8.52769 33.4989 8.39619L33.3338 8.35766C33.1719 8.35088 33.0103 8.34128 32.8487 8.33169C32.676 8.32144 32.5035 8.31119 32.3308 8.30439C32.2037 8.24846 32.0765 8.13594 31.9551 8.02849C31.8719 7.95489 31.7914 7.88367 31.7155 7.83465C30.9531 7.35231 28.9886 6.30686 28.4267 7.68743C28.1267 8.41166 28.694 9.126 29.0711 9.60081C29.148 9.69759 29.217 9.78446 29.2691 9.85939C29.3172 9.92457 29.3683 9.9916 29.4204 10.0601C29.6148 10.3151 29.8245 10.5901 29.9504 10.8645C29.9983 10.9809 30.0287 11.101 30.0595 11.2227C30.089 11.3392 30.119 11.4573 30.1649 11.5751C30.2156 11.715 30.2655 11.8587 30.316 12.0038C30.4782 12.4705 30.6456 12.9524 30.8602 13.3718C31.0068 13.6534 31.167 13.9487 31.3541 14.2022C31.39 14.2514 31.4345 14.2916 31.4795 14.3322C31.5699 14.4139 31.662 14.4971 31.6889 14.6587C31.5671 14.8336 31.5186 15.0659 31.4699 15.2994C31.444 15.4234 31.418 15.5477 31.381 15.6641C30.8999 17.179 31.0868 19.0556 31.7689 20.1681C31.9823 20.5032 32.4911 21.2407 33.173 20.9585C33.603 20.7863 33.6573 20.3467 33.7168 19.8653C33.7405 19.6733 33.765 19.4746 33.8146 19.2837C33.829 19.225 33.8348 19.1736 33.84 19.1268C33.8491 19.0445 33.8567 18.9766 33.9077 18.9083V18.9354C33.9554 19.0309 34.0031 19.1256 34.0507 19.2198L34.0514 19.2212C34.19 19.4962 34.327 19.7677 34.4562 20.0478C34.8712 20.704 35.5925 21.3879 36.1947 21.8432C36.3115 21.9316 36.4195 22.043 36.529 22.156C36.7197 22.3527 36.9152 22.5543 37.17 22.6483V22.6078H37.1437C37.0905 22.5283 37.0201 22.4778 36.9475 22.4257C36.9103 22.3989 36.8724 22.3717 36.836 22.34C36.5955 22.0986 36.3287 21.8035 36.1407 21.5356C35.5794 20.7851 35.084 19.9535 34.6438 19.0957C34.4468 18.713 34.2731 18.2977 34.1113 17.9107L34.0685 17.8085C34.0393 17.75 34.0208 17.6806 34.0025 17.6122C33.9707 17.4932 33.9396 17.3771 33.8545 17.3261C33.7846 17.4286 33.7034 17.5264 33.6211 17.6254C33.467 17.811 33.309 18.0014 33.2132 18.2366C33.0126 18.6921 32.9538 19.2305 32.8915 19.7998C32.8749 19.9519 32.858 20.1062 32.8382 20.2617C32.8227 20.2658 32.8141 20.2675 32.8088 20.2685C32.8042 20.2694 32.8023 20.2698 32.8009 20.2708C32.7999 20.2715 32.7991 20.2725 32.7977 20.2742C32.7957 20.2768 32.7924 20.2811 32.785 20.2884C32.3967 20.191 32.2398 19.8169 32.0937 19.4687C32.079 19.4337 32.0644 19.3989 32.0497 19.3648C31.6487 18.4117 31.5812 16.8836 31.9295 15.7842C31.9473 15.7304 31.9764 15.6546 32.0107 15.5652C32.1559 15.1873 32.394 14.5671 32.2637 14.3503C32.213 14.1898 32.0888 14.0725 31.9671 13.9574C31.8949 13.8892 31.8236 13.8217 31.7689 13.7465C31.5955 13.4919 31.4073 13.1708 31.2881 12.8887C31.1379 12.5376 31.0227 12.1688 30.907 11.7988C30.7755 11.378 30.6435 10.9557 30.4592 10.5563C30.3283 10.2719 30.1173 9.97884 29.9211 9.70637C29.8765 9.64447 29.8326 9.58351 29.7907 9.52407C29.7045 9.40143 29.6153 9.29112 29.5272 9.18219C29.3553 8.96957 29.1876 8.76225 29.0548 8.47891C28.9886 8.33112 28.8949 8.08966 29.0014 7.92926C29.0277 7.82185 29.082 7.78146 29.1891 7.75454C29.3619 7.60703 29.8573 7.79435 30.0307 7.87484C30.5257 8.07534 30.9402 8.26409 31.3541 8.54507C31.4154 8.589 31.4781 8.6458 31.5431 8.70472C31.6769 8.82595 31.8206 8.95615 31.9823 9.00163H32.2637C32.4599 9.04434 32.6674 9.05335 32.8734 9.06228C33.1163 9.07283 33.3571 9.08328 33.5743 9.14886C34.2825 9.37656 34.9241 9.71168 35.4994 10.0737C37.2502 11.1865 38.6942 12.7687 39.6698 14.6585C39.7604 14.832 39.8214 14.9972 39.8836 15.1658C39.9318 15.2964 39.9808 15.4292 40.0449 15.5694C40.1934 15.9176 40.3608 16.2692 40.527 16.6183C40.6749 16.9291 40.8219 17.2379 40.9538 17.5406L41.0286 17.7092C41.2832 18.2843 41.5381 18.8603 41.904 19.3373C42.0446 19.535 42.4835 19.6666 42.857 19.7786C43.0145 19.8259 43.1604 19.8696 43.2674 19.9134C43.3719 19.9605 43.4992 20.0056 43.6298 20.0519C43.8326 20.1239 44.0436 20.1987 44.1901 20.2883C44.6446 20.5693 45.0982 20.8916 45.5267 21.2004C45.5806 21.241 45.6636 21.2927 45.7581 21.3517C46.0379 21.5261 46.4191 21.764 46.4492 21.9647Z" fill="#324558"/>
<path fill-rule="evenodd" clip-rule="evenodd" d="M35.5534 36.0382L37.5873 37.0438L37.5853 37.0437L36.8631 38.2908L34.2145 36.7453C33.7754 36.8753 33.2924 36.9403 32.7659 36.9403C31.3547 36.9403 30.3006 36.529 29.6036 35.7075C28.8386 34.7987 28.4564 33.368 28.4564 31.4178C28.4564 29.4344 28.8877 27.9335 29.7516 26.9143C30.5383 25.9821 31.6369 25.5166 33.0467 25.5166C35.9207 25.5166 37.3579 27.3529 37.3579 31.0234C37.3579 33.0181 36.9257 34.5247 36.0621 35.5426C35.9065 35.7286 35.7345 35.8893 35.5534 36.0382ZM30.3249 31.0726C30.3249 32.6729 30.5494 33.8335 30.9976 34.5567C31.4127 35.226 32.0629 35.5601 32.9481 35.5601C34.6418 35.5601 35.4891 34.1515 35.4891 31.3353C35.4891 29.7574 35.2646 28.6069 34.8169 27.8834C34.4013 27.2154 33.7514 26.8811 32.8659 26.8811C31.1722 26.8811 30.3249 28.2789 30.3249 31.0726Z" fill="#324558"/>
<path d="M27.6868 33.701C27.6868 34.6419 27.342 35.4144 26.6547 36.0187C25.9668 36.6205 25.0427 36.9221 23.8855 36.9221C22.8031 36.9221 21.7541 36.5749 20.738 35.8862L21.2134 34.9331C22.0878 35.3714 22.8791 35.5902 23.5895 35.5902C24.256 35.5902 24.7776 35.4415 25.155 35.1477C25.5315 34.8518 25.7571 34.439 25.7571 33.9155C25.7571 33.2568 25.2989 32.6937 24.4582 32.2213C23.6821 31.7942 22.1309 30.9026 22.1309 30.9026C21.2905 30.2879 20.8692 29.6283 20.8692 28.5416C20.8692 27.6428 21.1834 26.9164 21.811 26.3637C22.44 25.8098 23.2516 25.5329 24.2454 25.5329C25.2727 25.5329 26.2068 25.8078 27.048 26.3556L26.6207 27.3078C25.9008 27.0017 25.191 26.8481 24.4911 26.8481C23.9232 26.8481 23.4855 26.9848 23.1805 27.2599C22.8737 27.5325 22.684 27.8834 22.684 28.311C22.684 28.9681 23.1522 29.5381 24.0166 30.0196C24.8025 30.4469 26.3916 31.3557 26.3916 31.3557C27.256 31.9693 27.6868 32.6235 27.6868 33.701Z" fill="#324558"/>
<path d="M9.68824 36.7766H11.54C11.4528 33.4237 11.1688 29.7245 10.6878 25.6817H8.49145L5.80311 33.8339H5.78671L3.11476 25.6817H0.819282C0.382217 29.1337 0.109123 32.8317 0 36.7766H1.68864C1.7432 33.5329 1.87404 30.5855 2.082 27.9341H2.09851L4.90124 36.7766H6.31136L9.13117 27.9341H9.14748C9.44257 30.695 9.62311 33.6423 9.68824 36.7766Z" fill="#324558"/>
<path d="M16.5901 37.5352C17.8249 35.6752 18.8197 32.6935 19.5739 28.5905H17.8198C17.5027 31.1107 16.9453 33.4393 16.1474 35.5761C16.2021 35.1485 16.0654 34.3983 15.7377 33.3236L14.2789 28.5905H12.4595L14.4921 34.919C14.7976 35.8719 14.951 36.5018 14.951 36.8088C14.951 37.2583 14.7543 37.6639 14.3612 38.0247C14.0329 38.3208 13.6014 38.4692 13.066 38.4692C12.7708 38.4692 12.5142 38.4521 12.2955 38.42V39.4091C12.7432 39.5927 13.1204 39.6851 13.4264 39.6851C14.5741 39.6851 15.628 38.9685 16.5901 37.5352Z" fill="#324558"/>
<path d="M44.2267 36.7766H38.9651V25.6817H40.7356V35.4118H44.2267V36.7766Z" fill="#324558"/>
<path d="M45.7827 36.7754H45.4893V35.6466H45.0905V35.416H46.1666V35.6466H45.7827V36.7754Z" fill="#324558"/>
<path d="M47.9983 36.7754H47.7218V35.7408L47.3364 36.7754H47.137L46.7511 35.7408H46.7362V36.7754H46.4746V35.416H46.8753L47.2438 36.3426L47.5824 35.416H47.9983V36.7754Z" fill="#324558"/>
<path d="M32.2634 10.3812C32.4248 10.3414 32.5847 10.3139 32.8116 10.3139C32.854 10.3565 32.907 10.3927 32.9605 10.4293C33.0419 10.4849 33.1244 10.5414 33.1726 10.6221C33.2027 10.664 33.2218 10.7058 33.241 10.7476C33.2648 10.7995 33.2886 10.8515 33.3335 10.9039C33.3335 11.2261 33.24 11.4404 33.0515 11.5739C33.0515 11.5739 33.0387 11.5879 33.0255 11.6011C32.9741 11.4977 32.9258 11.3946 32.8774 11.2916C32.8253 11.1805 32.7732 11.0694 32.7173 10.9581C32.6651 10.8843 32.6045 10.8166 32.5435 10.7485C32.4495 10.6436 32.3549 10.5379 32.2894 10.4081H32.2634V10.3812Z" fill="#324558"/>
</g>
<defs>
<clipPath id="clip0_1475_1173">
<rect width="48" height="48" fill="white"/>
</clipPath>
</defs>
</svg>
