<svg width="48" height="48" viewBox="0 0 48 48" fill="none" xmlns="http://www.w3.org/2000/svg">
<path d="M23.9915 46C23.4217 46 22.8433 45.8428 22.3415 45.546L17.094 42.3592C16.3115 41.9051 16.6943 41.748 16.9494 41.6607C17.9955 41.2852 18.2081 41.2067 19.3223 40.5518C19.4414 40.482 19.5944 40.5082 19.7135 40.5868L23.7449 43.0402C23.8894 43.1275 24.0936 43.1275 24.2296 43.0402L39.9382 33.7329C40.0828 33.6456 40.1764 33.471 40.1764 33.2964V14.6818C40.1764 14.4985 40.0828 14.3326 39.9297 14.2365L24.2296 4.93799C24.085 4.85068 23.8894 4.85068 23.7449 4.93799L8.05327 14.2453C7.90018 14.3326 7.80662 14.5072 7.80662 14.6905V33.2964C7.80662 33.471 7.90018 33.6456 8.05327 33.7242L12.3568 36.2736C14.6956 37.4698 16.1244 36.0641 16.1244 34.6409V16.2709C16.1244 16.0089 16.3286 15.8081 16.5837 15.8081H18.5739C18.8205 15.8081 19.0331 16.0089 19.0331 16.2709V34.6497C19.0331 37.8452 17.3321 39.6787 14.3809 39.6787C13.4709 39.6787 12.7565 39.6787 10.7663 38.6659L6.64996 36.23C5.62936 35.6275 5 34.5012 5 33.2876V14.6818C5 13.4769 5.62936 12.3419 6.64996 11.7395L22.3415 2.43219C23.3366 1.85594 24.6549 1.85594 25.6415 2.43219L41.35 11.7482C42.3706 12.3506 43 13.4769 43 14.6905V33.2964C43 34.5012 42.3706 35.6275 41.35 36.2387L25.6415 45.546C25.1397 45.8428 24.5698 46 23.9915 46ZM36.6723 27.6561C36.6723 24.1724 34.376 23.2469 29.5537 22.5921C24.6719 21.9286 24.1786 21.5881 24.1786 20.4181C24.1786 19.449 24.5953 18.1568 28.2099 18.1568C31.4333 18.1568 32.624 18.8727 33.1173 21.1078C33.1598 21.3174 33.3469 21.4746 33.5595 21.4746H35.6007C35.7283 21.4746 35.8474 21.4222 35.9324 21.3261C36.0175 21.2301 36.06 21.0991 36.0515 20.9682C35.7368 17.1178 33.2449 15.3279 28.2099 15.3279C23.7278 15.3279 21.0573 17.2662 21.0573 20.5229C21.0573 24.0502 23.7193 25.0281 28.0143 25.4646C33.1598 25.9798 33.5595 26.7568 33.5595 27.7958C33.5595 29.5944 32.1477 30.3627 28.8393 30.3627C24.6804 30.3627 23.7704 29.2888 23.4642 27.1672C23.4302 26.9402 23.2431 26.7743 23.0134 26.7743H20.9808C20.7256 26.7743 20.53 26.9838 20.53 27.237C20.53 29.9524 21.9673 33.1916 28.8478 33.1916C33.8147 33.1829 36.6723 31.166 36.6723 27.6561Z" fill="#324558"/>
</svg>
