<svg width="48" height="48" viewBox="0 0 48 48" fill="none" xmlns="http://www.w3.org/2000/svg">
<path d="M11.5529 11.0129C12.7842 12.0229 13.2464 11.9462 15.5605 11.7896L37.3731 10.4679C37.8353 10.4679 37.4507 10.0012 37.2972 9.92457L33.6725 7.27958C32.9792 6.73625 32.0533 6.11292 30.2805 6.26791L9.16115 7.82458C8.39197 7.90125 8.23682 8.29124 8.54383 8.60124L11.5529 11.0129ZM12.8618 16.1462V39.3195C12.8618 40.5645 13.4775 41.0312 14.8656 40.9528L38.8372 39.5528C40.2254 39.4762 40.3805 38.6195 40.3805 37.6078V14.5896C40.3805 13.5796 39.9959 13.0346 39.1459 13.1112L14.0948 14.5896C13.1704 14.6679 12.8618 15.1346 12.8618 16.1446V16.1462ZM36.5264 17.3879C36.6799 18.0879 36.5264 18.7879 35.8331 18.8679L34.6777 19.1012V36.2079C33.6741 36.7528 32.7498 37.0645 31.979 37.0645C30.7443 37.0645 30.4357 36.6745 29.5113 35.5095L21.9566 23.5329V35.1195L24.3466 35.6662C24.3466 35.6662 24.3466 37.0662 22.4187 37.0662L17.1005 37.3762C16.947 37.0662 17.1005 36.2878 17.6403 36.1329L19.0268 35.7445V20.4229L17.1038 20.2662C16.9487 19.5662 17.3349 18.5562 18.4127 18.4779L24.1172 18.0896L31.9806 30.2212V19.4879L29.9752 19.2562C29.8216 18.3996 30.4373 17.7779 31.2082 17.7012L36.5264 17.3879ZM7.38841 5.72458L29.3578 4.09125C32.0549 3.85792 32.7498 4.01292 34.445 5.25792L41.4583 10.2346C42.6138 11.0896 43 11.3229 43 12.2562V39.5528C43 41.2628 42.3843 42.2762 40.227 42.4295L14.7121 43.9862C13.0945 44.0645 12.322 43.8312 11.4736 42.7412L6.30892 35.9745C5.38459 34.7295 5 33.7979 5 32.7079V8.44458C5 7.04625 5.61732 5.87792 7.38841 5.72458Z" fill="#324558"/>
</svg>
