<svg width="48" height="48" viewBox="0 0 48 48" fill="none" xmlns="http://www.w3.org/2000/svg">
<path d="M36.697 12.1917C34.6848 8.05379 29.5951 4.51277 23.8322 4.51196C20.8078 4.51115 16.1881 5.54888 12.7359 9.72373C10.4305 12.5113 9.65434 15.7737 10.1406 19.0272C10.4739 21.262 11.7193 24.211 13.5003 26.0768C14.1718 21.348 16.6626 17.629 19.9282 14.8949C25.8245 10.3908 32.1194 10.6459 36.697 12.1917Z" fill="#324558"/>
<path d="M41.2974 19.2862C37.6899 14.6045 31.4538 13.2946 25.8243 15.3823L25.8995 15.4049C26.0558 15.4519 26.2123 15.499 26.3681 15.5522C34.7028 18.3916 39.2074 27.4335 36.4295 35.7476C35.6903 37.9593 34.507 39.8932 33.0159 41.4926C34.8119 40.9954 36.6497 40.2845 38.2264 39.0696C44.574 34.1786 45.8234 25.1598 41.2974 19.2862Z" fill="#324558"/>
<path d="M20.1426 33.8336C21.3227 34.0968 22.5494 34.2424 23.8158 34.2424C27.6715 34.2424 30.7255 33.3457 33.61 31.2237C33.535 32.424 33.1741 33.8685 32.8444 34.7192C30.129 41.7246 22.2696 44.7616 14.0326 42.0564C6.8703 39.7039 2.48134 31.3052 4.48664 24.2949C5.02437 22.4161 5.57385 21.1274 6.60509 19.5061C7.22432 24.0248 10.0374 28.4207 14.1397 31.218C14.4515 31.4276 14.6648 31.7784 14.6823 32.1843C14.6879 32.3194 14.6644 32.4459 14.6344 32.5773C14.5335 33.0353 14.4087 33.6017 14.2931 34.1262C14.1142 34.9381 13.9574 35.6494 13.9458 35.7026C13.9378 35.7398 13.9283 35.7775 13.9188 35.8155C13.8907 35.927 13.8619 36.0415 13.8668 36.1552C13.8814 36.493 14.1648 36.7558 14.5014 36.7416C14.6336 36.7355 14.739 36.6812 14.8481 36.6122L18.7403 34.1166C19.0331 33.9293 19.3466 33.808 19.6961 33.793C19.8502 33.7861 19.9987 33.8036 20.1426 33.8336Z" fill="#324558"/>
</svg>
