<svg width="48" height="48" viewBox="0 0 48 48" fill="none" xmlns="http://www.w3.org/2000/svg">
<path d="M14.478 33.7558L10.9633 35.6777C10.6583 35.8445 10.3152 35.9291 9.96767 35.923C9.62013 35.917 9.28015 35.8206 8.98116 35.6434C8.68217 35.4661 8.43448 35.2141 8.26245 34.912C8.09042 34.61 7.99997 34.2684 8 33.9208V14.8991C7.99998 14.2303 8.17647 13.5733 8.51165 12.9946C8.84683 12.4158 9.32882 11.9358 9.90893 11.6029L22.2926 4.49686C22.8572 4.17245 23.4967 4.00118 24.1479 4C24.5293 3.99959 24.9079 4.05782 25.2706 4.17207L37.0066 7.414C37.8092 7.63594 38.5169 8.11494 39.0213 8.7776C39.5256 9.44027 39.7988 10.25 39.7989 11.0828V36.9194C39.7991 37.7515 39.5267 38.5608 39.0233 39.2234C38.5199 39.886 37.8132 40.3654 37.0115 40.5882L25.2547 43.8543C24.9223 43.9513 24.577 44.0005 24.2294 44C23.6058 44 22.9926 43.8399 22.4486 43.5349L14.6867 39.1854C14.3509 38.997 14.0869 38.7026 13.9363 38.3482C13.7856 37.9938 13.7567 37.5995 13.854 37.2269C13.9514 36.8543 14.1695 36.5245 14.4743 36.2892C14.779 36.0538 15.1532 35.9261 15.5383 35.926H27.8742L27.8743 11.3316L17.81 15.0004C17.2646 15.1994 16.7936 15.5612 16.4608 16.0369C16.1281 16.5126 15.9496 17.0791 15.9497 17.6596V31.2735C15.9495 31.7812 15.8128 32.2796 15.5539 32.7163C15.295 33.153 14.9234 33.5121 14.478 33.7558Z" fill="#324558"/>
</svg>
