<svg width="48" height="48" viewBox="0 0 48 48" fill="none" xmlns="http://www.w3.org/2000/svg">
<path d="M11.6689 9.99823C11.372 10.5612 11.0704 11.1329 10.7612 11.7188H14.2809C14.6392 11.7188 14.9975 11.7168 15.3558 11.7149C16.162 11.7104 16.9683 11.7059 17.7745 11.7241C18.1146 11.7314 18.456 11.7229 18.7995 11.7143C19.5661 11.6951 20.3428 11.6757 21.1381 11.832C21.1381 12.8252 21.1377 13.8069 21.1373 14.7806C21.1362 17.1871 21.1352 19.5441 21.1407 21.9012C21.1432 22.962 21.1406 24.0229 21.138 25.0842C21.1325 27.3192 21.127 29.5562 21.1693 31.7993H26.8621V30.3176C26.8621 28.8899 26.8619 27.4621 26.8617 26.0342C26.8613 21.7502 26.8608 17.4654 26.8647 13.1821C26.8647 12.8664 26.8854 12.5507 26.9069 12.2248C26.9167 12.0753 26.9267 11.9236 26.9349 11.7688H31.0497C32.0783 13.6819 33.1093 15.5985 34.1426 17.5195C34.6473 18.4579 35.1526 19.3973 35.6585 20.3379C36.0463 20.3379 36.4217 20.3385 36.7889 20.3391C37.5 20.3403 38.1805 20.3414 38.861 20.3379C39.4957 20.3331 40.1313 20.3255 40.8143 20.3174C41.2669 20.312 41.7404 20.3063 42.2481 20.301C40.9065 17.835 39.5923 15.4205 38.2957 13.0384C37.0047 10.6665 35.7312 8.3267 34.4654 6H13.7792C13.0752 7.33232 12.3856 8.63963 11.6689 9.99823Z" fill="#324558"/>
<path d="M15.1437 15.9639H8.47361C7.6239 17.562 6.7767 19.1533 5.93106 20.7417C5.28661 21.9522 4.64306 23.161 4 24.3697C4.63508 25.4775 5.26889 26.583 5.90142 27.6863C8.66047 32.4987 11.3951 37.2685 14.104 42H34.4315C36.0031 39.2592 37.5695 36.5284 39.1398 33.791C40.8913 30.7377 42.6475 27.676 44.4211 24.5829H37.7171C35.4972 28.3832 33.2669 32.2019 31.0574 35.9864H17.4676C16.2364 33.8507 15.0091 31.7237 13.7805 29.5945C12.7655 27.8354 11.7495 26.0747 10.7299 24.3066C11.4086 23.0235 12.0822 21.7504 12.7578 20.4738C13.5468 18.9827 14.3385 17.4866 15.1437 15.9639Z" fill="#324558"/>
</svg>
