<svg width="48" height="48" viewBox="0 0 48 48" fill="none" xmlns="http://www.w3.org/2000/svg">
<path fill-rule="evenodd" clip-rule="evenodd" d="M30.6814 23.4956C29.0985 23.4375 27.8559 22.1031 27.9088 20.5179C27.9332 19.7505 28.2612 19.0411 28.8188 18.5173C29.3785 17.9937 30.1096 17.7212 30.8771 17.75C32.4623 17.8055 33.7052 19.1377 33.652 20.7253C33.628 21.4903 33.3044 22.1997 32.7446 22.7257C32.1822 23.2471 31.4512 23.5196 30.6814 23.4956ZM31.3474 20.8914C32.0519 20.8914 32.6236 20.5103 32.6236 20.0422C32.6236 19.5717 32.0519 19.1904 31.3474 19.1904C30.6425 19.1904 30.073 19.5717 30.073 20.0422C30.073 20.5103 30.6425 20.8914 31.3474 20.8914Z" fill="#324558"/>
<path fill-rule="evenodd" clip-rule="evenodd" d="M7.83083 12.2266C5.42167 15.5296 4 19.5988 4 24C4 35.0457 12.9543 44 24 44C35.0457 44 44 35.0457 44 24C44 12.9543 35.0457 4 24 4C17.3556 4 11.4679 7.24014 7.83083 12.2266ZM41 24C41 33.3888 33.3888 41 24 41C22.0686 41 20.2125 40.6779 18.4824 40.0846C17.5816 38.7101 15.9565 35.8052 16.3744 33.2952C16.8241 30.5779 18.9875 30.8217 21.9772 31.1624L22.0103 31.1662C22.9798 31.2766 24.0803 31.4018 25.2178 31.4276C28.4296 31.4466 31.8905 30.8572 34.0233 29.9245C35.4032 29.321 36.2837 28.9232 36.8354 28.4213C37.034 28.258 37.1381 27.9883 37.2447 27.7042L37.3183 27.5125C37.408 27.2829 37.5382 26.7906 37.5952 26.523C37.6213 26.4048 37.6331 26.2768 37.55 26.213L37.2543 26.2674C36.3194 26.8285 33.9781 27.8984 31.7864 27.941C29.0714 27.9977 23.5988 25.2093 23.0283 24.9134L22.9739 24.8496C22.8752 24.615 22.424 23.5472 22.1134 22.812L21.8422 22.1701C25.7812 24.7643 29.0475 26.1989 31.5495 26.4213C34.3311 26.6696 36.5005 25.1527 37.4296 24.5031L37.4319 24.5015C37.474 24.473 37.5137 24.4458 37.5506 24.4206C37.6732 24.3366 37.7646 24.2741 37.8081 24.2578L37.8673 24.1607C37.7132 23.1832 36.2575 18.449 35.1593 17.3128C35.1085 17.2608 35.0594 17.2091 35.0106 17.1576C34.7661 16.8999 34.5282 16.6494 34.1178 16.4086C30.1387 14.0889 20.6918 12.6875 20.2494 12.6237L20.1736 12.645L20.1453 12.7112C20.1453 12.7112 20.1096 14.6711 20.1048 14.8891C19.4229 14.6617 15.7265 13.4656 11.2978 12.7013C14.4115 9.20329 18.9485 7 24 7C33.3888 7 41 14.6112 41 24ZM27.9112 17.7082C27.1209 18.4419 26.6685 19.4432 26.6306 20.5226C26.5574 22.7475 28.3044 24.6223 30.5291 24.7053C31.6134 24.7407 32.6406 24.3595 33.4288 23.621C34.2169 22.8849 34.6693 21.886 34.7094 20.809C34.7852 18.5816 33.0382 16.7045 30.8087 16.6241C29.7292 16.5886 28.6994 16.9697 27.9112 17.7082Z" fill="#324558"/>
</svg>
