<svg width="48" height="48" viewBox="0 0 48 48" fill="none" xmlns="http://www.w3.org/2000/svg">
<path d="M14.2321 44H5.01641C4.46412 44 4.0164 43.5523 4.01649 43C4.01743 37.0071 4.02565 31.0143 4.00043 25.0214C3.99156 23.0157 4.11757 21.0507 4.61807 19.0857C5.36293 16.0418 6.83446 13.2218 8.90774 10.8652C12.1024 7.25675 16.0744 5.07439 20.8716 4.26682C23.8063 3.77707 26.8146 3.96325 29.6657 4.81109C33.1164 5.7894 36.2188 7.71978 38.6143 10.3792C43.7984 16.0922 45.1952 22.7401 42.998 30.0205C41.3599 35.4472 37.7411 39.3861 32.6084 41.883C30.0456 43.1288 27.4188 43.8869 24.5188 43.0104C20.9905 41.9413 19.466 38.3753 20.916 35.1345C22.1868 32.293 26.6344 30.1195 29.7651 32.6128C30.7377 33.3886 31.8771 33.4257 32.9704 32.9256C34.1932 32.3654 34.7541 31.3529 34.7062 29.9922C34.6582 28.6793 33.9448 27.8558 32.8231 27.3186C31.6304 26.7496 30.5815 27.1278 29.5734 27.8293C29.0233 28.211 28.4553 28.7606 27.8466 28.8348C26.2241 29.0244 24.5896 29.0906 22.957 29.0327C22.2134 29.0097 21.8762 28.1032 22.2826 27.3787C23.0103 26.0781 23.722 24.7475 24.6306 23.5741C25.1631 22.8797 26.0647 22.4609 26.803 21.9201C27.3834 21.4943 28.0667 21.1567 28.5246 20.6266C29.3765 19.637 29.3764 18.287 28.6861 17.2426C27.9495 16.1258 26.622 15.6098 25.1933 15.8873C24.1444 16.0887 23.1735 17.1242 23.0333 18.3188C22.9357 19.1493 23.1398 20.0364 22.9357 20.8281C22.3838 22.9627 21.0811 24.7157 19.7411 26.4174C19.5215 26.6753 19.2547 26.8894 18.9549 27.0482C18.0834 27.5413 17.4179 27.3539 17.0345 26.4333C16.3246 24.7298 16.4542 23.0758 17.5421 21.549C17.7872 21.2399 18.0153 20.9178 18.2254 20.5842C18.5693 19.9771 18.6928 19.2707 18.5752 18.5836C18.4575 17.8965 18.1059 17.2708 17.5794 16.8114C16.5429 15.8908 14.8373 15.7848 13.7121 16.5694C12.2923 17.5607 11.9977 19.5593 13.0821 21.0666C13.776 22.0297 14.2446 23.0405 14.241 24.2598C14.2256 30.8381 14.2227 37.4182 14.2321 44Z" fill="#324558"/>
</svg>
