<svg width="48" height="48" viewBox="0 0 48 48" fill="none" xmlns="http://www.w3.org/2000/svg">
<path d="M36.147 6C36.9159 5.99941 37.6774 6.15045 38.3879 6.44447C39.0984 6.7385 39.7439 7.16974 40.2875 7.71352C40.8312 8.25729 41.2623 8.90294 41.5561 9.61349C41.8499 10.3241 42.0008 11.0856 42 11.8545V36.1455C42.0008 36.9144 41.8499 37.6759 41.5561 38.3865C41.2623 39.0971 40.8312 39.7427 40.2875 40.2865C39.7439 40.8303 39.0984 41.2615 38.3879 41.5555C37.6774 41.8496 36.9159 42.0006 36.147 42H15.5895L15.513 26.49V26.379C15.513 20.499 20.181 15.744 25.9575 15.744C29.4225 15.744 32.223 18.597 32.223 22.125C32.223 25.653 29.4225 28.506 25.9575 28.506C24.8025 28.506 23.868 27.555 23.868 26.379C23.868 25.2045 24.8025 24.252 25.9575 24.252C27.111 24.252 28.0455 23.301 28.0455 22.125C28.0455 20.949 27.111 19.998 25.9575 19.998C22.4925 19.998 19.6905 22.848 19.6905 26.3775C19.6905 29.9055 22.4925 32.7585 25.9575 32.7585C31.7325 32.7585 36.4005 28.005 36.4005 22.1235C36.4005 16.2435 31.7325 11.49 25.9575 11.49C17.8725 11.49 11.3325 18.144 11.3325 26.3775V26.5065L11.367 41.979C9.90338 41.8581 8.53882 41.191 7.54447 40.1102C6.55013 39.0294 5.99878 37.6141 6 36.1455V11.8545C5.99921 11.0856 6.15006 10.3241 6.4439 9.61349C6.73774 8.90294 7.16882 8.25729 7.71246 7.71352C8.25609 7.16974 8.90163 6.7385 9.61211 6.44447C10.3226 6.15045 11.0841 5.99941 11.853 6H36.147Z" fill="#324558"/>
</svg>
