<svg width="48" height="48" viewBox="0 0 48 48" fill="none" xmlns="http://www.w3.org/2000/svg">
<path d="M26.7402 4.18791C21.9547 3.52962 17.0927 4.62501 13.0518 7.27183C9.01101 9.91864 6.06428 13.9381 4.75579 18.588C3.4473 23.238 3.86541 28.2043 5.93292 32.57C8.00043 36.9357 11.5777 40.4059 16.0042 42.3399C15.8845 40.8035 15.9944 39.2579 16.3302 37.7539C16.7002 36.0759 18.9222 26.8279 18.9222 26.8279C18.4797 25.8361 18.2586 24.7598 18.2742 23.6739C18.2742 20.7039 19.9882 18.4879 22.1202 18.4879C22.5032 18.4823 22.8829 18.5593 23.2335 18.7136C23.5842 18.8678 23.8974 19.0958 24.1521 19.382C24.4067 19.6681 24.5968 20.0057 24.7093 20.3719C24.8218 20.738 24.8542 21.1241 24.8042 21.5039C24.8042 23.3039 23.6482 26.0279 23.0442 28.5839C22.9248 29.0527 22.9172 29.5429 23.0221 30.0151C23.1269 30.4874 23.3412 30.9284 23.6477 31.3026C23.9542 31.6768 24.3443 31.9738 24.7867 32.1696C25.229 32.3654 25.7111 32.4546 26.1942 32.4299C29.9902 32.4299 32.5342 27.5679 32.5342 21.8279C32.5342 17.4279 29.6202 14.1319 24.2482 14.1319C22.9629 14.082 21.681 14.2938 20.4801 14.7544C19.2792 15.2151 18.1844 15.915 17.2623 16.8117C16.3402 17.7084 15.6099 18.7831 15.1158 19.9707C14.6218 21.1582 14.3742 22.4338 14.3882 23.7199C14.3309 25.1466 14.7912 26.5458 15.6842 27.6599C15.8511 27.7845 15.9729 27.9599 16.0313 28.1598C16.0898 28.3596 16.0817 28.5731 16.0082 28.7679C15.9162 29.1359 15.6842 30.0139 15.5922 30.3359C15.5731 30.4451 15.5285 30.5483 15.4622 30.6371C15.3959 30.726 15.3097 30.798 15.2105 30.8474C15.1112 30.8969 15.0018 30.9223 14.8909 30.9217C14.78 30.9211 14.6709 30.8944 14.5722 30.8439C11.8042 29.7359 10.5002 26.6899 10.5002 23.2119C10.5002 17.5179 15.2682 10.7019 24.8082 10.7019C32.4002 10.7019 37.4482 16.2559 37.4482 22.1959C37.4482 30.0139 33.0942 35.8919 26.6602 35.8919C25.6986 35.9226 24.7447 35.7104 23.8869 35.2748C23.029 34.8393 22.2948 34.1944 21.7522 33.3999C21.7522 33.3999 20.5962 38.0319 20.3682 38.9079C19.9028 40.4213 19.216 41.8575 18.3302 43.1699C20.1762 43.7299 22.0942 44.0099 24.0222 44.0019C26.6493 44.004 29.2511 43.4879 31.6785 42.4831C34.1059 41.4782 36.3113 40.0045 38.1683 38.1461C40.0254 36.2878 41.4976 34.0814 42.5007 31.6533C43.5038 29.2252 44.0181 26.6231 44.0142 23.9959C44.0117 19.1659 42.2617 14.4999 39.0874 10.8595C35.9131 7.21904 31.5289 4.85004 26.7442 4.18991L26.7402 4.18791Z" fill="#324558"/>
</svg>
