<svg width="48" height="48" viewBox="0 0 48 48" fill="none" xmlns="http://www.w3.org/2000/svg">
<path d="M24.6349 44C24.2063 44 23.7781 44 23.3495 44C23.2832 43.9899 23.2172 43.976 23.1506 43.9699C22.4723 43.908 21.7897 43.8756 21.1158 43.7809C19.0885 43.4952 17.1448 42.9139 15.31 42.0043C10.5687 39.6543 7.22717 36.0113 5.30237 31.0827C4.64983 29.411 4.25878 27.673 4.09945 25.8849C4.06326 25.4764 4.03315 25.0676 4 24.6588C4 24.2193 4 23.7797 4 23.3401C4.01049 23.2627 4.0274 23.1859 4.03011 23.1082C4.0663 22.0985 4.1847 21.0976 4.38631 20.1086C5.24452 15.8945 7.23292 12.3021 10.3809 9.37155C13.6423 6.33513 17.5088 4.59341 21.9382 4.11157C23.7125 3.9185 25.4827 3.97936 27.2451 4.26813C30.1188 4.73847 32.7634 5.78803 35.175 7.41648C41.4585 11.6594 44.7946 19.0245 43.8383 26.5392C43.5761 28.5981 43.0031 30.5684 42.1263 32.4518C39.074 39.0085 32.6657 43.4258 25.4586 43.9361C25.184 43.9554 24.9096 43.9787 24.6349 44ZM29.0194 9.46927C28.9984 9.45034 28.9774 9.4314 28.9568 9.41213C28.8583 9.53487 28.765 9.66235 28.6604 9.78002C28.0803 10.4326 27.718 11.2049 27.4393 12.0198C26.8212 13.8254 26.5942 15.701 26.4579 17.5919C26.4353 17.9091 26.42 18.2269 26.4014 18.5444C26.3652 18.5184 26.3564 18.492 26.3534 18.4649C26.2661 17.7217 26.1832 16.9778 26.0922 16.235C25.9985 15.4698 25.9651 14.689 25.7817 13.9458C25.5645 13.0643 25.2263 12.2115 24.9208 11.3533C24.6092 10.4789 24.2486 9.62143 23.9553 8.74128C23.6918 7.95106 23.6915 7.15578 24.1275 6.40512C24.1377 6.38754 24.138 6.36421 24.1515 6.30605C24.0068 6.3473 23.8806 6.37063 23.7646 6.41865C23.3782 6.57892 23.0843 6.85856 22.837 7.18519C22.1009 8.15665 21.7477 9.25963 21.7332 10.4735C21.72 11.5765 21.5729 12.6626 21.3131 13.7331C21.0864 14.6667 20.7826 15.5722 20.2674 16.3932C20.2339 16.4466 20.195 16.497 20.1585 16.5487C20.1183 16.4706 20.1132 16.405 20.1108 16.3394C20.0834 15.5269 19.9863 14.7225 19.7982 13.9313C19.6044 13.116 19.349 12.3211 18.8352 11.6441C18.665 11.4203 18.435 11.2367 18.2124 11.0595C18.1113 10.9787 17.9621 10.9581 17.796 10.8952C17.8291 11.0017 17.845 11.0544 17.8619 11.1072C18.027 11.6249 18.0659 12.154 18.0172 12.693C17.9404 13.5417 17.6864 14.3458 17.4117 15.1455C17.0149 16.3002 16.5954 17.4478 16.2325 18.613C15.9175 19.6237 15.7741 20.6699 15.8478 21.7323C15.9551 23.2806 16.5068 24.6653 17.435 25.9042C17.521 26.0191 17.6103 26.1314 17.6979 26.245C17.6911 26.2589 17.6844 26.2731 17.6772 26.2869C15.6794 25.8552 13.6815 25.4234 11.6836 24.9916C11.6728 25.0078 11.662 25.024 11.6515 25.0406C11.7757 25.3649 11.892 25.6925 12.0253 26.0131C12.6197 27.4454 13.531 28.6742 14.5032 29.8644C14.6097 29.9949 14.7244 30.0395 14.8912 30.0395C20.9623 30.0355 27.0337 30.0362 33.1047 30.0362C33.1443 30.0362 33.1866 30.0453 33.2225 30.0341C33.2884 30.0135 33.3683 29.9973 33.4122 29.9509C34.7214 28.5704 35.7159 26.998 36.3072 25.1816C36.3248 25.1272 36.3316 25.0693 36.3509 24.9794C34.1791 25.4156 32.0432 25.845 29.8678 26.2819C29.9297 26.1997 29.9655 26.151 30.0031 26.1033C30.6018 25.3432 31.0575 24.5057 31.3383 23.5792C31.8863 21.7695 31.7618 19.9605 31.2865 18.162C31.023 17.1638 30.5477 16.2529 30.0335 15.3639C29.6086 14.6295 29.2531 13.8663 29.0183 13.0498C28.7585 12.1466 28.6327 11.2313 28.8052 10.2963C28.8553 10.0167 28.9463 9.74451 29.0194 9.46927ZM33.4065 35.1873C33.4065 35.1163 33.4065 35.0608 33.4065 35.0053C33.4065 33.9967 33.4028 32.9881 33.4102 31.9794C33.4116 31.8134 33.3601 31.7742 33.2001 31.7742C27.0668 31.7779 20.9338 31.7782 14.8005 31.7735C14.6223 31.7735 14.5861 31.832 14.5871 31.996C14.5938 32.9931 14.5949 33.9906 14.5864 34.9878C14.585 35.1646 14.6432 35.2028 14.8083 35.2028C20.9359 35.1991 27.0634 35.1998 33.191 35.1991C33.2573 35.1998 33.3233 35.1923 33.4065 35.1873ZM24.0078 36.7329C22.221 36.7329 20.4342 36.7329 18.6474 36.7329C18.5967 36.7329 18.5449 36.7393 18.4955 36.7318C18.3305 36.7075 18.2872 36.7873 18.3075 36.9351C18.3274 37.0801 18.3332 37.2272 18.3579 37.3709C18.5503 38.4969 19.1396 39.3858 20.0164 40.0922C21.0073 40.8905 22.154 41.3041 23.4148 41.4086C24.9046 41.5323 26.3027 41.2371 27.556 40.4067C28.7819 39.5945 29.5724 38.4915 29.6908 36.98C29.7101 36.7332 29.7098 36.7329 29.4534 36.7329C27.6378 36.7329 25.8226 36.7329 24.0078 36.7329Z" fill="#324558"/>
</svg>
