<svg width="48" height="48" viewBox="0 0 48 48" fill="none" xmlns="http://www.w3.org/2000/svg">
<path fill-rule="evenodd" clip-rule="evenodd" d="M14.0658 8.27918C14.0658 8.27918 13.4483 4 23.3379 4C33.6733 4 32.8746 9.15937 32.8746 9.15937V17.6846C32.8746 22.8406 27.6157 22.7558 27.6157 22.7558H18.2554C12.6423 22.7558 12.82 28.2671 12.82 28.2671V32.8873H9.52356C9.52356 32.8873 4 33.2405 4 23.2838C4 13.3274 10.3284 14.0436 10.3284 14.0436H23.5143V12.7125H14.0768L14.0658 8.27918ZM21.1275 6.87251C20.7106 6.45565 20.1451 6.22169 19.5556 6.22222C18.966 6.22169 18.4005 6.45565 17.9836 6.87251C17.5668 7.28937 17.3328 7.85491 17.3333 8.44444C17.3328 9.03398 17.5668 9.59952 17.9836 10.0164C18.4005 10.4332 18.966 10.6672 19.5556 10.6667C20.1451 10.6672 20.7106 10.4332 21.1275 10.0164C21.5444 9.59952 21.7783 9.03398 21.7778 8.44444C21.7783 7.85491 21.5444 7.28937 21.1275 6.87251Z" fill="#324558"/>
<path fill-rule="evenodd" clip-rule="evenodd" d="M33.9343 39.7208C33.9343 39.7208 34.5518 44 24.6622 44C14.327 44 15.1254 38.8408 15.1254 38.8408V30.3154C15.1254 25.1592 20.3843 25.244 20.3843 25.244H29.7446C35.3577 25.244 35.18 19.7327 35.18 19.7327V15.1126H38.4764C38.4764 15.1126 44 14.7595 44 24.716C44 34.6727 37.6716 33.9566 37.6716 33.9566H24.4857V35.2876H33.9233L33.9343 39.7208ZM26.8725 41.1275C27.2894 41.5444 27.8549 41.7783 28.4444 41.7778C29.034 41.7783 29.5995 41.5442 30.0164 41.1273C30.4332 40.7105 30.6672 40.145 30.6667 39.5555C30.6672 38.966 30.4332 38.4004 30.0164 37.9836C29.5995 37.5667 29.034 37.3328 28.4444 37.3333C27.8549 37.3328 27.2893 37.5668 26.8724 37.9837C26.4556 38.4006 26.2216 38.9661 26.2222 39.5557C26.2217 40.1452 26.4556 40.7107 26.8725 41.1275Z" fill="#324558"/>
</svg>
