<svg width="48" height="48" viewBox="0 0 48 48" fill="none" xmlns="http://www.w3.org/2000/svg">
<path d="M24.5925 1V9.82513L32.1126 5.41124L24.5925 1Z" fill="#324558"/>
<path d="M23.4052 9.82012L15.8929 5.41152L23.4052 1.00291V9.82012Z" fill="#324558"/>
<path d="M41.4122 10.8662L33.8921 6.45227V15.28L41.4122 10.8662Z" fill="#324558"/>
<path d="M6.59787 10.8673L14.1102 15.2759V6.45601L6.59787 10.8673Z" fill="#324558"/>
<path d="M41.4096 21.7721L33.8921 17.3635V26.1886L41.4096 21.7721Z" fill="#324558"/>
<path d="M34.4851 27.2307L42 22.8195V31.634L34.4851 27.2307Z" fill="#324558"/>
<path d="M33.8921 28.2698L41.4096 32.681L33.8921 37.0949V28.2698Z" fill="#324558"/>
<path d="M13.5175 16.3238L6 20.7272V11.9099L13.5175 16.3238Z" fill="#324558"/>
<path d="M6 31.641L13.5201 27.2324L6 22.8185V31.641Z" fill="#324558"/>
<path d="M34.4851 16.3221L42 11.9135V20.7281L34.4851 16.3221Z" fill="#324558"/>
<path d="M32.7051 6.45601L25.1876 10.8673L32.7051 15.2732V6.45601Z" fill="#324558"/>
<path d="M25.1876 32.6778L32.7051 28.2692V37.0891L25.1876 32.6778Z" fill="#324558"/>
<path d="M32.1123 38.1373L24.5922 33.7261V42.5486L32.1123 38.1373Z" fill="#324558"/>
<path d="M25.1879 43.594L32.7054 48V39.1801L25.1879 43.594Z" fill="#324558"/>
<path d="M22.8172 32.681L15.2945 28.2698V37.0949L22.8172 32.681Z" fill="#324558"/>
<path d="M15.2945 6.44853L22.8172 10.865L15.2945 15.2737V6.44853Z" fill="#324558"/>
<path d="M14.1103 26.1798L6.59542 21.7739L14.1103 17.3679V26.1798Z" fill="#324558"/>
<path d="M6.59787 32.6802L14.1102 37.0941V28.2742L6.59787 32.6802Z" fill="#324558"/>
<path d="M23.4075 33.7255L15.8926 38.1368L23.4075 42.548V33.7255Z" fill="#324558"/>
</svg>
