<svg width="48" height="48" viewBox="0 0 48 48" fill="none" xmlns="http://www.w3.org/2000/svg">
<path d="M39.8264 29.058C39.4159 27.7869 38.9657 26.5289 38.4764 25.286L36.6564 20.794C36.6564 20.742 36.6804 19.858 36.6804 19.402C36.6804 11.72 33.0144 4 24.0004 4C14.9864 4 11.3204 11.72 11.3204 19.4C11.3204 19.858 11.3424 20.742 11.3444 20.794L9.52444 25.286C9.02844 26.572 8.53444 27.91 8.17444 29.058C6.45444 34.532 7.01244 36.798 7.43644 36.848C8.34644 36.956 10.9784 32.728 10.9784 32.728C10.9784 35.176 12.2524 38.372 15.0104 40.68C13.9804 40.994 12.7164 41.478 11.9024 42.07C11.1724 42.604 11.2644 43.15 11.3964 43.37C11.9744 44.332 21.3064 43.984 24.0024 43.684C26.6964 43.984 36.0304 44.332 36.6064 43.368C36.7384 43.148 36.8304 42.604 36.1004 42.07C35.2864 41.478 34.0224 40.994 32.9904 40.678C35.7484 38.372 37.0224 35.176 37.0224 32.726C37.0224 32.726 39.6544 36.956 40.5644 36.846C40.9884 36.796 41.5444 34.532 39.8244 29.058" fill="#324558"/>
</svg>
