<svg width="48" height="48" viewBox="0 0 48 48" fill="none" xmlns="http://www.w3.org/2000/svg">
<path fill-rule="evenodd" clip-rule="evenodd" d="M44 23.98C44 12.9839 35.0858 4.06982 24.0898 4.06982C13.0938 4.06982 4.17969 12.9839 4.17969 23.98C4.17969 27.4735 5.07949 30.7569 6.65995 33.6112L9.81841 31.2766L9.74056 31.0621C9.66379 30.846 9.59019 30.6262 9.51985 30.4024C8.33422 26.6337 8.73986 22.6674 10.6322 19.5207C10.6817 19.4383 10.7418 19.3662 10.8098 19.3051C10.9229 19.1574 11.0811 19.0419 11.2721 18.9816C11.7661 18.8249 12.2916 19.101 12.4467 19.5943C14.0832 24.7983 19.8169 26.835 24.1505 25.4742C26.6023 24.7025 28.6073 23.0226 29.7954 20.743C30.9841 18.4634 31.2138 15.8573 30.4426 13.4047C29.7558 11.2222 28.3117 9.35228 26.3763 8.13913C25.9384 7.86438 25.8052 7.28621 26.0796 6.84817C26.3556 6.40962 26.9329 6.27683 27.3713 6.55158C29.6839 8.00111 31.4097 10.2352 32.2293 12.8423C33.1507 15.7721 32.8763 18.8857 31.4566 21.609C30.0369 24.3325 27.642 26.3398 24.7126 27.2612C23.5637 27.6229 22.4007 27.7946 21.259 27.7946C19.5175 27.7946 17.8251 27.3947 16.308 26.6584C15.735 26.3802 15.187 26.0541 14.6707 25.6833L14.6422 25.7489C13.9885 27.2966 13.8005 30.8068 17.5886 33.6422C17.7892 33.7933 18.0437 33.8555 18.2905 33.8185C18.5385 33.7806 18.761 33.6449 18.9082 33.4413C19.4394 32.7073 20.2139 32.0977 21.2099 31.6299C22.0537 31.2337 23.03 31.2237 23.888 31.6017C24.7064 31.9623 25.2984 32.6167 25.5574 33.4483L25.5851 33.5424C25.9107 34.6878 25.6387 35.9633 24.876 36.8709C24.1345 37.7522 23.0414 38.1629 21.7952 38.0339L21.6066 38.0152C21.5285 38.0084 21.4489 38.0014 21.3675 37.9917L21.3196 37.987C20.9035 37.958 20.518 38.21 20.3755 38.605L18.7391 43.1629C20.4416 43.6369 22.2361 43.8901 24.0898 43.8901C27.7015 43.8901 31.0885 42.9285 34.0089 41.2473C34.9529 42.1312 36.1318 42.6056 37.3697 42.6056C37.841 42.6056 38.3211 42.537 38.7999 42.396C39.2108 42.2748 39.6045 42.1031 39.97 41.8853C40.3141 41.68 40.4268 41.2344 40.2213 40.8898C40.0167 40.5457 39.5708 40.433 39.2255 40.6381C38.9648 40.7935 38.6838 40.9162 38.3897 41.0028C37.2771 41.3304 36.1827 41.119 35.2964 40.4391C40.5506 36.8547 44 30.8201 44 23.98ZM19.6742 10.3274C19.3601 9.3288 19.915 8.26423 20.9135 7.95009C21.9125 7.63591 22.9768 8.19113 23.2909 9.1897C23.6051 10.1883 23.0502 11.2525 22.0512 11.5666C21.0527 11.8812 19.9883 11.326 19.6742 10.3274Z" fill="#324558"/>
<path d="M15.6395 38.1968C15.2585 38.0139 14.8908 37.8073 14.5367 37.5778L12.492 40.1653C13.0509 40.5665 13.6315 40.9395 14.2316 41.2821L15.8311 38.2861L15.6395 38.1968Z" fill="#324558"/>
<path d="M13.1099 36.4588C12.7639 36.1347 12.4353 35.7834 12.1246 35.4056L9.69817 37.7385C10.1807 38.2429 10.6894 38.7222 11.2222 39.1738L13.2593 36.596L13.1099 36.4588Z" fill="#324558"/>
<path d="M11.0523 33.8779C10.8461 33.5339 10.6513 33.1741 10.468 32.7993L7.50034 34.9929C7.85329 35.5236 8.23098 36.0364 8.63183 36.5294L11.1773 34.0825L11.0523 33.8779Z" fill="#324558"/>
</svg>
