<svg width="48" height="48" viewBox="0 0 48 48" fill="none" xmlns="http://www.w3.org/2000/svg">
<path d="M25.2101 35.1683C23.8488 32.4433 22.2532 29.69 19.1358 29.69C18.5428 29.69 17.9448 29.7917 17.4009 30.0383L16.3427 27.89C17.6303 26.76 19.714 25.8667 22.3925 25.8667C26.56 25.8667 28.701 27.915 30.3998 30.52C31.404 28.295 31.8807 25.2867 31.8807 21.5617C31.8807 12.2583 29.0238 7.48333 22.3433 7.48333C15.7611 7.48333 12.9124 12.2583 12.9124 21.5617C12.9124 30.8167 15.7611 35.5433 22.3433 35.5433C23.3917 35.5433 24.3419 35.4283 25.2101 35.1683ZM26.8417 38.4133C25.3985 38.8083 23.8652 39.0233 22.3482 39.0233C13.5807 39.0233 5 31.9083 5 21.56C5.00164 11.1183 13.5807 4 22.3482 4C31.2615 4 39.7587 11.0633 39.7587 21.5617C39.7587 27.4017 37.0803 32.1467 33.1896 35.2133C34.4412 37.1267 35.7173 38.4033 37.5341 38.4033C39.4982 38.4033 40.2862 36.8783 40.4336 35.655H42.9843C43.135 37.2783 42.3257 44 35.1767 44C30.8323 44 28.5471 41.4533 26.8286 38.4533L26.8417 38.4133Z" fill="#324558"/>
</svg>
