<svg width="48" height="48" viewBox="0 0 48 48" fill="none" xmlns="http://www.w3.org/2000/svg">
<path d="M24 27C25.6569 27 27 25.6568 27 24C27 22.3431 25.6569 21 24 21C22.3431 21 21 22.3431 21 24C21 25.6568 22.3431 27 24 27Z" fill="#324558"/>
<path fill-rule="evenodd" clip-rule="evenodd" d="M22.1939 39.8594C22.7895 39.347 23.3931 38.7799 24 38.1631C24.6068 38.7799 25.2104 39.347 25.806 39.8594C27.3331 41.1734 28.8721 42.1852 30.3317 42.7278C31.7796 43.2661 33.3713 43.4156 34.7499 42.6196C36.1285 41.8237 36.7949 40.3705 37.0527 38.8474C37.3126 37.3121 37.2058 35.4734 36.8314 33.4939C36.6854 32.7218 36.4962 31.9155 36.2653 31.0815C37.1031 30.8644 37.896 30.6251 38.6377 30.3655C40.5392 29.7 42.1849 28.8731 43.3846 27.8804C44.5747 26.8955 45.5 25.5919 45.5 24C45.5 22.4081 44.5747 21.1045 43.3846 20.1196C42.1849 19.1269 40.5392 18.3 38.6377 17.6345C37.896 17.3749 37.1031 17.1356 36.2655 16.9185C36.4963 16.0846 36.6855 15.2783 36.8316 14.5063C37.2059 12.5267 37.3127 10.688 37.0528 9.15271C36.795 7.62961 36.1286 6.17647 34.75 5.38053C33.3714 4.58459 31.7798 4.73408 30.3318 5.27235C28.8723 5.81493 27.3333 6.82673 25.8061 8.14072C25.2105 8.65322 24.6068 9.22028 23.9999 9.83721C23.3931 9.22028 22.7894 8.65322 22.1938 8.14072C20.6666 6.82673 19.1276 5.81494 17.6681 5.27235C16.2201 4.73408 14.6285 4.58459 13.2499 5.38053C11.8713 6.17647 11.2049 7.62962 10.9471 9.15271C10.6872 10.688 10.7939 12.5267 11.1683 14.5063C11.3144 15.2783 11.5036 16.0846 11.7344 16.9186C10.8968 17.1356 10.1039 17.3749 9.36234 17.6345C7.46082 18.3 5.81508 19.1269 4.61541 20.1196C3.42528 21.1045 2.5 22.4081 2.5 24C2.5 25.5919 3.42528 26.8955 4.61541 27.8804C5.81508 28.8731 7.46082 29.7 9.36234 30.3655C10.104 30.6251 10.8969 30.8644 11.7346 31.0815C11.5037 31.9155 11.3145 32.7218 11.1685 33.4939C10.7941 35.4734 10.6873 37.3121 10.9472 38.8474C11.205 40.3705 11.8714 41.8237 13.25 42.6196C14.6286 43.4156 16.2203 43.2661 17.6682 42.7278C19.1278 42.1852 20.6668 41.1734 22.1939 39.8594ZM14.75 40.0215C14.4546 39.851 14.0858 39.4141 13.9051 38.3467C13.7265 37.2917 13.778 35.8397 14.1162 34.0514C14.2557 33.3139 14.4412 32.5335 14.6716 31.718C16.102 31.973 17.6214 32.1704 19.2061 32.303C20.1134 33.6092 21.044 34.8265 21.9801 35.9378C21.3892 36.545 20.8061 37.0958 20.2372 37.5854C18.8576 38.7724 17.6259 39.5429 16.6229 39.9158C15.6082 40.293 15.0454 40.1921 14.75 40.0215ZM24 33.6756C23.686 33.2949 23.3719 32.9004 23.0584 32.4926C23.3707 32.4975 23.6846 32.5 24 32.5C24.3154 32.5 24.6292 32.4975 24.9415 32.4926C24.628 32.9004 24.3139 33.2949 24 33.6756ZM33.8837 34.0514C33.7442 33.3139 33.5587 32.5335 33.3283 31.7181C31.8979 31.9731 30.3785 32.1704 28.7938 32.303C27.8865 33.6092 26.9559 34.8265 26.0198 35.9378C26.6107 36.545 27.1938 37.0958 27.7627 37.5854C29.1423 38.7724 30.374 39.5429 31.377 39.9158C32.3917 40.293 32.9545 40.1921 33.2499 40.0215C33.5453 39.851 33.9141 39.4141 34.0947 38.3467C34.2733 37.2917 34.2219 35.8397 33.8837 34.0514ZM37.6466 27.534C36.9381 27.7819 36.1695 28.0115 35.3481 28.2196C34.8538 26.8534 34.2649 25.4389 33.5874 24.0002C34.265 22.5614 34.8539 21.1467 35.3483 19.7804C36.1696 19.9885 36.9382 20.2181 37.6466 20.466C39.3644 21.0673 40.6476 21.7487 41.472 22.4309C42.306 23.121 42.5 23.6589 42.5 24C42.5 24.3411 42.306 24.879 41.472 25.5691C40.6476 26.2513 39.3644 26.9327 37.6466 27.534ZM32.379 28.8377C32.2064 28.3756 32.0218 27.9064 31.8254 27.4312C31.6736 27.704 31.5189 27.977 31.3612 28.2501C31.2036 28.5231 31.0445 28.7937 30.8841 29.0616C31.3939 28.994 31.8925 28.9193 32.379 28.8377ZM28.7631 26.7501C29.2962 25.8267 29.7922 24.9078 30.25 24.0002C29.7921 23.0925 29.2962 22.1735 28.763 21.2501C28.2299 20.3267 27.682 19.4376 27.1249 18.5872C26.1099 18.5299 25.0662 18.5 24 18.5C22.9338 18.5 21.89 18.53 20.875 18.5873C20.3179 19.4376 19.77 20.3267 19.2369 21.2501C18.7037 22.1735 18.2077 23.0925 17.7499 24.0002C18.2077 24.9078 18.7036 25.8267 19.2367 26.7501C19.7698 27.6734 20.3177 28.5624 20.8748 29.4127C21.8898 29.47 22.9337 29.5 24 29.5C25.0663 29.5 26.1101 29.47 27.1251 29.4127C27.6822 28.5624 28.23 27.6734 28.7631 26.7501ZM32.3792 19.1623C32.2065 19.6245 32.0219 20.0939 31.8255 20.5692C31.6736 20.2963 31.5188 20.0232 31.3611 19.7501C31.2034 19.477 31.0443 19.2064 30.8839 18.9384C31.3938 19.006 31.8926 19.0807 32.3792 19.1623ZM33.3284 16.282C31.898 16.0269 30.3784 15.8296 28.7936 15.697C27.8864 14.3909 26.9558 13.1737 26.0198 12.0625C26.6107 11.4552 27.1938 10.9043 27.7628 10.4148C29.1424 9.22776 30.3741 8.45721 31.3772 8.08433C32.3918 7.70714 32.9546 7.80805 33.25 7.9786C33.5454 8.14916 33.9142 8.5861 34.0949 9.65341C34.2735 10.7085 34.222 12.1605 33.8838 13.9487C33.7443 14.6862 33.5589 15.4666 33.3284 16.282ZM20.2371 10.4148C20.806 10.9043 21.3892 11.4552 21.9801 12.0625C21.0441 13.1737 20.1135 14.3909 19.2063 15.697C17.6215 15.8296 16.1019 16.0269 14.6715 16.282C14.441 15.4666 14.2556 14.6862 14.1161 13.9487C13.7779 12.1605 13.7264 10.7085 13.905 9.65341C14.0857 8.5861 14.4545 8.14916 14.7499 7.97861C15.0453 7.80805 15.6081 7.70714 16.6227 8.08434C17.6258 8.45721 18.8575 9.22776 20.2371 10.4148ZM10.3534 20.466C11.0618 20.2181 11.8303 19.9886 12.6516 19.7804C13.146 21.1467 13.7349 22.5614 14.4124 24.0002C13.735 25.4389 13.1461 26.8534 12.6518 28.2196C11.8304 28.0115 11.0618 27.7819 10.3534 27.534C8.63562 26.9327 7.35243 26.2513 6.52799 25.5691C5.69401 24.879 5.5 24.3411 5.5 24C5.5 23.6589 5.69401 23.121 6.52799 22.4309C7.35243 21.7487 8.63562 21.0673 10.3534 20.466ZM15.6207 19.1623C15.7934 19.6245 15.978 20.0939 16.1744 20.5692C16.3263 20.2963 16.4811 20.0232 16.6388 19.7501C16.7965 19.477 16.9556 19.2064 17.116 18.9384C16.6061 19.006 16.1073 19.0807 15.6207 19.1623ZM15.6209 28.8377C15.7935 28.3756 15.9781 27.9064 16.1745 27.4312C16.3263 27.704 16.481 27.977 16.6387 28.2501C16.7963 28.5231 16.9554 28.7937 17.1158 29.0616C16.606 28.994 16.1074 28.9192 15.6209 28.8377ZM24.9413 15.5074C24.6279 15.0997 24.3138 14.7053 23.9999 14.3247C23.6861 14.7053 23.372 15.0997 23.0586 15.5074C23.3708 15.5025 23.6847 15.5 24 15.5C24.3153 15.5 24.6291 15.5025 24.9413 15.5074Z" fill="#324558"/>
</svg>
