<svg width="48" height="48" viewBox="0 0 48 48" fill="none" xmlns="http://www.w3.org/2000/svg">
<path d="M24 44C12.954 44 4 35.046 4 24C4 12.954 12.954 4 24 4C35.046 4 44 12.954 44 24C44 35.046 35.046 44 24 44ZM37.34 24C37.3194 23.437 37.1364 22.892 36.8131 22.4307C36.4898 21.9694 36.0399 21.6115 35.5177 21.4001C34.9956 21.1887 34.4234 21.1328 33.8702 21.2393C33.317 21.3457 32.8064 21.6099 32.4 22C30.1248 20.4534 27.4504 19.599 24.7 19.54L26 13.3L30.28 14.2C30.3309 14.673 30.5487 15.1123 30.8943 15.4392C31.2399 15.766 31.6907 15.959 32.1658 15.9834C32.6408 16.0079 33.1091 15.8622 33.4864 15.5725C33.8637 15.2829 34.1254 14.8682 34.2246 14.4029C34.3237 13.9377 34.2538 13.4523 34.0274 13.034C33.8009 12.6157 33.4328 12.2917 32.989 12.1204C32.5453 11.949 32.055 11.9414 31.6061 12.099C31.1573 12.2565 30.7793 12.5689 30.54 12.98L25.64 12C25.5599 11.9824 25.477 11.9809 25.3963 11.9956C25.3156 12.0103 25.2386 12.0408 25.1697 12.0854C25.1009 12.1301 25.0416 12.188 24.9953 12.2557C24.949 12.3234 24.9166 12.3997 24.9 12.48L23.42 19.42C20.6358 19.462 17.9245 20.3171 15.62 21.88C15.3117 21.5899 14.944 21.3703 14.5424 21.2365C14.1407 21.1026 13.7148 21.0577 13.2941 21.1048C12.8734 21.1519 12.468 21.2899 12.1059 21.5093C11.7438 21.7287 11.4338 22.0241 11.1973 22.3752C10.9608 22.7263 10.8034 23.1247 10.7362 23.5426C10.6689 23.9606 10.6933 24.3882 10.8077 24.7958C10.9221 25.2034 11.1238 25.5812 11.3987 25.9031C11.6737 26.225 12.0153 26.4833 12.4 26.66C12.3775 26.9529 12.3775 27.2471 12.4 27.54C12.4 32.02 17.62 35.66 24.06 35.66C30.5 35.66 35.72 32.02 35.72 27.54C35.7425 27.2471 35.7425 26.9529 35.72 26.66C36.2135 26.4147 36.6276 26.0347 36.9142 25.564C37.2009 25.0933 37.3485 24.5511 37.34 24ZM17.34 26C17.34 25.4696 17.5507 24.9609 17.9258 24.5858C18.3009 24.2107 18.8096 24 19.34 24C19.8704 24 20.3791 24.2107 20.7542 24.5858C21.1293 24.9609 21.34 25.4696 21.34 26C21.34 26.5304 21.1293 27.0391 20.7542 27.4142C20.3791 27.7893 19.8704 28 19.34 28C18.8096 28 18.3009 27.7893 17.9258 27.4142C17.5507 27.0391 17.34 26.5304 17.34 26ZM28.96 31.5C27.541 32.5693 25.7952 33.1136 24.02 33.04C22.2448 33.1136 20.499 32.5693 19.08 31.5C18.995 31.3964 18.9515 31.2648 18.9581 31.1309C18.9646 30.997 19.0208 30.8704 19.1156 30.7756C19.2104 30.6808 19.337 30.6246 19.4709 30.6181C19.6048 30.6115 19.7364 30.655 19.84 30.74C21.0425 31.622 22.5102 32.0666 24 32C25.4916 32.0811 26.9662 31.6507 28.18 30.78C28.2312 30.7227 28.2935 30.6766 28.3633 30.6444C28.433 30.6122 28.5087 30.5948 28.5854 30.5931C28.6622 30.5914 28.7385 30.6055 28.8096 30.6346C28.8807 30.6637 28.9451 30.707 28.9987 30.762C29.0523 30.817 29.094 30.8824 29.1213 30.9543C29.1485 31.0261 29.1607 31.1027 29.1571 31.1794C29.1535 31.2561 29.1341 31.3313 29.1002 31.4002C29.0663 31.4691 29.0186 31.5303 28.96 31.58V31.5ZM28.6 28.08C28.2044 28.08 27.8178 27.9627 27.4889 27.7429C27.16 27.5232 26.9036 27.2108 26.7522 26.8454C26.6009 26.4799 26.5613 26.0778 26.6384 25.6898C26.7156 25.3019 26.9061 24.9455 27.1858 24.6658C27.4655 24.3861 27.8219 24.1956 28.2098 24.1184C28.5978 24.0413 28.9999 24.0809 29.3654 24.2322C29.7308 24.3836 30.0432 24.64 30.2629 24.9689C30.4827 25.2978 30.6 25.6844 30.6 26.08C30.6109 26.351 30.5665 26.6214 30.4696 26.8747C30.3727 27.128 30.2253 27.3589 30.0364 27.5535C29.8474 27.748 29.6209 27.9021 29.3705 28.0064C29.1201 28.1107 28.8512 28.1629 28.58 28.16L28.6 28.08Z" fill="#324558"/>
</svg>
