<svg width="48" height="48" viewBox="0 0 48 48" fill="none" xmlns="http://www.w3.org/2000/svg">
<path d="M30.0074 45.9615L43 43.0997C43 43.0997 38.3114 10.8092 38.2736 10.5947C38.2412 10.382 38.0684 10.2427 37.8937 10.2427C37.7191 10.2427 34.4205 9.99333 34.4205 9.99333C34.4205 9.99333 32.1249 7.65767 31.8296 7.4065C31.7485 7.33867 31.6945 7.302 31.6117 7.27083L29.966 45.9615H30.0074ZM23.4769 22.7258C23.4769 22.7258 22.0185 21.9485 20.2828 21.9485C17.6775 21.9485 17.5748 23.6095 17.5748 24.0403C17.5748 26.299 23.4085 27.1845 23.4085 32.5268C23.4085 36.7343 20.8158 39.4202 17.276 39.4202C13.0375 39.4202 10.9021 36.7343 10.9021 36.7343L12.0652 32.91C12.0652 32.91 14.3069 34.8643 16.1704 34.8643C17.3858 34.8643 17.9259 33.8652 17.9259 33.1557C17.9259 30.1875 13.1474 30.05 13.1474 25.1642C13.0861 21.063 15.976 17.0682 21.8385 17.0682C24.1017 17.0682 25.2145 17.73 25.2145 17.73L23.513 22.7075L23.4769 22.7258ZM22.5047 3.52167C22.7495 3.52167 22.9926 3.59133 23.2339 3.76917C21.4622 4.62167 19.5176 6.774 18.7182 11.0878C17.537 11.4783 16.3901 11.8303 15.317 12.1475C16.2515 8.875 18.5093 3.54 22.5047 3.54V3.52167ZM24.7283 8.92817V9.17567C23.3707 9.601 21.8781 10.063 20.4179 10.525C21.2569 7.26717 22.818 5.67583 24.1719 5.07817C24.5195 5.99667 24.7283 7.23417 24.7283 8.92817ZM25.6988 4.8325C26.9484 4.96817 27.7532 6.422 28.2717 8.05C27.6434 8.259 26.9484 8.4735 26.1867 8.721V8.259C26.1867 6.88033 26.0139 5.7455 25.6988 4.82883V4.8325ZM31.086 7.19567C31.0499 7.19567 30.9779 7.23417 30.9455 7.23417C30.9131 7.23417 30.4252 7.37167 29.6599 7.61917C28.8983 5.35867 27.5425 3.27417 25.1442 3.27417H24.9372C24.2422 2.38317 23.4031 2 22.6757 2C17.0833 2 14.4113 9.10783 13.5741 12.7177C11.4243 13.3868 9.85961 13.8837 9.68496 13.9533C8.4696 14.3438 8.43539 14.3787 8.29495 15.5483C8.15991 16.3953 5 41.3305 5 41.3305L29.4169 46L31.086 7.19567Z" fill="#324558"/>
</svg>
