<svg width="48" height="48" viewBox="0 0 48 48" fill="none" xmlns="http://www.w3.org/2000/svg">
<path fill-rule="evenodd" clip-rule="evenodd" d="M3.20843 18.2254L11.7435 6.69193C11.8308 6.57424 11.9416 6.47581 12.069 6.40284C12.1963 6.32986 12.3375 6.28392 12.4836 6.26791L23.8832 5.00643C23.961 4.99786 24.0396 4.99786 24.1174 5.00643L35.517 6.26658C35.6631 6.2826 35.8043 6.32854 35.9316 6.40151C36.059 6.47449 36.1698 6.57292 36.2571 6.69061L44.7935 18.2254C44.9363 18.419 45.0088 18.6552 44.9991 18.8952C44.9895 19.1352 44.8982 19.3649 44.7403 19.5465L24.606 42.7248C24.531 42.8111 24.4382 42.8804 24.3339 42.9279C24.2296 42.9754 24.1163 43 24.0016 43C23.887 43 23.7736 42.9754 23.6694 42.9279C23.5651 42.8804 23.4723 42.8111 23.3973 42.7248L3.25901 19.5465C3.10128 19.3647 3.01025 19.135 3.00081 18.895C2.99138 18.655 3.06412 18.4189 3.2071 18.2254H3.20843ZM26.9367 8.41586L34.9859 15.9847C35.0639 16.0583 35.1625 16.1066 35.2686 16.1234C35.3747 16.1402 35.4834 16.1246 35.5805 16.0787C35.6775 16.0329 35.7584 15.9588 35.8124 15.8664C35.8664 15.7739 35.891 15.6673 35.8831 15.5607L35.4971 10.1888C35.4917 10.1231 35.511 10.0577 35.5515 10.0055C35.5919 9.95323 35.6504 9.91785 35.7156 9.90626C35.7808 9.89467 35.848 9.90769 35.9041 9.94279C35.9602 9.97788 36.0011 10.0325 36.0189 10.0961L37.7839 16.2471C37.8433 16.4542 37.9526 16.6438 38.1022 16.7994C38.2518 16.955 38.4372 17.072 38.6425 17.1402L42.4095 18.3897C42.4696 18.4094 42.5207 18.4497 42.5536 18.5035C42.5866 18.5572 42.5992 18.6209 42.5893 18.6831C42.5794 18.7453 42.5475 18.8019 42.4994 18.8429C42.4514 18.8838 42.3902 18.9064 42.327 18.9065H38.7064C38.4826 18.9066 38.2625 18.9629 38.0663 19.0701C37.8702 19.1774 37.7044 19.3321 37.5842 19.52L27.7154 34.9572C27.6602 35.0414 27.5749 35.1016 27.4769 35.1258C27.3788 35.1499 27.2752 35.1361 27.1869 35.0872C27.0986 35.0383 27.0322 34.9579 27.0011 34.8622C26.97 34.7665 26.9765 34.6627 27.0193 34.5716L34.0928 20.0487C34.1519 19.9275 34.179 19.7933 34.1718 19.6587C34.1645 19.5242 34.1229 19.3937 34.0511 19.2795C33.9792 19.1653 33.8794 19.0711 33.7609 19.0059C33.6425 18.9406 33.5093 18.9064 33.374 18.9065H14.6267C14.4913 18.9064 14.3581 18.9406 14.2397 19.0059C14.1212 19.0711 14.0214 19.1653 13.9495 19.2795C13.8777 19.3937 13.8361 19.5242 13.8289 19.6587C13.8216 19.7933 13.8488 19.9275 13.9079 20.0487L20.9814 34.5716C21.0258 34.6628 21.0335 34.7676 21.0029 34.8644C20.9723 34.9611 20.9056 35.0426 20.8167 35.092C20.7277 35.1415 20.6231 35.1552 20.5243 35.1304C20.4255 35.1055 20.3399 35.044 20.2852 34.9585L10.4164 19.5213C10.2962 19.333 10.1303 19.1779 9.9339 19.0704C9.73751 18.9629 9.51703 18.9065 9.29292 18.9065H5.56183C5.49857 18.9064 5.43743 18.8838 5.38936 18.8429C5.34129 18.8019 5.30943 18.7453 5.2995 18.6831C5.28957 18.6209 5.30221 18.5572 5.33516 18.5035C5.3681 18.4497 5.4192 18.4094 5.4793 18.3897L9.35015 17.1375C9.55759 17.0702 9.74523 16.9532 9.89657 16.7968C10.0479 16.6404 10.1583 16.4493 10.218 16.2404L11.9818 10.0961C11.9995 10.0325 12.0404 9.97788 12.0965 9.94279C12.1526 9.90769 12.2198 9.89467 12.285 9.90626C12.3502 9.91785 12.4087 9.95323 12.4492 10.0055C12.4896 10.0577 12.509 10.1231 12.5035 10.1888L12.1175 15.5607C12.1096 15.6673 12.1342 15.7739 12.1882 15.8664C12.2422 15.9588 12.3231 16.0329 12.4201 16.0787C12.5172 16.1246 12.6259 16.1402 12.732 16.1234C12.8382 16.1066 12.9367 16.0583 13.0147 15.9847L21.0639 8.41586C21.1125 8.36697 21.1784 8.33883 21.2475 8.33738C21.3166 8.33594 21.3835 8.36131 21.4342 8.40812C21.4848 8.45493 21.5152 8.51951 21.5189 8.58822C21.5226 8.65693 21.4993 8.72437 21.4539 8.77628L16.0536 15.3924C15.9903 15.4701 15.9503 15.5641 15.9384 15.6635C15.9265 15.7628 15.9431 15.8635 15.9862 15.9539C16.0294 16.0443 16.0974 16.1206 16.1823 16.1742C16.2673 16.2277 16.3657 16.2562 16.4662 16.2563H31.5344C31.6349 16.2562 31.7333 16.2277 31.8183 16.1742C31.9032 16.1206 31.9712 16.0443 32.0144 15.9539C32.0575 15.8635 32.0741 15.7628 32.0622 15.6635C32.0503 15.5641 32.0103 15.4701 31.947 15.3924L26.5467 8.77628C26.5013 8.72437 26.478 8.65693 26.4817 8.58822C26.4854 8.51951 26.5158 8.45493 26.5664 8.40812C26.6171 8.36131 26.6841 8.33594 26.7532 8.33738C26.8223 8.33883 26.8881 8.36697 26.9367 8.41586Z" fill="#324558"/>
</svg>
