<svg width="48" height="48" viewBox="0 0 48 48" fill="none" xmlns="http://www.w3.org/2000/svg">
<path fill-rule="evenodd" clip-rule="evenodd" d="M8 6C6.89543 6 6 6.89543 6 8V40C6 41.1046 6.89543 42 8 42H40C41.1046 42 42 41.1046 42 40V8C42 6.89543 41.1046 6 40 6H8ZM32.6979 37.0001H34.1734C34.1734 24.2994 23.7061 13.9707 10.8386 13.9707V15.4462C22.8913 15.4462 32.6979 25.1151 32.6979 37.0001ZM19.8056 13.2191C27.381 15.3944 33.4228 21.6171 35.1931 29.0725L36.3889 28.7875C34.5175 20.9063 28.1408 14.3325 20.1456 12.0365L19.8056 13.2191ZM28.0966 12.3014C31.9163 14.6235 35.0292 18.0953 36.8545 22.076L37.7473 21.6653C35.8399 17.5078 32.596 13.886 28.6076 11.4609L28.0966 12.3014Z" fill="#324558"/>
</svg>
