<svg width="48" height="48" viewBox="0 0 48 48" fill="none" xmlns="http://www.w3.org/2000/svg">
<path d="M24 4C13 4 4 13 4 24C4 35 13 44 24 44C35 44 44 35 44 24C44 13 35.1 4 24 4ZM31.5 33.3C26.8 30.4 20.9 29.8 13.9 31.4C13.2 31.6 12.6 31.1 12.4 30.5C12.2 29.8 12.7 29.2 13.3 29C20.9 27.3 27.5 28 32.7 31.2C33.4 31.5 33.5 32.3 33.2 32.9C32.8 33.5 32.1 33.7 31.5 33.3ZM33.5 27.9C28.1 24.6 19.9 23.6 13.6 25.6C12.8 25.8 11.9 25.4 11.7 24.6C11.5 23.8 11.9 22.9 12.7 22.7C20 20.5 29 21.6 35.2 25.4C35.8 25.7 36.1 26.7 35.6 27.4C35.1 28.1 34.2 28.4 33.5 27.9ZM12.6 19.5C11.6 19.8 10.6 19.2 10.3 18.3C10 17.3 10.6 16.3 11.5 16C18.6 13.9 30.3 14.3 37.7 18.7C38.6 19.2 38.9 20.4 38.4 21.3C37.9 22 36.7 22.3 35.8 21.8C29.4 18 18.7 17.6 12.6 19.5Z" fill="#324558"/>
</svg>
