<svg width="48" height="48" viewBox="0 0 48 48" fill="none" xmlns="http://www.w3.org/2000/svg">
<path fill-rule="evenodd" clip-rule="evenodd" d="M24 44C35.0457 44 44 35.0457 44 24C44 12.9543 35.0457 4 24 4C12.9543 4 4 12.9543 4 24C4 35.0457 12.9543 44 24 44ZM36.3206 22.013C37.4101 21.9612 38.646 21.9025 39.4411 20.9612L39.4387 20.9636C40.3002 19.9494 40.0836 18.0992 39.3722 17.0447C38.0405 15.0354 35.2541 14.3822 32.8664 15.6481C31.1027 16.5864 30.8363 18.347 30.5729 20.0879C30.3355 21.6563 30.1006 23.2088 28.7753 24.1296C28.7801 22.3636 28.1453 20.6515 26.9808 19.2892C25.5359 17.6218 23.3304 16.5625 20.6842 16.5625C18.0061 16.5625 15.8892 17.8712 14.5107 19.8259C13.4719 21.3127 12.8516 23.1701 12.7384 25.1129C10.7938 25.6782 9.10516 24.417 8.1107 23.0822C7.24595 27.9768 11.6885 28.1947 13.0655 28.2623C13.1819 28.268 13.2764 28.2726 13.3439 28.2789C13.6604 28.3117 13.4536 29.107 13.2012 30.0773C12.851 31.4238 12.4132 33.1074 13.1642 33.5587C14.1981 34.1786 17.4941 34.1169 18.1759 33.5516C18.9201 32.9273 18.5391 31.1581 18.1667 29.4288C18.1239 29.2305 18.0813 29.0326 18.0405 28.8371C18.1056 28.8395 18.1695 28.8419 18.2323 28.8443C20.656 28.9363 21.5097 28.9687 24.0098 28.7325C23.9253 29.4931 23.7765 30.1807 23.6451 30.7882C23.3434 32.1821 23.1332 33.1535 24.0024 33.6134C24.8565 34.0599 28.3716 34.0195 29.2454 33.2001C29.6689 32.8044 29.4037 31.7316 29.1392 30.6611C28.8654 29.5536 28.5923 28.4486 29.083 28.0984C31.4059 26.4449 32.3512 25.0376 33.0611 23.9809C33.5647 23.2313 33.9498 22.6581 34.6239 22.2984C35.0463 22.0735 35.6562 22.0445 36.3206 22.013Z" fill="#324558"/>
</svg>
