<svg width="48" height="48" viewBox="0 0 48 48" fill="none" xmlns="http://www.w3.org/2000/svg">
<path d="M24.9629 7.65329L24.9658 4H23.8111V7.65329H20.1578V8.8051H23.8111V12.4613H24.9629V8.8051H28.6191V7.65329H24.9629Z" fill="#324558"/>
<path d="M8.811 23.4241V19.7708H7.65329V23.4241H4V24.5759H7.6592V28.2321H8.811L8.80805 24.5759H12.4643V23.4241H8.811Z" fill="#324558"/>
<path d="M14.9657 7.84524V13.0372H20.1577V14.9628H14.9628V20.1548H13.0431V14.9569H7.84521V13.0372H13.0372V7.84229H14.9628L14.9657 7.84524Z" fill="#324558"/>
<path d="M25.7337 16.6934V22.8422H31.8885V25.1517H25.7337V31.3065H23.4271V25.1547H17.2694V22.8422H23.4212V16.6934H25.7337Z" fill="#324558"/>
<path d="M14.9657 32.6534V27.4615L14.9628 27.4585H13.0372V32.6564H7.84521V34.5761H13.0431V39.771H14.9628V34.5761H20.1577V32.6534H14.9657Z" fill="#324558"/>
<path d="M36.1206 13.0372H41.3126V14.9628H36.1177V20.1548H34.198V14.9569H29.0031V13.0372H34.195V7.84229H36.1206V13.0372Z" fill="#324558"/>
<path d="M36.1206 32.6534V27.4585H34.195V32.6564H29.0031V34.5761H34.198V39.771H36.1177V34.5761H41.3126V32.6534H36.1206Z" fill="#324558"/>
<path d="M41.5046 19.7708V23.2321H44.9659V24.7678H41.5046V28.2321H39.9659V24.7708H36.5046V23.2321H39.9659V19.7708H41.5046Z" fill="#324558"/>
<path d="M25.3497 39H28.8111V40.5387H25.3497V44H23.814L23.8111 40.5387H20.3497V39.0029H23.8111V35.5386H25.3497V39Z" fill="#324558"/>
</svg>
