<svg width="48" height="48" viewBox="0 0 48 48" fill="none" xmlns="http://www.w3.org/2000/svg">
<path fill-rule="evenodd" clip-rule="evenodd" d="M24 44C35.0457 44 44 35.0457 44 24C44 12.9543 35.0457 4 24 4C12.9543 4 4 12.9543 4 24C4 35.0457 12.9543 44 24 44ZM12.0932 21.6832L13.5703 19.4141C15.6168 20.9379 15.7716 21.0672 17.1495 22.4531C18.2217 23.5408 18.0831 25.0363 17.4492 26.9827C17.0581 28.2007 16.9826 28.3582 16.3491 29.6788C15.9857 30.4363 15.4388 31.5764 14.5434 33.519L11 31.3041C11 31.3041 14.9569 27.6922 15.7617 26.044C16.6296 24.3009 14.817 23.3721 14.817 23.3721L12.0932 21.6832ZM17.8379 16.4736C17.8379 17.6254 16.7942 18.5591 15.5066 18.5591C14.2103 18.5591 13.1765 17.6205 13.1704 16.4736C13.1704 15.3169 14.2091 14.3782 15.5066 14.3782C16.7942 14.3782 17.8379 15.3119 17.8379 16.4736ZM22.685 16.534C35.7876 12.8186 36.5602 18.8178 36.5602 18.8178C36.5602 18.8178 37.4194 22.9692 36.736 29.476C36.0464 35.9815 27.6064 33.5584 27.6064 33.5584L28.0607 31.6958L30.0169 32.1183C33.6309 32.3413 33.2805 29.1828 33.2805 29.1828V19.9746C33.3053 16.4785 29.9971 16.1114 24.0568 18.2463L25.4459 18.6244C25.3246 19.026 24.8814 19.6666 24.3069 20.3675H32.243V21.9764H27.7809V23.9929H32.2281V25.6067H27.7809V28.9795C28.4458 28.7553 29.0685 28.4572 29.5972 28.0507L29.2084 26.5848L31.3045 25.9245L33.0576 30.2163L30.4701 31.3028L30.012 29.5856C28.8544 30.4738 26.4475 31.7648 22.2554 31.6514C17.7686 31.7648 18.9262 26.5848 18.9262 26.5848L19.0413 26.5207H22.191C22.1867 26.6986 22.1643 26.9052 22.1406 27.1238C22.0749 27.7291 21.9992 28.427 22.2702 28.865C22.5798 29.3516 23.3585 29.4366 23.8637 29.4612L24.037 29.4661V25.6067H19.4747V23.9978H24.037V21.9825H22.8695C21.8456 23.069 20.9022 23.9781 20.9022 23.9781L19.5254 22.766C20.5035 21.7337 21.4766 20.0941 22.0858 19.0014C21.5955 19.1997 21.0928 19.4128 20.5679 19.6469C20.0289 20.3376 19.4471 20.9943 18.8259 21.6129C18.8507 21.6536 16.5652 20.3318 16.5652 20.3318C18.92 18.3214 20.2447 14 20.2447 14L23.5133 14.9239C23.5133 14.9239 23.2483 15.5546 22.685 16.534Z" fill="#324558"/>
</svg>
