<svg width="48" height="48" viewBox="0 0 48 48" fill="none" xmlns="http://www.w3.org/2000/svg">
<path fill-rule="evenodd" clip-rule="evenodd" d="M37.4995 16.1451C35.4653 10.5975 30.1026 6.71411 24.0002 6.71411C16.8061 6.71411 11.0841 12.0503 9.95449 18.6846C7.63424 19.0658 5.52755 20.2287 4.02848 21.8777C-0.0397985 26.1309 -0.0397983 32.7881 4.2134 37.0413C6.06261 38.7056 7.91183 39.6302 10.1309 39.8151L10.1355 39.8107C10.1325 39.8136 10.1309 39.8151 10.1309 39.8151C11.0555 40 12.1651 40 13.0897 40H33.2462C34.7255 40 35.8351 40 36.9446 39.8151C39.3486 39.6302 41.7526 38.7056 43.7867 36.8564C48.0399 32.7881 48.0399 25.946 43.9716 21.8777C42.1224 19.8436 39.3486 18.5491 36.3898 18.5491C33.8009 18.5491 31.5819 19.4737 29.5477 20.9531C29.2724 21.2285 28.9457 21.5039 28.5965 21.7983C28.0076 22.2948 27.3543 22.8455 26.7739 23.542C26.2813 24.0347 19.0625 31.0894 14.2955 35.7468H11.9801C9.57612 35.5619 8.09675 34.8222 7.17214 33.8976C4.58324 31.3087 4.58324 27.2404 6.98722 24.6515C8.28167 23.3571 9.76104 22.8023 11.6103 22.8023C12.7198 22.8023 14.3841 22.9872 16.0484 24.6515C16.4182 25.0214 17.1117 25.5762 17.8051 26.1309C18.4986 26.6857 19.192 27.2404 19.5619 27.6103H19.7468L22.5206 24.8365V24.6515C21.3607 23.4916 19.6069 22.0347 18.4565 21.0792L18.4553 21.0782C18.3223 20.9677 18.1975 20.864 18.0825 20.7682C16.5087 19.6236 14.9349 18.9218 13.1899 18.6628C13.5408 18.701 13.8866 18.734 14.1994 18.734C15.124 14.111 19.1922 10.7824 24.0002 10.7824C28.0685 10.7824 31.582 13.1864 33.2463 16.6999C33.2463 16.6999 33.4312 16.8848 33.4312 16.6999C33.8334 16.6424 34.2534 16.5671 34.6803 16.4906C35.6271 16.3208 36.6072 16.1451 37.4995 16.1451ZM12.2106 18.5649C12.0497 18.5563 11.8872 18.5513 11.7229 18.5497C11.7469 18.5493 11.771 18.5491 11.7954 18.5491C11.9285 18.5491 12.0677 18.5551 12.2106 18.5649ZM36.02 35.7468C38.6089 35.7468 40.0883 34.6373 40.828 33.8976C43.4169 31.4936 43.4169 27.2404 40.828 24.8365C39.5335 23.7269 38.0541 22.9873 36.2049 22.9873C34.9105 22.9873 33.4311 23.1722 31.5819 24.8365C30.6573 25.5762 29.7327 26.5008 29.3628 26.8706C29.1779 27.0555 28.0684 28.1188 26.4042 29.7137C24.7399 31.3086 22.5208 33.4353 20.1167 35.7468H36.02Z" fill="#324558"/>
</svg>
