<svg width="48" height="48" viewBox="0 0 48 48" fill="none" xmlns="http://www.w3.org/2000/svg">
<path d="M29.3586 4C21.0005 4 14.3235 10.64 14.3235 18.8383V22H22.7203V18.8383C22.7203 15.28 25.6415 12.4 29.3603 12.4C33.0404 12.4 35.5998 14.96 35.5998 18.7583C35.5998 22.52 32.8402 25.2783 29.1601 25.2783H25.9999V33.6767H29.1601C37.3617 33.6767 44 26.9983 44 18.7567C43.9983 10.2 37.7975 4 29.3586 4ZM4 25V31.8383C4 32.8783 4.88006 33.9183 6.07985 33.9183H14.0778V41.92C14.0778 42.96 14.9579 44 16.1577 44H22.9979V25H4Z" fill="#324558"/>
</svg>
