<svg width="48" height="48" viewBox="0 0 48 48" fill="none" xmlns="http://www.w3.org/2000/svg">
<path d="M10.5 6H37.5C38.6935 6 39.8381 6.47411 40.682 7.31802C41.5259 8.16193 42 9.30653 42 10.5V37.5C42 38.6935 41.5259 39.8381 40.682 40.682C39.8381 41.5259 38.6935 42 37.5 42H10.5C9.30653 42 8.16193 41.5259 7.31802 40.682C6.47411 39.8381 6 38.6935 6 37.5V10.5C6 9.30653 6.47411 8.16193 7.31802 7.31802C8.16193 6.47411 9.30653 6 10.5 6ZM26.34 12.84V24.36C26.34 25.552 27.308 26.52 28.5 26.52H35.16C35.7329 26.52 36.2823 26.2924 36.6874 25.8874C37.0924 25.4823 37.32 24.9329 37.32 24.36V12.84C37.32 12.2671 37.0924 11.7177 36.6874 11.3126C36.2823 10.9076 35.7329 10.68 35.16 10.68H28.5C27.9271 10.68 27.3777 10.9076 26.9726 11.3126C26.5676 11.7177 26.34 12.2671 26.34 12.84ZM10.68 12.84V33.36C10.68 34.552 11.648 35.52 12.84 35.52H19.5C20.0729 35.52 20.6223 35.2924 21.0274 34.8874C21.4324 34.4823 21.66 33.9329 21.66 33.36V12.84C21.66 12.2671 21.4324 11.7177 21.0274 11.3126C20.6223 10.9076 20.0729 10.68 19.5 10.68H12.84C12.2671 10.68 11.7177 10.9076 11.3126 11.3126C10.9076 11.7177 10.68 12.2671 10.68 12.84Z" fill="#324558"/>
</svg>
