<svg width="48" height="48" viewBox="0 0 48 48" fill="none" xmlns="http://www.w3.org/2000/svg">
<path d="M44 24C44 35.044 35.046 44 24 44C12.954 44 4 35.044 4 24C4 12.954 12.954 4 24 4C35.046 4 44 12.954 44 24ZM10.4 21.328C9.69187 21.328 9.01275 21.6093 8.51202 22.11C8.0113 22.6107 7.73 23.2899 7.73 23.998C7.73 24.7061 8.0113 25.3853 8.51202 25.886C9.01275 26.3867 9.69187 26.668 10.4 26.668C11.1081 26.668 11.7873 26.3867 12.288 25.886C12.7887 25.3853 13.07 24.7061 13.07 23.998C13.07 23.2899 12.7887 22.6107 12.288 22.11C11.7873 21.6093 11.1081 21.328 10.4 21.328ZM29.466 33.466C29.1556 33.6375 28.8825 33.8691 28.6626 34.1474C28.4428 34.4257 28.2806 34.745 28.1856 35.0866C28.0906 35.4283 28.0647 35.7855 28.1094 36.1373C28.154 36.4891 28.2684 36.8285 28.4457 37.1356C28.623 37.4427 28.8598 37.7113 29.1422 37.9259C29.4246 38.1404 29.747 38.2965 30.0904 38.3849C30.4338 38.4734 30.7914 38.4926 31.1423 38.4412C31.4932 38.3899 31.8303 38.2691 32.134 38.086C32.7324 37.7251 33.1653 37.1438 33.3397 36.4671C33.5141 35.7904 33.416 35.0723 33.0665 34.4671C32.7171 33.8619 32.1441 33.4181 31.4708 33.2309C30.7975 33.0436 30.0777 33.1281 29.466 33.466ZM16.2 24C16.2 21.36 17.512 19.03 19.518 17.62L17.566 14.348C15.1939 15.9308 13.4864 18.3303 12.768 21.09C13.2006 21.4416 13.5494 21.8853 13.7889 22.3887C14.0285 22.8921 14.1528 23.4425 14.1528 24C14.1528 24.5575 14.0285 25.1079 13.7889 25.6113C13.5494 26.1147 13.2006 26.5584 12.768 26.91C13.4858 29.6694 15.1927 32.0688 17.564 33.652L19.518 30.38C18.4927 29.6617 17.6557 28.7068 17.0781 27.5961C16.5005 26.4855 16.1993 25.2519 16.2 24ZM24 16.2C25.9487 16.2003 27.8267 16.93 29.2643 18.2455C30.702 19.561 31.5951 21.367 31.768 23.308L35.574 23.252C35.393 20.4047 34.1656 17.7249 32.128 15.728C31.6081 15.9258 31.0506 16.0052 30.4961 15.9605C29.9416 15.9158 29.4041 15.7481 28.9225 15.4696C28.441 15.1911 28.0276 14.8087 27.7123 14.3504C27.397 13.8921 27.1879 13.3693 27.1 12.82C24.3504 12.0634 21.4188 12.3409 18.86 13.6L20.714 16.926C21.7431 16.4469 22.8648 16.199 24 16.2ZM24 31.8C22.826 31.8 21.714 31.54 20.714 31.074L18.86 34.398C21.4159 35.6672 24.3513 35.9451 27.1 35.178C27.1879 34.6287 27.397 34.1059 27.7123 33.6476C28.0276 33.1893 28.441 32.8069 28.9225 32.5284C29.4041 32.2499 29.9416 32.0822 30.4961 32.0375C31.0506 31.9928 31.6081 32.0722 32.128 32.27C34.1655 30.273 35.3928 27.5932 35.574 24.746L31.768 24.692C31.596 26.6333 30.7031 28.4398 29.2653 29.7555C27.8274 31.0712 25.9489 31.8006 24 31.8ZM29.464 14.534C29.7679 14.715 30.1047 14.8339 30.4548 14.8837C30.805 14.9334 31.1616 14.9132 31.5039 14.824C31.8461 14.7348 32.1673 14.5785 32.4486 14.3641C32.73 14.1498 32.9659 13.8817 33.1428 13.5754C33.3197 13.2691 33.4339 12.9307 33.4789 12.5798C33.5239 12.229 33.4987 11.8727 33.4049 11.5317C33.311 11.1907 33.1503 10.8717 32.9322 10.5933C32.714 10.3149 32.4427 10.0827 32.134 9.91C31.5215 9.5674 30.7987 9.47973 30.1221 9.66596C29.4454 9.8522 28.8693 10.2974 28.5184 10.9051C28.1674 11.5129 28.0699 12.2344 28.2469 12.9135C28.4238 13.5926 28.8611 14.1748 29.464 14.534Z" fill="#324558"/>
</svg>
