<svg width="48" height="48" viewBox="0 0 48 48" fill="none" xmlns="http://www.w3.org/2000/svg">
<path d="M6.3 6C6.22044 6 6.14413 6.03161 6.08787 6.08787C6.03161 6.14413 6 6.22044 6 6.3V41.7C6 41.865 6.135 42 6.3 42H41.7C41.7796 42 41.8559 41.9684 41.9121 41.9121C41.9684 41.8559 42 41.7796 42 41.7V6.3C42 6.22044 41.9684 6.14413 41.9121 6.08787C41.8559 6.03161 41.7796 6 41.7 6H6.3ZM35.532 13.905C35.7904 13.905 36.0464 13.9559 36.2851 14.0548C36.5239 14.1537 36.7408 14.2987 36.9236 14.4814C37.1063 14.6642 37.2513 14.8811 37.3502 15.1199C37.4491 15.3586 37.5 15.6146 37.5 15.873C37.5002 16.1317 37.4494 16.3879 37.3505 16.6269C37.2516 16.866 37.1065 17.0832 36.9236 17.2661C36.7407 17.449 36.5235 17.5941 36.2844 17.693C36.0454 17.7919 35.7892 17.8427 35.5305 17.8425C35.0088 17.8417 34.5088 17.6338 34.1403 17.2645C33.7719 16.8952 33.5651 16.3947 33.5655 15.873C33.5655 15.3516 33.7724 14.8515 34.1409 14.4825C34.5093 14.1135 35.0091 13.9058 35.5305 13.905H35.532ZM10.725 15.075H13.719C13.872 15.075 13.9485 15.15 13.9485 15.3015V26.5365C13.9485 27.9045 14.2815 29.0025 14.9475 29.8185C15.6135 30.6375 16.629 31.0425 17.997 31.0425C18.567 31.0425 19.0905 30.9705 19.5675 30.8175C20.0415 30.6645 20.4525 30.4095 20.8035 30.0585C21.1545 29.7045 21.432 29.2395 21.633 28.6605C21.834 28.0815 21.933 27.357 21.933 26.481V15.3345C21.933 15.3135 21.9375 15.2985 21.9405 15.282L21.9315 15.276C21.9315 15.141 21.999 15.0765 22.131 15.0765H26.154C26.268 15.0765 26.343 15.0915 26.382 15.117C26.421 15.144 26.457 15.198 26.496 15.273C26.838 15.9 27.2445 16.632 27.7095 17.469C28.1745 18.306 28.653 19.179 29.148 20.0925L30.645 22.857C31.146 23.787 31.6155 24.666 32.055 25.494C32.4915 26.322 32.8785 27.0615 33.21 27.7065C33.5445 28.3545 33.795 28.8585 33.9675 29.2185H33.9975C33.9975 29.0295 33.99 28.8135 33.9825 28.5765C33.9693 28.2916 33.9593 28.0066 33.9525 27.7215C33.9435 27.387 33.9315 26.982 33.9225 26.5065C33.9105 26.034 33.9075 25.4625 33.9075 24.7965V19.9815C33.9075 19.827 33.9915 19.752 34.1625 19.752H36.9C37.071 19.752 37.1565 19.839 37.1565 20.01V33.555C37.1565 33.7245 37.062 33.81 36.873 33.81H33.252C33.081 33.81 32.955 33.741 32.88 33.609C32.0834 32.0905 31.2719 30.58 30.4455 29.0775C29.366 27.1148 28.3055 25.1417 27.264 23.1585C26.8139 22.304 26.3724 21.4449 25.9395 20.5815C25.7496 20.1996 25.5641 19.8156 25.383 19.4295V26.652C25.383 27.984 25.188 29.1165 24.798 30.0585C24.408 31.0005 23.8815 31.77 23.2155 32.37C22.5288 32.9782 21.715 33.4256 20.8335 33.6795C19.874 33.9611 18.8785 34.1011 17.8785 34.095C16.8446 34.1076 15.8154 33.9536 14.8305 33.639C13.9621 33.3621 13.1642 32.9 12.492 32.2845C11.847 31.6845 11.352 30.93 11.01 30.018C10.668 29.106 10.497 28.0305 10.497 26.7945V15.3345C10.497 15.1635 10.572 15.0765 10.725 15.0765V15.075Z" fill="#324558"/>
</svg>
