<svg width="48" height="48" viewBox="0 0 48 48" fill="none" xmlns="http://www.w3.org/2000/svg">
<g clip-path="url(#clip0_1475_1105)">
<path fill-rule="evenodd" clip-rule="evenodd" d="M25.3683 38.6587V10.7386H31.2851V14.2102C32.0986 12.8068 33.0601 11.7727 34.2435 11.0341C35.4268 10.3693 36.7581 10 38.3113 10C41.3436 10 43.7103 11.0341 45.4114 13.0284C47.1125 15.0227 48 17.8294 48 21.3748C48 24.8464 47.1125 27.5793 45.4114 29.6474C43.7103 31.7156 41.4176 32.7497 38.6071 32.7497C36.906 32.7497 35.5008 32.4542 34.3174 31.7895C33.1341 31.1986 32.0986 30.1645 31.2851 28.835C31.359 29.352 31.433 29.9429 31.433 30.6077C31.433 30.8796 31.4487 31.1829 31.4656 31.5103C31.4854 31.8941 31.507 32.3112 31.507 32.7497V38.6587H25.3683ZM30.9892 21.3748C30.9892 23.2953 31.433 24.7725 32.3945 25.8805C33.356 26.9145 34.6872 27.5054 36.3144 27.5054C38.0154 27.5054 39.3467 26.9884 40.2342 25.8805C41.1957 24.8464 41.6395 23.2953 41.6395 21.3748C41.6395 19.4544 41.1957 17.9772 40.2342 16.8692C39.2727 15.7613 37.9415 15.2442 36.2404 15.2442C34.6133 15.2442 33.282 15.8351 32.3205 16.9431C31.433 17.9033 30.9892 19.4544 30.9892 21.3748Z" fill="#324558"/>
<path d="M15.4576 10.8127V21.966C15.4576 23.8126 15.0878 25.1421 14.3482 25.9546C13.6086 26.7671 12.4253 27.2102 10.7981 27.2102C9.17103 27.2102 7.98767 26.8409 7.24807 26.0284C6.50847 25.2159 6.13867 23.8864 6.13867 21.966V10.8127H0V21.966C0 25.2898 0.665639 27.7273 1.99692 29.5C2.10786 29.6108 2.20031 29.74 2.29276 29.8693C2.38521 29.9985 2.47766 30.1278 2.5886 30.2386C4.36363 32.0113 7.10015 32.8977 10.7981 32.8977C14.4222 32.8977 17.1587 32.0113 18.9337 30.2386C19.1093 30.0633 19.2386 29.8879 19.3948 29.676C19.436 29.6201 19.4791 29.5616 19.5254 29.5C20.8567 27.7273 21.5223 25.2159 21.5223 21.966V10.8127H15.4576Z" fill="#324558"/>
<path d="M19.3108 38.4492C19.4034 38.5795 19.496 38.7098 19.6071 38.8215H2.05139C2.09777 38.7593 2.14092 38.7004 2.18219 38.6441C2.33868 38.4304 2.46814 38.2536 2.64399 38.0768C4.42179 36.2896 7.16256 35.396 10.7922 35.396C14.496 35.396 17.2367 36.2896 19.0145 38.0768C19.1257 38.1885 19.2182 38.3189 19.3108 38.4492Z" fill="#324558"/>
</g>
<defs>
<clipPath id="clip0_1475_1105">
<rect width="48" height="48" fill="white"/>
</clipPath>
</defs>
</svg>
