<svg width="48" height="48" viewBox="0 0 48 48" fill="none" xmlns="http://www.w3.org/2000/svg">
<path d="M24 3C23.8849 3.00462 23.772 3.03261 23.6683 3.08225L6.65673 10.4794C6.18918 10.7751 5.98981 11.1146 6.0004 11.6904L7.46831 29.6766C7.48419 29.8639 7.55123 29.9654 7.69414 30.1141L13.9822 34.8618C13.9822 34.8618 14.0086 38.388 14.7849 39.7722C15.3707 40.817 18.093 45.0572 24 44.9994C29.9069 44.9417 32.8004 41.447 33.6755 39.7005C34.5047 38.045 34.487 34.6046 34.487 34.6046L40.2299 30.1456C40.3055 30.0965 40.3676 30.0295 40.4107 29.9507C40.4538 29.8719 40.4765 29.7838 40.4769 29.6941L41.9942 11.6519C42.0401 11.1059 41.8125 10.6544 41.3449 10.4531L24.3193 3.08225C24.2201 3.03219 24.1112 3.00413 24 3V3ZM23.91 4.88647C24.0052 4.88997 24.1005 4.92147 24.2417 4.98447L37.3276 10.9851L24.2328 18.5748C24.0299 18.6763 23.94 18.6605 23.7671 18.5748L10.7993 11.1129C10.6 10.9834 10.5876 10.8941 10.7993 10.7681L23.5624 4.96872C23.6719 4.91957 23.7899 4.89165 23.91 4.88647ZM23.9276 6.09046L13.2464 11.0341L23.9064 17.1416L34.6105 11.0516L23.9276 6.09046ZM23.9276 6.7467L33.1585 11.0516L27.4033 14.2366L25.5684 13.2619L28.6807 9.39791L24.9086 10.8644L26.8917 8.42492L21.1541 10.7804L23.0949 8.76792L21.3694 7.98043L23.9276 6.7467ZM20.6866 8.23243L22.0698 8.91142L18.3383 12.5829L24.7163 9.9719L22.5179 12.6004L26.4647 10.9694L24.4604 13.4526L26.6341 14.6181L23.8817 16.1668L14.799 11.0114L20.6866 8.23243ZM8.45986 15.0608C8.51102 15.0608 8.58689 15.0958 8.69804 15.1553L21.5423 23.165L21.5723 36.8463L9.48139 27.9967C9.34554 27.8689 9.29791 27.8252 9.29967 27.6589L8.38223 15.1693C8.38223 15.0941 8.40869 15.0608 8.45986 15.0608ZM39.4977 15.2113C39.5506 15.2113 39.5718 15.2463 39.5736 15.3198L38.7002 27.6169C38.7002 27.7849 38.6544 27.8269 38.5185 27.9547L26.4453 36.8463L26.5212 23.1877L39.2578 15.3058C39.3301 15.2578 39.4119 15.2256 39.4977 15.2113ZM38.0774 20.8218L37.7651 21.0422L37.5305 21.8157L37.444 21.2645L37.0453 21.527L37.3011 22.5735L36.9059 24.1747L37.317 23.8335L37.467 22.9112L37.5799 23.634L38.0704 23.312L37.7263 22.1185L38.0774 20.8218ZM10.36 21.2575C10.1483 21.2382 10.0248 21.4797 10.0619 21.905C10.1113 22.4772 10.4324 23.165 10.7817 23.4397L11.5209 24.0172C11.8738 24.2937 12.1173 24.0487 12.0626 23.4695C12.0097 22.892 11.6815 22.2025 11.3322 21.9312L10.5964 21.366C10.5296 21.3083 10.4476 21.2707 10.36 21.2575ZM10.4923 21.6687C10.5493 21.6778 10.6025 21.7027 10.6458 21.7405L11.3463 22.283C11.5739 22.4597 11.7874 22.9095 11.8226 23.2805C11.8579 23.6567 11.6991 23.8125 11.4715 23.634L10.7658 23.0827C10.54 22.906 10.3318 22.4632 10.3 22.0922C10.2753 21.8157 10.353 21.6565 10.4923 21.6687ZM36.6448 21.849C36.6448 21.7877 36.5142 21.8665 36.4419 21.919C36.1596 22.1342 35.8103 22.8972 35.7856 23.788C35.7591 24.7609 35.9797 24.8712 36.2496 24.6874C36.5354 24.495 36.9236 23.8265 36.9377 22.892C36.95 22.1762 36.6448 22.0327 36.6448 21.849ZM35.3868 21.9662C35.3868 21.9662 34.6123 22.2987 34.6105 22.4825C34.5929 23.62 34.487 25.9264 34.487 25.9264L35.0728 25.4872C35.0728 25.4872 35.6533 25.1057 35.6621 24.0522C35.6674 23.3767 35.4398 23.5097 35.4398 23.5097C35.4398 23.5097 35.6233 23.1282 35.6268 22.6102C35.6356 21.8315 35.3868 21.9662 35.3868 21.9662ZM36.449 22.3407C36.6519 22.3407 36.6148 22.8097 36.6113 23.1212C36.6078 23.4275 36.456 24.1292 36.2937 24.2465C36.1296 24.3655 36.1173 23.8212 36.1208 23.5062C36.1261 23.2035 36.2514 22.3407 36.449 22.3407ZM35.1787 22.472C35.1787 22.472 35.3198 22.3845 35.3075 22.8465C35.2962 23.0464 35.2433 23.2418 35.1522 23.4205L34.9158 23.578L34.9264 22.6365L35.1787 22.472ZM34.2753 22.5087L33.8713 22.7537L33.7654 25.9789C33.7654 25.9789 33.7407 26.3009 33.829 26.3674C33.956 26.4654 34.3 26.0647 34.3 26.0647L34.293 25.6972C34.293 25.6972 34.1606 25.7287 34.1659 25.5957L34.2753 22.5087ZM12.0908 22.5297L12.2884 24.6227L12.5354 24.8169L12.3749 23.088L13.1882 23.7232C13.3252 23.8577 13.4106 24.0353 13.4299 24.2255C13.4476 24.4145 13.3717 24.495 13.257 24.4057L12.5584 23.858L13.3999 25.4959L13.7616 25.7812L13.197 24.7014L13.3082 24.7889C13.5499 24.9762 13.714 24.8117 13.6752 24.4162C13.6364 24.0225 13.4105 23.5482 13.1688 23.3627L12.0908 22.5297ZM35.1134 23.8947C35.1134 23.8947 35.2898 23.8527 35.2722 24.383C35.2581 24.8327 35.1134 24.9744 35.1134 24.9744L34.8452 25.1669L34.8681 24.082L35.1134 23.8947ZM33.4373 24.1992C33.3632 24.1782 33.2573 24.2097 33.1038 24.334C32.915 24.4565 32.5657 24.9989 32.5657 24.9989L32.5798 25.3314C32.5798 25.3314 32.781 25.0847 32.8815 25.0042C33.2714 24.6192 33.1726 25.1617 33.1726 25.1617L33.1638 25.3349L32.8886 25.5904C32.8886 25.5904 32.481 25.9877 32.4598 26.7419C32.4493 27.1024 32.5798 27.3544 32.7774 27.2057C32.9715 27.0622 33.2132 26.6282 33.2132 26.6282L33.2203 26.8802L33.5555 26.5827L33.5784 24.7977C33.5784 24.7977 33.6543 24.2605 33.4373 24.1992ZM14.552 24.4197C14.4903 24.3707 14.4356 24.3725 14.4109 24.4267L13.8216 25.8267L14.1163 26.0594L14.5979 24.8852L15.046 26.0927L14.3756 25.5677L14.5609 26.0577L15.2419 26.5949L15.4236 27.0849L15.7235 27.3194L14.7144 24.6629C14.6816 24.5697 14.6258 24.4861 14.552 24.4197ZM32.2905 25.0322L31.9729 25.2632L31.9553 27.1497C31.9553 27.1497 31.7823 27.4822 31.7082 27.5294C31.5812 27.6117 31.5847 27.3422 31.5847 27.3422L31.6112 25.5572L31.2725 25.8109L31.246 27.5959C31.246 27.5959 31.2266 28.3956 31.5671 28.1437C31.7441 27.9914 31.8789 27.7969 31.9588 27.5784L31.9888 27.8024L32.2605 27.6099L32.2905 25.0322ZM30.8684 25.2247L30.5791 25.4137L30.4626 26.2694L30.3268 26.3552V26.3954L30.0586 26.5617C29.9528 26.7244 29.8857 27.2267 29.8857 27.2267L29.8892 26.7227L29.5805 26.9397L29.5099 29.5349L29.8592 29.2846L29.9351 27.7499C29.9351 27.7499 29.9916 27.3807 30.108 27.1882L30.2968 27.0377L30.3268 26.4969L30.3303 26.7682L30.4468 26.6702L30.4326 28.3239C30.4326 28.3239 30.4062 28.8734 30.6973 28.6809C30.7979 28.6126 31.0731 28.2784 31.0731 28.2784L31.0572 27.9407C31.0572 27.9407 30.9231 28.0649 30.8808 28.0912C30.8155 28.1314 30.8173 27.9897 30.8173 27.9897L30.8543 26.3884L31.0484 26.2537L31.0431 25.8337L30.8737 25.9387L30.8684 25.2247ZM15.7818 25.4697C15.563 25.4487 15.4342 25.6972 15.4801 26.1417C15.5418 26.7349 15.8894 27.4507 16.2564 27.7394L17.0485 28.3571L17.1579 28.0947L16.2334 27.3684C15.997 27.1812 15.7694 26.7209 15.7288 26.3359C15.6883 25.9527 15.8523 25.7934 16.087 25.9754L16.8333 26.5582L16.9427 26.2957L16.0305 25.5817C15.9599 25.5219 15.8737 25.4831 15.7818 25.4697ZM33.1603 25.7707V26.3954C33.1603 26.3954 32.9715 26.6159 32.885 26.6667C32.8004 26.7174 32.7792 26.5704 32.7792 26.4409C32.7849 26.2509 32.8587 26.0691 32.9874 25.9282L33.1603 25.7707ZM29.2329 26.0699C29.1147 26.1539 29.0159 26.3989 29.0141 26.6177C29.0141 26.8364 29.1076 26.9449 29.2259 26.8627C29.3458 26.7787 29.4464 26.5337 29.4482 26.3132C29.4482 26.0944 29.3529 25.9842 29.2329 26.0699ZM17.0821 26.4007L17.2938 28.3606C17.3074 28.4789 17.3616 28.5889 17.4473 28.6721L18.6347 29.6031L18.7441 29.3371L17.5337 28.3869L17.3397 26.5984L17.0821 26.4007ZM28.8748 26.5914L28.499 26.8644C28.499 26.8644 28.4601 27.5137 28.1779 29.8219C27.945 28.1069 27.945 27.2844 27.945 27.2844L27.5109 27.5697L27.7791 30.7249L28.4231 30.3609L28.8748 26.5914ZM29.3317 27.1129L28.9841 27.3597L28.8748 29.9934L29.2223 29.7449L29.3317 27.1129ZM18.9028 27.8934C18.6788 27.8707 18.5535 28.1262 18.6047 28.5794C18.6735 29.1849 19.0352 29.9181 19.411 30.2139L20.2226 30.8509L20.3355 30.5814L19.381 29.8359C19.1798 29.6784 18.984 29.3284 18.8993 28.9871L20.0214 29.8621L20.1308 29.5944L18.8534 28.5969C18.8711 28.3414 19.0193 28.2539 19.2187 28.4096L19.9879 29.0099L20.0973 28.7439L19.1551 28.0124C19.0837 27.9504 18.9964 27.9093 18.9028 27.8934ZM20.2596 28.9206C20.2367 28.9434 20.2243 28.9941 20.2331 29.0624C20.2505 29.2023 20.3159 29.3321 20.4184 29.4299C20.5031 29.4964 20.5595 29.4404 20.5419 29.3021C20.524 29.1613 20.4588 29.0306 20.3566 28.9311C20.3143 28.8996 20.2825 28.8961 20.2596 28.9206ZM20.2861 28.9766C20.3037 28.9591 20.3319 28.9591 20.3655 28.9836C20.4325 29.0361 20.496 29.1656 20.5066 29.2724C20.5207 29.3826 20.4784 29.4264 20.4096 29.3739C20.3884 29.3564 20.3831 29.3126 20.3655 29.2846L20.376 29.2916L20.3655 29.1866L20.3919 29.2041L20.436 29.3406L20.4748 29.3704L20.4219 29.2234H20.429C20.4431 29.2199 20.4449 29.2006 20.4431 29.1901V29.1674C20.4376 29.1303 20.4224 29.0953 20.399 29.0659C20.386 29.0491 20.3705 29.0343 20.3531 29.0221L20.3125 28.9871L20.339 29.2269C20.3125 29.1744 20.2737 29.1394 20.2684 29.0869C20.2596 29.0309 20.2684 28.9941 20.2861 28.9766ZM20.3496 29.0589L20.3602 29.0659C20.3778 29.0799 20.3831 29.0851 20.3919 29.0956C20.4008 29.1095 20.4068 29.125 20.4096 29.1411C20.4096 29.1516 20.4131 29.1586 20.4096 29.1639C20.406 29.1744 20.3937 29.1674 20.3831 29.1604L20.3602 29.1429L20.3496 29.0589Z" fill="#324558"/>
</svg>
