<svg width="48" height="48" viewBox="0 0 48 48" fill="none" xmlns="http://www.w3.org/2000/svg">
<path d="M37.5045 25.704H35.0735L36.5948 21.344L37.5045 25.704Z" fill="#324558"/>
<path fill-rule="evenodd" clip-rule="evenodd" d="M6 8C4.89543 8 4 8.89543 4 10V38C4 39.1046 4.89543 40 6 40H42C43.1046 40 44 39.1046 44 38V10C44 8.89543 43.1046 8 42 8H6ZM37.9961 28.088L38.3329 29.828V29.83L41 29.824L38.6639 18.214C37.549 18.218 36.7458 18.218 36.2542 18.214C35.6116 18.21 35.1742 18.518 34.9284 19.124C34.0549 21.2747 32.7491 24.505 31.0095 28.8086L30.6006 29.82L33.6239 29.814L34.2239 28.088H37.9961ZM18.6297 18.216L15.591 18.212L12.5445 26.072L11.3445 19.494C11.1858 18.634 10.6961 18.214 9.85613 18.214H5V18.534C6.18839 18.912 7.03613 19.192 7.54516 19.372C8.11806 19.574 8.41419 20.002 8.56323 20.616C9.05097 22.614 9.81548 25.686 10.8548 29.826L13.9323 29.828L18.6297 18.216ZM20.4045 29.826L22.8045 18.216L19.911 18.212L17.511 29.822L20.4045 29.826ZM31.2548 18.534C30.6277 18.276 29.5361 18 28.6729 18H28.671C25.7232 18 23.6445 19.518 23.6194 21.778C23.6001 23.5364 25.1469 24.4144 26.2624 25.0476L26.2806 25.058C27.3974 25.694 27.7013 25.948 27.6974 26.462C27.6897 27.184 26.8361 27.598 25.8394 27.598C24.7555 27.598 24.2155 27.424 22.9458 26.876L22.4194 29.388C23.6658 29.844 24.2174 29.976 25.7484 30C29.1026 30 30.6916 28.084 30.711 26.142C30.7284 25.206 30.5406 24.346 29.1026 23.386C28.7411 23.1448 28.3829 22.9409 28.0556 22.7547C27.2403 22.2906 26.6174 21.936 26.6174 21.388C26.6174 20.914 27.3219 20.42 28.4639 20.402C29.2477 20.388 30.1806 20.706 30.7477 20.942L31.2548 18.534Z" fill="#324558"/>
</svg>
