<svg width="48" height="48" viewBox="0 0 48 48" fill="none" xmlns="http://www.w3.org/2000/svg">
<path fill-rule="evenodd" clip-rule="evenodd" d="M24 44C35.0457 44 44 35.0457 44 24C44 12.9543 35.0457 4 24 4C12.9543 4 4 12.9543 4 24C4 35.0457 12.9543 44 24 44ZM13.9563 26.2288L10.5636 18.1135C10.1362 17.1629 9.07979 16.7323 8.09338 17.177C7.10575 17.6223 6.74234 18.7333 7.18846 19.6845L11.3303 28.8184C11.9817 30.2497 12.6681 31 13.9563 31C15.3327 31 15.9328 30.183 16.5835 28.8184C16.5835 28.8184 20.196 20.8378 20.2322 20.7545C20.269 20.67 20.3849 20.4121 20.7526 20.4146C21.0635 20.4164 21.3248 20.6681 21.3248 21.0062V28.8104C21.3248 30.0133 21.9823 31 23.2476 31C24.5117 31 25.195 30.0133 25.195 28.8104V22.4241C25.195 21.1924 26.0649 20.3931 27.2506 20.3931C28.4362 20.3931 29.2252 21.2212 29.2252 22.4241V28.8104C29.2252 30.0133 29.885 31 31.1479 31C32.412 31 33.099 30.0133 33.099 28.8104V22.4241C33.099 21.1924 33.9653 20.3931 35.1515 20.3931C36.3354 20.3931 37.1274 21.2212 37.1274 22.4241V28.8104C37.1274 30.0133 37.7866 31 39.0507 31C40.3142 31 41 30.0133 41 28.8104V21.5421C41 18.8711 38.8829 17 36.3354 17C33.7908 17 32.1971 18.786 32.1971 18.786C31.3502 17.6719 30.1826 17.0024 28.2068 17.0024C26.1217 17.0024 24.2968 18.786 24.2968 18.786C23.4492 17.6719 22.0064 17.0024 20.8117 17.0024C18.9639 17.0024 17.4963 17.8268 16.601 19.9038L13.9563 26.2288Z" fill="#324558"/>
</svg>
