<svg width="48" height="48" viewBox="0 0 48 48" fill="none" xmlns="http://www.w3.org/2000/svg">
<path d="M24.6804 45L41.6971 35.3635L35.2863 31.6652L24.6804 37.5058V45Z" fill="#324558"/>
<path d="M42.8619 14.1761V34.3126L36.6385 30.7203V17.7684L42.8619 14.1761Z" fill="#324558"/>
<path d="M23.1815 44.9919L6.16486 35.3635L12.5756 31.6652L23.1815 37.4977V44.9919Z" fill="#324558"/>
<path d="M5 14.1761V34.3126L11.2234 30.7203V17.7684L5 14.1761Z" fill="#324558"/>
<path d="M23.1815 3L5.72498 12.8728L11.9077 16.4488L11.9973 16.3999L23.1815 10.2498V3Z" fill="#324558"/>
<path d="M24.6804 3L42.1288 12.8728L35.9461 16.4569L35.8565 16.4081L24.6804 10.2498V3Z" fill="#324558"/>
<path d="M12.7222 30.0362L23.1815 35.7954V24.6763L12.7222 18.6402V30.0362Z" fill="#324558"/>
<path d="M35.1396 30.0444L24.6803 35.7954V24.6763L35.1396 18.6402V30.0444Z" fill="#324558"/>
<path d="M23.9309 11.5452L13.4228 17.3206L23.9309 23.3811L34.4309 17.3206L23.9309 11.5452Z" fill="#324558"/>
</svg>
