<svg width="48" height="48" viewBox="0 0 48 48" fill="none" xmlns="http://www.w3.org/2000/svg">
<path d="M35.05 22.756C37.576 23.54 40.388 25.428 40.388 28.764C40.388 34.29 32.428 41.242 20.46 41.242C11.33 41.242 2 36.816 2 29.538C2 25.734 4.408 21.334 8.554 17.184C14.1 11.644 20.562 9.118 22.992 11.552C24.066 12.626 24.168 14.48 23.48 16.696C23.124 17.81 24.53 17.196 24.53 17.196C29.01 15.32 32.922 15.208 34.348 17.25C35.108 18.336 35.034 19.862 34.332 21.63C34.006 22.444 34.428 22.572 35.052 22.756H35.05ZM20.486 38.634C27.768 37.91 33.288 33.45 32.82 28.668C32.346 23.886 26.056 20.592 18.774 21.314C11.494 22.034 5.968 26.494 6.44 31.274C6.914 36.062 13.204 39.352 20.486 38.634ZM12.32 28.876C13.828 25.822 17.744 24.096 21.212 24.996C24.798 25.922 26.626 29.304 25.164 32.596C23.676 35.96 19.4 37.752 15.774 36.582C12.27 35.45 10.788 31.994 12.32 28.876ZM15.212 34.05C16.348 34.564 17.862 34.076 18.564 32.95C19.256 31.814 18.89 30.516 17.75 30.032C16.624 29.558 15.168 30.048 14.47 31.138C13.762 32.232 14.092 33.542 15.212 34.05ZM19.624 30.434C20.062 30.618 20.626 30.41 20.88 29.972C21.126 29.532 20.968 29.04 20.524 28.876C20.092 28.708 19.552 28.912 19.298 29.34C19.052 29.768 19.19 30.256 19.624 30.434ZM39.746 19C39.6882 19.1827 39.5948 19.3522 39.4711 19.4986C39.3475 19.645 39.196 19.7655 39.0255 19.853C38.855 19.9405 38.6688 19.9933 38.4778 20.0084C38.2867 20.0235 38.0946 20.0006 37.9124 19.941C37.7303 19.8814 37.5618 19.7863 37.4166 19.6611C37.2715 19.536 37.1526 19.3833 37.0668 19.2119C36.981 19.0405 36.93 18.8538 36.9169 18.6626C36.9037 18.4714 36.9286 18.2795 36.99 18.098C37.1421 17.635 37.169 17.1401 37.0678 16.6634C36.9666 16.1867 36.7411 15.7453 36.414 15.384C36.0861 15.0241 35.6697 14.7563 35.2062 14.6072C34.7427 14.4581 34.2483 14.4328 33.772 14.534C33.586 14.5738 33.3941 14.5766 33.2071 14.5422C33.02 14.5078 32.8416 14.4369 32.682 14.3335C32.3596 14.1248 32.1334 13.7965 32.053 13.421C31.9726 13.0455 32.0448 12.6534 32.2535 12.331C32.4622 12.0086 32.7905 11.7824 33.166 11.702C34.14 11.4939 35.1517 11.5459 36.0992 11.8529C37.0467 12.1599 37.8967 12.7109 38.5637 13.4507C39.2306 14.1904 39.691 15.0927 39.8986 16.0669C40.1061 17.041 40.0535 18.0526 39.746 19ZM31.914 5.85C33.9144 5.4237 35.9917 5.53099 37.9375 6.16111C39.8834 6.79123 41.6292 7.92201 43 9.44C44.3717 10.9604 45.3192 12.8149 45.7475 14.8173C46.1758 16.8197 46.0697 18.8995 45.44 20.848C45.3724 21.0586 45.2639 21.2537 45.1205 21.4222C44.9772 21.5906 44.802 21.729 44.6049 21.8294C44.4078 21.9298 44.1928 21.9902 43.9723 22.0071C43.7518 22.0241 43.5301 21.9972 43.32 21.928C42.8949 21.7897 42.542 21.4884 42.3388 21.0902C42.1356 20.692 42.0986 20.2294 42.236 19.804C42.6837 18.4203 42.7593 16.9432 42.4553 15.5211C42.1512 14.0989 41.4783 12.7818 40.504 11.7022C39.5297 10.6225 38.2884 9.81825 36.9049 9.37026C35.5213 8.92227 34.0442 8.8463 32.622 9.15C32.1949 9.21781 31.758 9.11931 31.4014 8.87477C31.0447 8.63023 30.7953 8.25826 30.7046 7.83542C30.6139 7.41258 30.6887 6.97106 30.9137 6.60172C31.1387 6.23239 31.4967 5.96336 31.914 5.85Z" fill="#324558"/>
</svg>
