<svg width="48" height="48" viewBox="0 0 48 48" fill="none" xmlns="http://www.w3.org/2000/svg">
<path d="M39.7817 15.375C41.1817 17.9367 41.9783 20.875 41.9783 24C41.9783 30.6317 38.385 36.4267 33.04 39.5417L38.5317 23.6633C39.5567 21.0967 39.8983 19.045 39.8983 17.2233C39.8983 16.5483 39.855 15.9233 39.7817 15.3733V15.375ZM26.48 15.5483C27.5583 15.4983 28.5333 15.3733 28.5333 15.3733C29.5033 15.2483 29.39 13.8233 28.4217 13.875C28.4217 13.875 25.4967 14.1 23.6217 14.1C21.8483 14.1 18.8717 13.85 18.8717 13.85C17.8967 13.8 17.77 15.275 18.7467 15.325C18.7467 15.325 19.6467 15.4267 20.6217 15.475L23.4217 23.15L19.4717 34.95L12.9233 15.5C14.005 15.45 14.98 15.3333 14.98 15.3333C15.955 15.2083 15.84 13.7833 14.8717 13.84C14.8717 13.84 11.9617 14.07 10.0817 14.07C9.74833 14.07 9.35167 14.0567 8.93167 14.045C12.185 9.25 17.725 6.025 24 6.025C28.6817 6.025 32.9417 7.81167 36.1433 10.7467C36.0667 10.7417 35.9917 10.7317 35.9083 10.7317C34.1417 10.7317 32.8883 12.27 32.8883 13.9217C32.8883 15.405 33.7433 16.66 34.655 18.14C35.34 19.34 36.1383 20.8783 36.1383 23.1017C36.1383 24.6267 35.5483 26.425 34.77 28.9L32.9783 34.875L26.4783 15.525L26.48 15.5483ZM24 41.9733C22.235 41.9733 20.5317 41.7183 18.92 41.245L24.315 25.5683L29.84 40.7133C29.88 40.8017 29.9233 40.8817 29.97 40.9617C28.1033 41.6167 26.095 41.9767 24 41.9767V41.9733ZM6.01833 24C6.01833 21.3933 6.57833 18.9167 7.57667 16.6833L16.15 40.1817C10.1567 37.2667 6.02 31.1183 6.01833 24ZM24 4C12.975 4 4 12.975 4 24C4 35.025 12.975 44 24 44C35.025 44 44 35.025 44 24C44 12.975 35.025 4 24 4Z" fill="#324558"/>
</svg>
