<svg width="48" height="48" viewBox="0 0 48 48" fill="none" xmlns="http://www.w3.org/2000/svg">
<path d="M24 5C17.692 5 12.5303 5.40375 8.94725 8.98367C5.36417 12.562 5 17.7189 5 24.019C5 30.3207 5.36417 35.4744 8.94883 39.0559C12.5319 42.6358 17.6936 43 24 43C30.3064 43 35.4681 42.6358 39.0512 39.0559C42.6358 35.4744 43 30.3175 43 24.019C43 17.711 42.6311 12.5509 39.0385 8.971C35.4538 5.399 30.2985 5 24 5ZM12.7678 16.7246H21.6725C24 16.7246 26.4336 16.8323 27.6322 18.034C28.8133 19.2152 28.9416 21.5696 28.9463 23.8543V31.0427C28.9451 31.1054 28.9191 31.1651 28.874 31.2087C28.8289 31.2523 28.7684 31.2763 28.7057 31.2754H25.6229C25.5917 31.2758 25.5608 31.2701 25.5318 31.2586C25.5028 31.247 25.4764 31.2299 25.454 31.2081C25.4317 31.1863 25.4139 31.1604 25.4015 31.1317C25.3892 31.1031 25.3827 31.0723 25.3822 31.0411V23.7308C25.3791 22.4547 25.3063 21.1437 24.6476 20.4834C24.0808 19.9134 23.0231 19.7852 21.9243 19.7583H16.3335C16.2711 19.7578 16.2109 19.782 16.1662 19.8256C16.1215 19.8691 16.0957 19.9286 16.0944 19.991V31.0427C16.094 31.0739 16.0875 31.1047 16.0751 31.1333C16.0628 31.162 16.045 31.1879 16.0226 31.2097C16.0003 31.2314 15.9739 31.2486 15.9449 31.2601C15.9159 31.2717 15.8849 31.2774 15.8538 31.277H12.7678C12.7054 31.277 12.6455 31.2524 12.601 31.2086C12.5566 31.1647 12.5312 31.1051 12.5303 31.0427V16.9605C12.5308 16.8978 12.556 16.8378 12.6005 16.7936C12.6449 16.7494 12.7051 16.7246 12.7678 16.7246ZM31.9753 16.7246H35.0612C35.1242 16.7246 35.1846 16.7496 35.2291 16.7941C35.2736 16.8387 35.2987 16.8991 35.2987 16.9621V31.0411C35.2978 31.1035 35.2724 31.1631 35.228 31.207C35.1835 31.2508 35.1236 31.2754 35.0612 31.2754H31.9753C31.9125 31.2758 31.8522 31.2514 31.8074 31.2075C31.7626 31.1636 31.737 31.1038 31.7362 31.0411V16.9605C31.7364 16.9293 31.7427 16.8985 31.7549 16.8697C31.767 16.841 31.7846 16.8149 31.8068 16.793C31.829 16.7711 31.8553 16.7538 31.8842 16.7421C31.9131 16.7303 31.9441 16.7244 31.9753 16.7246ZM19.1233 22.3343H22.3628C22.4942 22.3343 22.6003 22.4388 22.6003 22.5671V31.0411C22.5995 31.1035 22.5741 31.1631 22.5297 31.207C22.4852 31.2508 22.4253 31.2754 22.3628 31.2754H19.1233C19.0921 31.2758 19.0612 31.2701 19.0322 31.2586C19.0032 31.247 18.9768 31.2299 18.9545 31.2081C18.9321 31.1863 18.9143 31.1604 18.902 31.1317C18.8896 31.1031 18.8831 31.0723 18.8827 31.0411V22.5671C18.8839 22.5044 18.9099 22.4447 18.955 22.4011C19.0001 22.3575 19.0606 22.3335 19.1233 22.3343Z" fill="#324558"/>
</svg>
