<svg width="48" height="48" viewBox="0 0 48 48" fill="none" xmlns="http://www.w3.org/2000/svg">
<path d="M41.8732 3.43809C41.7038 3.26873 41.3651 3.09717 41.0286 3.09717V3.10157H34.9382C34.0914 3.10157 33.5833 3.60965 33.2446 4.28489C33.2446 4.28489 20.2171 27.463 19.709 28.1383L28.3376 43.8734C28.6763 44.3815 29.1844 45.0589 30.029 45.0589H36.1215C36.4348 45.052 36.7349 44.9317 36.9661 44.7202C37.0497 44.5639 37.0934 44.3894 37.0934 44.2121C37.0934 44.0349 37.0497 43.8603 36.9661 43.704L28.5069 28.1405L41.8732 4.45205C41.9564 4.29601 41.9999 4.1219 41.9999 3.94507C41.9999 3.76824 41.9564 3.59413 41.8732 3.43809Z" fill="#324558"/>
<path d="M17.3423 12.5725C17.0014 12.0666 16.4955 11.3892 15.6487 11.3892H9.55833C9.24429 11.3955 8.9433 11.5159 8.71153 11.7279C8.62797 11.8842 8.58425 12.0587 8.58425 12.236C8.58425 12.4132 8.62797 12.5877 8.71153 12.744L12.7718 19.8484L6.51204 31.1845C6.42848 31.3408 6.38477 31.5153 6.38477 31.6926C6.38477 31.8698 6.42848 32.0444 6.51204 32.2007C6.74381 32.4127 7.04481 32.5331 7.35884 32.5394H13.2799C14.1267 32.5394 14.6347 31.8619 14.9713 31.3517C14.9713 31.3517 21.2332 20.1871 21.5697 19.8484L17.3423 12.5725Z" fill="#324558"/>
</svg>
