<svg width="48" height="48" viewBox="0 0 48 48" fill="none" xmlns="http://www.w3.org/2000/svg">
<path d="M38.5989 25.0403L29.662 27.5481C27.9445 28.0311 26.5489 26.1481 27.558 24.6956L32.7555 17.1564C32.9078 16.9355 33.1065 16.7489 33.3383 16.609C33.5702 16.4691 33.8298 16.3791 34.0999 16.345C34.3701 16.3109 34.6446 16.3335 34.9051 16.4112C35.1657 16.489 35.4063 16.6201 35.611 16.7959C37.4328 18.3645 38.8772 20.308 39.8405 22.487C39.9495 22.7319 40.0038 22.9966 39.9998 23.2636C39.9958 23.5306 39.9337 23.7937 39.8175 24.0353C39.7014 24.277 39.5339 24.4916 39.3262 24.6649C39.1185 24.8382 38.8754 24.9662 38.6132 25.0403H38.5989ZM29.6084 30.5564L38.4504 33.367C38.7097 33.4496 38.9481 33.5854 39.1495 33.7653C39.351 33.9451 39.5109 34.165 39.6186 34.4101C39.7263 34.6552 39.7793 34.92 39.7741 35.1868C39.7688 35.4535 39.7055 35.7161 39.5883 35.957C38.5451 38.098 37.037 39.9907 35.1691 41.5029C34.9581 41.6727 34.7126 41.7965 34.4488 41.8661C34.1851 41.9357 33.9092 41.9494 33.6395 41.9063C33.3699 41.8633 33.1128 41.7644 32.8854 41.6164C32.658 41.4683 32.4654 41.2745 32.3207 41.0479L27.3827 33.332C26.438 31.8497 27.8979 30.0174 29.5941 30.5599L29.6084 30.5564ZM21.0276 22.9123L12.2876 8.10349C12.1563 7.87974 12.0736 7.63191 12.0447 7.37549C12.0158 7.11907 12.0413 6.85958 12.1195 6.61322C12.1978 6.36686 12.3271 6.13893 12.4995 5.94368C12.6719 5.74843 12.8835 5.59005 13.1213 5.47844C16.0796 4.09752 19.2718 3.25937 22.5394 3.00564C22.8027 2.9856 23.0674 3.01907 23.3169 3.10394C23.5663 3.18881 23.7951 3.32324 23.9888 3.49878C24.1826 3.67433 24.3371 3.88719 24.4427 4.12397C24.5483 4.36076 24.6026 4.61635 24.6023 4.87468V21.969C24.6023 23.887 22.008 24.5643 21.0276 22.9053V22.9123ZM19.4943 30.2099L10.4734 32.4115C10.2084 32.4756 9.93245 32.4838 9.66397 32.4354C9.3955 32.387 9.14066 32.2831 8.91648 32.1308C8.69229 31.9784 8.5039 31.781 8.36389 31.5518C8.22388 31.3225 8.13546 31.0667 8.10454 30.8014C7.83174 28.4428 8.09444 26.0544 8.87388 23.8065C8.96071 23.5538 9.10172 23.3221 9.28747 23.127C9.47322 22.9319 9.69942 22.7778 9.95095 22.6751C10.2025 22.5724 10.4735 22.5234 10.746 22.5314C11.0184 22.5394 11.286 22.6042 11.5308 22.7215L19.8825 26.7098C21.4928 27.4764 21.2477 29.7899 19.5122 30.2099H19.4943ZM21.0795 32.7947C22.2764 31.4927 24.4807 32.3642 24.418 34.1107L24.0781 43.1899C24.0683 43.4565 24.0005 43.718 23.8793 43.9569C23.758 44.1959 23.5861 44.4068 23.3751 44.5757C23.164 44.7446 22.9185 44.8675 22.655 44.9364C22.3916 45.0052 22.1161 45.0184 21.847 44.9749C19.4584 44.5825 17.1859 43.6855 15.1878 42.3464C14.9633 42.1948 14.7745 41.9981 14.634 41.7694C14.4934 41.5408 14.4043 41.2854 14.3726 41.0204C14.341 40.7554 14.3675 40.4869 14.4503 40.2327C14.5332 39.9785 14.6706 39.7445 14.8532 39.5463L21.0741 32.7842L21.0795 32.7947Z" fill="#324558"/>
</svg>
