<svg width="48" height="48" viewBox="0 0 48 48" fill="none" xmlns="http://www.w3.org/2000/svg">
<path d="M19.8048 44C17.729 43.9997 15.6736 43.5873 13.7559 42.7863C11.8383 41.9853 10.0959 40.8114 8.62829 39.3315C7.16068 37.8517 5.99658 36.095 5.20245 34.1616C4.40833 32.2283 3.99974 30.1562 4 28.0637C4 20.7146 8.93425 14.2021 15.6486 12.69C23.491 10.9157 27.0572 9.5285 29.8013 4C31.7974 7.90141 30.4473 11.4802 29.8013 13.4299C39.1978 11.1536 42.5439 6.81667 43.35 6.27632C43.35 14.2445 40.8878 19.285 38.5117 22.5372C41.4639 22.4243 42.5299 21.5614 44 21.3537C43.35 24.2732 40.9998 28.3903 35.3396 31.0215C34.6554 34.6707 32.7286 37.9644 29.892 40.334C27.0553 42.7036 23.4868 44.0002 19.8028 44H19.8048ZM27.2252 30.9913C27.2252 31.6425 27.1192 31.9671 26.4191 31.9671L20.1188 31.9712L26.0391 25.4224C27.7592 23.6885 27.7592 22.8215 27.7592 20.6077C27.7592 19.9343 27.6632 19.1621 27.8552 18.4907C27.9492 18.2003 27.7592 18.1035 27.4732 18.2003C26.8031 18.3919 25.6571 18.3919 23.747 18.3919H15.1506C14.6725 18.3919 14.4805 18.1035 14.6725 17.7184C14.6725 17.6217 14.6725 17.3333 14.4805 17.3333C13.2405 17.91 12.9524 20.5109 13.0485 22.1481C13.0485 23.0151 13.5265 23.497 14.1945 23.497H20.9768L14.0045 31.0074C13.5245 31.5861 13.0485 32.3563 13.0485 33.4148V35.5338C13.0485 36.4976 13.6225 37.0742 14.6725 37.2678H26.6491C27.7592 37.2678 28.5152 36.798 28.5152 35.5439V33.2676C28.5152 32.8482 28.5152 31.3159 27.2252 30.9913Z" fill="#324558"/>
</svg>
