<svg width="48" height="48" viewBox="0 0 48 48" fill="none" xmlns="http://www.w3.org/2000/svg">
<path d="M14.5815 6C9.3765 6 6 9.375 6 14.5785V33.42C6 38.6265 9.378 42 14.5815 42H33.4215C38.6265 42 42 38.625 42 33.4215V14.58C42 9.3735 38.625 6 33.4215 6H14.5815ZM17.5275 12.117C17.121 13.212 16.7775 14.268 16.5075 15.282H23.388C24.2055 15.273 24.0555 17.034 24.0555 17.0385H20.076C20.0821 18.9383 20.0261 20.8378 19.908 22.734H23.976C24.558 22.7685 24.5655 24.6105 24.5655 24.633H19.7745C19.6936 25.7042 19.4882 26.7623 19.1625 27.786L20.298 26.88C20.976 27.564 22.566 29.448 23.157 30.1455C23.8665 31.167 23.2515 33.267 23.2515 33.267L19.0605 28.194C18.081 31.971 16.293 33.6045 16.293 33.6045C15.5085 34.3065 13.923 34.8345 12.333 34.3785C15.66 31.7835 17.493 28.503 17.8335 24.633H12.7365C12.7365 24.6105 13.032 22.7685 13.9455 22.734H18.0105C18.0465 22.254 18.1395 17.853 18.1395 17.0385H15.897C15.693 17.6475 15.66 17.709 15.495 18.168C14.604 19.8105 13.0905 19.851 12.6345 19.9005C13.9935 17.169 14.7585 14.5005 15.021 13.8045C15.6585 12.1185 17.5275 12.117 17.5275 12.117ZM25.617 15H35.1825V31.995H31.323L28.047 34.0545L27.4455 31.995H25.617V15ZM27.5865 16.8285V30.1185H28.521L28.9155 31.524L31.098 30.117H33.282V16.827L27.5865 16.8285Z" fill="#324558"/>
</svg>
