<svg id="icon-eck" viewBox="0 0 24 24" xmlns="http://www.w3.org/2000/svg">
<path fill-rule="evenodd" clip-rule="evenodd" d="M13.8984 11.9998C13.8984 13.0483 13.0483 13.8981 12.0002 13.8981C10.9517 13.8981 10.1016 13.0483 10.1016 11.9998C10.1016 10.9513 10.9517 10.1016 12.0002 10.1016C13.0483 10.1016 13.8984 10.9513 13.8984 11.9998Z" fill="#324558"></path>
<path fill-rule="evenodd" clip-rule="evenodd" d="M14.3334 9.03907C14.3495 9.05182 14.366 9.06495 14.3822 9.07807C14.7339 9.36457 15.2195 9.42007 15.629 9.22395L20.6893 6.80295C19.4529 4.74007 17.5033 3.15607 15.1809 2.3877L13.9194 7.85332C13.817 8.29544 13.9768 8.7582 14.3334 9.03907Z" fill="#b6c2cd"></path>
<path fill-rule="evenodd" clip-rule="evenodd" d="M12.0695 16.569C11.9694 16.1261 11.6248 15.7785 11.1819 15.6802C9.49363 15.306 8.22651 13.7996 8.22651 12C8.22651 10.1936 9.50301 8.68237 11.2014 8.31525C11.6446 8.21962 11.9908 7.87313 12.0928 7.431L13.3539 1.968C12.9106 1.90875 12.4591 1.875 11.9998 1.875C6.40776 1.875 1.87476 6.40837 1.87476 12C1.87476 17.592 6.40776 22.125 11.9998 22.125C12.4419 22.125 12.8761 22.0935 13.3029 22.0388L12.0695 16.569Z" fill="#324558"></path>
<path fill-rule="evenodd" clip-rule="evenodd" d="M21.4819 15.554C21.8962 14.4478 22.125 13.2508 22.125 11.9998C22.125 10.7672 21.9041 9.58591 21.5006 8.49316L16.407 10.9303C15.9949 11.1275 15.7357 11.5445 15.7354 12.0013V12.02C15.7342 12.476 15.9911 12.8927 16.4014 13.0914L21.4819 15.554Z" fill="#324558"></path>
<path fill-rule="evenodd" clip-rule="evenodd" d="M14.3664 14.934C14.3503 14.9468 14.3341 14.9595 14.318 14.9723C13.9603 15.2513 13.7983 15.7129 13.898 16.1558L15.1325 21.6289C17.4598 20.8718 19.418 19.2975 20.6641 17.2418L15.6148 14.7942C15.206 14.5962 14.7196 14.649 14.3664 14.934Z" fill="#b6c2cd"></path>
</svg>
