<svg xmlns="http://www.w3.org/2000/svg" width="24" height="24" viewBox="0 0 24 24">
  <g fill="none" fill-rule="evenodd">
    <path fill="#B6C2CD" d="M11.637 16.123l3.253 3.252-3.253 3.253-3.253-3.253 3.253-3.252zm-3.705-3.644l3.253 3.253-3.253 3.253-3.253-3.253 3.253-3.253zm3.705-3.71l3.253 3.253-3.253 3.253-3.253-3.253 3.253-3.253zm-7.384 0l3.252 3.253-3.252 3.253L1 12.022 4.253 8.77zm3.68-3.71l3.252 3.253-3.253 3.253L4.68 8.312 7.932 5.06zm3.704-3.683L14.89 4.63l-3.253 3.253L8.384 4.63l3.253-3.253z"/>
    <path fill="#324558" fill-rule="nonzero" d="M16.508 12.022l2.3 3.984-3.984 2.3-2.3-3.984 3.984-2.3zm5.151-2.54l1.574 4.323-4.323 1.574-1.573-4.323 4.322-1.573zM16.338 5.14l2.572 3.814-3.814 2.572-2.572-3.813 3.814-2.573z"/>
  </g>
</svg>
