<svg xmlns="http://www.w3.org/2000/svg" width="40" height="40" viewBox="0 0 40 40">
  <g fill="none" fill-rule="evenodd">
    <path fill="#B6C2CD" d="M34.236 6.667a1 1 0 011 1v24.666a1 1 0 01-1 1H5.762a1 1 0 01-1-1V7.667a1 1 0 011-1h28.474zm-2.96 17.612h-9.998v2.5h9.997v-2.5zm0-5.529h-9.998v2.5h9.997v-2.5zm0-5.529h-9.998v2.5h9.997v-2.5z"/>
    <path fill="#324558" fill-rule="nonzero" d="M10.934 22.681v6.095l3.474-1.707 3.474 1.707v-6.232a6.63 6.63 0 01-6.948.137zm3.352-11.443a5.561 5.561 0 105.562 5.561 5.593 5.593 0 00-5.562-5.561z"/>
  </g>
</svg>
