<svg xmlns="http://www.w3.org/2000/svg" width="24" height="24" viewBox="0 0 24 24">
  <g fill="none" fill-rule="evenodd">
    <path fill="#B6C2CD" d="M11.755 2.5a.08.08 0 01.07.043 24.894 24.894 0 002.408 3.793c1.692 2.212 4.168 5.244 4.168 8.405h-4.056a.164.164 0 00-.163.164v2.274H11.91a.164.164 0 00-.164.164l.008 4.05A6.648 6.648 0 015.11 14.74c0-3.163 2.475-6.193 4.168-8.405a24.91 24.91 0 002.409-3.793.077.077 0 01.068-.043zM8.551 8.646a21.66 21.66 0 00-1.66 2.336C6 12.464 5.38 14.12 5.668 15.832c.242 1.42 1.025 2.717 2.21 3.66.252.2.52.38.802.543a.09.09 0 00.11-.02.074.074 0 00-.005-.102 6.437 6.437 0 01-1.922-2.965c-.524-1.794-.09-3.633.666-5.317.408-.889.878-1.753 1.404-2.587.063-.101.128-.202.193-.303l-.288-.05-.287-.045zm2.074-2.54c-.131.16-.26.336-.392.503-.415.525-.852 1.036-1.28 1.552.174.02.335.045.505.07.35-.547.721-1.094 1.064-1.65.096-.16.19-.32.285-.469.073-.123-.102-.112-.182-.006z"/>
    <path fill="#324558" fill-rule="nonzero" d="M16.756 20.98a6.49 6.49 0 01-1.605.984v-.983zm-2.402-.545v1.095a6.475 6.475 0 01-2.171.418l-.009-1.35c0-.09.074-.163.164-.163h2.016zm2.824-2.437v1.708a.456.456 0 01-.131.328l-.07.058a.455.455 0 01-.253.08H15.01v-2.174h2.168zm-2.826-.393v2.173l-2.178.007v-2.016c0-.09.074-.164.164-.164h2.014zm4.615.54a6.484 6.484 0 01-.982 1.607v-1.606zm-2.179-2.977v2.172l-2.179.008v-2.016c0-.09.073-.164.164-.164h2.015zm2.166 0a6.473 6.473 0 01-.417 2.172h-1.094v-2.172z"/>
  </g>
</svg>
