<svg id="icon-opensearch" viewBox="0 0 24 24" xmlns="http://www.w3.org/2000/svg">
<path d="M21.4802 9.29174C21.3853 9.29132 21.2913 9.30964 21.2035 9.34566C21.1158 9.38167 21.036 9.43467 20.9688 9.5016C20.9015 9.56853 20.8482 9.64809 20.8118 9.73569C20.7754 9.8233 20.7566 9.91724 20.7566 10.0121C20.7566 12.8613 19.625 15.5938 17.6107 17.6087C15.5963 19.6237 12.8641 20.7561 10.015 20.757C9.92015 20.757 9.82627 20.7756 9.73868 20.8119C9.65108 20.8482 9.5715 20.9014 9.50446 20.9684C9.43742 21.0355 9.38424 21.1151 9.34796 21.2026C9.31167 21.2902 9.293 21.3841 9.293 21.4789C9.293 21.5737 9.31167 21.6676 9.34796 21.7552C9.38424 21.8428 9.43742 21.9224 9.50446 21.9894C9.5715 22.0565 9.65108 22.1096 9.73868 22.1459C9.82627 22.1822 9.92015 22.2009 10.015 22.2009C13.2471 22.2 16.3465 20.9155 18.6317 18.6297C20.9168 16.344 22.2005 13.2442 22.2005 10.0121C22.2005 9.82105 22.1247 9.63782 21.9896 9.50273C21.8545 9.36764 21.6712 9.29174 21.4802 9.29174V9.29174ZM3.0504 6.26367C2.13814 7.67246 1.70547 9.3383 1.81686 11.013C2.09098 15.3893 6.05615 18.7074 9.79502 18.3504C11.2612 18.207 12.7625 17.0117 12.6318 14.8761C12.5713 13.9454 12.1155 13.3972 11.3792 12.9764C10.6748 12.5748 9.76952 12.3198 8.74635 12.0329C7.50644 11.6823 6.0689 11.2935 4.96924 10.4807C3.64645 9.5053 2.74121 8.37695 3.0504 6.26367Z" fill="#324558"></path>
<path d="M17.1262 13.9129C18.0384 12.5041 18.4711 10.8383 18.3597 9.16361C18.0856 4.78725 14.1204 1.46913 10.3815 1.82612C8.9153 1.96956 7.41402 3.16485 7.5447 5.30043C7.60526 6.23116 8.06107 6.7794 8.79737 7.20015C9.50179 7.60176 10.407 7.85676 11.4302 8.14363C12.6701 8.49425 14.1076 8.88312 15.2073 9.69591C16.5301 10.6713 17.4353 11.7996 17.1262 13.9129Z" fill="#b6c2cd"></path>
</svg>
