<svg width="48" height="48" viewBox="0 0 48 48" fill="none" xmlns="http://www.w3.org/2000/svg">
<path fill-rule="evenodd" clip-rule="evenodd" d="M17.9961 6.00781L29.9961 6L33.6836 10.0039H42C43.1046 10.0039 44 10.8993 44 12.0039V40.0039C44 41.1085 43.1046 42.0039 42 42.0039H6C4.89543 42.0039 4 41.1085 4 40.0039V12.0039C4 10.8993 4.89543 10.0039 6 10.0039H14.3281L17.9961 6.00781ZM24 36C29.5228 36 34 31.5228 34 26C34 20.4772 29.5228 16 24 16C18.4772 16 14 20.4772 14 26C14 31.5228 18.4772 36 24 36Z" fill="#B6C2CD"/>
<path d="M30 26C30 29.3137 27.3137 32 24 32C20.6863 32 18 29.3137 18 26C18 22.6863 20.6863 20 24 20C27.3137 20 30 22.6863 30 26Z" fill="#324558"/>
</svg>
