<svg width="48" height="48" viewBox="0 0 48 48" fill="none" xmlns="http://www.w3.org/2000/svg">
<path fill-rule="evenodd" clip-rule="evenodd" d="M8 6C6.89543 6 6 6.89543 6 8V40C6 41.1046 6.89543 42 8 42H40C41.1046 42 42 41.1046 42 40V8C42 6.89543 41.1046 6 40 6H8ZM14 10H10V14H14V10ZM10 18H14V22H10V18ZM20 30L30 24L20 18V30ZM10 26H14V30H10V26ZM10 34H14V38H10V34ZM34 18H38V22H34V18ZM34 10H38V14H34V10ZM34 26H38V30H34V26ZM34 34H38V38H34V34Z" fill="#B6C2CD"/>
<path d="M14 10H10V14H14V10Z" fill="#324558"/>
<path d="M10 18H14V22H10V18Z" fill="#324558"/>
<path d="M30 24L20 30V18L30 24Z" fill="#324558"/>
<path d="M10 26H14V30H10V26Z" fill="#324558"/>
<path d="M14 34H10V38H14V34Z" fill="#324558"/>
<path d="M34 18H38V22H34V18Z" fill="#324558"/>
<path d="M38 10H34V14H38V10Z" fill="#324558"/>
<path d="M34 26H38V30H34V26Z" fill="#324558"/>
<path d="M38 34H34V38H38V34Z" fill="#324558"/>
</svg>
