<svg width="48" height="48" viewBox="0 0 48 48" fill="none" xmlns="http://www.w3.org/2000/svg">
<path d="M8 20C8 11.1634 15.1634 4 24 4C32.8366 4 40 11.1634 40 20V20.6736C39.0907 20.2417 38.0736 20 37 20L36 20C36 13.3726 30.6274 8 24 8C17.3726 8 12 13.3726 12 20H11C9.9264 20 8.90926 20.2417 8 20.6736V20Z" fill="#B6C2CD"/>
<path d="M36.5 34V36C36.5 37.3807 35.3807 38.5 34 38.5H29.7092C29.1159 37.0341 27.6787 36 26 36H22C19.7909 36 18 37.7909 18 40C18 42.2091 19.7909 44 22 44H26C27.6787 44 29.1159 42.9659 29.7092 41.5H34C37.0376 41.5 39.5 39.0376 39.5 36V33.5404C38.7236 33.8373 37.8808 34 37 34H36.5Z" fill="#B6C2CD"/>
<path d="M11 20C7.13401 20 4 23.134 4 27C4 30.866 7.13401 34 11 34H14V20H11Z" fill="#324558"/>
<path d="M37 20C40.866 20 44 23.134 44 27C44 30.866 40.866 34 37 34H34V20H37Z" fill="#324558"/>
</svg>
