<svg width="48" height="48" viewBox="0 0 48 48" fill="none" xmlns="http://www.w3.org/2000/svg">
<path d="M8 22C8 13.1634 15.1634 6 24 6C32.8366 6 40 13.1634 40 22V26.252C39.3608 26.0875 38.6906 26 38 26H36V22C36 15.3726 30.6274 10 24 10C17.3726 10 12 15.3726 12 22V26H10C9.3094 26 8.63924 26.0875 8 26.252V22Z" fill="#B6C2CD"/>
<path d="M28.4961 32L23.9306 19.9884L20.5092 33.7557L19.6088 32H15V35H17.7758L21.4908 42.2443L24.5309 30.0116L26.427 35H33V32H28.4961Z" fill="#B6C2CD"/>
<path d="M10 26C5.58172 26 2 29.5817 2 34C2 38.4183 5.58172 42 10 42H12V26H10Z" fill="#324558"/>
<path d="M38 26C42.4183 26 46 29.5817 46 34C46 38.4183 42.4183 42 38 42H36V26H38Z" fill="#324558"/>
</svg>
