<svg width="48" height="48" viewBox="0 0 48 48" fill="none" xmlns="http://www.w3.org/2000/svg">
<path d="M32.7967 27.817L14.3741 9.39439C15.5205 5.13501 19.4098 2 24.0312 2C29.5541 2 34.0312 6.47715 34.0312 12V23C34.0312 24.7464 33.5836 26.3882 32.7967 27.817Z" fill="#B6C2CD"/>
<path d="M27.4724 32.3922L14.0312 18.951V23C14.0312 28.5228 18.5084 33 24.0312 33C25.2404 33 26.3995 32.7854 27.4724 32.3922Z" fill="#B6C2CD"/>
<path d="M8.82843 8.09131L6 10.9197L29.7554 34.6752C28.0283 35.5236 26.0854 36 24.0313 36C16.8516 36 11.0313 30.1797 11.0313 23H7.03129C7.03129 31.7122 13.585 38.8937 22.0313 39.8836V46H26.0313V39.8836C28.4468 39.6005 30.7075 38.811 32.7044 37.6242L37.1127 42.0324L39.9411 39.204L8.82843 8.09131Z" fill="#324558"/>
<path d="M37.8641 32.8843C39.8578 30.099 41.0313 26.6865 41.0313 23H37.0313C37.0313 25.5793 36.2801 27.9832 34.9846 30.0048L37.8641 32.8843Z" fill="#324558"/>
</svg>
