<svg width="48" height="48" viewBox="0 0 48 48" fill="none" xmlns="http://www.w3.org/2000/svg">
<path fill-rule="evenodd" clip-rule="evenodd" d="M36.0019 40C40.8586 36.3511 44 30.5424 44 24C44 12.9543 35.0457 4 24 4C12.9543 4 4 12.9543 4 24C4 35.0457 12.9543 44 24 44C28.5033 44 32.6589 42.5116 36.0019 40ZM16.4997 11.0098C14.5865 12.1143 13.931 14.5607 15.0356 16.4739C16.1402 18.387 18.5865 19.0425 20.4997 17.938C22.4129 16.8334 23.0684 14.387 21.9638 12.4739C20.8593 10.5607 18.4129 9.9052 16.4997 11.0098ZM11.0095 31.5006C9.9049 29.5874 10.5604 27.1411 12.4736 26.0365C14.3867 24.9319 16.8331 25.5874 17.9377 27.5006C19.0422 29.4138 18.3867 31.8601 16.4736 32.9647C14.5604 34.0693 12.114 33.4138 11.0095 31.5006ZM31.5261 15.0365C29.6129 16.1411 28.9574 18.5875 30.062 20.5006C31.1665 22.4138 33.6129 23.0693 35.5261 21.9647C37.4392 20.8602 38.0947 18.4138 36.9902 16.5006C35.8856 14.5875 33.4392 13.932 31.5261 15.0365ZM26.0358 35.5263C24.9313 33.6131 25.5868 31.1668 27.4999 30.0622C29.4131 28.9576 31.8595 29.6131 32.964 31.5263C34.0686 33.4395 33.4131 35.8858 31.4999 36.9904C29.5868 38.095 27.1404 37.4395 26.0358 35.5263ZM21 24.0005C21 22.3436 22.3431 21.0005 24 21.0005C25.6568 21.0005 27 22.3436 27 24.0005C27 25.6573 25.6568 27.0005 24 27.0005C22.3431 27.0005 21 25.6573 21 24.0005Z" fill="#B6C2CD"/>
<path d="M15.0356 16.4739C13.931 14.5607 14.5865 12.1143 16.4997 11.0098C18.4129 9.9052 20.8593 10.5607 21.9638 12.4739C23.0684 14.387 22.4129 16.8334 20.4997 17.938C18.5865 19.0425 16.1402 18.387 15.0356 16.4739Z" fill="#324558"/>
<path d="M24 44H42V40H36.0019C32.6589 42.5116 28.5033 44 24 44Z" fill="#324558"/>
<path d="M11.0095 31.5006C9.9049 29.5874 10.5604 27.1411 12.4736 26.0365C14.3867 24.9319 16.8331 25.5874 17.9377 27.5006C19.0422 29.4138 18.3867 31.8601 16.4736 32.9647C14.5604 34.0693 12.114 33.4138 11.0095 31.5006Z" fill="#324558"/>
<path d="M30.062 20.5006C28.9574 18.5875 29.6129 16.1411 31.5261 15.0365C33.4392 13.932 35.8856 14.5875 36.9902 16.5006C38.0947 18.4138 37.4392 20.8602 35.5261 21.9647C33.6129 23.0693 31.1665 22.4138 30.062 20.5006Z" fill="#324558"/>
<path d="M26.0358 35.5263C24.9313 33.6131 25.5868 31.1668 27.4999 30.0622C29.4131 28.9576 31.8595 29.6131 32.964 31.5263C34.0686 33.4395 33.4131 35.8858 31.4999 36.9904C29.5868 38.095 27.1404 37.4395 26.0358 35.5263Z" fill="#324558"/>
<path d="M24 21.0005C22.3431 21.0005 21 22.3436 21 24.0005C21 25.6573 22.3431 27.0005 24 27.0005C25.6568 27.0005 27 25.6573 27 24.0005C27 22.3436 25.6568 21.0005 24 21.0005Z" fill="#324558"/>
</svg>
