<svg width="48" height="48" viewBox="0 0 48 48" fill="none" xmlns="http://www.w3.org/2000/svg">
<path fill-rule="evenodd" clip-rule="evenodd" d="M8 6C6.89543 6 6 6.89543 6 8V40C6 41.1046 6.89543 42 8 42H40C41.1046 42 42 41.1046 42 40V8C42 6.89543 41.1046 6 40 6H8ZM23.8786 12L34 16.12L32.328 20.3738L28.3806 18.767V29.7005C28.3806 33.1796 25.6091 36 22.1903 36C18.7715 36 16 33.1796 16 29.7005C16 26.2214 18.7715 23.401 22.1903 23.401C22.7756 23.401 23.3419 23.4837 23.8786 23.6381V12Z" fill="#B6C2CD"/>
<path d="M34 16.12L23.8786 12V23.6381C23.3419 23.4837 22.7756 23.401 22.1903 23.401C18.7715 23.401 16 26.2214 16 29.7005C16 33.1796 18.7715 36 22.1903 36C25.6091 36 28.3806 33.1796 28.3806 29.7005V18.767L32.328 20.3738L34 16.12Z" fill="#324558"/>
</svg>
