<svg width="48" height="48" viewBox="0 0 48 48" fill="none" xmlns="http://www.w3.org/2000/svg">
<path d="M22 11.8256V23.4141C21.0463 23.1444 20.04 23 19 23C12.9249 23 8 27.9249 8 34C8 40.0752 12.9249 45 19 45C25.0751 45 30 40.0752 30 34V14.9081L22 11.8256Z" fill="#B6C2CD"/>
<path fill-rule="evenodd" clip-rule="evenodd" d="M22 4.56886C22 3.86139 22.7145 3.37763 23.3714 3.64038L39.0571 9.91466C39.5699 10.1198 39.8193 10.7017 39.6142 11.2145L37.3858 16.7854C37.1807 17.2982 36.5987 17.5476 36.086 17.3425L30 14.9081L22 11.8256V4.56886Z" fill="#324558"/>
</svg>
