<svg width="48" height="48" viewBox="0 0 48 48" fill="none" xmlns="http://www.w3.org/2000/svg">
<path fill-rule="evenodd" clip-rule="evenodd" d="M4 10C2.89543 10 2 10.8954 2 12V36C2 37.1046 2.89543 38 4 38H36V10H4ZM20.5 23.25V15L13 24.75H17.5V33L25 23.25H20.5Z" fill="#B6C2CD"/>
<path d="M45.499 34.1309L36 28.6315V19.3684L45.499 13.869C46.1656 13.483 47 13.9641 47 14.7344V33.2655C47 34.0358 46.1656 34.5169 45.499 34.1309Z" fill="#324558"/>
<path d="M20.5 15V23.25H25L17.5 33V24.75H13L20.5 15Z" fill="#324558"/>
</svg>
