<svg width="48" height="48" viewBox="0 0 48 48" fill="none" xmlns="http://www.w3.org/2000/svg">
<path fill-rule="evenodd" clip-rule="evenodd" d="M4 12C2.89543 12 2 12.8954 2 14V38C2 39.1046 2.89543 40 4 40H36V12H4ZM25 26L15 32L15 20L25 26Z" fill="#B6C2CD"/>
<path d="M14 10H21.1716L23.1716 12H28.8284L24 7.17157C23.2499 6.42143 22.2324 6 21.1716 6H14V10Z" fill="#324558"/>
<path d="M36 30.6316L45.499 36.131C46.1656 36.5169 47 36.0359 47 35.2656L47 16.7345C47 15.9641 46.1656 15.4831 45.499 15.869L36 21.3684V30.6316Z" fill="#324558"/>
<path d="M15 32L25 26L15 20L15 32Z" fill="#324558"/>
</svg>
