<svg width="48" height="48" viewBox="0 0 48 48" fill="none" xmlns="http://www.w3.org/2000/svg">
<path fill-rule="evenodd" clip-rule="evenodd" d="M4 12C2.89543 12 2 12.8954 2 14V38C2 39.1046 2.89543 40 4 40H36V12H4ZM20.5 25.25V17L13 26.75H17.5V35L25 25.25H20.5Z" fill="#B6C2CD"/>
<path d="M14 10H21.1716L23.1716 12H28.8284L24 7.17157C23.2499 6.42143 22.2324 6 21.1716 6H14V10Z" fill="#324558"/>
<path d="M45.499 36.1309L36 30.6315V21.3684L45.499 15.869C46.1656 15.483 47 15.9641 47 16.7344V35.2655C47 36.0358 46.1656 36.5169 45.499 36.1309Z" fill="#324558"/>
<path d="M20.5 17V25.25H25L17.5 35V26.75H13L20.5 17Z" fill="#324558"/>
</svg>
