<svg width="48" height="48" viewBox="0 0 48 48" fill="none" xmlns="http://www.w3.org/2000/svg">
<path d="M15.9677 11.0194L26 21.0518V6.76619C26 5.9889 25.152 5.50879 24.4855 5.9087L15.9677 11.0194Z" fill="#B6C2CD"/>
<path d="M9.43902 14.3902L4.51493 15.6213C3.62459 15.8439 3 16.6438 3 17.5616V30.4384C3 31.3562 3.62459 32.1561 4.51493 32.3787L11 34L24.4855 42.0913C25.152 42.4912 26 42.0111 26 41.2338V30.9512L9.43902 14.3902Z" fill="#B6C2CD"/>
<path d="M39.9099 39.2043L8.79718 8.09155L5.96875 10.92L37.0814 42.0327L39.9099 39.2043Z" fill="#324558"/>
<path d="M38.239 33.2908L41.117 36.1688C43.562 32.7357 45 28.5358 45 24C45 18.0148 42.4961 12.6143 38.4785 8.78908L35.5318 11.5092C38.8943 14.6151 41 19.0616 41 24C41 27.4287 39.985 30.6203 38.239 33.2908Z" fill="#324558"/>
<path d="M32.3914 27.4432L35.4184 30.4701C36.4288 28.5349 37.0001 26.3341 37.0001 23.9998C37.0001 20.0911 35.3982 16.5564 32.8152 14.0166L29.8711 16.7342C31.7979 18.557 33.0001 21.138 33.0001 23.9998C33.0001 25.2098 32.7851 26.3696 32.3914 27.4432Z" fill="#324558"/>
</svg>
