<svg width="48" height="48" viewBox="0 0 48 48" fill="none" xmlns="http://www.w3.org/2000/svg">
<path fill-rule="evenodd" clip-rule="evenodd" d="M16.3236 2.99988C15.367 2.4476 14.1438 2.77535 13.5915 3.73193L4.59153 19.3204C4.03924 20.277 4.36699 21.5002 5.32358 22.0524L26.9742 34.5524L40.5723 16.9999L16.3236 2.99988ZM16.0554 7.46277L22.9836 11.4628L20.9836 14.9269L14.0554 10.9269L16.0554 7.46277Z" fill="#B6C2CD"/>
<path d="M16.0555 7.46277L22.9837 11.4628L20.9837 14.9269L14.0555 10.9269L16.0555 7.46277Z" fill="#324558"/>
<path d="M30.8246 29.5825L37.0788 36.4437C37.5347 36.9439 38.3454 36.8562 38.6838 36.2701L45.3163 24.7824C45.6547 24.1963 45.3253 23.4503 44.6641 23.3055L36.9892 21.6251L30.8246 29.5825Z" fill="#324558"/>
<path d="M20.9118 31.0526L12.2516 26.0526L10.2516 29.5167L12.7468 30.9573C12.464 34.3416 9.62759 37 6.17028 37L6.00002 37L6 38.6685V34.0001H2V44.0001H6V41H6.17023C11.0977 41 15.2398 37.6379 16.4277 33.0825L18.9118 34.5167L20.9118 31.0526Z" fill="#324558"/>
</svg>
