<svg width="48" height="48" viewBox="0 0 48 48" fill="none" xmlns="http://www.w3.org/2000/svg">
<path fill-rule="evenodd" clip-rule="evenodd" d="M24 4C15.1634 4 8 11.1634 8 20C8 28.8366 15.1634 36 24 36C32.8366 36 40 28.8366 40 20C40 11.1634 32.8366 4 24 4ZM24 11C19.0294 11 15 15.0294 15 20C15 24.9706 19.0294 29 24 29C28.9706 29 33 24.9706 33 20C33 15.0294 28.9706 11 24 11Z" fill="#B6C2CD"/>
<path d="M24 14C20.6863 14 18 16.6863 18 20C18 23.3137 20.6863 26 24 26C27.3137 26 30 23.3137 30 20C30 16.6863 27.3137 14 24 14Z" fill="#324558"/>
<path d="M24 36C19.9837 36 16.313 34.5202 13.5034 32.076L8.65499 42.5809C8.34916 43.2436 8.83316 44 9.56295 44H38.4371C39.1669 44 39.6509 43.2436 39.3451 42.5809L34.4966 32.076C31.6871 34.5202 28.0164 36 24 36Z" fill="#324558"/>
</svg>
