<svg width="48" height="48" viewBox="0 0 48 48" fill="none" xmlns="http://www.w3.org/2000/svg">
<path d="M22.5855 3.41416C23.3665 2.63311 24.6329 2.63311 25.4139 3.41416L33.9391 11.9394L23.9998 21.8787L14.0604 11.9393L22.5855 3.41416Z" fill="#324558"/>
<path d="M11.939 14.0606L3.41391 22.5857C2.63286 23.3668 2.63286 24.6331 3.41391 25.4142L11.9391 33.9394L21.8785 24L11.939 14.0606Z" fill="#324558"/>
<path d="M23.9998 26.1214L14.0605 36.0607L22.5855 44.5857C23.3665 45.3668 24.6329 45.3668 25.4139 44.5857L33.939 36.0606L23.9998 26.1214Z" fill="#324558"/>
<path d="M36.0604 33.9393L44.5855 25.4142C45.3665 24.6331 45.3665 23.3668 44.5855 22.5857L36.0605 14.0607L26.1211 24L36.0604 33.9393Z" fill="#324558"/>
</svg>
