<svg width="48" height="48" viewBox="0 0 48 48" fill="none" xmlns="http://www.w3.org/2000/svg">
<path d="M24.9923 4.56698C24.3775 4.21563 23.6226 4.21563 23.0078 4.56698L4.51949 15.1317C3.84767 15.5156 3.84767 16.4843 4.51949 16.8682L24.0001 28L43.4806 16.8682C44.1525 16.4843 44.1525 15.5156 43.4806 15.1317L24.9923 4.56698Z" fill="#324558"/>
<path d="M24.0001 31.4553L13.9767 25.7277L4.51949 31.1318C3.84767 31.5157 3.84767 32.4844 4.51949 32.8683L23.0078 43.433C23.6226 43.7844 24.3775 43.7844 24.9923 43.433L43.4806 32.8683C44.1525 32.4844 44.1525 31.5157 43.4806 31.1318L34.0234 25.7277L24.0001 31.4553Z" fill="#324558"/>
</svg>
