<svg width="48" height="48" viewBox="0 0 48 48" fill="none" xmlns="http://www.w3.org/2000/svg">
<path d="M13.5 5C8.80558 5 5 8.80558 5 13.5C5 18.1944 8.80558 22 13.5 22H22V13.5C22 8.80558 18.1944 5 13.5 5Z" fill="#324558"/>
<path d="M13.5 43C8.80558 43 5 39.1944 5 34.5C5 29.8056 8.80558 26 13.5 26H22V34.5C22 39.1944 18.1944 43 13.5 43Z" fill="#324558"/>
<path d="M43 13.5C43 8.80558 39.1944 5 34.5 5C29.8056 5 26 8.80558 26 13.5V22H34.5C39.1944 22 43 18.1944 43 13.5Z" fill="#324558"/>
<path d="M34.5 43C39.1944 43 43 39.1944 43 34.5C43 29.8056 39.1944 26 34.5 26H26V34.5C26 39.1944 29.8056 43 34.5 43Z" fill="#324558"/>
</svg>
