<svg width="48" height="48" viewBox="0 0 48 48" fill="none" xmlns="http://www.w3.org/2000/svg">
<path fill-rule="evenodd" clip-rule="evenodd" d="M44 12C44 16.1117 40.898 19.499 36.9066 19.9492C36.2916 21.6474 35.3129 23.3727 33.7484 24.704C32.0546 26.1455 29.8191 27 27 27H21.0001C19.0964 27 17.5605 27.8791 16.3804 29.3047C18.5602 30.7338 20 33.1988 20 36C20 40.4183 16.4183 44 12 44C7.58172 44 4 40.4183 4 36C4 32.2723 6.54955 29.1401 10 28.252V18H7C5.89543 18 5 17.1046 5 16V6C5 4.89543 5.89543 4 7 4H17C18.1046 4 19 4.89543 19 6V16C19 17.1046 18.1046 18 17 18H14V25.9825C15.7265 24.24 18.0626 23 21.0001 23H27C28.9567 23 30.2497 22.4291 31.1561 21.6577C31.8577 21.0607 32.4096 20.2725 32.8342 19.3492C29.9905 18.1226 28 15.2937 28 12C28 7.58172 31.5817 4 36 4C40.4183 4 44 7.58172 44 12ZM9 14V8H15V14H9Z" fill="#324558"/>
</svg>
