<svg width="48" height="48" viewBox="0 0 48 48" fill="none" xmlns="http://www.w3.org/2000/svg">
<path fill-rule="evenodd" clip-rule="evenodd" d="M12 4C16.4183 4 20 7.58172 20 12C20 14.8012 18.5602 17.2662 16.3804 18.6953C17.5605 20.1209 19.0964 21 21.0001 21H27C29.8191 21 32.0546 21.8545 33.7484 23.296C35.3129 24.6273 36.2916 26.3526 36.9066 28.0508C40.898 28.501 44 31.8883 44 36C44 40.4183 40.4183 44 36 44C31.5817 44 28 40.4183 28 36C28 32.7063 29.9905 29.8774 32.8343 28.6508C32.4096 27.7275 31.8577 26.9393 31.1561 26.3423C30.2497 25.5709 28.9567 25 27 25H21.0001C18.0626 25 15.7265 23.76 14 22.0175V30H17C18.1046 30 19 30.8954 19 32V42C19 43.1046 18.1046 44 17 44H7C5.89543 44 5 43.1046 5 42V32C5 30.8954 5.89543 30 7 30H10V19.748C6.54955 18.8599 4 15.7277 4 12C4 7.58172 7.58172 4 12 4ZM9 34V40H15V34H9Z" fill="#324558"/>
</svg>
