<svg width="48" height="48" viewBox="0 0 48 48" fill="none" xmlns="http://www.w3.org/2000/svg">
<path fill-rule="evenodd" clip-rule="evenodd" d="M18 38V41C18 42.1046 17.1046 43 16 43H6C4.89543 43 4 42.1046 4 41V31C4 29.8954 4.89543 29 6 29H9V17.7101C6.10851 16.8496 4 14.171 4 11C4 7.13401 7.13401 4 11 4C14.171 4 16.8496 6.10851 17.7101 9H29V6C29 4.89543 29.8954 4 31 4H41C42.1046 4 43 4.89543 43 6V16C43 17.1046 42.1046 18 41 18H38V30L44 36L36 44L30 38H18ZM13 17.7101C15.2578 17.0382 17.0382 15.2578 17.7101 13H29V16C29 17.1046 29.8954 18 31 18H34V30L30 34H18V31C18 29.8954 17.1046 29 16 29H13V17.7101ZM8 39V33H14V39H8ZM39 14H33V8H39V14Z" fill="#324558"/>
</svg>
