<svg width="48" height="48" viewBox="0 0 48 48" fill="none" xmlns="http://www.w3.org/2000/svg">
<path d="M43.9955 6.83282L38.849 11.9793L36.0206 9.15088L41.1671 4.00439L43.9955 6.83282Z" fill="#324558"/>
<path d="M6.84015 4.01196L11.9789 9.15076L9.15051 11.9792L4.01172 6.84039L6.84015 4.01196Z" fill="#324558"/>
<path d="M4.00391 41.1675L9.15051 36.0209L11.9789 38.8494L6.83233 43.996L4.00391 41.1675Z" fill="#324558"/>
<path d="M36.0206 38.8492L41.1671 43.9957L43.9955 41.1673L38.849 36.0208L36.0206 38.8492Z" fill="#324558"/>
<path d="M25.2072 8.33048C25.7893 7.57364 26.9998 7.98534 26.9998 8.94019V22.5001H33.9689C34.7986 22.5001 35.2674 23.4522 34.7615 24.1098L22.7924 39.6697C22.2102 40.4265 20.9998 40.0148 20.9998 39.0599V25.5001H14.0307C13.201 25.5001 12.7322 24.548 13.238 23.8904L25.2072 8.33048Z" fill="#324558"/>
</svg>
