<svg width="48" height="48" viewBox="0 0 48 48" fill="none" xmlns="http://www.w3.org/2000/svg">
<path fill-rule="evenodd" clip-rule="evenodd" d="M31 3L21 11L31 19V13H35V30.2899C32.1085 31.1504 30 33.829 30 37C30 40.866 33.134 44 37 44C40.866 44 44 40.866 44 37C44 33.829 41.8915 31.1504 39 30.2899V11C39 9.89543 38.1046 9 37 9H31V3ZM40 37C40 38.6569 38.6569 40 37 40C35.3431 40 34 38.6569 34 37C34 35.3431 35.3431 34 37 34C38.6569 34 40 35.3431 40 37Z" fill="#324558"/>
<path d="M18 11C18 14.171 15.8915 16.8496 13 17.7101V30.2899C15.8915 31.1504 18 33.829 18 37C18 40.866 14.866 44 11 44C7.13401 44 4 40.866 4 37C4 33.829 6.10851 31.1504 9 30.2899V17.7101C6.10851 16.8496 4 14.171 4 11C4 7.13401 7.13401 4 11 4C14.866 4 18 7.13401 18 11Z" fill="#324558"/>
</svg>
