<svg width="48" height="48" viewBox="0 0 48 48" fill="none" xmlns="http://www.w3.org/2000/svg">
<path fill-rule="evenodd" clip-rule="evenodd" d="M32.8532 13.0254C31.5042 10.7264 31.8161 7.72176 33.7888 5.74906C36.1319 3.40591 39.9309 3.40591 42.2741 5.74906C44.6172 8.0922 44.6172 11.8912 42.2741 14.2343C40.293 16.2154 37.2712 16.5215 34.9685 15.1527L32.1031 18.0181C34.0425 20.964 34.0192 24.8225 32.0331 27.7464L34.631 30.0343C35.5914 29.3814 36.7512 28.9999 38 28.9999C41.3137 28.9999 44 31.6862 44 34.9999C44 38.3136 41.3137 40.9999 38 40.9999C34.6863 40.9999 32 38.3136 32 34.9999C32 34.0229 32.2335 33.1004 32.6478 32.2852L29.9471 29.9069C26.9957 32.0683 22.9976 32.151 19.966 30.1551L16.896 33.2251C17.5948 34.3143 18 35.6098 18 36.9999C18 40.8659 14.866 43.9999 11 43.9999C7.13401 43.9999 4 40.8659 4 36.9999C4 33.1339 7.13401 29.9999 11 29.9999C12.3901 29.9999 13.6856 30.4051 14.7747 31.1038L17.7771 28.1015C15.6796 25.3233 15.4551 21.5809 17.1034 18.5963L14.7977 16.5658C13.2992 17.3168 11.4273 17.0672 10.1771 15.817C8.61497 14.2549 8.61497 11.7222 10.1771 10.1601C11.7392 8.598 14.2718 8.598 15.8339 10.1601C16.9574 11.2835 17.2728 12.909 16.7804 14.3143L18.9846 16.2554C22.1192 13.4879 26.7601 13.3458 30.0494 15.8291L32.8532 13.0254ZM36.6172 11.4059C35.8362 10.6249 35.8362 9.35853 36.6172 8.57749C37.3983 7.79644 38.6646 7.79644 39.4457 8.57749C40.2267 9.35853 40.2267 10.6249 39.4457 11.4059C38.6646 12.187 37.3983 12.187 36.6172 11.4059ZM11 39.9999C9.34314 39.9999 8 38.6567 8 36.9999C8 35.343 9.34315 33.9999 11 33.9999C12.6569 33.9999 14 35.343 14 36.9999C14 38.6567 12.6569 39.9999 11 39.9999Z" fill="#324558"/>
</svg>
