<svg width="48" height="48" viewBox="0 0 48 48" fill="none" xmlns="http://www.w3.org/2000/svg">
<path d="M18 4C16.8954 4 16 4.89543 16 6V14C16 15.1046 16.8954 16 18 16H22V24H9C7.89543 24 7 24.8954 7 26V32H6C4.89543 32 4 32.8954 4 34V42C4 43.1046 4.89543 44 6 44H12C13.1046 44 14 43.1046 14 42V34C14 32.8954 13.1046 32 12 32H11V28H22V32H21C19.8954 32 19 32.8954 19 34V42C19 43.1046 19.8954 44 21 44H27C28.1046 44 29 43.1046 29 42V34C29 32.8954 28.1046 32 27 32H26V28H37V32H36C34.8954 32 34 32.8954 34 34V42C34 43.1046 34.8954 44 36 44H42C43.1046 44 44 43.1046 44 42V34C44 32.8954 43.1046 32 42 32H41V26C41 24.8954 40.1046 24 39 24H26V16H30C31.1046 16 32 15.1046 32 14V6C32 4.89543 31.1046 4 30 4H18Z" fill="#324558"/>
</svg>
