<svg width="48" height="48" viewBox="0 0 48 48" fill="none" xmlns="http://www.w3.org/2000/svg">
<path d="M6 4C4.89543 4 4 4.89543 4 6V12C4 13.1046 4.89543 14 6 14H11V39C11 40.1046 11.8954 41 13 41H26V42C26 43.1046 26.8954 44 28 44H42C43.1046 44 44 43.1046 44 42V36C44 34.8954 43.1046 34 42 34H28C26.8954 34 26 34.8954 26 36V37H15V26H26V27C26 28.1046 26.8954 29 28 29H42C43.1046 29 44 28.1046 44 27V21C44 19.8954 43.1046 19 42 19H28C26.8954 19 26 19.8954 26 21V22H15V14H20C21.1046 14 22 13.1046 22 12V6C22 4.89543 21.1046 4 20 4H6Z" fill="#324558"/>
</svg>
