<svg width="48" height="48" viewBox="0 0 48 48" fill="none" xmlns="http://www.w3.org/2000/svg">
<path d="M24 10C26.2091 10 28 8.20914 28 6C28 3.79086 26.2091 2 24 2C22.3871 2 20.9972 2.9546 20.3644 4.32964C13.7529 5.5438 8.27891 10.0092 5.6611 16.007C5.77348 16.0024 5.88646 16 6 16C7.32059 16 8.56645 16.32 9.66427 16.8866C11.8184 12.5537 15.8792 9.33572 20.7487 8.33056C21.4746 9.34151 22.6604 10 24 10Z" fill="#324558"/>
<path d="M39.6694 20.7487C38.6643 15.8792 35.4463 11.8184 31.1134 9.66427C31.68 8.56645 32 7.32059 32 6C32 5.88646 31.9976 5.77348 31.993 5.6611C37.9908 8.27891 42.4562 13.7529 43.6704 20.3644C45.0454 20.9972 46 22.3871 46 24C46 26.2091 44.2091 28 42 28C39.7909 28 38 26.2091 38 24C38 22.6604 38.6585 21.4747 39.6694 20.7487Z" fill="#324558"/>
<path d="M42 32C42.1135 32 42.2265 31.9976 42.3389 31.993C39.7211 37.9908 34.2471 42.4562 27.6356 43.6704C27.0028 45.0454 25.6129 46 24 46C21.7909 46 20 44.2091 20 42C20 39.7909 21.7909 38 24 38C25.3396 38 26.5253 38.6585 27.2513 39.6694C32.1208 38.6643 36.1816 35.4463 38.3357 31.1134C39.4336 31.68 40.6794 32 42 32Z" fill="#324558"/>
<path d="M16 42C16 42.1135 16.0024 42.2265 16.007 42.3389C10.0092 39.7211 5.5438 34.2471 4.32964 27.6356C2.9546 27.0028 2 25.6129 2 24C2 21.7909 3.79086 20 6 20C8.20914 20 10 21.7909 10 24C10 25.3396 9.34151 26.5253 8.33056 27.2513C9.33571 32.1208 12.5537 36.1816 16.8866 38.3357C16.32 39.4336 16 40.6794 16 42Z" fill="#324558"/>
<path d="M24 32C28.4183 32 32 28.4183 32 24C32 19.5817 28.4183 16 24 16C19.5817 16 16 19.5817 16 24C16 28.4183 19.5817 32 24 32Z" fill="#324558"/>
</svg>
