<svg width="48" height="48" viewBox="0 0 48 48" fill="none" xmlns="http://www.w3.org/2000/svg">
<path d="M24 29.9999C27.3137 29.9999 30 27.3136 30 23.9999C30 20.6862 27.3137 17.9999 24 17.9999C20.6863 17.9999 18 20.6862 18 23.9999C18 27.3136 20.6863 29.9999 24 29.9999Z" fill="#324558"/>
<path fill-rule="evenodd" clip-rule="evenodd" d="M9.19986 1.0665C9.59986 0.533171 10.3999 0.533171 10.7999 1.0665L14.7999 6.39984C15.2943 7.05907 14.8239 7.99984 13.9999 7.99984H12V13.4166C14.9318 10.0949 19.2212 7.99988 24 7.99988H45V11.9999H34.5833C37.905 14.9317 40 19.2211 40 23.9999V39.9999H41.9999C42.8239 39.9999 43.2943 40.9406 42.7999 41.5999L38.7999 46.9332C38.3999 47.4665 37.5999 47.4665 37.1999 46.9332L33.1999 41.5999C32.7054 40.9406 33.1758 39.9999 33.9999 39.9999H36V34.5832C33.0682 37.9049 28.7788 39.9999 24 39.9999H3V35.9999H13.4167C10.095 33.0681 8 28.7786 8 23.9999V7.99984H5.99986C5.17582 7.99984 4.70544 7.05907 5.19986 6.39984L9.19986 1.0665ZM12 23.9999C12 17.3725 17.3726 11.9999 24 11.9999C30.6274 11.9999 36 17.3725 36 23.9999C36 30.6273 30.6274 35.9999 24 35.9999C17.3726 35.9999 12 30.6273 12 23.9999Z" fill="#324558"/>
</svg>
