<svg width="48" height="48" viewBox="0 0 48 48" fill="none" xmlns="http://www.w3.org/2000/svg">
<path d="M45 26V22L3 22L3 26L45 26Z" fill="#324558"/>
<path d="M39.7802 4C40.4112 4 40.8845 4.57733 40.7608 5.19612L38 19L9.99998 19L7.23921 5.19612C7.11545 4.57732 7.58874 4 8.21978 4L39.7802 4Z" fill="#324558"/>
<path fill-rule="evenodd" clip-rule="evenodd" d="M38 29L40.7608 42.8039C40.8845 43.4227 40.4112 44 39.7802 44H8.21978C7.58874 44 7.11544 43.4227 7.2392 42.8039L9.99998 29L38 29ZM36.1208 40H11.8792L13.2792 33L34.7208 33L36.1208 40Z" fill="#324558"/>
</svg>
