<svg width="48" height="48" viewBox="0 0 48 48" fill="none" xmlns="http://www.w3.org/2000/svg">
<path d="M31.6765 22.5687C31.6765 24.0623 30.4782 25.2732 29 25.2732C27.5219 25.2732 26.3236 24.0623 26.3236 22.5687C26.3236 21.075 27.5219 19.8641 29 19.8641C30.4782 19.8641 31.6765 21.075 31.6765 22.5687Z" fill="#B6C2CD"/>
<path fill-rule="evenodd" clip-rule="evenodd" d="M16 42H40C41.1046 42 42 41.1046 42 40V8C42 6.89543 41.1046 6 40 6H16V42ZM35.5 22.6522C35.5 26.7174 29.1806 33 29 33C28.8194 33 22.5 26.7174 22.5 22.6522C22.5 18.9783 25.4101 16 29 16C32.5899 16 35.5 18.9783 35.5 22.6522Z" fill="#B6C2CD"/>
<path d="M10 6H16V42H10V36H6V32H10V26H6V22H10V16H6V12H10V6Z" fill="#324558"/>
<path fill-rule="evenodd" clip-rule="evenodd" d="M29 33C29.1806 33 35.5 26.7174 35.5 22.6522C35.5 18.9783 32.5899 16 29 16C25.4101 16 22.5 18.9783 22.5 22.6522C22.5 26.7174 28.8194 33 29 33ZM29 25.2732C30.4782 25.2732 31.6765 24.0623 31.6765 22.5687C31.6765 21.075 30.4782 19.8641 29 19.8641C27.5219 19.8641 26.3236 21.075 26.3236 22.5687C26.3236 24.0623 27.5219 25.2732 29 25.2732Z" fill="#324558"/>
</svg>
