<svg width="48" height="48" viewBox="0 0 48 48" fill="none" xmlns="http://www.w3.org/2000/svg">
<path d="M21.3137 26.1053C21.3137 24.5994 22.5164 23.3786 24 23.3786C25.4836 23.3786 26.6863 24.5994 26.6863 26.1053C26.6863 27.6112 25.4836 28.832 24 28.832C22.5164 28.832 21.3137 27.6112 21.3137 26.1053Z" fill="#B6C2CD"/>
<path fill-rule="evenodd" clip-rule="evenodd" d="M12.1085 6C11.4189 6 10.778 6.35524 10.4125 6.94L6 14V40C6 41.1046 6.89543 42 8 42H40C41.1046 42 42 41.1046 42 40V14L37.5875 6.94C37.222 6.35524 36.5811 6 35.8915 6H12.1085ZM37.5 14H10.5L13 10H35L37.5 14ZM31 26.1053C31 22.1811 27.866 19 24 19C20.134 19 17 22.1811 17 26.1053C17 28.113 18.3743 30.7187 21.1228 33.9226L21.6376 34.5117C22.1677 35.1074 22.7431 35.7229 23.364 36.3582L24 37L24.636 36.3582C25.2569 35.7229 25.8323 35.1074 26.3624 34.5117L26.8772 33.9226C29.6257 30.7187 31 28.113 31 26.1053Z" fill="#B6C2CD"/>
<path d="M24 19C27.866 19 31 22.1811 31 26.1053C31 28.113 29.6257 30.7187 26.8772 33.9226L26.3624 34.5117C25.8323 35.1074 25.2569 35.7229 24.636 36.3582L24 37L23.364 36.3582C22.7431 35.7229 22.1677 35.1074 21.6376 34.5117L21.1228 33.9226C18.3743 30.7187 17 28.113 17 26.1053C17 22.1811 20.134 19 24 19ZM24 23.3786C22.5164 23.3786 21.3137 24.5994 21.3137 26.1053C21.3137 27.6112 22.5164 28.832 24 28.832C25.4836 28.832 26.6863 27.6112 26.6863 26.1053C26.6863 24.5994 25.4836 23.3786 24 23.3786Z" fill="#324558"/>
</svg>
