<svg width="48" height="48" viewBox="0 0 48 48" fill="none" xmlns="http://www.w3.org/2000/svg">
<path d="M4.00562 23.5284C5.51967 23.7219 7.3572 24.1077 7.46465 24.9824C7.50056 25.2809 7.52211 25.5943 7.54377 25.9092C7.63047 27.1697 7.71882 28.4543 8.73628 28.9024C9.36903 29.181 10.5412 28.1737 11.6938 27.1832C12.8575 26.183 14.0014 25.1999 14.5501 25.5751C14.9721 25.8643 15.855 26.0415 16.7783 26.2268C18.2385 26.5199 19.8001 26.8333 19.8001 27.6424C19.8001 28.2077 19.5035 29.2844 19.207 30.3605C18.8109 31.7984 18.4151 33.2352 18.7274 33.4501C19.1193 33.7181 18.6707 35.3979 18.3864 36.4624C18.2747 36.8808 18.1884 37.2041 18.1884 37.3094C18.1884 37.434 18.2731 37.7262 18.3779 38.0878C18.5891 38.8162 18.8817 39.8259 18.7274 40.3124C18.5867 40.7661 18.0073 41.9409 17.3318 42.8557C19.471 43.6122 21.7259 44.0001 24.0001 44.0001C26.6265 44.0001 29.2272 43.4827 31.6537 42.4776C34.0802 41.4725 36.285 39.9994 38.1422 38.1422C39.9994 36.285 41.4725 34.0802 42.4776 31.6537C43.4827 29.2272 44.0001 26.6265 44.0001 24.0001C44.0001 22.5243 43.8367 21.0567 43.5153 19.6235C43.368 20.681 42.2023 21.797 40.9406 23.005C39.1215 24.7466 37.103 26.6792 37.6501 28.9024C37.9246 30.0142 36.5247 30.7673 35.0593 31.5557C34.009 32.1207 32.9251 32.7038 32.4001 33.4501C31.1401 35.2397 25.7617 32.7454 25.0501 32.4C24.3384 32.0571 22.7121 30.8484 22.9501 28.9024C23.1003 27.6725 24.6808 27.5444 26.2743 27.4153C27.2052 27.3398 28.1405 27.264 28.7978 26.9681C30.5757 26.1677 33.1447 23.5031 31.8824 23.1554C25.9419 21.5174 23.9166 15.7821 23.9166 15.7821C23.8013 15.7602 23.7326 15.3303 23.6404 14.754C23.4469 13.545 23.1504 11.6922 22.106 11.6147C21.5011 11.569 21.0054 11.6294 20.4903 11.6923C19.6918 11.7897 18.8468 11.8927 17.4767 11.6147C15.6829 11.2508 15.6167 10.232 15.4857 8.21393C15.4521 7.69636 15.4142 7.11292 15.3418 6.45807C15.3234 6.29149 15.3094 6.13631 15.2995 5.9917C13.2843 6.96532 11.4443 8.27153 9.85792 9.85792C8.00075 11.7151 6.52756 13.9199 5.52246 16.3464C4.57757 18.6276 4.06377 21.0627 4.00562 23.5284Z" fill="#B6C2CD"/>
<path d="M42.9232 17.526C42.9838 17.9474 43.0741 18.2754 43.2174 18.4771L43.2257 18.4887C43.2315 18.509 43.2373 18.5293 43.2431 18.5497C43.1457 18.2059 43.0391 17.8645 42.9232 17.526Z" fill="#B6C2CD"/>
<path d="M17.3318 42.8556C17.0004 42.7384 16.6718 42.6124 16.3463 42.4776C13.9198 41.4725 11.715 39.9993 9.85786 38.1421C8.00069 36.285 6.5275 34.0802 5.52241 31.6537C4.51732 29.2272 4 26.6264 4 24C4 23.8427 4.00186 23.6855 4.00556 23.5284C5.51962 23.7218 7.35715 24.1076 7.4646 24.9823C7.50051 25.2808 7.52206 25.5942 7.54372 25.9091C7.63042 27.1697 7.71877 28.4543 8.73623 28.9023C9.36898 29.181 10.5411 28.1737 11.6937 27.1831C12.8575 26.1829 14.0014 25.1999 14.55 25.575C14.9721 25.8642 15.8549 26.0414 16.7782 26.2267C18.2385 26.5198 19.8 26.8332 19.8 27.6423C19.8 28.2077 19.5034 29.2843 19.2069 30.3605C18.8109 31.7983 18.415 33.2351 18.7273 33.45C19.1193 33.718 18.6707 35.3978 18.3864 36.4624C18.2747 36.8807 18.1883 37.204 18.1883 37.3093C18.1883 37.4339 18.273 37.7262 18.3779 38.0877C18.589 38.8162 18.8817 39.8258 18.7273 40.3123C18.5866 40.7661 18.0072 41.9408 17.3318 42.8556Z" fill="#324558"/>
<path d="M43.5153 19.6234C43.3679 20.6809 42.2022 21.797 40.9406 23.0049C39.1215 24.7466 37.1029 26.6792 37.65 28.9023C37.9245 30.0141 36.5246 30.7673 35.0592 31.5556C34.0089 32.1207 32.9251 32.7038 32.4 33.45C31.14 35.2397 25.7616 32.7453 25.05 32.4C24.3384 32.057 22.712 30.8483 22.95 28.9023C23.1002 27.6724 24.6807 27.5444 26.2743 27.4152C27.2051 27.3398 28.1404 27.264 28.7977 26.968C30.5757 26.1677 33.1446 23.503 31.8823 23.1553C25.9418 21.5173 23.9165 15.782 23.9165 15.782C23.8013 15.7602 23.7325 15.3302 23.6403 14.754C23.4469 13.545 23.1504 11.6921 22.1059 11.6147C21.5011 11.5689 21.0053 11.6294 20.4902 11.6922C19.6918 11.7896 18.8467 11.8927 17.4767 11.6147C15.6828 11.2507 15.6167 10.232 15.4856 8.21388C15.452 7.69627 15.4141 7.11292 15.3417 6.45802C15.3233 6.29143 15.3093 6.13626 15.2995 5.99165C15.6434 5.82546 15.9925 5.66896 16.3463 5.52241C18.7728 4.51732 21.3736 4 24 4C26.6264 4 29.2272 4.51732 31.6537 5.52241C34.0802 6.5275 36.285 8.00069 38.1421 9.85786C39.9993 11.715 41.4725 13.9198 42.4776 16.3463C42.6387 16.7353 42.7873 17.1287 42.9232 17.5259C42.9837 17.9473 43.0741 18.2754 43.2174 18.477C43.2201 18.4809 43.2229 18.4848 43.2256 18.4886C43.3333 18.8641 43.4299 19.2426 43.5153 19.6234Z" fill="#324558"/>
</svg>
