<svg width="48" height="48" viewBox="0 0 48 48" fill="none" xmlns="http://www.w3.org/2000/svg">
<path d="M17.3318 42.8557C19.471 43.6122 21.7259 44.0001 24.0001 44.0001C26.6265 44.0001 29.2272 43.4827 31.6537 42.4776C31.847 42.3976 32.0388 42.3146 32.2292 42.2286C31.6471 41.5066 31.0473 40.7205 30.4738 39.8984C29.6167 38.6699 28.7755 37.3011 28.1395 35.8988C27.7785 35.1028 27.4526 34.2292 27.2427 33.3154C26.1779 32.9322 25.3078 32.5251 25.0501 32.4C24.3384 32.0571 22.7121 30.8484 22.9501 28.9024C23.1003 27.6725 24.6808 27.5444 26.2743 27.4153C26.7703 27.3751 27.2678 27.3347 27.7236 27.2611C28.3693 25.5291 29.4198 23.9921 30.7644 22.7833C25.6851 20.7903 23.9166 15.7821 23.9166 15.7821C23.8013 15.7602 23.7326 15.3303 23.6404 14.754C23.4469 13.545 23.1504 11.6922 22.106 11.6147C21.5011 11.569 21.0054 11.6294 20.4903 11.6923C19.6918 11.7897 18.8468 11.8927 17.4767 11.6147C15.6829 11.2508 15.6167 10.232 15.4857 8.21393C15.4521 7.69633 15.4142 7.11296 15.3418 6.45807C15.3234 6.29149 15.3094 6.13631 15.2995 5.9917C13.2843 6.96532 11.4443 8.27153 9.85792 9.85792C8.00075 11.7151 6.52756 13.9199 5.52246 16.3464C4.57757 18.6276 4.06377 21.0627 4.00562 23.5284C5.51967 23.7219 7.3572 24.1077 7.46465 24.9824C7.50056 25.2809 7.52211 25.5943 7.54377 25.9092C7.63047 27.1697 7.71882 28.4543 8.73628 28.9024C9.36903 29.181 10.5412 28.1737 11.6938 27.1832C12.8575 26.183 14.0014 25.1999 14.5501 25.5751C14.9721 25.8643 15.855 26.0415 16.7783 26.2268C18.2385 26.5199 19.8001 26.8333 19.8001 27.6424C19.8001 28.2077 19.5035 29.2844 19.207 30.3605C18.8109 31.7983 18.4151 33.2352 18.7274 33.4501C19.1193 33.7181 18.6707 35.3979 18.3864 36.4624C18.2747 36.8808 18.1884 37.2041 18.1884 37.3094C18.1884 37.434 18.2731 37.7262 18.3779 38.0878C18.5891 38.8162 18.8817 39.8259 18.7274 40.3124C18.5867 40.7661 18.0073 41.9409 17.3318 42.8557Z" fill="#B6C2CD"/>
<path d="M42.9232 17.526C42.9838 17.9474 43.0741 18.2754 43.2174 18.4771L43.2257 18.4887C43.2257 18.4887 43.2257 18.4887 43.2257 18.4887C43.33 18.8527 43.424 19.2195 43.5075 19.5886C43.5101 19.6002 43.5127 19.6119 43.5153 19.6235C43.4482 20.1051 43.1699 20.5989 42.7674 21.108" fill="#B6C2CD"/>
<path d="M17.3318 42.8556C17.0004 42.7384 16.6718 42.6124 16.3463 42.4776C13.9198 41.4725 11.715 39.9993 9.85786 38.1421C8.00069 36.285 6.5275 34.0802 5.52241 31.6537C4.51732 29.2272 4 26.6264 4 24C4 23.8427 4.00186 23.6855 4.00556 23.5284C5.51962 23.7218 7.35715 24.1076 7.4646 24.9823C7.50051 25.2808 7.52206 25.5942 7.54372 25.9091C7.63042 27.1697 7.71877 28.4543 8.73623 28.9023C9.36898 29.181 10.5411 28.1737 11.6937 27.1831C12.8575 26.1829 14.0014 25.1999 14.55 25.575C14.9721 25.8642 15.8549 26.0414 16.7782 26.2267C18.2385 26.5198 19.8 26.8332 19.8 27.6423C19.8 28.2077 19.5034 29.2843 19.207 30.3604C18.8109 31.7983 18.415 33.2351 18.7273 33.45C19.1193 33.718 18.6707 35.3978 18.3864 36.4624C18.2747 36.8807 18.1883 37.204 18.1883 37.3093C18.1883 37.4339 18.273 37.7262 18.3779 38.0877C18.589 38.8162 18.8817 39.8258 18.7273 40.3123C18.5866 40.7661 18.0072 41.9408 17.3318 42.8556Z" fill="#324558"/>
<path d="M43.5153 19.6234C43.4482 20.1051 43.1698 20.5989 42.7674 21.1079C41.3327 20.3993 39.7185 20 38 20C35.204 20 32.6844 21.057 30.7643 22.7833C25.685 20.7902 23.9165 15.782 23.9165 15.782C23.8013 15.7602 23.7325 15.3302 23.6403 14.754C23.4469 13.545 23.1504 11.6921 22.1059 11.6147C21.5011 11.5689 21.0053 11.6294 20.4902 11.6922C19.6918 11.7896 18.8467 11.8927 17.4767 11.6147C15.6828 11.2507 15.6167 10.232 15.4856 8.21388C15.452 7.69628 15.4141 7.11291 15.3417 6.45802C15.3233 6.29143 15.3093 6.13626 15.2995 5.99165C15.6434 5.82546 15.9925 5.66896 16.3463 5.52241C18.7728 4.51732 21.3736 4 24 4C26.6264 4 29.2272 4.51732 31.6537 5.52241C34.0802 6.5275 36.285 8.00069 38.1421 9.85786C39.9993 11.715 41.4725 13.9198 42.4776 16.3463C42.6387 16.7353 42.7873 17.1287 42.9232 17.5259C42.9837 17.9473 43.0741 18.2754 43.2174 18.477L43.2256 18.4886C43.3333 18.8641 43.4299 19.2426 43.5153 19.6234Z" fill="#324558"/>
<path d="M27 31.2864C27 31.9743 27.0911 32.6553 27.2427 33.3154C26.1778 32.9321 25.3078 32.5251 25.05 32.4C24.3384 32.057 22.712 30.8483 22.95 28.9023C23.1002 27.6724 24.6807 27.5444 26.2743 27.4152C26.7703 27.375 27.2677 27.3347 27.7236 27.261C27.2553 28.5172 27 29.8759 27 31.2864Z" fill="#324558"/>
<path fill-rule="evenodd" clip-rule="evenodd" d="M46 31.2864C46 35.441 40.6153 41.4547 38.6813 43.4806C38.3059 43.8739 37.6941 43.8739 37.3187 43.4806C35.3847 41.4547 30 35.441 30 31.2864C30 26.71 33.5817 23 38 23C42.4183 23 46 26.71 46 31.2864ZM41.2941 31.0002C41.2941 32.8195 39.8193 34.2943 38 34.2943C36.1807 34.2943 34.7059 32.8195 34.7059 31.0002C34.7059 29.1809 36.1807 27.7061 38 27.7061C39.8193 27.7061 41.2941 29.1809 41.2941 31.0002Z" fill="#324558"/>
</svg>
