<svg width="48" height="48" viewBox="0 0 48 48" fill="none" xmlns="http://www.w3.org/2000/svg">
<path d="M22.9513 4C22.4184 4 21.9792 4.41785 21.9525 4.95006L21.8 8H26.2L26.0475 4.95006C26.0209 4.41785 25.5817 4 25.0488 4H22.9513Z" fill="#B6C2CD"/>
<path d="M26.7 18H21.3L21 24H27L26.7 18Z" fill="#B6C2CD"/>
<path d="M27.5 34H20.5L20.0525 42.9501C20.024 43.5212 20.4794 44 21.0513 44H26.9488C27.5207 44 27.9761 43.5212 27.9475 42.9501L27.5 34Z" fill="#B6C2CD"/>
<path d="M37.1717 18L9.00013 18C7.89556 18 7.00013 17.1046 7.00013 16L7.0001 10C7.0001 8.89544 7.89553 8 9.0001 8H37.1716C37.7021 8 38.2108 8.21071 38.5858 8.58578L42.293 12.2929C42.6835 12.6834 42.6835 13.3166 42.293 13.7071L38.5859 17.4142C38.2108 17.7893 37.7021 18 37.1717 18Z" fill="#324558"/>
<path d="M10.8285 34H39.0001C40.1046 34 41.0001 33.1046 41.0001 32L41.0001 26C41.0001 24.8954 40.1047 24 39.0001 24L10.8285 24C10.2981 24 9.78938 24.2107 9.41431 24.5858L5.7072 28.2929C5.31668 28.6834 5.31668 29.3166 5.7072 29.7071L9.41427 33.4142C9.78934 33.7893 10.2981 34 10.8285 34Z" fill="#324558"/>
</svg>
