<svg width="48" height="48" viewBox="0 0 48 48" fill="none" xmlns="http://www.w3.org/2000/svg">
<path fill-rule="evenodd" clip-rule="evenodd" d="M24.6851 46.3108C27.8613 43.0654 41 29.0689 41 19.6087C41 9.88368 33.3888 2 24 2C14.6112 2 7 9.88368 7 19.6087C7 29.0689 20.1387 43.0654 23.3149 46.3108C23.6952 46.6994 24.3048 46.6994 24.6851 46.3108ZM24 26C27.866 26 31 22.866 31 19C31 15.134 27.866 12 24 12C20.134 12 17 15.134 17 19C17 22.866 20.134 26 24 26Z" fill="#B6C2CD"/>
<path d="M31 19C31 22.866 27.866 26 24 26C20.134 26 17 22.866 17 19C17 15.134 20.134 12 24 12C27.866 12 31 15.134 31 19Z" fill="#324558"/>
</svg>
