<svg width="48" height="48" viewBox="0 0 48 48" fill="none" xmlns="http://www.w3.org/2000/svg">
<path fill-rule="evenodd" clip-rule="evenodd" d="M12.147 32.6527C9.26791 28.2525 7 23.5391 7 19.6087C7 9.88368 14.6112 2 24 2C33.3888 2 41 9.88368 41 19.6087C41 29.0689 27.8613 43.0654 24.6851 46.3108C24.5425 46.4565 24.3676 46.5476 24.1847 46.584C24.067 46.6075 23.946 46.6083 23.8281 46.5865C23.6405 46.5518 23.4607 46.46 23.3147 46.3108C21.4581 44.4138 16.1977 38.8432 12.147 32.6527C12.1471 32.6526 12.147 32.6527 12.147 32.6527ZM37 19.6087C37 21.123 36.4508 23.1476 35.2854 25.597C34.7502 26.7219 34.1153 27.8741 33.4105 29.0312C31.0429 26.5476 27.7021 25 23.9998 25C20.2977 25 16.957 26.5475 14.5893 29.031C13.8846 27.874 13.2498 26.7219 12.7146 25.597C11.5492 23.1476 11 21.123 11 19.6087C11 11.959 16.9518 6 24 6C31.0482 6 37 11.959 37 19.6087Z" fill="#B6C2CD"/>
<path d="M29 17C29 19.7614 26.7614 22 24 22C21.2386 22 19 19.7614 19 17C19 14.2386 21.2386 12 24 12C26.7614 12 29 14.2386 29 17Z" fill="#324558"/>
</svg>
