<svg width="48" height="48" viewBox="0 0 48 48" fill="none" xmlns="http://www.w3.org/2000/svg">
<path d="M29.0649 29.321C27.2677 31.5571 25.5852 33.3657 24.684 34.3026C24.305 34.6965 23.695 34.6965 23.316 34.3026C22.4148 33.3657 20.7323 31.5571 18.9351 29.321C11.4598 30.2934 6 33.3633 6 37C6 41.4183 14.0589 45 24 45C33.9411 45 42 41.4183 42 37C42 33.3633 36.5402 30.2934 29.0649 29.321Z" fill="#B6C2CD"/>
<path fill-rule="evenodd" clip-rule="evenodd" d="M24.684 34.3026C27.2283 31.6576 36 22.0641 36 15.5217C36 8.60617 30.6274 3 24 3C17.3726 3 12 8.60617 12 15.5217C12 22.0641 20.7717 31.6576 23.316 34.3026C23.6949 34.6965 24.3051 34.6965 24.684 34.3026ZM24 20C26.7614 20 29 17.7614 29 15C29 12.2386 26.7614 10 24 10C21.2386 10 19 12.2386 19 15C19 17.7614 21.2386 20 24 20Z" fill="#324558"/>
</svg>
