<svg width="48" height="48" viewBox="0 0 48 48" fill="none" xmlns="http://www.w3.org/2000/svg">
<path d="M8 6C6.89543 6 6 6.89543 6 8V25.7129L21.2942 19.6978L17.6239 6H8Z" fill="#B6C2CD"/>
<path d="M20.7297 6L27.685 31.9576L42 28.1219V8C42 6.89543 41.1046 6 40 6H20.7297Z" fill="#B6C2CD"/>
<path d="M42 31.2277L28.4615 34.8554L30.3759 42H40C41.1046 42 42 41.1046 42 40V31.2277Z" fill="#B6C2CD"/>
<path d="M27.27 42L22.0756 22.6142L6 28.9366V40C6 41.1046 6.89543 42 8 42H27.27Z" fill="#B6C2CD"/>
<path d="M42 31.2277L28.4615 34.8554L30.3759 42H27.27L22.0756 22.6142L6 28.9366V25.7129L21.2942 19.6978L17.6239 6H20.7297L27.685 31.9576L42 28.1219V31.2277Z" fill="#324558"/>
</svg>
