<svg width="48" height="48" viewBox="0 0 48 48" fill="none" xmlns="http://www.w3.org/2000/svg">
<path fill-rule="evenodd" clip-rule="evenodd" d="M22 5.10401C13.1039 6.03464 6.03464 13.1039 5.10401 22C5.03525 22.6573 5 23.3245 5 24C5 24.6755 5.03525 25.3427 5.10401 26C6.03464 34.8961 13.1039 41.9654 22 42.896C22.6573 42.9648 23.3245 43 24 43C24.6755 43 25.3427 42.9648 26 42.896C34.8961 41.9654 41.9654 34.8961 42.896 26C42.9648 25.3427 43 24.6755 43 24C43 23.3245 42.9648 22.6573 42.896 22C41.9654 13.1039 34.8961 6.03464 26 5.10401C25.3427 5.03525 24.6755 5 24 5C23.3245 5 22.6573 5.03525 22 5.10401ZM30 24C30 27.3137 27.3137 30 24 30C20.6863 30 18 27.3137 18 24C18 20.6863 20.6863 18 24 18C27.3137 18 30 20.6863 30 24Z" fill="#B6C2CD"/>
<path d="M26 1H22V5.10401C22.6573 5.03525 23.3245 5 24 5C24.6755 5 25.3427 5.03525 26 5.10401V1Z" fill="#324558"/>
<path d="M1 22H5.10401C5.03525 22.6573 5 23.3245 5 24C5 24.6755 5.03525 25.3427 5.10401 26H1V22Z" fill="#324558"/>
<path d="M22 47V42.896C22.6573 42.9648 23.3245 43 24 43C24.6755 43 25.3427 42.9648 26 42.896V47H22Z" fill="#324558"/>
<path d="M47 26H42.896C42.9648 25.3427 43 24.6755 43 24C43 23.3245 42.9648 22.6573 42.896 22H47V26Z" fill="#324558"/>
<path d="M24 30C27.3137 30 30 27.3137 30 24C30 20.6863 27.3137 18 24 18C20.6863 18 18 20.6863 18 24C18 27.3137 20.6863 30 24 30Z" fill="#324558"/>
</svg>
