<svg width="48" height="48" viewBox="0 0 48 48" fill="none" xmlns="http://www.w3.org/2000/svg">
<path d="M37.9476 22.7802C37.9823 23.1822 38 23.589 38 24C38 31.732 31.732 38 24 38C16.268 38 10 31.732 10 24C10 16.268 16.268 10 24 10C24.4109 10 24.8177 10.0177 25.2196 10.0524L30.2696 5.00239C28.2976 4.35196 26.1899 4 24 4C12.9543 4 4 12.9543 4 24C4 35.0457 12.9543 44 24 44C35.0457 44 44 35.0457 44 24C44 21.8101 43.648 19.7024 42.9976 17.7305L37.9476 22.7802Z" fill="#B6C2CD"/>
<path d="M37.364 10.6362V2.15088L27.4645 12.0504V17.7072L24 21.1717V16.0001C19.5817 16.0001 16 19.5818 16 24.0001C16 28.4184 19.5817 32.0001 24 32.0001C28.4183 32.0001 32 28.4184 32 24.0001H26.8284L30.2929 20.5357H35.9497L45.8492 10.6362H37.364Z" fill="#324558"/>
</svg>
