<svg width="48" height="48" viewBox="0 0 48 48" fill="none" xmlns="http://www.w3.org/2000/svg">
<path d="M6 6C6 4.89543 6.89543 4 8 4H26C27.1046 4 28 4.89543 28 6V10H14V34H8C6.89543 34 6 33.1046 6 32V6Z" fill="#324558"/>
<path fill-rule="evenodd" clip-rule="evenodd" d="M17 13H40C41.1046 13 42 13.8954 42 15V42C42 43.1046 41.1046 44 40 44H19C17.8954 44 17 43.1046 17 42V13ZM26.8277 28.657L22.5853 32.8995L25.4137 35.728L29.6562 31.4855L33.8987 35.728L36.7271 32.8995L32.4846 28.657L36.7274 24.4142L33.899 21.5858L29.6562 25.8286L25.4134 21.5858L22.585 24.4143L26.8277 28.657Z" fill="#324558"/>
</svg>
