<svg width="48" height="48" viewBox="0 0 48 48" fill="none" xmlns="http://www.w3.org/2000/svg">
<path d="M6 6C6 4.89543 6.89543 4 8 4H26C27.1046 4 28 4.89543 28 6V10H14V34H8C6.89543 34 6 33.1046 6 32V6Z" fill="#324558"/>
<path fill-rule="evenodd" clip-rule="evenodd" d="M17 13H40C41.1046 13 42 13.8954 42 15V42C42 43.1046 41.1046 44 40 44H19C17.8954 44 17 43.1046 17 42V13ZM38.3997 25.4287L27.8126 35.7997L21.6006 29.7144L24.3997 26.857L27.8126 30.2003L35.6006 22.5713L38.3997 25.4287Z" fill="#324558"/>
</svg>
