<svg width="48" height="48" viewBox="0 0 48 48" fill="none" xmlns="http://www.w3.org/2000/svg">
<path fill-rule="evenodd" clip-rule="evenodd" d="M9.44723 9.10557C9.78601 8.428 10.4785 8 11.2361 8H42C43.1046 8 44 8.89543 44 10V38C44 39.1046 43.1046 40 42 40H11.2361C10.4785 40 9.78601 39.572 9.44723 38.8944L2.44723 24.8944C2.1657 24.3314 2.1657 23.6686 2.44723 23.1056L9.44723 9.10557ZM25 21.1715L30.5858 15.5857L33.4142 18.4141L27.8285 23.9999L33.4142 29.5857L30.5858 32.4141L25 26.8283L19.4142 32.4141L16.5858 29.5857L22.1716 23.9999L16.5858 18.4141L19.4142 15.5857L25 21.1715Z" fill="#324558"/>
</svg>
