<svg width="48" height="48" viewBox="0 0 48 48" fill="none" xmlns="http://www.w3.org/2000/svg">
<path d="M20 8C20 10.2091 18.2091 12 16 12C13.7909 12 12 10.2091 12 8C12 5.79086 13.7909 4 16 4C18.2091 4 20 5.79086 20 8Z" fill="#324558"/>
<path d="M20 24C20 26.2091 18.2091 28 16 28C13.7909 28 12 26.2091 12 24C12 21.7909 13.7909 20 16 20C18.2091 20 20 21.7909 20 24Z" fill="#324558"/>
<path d="M20 40C20 42.2091 18.2091 44 16 44C13.7909 44 12 42.2091 12 40C12 37.7909 13.7909 36 16 36C18.2091 36 20 37.7909 20 40Z" fill="#324558"/>
<path d="M36 8C36 10.2091 34.2091 12 32 12C29.7909 12 28 10.2091 28 8C28 5.79086 29.7909 4 32 4C34.2091 4 36 5.79086 36 8Z" fill="#324558"/>
<path d="M36 24C36 26.2091 34.2091 28 32 28C29.7909 28 28 26.2091 28 24C28 21.7909 29.7909 20 32 20C34.2091 20 36 21.7909 36 24Z" fill="#324558"/>
<path d="M36 40C36 42.2091 34.2091 44 32 44C29.7909 44 28 42.2091 28 40C28 37.7909 29.7909 36 32 36C34.2091 36 36 37.7909 36 40Z" fill="#324558"/>
</svg>
