<svg width="48" height="48" viewBox="0 0 48 48" fill="none" xmlns="http://www.w3.org/2000/svg">
<path d="M30 6C27.7909 6 26 7.79086 26 10C26 12.2091 27.7909 14 30 14C31.4806 14 32.7733 13.1956 33.4649 12H42V8H33.4649C32.7733 6.8044 31.4806 6 30 6Z" fill="#324558"/>
<path d="M6 8H23V12H6V8Z" fill="#324558"/>
<path d="M18 28C16.5194 28 15.2267 27.1956 14.5351 26H6V22H14.5351C15.2267 20.8044 16.5194 20 18 20C20.2091 20 22 21.7909 22 24C22 26.2091 20.2091 28 18 28Z" fill="#324558"/>
<path d="M25 26H42V22H25V26Z" fill="#324558"/>
<path d="M6 36H23V40H6V36Z" fill="#324558"/>
<path d="M33.4649 36C32.7733 34.8044 31.4806 34 30 34C27.7909 34 26 35.7909 26 38C26 40.2091 27.7909 42 30 42C31.4806 42 32.7733 41.1956 33.4649 40H42V36H33.4649Z" fill="#324558"/>
</svg>
