<svg width="48" height="48" viewBox="0 0 48 48" fill="none" xmlns="http://www.w3.org/2000/svg">
<path fill-rule="evenodd" clip-rule="evenodd" d="M24.7433 2.82591C24.3461 2.38453 23.654 2.38453 23.2567 2.82591L16.5021 10.3311C15.9229 10.9746 16.3796 12 17.2454 12H22V18H8C6.89543 18 6 18.8954 6 20V42C6 43.1046 6.89543 44 8 44H40C41.1046 44 42 43.1046 42 42V20C42 18.8954 41.1046 18 40 18H26V12H30.7546C31.6204 12 32.0771 10.9746 31.4979 10.3311L24.7433 2.82591ZM26 18V28H22V18H26Z" fill="#324558"/>
</svg>
