<svg width="48" height="48" viewBox="0 0 48 48" fill="none" xmlns="http://www.w3.org/2000/svg">
<path d="M14.8284 0.121338L12 2.94976L15.0502 6H7C6.44772 6 6 6.44772 6 7V9.17157C6 9.70201 6.21071 10.2107 6.58579 10.5858L20 24V44.382C20 45.1253 20.7823 45.6088 21.4472 45.2764L26.8944 42.5528C27.572 42.214 28 41.5215 28 40.7639V24L30.5251 21.4749L37.4558 28.4056L40.2843 25.5772L14.8284 0.121338Z" fill="#324558"/>
<path d="M24.9497 6L35.4749 16.5251L41.4142 10.5858C41.7893 10.2107 42 9.70201 42 9.17157V7C42 6.44772 41.5523 6 41 6H24.9497Z" fill="#324558"/>
</svg>
