<svg width="48" height="48" viewBox="0 0 48 48" fill="none" xmlns="http://www.w3.org/2000/svg">
<path d="M18.1217 6.12134L16.0005 8.24255L18.7578 10.9999H14C13.4477 10.9999 13 11.4476 13 11.9999V13.6052C13 13.8588 13.0964 14.1029 13.2696 14.2882L21 22.5555V37.5127C21 38.2229 21.7196 38.7067 22.3773 38.4388L26.3773 36.8091C26.7538 36.6557 27 36.2896 27 35.8831V22.5555L28.6011 20.8432L32.9711 25.2131L35.0924 23.0918L18.1217 6.12134Z" fill="#324558"/>
<path d="M32.7013 16.4583L34.7304 14.2882C34.9036 14.1029 35 13.8588 35 13.6052V11.9999C35 11.4476 34.5523 10.9999 34 10.9999H27.2429L32.7013 16.4583Z" fill="#324558"/>
</svg>
