<svg width="48" height="48" viewBox="0 0 48 48" fill="none" xmlns="http://www.w3.org/2000/svg">
<path fill-rule="evenodd" clip-rule="evenodd" d="M30.5627 32.0181C27.7448 34.4968 24.0479 36 20 36C11.1634 36 4 28.8366 4 20C4 11.1634 11.1634 4 20 4C28.8366 4 36 11.1634 36 20C36 24.0479 34.4968 27.7448 32.0181 30.5627L33.4163 30.9526C33.7478 31.045 34.0499 31.2215 34.2933 31.4649L43.9983 41.1699L41.1699 43.9983L31.4649 34.2933C31.2215 34.0499 31.045 33.7478 30.9526 33.4163L30.5627 32.0181ZM32 20C32 26.6274 26.6274 32 20 32C13.3726 32 8 26.6274 8 20C8 13.3726 13.3726 8 20 8C26.6274 8 32 13.3726 32 20Z" fill="#324558"/>
</svg>
