<svg width="48" height="48" viewBox="0 0 48 48" fill="none" xmlns="http://www.w3.org/2000/svg">
<path d="M12 24C12 26.2091 10.2091 28 8 28C5.79086 28 4 26.2091 4 24C4 21.7909 5.79086 20 8 20C10.2091 20 12 21.7909 12 24Z" fill="#324558"/>
<path d="M28 24C28 26.2091 26.2091 28 24 28C21.7909 28 20 26.2091 20 24C20 21.7909 21.7909 20 24 20C26.2091 20 28 21.7909 28 24Z" fill="#324558"/>
<path d="M44 24C44 26.2091 42.2091 28 40 28C37.7909 28 36 26.2091 36 24C36 21.7909 37.7909 20 40 20C42.2091 20 44 21.7909 44 24Z" fill="#324558"/>
</svg>
