<svg width="48" height="48" viewBox="0 0 48 48" fill="none" xmlns="http://www.w3.org/2000/svg">
<path d="M24 8C15.1634 8 8 15.1634 8 24C8 32.8366 15.1634 40 24 40C30.867 40 36.7278 35.6725 38.996 29.5925L43.0809 30.0094C40.5296 38.1171 32.9543 44 24 44C12.9543 44 4 35.0457 4 24C4 12.9543 12.9543 4 24 4C29.1625 4 33.8698 5.95795 37.4164 9.16753L40.1087 6.4753C40.7023 5.88168 41.719 6.23955 41.8099 7.07412L42.8653 16.7628C42.9345 17.3981 42.3982 17.9344 41.7629 17.8652L32.0742 16.8099C31.2396 16.719 30.8817 15.7023 31.4753 15.1086L34.5837 12.0003C31.7618 9.50889 28.0581 8 24 8Z" fill="#324558"/>
</svg>
