<svg width="48" height="48" viewBox="0 0 48 48" fill="none" xmlns="http://www.w3.org/2000/svg">
<path d="M24 8C20.6809 8 17.5978 9.01064 15.0418 10.741L12.9811 7.30653C16.1407 5.21677 19.9283 4 24 4C35.0457 4 44 12.9543 44 24C44 28.767 42.3323 33.1444 39.5484 36.5807C39.5484 36.5807 39.5484 36.5807 39.5484 36.5807L32.9087 25.5145C32.5088 24.848 32.9889 24 33.7662 24H40C40 15.1634 32.8366 8 24 8Z" fill="#324558"/>
<path d="M4 24C4 19.233 5.66776 14.8556 8.45162 11.4193L10.6798 15.1329C10.6798 15.1329 10.6798 15.1328 10.6798 15.1329L15.0913 22.4856C15.4912 23.1521 15.0111 24.0001 14.2338 24.0001H8C8.00006 32.8366 15.1635 40 24 40C27.3191 40 30.4022 38.9894 32.9582 37.259L35.0189 40.6935C31.8593 42.7832 28.0717 44 24 44C12.9543 44 4.00006 35.0456 4 24C4 24 4 24 4 24Z" fill="#324558"/>
</svg>
