<svg width="48" height="48" viewBox="0 0 48 48" fill="none" xmlns="http://www.w3.org/2000/svg">
<path d="M36 20C40.4183 20 44 16.4183 44 12C44 7.58172 40.4183 4 36 4C31.5817 4 28 7.58172 28 12C28 12.5749 28.0606 13.1355 28.1758 13.676L18.0339 18.747C16.5673 17.0638 14.4079 16 12 16C7.58172 16 4 19.5817 4 24C4 28.4183 7.58172 32 12 32C14.4078 32 16.5672 30.9362 18.0339 29.253L28.1758 34.324C28.0606 34.8645 28 35.4252 28 36C28 40.4183 31.5817 44 36 44C40.4183 44 44 40.4183 44 36C44 31.5817 40.4183 28 36 28C33.5921 28 31.4327 29.0638 29.9661 30.747L19.8241 25.6761C19.9394 25.1356 20 24.5749 20 24C20 23.4252 19.9394 22.8645 19.8242 22.324L29.9661 17.253C31.4327 18.9362 33.5921 20 36 20Z" fill="#324558"/>
</svg>
