<svg width="48" height="48" viewBox="0 0 48 48" fill="none" xmlns="http://www.w3.org/2000/svg">
<path fill-rule="evenodd" clip-rule="evenodd" d="M24 44C35.0457 44 44 35.0457 44 24C44 12.9543 35.0457 4 24 4C12.9543 4 4 12.9543 4 24C4 35.0457 12.9543 44 24 44ZM26 24V10H22V24H26ZM12 24C12 19.157 14.8689 14.9841 19 13.0881V17.7546C17.1711 19.2208 16 21.4736 16 24C16 28.4183 19.5817 32 24 32C28.4183 32 32 28.4183 32 24C32 21.4736 30.8289 19.2208 29 17.7546V13.0881C33.1311 14.9841 36 19.157 36 24C36 30.6274 30.6274 36 24 36C17.3726 36 12 30.6274 12 24Z" fill="#324558"/>
</svg>
