<svg width="48" height="48" viewBox="0 0 48 48" fill="none" xmlns="http://www.w3.org/2000/svg">
<path d="M18 13H22V18H27V22H22V27H18V22H13V18H18V13Z" fill="#324558"/>
<path fill-rule="evenodd" clip-rule="evenodd" d="M20 36C24.0479 36 27.7448 34.4968 30.5627 32.0181L30.9526 33.4163C31.045 33.7478 31.2215 34.0499 31.4649 34.2933L41.1699 43.9983L43.9983 41.1699L34.2933 31.4649C34.0499 31.2215 33.7478 31.045 33.4163 30.9526L32.0181 30.5627C34.4968 27.7448 36 24.0479 36 20C36 11.1634 28.8366 4 20 4C11.1634 4 4 11.1634 4 20C4 28.8366 11.1634 36 20 36ZM20 32C26.6274 32 32 26.6274 32 20C32 13.3726 26.6274 8 20 8C13.3726 8 8 13.3726 8 20C8 26.6274 13.3726 32 20 32Z" fill="#324558"/>
</svg>
