<svg width="48" height="48" viewBox="0 0 48 48" fill="none" xmlns="http://www.w3.org/2000/svg">
<path d="M10.8183 40C14.6944 40 20.2371 34.0429 24.0001 29.3539C27.7631 34.0429 33.3058 40 37.1819 40C40.7873 40 43.9807 37.3916 45.9465 33.3811C44.5592 35.0201 42.8002 36 40.8865 36C36.4054 36 28.9547 25.3846 28.0001 24C28.9547 22.6154 36.4054 12 40.8865 12C42.8002 12 44.5592 12.9799 45.9465 14.6189C43.9807 10.6084 40.7873 8 37.1819 8C33.3058 8 27.7631 13.9571 24.0001 18.6461C20.2371 13.9571 14.6944 8 10.8183 8C7.21295 8 4.01953 10.6084 2.05372 14.6189C3.44107 12.9799 5.20004 12 7.11375 12C11.5948 12 19.0456 22.6154 20.0001 24C19.0456 25.3846 11.5948 36 7.11375 36C5.20004 36 3.44107 35.0201 2.05371 33.3811C4.01952 37.3916 7.21294 40 10.8183 40Z" fill="#B6C2CD"/>
<path d="M47.0001 23.8684C47.0001 28.313 44.787 32.0052 41.8776 32.7367C43.5045 30.5421 44.5252 27.3815 44.5252 23.8684C44.5252 20.3552 43.5045 17.1946 41.8776 15C44.787 15.7315 47.0001 19.4237 47.0001 23.8684Z" fill="#324558"/>
<path d="M3.46997 23.9999C3.46997 20.4875 4.49029 17.3276 6.11648 15.1331C3.21003 15.8681 1 19.5582 1 23.9999C1 28.4416 3.21003 32.1317 6.11648 32.8668C4.49029 30.6722 3.46997 27.5123 3.46997 23.9999Z" fill="#324558"/>
<path fill-rule="evenodd" clip-rule="evenodd" d="M12.4052 27.0938H9.11716L8.54294 28.9531H5.97946L9.62985 19H11.8857L15.5634 28.9531H12.9863L12.4052 27.0938ZM9.69138 25.2412H11.831L10.7578 21.7891L9.69138 25.2412Z" fill="#324558"/>
<path fill-rule="evenodd" clip-rule="evenodd" d="M34.7519 19V28.9531H38.792C40.0042 28.944 40.9179 28.6956 41.5332 28.208C42.153 27.7158 42.4629 26.9821 42.4629 26.0068C42.4629 25.4691 42.3239 25.0133 42.0459 24.6396C41.7679 24.266 41.3691 24.0107 40.8496 23.874C41.3099 23.7008 41.6585 23.432 41.8955 23.0674C42.1325 22.7028 42.2509 22.263 42.2509 21.748C42.2509 20.8548 41.916 20.1735 41.2461 19.7041C40.5807 19.2347 39.6077 19 38.3271 19H34.7519ZM37.1513 27.1074V24.7217H38.833C39.6578 24.7262 40.0703 25.1432 40.0703 25.9727C40.0703 26.3327 39.9541 26.613 39.7216 26.8135C39.4892 27.0094 39.1565 27.1074 38.7236 27.1074H37.1513ZM38.4023 23.1494H37.1513V20.8525H38.3271C38.8649 20.8525 39.2545 20.946 39.4961 21.1328C39.7376 21.3151 39.8584 21.6159 39.8584 22.0352C39.8584 22.3997 39.7467 22.6755 39.5234 22.8623C39.3001 23.0492 38.9264 23.1449 38.4023 23.1494Z" fill="#324558"/>
</svg>
