<svg width="48" height="48" viewBox="0 0 48 48" fill="none" xmlns="http://www.w3.org/2000/svg">
<path fill-rule="evenodd" clip-rule="evenodd" d="M5 19.8C5 10.5222 12.5825 3 21.9346 3C30.6561 3 37.8327 9.54323 38.7617 17.9502L43.3551 25.0967C43.6915 25.62 43.4736 26.3201 42.8997 26.56L38.8692 28.2451V34.7C38.8692 36.9091 37.0783 38.7 34.8692 38.7H30.4019V43.8948C30.4019 44.4865 29.8909 44.9488 29.3022 44.8898L18.5 43.8073V23.9898L14.7735 19.1455C14.9195 18.7925 15 18.4057 15 18C15 16.3431 13.6568 15 12 15C10.3431 15 8.99999 16.3431 8.99999 18C8.99999 19.6569 10.3431 21 12 21C12.134 21 12.266 20.9912 12.3953 20.9742L15.5 25.0102V43.5067L13.1511 43.2713C12.1288 43.1689 11.3505 42.3087 11.3505 41.2813V39.2045C11.3505 34.2026 9.79392 31.9729 8.22207 29.7213C6.61899 27.425 5 25.1059 5 19.8ZM10.3788 11.5002L8.47815 9.59953C9.09055 8.80568 9.77271 8.0676 10.5155 7.39429L11.6214 8.50017H17.7292L22.074 14.03C22.2132 14.0102 22.3554 14 22.5 14C24.1568 14 25.5 15.3431 25.5 17C25.5 18.6569 24.1568 20 22.5 20C20.8431 20 19.5 18.6569 19.5 17C19.5 16.6053 19.5762 16.2283 19.7148 15.8831L16.2711 11.5002H10.3788Z" fill="#B6C2CD"/>
<path d="M8.47803 9.59954L10.3787 11.5002H16.2709L19.7147 15.8831C19.5761 16.2283 19.4999 16.6053 19.4999 17C19.4999 18.6569 20.843 20 22.4999 20C24.1567 20 25.4999 18.6569 25.4999 17C25.4999 15.3431 24.1567 14 22.4999 14C22.3553 14 22.2131 14.0102 22.0739 14.03L17.729 8.50017H11.6213L10.5154 7.39429C9.77259 8.0676 9.09043 8.80568 8.47803 9.59954Z" fill="#324558"/>
<path d="M14.7734 19.1455C14.9194 18.7925 14.9999 18.4057 14.9999 18C14.9999 16.3431 13.6567 15 11.9999 15C10.343 15 8.99987 16.3431 8.99987 18C8.99987 19.6569 10.343 21 11.9999 21C12.1339 21 12.2659 20.9912 12.3952 20.9742L15.4998 25.0102V43.5067L18.4998 43.8073V23.9898L14.7734 19.1455Z" fill="#324558"/>
</svg>
