<svg width="48" height="48" viewBox="0 0 48 48" fill="none" xmlns="http://www.w3.org/2000/svg">
<path d="M32.55 9.75H11.65C10.6007 9.75 9.75 10.6007 9.75 11.65V32.5499L15.4501 38.25H36.35C37.3993 38.25 38.25 37.3993 38.25 36.35V15.45L32.55 9.75Z" fill="#B6C2CD"/>
<path d="M30.0935 5H41.1C42.1494 5 43 5.85066 43 6.9V17.9065C43 18.7529 41.9767 19.1767 41.3783 18.5782L29.4218 6.62175C28.8233 6.02328 29.2472 5 30.0935 5Z" fill="#324558"/>
<path d="M17.9065 42.9999H6.9C5.85066 42.9999 5 42.1492 5 41.0999V30.0934C5 29.247 6.02329 28.8232 6.62175 29.4217L18.5783 41.3782C19.1767 41.9766 18.7529 42.9999 17.9065 42.9999Z" fill="#324558"/>
</svg>
