<svg width="48" height="48" viewBox="0 0 48 48" fill="none" xmlns="http://www.w3.org/2000/svg">
<path d="M10 4C8.89543 4 8 4.89543 8 6V15H40V6C40 4.89543 39.1046 4 38 4H10Z" fill="#B6C2CD"/>
<path d="M8 33H25.0379C25.0128 33.33 25 33.6635 25 34C25 38.0209 26.8255 41.6154 29.6929 44H10C8.89543 44 8 43.1046 8 42V33Z" fill="#B6C2CD"/>
<path d="M8 18H40V21.1529C39.3481 21.0522 38.6801 21 38 21C32.2159 21 27.3141 24.7775 25.627 30H8V18Z" fill="#324558"/>
<path d="M48 28C48 30.2091 46.2091 32 44 32C42.9856 32 42.0593 31.6224 41.3542 31L35.9876 33.6833C35.9958 33.7878 36 33.8934 36 34C36 34.1066 35.9958 34.2122 35.9876 34.3167L41.3542 37C42.0593 36.3776 42.9856 36 44 36C46.2091 36 48 37.7909 48 40C48 42.2091 46.2091 44 44 44C41.7909 44 40 42.2091 40 40C40 39.8934 40.0042 39.7877 40.0124 39.6832L34.6459 36.9999C33.9407 37.6223 33.0145 38 32 38C29.7909 38 28 36.2091 28 34C28 31.7909 29.7909 30 32 30C33.0145 30 33.9407 30.3777 34.6459 31.0001L40.0124 28.3168C40.0042 28.2123 40 28.1066 40 28C40 25.7909 41.7909 24 44 24C46.2091 24 48 25.7909 48 28Z" fill="#324558"/>
</svg>
