<svg width="48" height="48" viewBox="0 0 48 48" fill="none" xmlns="http://www.w3.org/2000/svg">
<path d="M8 6C8 4.89543 8.89543 4 10 4H38C39.1046 4 40 4.89543 40 6V15H8V6Z" fill="#B6C2CD"/>
<path d="M25.0379 33H8V42C8 43.1046 8.89543 44 10 44H29.6929C26.8255 41.6154 25 38.0209 25 34C25 33.6635 25.0128 33.33 25.0379 33Z" fill="#B6C2CD"/>
<path d="M8 18H40V21.1529C39.3481 21.0522 38.6801 21 38 21C32.2159 21 27.3141 24.7775 25.627 30H8V18Z" fill="#324558"/>
<path d="M34.0363 28.2295C35.1632 27.454 36.5286 27 38 27C41.866 27 45 30.134 45 34H42L45.7742 40.2903C47.1661 38.5722 48 36.3835 48 34C48 28.4772 43.5228 24 38 24C35.9641 24 34.0703 24.6084 32.4905 25.6533L34.0363 28.2295Z" fill="#324558"/>
<path d="M30.2258 27.7097C28.8339 29.4278 28 31.6165 28 34C28 39.5228 32.4772 44 38 44C40.0359 44 41.9297 43.3916 43.5095 42.3467L41.9637 39.7704C40.8368 40.546 39.4714 41 38 41C34.134 41 31 37.866 31 34.0001H34L30.2258 27.7097Z" fill="#324558"/>
</svg>
