<svg width="48" height="48" viewBox="0 0 48 48" fill="none" xmlns="http://www.w3.org/2000/svg">
<path d="M22.5 4.05542C12.1549 4.82247 4 13.4589 4 24C4 35.0457 12.9543 44 24 44C28.9829 44 33.5402 42.1778 37.0418 39.1633L32.7821 34.9036C30.3804 36.8405 27.3256 38 24 38C16.268 38 10 31.732 10 24C10 16.7748 15.4734 10.8279 22.5 10.0794V4.05542Z" fill="#B6C2CD"/>
<path d="M43.9446 25.5C43.6187 29.8951 41.8724 33.8949 39.1632 37.042L34.9035 32.7823C36.5453 30.7465 37.6286 28.2415 37.9206 25.5H43.9446Z" fill="#B6C2CD"/>
<path d="M43.9446 22.5C43.2143 12.6501 35.3499 4.78575 25.5 4.05542V10.0794C32.0338 10.7754 37.2246 15.9662 37.9206 22.5H43.9446Z" fill="#B6C2CD"/>
<path fill-rule="evenodd" clip-rule="evenodd" d="M14 24C14 24 16.7273 16 24 16C31.2727 16 34 24 34 24C34 24 31.2727 32 24 32C16.7273 32 14 24 14 24ZM24 27C25.6569 27 27 25.6569 27 24C27 22.3431 25.6569 21 24 21C22.3431 21 21 22.3431 21 24C21 25.6569 22.3431 27 24 27Z" fill="#324558"/>
</svg>
