<svg width="48" height="48" viewBox="0 0 48 48" fill="none" xmlns="http://www.w3.org/2000/svg">
<path fill-rule="evenodd" clip-rule="evenodd" d="M2 31C2 37.0751 6.92487 42 13 42H36C41.5228 42 46 37.5228 46 32C46 27.5224 43.0571 23.7321 39 22.4578V20C39 12.268 32.732 6 25 6C17.268 6 11 12.268 11 20C11 20.0605 11.0004 20.1209 11.0011 20.1812C5.88034 21.1212 2 25.6075 2 31ZM20 16H23V36H20V16ZM14 26H17V36H14V26ZM26 22H29V36H26V22ZM32 28H35V36H32V28Z" fill="#B6C2CD"/>
<path d="M23 16H20V36H23V16Z" fill="#324558"/>
<path d="M17 26H14V36H17V26Z" fill="#324558"/>
<path d="M26 22H29V36H26V22Z" fill="#324558"/>
<path d="M35 28H32V36H35V28Z" fill="#324558"/>
</svg>
