<svg width="48" height="48" viewBox="0 0 48 48" fill="none" xmlns="http://www.w3.org/2000/svg">
<path fill-rule="evenodd" clip-rule="evenodd" d="M24.9328 3.49151C24.3491 3.18382 23.6512 3.18382 23.0675 3.49151L5.1489 12.9372C4.49243 13.2833 4.08154 13.9644 4.08154 14.7064V25.6767L24.0001 36.2999L43.9187 25.6766V14.7065C43.9187 13.9644 43.5078 13.2833 42.8514 12.9372L24.9328 3.49151ZM24 19.9999L31 16.4999L24 12.9999L17 16.4999L24 19.9999ZM26 8.99988C26 10.1044 25.1046 10.9999 24 10.9999C22.8954 10.9999 22 10.1044 22 8.99988C22 7.89531 22.8954 6.99988 24 6.99988C25.1046 6.99988 26 7.89531 26 8.99988ZM26 23.9999C26 25.1044 25.1046 25.9999 24 25.9999C22.8954 25.9999 22 25.1044 22 23.9999C22 22.8953 22.8954 21.9999 24 21.9999C25.1046 21.9999 26 22.8953 26 23.9999ZM12 15.9999C12 17.1044 11.1046 17.9999 10 17.9999C8.89543 17.9999 8 17.1044 8 15.9999C8 14.8953 8.89543 13.9999 10 13.9999C11.1046 13.9999 12 14.8953 12 15.9999ZM40 15.9999C40 17.1044 39.1046 17.9999 38 17.9999C36.8954 17.9999 36 17.1044 36 15.9999C36 14.8953 36.8954 13.9999 38 13.9999C39.1046 13.9999 40 14.8953 40 15.9999Z" fill="#B6C2CD"/>
<path d="M26 9C26 10.1046 25.1046 11 24 11C22.8954 11 22 10.1046 22 9C22 7.89543 22.8954 7 24 7C25.1046 7 26 7.89543 26 9Z" fill="#324558"/>
<path d="M26 24C26 25.1046 25.1046 26 24 26C22.8954 26 22 25.1046 22 24C22 22.8954 22.8954 22 24 22C25.1046 22 26 22.8954 26 24Z" fill="#324558"/>
<path d="M12 16C12 17.1046 11.1046 18 10 18C8.89543 18 8 17.1046 8 16C8 14.8954 8.89543 14 10 14C11.1046 14 12 14.8954 12 16Z" fill="#324558"/>
<path d="M40 16C40 17.1046 39.1046 18 38 18C36.8954 18 36 17.1046 36 16C36 14.8954 36.8954 14 38 14C39.1046 14 40 14.8954 40 16Z" fill="#324558"/>
<path d="M24.0001 39.7L43.9187 29.0767V33.2934C43.9187 34.0355 43.5078 34.7166 42.8514 35.0627L24.9328 44.5084C24.3491 44.8161 23.6512 44.8161 23.0675 44.5084L5.1489 35.0627C4.49243 34.7166 4.08154 34.0355 4.08154 33.2934V29.0769L24.0001 39.7Z" fill="#324558"/>
</svg>
