<svg width="48" height="48" viewBox="0 0 48 48" fill="none" xmlns="http://www.w3.org/2000/svg">
<path fill-rule="evenodd" clip-rule="evenodd" d="M6 11C6 11.9236 6.35214 12.8106 7 13.636V34.364C6.35214 35.1894 6 36.0764 6 37C6 41.4183 14.0589 45 24 45C33.9411 45 42 41.4183 42 37C42 36.0764 41.6479 35.1894 41 34.364V13.636C41.6479 12.8106 42 11.9236 42 11C42 6.58172 33.9411 3 24 3C14.0589 3 6 6.58172 6 11ZM38.4123 12.0458C38.9539 11.4766 39 11.1284 39 11C39 10.8716 38.9539 10.5234 38.4123 9.95419C37.8559 9.36957 36.909 8.7066 35.5095 8.08458C32.718 6.84391 28.6513 6 24 6C19.3487 6 15.282 6.84391 12.4905 8.08458C11.0909 8.7066 10.1441 9.36957 9.58771 9.95419C9.04606 10.5234 9 10.8716 9 11C9 11.1284 9.04606 11.4766 9.58771 12.0458C10.1441 12.6304 11.0909 13.2934 12.4905 13.9154C15.282 15.1561 19.3487 16 24 16C28.6513 16 32.718 15.1561 35.5095 13.9154C36.909 13.2934 37.8559 12.6304 38.4123 12.0458ZM17 24.1684C14.6679 23.6534 12.6229 22.9201 11 22.0287V18.0287C12.6229 18.9201 14.6679 19.6533 17 20.1684V24.1684ZM17 32.1397C14.6679 31.6246 12.6229 30.8913 11 30V26C12.6229 26.8913 14.6679 27.6246 17 28.1397V32.1397ZM17 40.1109C14.6679 39.5959 12.6229 38.8626 11 37.9713V33.9713C12.6229 34.8626 14.6679 35.5959 17 36.1109V40.1109Z" fill="#B6C2CD"/>
<path d="M24 13.5C29.5228 13.5 34 12.3807 34 11C34 9.61929 29.5228 8.5 24 8.5C18.4772 8.5 14 9.61929 14 11C14 12.3807 18.4772 13.5 24 13.5Z" fill="#324558"/>
<path d="M11 22.0287C12.6229 22.9201 14.6679 23.6534 17 24.1684V20.1684C14.6679 19.6533 12.6229 18.9201 11 18.0287V22.0287Z" fill="#324558"/>
<path d="M17 32.1397C14.6679 31.6246 12.6229 30.8913 11 30V26C12.6229 26.8913 14.6679 27.6246 17 28.1397V32.1397Z" fill="#324558"/>
<path d="M11 37.9713C12.6229 38.8626 14.6679 39.5959 17 40.1109V36.1109C14.6679 35.5959 12.6229 34.8626 11 33.9713V37.9713Z" fill="#324558"/>
</svg>
