<svg width="48" height="48" viewBox="0 0 48 48" fill="none" xmlns="http://www.w3.org/2000/svg">
<path d="M32 13C32 17.9706 27.9706 22 23 22C18.0294 22 14 17.9706 14 13C14 8.02944 18.0294 4 23 4C27.9706 4 32 8.02944 32 13Z" fill="#B6C2CD"/>
<path d="M44 33C44 36.3137 41.3137 39 38 39C34.6863 39 32 36.3137 32 33C32 29.6863 34.6863 27 38 27C41.3137 27 44 29.6863 44 33Z" fill="#B6C2CD"/>
<path d="M11 44C14.866 44 18 40.866 18 37C18 33.134 14.866 30 11 30C7.13401 30 4 33.134 4 37C4 40.866 7.13401 44 11 44Z" fill="#B6C2CD"/>
<path d="M27.1725 20.9763L33.1225 29.5046C33.9117 28.4054 35.0632 27.5839 36.4024 27.215L30.2273 18.364C29.4214 19.4481 28.3773 20.3447 27.1725 20.9763Z" fill="#324558"/>
<path d="M32.6958 35.8075C32.2515 34.9698 31.9998 34.0143 31.9998 33C31.9998 32.6069 32.0376 32.2227 32.1097 31.8507L17.3442 34.0382C17.7648 34.9377 17.9998 35.9414 17.9998 37C17.9998 37.3378 17.9759 37.6701 17.9296 37.9951L32.6958 35.8075Z" fill="#324558"/>
<path d="M12.0469 30.0778C13.4259 30.2846 14.6733 30.8937 15.6658 31.7818L20.4424 21.6314C19.127 21.2423 17.9373 20.5607 16.9484 19.662L12.0469 30.0778Z" fill="#324558"/>
</svg>
