<svg width="48" height="48" viewBox="0 0 48 48" fill="none" xmlns="http://www.w3.org/2000/svg">
<path d="M4 8C4 6.89543 4.89543 6 6 6H20.5V15H4V8Z" fill="#B6C2CD"/>
<path d="M23.5 15V6H38C39.1046 6 40 6.89543 40 8V15H23.5Z" fill="#B6C2CD"/>
<path d="M19.8187 33H4V40C4 41.1046 4.89543 42 6 42H20V40.5536C19.3632 39.3816 19 38.0384 19 36.6C19 35.3042 19.2947 34.0857 19.8187 33Z" fill="#B6C2CD"/>
<path d="M4 18H32V21.4116C28.5396 22.4094 25.7936 25.1339 24.8717 28.62C23.918 28.929 23.0346 29.3992 22.2579 30H4V18Z" fill="#324558"/>
<path d="M22 36.6C22 39.5823 24.4797 42 27.5385 42H41.3846C43.9336 42 46 39.9853 46 37.5C46 35.2391 44.29 33.3677 42.0621 33.0481C42.2223 32.4584 42.3077 31.8389 42.3077 31.2C42.3077 27.2235 39.0015 24 34.9231 24C30.8447 24 27.5385 27.2235 27.5385 31.2C24.4797 31.2 22 33.6177 22 36.6Z" fill="#324558"/>
</svg>
