<svg width="48" height="48" viewBox="0 0 48 48" fill="none" xmlns="http://www.w3.org/2000/svg">
<path fill-rule="evenodd" clip-rule="evenodd" d="M6 12C4.89543 12 4 12.8954 4 14V42C4 43.1046 4.89543 44 6 44H34C35.1046 44 36 43.1046 36 42V14C36 12.8954 35.1046 12 34 12H6ZM17.8437 35.8087L30.4041 23.4242L27.5957 20.5759L17.8437 30.1913L13.4041 25.814L10.5957 28.6623L17.8437 35.8087Z" fill="#B6C2CD"/>
<path d="M20 8V12H16V6C16 4.89543 16.8954 4 18 4H42C43.1046 4 44 4.89543 44 6V30C44 31.1046 43.1046 32 42 32H36V28H40V8H20Z" fill="#324558"/>
<path d="M17.8437 35.8087L30.4041 23.4242L27.5957 20.5759L17.8437 30.1913L13.4041 25.814L10.5957 28.6623L17.8437 35.8087Z" fill="#324558"/>
</svg>
