<svg width="48" height="48" viewBox="0 0 48 48" fill="none" xmlns="http://www.w3.org/2000/svg">
<path fill-rule="evenodd" clip-rule="evenodd" d="M8 6C6.89543 6 6 6.89543 6 8V40C6 41.1046 6.89543 42 8 42H40C41.1046 42 42 41.1046 42 40V8C42 6.89543 41.1046 6 40 6H8ZM14 28H10V10H18V14H14V28ZM34 34V20H38V38H20V34H34ZM14 34H10V38H14V34ZM32 10H36V14H32V10ZM26 10H30V14H26V10ZM20 10H24V14H20V10Z" fill="#B6C2CD"/>
<path d="M10 28H14V14H18V10H10V28Z" fill="#324558"/>
<path d="M38 20H34V34H20V38H38V20Z" fill="#324558"/>
<path d="M14 34H10V38H14V34Z" fill="#324558"/>
<path d="M36 10H32V14H36V10Z" fill="#324558"/>
<path d="M26 10H30V14H26V10Z" fill="#324558"/>
<path d="M24 10H20V14H24V10Z" fill="#324558"/>
</svg>
