<svg width="48" height="48" viewBox="0 0 48 48" fill="none" xmlns="http://www.w3.org/2000/svg">
<path fill-rule="evenodd" clip-rule="evenodd" d="M8 6C6.89543 6 6 6.89543 6 8V40C6 41.1046 6.89543 42 8 42H40C41.1046 42 42 41.1046 42 40V8C42 6.89543 41.1046 6 40 6H8ZM11 14H14V26H11V14ZM11 29H14V34H11V29ZM17 14H20V34H17V14ZM23 14H26V34H23V14ZM29 14H32V34H29V14ZM35 21H38V27H35V21Z" fill="#B6C2CD"/>
<path d="M14 14H11V26H14V14Z" fill="#324558"/>
<path d="M14 29H11V34H14V29Z" fill="#324558"/>
<path d="M17 14H20V34H17V14Z" fill="#324558"/>
<path d="M26 14H23V34H26V14Z" fill="#324558"/>
<path d="M29 14H32V34H29V14Z" fill="#324558"/>
<path d="M38 21H35V27H38V21Z" fill="#324558"/>
</svg>
