<svg width="48" height="48" viewBox="0 0 48 48" fill="none" xmlns="http://www.w3.org/2000/svg">
<path d="M28.0668 40.3868C26.1534 38.123 25 35.1962 25 32C25 24.8203 30.8203 19 38 19C38.3254 19 38.6479 19.012 38.9673 19.0354C38.4718 11.7534 32.4078 6 25 6C17.268 6 11 12.268 11 20C11 20.0605 11.0004 20.1209 11.0011 20.1812C5.88034 21.1212 2 25.6075 2 31C2 37.0751 6.92487 42 13 42H20.5C23.1958 42 25.7569 41.4234 28.0668 40.3868Z" fill="#B6C2CD"/>
<path fill-rule="evenodd" clip-rule="evenodd" d="M38 42C43.5228 42 48 37.5228 48 32C48 26.4772 43.5228 22 38 22C32.4772 22 28 26.4772 28 32C28 37.5228 32.4772 42 38 42ZM44 28L39 24V26.7951C34.1914 27.0122 32 30.8617 32 32.666C32 32.666 32.7307 30.0008 39 29.8844V32L44 28ZM32 36.666L37 32.666V34.7816C43.2693 34.6652 44 32 44 32C44 33.8043 41.8086 37.6539 37 37.8709V40.666L32 36.666Z" fill="#324558"/>
<path d="M20.5 41.9999C23.1958 41.9999 25.7569 41.4233 28.0668 40.3867C28.5605 40.9708 29.1047 41.5108 29.6929 41.9999H20.5Z" fill="#324558"/>
</svg>
