<svg width="48" height="48" viewBox="0 0 48 48" fill="none" xmlns="http://www.w3.org/2000/svg">
<path fill-rule="evenodd" clip-rule="evenodd" d="M11.9133 4C10.9428 4 10.1123 4.69671 9.94369 5.65243L6 28H42L38.0563 5.65243C37.8877 4.69671 37.0572 4 36.0867 4H11.9133ZM16 18.4C16 20.3882 17.6531 22 19.6923 22H28.9231C30.6224 22 32 20.6569 32 19C32 17.4928 30.86 16.2451 29.3748 16.0321C29.4816 15.6389 29.5385 15.2259 29.5385 14.8C29.5385 12.149 27.3343 10 24.6154 10C21.8964 10 19.6923 12.149 19.6923 14.8C17.6531 14.8 16 16.4118 16 18.4Z" fill="#B6C2CD"/>
<path d="M16 18.4C16 20.3882 17.6531 22 19.6923 22H28.9231C30.6224 22 32 20.6569 32 19C32 17.4928 30.86 16.2451 29.3748 16.0321C29.4816 15.6389 29.5385 15.2259 29.5385 14.8C29.5385 12.149 27.3343 10 24.6154 10C21.8964 10 19.6923 12.149 19.6923 14.8C17.6531 14.8 16 16.4118 16 18.4Z" fill="#324558"/>
<path fill-rule="evenodd" clip-rule="evenodd" d="M42 28H6V42C6 43.1046 6.89543 44 8 44H40C41.1046 44 42 43.1046 42 42V28ZM18 34H12V38H18V34ZM20 34H26V38H20V34Z" fill="#324558"/>
</svg>
