<svg width="48" height="48" viewBox="0 0 48 48" fill="none" xmlns="http://www.w3.org/2000/svg">
<path d="M29.9746 39.393C28.2659 37.1734 27 34.2323 27 30.5455V22.8321L38.8302 17.8132C37.7804 11.1199 31.9881 6 25 6C17.268 6 11 12.268 11 20C11 20.0605 11.0004 20.1209 11.0011 20.1812C5.88034 21.1212 2 25.6075 2 31C2 37.0751 6.92487 42 13 42H20.5C23.9628 42 27.2033 41.0486 29.9746 39.393Z" fill="#B6C2CD"/>
<path fill-rule="evenodd" clip-rule="evenodd" d="M39 21L30 24.8182V30.5455C30 38.0195 36.439 41.5094 39 42C41.561 41.5094 48 38.0195 48 30.5455V24.8182L39 21ZM45.0943 28.0259L37.4375 36.1932L32.9057 31.3593L35.0943 29.3075L37.4375 31.8069L42.9057 25.9741L45.0943 28.0259Z" fill="#324558"/>
<path d="M31.4531 41.0472C31.8037 41.3866 32.1646 41.7042 32.5312 42H20.5C23.9628 42 27.2033 41.0487 29.9745 39.3931C30.4401 39.9978 30.9385 40.549 31.4531 41.0472Z" fill="#324558"/>
</svg>
