<svg width="48" height="48" viewBox="0 0 48 48" fill="none" xmlns="http://www.w3.org/2000/svg">
<path d="M13 31C8.02944 31 4 26.9706 4 22C4 17.0294 8.02944 13 13 13H15.0448C15.5501 7.3935 20.262 3 26 3C31.738 3 36.4499 7.3935 36.9552 13H37V14.5C37 14.6877 36.9969 14.8746 36.9907 15.0607C40.9415 15.5487 44 18.9172 44 23C44 27.4183 40.4183 31 36 31H13Z" fill="#B6C2CD"/>
<path fill-rule="evenodd" clip-rule="evenodd" d="M22 37H17.584C16.8124 35.2341 15.0503 34 13 34C10.2386 34 8 36.2386 8 39C8 41.7614 10.2386 44 13 44C15.0503 44 16.8124 42.7659 17.584 41L30.416 41C31.1876 42.7659 32.9497 44 35 44C37.7614 44 40 41.7614 40 39C40 36.2386 37.7614 34 35 34C32.9497 34 31.1876 35.2341 30.416 37L26 37V31H22V37ZM13 41C14.1046 41 15 40.1046 15 39C15 37.8954 14.1046 37 13 37C11.8954 37 11 37.8954 11 39C11 40.1046 11.8954 41 13 41ZM37 39C37 40.1046 36.1046 41 35 41C33.8954 41 33 40.1046 33 39C33 37.8954 33.8954 37 35 37C36.1046 37 37 37.8954 37 39Z" fill="#324558"/>
</svg>
