<svg width="48" height="48" viewBox="0 0 48 48" fill="none" xmlns="http://www.w3.org/2000/svg">
<path d="M2 31C2 37.0751 6.92487 42 13 42H27.126C27.0438 41.6804 27 41.3453 27 41V21C27 18.7909 28.7909 17 31 17H38.6778C37.3045 10.7096 31.7022 6 25 6C17.268 6 11 12.268 11 20C11 20.0605 11.0004 20.1209 11.0011 20.1812C5.88034 21.1212 2 25.6075 2 31Z" fill="#B6C2CD"/>
<path fill-rule="evenodd" clip-rule="evenodd" d="M31 20C30.4477 20 30 20.4477 30 21V41C30 41.5523 30.4477 42 31 42H45C45.5523 42 46 41.5523 46 41V21C46 20.4477 45.5523 20 45 20H31ZM34.5 23.5H41.5V26.5H34.5V23.5ZM34.5 29.5H41.5V32.5H34.5V29.5ZM34.5 35.5H41.5V38.5H34.5V35.5Z" fill="#324558"/>
</svg>
