<svg width="48" height="48" viewBox="0 0 48 48" fill="none" xmlns="http://www.w3.org/2000/svg">
<path d="M37 14C37 14.3561 36.9831 14.7083 36.95 15.0558C40.9205 15.5256 44 18.9032 44 23C44 27.4183 40.4183 31 36 31H20V30.9672C19.6695 30.989 19.336 31 19 31H13C8.02944 31 4 26.9706 4 22C4 17.0294 8.02944 13 13 13H15.0448C15.5501 7.3935 20.262 3 26 3C32.0751 3 37 7.92487 37 14Z" fill="#B6C2CD"/>
<path fill-rule="evenodd" clip-rule="evenodd" d="M22 34.416V31H26V34.416C27.1534 34.92 28.08 35.8466 28.584 37H40V41H28.584C27.8124 42.7659 26.0503 44 24 44C21.9497 44 20.1876 42.7659 19.416 41H8V37H19.416C19.92 35.8466 20.8466 34.92 22 34.416ZM26 39C26 40.1046 25.1046 41 24 41C22.8954 41 22 40.1046 22 39C22 37.8954 22.8954 37 24 37C25.1046 37 26 37.8954 26 39Z" fill="#324558"/>
</svg>
