<svg width="48" height="48" viewBox="0 0 48 48" fill="none" xmlns="http://www.w3.org/2000/svg">
<path fill-rule="evenodd" clip-rule="evenodd" d="M35 13H28V35H35V13ZM31.5 18C32.3284 18 33 17.3284 33 16.5C33 15.6716 32.3284 15 31.5 15C30.6716 15 30 15.6716 30 16.5C30 17.3284 30.6716 18 31.5 18Z" fill="#B6C2CD"/>
<path fill-rule="evenodd" clip-rule="evenodd" d="M18 13H25V35H18V13ZM23 16.5C23 17.3284 22.3284 18 21.5 18C20.6716 18 20 17.3284 20 16.5C20 15.6716 20.6716 15 21.5 15C22.3284 15 23 15.6716 23 16.5Z" fill="#B6C2CD"/>
<path fill-rule="evenodd" clip-rule="evenodd" d="M8 6C6.89543 6 6 6.89543 6 8V40C6 41.1046 6.89543 42 8 42H40C41.1046 42 42 41.1046 42 40V8C42 6.89543 41.1046 6 40 6H8ZM15 10V38H38V10H15Z" fill="#B6C2CD"/>
<path d="M31.5 18C32.3284 18 33 17.3284 33 16.5C33 15.6716 32.3284 15 31.5 15C30.6716 15 30 15.6716 30 16.5C30 17.3284 30.6716 18 31.5 18Z" fill="#324558"/>
<path d="M23 16.5C23 17.3284 22.3284 18 21.5 18C20.6716 18 20 17.3284 20 16.5C20 15.6716 20.6716 15 21.5 15C22.3284 15 23 15.6716 23 16.5Z" fill="#324558"/>
<path fill-rule="evenodd" clip-rule="evenodd" d="M15 38V10H38V38H15ZM28 13H35V35H28V13ZM25 13H18V35H25V13Z" fill="#324558"/>
</svg>
