<svg width="48" height="48" viewBox="0 0 48 48" fill="none" xmlns="http://www.w3.org/2000/svg">
<path d="M24 27C25.6569 27 27 25.6569 27 24C27 22.3431 25.6569 21 24 21C22.3431 21 21 22.3431 21 24C21 25.6569 22.3431 27 24 27Z" fill="#B6C2CD"/>
<path fill-rule="evenodd" clip-rule="evenodd" d="M10 8C8.89543 8 8 8.89543 8 10V38C8 39.1046 8.89543 40 10 40H38C39.1046 40 40 39.1046 40 38V10C40 8.89543 39.1046 8 38 8H10ZM21.7007 18.0187L22.1014 16H25.8986L26.2993 18.0187C26.9676 18.267 27.5854 18.6139 28.128 19.0516L30.1014 18.3828L32 21.6172L30.421 22.9656C30.477 23.3032 30.5132 23.6469 30.5132 24C30.5132 24.3531 30.477 24.6968 30.421 25.0344L32 26.3828L30.1014 29.6172L28.128 28.9484C27.5854 29.3861 26.9676 29.733 26.2993 29.9813L25.8986 32H22.1014L21.7007 29.9813C21.0324 29.733 20.4146 29.3861 19.872 28.9484L17.8986 29.6172L16 26.3828L17.579 25.0344C17.523 24.6968 17.4868 24.3531 17.4868 24C17.4868 23.6469 17.523 23.3032 17.579 22.9656L16 21.6172L17.8986 18.3828L19.872 19.0516C20.4146 18.6139 21.0324 18.267 21.7007 18.0187Z" fill="#B6C2CD"/>
<path d="M14 4H18V8H14V4Z" fill="#324558"/>
<path d="M4 14H8V18H4V14Z" fill="#324558"/>
<path d="M4 22H8V26H4V22Z" fill="#324558"/>
<path d="M4 30H8V34H4V30Z" fill="#324558"/>
<path d="M40 14H44V18H40V14Z" fill="#324558"/>
<path d="M40 22H44V26H40V22Z" fill="#324558"/>
<path d="M40 30H44V34H40V30Z" fill="#324558"/>
<path d="M22 4H26V8H22V4Z" fill="#324558"/>
<path d="M30 4H34V8H30V4Z" fill="#324558"/>
<path d="M14 44V40H18V44H14Z" fill="#324558"/>
<path d="M22 44V40H26V44H22Z" fill="#324558"/>
<path d="M30 44V40H34V44H30Z" fill="#324558"/>
<path fill-rule="evenodd" clip-rule="evenodd" d="M22.1014 16L21.7007 18.0188C21.0324 18.267 20.4146 18.6139 19.872 19.0516L17.8986 18.3828L16 21.6172L17.579 22.9656C17.523 23.3032 17.4868 23.6469 17.4868 24C17.4868 24.3531 17.523 24.6968 17.579 25.0344L16 26.3828L17.8986 29.6172L19.872 28.9484C20.4146 29.3861 21.0324 29.733 21.7007 29.9813L22.1014 32H25.8986L26.2993 29.9813C26.9676 29.733 27.5854 29.3861 28.128 28.9484L30.1014 29.6172L32 26.3828L30.421 25.0344C30.477 24.6968 30.5132 24.3531 30.5132 24C30.5132 23.6469 30.477 23.3032 30.421 22.9656L32 21.6172L30.1014 18.3828L28.128 19.0516C27.5854 18.6139 26.9676 18.267 26.2993 18.0188L25.8986 16H22.1014ZM27 24C27 25.6569 25.6569 27 24 27C22.3431 27 21 25.6569 21 24C21 22.3431 22.3431 21 24 21C25.6569 21 27 22.3431 27 24Z" fill="#324558"/>
</svg>
