<svg width="48" height="48" viewBox="0 0 48 48" fill="none" xmlns="http://www.w3.org/2000/svg">
<path fill-rule="evenodd" clip-rule="evenodd" d="M10 8C8.89543 8 8 8.89543 8 10V38C8 39.1046 8.89543 40 10 40H38C39.1046 40 40 39.1046 40 38V10C40 8.89543 39.1046 8 38 8H10ZM14.5 19C15.3284 19 16 18.3284 16 17.5C16 16.6716 15.3284 16 14.5 16C13.6716 16 13 16.6716 13 17.5C13 18.3284 13.6716 19 14.5 19ZM26 27.6586C28.3304 26.8349 30 24.6124 30 22C30 18.6863 27.3137 16 24 16C20.6863 16 18 18.6863 18 22C18 24.6124 19.6696 26.8349 22 27.6586V33H26V27.6586ZM14.5 27C15.3284 27 16 26.3284 16 25.5C16 24.6716 15.3284 24 14.5 24C13.6716 24 13 24.6716 13 25.5C13 26.3284 13.6716 27 14.5 27ZM35 17.5C35 18.3284 34.3284 19 33.5 19C32.6716 19 32 18.3284 32 17.5C32 16.6716 32.6716 16 33.5 16C34.3284 16 35 16.6716 35 17.5ZM33.5 27C34.3284 27 35 26.3284 35 25.5C35 24.6716 34.3284 24 33.5 24C32.6716 24 32 24.6716 32 25.5C32 26.3284 32.6716 27 33.5 27Z" fill="#B6C2CD"/>
<path d="M14 4H18V8H14V4Z" fill="#324558"/>
<path d="M4 14H8V18H4V14Z" fill="#324558"/>
<path d="M8 22H4V26H8V22Z" fill="#324558"/>
<path d="M4 30H8V34H4V30Z" fill="#324558"/>
<path d="M44 14H40V18H44V14Z" fill="#324558"/>
<path d="M40 22H44V26H40V22Z" fill="#324558"/>
<path d="M44 30H40V34H44V30Z" fill="#324558"/>
<path d="M22 4H26V8H22V4Z" fill="#324558"/>
<path d="M34 4H30V8H34V4Z" fill="#324558"/>
<path d="M14 44V40H18V44H14Z" fill="#324558"/>
<path d="M26 44V40H22V44H26Z" fill="#324558"/>
<path d="M30 44V40H34V44H30Z" fill="#324558"/>
<path d="M16 17.5C16 18.3284 15.3284 19 14.5 19C13.6716 19 13 18.3284 13 17.5C13 16.6716 13.6716 16 14.5 16C15.3284 16 16 16.6716 16 17.5Z" fill="#324558"/>
<path d="M26 27.6586C28.3304 26.8349 30 24.6124 30 22C30 18.6863 27.3137 16 24 16C20.6863 16 18 18.6863 18 22C18 24.6124 19.6696 26.8349 22 27.6586V33H26V27.6586Z" fill="#324558"/>
<path d="M16 25.5C16 26.3284 15.3284 27 14.5 27C13.6716 27 13 26.3284 13 25.5C13 24.6716 13.6716 24 14.5 24C15.3284 24 16 24.6716 16 25.5Z" fill="#324558"/>
<path d="M35 17.5C35 18.3284 34.3284 19 33.5 19C32.6716 19 32 18.3284 32 17.5C32 16.6716 32.6716 16 33.5 16C34.3284 16 35 16.6716 35 17.5Z" fill="#324558"/>
<path d="M35 25.5C35 26.3284 34.3284 27 33.5 27C32.6716 27 32 26.3284 32 25.5C32 24.6716 32.6716 24 33.5 24C34.3284 24 35 24.6716 35 25.5Z" fill="#324558"/>
</svg>
