<svg width="48" height="48" viewBox="0 0 48 48" fill="none" xmlns="http://www.w3.org/2000/svg">
<g clip-path="url(#clip0_3053_3428)">
<path d="M33.0164 7H6C4.89543 7 4 7.89543 4 9V33C4 34.1046 4.89543 35 6 35H42C43.1046 35 44 34.1046 44 33V19.9883L39.2281 24.7602C35.9182 28.0701 30.552 28.0701 27.2421 24.7602C23.9323 21.4504 23.9323 16.0841 27.2421 12.7743L33.0164 7Z" fill="#B6C2CD"/>
<path d="M41.1798 14.3232L44.2774 11.2256C45.244 10.259 45.244 8.69168 44.2774 7.72501C43.3107 6.75833 41.7434 6.75833 40.7767 7.72501L37.6792 10.8225L35.5579 8.7012L38.6554 5.60369C40.7936 3.46544 44.2604 3.46544 46.3987 5.60369C48.5369 7.74194 48.5369 11.2087 46.3987 13.347L43.3012 16.4445L41.1798 14.3232Z" fill="#324558"/>
<path d="M32.4606 11.7983L29.3635 14.8954C27.2252 17.0337 27.2252 20.5005 29.3635 22.6387C31.5017 24.777 34.9685 24.777 37.1067 22.6387L40.2039 19.5416L38.0825 17.4203L34.9854 20.5174C34.0187 21.4841 32.4514 21.4841 31.4848 20.5174C30.5181 19.5507 30.5181 17.9834 31.4848 17.0168L34.5819 13.9197L32.4606 11.7983Z" fill="#324558"/>
<path d="M35.1711 14.5089L38.2684 11.4116L40.5914 13.7346L37.4941 16.8319L35.1711 14.5089Z" fill="#324558"/>
<path d="M21 35H27V38.982C27.2857 39.1062 29.2191 39.9034 31.9654 39.996C32.5305 40.015 33.0001 40.4649 33.0001 41.0304V42.9955H27V43H21V42.9955H15V41.0304C15 40.4649 15.4695 40.015 16.0347 39.996C18.7807 39.9034 20.7141 39.1063 21 38.9821V35Z" fill="#324558"/>
</g>
<defs>
<clipPath id="clip0_3053_3428">
<rect width="48" height="48" fill="white"/>
</clipPath>
</defs>
</svg>
