<svg width="48" height="48" viewBox="0 0 48 48" fill="none" xmlns="http://www.w3.org/2000/svg">
<path fill-rule="evenodd" clip-rule="evenodd" d="M10 8C8.89543 8 8 8.89543 8 10V38C8 39.1046 8.89543 40 10 40H38C39.1046 40 40 39.1046 40 38V10C40 8.89543 39.1046 8 38 8H10ZM18 18H30V30H18V18Z" fill="#B6C2CD"/>
<path d="M14 4H18V8H14V4Z" fill="#324558"/>
<path d="M4 14H8V18H4V14Z" fill="#324558"/>
<path d="M8 22H4V26H8V22Z" fill="#324558"/>
<path d="M4 30H8V34H4V30Z" fill="#324558"/>
<path d="M44 14H40V18H44V14Z" fill="#324558"/>
<path d="M40 22H44V26H40V22Z" fill="#324558"/>
<path d="M44 30H40V34H44V30Z" fill="#324558"/>
<path d="M22 4H26V8H22V4Z" fill="#324558"/>
<path d="M34 4H30V8H34V4Z" fill="#324558"/>
<path d="M14 40H18V44H14V40Z" fill="#324558"/>
<path d="M26 40H22V44H26V40Z" fill="#324558"/>
<path d="M30 40H34V44H30V40Z" fill="#324558"/>
<path d="M30 18H18V30H30V18Z" fill="#324558"/>
</svg>
