<svg width="48" height="48" viewBox="0 0 48 48" fill="none" xmlns="http://www.w3.org/2000/svg">
<path fill-rule="evenodd" clip-rule="evenodd" d="M23.0028 2.27177C23.6199 1.90941 24.3801 1.90941 24.9972 2.27177L42.0028 12.2575C42.6199 12.6199 43 13.2895 43 14.0143V33.9857C43 34.7105 42.6199 35.3801 42.0028 35.7425L24.9972 45.7282C24.3801 46.0906 23.6199 46.0906 23.0028 45.7282L5.99724 35.7425C5.38015 35.3801 5 34.7105 5 33.9857V18.9997L13 14.3682V8.14545L23.0028 2.27177ZM40 33.2104V15.2104L32 19.842V37.842L40 33.2104ZM22 27.2104V20.2104L14 24.842V31.842L22 27.2104Z" fill="#B6C2CD"/>
<path d="M40 15.2104V33.2104L32 37.842V19.842L40 15.2104Z" fill="#324558"/>
<path d="M22 20.2104V27.2104L14 31.842V24.842L22 20.2104Z" fill="#324558"/>
</svg>
