<svg width="48" height="48" viewBox="0 0 48 48" fill="none" xmlns="http://www.w3.org/2000/svg">
<path fill-rule="evenodd" clip-rule="evenodd" d="M6 4C4.89543 4 4 4.89543 4 6V29C4 30.1046 4.89543 31 6 31H42C43.1046 31 44 30.1046 44 29V6C44 4.89543 43.1046 4 42 4H6ZM34 16H15V13H27V9L34 16ZM21 22H33V19H14L21 26V22Z" fill="#B6C2CD"/>
<path d="M34 16H15V13H27V9L34 16Z" fill="#324558"/>
<path fill-rule="evenodd" clip-rule="evenodd" d="M22 34.416V31H26V34.416C27.1534 34.92 28.08 35.8466 28.584 37H40V41H28.584C27.8124 42.7659 26.0503 44 24 44C21.9497 44 20.1876 42.7659 19.416 41H8V37H19.416C19.92 35.8466 20.8466 34.92 22 34.416ZM26 39C26 40.1046 25.1046 41 24 41C22.8954 41 22 40.1046 22 39C22 37.8954 22.8954 37 24 37C25.1046 37 26 37.8954 26 39Z" fill="#324558"/>
<path d="M33 22H21V26L14 19H33V22Z" fill="#324558"/>
</svg>
