<svg width="48" height="48" viewBox="0 0 48 48" fill="none" xmlns="http://www.w3.org/2000/svg">
<path d="M24 8C19.7473 8 15.8821 9.65914 13.0165 12.3654L10.9193 8.87025C14.4261 5.83577 18.9987 4 24 4C35.0457 4 44 12.9543 44 24C44 27.756 42.9646 31.2702 41.1637 34.2728L35.9087 25.5145C35.5088 24.848 35.9889 24 36.7662 24H40C40 15.1634 32.8366 8 24 8Z" fill="#B6C2CD"/>
<path d="M6.83313 13.7324L6.83636 13.7271L12.0913 22.4854C12.4912 23.1519 12.0111 23.9999 11.2338 23.9999H8C8 32.8365 15.1634 39.9999 24 39.9999C28.2527 39.9999 32.1179 38.3408 34.9835 35.6345L37.0807 39.1296C33.5739 42.1641 29.0014 43.9999 24 43.9999C12.9543 43.9999 4 35.0456 4 23.9999C4 20.5481 4.87444 17.3006 6.41389 14.4667C6.54859 14.2187 6.68839 13.9739 6.83313 13.7324Z" fill="#B6C2CD"/>
<path fill-rule="evenodd" clip-rule="evenodd" d="M21.4132 17.2711L21.864 15H26.136L26.5868 17.2711C27.3385 17.5504 28.0336 17.9407 28.644 18.433L30.864 17.6807L33 21.3193L31.2236 22.8363C31.2866 23.2161 31.3274 23.6028 31.3274 24C31.3274 24.3972 31.2866 24.7839 31.2236 25.1637L33 26.6807L30.864 30.3193L28.644 29.567C28.0336 30.0593 27.3385 30.4496 26.5868 30.7289L26.136 33H21.864L21.4132 30.7289C20.6615 30.4496 19.9664 30.0593 19.356 29.567L17.136 30.3193L15 26.6807L16.7764 25.1637C16.7134 24.7839 16.6726 24.3972 16.6726 24C16.6726 23.6028 16.7134 23.2161 16.7764 22.8363L15 21.3193L17.136 17.6807L19.356 18.433C19.9664 17.9407 20.6615 17.5504 21.4132 17.2711ZM24 27.375C25.864 27.375 27.375 25.864 27.375 24C27.375 22.136 25.864 20.625 24 20.625C22.136 20.625 20.625 22.136 20.625 24C20.625 25.864 22.136 27.375 24 27.375Z" fill="#324558"/>
</svg>
