<svg width="48" height="48" viewBox="0 0 48 48" fill="none" xmlns="http://www.w3.org/2000/svg">
<path fill-rule="evenodd" clip-rule="evenodd" d="M44 24C44 35.0457 35.0457 44 24 44C12.9543 44 4 35.0457 4 24C4 12.9543 12.9543 4 24 4C24.3353 4 24.6687 4.00825 25 4.02457V10H31V14H37V18H43.0844C43.6793 19.8941 44 21.9096 44 24ZM22 13C22 14.6569 20.6569 16 19 16C17.3431 16 16 14.6569 16 13C16 11.3431 17.3431 10 19 10C20.6569 10 22 11.3431 22 13ZM16 23C16 24.6569 14.6569 26 13 26C11.3431 26 10 24.6569 10 23C10 21.3431 11.3431 20 13 20C14.6569 20 16 21.3431 16 23ZM27 24C27 25.6569 25.6569 27 24 27C22.3431 27 21 25.6569 21 24C21 22.3431 22.3431 21 24 21C25.6569 21 27 22.3431 27 24ZM26 35C26 36.6569 24.6569 38 23 38C21.3431 38 20 36.6569 20 35C20 33.3431 21.3431 32 23 32C24.6569 32 26 33.3431 26 35ZM38 30C38 31.6569 36.6569 33 35 33C33.3431 33 32 31.6569 32 30C32 28.3431 33.3431 27 35 27C36.6569 27 38 28.3431 38 30Z" fill="#B6C2CD"/>
<path d="M22 13C22 14.6569 20.6569 16 19 16C17.3431 16 16 14.6569 16 13C16 11.3431 17.3431 10 19 10C20.6569 10 22 11.3431 22 13Z" fill="#324558"/>
<path d="M16 23C16 24.6569 14.6569 26 13 26C11.3431 26 10 24.6569 10 23C10 21.3431 11.3431 20 13 20C14.6569 20 16 21.3431 16 23Z" fill="#324558"/>
<path d="M24 27C25.6569 27 27 25.6569 27 24C27 22.3431 25.6569 21 24 21C22.3431 21 21 22.3431 21 24C21 25.6569 22.3431 27 24 27Z" fill="#324558"/>
<path d="M26 35C26 36.6569 24.6569 38 23 38C21.3431 38 20 36.6569 20 35C20 33.3431 21.3431 32 23 32C24.6569 32 26 33.3431 26 35Z" fill="#324558"/>
<path d="M35 33C36.6569 33 38 31.6569 38 30C38 28.3431 36.6569 27 35 27C33.3431 27 32 28.3431 32 30C32 31.6569 33.3431 33 35 33Z" fill="#324558"/>
</svg>
