<svg width="48" height="48" viewBox="0 0 48 48" fill="none" xmlns="http://www.w3.org/2000/svg">
<path fill-rule="evenodd" clip-rule="evenodd" d="M36 14C36 12.8954 35.1046 12 34 12H6C4.89543 12 4 12.8954 4 14V42C4 43.1046 4.89543 44 6 44H34C35.1046 44 36 43.1046 36 42V14ZM17 19H21V28.1716L25.4142 32.5858L22.5858 35.4142L17 29.8284V19Z" fill="#B6C2CD"/>
<path d="M20 8V12H16V6C16 4.89543 16.8954 4 18 4H42C43.1046 4 44 4.89543 44 6V30C44 31.1046 43.1046 32 42 32H36V28H40V8H20Z" fill="#324558"/>
<path d="M21 19H17V29.8284L22.5858 35.4142L25.4142 32.5858L21 28.1716V19Z" fill="#324558"/>
</svg>
