<svg width="48" height="48" viewBox="0 0 48 48" fill="none" xmlns="http://www.w3.org/2000/svg">
<path d="M24 16.9999C28.6354 16.9999 32.9512 16.4168 36.2085 15.3989C37.5901 14.9671 38.9062 14.419 40 13.7197V20C40 20.3515 39.8186 20.6925 39.4779 21.0173C39.3201 21.0058 39.1607 21 39 21C37.1202 21 35.4268 21.798 34.24 23.0736C31.4653 23.652 27.8952 24 24 24C15.1634 24 8 22.2091 8 20V13.7197C9.09378 14.419 10.4099 14.9671 11.7915 15.3989C15.0488 16.4168 19.3646 16.9999 24 16.9999Z" fill="#B6C2CD"/>
<path d="M32.5909 26.4103C30.026 26.7907 27.0886 27 24 27C19.4103 27 15.1544 26.5378 11.9587 25.7389C10.5027 25.3748 9.12147 24.9058 8 24.2926V30C8 32.2091 15.1634 34 24 34C25.4183 34 26.7935 33.9539 28.1029 33.8673C29.0193 32.7286 30.4246 32 32 32H33.279C33.2133 31.627 33.1174 31.2137 32.9995 30.7056C32.9716 30.5855 32.9425 30.4601 32.9123 30.3287C32.7431 29.5932 32.5 28.5184 32.5 27.5C32.5 27.1287 32.5311 26.7646 32.5909 26.4103Z" fill="#B6C2CD"/>
<path d="M27.0004 36.933C26.0221 36.9772 25.0193 37 24 37C19.4103 37 15.1544 36.5378 11.9587 35.7389C10.5027 35.3748 9.12147 34.9058 8 34.2926V39.9999C8 42.2091 15.1634 43.9999 24 43.9999C25.0254 43.9999 26.0282 43.9758 27 43.9297V37C27 36.9776 27.0001 36.9553 27.0004 36.933Z" fill="#B6C2CD"/>
<path d="M24 14C32.8366 14 40 11.7614 40 9C40 6.23858 32.8366 4 24 4C15.1634 4 8 6.23858 8 9C8 11.7614 15.1634 14 24 14Z" fill="#324558"/>
<path d="M34.5012 35H32C30.8954 35 30 35.8954 30 37V40.5H48V37C48 35.8954 47.1046 35 46 35H43.4988C41.0026 34.6425 41.5602 32.2491 42.0845 29.9992C42.2949 29.096 42.5 28.216 42.5 27.5C42.5 25.567 40.933 24 39 24C37.067 24 35.5 25.567 35.5 27.5C35.5 28.216 35.7051 29.096 35.9155 29.9992C36.4398 32.2491 36.9974 34.6425 34.5012 35Z" fill="#324558"/>
<path d="M31 44V42H47V44H31Z" fill="#324558"/>
</svg>
