<svg width="48" height="48" viewBox="0 0 48 48" fill="none" xmlns="http://www.w3.org/2000/svg">
<path d="M24 16.9999C28.6354 16.9999 32.9512 16.4168 36.2085 15.3989C37.5901 14.9671 38.9062 14.419 40 13.7197V20C40 22.2091 32.8366 24 24 24C15.1634 24 8 22.2091 8 20V13.7197C9.09378 14.419 10.4099 14.9671 11.7915 15.3989C15.0488 16.4168 19.3646 16.9999 24 16.9999Z" fill="#B6C2CD"/>
<path d="M8 24.2926V30C8 32.2091 15.1634 34 24 34C32.8366 34 40 32.2091 40 30V24.2926C38.8785 24.9058 37.4974 25.3748 36.0413 25.7389C32.8456 26.5378 28.5897 27 24 27C19.4103 27 15.1544 26.5378 11.9587 25.7389C10.5027 25.3748 9.12147 24.9058 8 24.2926Z" fill="#B6C2CD"/>
<path d="M36.0413 35.7389C37.4974 35.3748 38.8785 34.9058 40 34.2926V39.9999C40 42.2091 32.8366 43.9999 24 43.9999C15.1634 43.9999 8 42.2091 8 39.9999V34.2926C9.12147 34.9058 10.5027 35.3748 11.9587 35.7389C15.1544 36.5378 19.4103 37 24 37C28.5897 37 32.8456 36.5378 36.0413 35.7389Z" fill="#B6C2CD"/>
<path d="M40 9C40 11.7614 32.8366 14 24 14C15.1634 14 8 11.7614 8 9C8 6.23858 15.1634 4 24 4C32.8366 4 40 6.23858 40 9Z" fill="#324558"/>
</svg>
