<svg width="48" height="48" viewBox="0 0 48 48" fill="none" xmlns="http://www.w3.org/2000/svg">
<path fill-rule="evenodd" clip-rule="evenodd" d="M7.56805 43H40.4319C41.1536 43 41.8193 42.6112 42.1739 41.9826L45.4631 36.1517C45.7977 35.5586 45.8075 34.836 45.4892 34.2341L30.0632 5.06501C29.7167 4.40984 29.0364 4 28.2952 4H19.7048C18.9636 4 18.2832 4.40984 17.9368 5.06501L2.51082 34.2341C2.19247 34.836 2.20228 35.5586 2.53685 36.1517L5.8261 41.9826C6.18067 42.6112 6.84638 43 7.56805 43ZM20 9L24 14L28 9H20ZM20 18L24 23L28 18H20ZM21.6 29L24 32L26.4 29H35L38 35H10L13 29H21.6Z" fill="#B6C2CD"/>
<path d="M20 9L24 14L28 9H20Z" fill="#324558"/>
<path d="M20 18L24 23L28 18H20Z" fill="#324558"/>
<path d="M24 32L21.6 29H13L10 35H38L35 29H26.4L24 32Z" fill="#324558"/>
</svg>
