<svg width="48" height="48" viewBox="0 0 48 48" fill="none" xmlns="http://www.w3.org/2000/svg">
<path d="M29.4178 36H18.582C18.9088 37.1144 19.2775 38.1415 19.68 39.0673C20.487 40.9233 21.3706 42.236 22.1993 43.0422C23.0141 43.8348 23.6184 44 23.9999 44C24.3814 44 24.9857 43.8348 25.8005 43.0422C26.6292 42.236 27.5128 40.9233 28.3198 39.0673C28.7223 38.1415 29.091 37.1144 29.4178 36Z" fill="#B6C2CD"/>
<path d="M18.3063 13C18.6959 11.4952 19.1598 10.1293 19.68 8.93272C20.487 7.07666 21.3706 5.76402 22.1993 4.9578C23.0141 4.16519 23.6184 4 23.9999 4C24.3814 4 24.9857 4.16519 25.8005 4.9578C26.6292 5.76402 27.5128 7.07666 28.3198 8.93272C28.84 10.1293 29.3039 11.4952 29.6935 13H18.3063Z" fill="#B6C2CD"/>
<path d="M15.2156 13H7.29395C9.89745 9.05397 13.8615 6.0848 18.5181 4.76057C17.1442 6.83559 16.0059 9.66814 15.2156 13Z" fill="#B6C2CD"/>
<path d="M15.4672 36H7.99843C10.5873 39.4466 14.2637 42.0296 18.5181 43.2394C17.2838 41.3753 16.2397 38.8997 15.4672 36Z" fill="#B6C2CD"/>
<path d="M32.5326 36H40.0014C37.4125 39.4466 33.7361 42.0296 29.4817 43.2394C30.716 41.3753 31.7601 38.8997 32.5326 36Z" fill="#B6C2CD"/>
<path d="M40.7059 13H32.7842C31.9939 9.66814 30.8556 6.83559 29.4817 4.76057C34.1383 6.0848 38.1024 9.05397 40.7059 13Z" fill="#B6C2CD"/>
<path d="M12.0724 21.376V27.6309H12.9064C13.5945 27.6309 14.1232 27.387 14.4923 26.8994C14.8615 26.4072 15.046 25.6781 15.046 24.7119V24.2812C15.046 23.3197 14.8615 22.5951 14.4923 22.1074C14.1232 21.6198 13.5854 21.376 12.879 21.376H12.0724Z" fill="#324558"/>
<path fill-rule="evenodd" clip-rule="evenodd" d="M6 16C4.89543 16 4 16.8954 4 18V31C4 32.1046 4.89543 33 6 33H42C43.1046 33 44 32.1046 44 31V18C44 16.8954 43.1046 16 42 16H6ZM35.5516 26.0107C35.8023 26.2067 35.9276 26.4801 35.9276 26.8311C35.9276 27.141 35.8114 27.3825 35.579 27.5557C35.3511 27.7243 35.0389 27.8086 34.6425 27.8086C34.0227 27.8086 33.5738 27.6833 33.2958 27.4326C33.0223 27.1774 32.8856 26.7832 32.8856 26.25H30.4794C30.4794 26.9062 30.6434 27.4873 30.9716 27.9932C31.3042 28.4945 31.7964 28.891 32.4481 29.1826C33.1044 29.4697 33.8358 29.6133 34.6425 29.6133C35.7863 29.6133 36.6864 29.3649 37.3427 28.8682C37.9989 28.3714 38.327 27.6878 38.327 26.8174C38.327 25.7282 37.7893 24.8737 36.7138 24.2539C36.2717 23.9987 35.7066 23.7617 35.0184 23.543C34.3303 23.3197 33.8495 23.1055 33.5761 22.9004C33.3026 22.6908 33.1659 22.4583 33.1659 22.2031C33.1659 21.9115 33.2889 21.6722 33.535 21.4854C33.7857 21.2939 34.1252 21.1982 34.5536 21.1982C34.9774 21.1982 35.3124 21.3099 35.5585 21.5332C35.8091 21.7565 35.9345 22.071 35.9345 22.4766H38.327C38.327 21.8704 38.1698 21.3327 37.8554 20.8633C37.5409 20.3893 37.0988 20.0247 36.5292 19.7695C35.9641 19.5143 35.3238 19.3867 34.6083 19.3867C33.8746 19.3867 33.2138 19.5052 32.6259 19.7422C32.038 19.9746 31.5822 20.3027 31.2587 20.7266C30.9397 21.1458 30.7802 21.6312 30.7802 22.1826C30.7802 23.29 31.425 24.1605 32.7147 24.7939C33.1112 24.9899 33.6216 25.1927 34.246 25.4023C34.8703 25.612 35.3055 25.8148 35.5516 26.0107ZM9.67297 29.4766V19.5234H12.879C13.7586 19.5234 14.5493 19.724 15.2511 20.125C15.9529 20.5215 16.4998 21.0843 16.8917 21.8135C17.2882 22.5381 17.4887 23.3516 17.4933 24.2539V24.7119C17.4933 25.6234 17.2996 26.4414 16.9122 27.166C16.5294 27.8861 15.9871 28.4512 15.2853 28.8613C14.588 29.2669 13.8087 29.472 12.9474 29.4766H9.67297ZM28.1563 29.4766H25.7705L22.2432 23.2832V29.4766H19.8438V19.5234H22.2432L25.7637 25.7168V19.5234H28.1563V29.4766Z" fill="#324558"/>
</svg>
