<svg width="48" height="48" viewBox="0 0 48 48" fill="none" xmlns="http://www.w3.org/2000/svg">
<path fill-rule="evenodd" clip-rule="evenodd" d="M25 3.57728C24.3812 3.22001 23.6188 3.22001 23 3.57728L6.81348 12.9226C6.19467 13.2798 5.81348 13.9401 5.81348 14.6546V33.3452C5.81348 34.0598 6.19467 34.72 6.81348 35.0773L23 44.4226C23.6188 44.7798 24.3812 44.7798 25 44.4226L41.1865 35.0773C41.8053 34.72 42.1865 34.0598 42.1865 33.3452V14.6546C42.1865 13.9401 41.8053 13.2798 41.1865 12.9226L25 3.57728ZM36 14L24 7L12 14L24 21L36 14ZM22.1174 26.449L10.0555 19.4851L10.04 22.9403L22.1019 29.9042L22.1174 26.449ZM10.0243 26.4671L10.0088 29.9222L22.0706 36.8862L22.0861 33.431L10.0243 26.4671Z" fill="#B6C2CD"/>
<path d="M36 14L24 7L12 14L24 21L36 14Z" fill="#324558"/>
<path d="M22.1174 26.449L10.0555 19.4851L10.04 22.9403L22.1019 29.9042L22.1174 26.449Z" fill="#324558"/>
<path d="M10.0088 29.9222L10.0243 26.4671L22.0861 33.431L22.0706 36.8862L10.0088 29.9222Z" fill="#324558"/>
</svg>
