<svg width="48" height="48" viewBox="0 0 48 48" fill="none" xmlns="http://www.w3.org/2000/svg">
<path d="M25.4852 32.7177C25.8268 31.9208 26.1291 30.9764 26.3721 29.9142C25.6011 29.9706 24.8085 30 24 30C23.1914 30 22.3989 29.9706 21.6279 29.9142C21.8709 30.9764 22.1732 31.9208 22.5148 32.7177C22.9624 33.7622 23.4184 34.4157 23.7718 34.7646C23.87 34.8615 23.946 34.9221 24 34.9592C24.054 34.9221 24.13 34.8615 24.2282 34.7646C24.5816 34.4157 25.0376 33.7622 25.4852 32.7177Z" fill="#B6C2CD"/>
<path d="M32.7177 22.5148C31.9208 22.1732 30.9764 21.8709 29.9142 21.6279C29.9706 22.3989 30 23.1914 30 24C30 24.8086 29.9706 25.6011 29.9142 26.3721C30.9764 26.1291 31.9208 25.8268 32.7177 25.4852C33.7622 25.0376 34.4157 24.5816 34.7646 24.2282C34.8615 24.13 34.9221 24.054 34.9592 24C34.9221 23.946 34.8615 23.87 34.7646 23.7718C34.4157 23.4184 33.7622 22.9624 32.7177 22.5148Z" fill="#B6C2CD"/>
<path d="M27 24C27 23.0049 26.9512 22.0473 26.8615 21.1385C25.9527 21.0488 24.9951 21 24 21C23.0049 21 22.0473 21.0488 21.1385 21.1385C21.0488 22.0473 21 23.0049 21 24C21 24.9951 21.0488 25.9527 21.1385 26.8615C22.0473 26.9512 23.0049 27 24 27C24.9951 27 25.9527 26.9512 26.8615 26.8615C26.9512 25.9527 27 24.9951 27 24Z" fill="#B6C2CD"/>
<path d="M25.4852 15.2823C25.8268 16.0792 26.1291 17.0236 26.3721 18.0858C25.6011 18.0294 24.8086 18 24 18C23.1914 18 22.3989 18.0294 21.6279 18.0858C21.8709 17.0236 22.1732 16.0792 22.5148 15.2823C22.9624 14.2378 23.4184 13.5843 23.7718 13.2354C23.87 13.1385 23.946 13.0779 24 13.0408C24.054 13.0779 24.13 13.1385 24.2282 13.2354C24.5816 13.5843 25.0376 14.2378 25.4852 15.2823Z" fill="#B6C2CD"/>
<path d="M15.2823 22.5148C16.0792 22.1732 17.0236 21.8709 18.0858 21.6279C18.0294 22.3989 18 23.1914 18 24C18 24.8086 18.0294 25.6011 18.0858 26.3721C17.0236 26.1291 16.0792 25.8268 15.2823 25.4852C14.2378 25.0376 13.5843 24.5816 13.2354 24.2282C13.1385 24.13 13.0779 24.054 13.0408 24C13.0779 23.946 13.1385 23.87 13.2354 23.7718C13.5843 23.4184 14.2378 22.9624 15.2823 22.5148Z" fill="#B6C2CD"/>
<path d="M23.9004 35.014C23.9004 35.014 23.9055 35.0113 23.9157 35.0087C23.9055 35.0132 23.9004 35.014 23.9004 35.014Z" fill="#B6C2CD"/>
<path d="M24.0843 35.0087C24.0945 35.0113 24.0996 35.014 24.0996 35.014L24.0981 35.0139L24.0957 35.0132C24.0931 35.0124 24.0893 35.0109 24.0843 35.0087Z" fill="#B6C2CD"/>
<path d="M24.0996 12.986C24.0996 12.986 24.0945 12.9887 24.0842 12.9913C24.0945 12.9868 24.0996 12.986 24.0996 12.986Z" fill="#B6C2CD"/>
<path d="M23.9158 12.9913C23.9055 12.9887 23.9004 12.986 23.9004 12.986C23.9004 12.986 23.9055 12.9868 23.9158 12.9913Z" fill="#B6C2CD"/>
<path d="M12.986 23.9004C12.986 23.9004 12.9887 23.9055 12.9913 23.9157C12.9868 23.9055 12.986 23.9004 12.986 23.9004Z" fill="#B6C2CD"/>
<path d="M12.9913 24.0843C12.9887 24.0945 12.986 24.0996 12.986 24.0996C12.986 24.0996 12.9868 24.0945 12.9913 24.0843Z" fill="#B6C2CD"/>
<path d="M35.014 24.0996L35.0133 24.0986C35.0123 24.0966 35.0106 24.0918 35.0087 24.0842C35.0132 24.0945 35.014 24.0996 35.014 24.0996Z" fill="#B6C2CD"/>
<path d="M35.0087 23.9158C35.0113 23.9055 35.014 23.9004 35.014 23.9004C35.014 23.9004 35.0132 23.9055 35.0087 23.9158Z" fill="#B6C2CD"/>
<path fill-rule="evenodd" clip-rule="evenodd" d="M24 44C35.0457 44 44 35.0457 44 24C44 12.9543 35.0457 4 24 4C12.9543 4 4 12.9543 4 24C4 35.0457 12.9543 44 24 44ZM24 38C26.4742 38 28.5987 34.5055 29.5163 29.5163C34.5055 28.5987 38 26.4742 38 24C38 21.5258 34.5055 19.4013 29.5163 18.4837C28.5987 13.4945 26.4742 10 24 10C21.5258 10 19.4013 13.4945 18.4837 18.4837C13.4945 19.4013 10 21.5258 10 24C10 26.4742 13.4945 28.5987 18.4837 29.5163C19.4013 34.5055 21.5258 38 24 38Z" fill="#B6C2CD"/>
<path fill-rule="evenodd" clip-rule="evenodd" d="M29.5163 29.5163C28.5987 34.5055 26.4742 38 24 38C21.5258 38 19.4013 34.5055 18.4837 29.5163C13.4945 28.5987 10 26.4742 10 24C10 21.5258 13.4945 19.4013 18.4837 18.4837C19.4013 13.4945 21.5258 10 24 10C26.4742 10 28.5987 13.4945 29.5163 18.4837C34.5055 19.4013 38 21.5258 38 24C38 26.4742 34.5055 28.5987 29.5163 29.5163ZM26.3721 29.9142C26.1291 30.9764 25.8268 31.9208 25.4852 32.7177C25.0376 33.7622 24.5816 34.4157 24.2282 34.7646C24.13 34.8615 24.054 34.9221 24 34.9592C23.946 34.9221 23.87 34.8615 23.7718 34.7646C23.4184 34.4157 22.9624 33.7622 22.5148 32.7177C22.1732 31.9208 21.8709 30.9764 21.6279 29.9142C22.3989 29.9706 23.1914 30 24 30C24.8085 30 25.6011 29.9706 26.3721 29.9142ZM29.9142 21.6279C30.9764 21.8709 31.9208 22.1732 32.7177 22.5148C33.7622 22.9624 34.4157 23.4184 34.7646 23.7718C34.8615 23.87 34.9221 23.946 34.9592 24C34.9221 24.054 34.8615 24.13 34.7646 24.2282C34.4157 24.5816 33.7622 25.0376 32.7177 25.4852C31.9208 25.8268 30.9764 26.1291 29.9142 26.3721C29.9706 25.6011 30 24.8086 30 24C30 23.1914 29.9706 22.3989 29.9142 21.6279ZM26.8615 21.1385C26.9512 22.0473 27 23.0049 27 24C27 24.9951 26.9512 25.9527 26.8615 26.8615C25.9527 26.9512 24.9951 27 24 27C23.0049 27 22.0473 26.9512 21.1385 26.8615C21.0488 25.9527 21 24.9951 21 24C21 23.0049 21.0488 22.0473 21.1385 21.1385C22.0473 21.0488 23.0049 21 24 21C24.9951 21 25.9527 21.0488 26.8615 21.1385ZM26.3721 18.0858C26.1291 17.0236 25.8268 16.0792 25.4852 15.2823C25.0376 14.2378 24.5816 13.5843 24.2282 13.2354C24.13 13.1385 24.054 13.0779 24 13.0408C23.946 13.0779 23.87 13.1385 23.7718 13.2354C23.4184 13.5843 22.9624 14.2378 22.5148 15.2823C22.1732 16.0792 21.8709 17.0236 21.6279 18.0858C22.3989 18.0294 23.1914 18 24 18C24.8086 18 25.6011 18.0294 26.3721 18.0858ZM18.0858 21.6279C17.0236 21.8709 16.0792 22.1732 15.2823 22.5148C14.2378 22.9624 13.5843 23.4184 13.2354 23.7718C13.1385 23.87 13.0779 23.946 13.0408 24C13.0779 24.054 13.1385 24.13 13.2354 24.2282C13.5843 24.5816 14.2378 25.0376 15.2823 25.4852C16.0792 25.8268 17.0236 26.1291 18.0858 26.3721C18.0294 25.6011 18 24.8086 18 24C18 23.1914 18.0294 22.3989 18.0858 21.6279ZM23.9004 35.014C23.9004 35.014 23.9055 35.0113 23.9157 35.0087C23.9055 35.0132 23.9004 35.014 23.9004 35.014ZM24.0996 35.014C24.0996 35.014 24.0945 35.0113 24.0843 35.0087C24.0893 35.0109 24.0931 35.0124 24.0957 35.0132C24.0983 35.0141 24.0996 35.014 24.0996 35.014ZM24.0996 12.986C24.0996 12.986 24.0945 12.9887 24.0842 12.9913C24.0945 12.9868 24.0996 12.986 24.0996 12.986ZM23.9158 12.9913C23.9055 12.9887 23.9004 12.986 23.9004 12.986C23.9004 12.986 23.9055 12.9868 23.9158 12.9913ZM12.986 23.9004C12.986 23.9004 12.9887 23.9055 12.9913 23.9157C12.9868 23.9055 12.986 23.9004 12.986 23.9004ZM12.9913 24.0843C12.9887 24.0945 12.986 24.0996 12.986 24.0996C12.986 24.0996 12.9868 24.0945 12.9913 24.0843ZM35.0133 24.0986L35.014 24.0996C35.014 24.0996 35.0132 24.0945 35.0087 24.0842C35.0106 24.0918 35.0123 24.0966 35.0133 24.0986ZM35.0087 23.9158C35.0113 23.9055 35.014 23.9004 35.014 23.9004C35.014 23.9004 35.0132 23.9055 35.0087 23.9158Z" fill="#324558"/>
</svg>
