<svg width="48" height="48" viewBox="0 0 48 48" fill="none" xmlns="http://www.w3.org/2000/svg">
<path d="M24 20.6488C22.7283 20.6488 21.6975 21.6661 21.6975 22.9211C21.6975 24.176 22.7283 25.1933 24 25.1933C25.2717 25.1933 26.3025 24.176 26.3025 22.9211C26.3025 21.6661 25.2717 20.6488 24 20.6488Z" fill="#B6C2CD"/>
<path fill-rule="evenodd" clip-rule="evenodd" d="M35 13H13V35H35V13ZM24 17C27.3137 17 30 19.6509 30 22.9211C30 24.5941 28.8221 26.7656 26.4662 29.4355L26.0249 29.9264C25.5706 30.4229 25.0773 30.9358 24.5452 31.4651L24 32L23.4548 31.4651C22.9227 30.9358 22.4294 30.4229 21.9751 29.9264L21.5338 29.4355C19.1779 26.7656 18 24.5941 18 22.9211C18 19.6509 20.6863 17 24 17Z" fill="#B6C2CD"/>
<path d="M6 8C6 6.89543 6.89543 6 8 6H22.5V10H10V22.5H6V8Z" fill="#324558"/>
<path d="M25.5 10V6H40C41.1046 6 42 6.89543 42 8V22.5H38V10H25.5Z" fill="#324558"/>
<path d="M38 25.5V38H25.5V42H40C41.1046 42 42 41.1046 42 40V25.5H38Z" fill="#324558"/>
<path d="M22.5 38V42H8C6.89543 42 6 41.1046 6 40V25.5H10L10 38H22.5Z" fill="#324558"/>
<path fill-rule="evenodd" clip-rule="evenodd" d="M30 22.9211C30 19.6509 27.3137 17 24 17C20.6863 17 18 19.6509 18 22.9211C18 24.5941 19.1779 26.7656 21.5338 29.4355L21.9751 29.9264C22.4294 30.4229 22.9227 30.9358 23.4548 31.4651L24 32L24.5452 31.4651C25.0773 30.9358 25.5706 30.4229 26.0249 29.9264L26.4662 29.4355C28.8221 26.7656 30 24.5941 30 22.9211ZM21.6975 22.9211C21.6975 21.6661 22.7283 20.6488 24 20.6488C25.2717 20.6488 26.3025 21.6661 26.3025 22.9211C26.3025 24.176 25.2717 25.1933 24 25.1933C22.7283 25.1933 21.6975 24.176 21.6975 22.9211Z" fill="#324558"/>
</svg>
