<svg width="48" height="48" viewBox="0 0 48 48" fill="none" xmlns="http://www.w3.org/2000/svg">
<path d="M29.3824 22.0352H26.687V17.1133H29.4292C30.1714 17.1211 30.7574 17.3633 31.187 17.8398C31.6167 18.3164 31.8316 18.9531 31.8316 19.75C31.8316 20.4766 31.6206 21.0391 31.1988 21.4375C30.7847 21.8359 30.1792 22.0352 29.3824 22.0352Z" fill="#B6C2CD"/>
<path fill-rule="evenodd" clip-rule="evenodd" d="M6 8C6 6.89543 6.89543 6 8 6H40C41.1046 6 42 6.89543 42 8V38C42 39.1046 41.1046 40 40 40H29L24.7682 45.0781C24.3684 45.5579 23.6316 45.5579 23.2318 45.0781L19 40H8C6.89543 40 6 39.1046 6 38V8ZM14.6528 31H18.7544V13.9375H14.6528V31ZM26.687 31V25.2109H29.312C31.3902 25.2109 33.023 24.7148 34.2105 23.7227C35.4058 22.7227 36.0035 21.3906 36.0035 19.7266C36.0035 18.6016 35.7261 17.5977 35.1714 16.7148C34.6245 15.8242 33.8472 15.1406 32.8394 14.6641C31.8394 14.1797 30.687 13.9375 29.3824 13.9375H22.5738V31H26.687Z" fill="#B6C2CD"/>
<path d="M18.7544 31H14.6528V13.9375H18.7544V31Z" fill="#324558"/>
<path d="M26.6871 25.2109V31H22.5738V13.9375H29.3824C30.687 13.9375 31.8394 14.1797 32.8394 14.6641C33.8472 15.1406 34.6245 15.8242 35.1714 16.7148C35.7261 17.5977 36.0035 18.6016 36.0035 19.7266C36.0035 21.3906 35.4058 22.7227 34.2105 23.7227C33.023 24.7148 31.3902 25.2109 29.3121 25.2109H26.6871ZM26.6871 22.0352H29.3824C30.1792 22.0352 30.7847 21.8359 31.1988 21.4375C31.6206 21.0391 31.8316 20.4766 31.8316 19.75C31.8316 18.9531 31.6167 18.3164 31.187 17.8398C30.7574 17.3633 30.1714 17.1211 29.4292 17.1133H26.6871V22.0352Z" fill="#324558"/>
</svg>
