<svg width="48" height="48" viewBox="0 0 48 48" fill="none" xmlns="http://www.w3.org/2000/svg">
<path d="M21.3137 22.1053C21.3137 20.5994 22.5164 19.3786 24 19.3786C25.4836 19.3786 26.6863 20.5994 26.6863 22.1053C26.6863 23.6112 25.4836 24.832 24 24.832C22.5164 24.832 21.3137 23.6112 21.3137 22.1053Z" fill="#B6C2CD"/>
<path fill-rule="evenodd" clip-rule="evenodd" d="M6 8C6 6.89543 6.89543 6 8 6H22.5V12H25.5V6H40C41.1046 6 42 6.89543 42 8V22.5H36V25.5H42V40C42 41.1046 41.1046 42 40 42H25.5V36H22.5V42H8C6.89543 42 6 41.1046 6 40V25.5H12V22.5H6V8ZM31 22.1053C31 18.1811 27.866 15 24 15C20.134 15 17 18.1811 17 22.1053C17 24.113 18.3743 26.7187 21.1228 29.9226L21.6376 30.5117C22.1677 31.1074 22.7431 31.7229 23.364 32.3582L24 33L24.636 32.3582C25.2569 31.7229 25.8323 31.1074 26.3624 30.5117L26.8772 29.9226C29.6257 26.7187 31 24.113 31 22.1053Z" fill="#B6C2CD"/>
<path d="M24 15C27.866 15 31 18.1811 31 22.1053C31 24.113 29.6257 26.7187 26.8772 29.9226L26.3624 30.5117C25.8323 31.1074 25.2569 31.7229 24.636 32.3582L24 33L23.364 32.3582C22.7431 31.7229 22.1677 31.1074 21.6376 30.5117L21.1228 29.9226C18.3743 26.7187 17 24.113 17 22.1053C17 18.1811 20.134 15 24 15ZM24 19.3786C22.5164 19.3786 21.3137 20.5994 21.3137 22.1053C21.3137 23.6112 22.5164 24.832 24 24.832C25.4836 24.832 26.6863 23.6112 26.6863 22.1053C26.6863 20.5994 25.4836 19.3786 24 19.3786Z" fill="#324558"/>
</svg>
