<svg width="48" height="48" viewBox="0 0 48 48" fill="none" xmlns="http://www.w3.org/2000/svg">
<path d="M6 8C6 6.89543 6.89543 6 8 6H40C41.1046 6 42 6.89543 42 8V19.627C40.7399 19.2199 39.3956 19 38 19V14H10V38H26.4644C27.267 39.5399 28.3688 40.8989 29.6929 42H8C6.89543 42 6 41.1046 6 40V8Z" fill="#B6C2CD"/>
<path d="M14 20H18V24H14V20Z" fill="#324558"/>
<path d="M22 20H32.9912C30.918 20.8664 29.117 22.2544 27.7523 24H22V20Z" fill="#324558"/>
<path d="M22 28H25.627C25.2199 29.2601 25 30.6044 25 32H22V28Z" fill="#324558"/>
<path d="M18 28H14V32H18V28Z" fill="#324558"/>
<path fill-rule="evenodd" clip-rule="evenodd" d="M48 32C48 37.5228 43.5228 42 38 42C32.4772 42 28 37.5228 28 32C28 26.4772 32.4772 22 38 22C43.5228 22 48 26.4772 48 32ZM43 32L35 37V27L43 32Z" fill="#324558"/>
</svg>
