<svg width="48" height="48" viewBox="0 0 48 48" fill="none" xmlns="http://www.w3.org/2000/svg">
<path d="M6 8C6 6.89543 6.89543 6 8 6H40C41.1046 6 42 6.89543 42 8V21.1421L38 25.1421V14H10V38H25.1421L25 38.1421V42H8C6.89543 42 6 41.1046 6 40V8Z" fill="#B6C2CD"/>
<path d="M14 20H18V24H14V20Z" fill="#324558"/>
<path d="M34 29.1421L31.1421 32H22V28H34V29.1421Z" fill="#324558"/>
<path d="M22 20H34V24H22V20Z" fill="#324558"/>
<path d="M14 28H18V32H14V28Z" fill="#324558"/>
<path d="M43.3846 24L48 28.6152L44.9231 31.6921L40.3077 27.0768L43.3846 24Z" fill="#324558"/>
<path d="M43.3846 33.231L38.7692 28.6157L28 39.3846V43.9999H32.6154L43.3846 33.231Z" fill="#324558"/>
</svg>
