<svg width="48" height="48" viewBox="0 0 48 48" fill="none" xmlns="http://www.w3.org/2000/svg">
<path d="M9 6C9 4.89543 9.89543 4 11 4H41C42.1046 4 43 4.89543 43 6V18H39V8H13V40H39V36H43V42C43 43.1046 42.1046 44 41 44H11C9.89543 44 9 43.1046 9 42V34H6C5.44772 34 5 33.5523 5 33V27C5 26.4477 5.44772 26 6 26H9V22H6C5.44772 22 5 21.5523 5 21V11C5 10.4477 5.44772 10 6 10H9V6Z" fill="#B6C2CD"/>
<path fill-rule="evenodd" clip-rule="evenodd" d="M16 11H36V37H16V11ZM27.5 15V23.25H32L24.5 33V24.75H20L27.5 15Z" fill="#B6C2CD"/>
<path d="M27.5 15V23.25H32L24.5 33V24.75H20L27.5 15Z" fill="#324558"/>
<path d="M39 21H43V24H39V21Z" fill="#324558"/>
<path d="M39 27H43V33H39V27Z" fill="#324558"/>
</svg>
