<svg width="48" height="48" viewBox="0 0 48 48" fill="none" xmlns="http://www.w3.org/2000/svg">
<path fill-rule="evenodd" clip-rule="evenodd" d="M24 44C35.0457 44 44 35.0457 44 24C44 12.9543 35.0457 4 24 4C12.9543 4 4 12.9543 4 24C4 35.0457 12.9543 44 24 44ZM19 16H22V10H26V16H29L24 21L19 16ZM21 24L16 19V22H10V26H16V29L21 24ZM32 26V29L27 24L32 19V22H38V26H32ZM19 32H22V38H26V32H29L24 27L19 32Z" fill="#B6C2CD"/>
<path d="M22 16H19L24 21L29 16H26V10H22V16Z" fill="#324558"/>
<path d="M16 19L21 24L16 29V26H10V22H16V19Z" fill="#324558"/>
<path d="M32 26V29L27 24L32 19V22H38V26H32Z" fill="#324558"/>
<path d="M22 32H19L24 27L29 32H26V38H22V32Z" fill="#324558"/>
</svg>
