<svg width="48" height="48" viewBox="0 0 48 48" fill="none" xmlns="http://www.w3.org/2000/svg">
<path fill-rule="evenodd" clip-rule="evenodd" d="M8 6C6.89543 6 6 6.89543 6 8V40C6 41.1046 6.89543 42 8 42H40C41.1046 42 42 41.1046 42 40V8C42 6.89543 41.1046 6 40 6H8ZM27 14C27 15.6569 25.6569 17 24 17C22.3431 17 21 15.6569 21 14C21 12.3431 22.3431 11 24 11C25.6569 11 27 12.3431 27 14ZM36 29C36 30.6569 34.6569 32 33 32C31.3431 32 30 30.6569 30 29C30 27.3431 31.3431 26 33 26C34.6569 26 36 27.3431 36 29ZM18 29C18 30.6569 16.6569 32 15 32C13.3431 32 12 30.6569 12 29C12 27.3431 13.3431 26 15 26C16.6569 26 18 27.3431 18 29ZM30 13.9999C30 14.9912 29.7596 15.9263 29.334 16.7502C31.3049 18.2026 32.6621 20.4395 32.9451 23.0002L33 22.9999C34.0922 22.9999 35.1163 23.2918 35.9984 23.8017C35.9277 19.4376 33.5274 15.6398 29.9867 13.5977C29.9955 13.7306 30 13.8648 30 13.9999ZM18.666 16.7502C16.6952 18.2026 15.3379 20.4396 15.0549 23.0002L15 23C13.9078 23 12.8838 23.2918 12.0016 23.8018C12.0723 19.4376 14.4726 15.6398 18.0133 13.5977C18.0045 13.7306 18 13.8648 18 13.9999C18 14.9912 18.2404 15.9263 18.666 16.7502ZM20.1233 32.1245C19.5662 33.036 18.7726 33.7873 17.828 34.2931C19.6313 35.3768 21.7429 35.9999 24 35.9999C26.2572 35.9999 28.3688 35.3768 30.1721 34.2931C29.2274 33.7873 28.4339 33.036 27.8768 32.1245C26.7028 32.6857 25.3881 32.9999 24 32.9999C22.612 32.9999 21.2973 32.6857 20.1233 32.1245Z" fill="#B6C2CD"/>
<path d="M24 17C25.6569 17 27 15.6569 27 14C27 12.3431 25.6569 11 24 11C22.3431 11 21 12.3431 21 14C21 15.6569 22.3431 17 24 17Z" fill="#324558"/>
<path d="M33 32C34.6569 32 36 30.6569 36 29C36 27.3431 34.6569 26 33 26C31.3431 26 30 27.3431 30 29C30 30.6569 31.3431 32 33 32Z" fill="#324558"/>
<path d="M18 29C18 30.6569 16.6569 32 15 32C13.3431 32 12 30.6569 12 29C12 27.3431 13.3431 26 15 26C16.6569 26 18 27.3431 18 29Z" fill="#324558"/>
<path d="M29.334 16.7502C29.7596 15.9263 30 14.9912 30 13.9999C30 13.8648 29.9955 13.7306 29.9867 13.5977C33.5274 15.6398 35.9277 19.4376 35.9984 23.8017C35.1163 23.2918 34.0922 22.9999 33 22.9999L32.9451 23.0002C32.6621 20.4395 31.3049 18.2026 29.334 16.7502Z" fill="#324558"/>
<path d="M18.666 16.7502C16.6952 18.2026 15.3379 20.4396 15.0549 23.0002L15 23C13.9078 23 12.8838 23.2918 12.0016 23.8018C12.0723 19.4376 14.4726 15.6398 18.0133 13.5977C18.0045 13.7306 18 13.8648 18 13.9999C18 14.9912 18.2404 15.9263 18.666 16.7502Z" fill="#324558"/>
<path d="M17.828 34.2931C18.7726 33.7873 19.5662 33.036 20.1233 32.1245C21.2973 32.6857 22.612 32.9999 24 32.9999C25.3881 32.9999 26.7028 32.6857 27.8768 32.1245C28.4339 33.036 29.2274 33.7873 30.1721 34.2931C28.3688 35.3768 26.2572 35.9999 24 35.9999C21.7429 35.9999 19.6313 35.3768 17.828 34.2931Z" fill="#324558"/>
</svg>
