<svg width="48" height="48" viewBox="0 0 48 48" fill="none" xmlns="http://www.w3.org/2000/svg">
<path d="M8 4C6.89543 4 6 4.89543 6 6V28C6 29.1046 6.89543 30 8 30H19V15H26V6C26 4.89543 25.1046 4 24 4H8Z" fill="#B6C2CD"/>
<path fill-rule="evenodd" clip-rule="evenodd" d="M22 18H40C41.1046 18 42 18.8954 42 20V42C42 43.1046 41.1046 44 40 44H24C22.8954 44 22 43.1046 22 42V18ZM33.5 30.25V22L26 31.75H30.5V40L38 30.25H33.5Z" fill="#B6C2CD"/>
<path d="M29.0002 7.22461V10.3851C31.5286 11.3139 33.7266 12.927 35.3697 14.9999H39.0116C36.7859 11.2955 33.2278 8.4828 29.0002 7.22461Z" fill="#324558"/>
<path d="M19.0002 40.7752C14.7726 39.517 11.2145 36.7043 8.98877 32.9999H12.6306C14.2737 35.0728 16.4717 36.6859 19.0002 37.6148V40.7752Z" fill="#324558"/>
<path d="M33.5 21.9999V30.2499H38L30.5 39.9999V31.7499H26L33.5 21.9999Z" fill="#324558"/>
</svg>
