<svg width="48" height="48" viewBox="0 0 48 48" fill="none" xmlns="http://www.w3.org/2000/svg">
<path d="M26 43.9012C36.1066 42.8978 44 34.3707 44 24C44 12.9543 35.0457 4 24 4C12.9543 4 4 12.9543 4 24C4 34.3707 11.8934 42.8978 22 43.9012V29.6586C19.6696 28.8349 18 26.6124 18 24C18 20.6863 20.6863 18 24 18C25.351 18 26.5977 18.4465 27.6006 19.2L34.2009 10.3994C35.4883 11.3666 36.6339 12.5122 37.601 13.7997L28.8005 20.4001C29.3931 21.189 29.7957 22.1288 29.9405 23.1515L40.8312 21.5956C40.9424 22.3811 41 23.1838 41 24C41 24.8162 40.9424 25.619 40.8312 26.4046L29.9405 24.8486C29.6238 27.0856 28.0734 28.9257 26 29.6586V43.9012Z" fill="#B6C2CD"/>
<path d="M41 24C41 24.8162 40.9424 25.619 40.8312 26.4046L29.9405 24.8486C29.6238 27.0856 28.0734 28.9257 26 29.6586V43.9012C25.3422 43.9666 24.675 44 24 44C23.325 44 22.6578 43.9666 22 43.9012V29.6586C19.6696 28.8349 18 26.6124 18 24C18 20.6863 20.6863 18 24 18C25.351 18 26.5977 18.4465 27.6006 19.2L34.2009 10.3994C35.4883 11.3666 36.6339 12.5122 37.601 13.7997L28.8005 20.4001C29.3931 21.189 29.7957 22.1288 29.9405 23.1515L40.8312 21.5956C40.9424 22.3811 41 23.1838 41 24Z" fill="#324558"/>
</svg>
