<svg width="48" height="48" viewBox="0 0 48 48" fill="none" xmlns="http://www.w3.org/2000/svg">
<path d="M18.5 18.1116C16.8584 18.3586 15.3475 19.0046 14.0692 19.9477L7.22571 13.1042C9.82455 9.11136 13.8104 6.10409 18.5 4.76562V18.1116Z" fill="#B6C2CD"/>
<path d="M10 27.9999C10 30.2201 10.7236 32.2714 11.9478 33.9307L8.83679 37.0417C5.82228 33.5401 4 28.9828 4 23.9999C4 21.0977 4.61813 18.34 5.7299 15.8511L11.9478 22.069C10.7236 23.7283 10 25.7796 10 27.9999Z" fill="#B6C2CD"/>
<path d="M20 38.0001C22.2203 38.0001 24.2716 37.2765 25.9309 36.0522L32.1488 42.2701C29.6599 43.3819 26.9021 44.0001 24 44.0001C19.0171 44.0001 14.4598 42.1778 10.9581 39.1633L14.0691 36.0522C15.7285 37.2765 17.7797 38.0001 20 38.0001Z" fill="#B6C2CD"/>
<path d="M29.8883 29.5C29.6414 31.1416 28.9954 32.6526 28.0522 33.9309L34.8957 40.7743C38.8886 38.1755 41.8958 34.1896 43.2343 29.5H29.8883Z" fill="#B6C2CD"/>
<path d="M24 4C28.9829 4 33.5403 5.82228 37.0419 8.83679L25.9309 19.9478C24.6526 19.0047 23.1416 18.3587 21.5 18.1118V4.15473C22.319 4.05261 23.1533 4 24 4Z" fill="#324558"/>
<path d="M29.8883 26.4999C29.6414 24.8583 28.9954 23.3473 28.0522 22.069L39.1633 10.958C42.1778 14.4596 44.0001 19.017 44.0001 23.9999C44.0001 24.8465 43.9474 25.6809 43.8453 26.4999H29.8883Z" fill="#324558"/>
</svg>
