<svg width="48" height="48" viewBox="0 0 48 48" fill="none" xmlns="http://www.w3.org/2000/svg">
<path fill-rule="evenodd" clip-rule="evenodd" d="M23.325 43.3781C23.7068 43.7298 24.2942 43.731 24.6774 43.3806L27.045 41.2158L27.1279 41.1395C37.8965 31.2357 45 24.7026 45 16.6894C45 10.1433 39.918 5 33.45 5C29.796 5 26.289 6.72153 24 9.44196C21.711 6.72153 18.204 5 14.55 5C8.082 5 3 10.1433 3 16.6894C3 24.7166 10.1283 31.2585 20.9284 41.1701L20.955 41.1945L23.325 43.3781ZM3.87598 21.4999H9.22807L15 13.4192L20.7719 21.4999H25.2908C25.8842 20.034 27.3214 19 29 19C31.2091 19 33 20.7909 33 23C33 25.2091 31.2091 27 29 27C27.3213 27 25.8841 25.9659 25.2907 24.4999H19.2281L15 18.5806L10.7719 24.4999H5.30532C4.72263 23.5009 4.24355 22.5046 3.87598 21.4999Z" fill="#B6C2CD"/>
<path d="M9.22807 21.4999H3.87598C4.24355 22.5046 4.72263 23.5009 5.30532 24.4999H10.7719L15 18.5806L19.2281 24.4999H25.2907C25.8841 25.9659 27.3213 27 29 27C31.2091 27 33 25.2091 33 23C33 20.7909 31.2091 19 29 19C27.3214 19 25.8842 20.034 25.2908 21.4999H20.7719L15 13.4192L9.22807 21.4999Z" fill="#324558"/>
</svg>
