<svg width="48" height="48" viewBox="0 0 48 48" fill="none" xmlns="http://www.w3.org/2000/svg">
<path d="M28.6519 23.5293H26.4058V19.4277H28.691C29.3095 19.4342 29.7978 19.6361 30.1558 20.0332C30.5139 20.4303 30.6929 20.9609 30.6929 21.625C30.6929 22.2305 30.5172 22.6992 30.1656 23.0312C29.8205 23.3633 29.316 23.5293 28.6519 23.5293Z" fill="#B6C2CD"/>
<path fill-rule="evenodd" clip-rule="evenodd" d="M6 5C6 4.44772 6.44772 4 7 4H13C13.5523 4 14 4.44772 14 5V8H20V5C20 4.44772 20.4477 4 21 4H27C27.5523 4 28 4.44772 28 5V8H34V5C34 4.44772 34.4477 4 35 4H41C41.5523 4 42 4.44772 42 5V34.9021C42 35.6998 41.526 36.4212 40.7938 36.7378L24.7938 43.6567C24.2873 43.8758 23.7127 43.8758 23.2062 43.6567L7.20618 36.7378C6.47401 36.4212 6 35.6998 6 34.9021V5ZM16.3773 31H19.7953V16.7812H16.3773V31ZM26.4058 31V26.1758H28.5933C30.3251 26.1758 31.6858 25.7624 32.6754 24.9355C33.6715 24.1022 34.1695 22.9922 34.1695 21.6055C34.1695 20.668 33.9384 19.8314 33.4761 19.0957C33.0204 18.3535 32.3726 17.7839 31.5328 17.3867C30.6995 16.9831 29.7392 16.7812 28.6519 16.7812H22.9781V31H26.4058Z" fill="#B6C2CD"/>
<path d="M19.7949 31H16.377V16.7812H19.7949V31Z" fill="#324558"/>
<path d="M26.4055 26.1758V31H22.9777V16.7812H28.6516C29.7388 16.7812 30.6991 16.9831 31.5324 17.3867C32.3723 17.7839 33.0201 18.3535 33.4758 19.0957C33.938 19.8314 34.1691 20.668 34.1691 21.6055C34.1691 22.9922 33.6711 24.1022 32.675 24.9355C31.6854 25.7624 30.3247 26.1758 28.593 26.1758H26.4055ZM26.4055 23.5293H28.6516C29.3156 23.5293 29.8202 23.3633 30.1652 23.0312C30.5168 22.6992 30.6926 22.2305 30.6926 21.625C30.6926 20.9609 30.5135 20.4303 30.1555 20.0332C29.7974 19.6361 29.3091 19.4342 28.6906 19.4277H26.4055V23.5293Z" fill="#324558"/>
</svg>
