<svg width="48" height="48" viewBox="0 0 48 48" fill="none" xmlns="http://www.w3.org/2000/svg">
<path d="M39 20C39 24.7613 36.6232 28.9674 32.9914 31.4966C32.9971 31.3318 33 31.1662 33 31C33 23.268 26.732 17 19 17H13C12.4247 17 11.8574 17.0347 11.3003 17.1021C12.635 10.7607 18.2615 6 25 6C32.732 6 39 12.268 39 20Z" fill="#B6C2CD"/>
<path d="M13 20C6.92487 20 2 24.9249 2 31C2 37.0751 6.92487 42 13 42H19C25.0751 42 30 37.0751 30 31C30 24.9249 25.0751 20 19 20H13Z" fill="#B6C2CD"/>
<path d="M27.6602 42.0001H35.9989C41.5218 42.0001 45.999 37.523 45.999 32.0001C45.999 28.5496 44.2514 25.5073 41.593 23.71C40.4462 28.8622 36.9612 33.1334 32.3092 35.3525C31.4423 38.0054 29.8044 40.3095 27.6602 42.0001Z" fill="#324558"/>
</svg>
