<svg width="48" height="48" viewBox="0 0 48 48" fill="none" xmlns="http://www.w3.org/2000/svg">
<path d="M33.2209 33.1641C33.202 33.1831 33.1831 33.202 33.1641 33.2209C32.3823 37.3256 31.0944 40.8043 29.482 43.2396C36.1206 41.3517 41.3517 36.1206 43.2396 29.482C40.8043 31.0944 37.3256 32.3823 33.2209 33.1641Z" fill="#B6C2CD"/>
<path d="M43.2396 18.5184C41.3517 11.8798 36.1206 6.64862 29.482 4.76074C31.0944 7.19603 32.3823 10.6748 33.1641 14.7795C33.1831 14.7983 33.202 14.8172 33.2209 14.8362C37.3256 15.618 40.8043 16.9059 43.2396 18.5184Z" fill="#B6C2CD"/>
<path d="M14.8362 14.7795C15.6181 10.6748 16.9059 7.19603 18.5184 4.76074C11.8798 6.64862 6.64862 11.8798 4.76074 18.5184C7.19603 16.9059 10.6748 15.618 14.7795 14.8362C14.7983 14.8172 14.8172 14.7983 14.8362 14.7795Z" fill="#B6C2CD"/>
<path d="M14.8362 33.2209C14.8172 33.202 14.7983 33.1831 14.7795 33.1641C10.6748 32.3823 7.19603 31.0944 4.76074 29.482C6.64862 36.1206 11.8798 41.3517 18.5184 43.2396C16.9059 40.8043 15.618 37.3256 14.8362 33.2209Z" fill="#B6C2CD"/>
<path d="M28.3199 8.93272C28.7472 9.91552 29.1364 11.0126 29.4778 12.207C27.8131 11.4325 25.9571 11 24 11C22.0429 11 20.1869 11.4325 18.5222 12.207C18.8636 11.0126 19.2528 9.91552 19.6801 8.93272C20.4871 7.07666 21.3707 5.76402 22.1994 4.9578C23.0142 4.16519 23.6185 4 24 4C24.3815 4 24.9858 4.16519 25.8006 4.9578C26.6293 5.76402 27.5129 7.07666 28.3199 8.93272Z" fill="#324558"/>
<path d="M39.0673 19.6801C38.0845 19.2528 36.9874 18.8636 35.793 18.5222C36.5675 20.1869 37 22.0429 37 24C37 25.9571 36.5675 27.8131 35.793 29.4778C36.9874 29.1364 38.0845 28.7472 39.0673 28.3199C40.9233 27.5129 42.236 26.6293 43.0422 25.8006C43.8348 24.9858 44 24.3815 44 24C44 23.6185 43.8348 23.0142 43.0422 22.1994C42.236 21.3707 40.9233 20.4871 39.0673 19.6801Z" fill="#324558"/>
<path d="M12.207 18.5222C11.0126 18.8635 9.91552 19.2528 8.93272 19.6801C7.07666 20.4871 5.76402 21.3707 4.9578 22.1994C4.16519 23.0142 4 23.6185 4 24V24.0012C4.00034 24.3828 4.166 24.9866 4.9578 25.8006C5.76402 26.6293 7.07666 27.5129 8.93272 28.3199C9.91552 28.7472 11.0126 29.1364 12.207 29.4778C11.4325 27.8131 11 25.9571 11 24C11 22.0429 11.4325 20.1869 12.207 18.5222Z" fill="#324558"/>
<path d="M19.6801 39.0673C19.2528 38.0845 18.8636 36.9874 18.5222 35.793C20.1869 36.5675 22.0429 37 24 37C25.9571 37 27.8131 36.5675 29.4778 35.793C29.1364 36.9874 28.7472 38.0845 28.3199 39.0673C27.5129 40.9233 26.6293 42.236 25.8006 43.0422C24.9858 43.8348 24.3815 44 24 44C23.6185 44 23.0142 43.8348 22.1994 43.0422C21.3707 42.236 20.4871 40.9233 19.6801 39.0673Z" fill="#324558"/>
<path d="M26.7812 20.5961L24 15L21.2188 20.5961L15 21.4934L19.5 25.8493L18.4377 32L24 29.0961L29.5623 32L28.5 25.8493L33 21.4934L26.7812 20.5961Z" fill="#324558"/>
</svg>
