<svg width="48" height="48" viewBox="0 0 48 48" fill="none" xmlns="http://www.w3.org/2000/svg">
<path d="M5 3C3.89543 3 3 3.89543 3 5V43C3 44.1046 3.89543 45 5 45H9C10.1046 45 11 44.1046 11 43V28.5H21.2908C21.8841 29.9659 23.3213 31 25 31C27.2091 31 29 29.2091 29 27C29 24.7909 27.2091 23 25 23C23.3213 23 21.8841 24.0341 21.2908 25.5H11V14.5H11.4666C13.8306 14.5 16.1373 13.7714 18.0725 12.4134L20.0263 11.0423C21.4566 10.0385 23.1616 9.5 24.9089 9.5H32.2908C32.8841 10.9659 34.3213 12 36 12C38.2091 12 40 10.2091 40 8C40 5.79086 38.2091 4 36 4C34.3213 4 32.8841 5.03408 32.2908 6.5H24.9089C22.5448 6.5 20.2382 7.2286 18.303 8.5866L16.3492 9.95773C14.9188 10.9615 13.2139 11.5 11.4666 11.5H11V5C11 3.89543 10.1046 3 9 3H5Z" fill="#B6C2CD"/>
<path d="M11 22V18H33.3414C34.1651 15.6696 36.3876 14 39 14C42.3137 14 45 16.6863 45 20C45 23.3137 42.3137 26 39 26C36.3876 26 34.1651 24.3304 33.3414 22H11Z" fill="#324558"/>
<path d="M11 36.0286V32.019C13.056 32.135 15.0518 32.7785 16.7927 33.8927L18.1139 34.7382C19.4013 35.5621 20.8977 36 22.4262 36H27.3414C28.1651 33.6696 30.3876 32 33 32C36.3137 32 39 34.6863 39 38C39 41.3137 36.3137 44 33 44C30.3876 44 28.1651 42.3304 27.3414 40H22.4262C20.1335 40 17.8888 39.3432 15.9577 38.1073L14.6365 37.2618C13.5396 36.5598 12.2909 36.138 11 36.0286Z" fill="#324558"/>
</svg>
