<svg width="48" height="48" viewBox="0 0 48 48" fill="none" xmlns="http://www.w3.org/2000/svg">
<path fill-rule="evenodd" clip-rule="evenodd" d="M6 8C6 6.89543 6.89543 6 8 6H40C41.1046 6 42 6.89543 42 8V40C42 41.1046 41.1046 42 40 42H8C6.89543 42 6 41.1046 6 40V8ZM24 10H10V22H16V19L22 24L16 29V26H10V38H24V10ZM33 10H28V13H33V10ZM38 19V16H28V19H38ZM38 25V22H28V25H38Z" fill="#B6C2CD"/>
<path d="M10 10H24V38H10V26H16V29L22 24L16 19V22H10V10Z" fill="#324558"/>
<path d="M28 10H33V13H28V10Z" fill="#324558"/>
<path d="M38 19V16H28V19H38Z" fill="#324558"/>
<path d="M38 22V25H28V22H38Z" fill="#324558"/>
</svg>
