<svg width="48" height="48" viewBox="0 0 48 48" fill="none" xmlns="http://www.w3.org/2000/svg">
<path d="M10.8315 13.2358C12.7807 7.84922 17.9408 4 24 4C30.0592 4 35.2193 7.84922 37.1685 13.2358C41.4204 14.1758 44.6554 17.8223 44.9742 22.2757L39 19.7412L31.3186 23H10V31L9.34459 32.3108C5.62977 30.8513 3 27.2327 3 23C3 18.2218 6.35124 14.2263 10.8315 13.2358Z" fill="#B6C2CD"/>
<path fill-rule="evenodd" clip-rule="evenodd" d="M30 26.8182L39 23L48 26.8182V32.5455C48 40.0195 41.561 43.5094 39 44C36.439 43.5094 30 40.0195 30 32.5455V26.8182ZM37.4375 38.1932L45.0943 30.0259L42.9057 27.9741L37.4375 33.8069L35.0943 31.3075L32.9057 33.3593L37.4375 38.1932Z" fill="#324558"/>
<path d="M17.5 26V32.2576C17.5 32.8506 17.3494 33.4338 17.0621 33.9527L15.1083 37.4822C15.6659 38.1697 16 39.0458 16 40C16 42.2091 14.2091 44 12 44C9.79086 44 8 42.2091 8 40C8 37.7909 9.79086 36 12 36C12.1637 36 12.3252 36.0098 12.4838 36.029L14.4375 32.4997C14.4785 32.4256 14.5 32.3423 14.5 32.2576V26H17.5Z" fill="#324558"/>
<path d="M28 40C28 42.2091 26.2091 44 24 44C21.7909 44 20 42.2091 20 40C20 38.3213 21.0341 36.8841 22.5 36.2908V26H25.5V36.2908C26.9659 36.8841 28 38.3213 28 40Z" fill="#324558"/>
</svg>
