<svg width="48" height="48" viewBox="0 0 48 48" fill="none" xmlns="http://www.w3.org/2000/svg">
<path d="M15.5236 23.7109H17.3205C17.8517 23.7109 18.2554 23.5781 18.5314 23.3125C18.8127 23.0469 18.9533 22.6719 18.9533 22.1875C18.9533 21.6562 18.8101 21.2318 18.5236 20.9141C18.2372 20.5964 17.8465 20.4349 17.3517 20.4297H15.5236V23.7109Z" fill="#B6C2CD"/>
<path d="M34.3433 25.2422H36.3902V21.7422L36.2261 22.0078L34.3433 25.2422Z" fill="#B6C2CD"/>
<path fill-rule="evenodd" clip-rule="evenodd" d="M6 14C4.89543 14 4 14.8954 4 16V32C4 33.1046 4.89543 34 6 34H42C43.1046 34 44 33.1046 44 32V16C44 14.8954 43.1046 14 42 14H6ZM7.8208 29.6875H10.5552V18.3125H7.8208V29.6875ZM15.5236 25.8281V29.6875H12.7814V18.3125H17.3205C18.1903 18.3125 18.9585 18.474 19.6252 18.7969C20.2971 19.1146 20.8153 19.5703 21.1799 20.1641C21.5497 20.7526 21.7346 21.4219 21.7346 22.1719C21.7346 23.2812 21.3361 24.1693 20.5392 24.8359C19.7476 25.4974 18.659 25.8281 17.2736 25.8281H15.5236ZM26.8983 26.5547L28.2342 21.2344H31.0077L28.2499 29.6875H25.5624L22.8046 21.2344H25.5858L26.8983 26.5547ZM39.023 25.2422H40.1792V27.2734H39.023V29.6875H36.3902V27.2734H31.9917L31.8355 25.6641L36.3902 18.3359V18.3125H39.023V25.2422Z" fill="#B6C2CD"/>
<path d="M42 11L34 4V7H6V11H42Z" fill="#324558"/>
<path d="M6 37L14 44V41H42V37H6Z" fill="#324558"/>
<path d="M7.8208 29.6875H10.5552V18.3125H7.8208V29.6875Z" fill="#324558"/>
<path fill-rule="evenodd" clip-rule="evenodd" d="M15.5236 29.6875V25.8281H17.2736C18.659 25.8281 19.7476 25.4974 20.5392 24.8359C21.3361 24.1693 21.7346 23.2812 21.7346 22.1719C21.7346 21.4219 21.5497 20.7526 21.1799 20.1641C20.8153 19.5703 20.2971 19.1146 19.6252 18.7969C18.9585 18.474 18.1903 18.3125 17.3205 18.3125H12.7814V29.6875H15.5236ZM17.3205 23.7109H15.5236V20.4297H17.3517C17.8465 20.4349 18.2372 20.5964 18.5236 20.9141C18.8101 21.2318 18.9533 21.6562 18.9533 22.1875C18.9533 22.6719 18.8127 23.0469 18.5314 23.3125C18.2554 23.5781 17.8517 23.7109 17.3205 23.7109Z" fill="#324558"/>
<path d="M26.8983 26.5547L28.2342 21.2344H31.0077L28.2499 29.6875H25.5624L22.8046 21.2344H25.5858L26.8983 26.5547Z" fill="#324558"/>
<path fill-rule="evenodd" clip-rule="evenodd" d="M40.1792 25.2422H39.023V18.3125H36.3902V18.3359L31.8355 25.6641L31.9917 27.2734H36.3902V29.6875H39.023V27.2734H40.1792V25.2422ZM36.3902 25.2422H34.3433L36.2261 22.0078L36.3902 21.7422V25.2422Z" fill="#324558"/>
</svg>
