<svg width="48" height="48" viewBox="0 0 48 48" fill="none" xmlns="http://www.w3.org/2000/svg">
<path d="M35.1714 24.2773C35.4058 24.1159 35.6975 24.0352 36.0464 24.0352C36.4995 24.0352 36.8615 24.2122 37.1324 24.5664C37.4084 24.9154 37.5464 25.3685 37.5464 25.9258C37.5464 26.4674 37.411 26.918 37.1402 27.2773C36.8745 27.6367 36.5412 27.8164 36.1402 27.8164C35.1454 27.8164 34.648 27.0977 34.648 25.6602V24.8711C34.7626 24.6367 34.937 24.4388 35.1714 24.2773Z" fill="#B6C2CD"/>
<path d="M17.3127 23.7148H15.5158V20.4336H17.3439C17.8387 20.4388 18.2293 20.6003 18.5158 20.918C18.8023 21.2357 18.9455 21.6602 18.9455 22.1914C18.9455 22.6758 18.8049 23.0508 18.5236 23.3164C18.2476 23.582 17.8439 23.7148 17.3127 23.7148Z" fill="#B6C2CD"/>
<path fill-rule="evenodd" clip-rule="evenodd" d="M6 14C4.89543 14 4 14.8954 4 16V32C4 33.1046 4.89543 34 6 34H42C43.1046 34 44 33.1046 44 32V16C44 14.8954 43.1046 14 42 14H6ZM38.4214 20.2227V18.1523H38.023C36.8876 18.1523 35.8537 18.418 34.9214 18.9492C33.9891 19.4805 33.2704 20.2148 32.7652 21.1523C32.2652 22.0846 32.0152 23.1367 32.0152 24.3086V25.3633C32.0256 26.2539 32.2079 27.0404 32.562 27.7227C32.9162 28.4049 33.411 28.931 34.0464 29.3008C34.6818 29.6654 35.4032 29.8477 36.2105 29.8477C36.9553 29.8477 37.6324 29.6784 38.2417 29.3398C38.8563 28.9961 39.3329 28.5221 39.6714 27.918C40.0152 27.3138 40.187 26.6497 40.187 25.9258C40.187 24.7591 39.8954 23.8164 39.312 23.0977C38.7287 22.3789 37.9449 22.0195 36.9605 22.0195C36.0542 22.0195 35.3042 22.3112 34.7105 22.8945C34.8563 22.056 35.2443 21.4023 35.8745 20.9336C36.51 20.4596 37.3199 20.2227 38.3042 20.2227H38.4214ZM10.5474 29.6914H7.81299V18.3164H10.5474V29.6914ZM15.5158 29.6914V25.832H17.2658C18.6512 25.832 19.7398 25.5013 20.5314 24.8398C21.3283 24.1732 21.7267 23.2852 21.7267 22.1758C21.7267 21.4258 21.5418 20.7565 21.1721 20.168C20.8075 19.5742 20.2892 19.1185 19.6174 18.8008C18.9507 18.4779 18.1825 18.3164 17.3127 18.3164H12.7736V29.6914H15.5158ZM28.2264 21.2383L26.8905 26.5586L25.578 21.2383H22.7967L25.5546 29.6914H28.2421L30.9999 21.2383H28.2264Z" fill="#B6C2CD"/>
<path d="M42 11L34 4V7H6V11H42Z" fill="#324558"/>
<path d="M6 37L14 44V41H42V37H6Z" fill="#324558"/>
<path fill-rule="evenodd" clip-rule="evenodd" d="M38.4214 20.2227V18.1523H38.023C36.8876 18.1523 35.8537 18.418 34.9214 18.9492C33.9891 19.4805 33.2704 20.2148 32.7652 21.1523C32.2652 22.0846 32.0152 23.1367 32.0152 24.3086V25.3633C32.0256 26.2539 32.2079 27.0404 32.562 27.7227C32.9162 28.4049 33.411 28.931 34.0464 29.3008C34.6818 29.6654 35.4032 29.8477 36.2105 29.8477C36.9553 29.8477 37.6324 29.6784 38.2417 29.3398C38.8563 28.9961 39.3329 28.5221 39.6714 27.918C40.0152 27.3138 40.187 26.6497 40.187 25.9258C40.187 24.7591 39.8954 23.8164 39.312 23.0977C38.7287 22.3789 37.9449 22.0195 36.9605 22.0195C36.0542 22.0195 35.3042 22.3112 34.7105 22.8945C34.8563 22.056 35.2443 21.4023 35.8745 20.9336C36.51 20.4596 37.3199 20.2227 38.3042 20.2227H38.4214ZM35.1714 24.2773C35.4058 24.1159 35.6975 24.0352 36.0464 24.0352C36.4995 24.0352 36.8615 24.2122 37.1324 24.5664C37.4084 24.9154 37.5464 25.3685 37.5464 25.9258C37.5464 26.4674 37.411 26.918 37.1402 27.2773C36.8745 27.6367 36.5412 27.8164 36.1402 27.8164C35.1454 27.8164 34.648 27.0977 34.648 25.6602V24.8711C34.7626 24.6367 34.937 24.4388 35.1714 24.2773Z" fill="#324558"/>
<path d="M7.81299 29.6914H10.5474V18.3164H7.81299V29.6914Z" fill="#324558"/>
<path fill-rule="evenodd" clip-rule="evenodd" d="M15.5158 29.6914V25.832H17.2658C18.6512 25.832 19.7398 25.5013 20.5314 24.8398C21.3283 24.1732 21.7267 23.2852 21.7267 22.1758C21.7267 21.4258 21.5418 20.7565 21.1721 20.168C20.8075 19.5742 20.2892 19.1185 19.6174 18.8008C18.9507 18.4779 18.1825 18.3164 17.3127 18.3164H12.7736V29.6914H15.5158ZM17.3127 23.7148H15.5158V20.4336H17.3439C17.8387 20.4388 18.2293 20.6003 18.5158 20.918C18.8023 21.2357 18.9455 21.6602 18.9455 22.1914C18.9455 22.6758 18.8049 23.0508 18.5236 23.3164C18.2476 23.582 17.8439 23.7148 17.3127 23.7148Z" fill="#324558"/>
<path d="M26.8905 26.5586L28.2264 21.2383H30.9999L28.2421 29.6914H25.5546L22.7967 21.2383H25.578L26.8905 26.5586Z" fill="#324558"/>
</svg>
