<svg width="48" height="48" viewBox="0 0 48 48" fill="none" xmlns="http://www.w3.org/2000/svg">
<path d="M24 41C33.3888 41 41 33.3888 41 24C41 14.6112 33.3888 7 24 7C21.3511 7 18.8436 7.60586 16.6087 8.68657C16.1486 7.37215 15.3074 6.23674 14.2177 5.4128C17.139 3.87213 20.4677 3 24 3C35.598 3 45 12.402 45 24C45 35.598 35.598 45 24 45C20.4677 45 17.139 44.1279 14.2177 42.5872C15.3074 41.7633 16.1486 40.6279 16.6087 39.3134C18.8436 40.3941 21.3511 41 24 41Z" fill="#B6C2CD"/>
<path d="M3 24L3.00005 23.9532V24.0468L3 24Z" fill="#B6C2CD"/>
<path d="M11.5 14.7092C12.9659 14.1159 14 12.6787 14 11C14 8.79086 12.2091 7 10 7C7.79086 7 6 8.79086 6 11C6 12.6787 7.03408 14.1159 8.5 14.7092V17.1611C5.35482 17.8478 3 20.6489 3 24C3 27.3511 5.35482 30.1522 8.5 30.8389V33.2908C7.03408 33.8841 6 35.3213 6 37C6 39.2091 7.79086 41 10 41C12.2091 41 14 39.2091 14 37C14 35.3213 12.9659 33.8841 11.5 33.2908V30.8389C13.2532 30.4562 14.7608 29.4164 15.7518 27.9907L23.0001 30.9752L23 31C23 33.2091 24.7909 35 27 35C29.2091 35 31 33.2091 31 31C31 28.7909 29.2091 27 27 27C25.8805 27 24.8683 27.4599 24.1423 28.2012L16.8946 25.2168C16.9639 24.8216 17 24.415 17 24C17 23.585 16.9639 23.1784 16.8946 22.7833L24.1424 19.7989C24.8684 20.5401 25.8805 21 27 21C29.2091 21 31 19.2091 31 17C31 14.7909 29.2091 13 27 13C24.7909 13 23 14.7909 23 17L23.0001 17.0249L15.7519 20.0094C14.7608 18.5836 13.2532 17.5439 11.5 17.1611V14.7092Z" fill="#324558"/>
</svg>
