<svg width="48" height="48" viewBox="0 0 48 48" fill="none" xmlns="http://www.w3.org/2000/svg">
<path d="M30.7519 21C31.5547 19.1626 32 17.1333 32 15C32 12.8667 31.5547 10.8374 30.7519 9H41C42.1046 9 43 9.89543 43 11V19C43 20.1046 42.1046 21 41 21H30.7519Z" fill="#B6C2CD"/>
<path d="M24 28.2699C25.9666 27.2303 27.6743 25.7664 29.0011 24H41C42.1046 24 43 24.8954 43 26V34C43 35.1046 42.1046 36 41 36H24V28.2699Z" fill="#B6C2CD"/>
<path fill-rule="evenodd" clip-rule="evenodd" d="M5 15C5 20.2249 8.33923 24.6698 13 26.3172L13 30H10C9.44771 30 9 30.4477 9 31V37C9 37.5523 9.44771 38 10 38H13V41.1716C13 41.702 13.2107 42.2107 13.5858 42.5858L16.2929 45.2929C16.6834 45.6834 17.3166 45.6834 17.7071 45.2929L20.4142 42.5858C20.7893 42.2107 21 41.702 21 41.1716L21 26.3172C25.6608 24.6698 29 20.2249 29 15C29 8.37258 23.6274 3 17 3C10.3726 3 5 8.37258 5 15ZM13 15C13 17.2091 14.7909 19 17 19C19.2091 19 21 17.2091 21 15C21 12.7909 19.2091 11 17 11C14.7909 11 13 12.7909 13 15Z" fill="#324558"/>
</svg>
