<svg width="48" height="48" viewBox="0 0 48 48" fill="none" xmlns="http://www.w3.org/2000/svg">
<path d="M24.4672 4.42343C23.6862 3.64238 22.4199 3.64238 21.6388 4.42343L16.6261 9.43619L23.053 15.8632L29.48 9.43619L24.4672 4.42343Z" fill="#B6C2CD"/>
<path d="M29.48 24.0441L23.053 17.6171L16.6261 24.0441L23.053 30.471L29.48 24.0441Z" fill="#B6C2CD"/>
<path d="M23.053 32.1461L29.48 38.5731L24.4672 43.5859C23.6862 44.3669 22.4199 44.3669 21.6388 43.5859L16.6261 38.5731L23.053 32.1461Z" fill="#B6C2CD"/>
<path d="M22.1597 31.374L15.7327 24.947L9.30576 31.374L15.7327 37.801L22.1597 31.374Z" fill="#B6C2CD"/>
<path d="M8.46232 17.6171L14.8893 24.0441L8.46232 30.471L3.44956 25.4583C2.66851 24.6772 2.66851 23.4109 3.44956 22.6298L8.46232 17.6171Z" fill="#B6C2CD"/>
<path d="M22.1597 16.7136L15.7327 10.2866L9.30576 16.7136L15.7327 23.1406L22.1597 16.7136Z" fill="#B6C2CD"/>
<path d="M32.3414 10.4459L37.4239 17.9811L29.8887 23.0637L24.8062 15.5285L32.3414 10.4459Z" fill="#324558"/>
<path d="M42.8561 19.0264L45.9647 27.5674L37.4238 30.676L34.3151 22.135L42.8561 19.0264Z" fill="#324558"/>
<path d="M37.2221 31.9149L32.6776 24.0435L24.8062 28.5881L29.3507 36.4595L37.2221 31.9149Z" fill="#324558"/>
</svg>
