<svg width="48" height="48" viewBox="0 0 48 48" fill="none" xmlns="http://www.w3.org/2000/svg">
<path fill-rule="evenodd" clip-rule="evenodd" d="M6 13C4.89543 13 4 13.8954 4 15V41C4 42.1046 4.89543 43 6 43H42C43.1046 43 44 42.1046 44 41V15C44 13.8954 43.1046 13 42 13H6ZM24 37C28.9706 37 33 32.9706 33 28C33 23.0294 28.9706 19 24 19C19.0294 19 15 23.0294 15 28C15 32.9706 19.0294 37 24 37Z" fill="#B6C2CD"/>
<path d="M22.9124 9.08381C23.2669 9.02851 23.6302 8.99981 24.0001 8.99981C24.37 8.99981 24.7332 9.0285 25.0876 9.08378L30.5859 3.58545L33.4144 6.41388L28.8633 10.965C29.4653 11.5465 29.9632 12.2351 30.3266 13H17.6737C18.037 12.2351 18.5349 11.5466 19.1368 10.9651L14.5859 6.41418L17.4144 3.58575L22.9124 9.08381Z" fill="#324558"/>
<path d="M20.0001 34L30.0001 28L20.0001 22V34Z" fill="#324558"/>
</svg>
