<svg width="48" height="48" viewBox="0 0 48 48" fill="none" xmlns="http://www.w3.org/2000/svg">
<path fill-rule="evenodd" clip-rule="evenodd" d="M25 3.57728C24.3812 3.22001 23.6188 3.22001 23 3.57728L6.81348 12.9226C6.19467 13.2798 5.81348 13.9401 5.81348 14.6546V33.3452C5.81348 34.0598 6.19467 34.72 6.81348 35.0773L23 44.4226C23.6188 44.7798 24.3812 44.7798 25 44.4226L41.1865 35.0773C41.8053 34.72 42.1865 34.0598 42.1865 33.3452V14.6546C42.1865 13.9401 41.8053 13.2798 41.1865 12.9226L25 3.57728ZM28 15C28 16.6787 26.9659 18.1159 25.5 18.7092V37H22.5V18.7092C21.0341 18.1159 20 16.6787 20 15C20 12.7909 21.7909 11 24 11C26.2091 11 28 12.7909 28 15ZM16.5 22.2908V16H13.5V22.2908C12.0341 22.8841 11 24.3213 11 26C11 27.6787 12.0341 29.1159 13.5 29.7092V32H16.5V29.7092C17.9659 29.1159 19 27.6787 19 26C19 24.3213 17.9659 22.8841 16.5 22.2908ZM34.5 32V27.7092C35.9659 27.1159 37 25.6787 37 24C37 22.3213 35.9659 20.8841 34.5 20.2908V16H31.5V20.2908C30.0341 20.8841 29 22.3213 29 24C29 25.6787 30.0341 27.1159 31.5 27.7092V32H34.5Z" fill="#B6C2CD"/>
<path d="M28 15C28 16.6787 26.9659 18.1159 25.5 18.7092V37H22.5V18.7092C21.0341 18.1159 20 16.6787 20 15C20 12.7909 21.7909 11 24 11C26.2091 11 28 12.7909 28 15Z" fill="#324558"/>
<path d="M16.5 22.2908V16H13.5V22.2908C12.0341 22.8841 11 24.3213 11 26C11 27.6787 12.0341 29.1159 13.5 29.7092V32H16.5V29.7092C17.9659 29.1159 19 27.6787 19 26C19 24.3213 17.9659 22.8841 16.5 22.2908Z" fill="#324558"/>
<path d="M34.5 27.7092V32H31.5V27.7092C30.0341 27.1159 29 25.6787 29 24C29 22.3213 30.0341 20.8841 31.5 20.2908V16H34.5V20.2908C35.9659 20.8841 37 22.3213 37 24C37 25.6787 35.9659 27.1159 34.5 27.7092Z" fill="#324558"/>
</svg>
