<svg width="48" height="48" viewBox="0 0 48 48" fill="none" xmlns="http://www.w3.org/2000/svg">
<path d="M22 24V27H18V24C18 22.8954 18.8954 22 20 22C21.1046 22 22 22.8954 22 24Z" fill="#B6C2CD"/>
<path fill-rule="evenodd" clip-rule="evenodd" d="M6 12C4.89543 12 4 12.8954 4 14V42C4 43.1046 4.89543 44 6 44H34C35.1046 44 36 43.1046 36 42V14C36 12.8954 35.1046 12 34 12H6ZM13 27H15V24C15 21.2386 17.2386 19 20 19C22.7614 19 25 21.2386 25 24V27H27V37H13V27Z" fill="#B6C2CD"/>
<path d="M20 8V12H16V6C16 4.89543 16.8954 4 18 4H42C43.1046 4 44 4.89543 44 6V30C44 31.1046 43.1046 32 42 32H36V28H40V8H20Z" fill="#324558"/>
<path fill-rule="evenodd" clip-rule="evenodd" d="M13 27H15V24C15 21.2386 17.2386 19 20 19C22.7614 19 25 21.2386 25 24V27H27V37H13V27ZM22 24V27H18V24C18 22.8954 18.8954 22 20 22C21.1046 22 22 22.8954 22 24Z" fill="#324558"/>
</svg>
