<svg width="48" height="48" viewBox="0 0 48 48" fill="none" xmlns="http://www.w3.org/2000/svg">
<path fill-rule="evenodd" clip-rule="evenodd" d="M6 6C4.89543 6 4 6.89543 4 8V32C4 33.1046 4.89543 34 6 34H42C43.1046 34 44 33.1046 44 32V8C44 6.89543 43.1046 6 42 6H6ZM26 13L34 20L26 27V22H14V18H26V13Z" fill="#B6C2CD"/>
<path d="M34 20L26 13V18H14V22H26V27L34 20Z" fill="#324558"/>
<path d="M27 34H21V37.9821C20.7141 38.1063 18.7807 38.9034 16.0347 38.996C15.4695 39.015 15 39.4649 15 40.0304V41.9955H21V42H27V41.9955H33V40.0304C33 39.4649 32.5305 39.015 31.9653 38.996C29.2193 38.9034 27.2859 38.1063 27 37.9821V34Z" fill="#324558"/>
</svg>
