<svg width="48" height="48" viewBox="0 0 48 48" fill="none" xmlns="http://www.w3.org/2000/svg">
<path d="M31 18.9999C32.1046 18.9999 33 18.1044 33 16.9999C33 15.8953 32.1046 14.9999 31 14.9999C29.8955 14.9999 29 15.8953 29 16.9999C29 18.1044 29.8955 18.9999 31 18.9999Z" fill="#B6C2CD"/>
<path d="M20 31.2C21.7673 31.2 23.2 29.7673 23.2 28C23.2 26.2327 21.7673 24.8 20 24.8C18.2327 24.8 16.8 26.2327 16.8 28C16.8 29.7673 18.2327 31.2 20 31.2Z" fill="#B6C2CD"/>
<path fill-rule="evenodd" clip-rule="evenodd" d="M24 44C35.0457 44 44 35.0457 44 24C44 12.9543 35.0457 4 24 4C12.9543 4 4 12.9543 4 24C4 35.0457 12.9543 44 24 44ZM29.5629 13.2617L29.8134 12H32.1866L32.4371 13.2617C32.8547 13.4169 33.2409 13.6337 33.58 13.9072L34.8134 13.4893L36 15.5107L35.0131 16.3535C35.0481 16.5645 35.0708 16.7793 35.0708 17C35.0708 17.2207 35.0481 17.4355 35.0131 17.6465L36 18.4893L34.8134 20.5107L33.58 20.0928C33.2409 20.3663 32.8547 20.5831 32.4371 20.7383L32.1866 22H29.8134L29.5629 20.7383C29.1453 20.5831 28.7591 20.3663 28.42 20.0928L27.1866 20.5107L26 18.4893L26.9869 17.6465C26.9519 17.4355 26.9292 17.2207 26.9292 17C26.9292 16.7793 26.9519 16.5645 26.9869 16.3535L26 15.5107L27.1866 13.4893L28.42 13.9072C28.7591 13.6337 29.1453 13.4169 29.5629 13.2617ZM17.7007 22.0187L18.1014 20H21.8986L22.2993 22.0187C22.9676 22.267 23.5854 22.6139 24.128 23.0516L26.1014 22.3828L28 25.6172L26.421 26.9656C26.477 27.3032 26.5132 27.6469 26.5132 28C26.5132 28.3531 26.477 28.6968 26.421 29.0344L28 30.3828L26.1014 33.6172L24.128 32.9484C23.5854 33.3861 22.9676 33.733 22.2993 33.9813L21.8986 36H18.1014L17.7007 33.9813C17.0324 33.733 16.4146 33.3861 15.872 32.9484L13.8986 33.6172L12 30.3828L13.579 29.0344C13.523 28.6968 13.4868 28.3531 13.4868 28C13.4868 27.6469 13.523 27.3032 13.579 26.9656L12 25.6172L13.8986 22.3828L15.872 23.0516C16.4146 22.6139 17.0324 22.267 17.7007 22.0187Z" fill="#B6C2CD"/>
<path fill-rule="evenodd" clip-rule="evenodd" d="M29.8134 12L29.5629 13.2617C29.1453 13.4169 28.7591 13.6337 28.42 13.9072L27.1866 13.4893L26 15.5107L26.9869 16.3535C26.9519 16.5645 26.9292 16.7793 26.9292 17C26.9292 17.2207 26.9519 17.4355 26.9869 17.6465L26 18.4893L27.1866 20.5107L28.42 20.0928C28.7591 20.3663 29.1453 20.5831 29.5629 20.7383L29.8134 22H32.1866L32.4371 20.7383C32.8547 20.5831 33.2409 20.3663 33.58 20.0928L34.8134 20.5107L36 18.4893L35.0131 17.6465C35.0481 17.4355 35.0708 17.2207 35.0708 17C35.0708 16.7793 35.0481 16.5645 35.0131 16.3535L36 15.5107L34.8134 13.4893L33.58 13.9072C33.2409 13.6337 32.8547 13.4169 32.4371 13.2617L32.1866 12H29.8134ZM33 16.9999C33 18.1044 32.1046 18.9999 31 18.9999C29.8955 18.9999 29 18.1044 29 16.9999C29 15.8953 29.8955 14.9999 31 14.9999C32.1046 14.9999 33 15.8953 33 16.9999Z" fill="#324558"/>
<path fill-rule="evenodd" clip-rule="evenodd" d="M18.1014 20L17.7007 22.0188C17.0324 22.267 16.4146 22.6139 15.872 23.0516L13.8986 22.3828L12 25.6172L13.579 26.9656C13.523 27.3032 13.4868 27.6469 13.4868 28C13.4868 28.3531 13.523 28.6968 13.579 29.0344L12 30.3828L13.8986 33.6172L15.872 32.9484C16.4146 33.3861 17.0324 33.733 17.7007 33.9813L18.1014 36H21.8986L22.2993 33.9813C22.9676 33.733 23.5854 33.3861 24.128 32.9484L26.1014 33.6172L28 30.3828L26.421 29.0344C26.477 28.6968 26.5132 28.3531 26.5132 28C26.5132 27.6469 26.477 27.3032 26.421 26.9656L28 25.6172L26.1014 22.3828L24.128 23.0516C23.5854 22.6139 22.9676 22.267 22.2993 22.0188L21.8986 20H18.1014ZM23.2 28C23.2 29.7673 21.7673 31.2 20 31.2C18.2327 31.2 16.8 29.7673 16.8 28C16.8 26.2327 18.2327 24.8 20 24.8C21.7673 24.8 23.2 26.2327 23.2 28Z" fill="#324558"/>
</svg>
