<svg width="48" height="48" viewBox="0 0 48 48" fill="none" xmlns="http://www.w3.org/2000/svg">
<path d="M24.9314 2.49017C24.3483 2.18329 23.6515 2.18329 23.0684 2.49017L6.68123 11.115C5.96889 11.4899 5.96889 12.5099 6.68123 12.8848L12.2046 15.7919L16.509 13.5372L13.5882 11.9999L23.9999 6.52011L34.4115 11.9999L31.491 13.537L35.7954 15.7917L41.3185 12.8848C42.0309 12.5099 42.0309 11.4899 41.3185 11.115L24.9314 2.49017Z" fill="#B6C2CD"/>
<path d="M12.2046 32.208L6.68123 35.115C5.96889 35.4899 5.96889 36.5099 6.68123 36.8848L23.0684 45.5097C23.6515 45.8165 24.3483 45.8165 24.9314 45.5097L41.3185 36.8848C42.0309 36.5099 42.0309 35.4899 41.3185 35.115L35.7954 32.2081L31.4909 34.4628L34.4115 35.9999L23.9999 41.4797L13.5882 35.9999L16.509 34.4627L12.2046 32.208Z" fill="#B6C2CD"/>
<path d="M24 13L45 24L24 35L3 24L24 13Z" fill="#324558"/>
</svg>
