<svg width="48" height="48" viewBox="0 0 48 48" fill="none" xmlns="http://www.w3.org/2000/svg">
<path fill-rule="evenodd" clip-rule="evenodd" d="M5 6C5 4.89543 5.89543 4 7 4H27C28.1046 4 29 4.89543 29 6V34C29 35.1046 28.1046 36 27 36H7C5.89543 36 5 35.1046 5 34V6ZM23 13L17 18V15H11V11H17V8L23 13ZM17 29H11V25H17V22L23 27L17 32V29Z" fill="#B6C2CD"/>
<path d="M43 29L37 34V31H31V27H37V24L43 29Z" fill="#B6C2CD"/>
<path d="M17 18L23 13L17 8V11H11V15H17V18Z" fill="#324558"/>
<path d="M11 29H17V32L23 27L17 22V25H11V29Z" fill="#324558"/>
<path d="M43 18H29V14H43V18Z" fill="#324558"/>
<path d="M19 42V36H23V40H43V44H21C19.8954 44 19 43.1046 19 42Z" fill="#324558"/>
</svg>
