<svg width="48" height="48" viewBox="0 0 48 48" fill="none" xmlns="http://www.w3.org/2000/svg">
<path fill-rule="evenodd" clip-rule="evenodd" d="M6 6C4.89543 6 4 6.89543 4 8V32C4 33.1046 4.89543 34 6 34H42C43.1046 34 44 33.1046 44 32V8C44 6.89543 43.1046 6 42 6H6ZM20.0745 9.88232L25.3092 24.016L30.0636 15.9335L32.7641 20.9934H39V23.9934H30.9647L29.9364 22.0666L24.6908 30.9841L19.9255 18.1178L17.5042 23.9934H9V20.9934H15.4958L20.0745 9.88232Z" fill="#B6C2CD"/>
<path d="M25.3092 24.016L20.0745 9.88232L15.4958 20.9934H9V23.9934H17.5042L19.9255 18.1178L24.6908 30.9841L29.9364 22.0666L30.9647 23.9934H39V20.9934H32.7641L30.0636 15.9335L25.3092 24.016Z" fill="#324558"/>
<path d="M36 38H12V42H36V38Z" fill="#324558"/>
</svg>
