<svg width="48" height="48" viewBox="0 0 48 48" fill="none" xmlns="http://www.w3.org/2000/svg">
<path d="M18.3431 29.6569C16.8954 28.2092 16 26.2092 16 24C16 21.7909 16.8954 19.7909 18.3431 18.3432L7.73654 7.73657C3.57436 11.8988 1 17.6488 1 24C1 30.3513 3.57436 36.1013 7.73654 40.2635L18.3431 29.6569Z" fill="#B6C2CD"/>
<path d="M40.2635 40.2635C44.4256 36.1013 47 30.3513 47 24C47 17.6488 44.4256 11.8988 40.2635 7.73657L29.6569 18.3432C31.1046 19.7909 32 21.7909 32 24C32 26.2092 31.1046 28.2092 29.6569 29.6569L40.2635 40.2635Z" fill="#B6C2CD"/>
<path d="M17.0665 10.1334C19.1528 9.08822 21.5077 8.5 24 8.5C26.4922 8.5 28.847 9.08817 30.9332 10.1333L32.2751 7.44941C29.7852 6.20202 26.9746 5.5 24 5.5C21.0253 5.5 18.2147 6.20207 15.7246 7.44955L17.0665 10.1334Z" fill="#324558"/>
<path d="M32.2751 40.5506L30.9332 37.8667C28.847 38.9118 26.4922 39.5 24 39.5C21.5077 39.5 19.1528 38.9118 17.0665 37.8666L15.7246 40.5505C18.2147 41.7979 21.0253 42.5 24 42.5C26.9746 42.5 29.7852 41.798 32.2751 40.5506Z" fill="#324558"/>
<path d="M27.9999 24C27.9999 21.7909 26.209 20 23.9999 20C21.7907 20 19.9999 21.7909 19.9999 24C19.9999 26.2091 21.7907 28 23.9999 28C26.209 28 27.9999 26.2091 27.9999 24Z" fill="#324558"/>
<path d="M23.9998 14.5C22.4723 14.5 21.029 14.8605 19.7504 15.5011L18.4084 12.8172C20.0909 11.9743 21.99 11.5 23.9998 11.5C26.0097 11.5 27.9088 11.9744 29.5912 12.8172L28.2493 15.5011C26.9706 14.8605 25.5273 14.5 23.9998 14.5Z" fill="#324558"/>
<path d="M28.2493 32.4989L29.5912 35.1828C27.9088 36.0256 26.0097 36.5 23.9998 36.5C21.99 36.5 20.0909 36.0257 18.4084 35.1828L19.7504 32.4989C21.029 33.1395 22.4723 33.5 23.9998 33.5C25.5273 33.5 26.9706 33.1395 28.2493 32.4989Z" fill="#324558"/>
</svg>
