<svg width="48" height="48" viewBox="0 0 48 48" fill="none" xmlns="http://www.w3.org/2000/svg">
<path d="M23.5977 25.4453H26.043L24.8164 21.5L23.5977 25.4453Z" fill="#B6C2CD"/>
<path fill-rule="evenodd" clip-rule="evenodd" d="M5 13C3.89543 13 3 13.8954 3 15V33C3 34.1046 3.89543 35 5 35H43C44.1046 35 45 34.1046 45 33V15C45 13.8954 44.1046 13 43 13H5ZM14.9967 29.6875H17.7233V18.3125H14.9889V25.3906L10.9655 18.3125H8.22328V29.6875H10.9655V22.6094L14.9967 29.6875ZM26.6992 27.5625H22.9414L22.2852 29.6875H19.3555L23.5273 18.3125H26.1055L30.3086 29.6875H27.3633L26.6992 27.5625ZM39.7767 20.4297H36.3627V29.6875H33.6205V20.4297H30.2689V18.3125H39.7767V20.4297Z" fill="#B6C2CD"/>
<path d="M10 3L4 7L10 11L10 8.5H15.9955L17.8484 13H21.0928L18.642 7.04813C18.2563 6.11137 17.3434 5.5 16.3303 5.5H10V3Z" fill="#324558"/>
<path d="M15.9955 39.5L17.8484 35H21.0928L18.642 40.9519C18.2563 41.8886 17.3434 42.5 16.3303 42.5H10L10 45L4 41L10 37V39.5H15.9955Z" fill="#324558"/>
<path d="M29.358 40.9519L26.9072 35H30.1516L32.0045 39.5H38V37L44 41L38 45V42.5H31.6697C30.6566 42.5 29.7437 41.8886 29.358 40.9519Z" fill="#324558"/>
<path d="M32.0045 8.5L30.1516 13H26.9072L29.358 7.04813C29.7437 6.11137 30.6566 5.5 31.6697 5.5H38V3L44 7L38 11V8.5H32.0045Z" fill="#324558"/>
<path d="M17.7233 29.6875H14.9967L10.9655 22.6094V29.6875H8.22328V18.3125H10.9655L14.9889 25.3906V18.3125H17.7233V29.6875Z" fill="#324558"/>
<path fill-rule="evenodd" clip-rule="evenodd" d="M26.6992 27.5625H22.9414L22.2852 29.6875H19.3555L23.5273 18.3125H26.1055L30.3086 29.6875H27.3633L26.6992 27.5625ZM23.5977 25.4453H26.043L24.8164 21.5L23.5977 25.4453Z" fill="#324558"/>
<path d="M36.3627 20.4297H39.7767V18.3125H30.2689V20.4297H33.6205V29.6875H36.3627V20.4297Z" fill="#324558"/>
</svg>
