<svg width="48" height="48" viewBox="0 0 48 48" fill="none" xmlns="http://www.w3.org/2000/svg">
<path fill-rule="evenodd" clip-rule="evenodd" d="M12 8V36H21V39H24V36H27V39H30V36H33V39H36V36H40C41.1046 36 42 35.1046 42 34V10C42 8.89543 41.1046 8 40 8H12ZM27 17H37V27H27V23.5H20.5987C20.0799 24.3967 19.1104 25 18 25C16.3431 25 15 23.6569 15 22C15 20.3431 16.3431 19 18 19C19.1104 19 20.0799 19.6033 20.5987 20.5H27V17Z" fill="#B6C2CD"/>
<path d="M6 8C6 6.89543 6.89543 6 8 6H12V42H8C6.89543 42 6 41.1046 6 40V8Z" fill="#324558"/>
<path d="M39 36H36V39H33V36H30V39H27V36H24V39H21V36H18V42H39V36Z" fill="#324558"/>
<path d="M37 17H27V20.5H20.5987C20.0799 19.6033 19.1104 19 18 19C16.3431 19 15 20.3431 15 22C15 23.6569 16.3431 25 18 25C19.1104 25 20.0799 24.3967 20.5987 23.5H27V27H37V17Z" fill="#324558"/>
</svg>
