<svg width="48" height="48" viewBox="0 0 48 48" fill="none" xmlns="http://www.w3.org/2000/svg">
<path d="M10 44C13.3137 44 16 41.3137 16 38C16 34.6863 13.3137 32 10 32C6.68629 32 4 34.6863 4 38C4 41.3137 6.68629 44 10 44Z" fill="#B6C2CD"/>
<path d="M38 44C41.3137 44 44 41.3137 44 38C44 34.6863 41.3137 32 38 32C34.6863 32 32 34.6863 32 38C32 41.3137 34.6863 44 38 44Z" fill="#B6C2CD"/>
<path fill-rule="evenodd" clip-rule="evenodd" d="M32 12C32 15.7277 29.4505 18.8599 26 19.748V24.2654L38.2828 26.0201C39.2681 26.1609 40 27.0047 40 28V32.3414C39.3744 32.1203 38.7013 32 38 32C37.2987 32 36.6256 32.1203 36 32.3414V29.7346L24 28.0203L12 29.7346V32.3414C11.3744 32.1203 10.7013 32 10 32C9.29873 32 8.62556 32.1203 8 32.3414V28C8 27.0047 8.73186 26.1609 9.71716 26.0201L22 24.2654V19.748C18.5495 18.8599 16 15.7277 16 12C16 7.58172 19.5817 4 24 4C28.4183 4 32 7.58172 32 12ZM24 16C26.2091 16 28 14.2091 28 12C28 9.79086 26.2091 8 24 8C21.7909 8 20 9.79086 20 12C20 14.2091 21.7909 16 24 16Z" fill="#324558"/>
</svg>
