<svg width="48" height="48" viewBox="0 0 48 48" fill="none" xmlns="http://www.w3.org/2000/svg">
<path fill-rule="evenodd" clip-rule="evenodd" d="M12.6041 41.0444C15.5521 43.9923 19.5504 45.6485 23.7195 45.6485L23.7001 36.0789C23.7001 35.9762 23.7409 35.8777 23.8135 35.8051C23.8862 35.7325 23.9847 35.6917 24.0874 35.6917H29.4589V30.3163C29.4589 30.2136 29.4997 30.1151 29.5723 30.0425C29.6449 29.9698 29.7434 29.929 29.8461 29.929H39.4389C39.4389 22.876 34.2196 16.0958 30.2664 10.9602C30.0323 10.6562 29.8027 10.3579 29.5789 10.0657C27.4135 7.25517 25.5068 4.25447 23.8821 1.10032C23.867 1.07017 23.8437 1.04481 23.815 1.0271C23.7863 1.00938 23.7532 1 23.7195 1C23.6857 1 23.6526 1.00938 23.6239 1.0271C23.5952 1.04481 23.572 1.07017 23.5568 1.10032C21.9319 4.25436 20.0252 7.25504 17.86 10.0657C17.6347 10.3599 17.4036 10.6601 17.1679 10.9662C13.2153 16.1006 8 22.8751 8 29.929C8 34.0981 9.65615 38.0964 12.6041 41.0444ZM20.2604 8.61328C20.0844 8.84801 19.9097 9.09696 19.7348 9.34635C19.6211 9.50842 19.5073 9.67068 19.3929 9.82932C18.7281 10.7456 18.039 11.6438 17.3505 12.5412C17.0845 12.8879 16.8186 13.2346 16.5542 13.582C16.9415 13.6324 17.2978 13.6905 17.6734 13.7524C17.9813 13.2259 18.2972 12.6999 18.6138 12.1729C19.0934 11.3744 19.5747 10.573 20.0319 9.76349L20.1636 9.52342C20.3314 9.21717 20.4973 8.91444 20.6632 8.62877C20.8258 8.33057 20.4386 8.35768 20.2604 8.61328ZM16.9379 14.9845C16.5119 14.9019 16.0873 14.8256 15.6639 14.7559C14.318 16.5574 13.0891 18.4434 11.9848 20.4023C10.0097 23.9846 8.63871 27.989 9.27384 32.1251C9.81002 35.561 11.5456 38.6961 14.1729 40.9743C14.731 41.4567 15.3253 41.8956 15.9504 42.2872C15.9899 42.3094 16.0359 42.3168 16.0803 42.3081C16.1248 42.2994 16.1646 42.275 16.1926 42.2395C16.2207 42.204 16.2351 42.1596 16.2333 42.1144C16.2315 42.0691 16.2136 42.0261 16.1828 41.9929C14.1452 40.029 12.6737 37.5529 11.9228 34.8244C10.761 30.4869 11.7253 26.041 13.3983 21.9708C14.3042 19.8228 15.3441 17.7339 16.512 15.7163C16.6514 15.4724 16.7946 15.2284 16.9379 14.9845Z" fill="#B6C2CD"/>
<path d="M35.6239 36.0711V30.9397H30.8565C30.7538 30.9397 30.6553 30.9805 30.5827 31.0531C30.51 31.1258 30.4692 31.2243 30.4692 31.327V36.0904L35.6239 36.0711Z" fill="#324558"/>
<path d="M29.8617 36.6985V41.8337L24.7109 41.8492V37.0858C24.7109 36.983 24.7517 36.8845 24.8244 36.8119C24.897 36.7393 24.9955 36.6985 25.0982 36.6985H29.8617Z" fill="#324558"/>
<path d="M29.8656 45.9737C28.223 46.5946 26.486 46.9287 24.7303 46.9613L24.7109 43.774C24.7109 43.6713 24.7517 43.5728 24.8244 43.5001C24.897 43.4275 24.9955 43.3867 25.0982 43.3867H29.8656V45.9737Z" fill="#324558"/>
<path d="M36.4689 42.0821C36.4157 42.2151 36.3365 42.3361 36.2359 42.4381C36.1366 42.5401 36.018 42.6214 35.887 42.6772C35.7561 42.733 35.6153 42.7623 35.473 42.7634H31.4182V37.6282H36.5457V41.6636C36.5482 41.8068 36.5221 41.9491 36.4689 42.0821Z" fill="#324558"/>
<path d="M31.7515 46.9999C33.1227 46.4138 34.4012 45.631 35.5468 44.6763H31.7515V46.9999Z" fill="#324558"/>
<path d="M40.7474 30.9397C40.7152 32.6942 40.3811 34.43 39.7598 36.0711H37.1729V30.9397H40.7474Z" fill="#324558"/>
<path d="M38.4551 41.7721C39.4102 40.6268 40.193 39.3483 40.7787 37.9768H38.4551V41.7721Z" fill="#324558"/>
</svg>
