<svg width="48" height="48" viewBox="0 0 48 48" fill="none" xmlns="http://www.w3.org/2000/svg">
<path d="M2 31C2 37.0751 6.92487 42 13 42H16L16.4544 41.6282C19.6159 39.0415 21.3133 35.0728 21 31H16L24 23L32 31H27C26.6867 35.0728 28.3841 39.0415 31.5456 41.6282L32 42H36C41.5228 42 46 37.5228 46 32C46 27.5224 43.0571 23.7321 39 22.4578V20C39 12.268 32.732 6 25 6C17.268 6 11 12.268 11 20C11 20.0605 11.0004 20.1209 11.0011 20.1812C5.88034 21.1212 2 25.6075 2 31Z" fill="#B6C2CD"/>
<path d="M16 31L24 23L32 31H27C26.6867 35.0728 28.3841 39.0415 31.5456 41.6282L32 42H16L16.4544 41.6282C19.6159 39.0415 21.3133 35.0728 21 31H16Z" fill="#324558"/>
</svg>
