<svg width="48" height="48" viewBox="0 0 48 48" fill="none" xmlns="http://www.w3.org/2000/svg">
<path d="M3.03445 21.9708C2.76276 17.6227 4.14369 14.5169 5.57159 12.1875C4.93654 16.5356 6.79803 18.8618 9.52112 20.8686C11.7383 22.5025 14.6071 23.3087 17.1126 24.0128C17.1746 24.0303 17.2363 24.0476 17.2979 24.0649C19.4077 24.6583 21.2688 25.1818 22.7174 26.0082C24.2393 26.8764 25.1759 28.0057 25.2954 29.919C25.5705 34.322 22.474 36.7801 19.4584 37.0701C11.7551 37.8105 3.59723 30.9777 3.03445 21.9708Z" fill="#B6C2CD"/>
<path d="M42.0303 19.9067C42.0303 19.0867 42.6951 18.4219 43.5152 18.4219C44.3352 18.4219 45 19.0867 45 19.9067C45 33.7653 33.7653 45 19.9067 45C19.0867 45 18.4219 44.3352 18.4219 43.5152C18.4219 42.6951 19.0867 42.0303 19.9067 42.0303C32.1253 42.0303 42.0303 32.1253 42.0303 19.9067Z" fill="#B6C2CD"/>
<path d="M34.5534 27.9375C35.9813 25.6081 37.3623 22.5023 37.0906 18.1542C36.5278 9.14729 28.3699 2.31446 20.6667 3.05495C17.651 3.34484 14.5545 5.80298 14.8296 10.206C14.9491 12.1193 15.8856 13.2486 17.4076 14.1168C18.8562 14.9432 20.7173 15.4667 22.8272 16.0601C25.3756 16.7769 28.3319 17.5821 30.6039 19.2564C33.327 21.2632 35.1885 23.5894 34.5534 27.9375Z" fill="#324558"/>
</svg>
