<svg width="48" height="48" viewBox="0 0 48 48" fill="none" xmlns="http://www.w3.org/2000/svg">
<path d="M19.1071 20.3125C19.6299 21.1146 19.8913 22.2926 19.8913 23.8467V24.5664C19.8842 26.0846 19.6228 27.2484 19.1071 28.0576C18.5915 28.8669 17.8575 29.2715 16.905 29.2715C15.9024 29.2715 15.1469 28.8597 14.6384 28.0361C14.1299 27.2126 13.8757 26.0345 13.8757 24.502L13.8864 23.3525C13.9939 20.5166 14.9929 19.0986 16.8835 19.0986C17.8503 19.0986 18.5915 19.5033 19.1071 20.3125Z" fill="#B6C2CD"/>
<path fill-rule="evenodd" clip-rule="evenodd" d="M24 3C29.7005 3 34.4726 6.97479 35.696 12.304C41.0252 13.5274 45 18.2995 45 24C45 29.7005 41.0252 34.4726 35.696 35.696C34.4726 41.0252 29.7005 45 24 45C18.2995 45 13.5274 41.0252 12.304 35.696C6.97479 34.4726 3 29.7005 3 24C3 18.2995 6.97479 13.5274 12.304 12.304C13.5274 6.97479 18.2995 3 24 3ZM22.8777 28.5518C23.4434 27.3773 23.7263 26.0273 23.7263 24.502V23.7822C23.7191 22.2783 23.4255 20.9463 22.8454 19.7861C22.2725 18.6188 21.4668 17.7201 20.4284 17.0898C19.39 16.4596 18.2084 16.1445 16.8835 16.1445C15.5443 16.1445 14.3484 16.4632 13.2956 17.1006C12.2501 17.738 11.4444 18.6439 10.8786 19.8184C10.32 20.9857 10.0407 22.3356 10.0407 23.8682V24.749C10.0694 26.2243 10.3702 27.5312 10.9431 28.6699C11.5232 29.8086 12.3288 30.6859 13.3601 31.3018C14.3913 31.9105 15.573 32.2148 16.905 32.2148C18.237 32.2148 19.4223 31.8997 20.4607 31.2695C21.5062 30.6322 22.3119 29.7262 22.8777 28.5518ZM33.5872 26.5537C33.9811 26.8617 34.178 27.2913 34.178 27.8428C34.178 28.3298 33.9954 28.7093 33.6302 28.9814C33.2721 29.2464 32.7815 29.3789 32.1585 29.3789C31.1845 29.3789 30.4791 29.182 30.0423 28.7881C29.6126 28.387 29.3977 27.7676 29.3977 26.9297H25.6165C25.6165 27.9609 25.8743 28.874 26.3899 29.6689C26.9127 30.4567 27.6861 31.0798 28.7102 31.5381C29.7415 31.9893 30.8909 32.2148 32.1585 32.2148C33.956 32.2148 35.3704 31.8245 36.4016 31.0439C37.4329 30.2633 37.9485 29.1891 37.9485 27.8213C37.9485 26.1097 37.1035 24.7669 35.4134 23.793C34.7187 23.3919 33.8307 23.0195 32.7493 22.6758C31.6679 22.3249 30.9124 21.9883 30.4827 21.666C30.053 21.3366 29.8382 20.9714 29.8382 20.5703C29.8382 20.112 30.0315 19.736 30.4182 19.4424C30.8121 19.1416 31.3456 18.9912 32.0188 18.9912C32.6848 18.9912 33.2112 19.1667 33.5979 19.5176C33.9918 19.8685 34.1887 20.3626 34.1887 21H37.9485C37.9485 20.0475 37.7014 19.2025 37.2073 18.4648C36.7132 17.7201 36.0185 17.1471 35.1233 16.7461C34.2353 16.3451 33.2291 16.1445 32.1048 16.1445C30.9518 16.1445 29.9134 16.3307 28.9895 16.7031C28.0657 17.0684 27.3496 17.584 26.8411 18.25C26.3398 18.9089 26.0891 19.6715 26.0891 20.5381C26.0891 22.2783 27.1025 23.6462 29.1292 24.6416C29.7522 24.9495 30.5543 25.2682 31.5354 25.5977C32.5165 25.9271 33.2005 26.2458 33.5872 26.5537Z" fill="#B6C2CD"/>
<path d="M23.7261 24.502C23.7261 26.0273 23.4432 27.3773 22.8774 28.5518C22.3117 29.7262 21.506 30.6322 20.4604 31.2695C19.422 31.8997 18.2368 32.2148 16.9048 32.2148C15.5728 32.2148 14.3911 31.9105 13.3599 31.3018C12.3286 30.6859 11.5229 29.8086 10.9429 28.6699C10.37 27.5312 10.0692 26.2243 10.0405 24.749V23.8682C10.0405 22.3356 10.3198 20.9857 10.8784 19.8184C11.4442 18.6439 12.2498 17.738 13.2954 17.1006C14.3481 16.4632 15.5441 16.1445 16.8833 16.1445C18.2082 16.1445 19.3898 16.4596 20.4282 17.0898C21.4666 17.7201 22.2723 18.6188 22.8452 19.7861C23.4253 20.9463 23.7189 22.2783 23.7261 23.7822V24.502ZM19.8911 23.8467C19.8911 22.2926 19.6297 21.1146 19.1069 20.3125C18.5913 19.5033 17.8501 19.0986 16.8833 19.0986C14.9927 19.0986 13.9937 20.5166 13.8862 23.3525L13.8755 24.502C13.8755 26.0345 14.1297 27.2126 14.6382 28.0361C15.1466 28.8597 15.9022 29.2715 16.9048 29.2715C17.8573 29.2715 18.5913 28.8669 19.1069 28.0576C19.6226 27.2484 19.884 26.0846 19.8911 24.5664V23.8467Z" fill="#324558"/>
<path d="M34.1778 27.8428C34.1778 27.2913 33.9809 26.8617 33.587 26.5537C33.2003 26.2458 32.5163 25.9271 31.5352 25.5977C30.5541 25.2682 29.752 24.9495 29.129 24.6416C27.1023 23.6462 26.0889 22.2783 26.0889 20.5381C26.0889 19.6715 26.3396 18.9089 26.8409 18.25C27.3493 17.584 28.0655 17.0684 28.9893 16.7031C29.9131 16.3307 30.9516 16.1445 32.1045 16.1445C33.2289 16.1445 34.2351 16.3451 35.1231 16.7461C36.0183 17.1471 36.7129 17.7201 37.2071 18.4648C37.7012 19.2025 37.9483 20.0475 37.9483 21H34.1885C34.1885 20.3626 33.9916 19.8685 33.5977 19.5176C33.211 19.1667 32.6846 18.9912 32.0186 18.9912C31.3454 18.9912 30.8119 19.1416 30.418 19.4424C30.0313 19.736 29.8379 20.112 29.8379 20.5703C29.8379 20.9714 30.0528 21.3366 30.4825 21.666C30.9122 21.9883 31.6677 22.3249 32.7491 22.6758C33.8305 23.0195 34.7185 23.3919 35.4131 23.793C37.1032 24.7669 37.9483 26.1097 37.9483 27.8213C37.9483 29.1891 37.4327 30.2633 36.4014 31.0439C35.3702 31.8245 33.9558 32.2148 32.1583 32.2148C30.8907 32.2148 29.7413 31.9893 28.71 31.5381C27.6859 31.0798 26.9125 30.4567 26.3897 29.6689C25.8741 28.874 25.6163 27.9609 25.6163 26.9297H29.3975C29.3975 27.7676 29.6124 28.387 30.042 28.7881C30.4789 29.182 31.1843 29.3789 32.1583 29.3789C32.7813 29.3789 33.2719 29.2464 33.6299 28.9814C33.9952 28.7093 34.1778 28.3298 34.1778 27.8428Z" fill="#324558"/>
</svg>
