<svg width="48" height="48" viewBox="0 0 48 48" fill="none" xmlns="http://www.w3.org/2000/svg">
<path fill-rule="evenodd" clip-rule="evenodd" d="M6 8C6 6.89543 6.89543 6 8 6H40C41.1046 6 42 6.89543 42 8V40C42 41.1046 41.1046 42 40 42H8C6.89543 42 6 41.1046 6 40V8ZM34 24C34 29.5228 29.5228 34 24 34C18.4772 34 14 29.5228 14 24C14 18.4772 18.4772 14 24 14C29.5228 14 34 18.4772 34 24ZM40 11C40 12.6569 38.6569 14 37 14C35.3431 14 34 12.6569 34 11C34 9.34315 35.3431 8 37 8C38.6569 8 40 9.34315 40 11ZM14 37C14 38.6569 12.6569 40 11 40C9.34315 40 8 38.6569 8 37C8 35.3431 9.34315 34 11 34C12.6569 34 14 35.3431 14 37Z" fill="#B6C2CD"/>
<path d="M40 11C40 12.6569 38.6569 14 37 14C35.3431 14 34 12.6569 34 11C34 9.34315 35.3431 8 37 8C38.6569 8 40 9.34315 40 11Z" fill="#324558"/>
<path d="M14 37C14 38.6569 12.6569 40 11 40C9.34315 40 8 38.6569 8 37C8 35.3431 9.34315 34 11 34C12.6569 34 14 35.3431 14 37Z" fill="#324558"/>
<path d="M24 30C27.3137 30 30 27.3137 30 24C30 20.6863 27.3137 18 24 18C20.6863 18 18 20.6863 18 24C18 27.3137 20.6863 30 24 30Z" fill="#324558"/>
</svg>
