<svg width="48" height="48" viewBox="0 0 48 48" fill="none" xmlns="http://www.w3.org/2000/svg">
<path fill-rule="evenodd" clip-rule="evenodd" d="M8 6C6.89543 6 6 6.89543 6 8V40C6 41.1046 6.89543 42 8 42H40C41.1046 42 42 41.1046 42 40V8C42 6.89543 41.1046 6 40 6H8ZM15 10H20V13H15V10ZM20 16V19H10V16H20ZM20 22V25H10V22H20ZM38 10H24V22H30V19L36 24L30 29V26H24V38H38V10Z" fill="#B6C2CD"/>
<path d="M20 10H15V13H20V10Z" fill="#324558"/>
<path d="M20 19V16H10V19H20Z" fill="#324558"/>
<path d="M20 22V25H10V22H20Z" fill="#324558"/>
<path d="M24 10H38V38H24V26H30V29L36 24L30 19V22H24V10Z" fill="#324558"/>
</svg>
