<svg width="48" height="48" viewBox="0 0 48 48" fill="none" xmlns="http://www.w3.org/2000/svg">
<path fill-rule="evenodd" clip-rule="evenodd" d="M5 6C5 4.89543 5.89543 4 7 4H27C28.1046 4 29 4.89543 29 6V34C29 35.1046 28.1046 36 27 36H7C5.89543 36 5 35.1046 5 34V6ZM17 22H11V18H17V15L23 20L17 25V22Z" fill="#B6C2CD"/>
<path d="M37 34L31 29L37 24V27H43V31H37V34Z" fill="#B6C2CD"/>
<path d="M19 36V42C19 43.1046 19.8954 44 21 44H43V40H23V36H19Z" fill="#324558"/>
<path d="M29 18H43V14H29V18Z" fill="#324558"/>
<path d="M11 22H17V25L23 20L17 15V18H11V22Z" fill="#324558"/>
</svg>
