<svg width="48" height="48" viewBox="0 0 48 48" fill="none" xmlns="http://www.w3.org/2000/svg">
<path d="M14 17H6V40C6 41.1046 6.89543 42 8 42H14V17Z" fill="#B6C2CD"/>
<path d="M17 17H42V19.6957C40.6806 19.2447 39.2655 19 37.7933 19C30.6136 19 24.7933 24.8203 24.7933 32C24.7933 36.0209 26.6188 39.6154 29.4862 42H17V17Z" fill="#B6C2CD"/>
<path d="M8 6C6.89543 6 6 6.89543 6 8V14H42V8C42 6.89543 41.1046 6 40 6H8Z" fill="#324558"/>
<path fill-rule="evenodd" clip-rule="evenodd" d="M48 32C48 37.5228 43.5228 42 38 42C32.4772 42 28 37.5228 28 32C28 26.4772 32.4772 22 38 22C43.5228 22 48 26.4772 48 32ZM44.0943 29.0259L36.4375 37.1932L31.9057 32.3593L34.0943 30.3075L36.4375 32.8069L41.9057 26.9741L44.0943 29.0259Z" fill="#324558"/>
</svg>
