<svg width="48" height="48" viewBox="0 0 48 48" fill="none" xmlns="http://www.w3.org/2000/svg">
<path d="M14.2372 23.5602C13.6249 23.2127 12.8751 23.2127 12.2628 23.5602L5.01279 27.6751C4.38679 28.0304 4 28.6946 4 29.4144V37.5853C4 38.3051 4.38679 38.9694 5.01279 39.3247L12.2628 43.4396C12.8751 43.7871 13.6249 43.7871 14.2372 43.4396L21.4872 39.3247C22.1132 38.9694 22.5 38.3051 22.5 37.5853V29.4144C22.5 28.6946 22.1132 28.0303 21.4872 27.6751L14.2372 23.5602Z" fill="#B6C2CD"/>
<path d="M35.7372 23.5602C35.1249 23.2127 34.3751 23.2127 33.7628 23.5602L26.5128 27.6751C25.8868 28.0304 25.5 28.6946 25.5 29.4144V37.5853C25.5 38.3051 25.8868 38.9694 26.5128 39.3247L33.7628 43.4396C34.3751 43.7871 35.1249 43.7871 35.7372 43.4396L42.9872 39.3247C43.6132 38.9694 44 38.3051 44 37.5853V29.4144C44 28.6946 43.6132 28.0303 42.9872 27.6751L35.7372 23.5602Z" fill="#B6C2CD"/>
<path d="M23.0151 4.55715C23.6262 4.21142 24.3738 4.21142 24.9849 4.55715L32.4849 8.80057C33.1122 9.1555 33.5 9.82051 33.5 10.5413V18.9586C33.5 19.6793 33.1122 20.3443 32.4849 20.6993L24.9849 24.9427C24.3738 25.2884 23.6262 25.2884 23.0151 24.9427L15.5151 20.6993C14.8878 20.3443 14.5 19.6793 14.5 18.9586V10.5413C14.5 9.82051 14.8878 9.1555 15.5151 8.80057L23.0151 4.55715Z" fill="#324558"/>
</svg>
