<svg width="48" height="48" viewBox="0 0 48 48" fill="none" xmlns="http://www.w3.org/2000/svg">
<path d="M24.8675 4.41791C24.3192 4.15383 23.6804 4.15383 23.132 4.41791L8.44906 11.4888C7.90069 11.7529 7.50241 12.2523 7.36698 12.8457L3.74059 28.734C3.60515 29.3273 3.7473 29.9501 4.12678 30.426L14.2877 43.1673C14.6672 43.6432 15.2427 43.9204 15.8513 43.9204H32.1482C32.7568 43.9204 33.3323 43.6432 33.7118 43.1673L43.8727 30.426C44.2522 29.9501 44.3944 29.3273 44.2589 28.734L40.6325 12.8457C40.4971 12.2523 40.0988 11.7529 39.5504 11.4888L24.8675 4.41791ZM24 35C18.4772 35 14 30.5229 14 25C14 19.4772 18.4772 15 24 15C29.5228 15 34 19.4772 34 25C34 30.5229 29.5228 35 24 35Z" fill="#B6C2CD"/>
<path d="M17.0215 32.1654L19.5679 24.6382C20.3968 22.1879 23.2601 21.1085 25.5002 22.4018C27.7404 23.6952 28.2372 26.7146 26.5297 28.6576L21.284 34.6265C20.5027 34.4054 19.7358 34.0848 19.0004 33.6602C18.2649 33.2356 17.6037 32.7316 17.0215 32.1654Z" fill="#324558"/>
</svg>
