<svg width="48" height="48" viewBox="0 0 48 48" fill="none" xmlns="http://www.w3.org/2000/svg">
<path d="M6 16C4.89543 16 4 16.8954 4 18V40C4 41.1046 4.89543 42 6 42H42C43.1046 42 44 41.1046 44 40V18C44 16.8954 43.1046 16 42 16L38 16L38 28L10 28L10 16H6Z" fill="#B6C2CD"/>
<path d="M34.7634 6.29387C35.0469 6.40671 35.4233 6.5 36 6.5V9.5C35.0677 9.5 34.3124 9.34329 33.6539 9.08113C33.0329 8.83392 32.5444 8.50814 32.1813 8.26598L32.1441 8.24117C31.471 7.79241 31.0324 7.5 30 7.5C29.4233 7.5 29.0469 7.59329 28.7634 7.70613C28.4579 7.82777 28.2029 7.99189 27.8186 8.24808L27.814 8.25115C26.9936 8.79805 25.9407 9.5 24 9.5C23.0677 9.5 22.3124 9.34329 21.6539 9.08113C21.0329 8.83392 20.5444 8.50814 20.1813 8.26599L20.1441 8.24117C19.471 7.79241 19.0324 7.5 18 7.5C16.9609 7.5 16.5127 7.79704 15.831 8.24878L15.8286 8.25036C15.0026 8.79773 13.9417 9.5 12 9.5V6.5C13.0391 6.5 13.4873 6.20296 14.169 5.75122L14.1714 5.74964C14.9974 5.20227 16.0583 4.5 18 4.5C19.9407 4.5 20.9936 5.20195 21.814 5.74885L21.8186 5.75192C22.2029 6.00811 22.4579 6.17223 22.7634 6.29387C23.0469 6.40671 23.4233 6.5 24 6.5C25.0324 6.5 25.471 6.20759 26.1441 5.75883L26.1813 5.73402C26.5444 5.49187 27.0329 5.16608 27.6539 4.91887C28.3124 4.65671 29.0677 4.5 30 4.5C31.9407 4.5 32.9936 5.20195 33.814 5.74885L33.8186 5.75193C34.2029 6.00812 34.4579 6.17223 34.7634 6.29387Z" fill="#324558"/>
<path d="M13 16.4321V13.3714C13.4268 13.2431 13.7548 13.0257 14.169 12.7512L14.1714 12.7496C14.9974 12.2023 16.0583 11.5 18 11.5C19.9407 11.5 20.9936 12.202 21.814 12.7489L21.8186 12.7519C22.2029 13.0081 22.4579 13.1722 22.7634 13.2939C23.0469 13.4067 23.4233 13.5 24 13.5C25.0324 13.5 25.471 13.2076 26.1441 12.7588L26.1813 12.734C26.5444 12.4919 27.0329 12.1661 27.6538 11.9189C28.3124 11.6567 29.0677 11.5 30 11.5C31.9407 11.5 32.9936 12.202 33.814 12.7489L33.8186 12.7519C34.2029 13.0081 34.4579 13.1722 34.7634 13.2939C34.8357 13.3226 34.9139 13.3501 35 13.3751V16.4336C34.5021 16.3641 34.0596 16.2427 33.6538 16.0811C33.0329 15.8339 32.5444 15.5081 32.1813 15.266L32.1441 15.2412C31.471 14.7924 31.0324 14.5 30 14.5C29.4233 14.5 29.0469 14.5933 28.7634 14.7061C28.4579 14.8278 28.2029 14.9919 27.8186 15.2481L27.814 15.2512C26.9936 15.798 25.9407 16.5 24 16.5C23.0677 16.5 22.3124 16.3433 21.6538 16.0811C21.0329 15.8339 20.5444 15.5082 20.1814 15.266L20.1441 15.2412C19.471 14.7924 19.0324 14.5 18 14.5C16.9609 14.5 16.5127 14.797 15.831 15.2488L15.8286 15.2504C15.1569 15.6955 14.3298 16.2431 13 16.4321Z" fill="#324558"/>
<path d="M14 19.8628V23.2012C14.7777 22.9465 15.3436 22.5717 15.8286 22.2504L15.831 22.2488C16.5127 21.797 16.9609 21.5 18 21.5C19.0324 21.5 19.471 21.7924 20.1441 22.2412L20.1813 22.266C20.5444 22.5081 21.0329 22.8339 21.6539 23.0811C22.3124 23.3433 23.0677 23.5 24 23.5C25.9407 23.5 26.9936 22.798 27.814 22.2512L27.8186 22.2481C28.2029 21.9919 28.4579 21.8278 28.7634 21.7061C29.0469 21.5933 29.4233 21.5 30 21.5C31.0324 21.5 31.471 21.7924 32.1441 22.2412L32.1813 22.266C32.5444 22.5081 33.0329 22.8339 33.6539 23.0811C33.7663 23.1259 33.8815 23.1676 34 23.2059V19.8721C33.9425 19.8344 33.8823 19.7944 33.8186 19.7519L33.814 19.7489C32.9936 19.202 31.9407 18.5 30 18.5C29.0677 18.5 28.3124 18.6567 27.6539 18.9189C27.0329 19.1661 26.5444 19.4919 26.1813 19.734L26.1441 19.7588C25.471 20.2076 25.0324 20.5 24 20.5C23.4233 20.5 23.0469 20.4067 22.7634 20.2939C22.4579 20.1722 22.2029 20.0081 21.8186 19.7519L21.814 19.7489C20.9936 19.202 19.9407 18.5 18 18.5C16.0583 18.5 14.9974 19.2023 14.1714 19.7496L14.169 19.7512C14.1112 19.7896 14.055 19.8268 14 19.8628Z" fill="#324558"/>
</svg>
