<svg width="48" height="48" viewBox="0 0 48 48" fill="none" xmlns="http://www.w3.org/2000/svg">
<path d="M25.0186 4.60282L37.0186 11.7049C37.6269 12.0649 38 12.7192 38 13.426V14.5739C38 15.2807 37.6269 15.935 37.0186 16.295L25.0186 23.3971C24.3904 23.7689 23.6096 23.7689 22.9814 23.3971L10.9814 16.295C10.3731 15.935 10 15.2807 10 14.5739V13.426C10 12.7192 10.3731 12.0649 10.9814 11.7049L22.9814 4.60282C23.6096 4.23103 24.3904 4.23103 25.0186 4.60282Z" fill="#B6C2CD"/>
<path d="M40.8032 23.9448L44.0186 25.8478C44.6269 26.2078 45 26.8622 45 27.569V30.4311C45 31.138 44.6269 31.7923 44.0186 32.1523L25.0186 43.3972C24.3904 43.769 23.6096 43.769 22.9814 43.3972L3.98136 32.1523C3.37308 31.7923 3 31.138 3 30.4311V27.569C3 26.8622 3.37308 26.2078 3.98136 25.8478L7.19678 23.9448L22.973 33.3855C23.6054 33.7639 24.3946 33.7639 25.027 33.3855L40.8032 23.9448Z" fill="#B6C2CD"/>
<path d="M10.6105 16.0125C10.7214 16.1195 10.8455 16.2146 10.9814 16.295L22.9814 23.397C23.6096 23.7688 24.3904 23.7688 25.0186 23.397L37.0186 16.295C37.1545 16.2146 37.2786 16.1195 37.3895 16.0125L41.027 18.1892C41.6305 18.5504 42 19.202 42 19.9054V22.0947C42 22.798 41.6305 23.4497 41.027 23.8109L25.027 33.3855C24.3946 33.7639 23.6054 33.7639 22.973 33.3855L6.97301 23.8109C6.36947 23.4497 6 22.798 6 22.0947V19.9054C6 19.202 6.36947 18.5504 6.97301 18.1892L10.6105 16.0125Z" fill="#324558"/>
</svg>
