<svg width="48" height="48" viewBox="0 0 48 48" fill="none" xmlns="http://www.w3.org/2000/svg">
<path fill-rule="evenodd" clip-rule="evenodd" d="M35.1702 39.4797C27.8512 41.5068 20.1246 41.5068 12.8056 39.4797C8.71475 33.1086 6.36709 25.7625 6 18.1846C8.35071 15.2468 11.0763 12.6343 14.106 10.4149C17.153 8.18405 20.4766 6.36329 23.9923 5C27.4996 6.36208 30.8162 8.17738 33.8585 10.4004C36.9017 12.6367 39.6391 15.2675 42 18.2234C41.8027 21.9941 41.1176 25.723 39.9621 29.3154C38.8072 32.8974 37.1965 36.3139 35.1702 39.4797ZM31.4468 33.9865C26.5675 35.3378 21.4164 35.3378 16.5371 33.9865C13.8098 29.7391 12.2447 24.8416 12 19.7897C13.5671 17.8312 15.3842 16.0895 17.404 14.61C19.4353 13.1227 21.651 11.9089 23.9949 11C26.3331 11.9081 28.5441 13.1183 30.5723 14.6003C32.6011 16.0912 34.426 17.845 36 19.8156C35.8685 22.3294 35.4117 24.8153 34.6414 27.2103C33.8715 29.5983 32.7977 31.8759 31.4468 33.9865Z" fill="#B6C2CD"/>
<path d="M33.8585 10.4004C34.9164 11.1778 35.9374 12.0029 36.9184 12.8727C37.9101 11.5407 39.0645 10.3368 40.3553 9.28953L40.4423 9.219C37.7062 6.65592 34.6197 4.49474 31.2754 2.80029L31.2389 2.90611C30.6974 4.47373 29.9631 5.96709 29.0534 7.35197C30.7178 8.26036 32.3231 9.27845 33.8585 10.4004Z" fill="#324558"/>
<path d="M39.9621 29.3154C39.647 30.2927 39.298 31.2577 38.9158 32.2086C40.3445 32.6734 41.7172 33.2983 43.0076 34.0719L43.1036 34.1295C44.5763 30.6818 45.5516 27.0423 46 23.3202L45.8881 23.322C44.4136 23.3463 42.9422 23.2073 41.5006 22.9082C41.1501 25.0779 40.6361 27.2199 39.9621 29.3154Z" fill="#324558"/>
<path d="M19.2441 40.7305C22.465 41.0976 25.7176 41.0897 28.937 40.7065C29.0344 42.0869 29.2752 43.4547 29.656 44.7877L29.6868 44.8953C25.9754 45.4255 22.2075 45.4255 18.4961 44.8953L18.5268 44.7877C18.9055 43.4624 19.1456 42.1027 19.2441 40.7305Z" fill="#324558"/>
<path d="M9.0824 32.2696C7.87622 29.2728 7.00751 26.1453 6.49509 22.9461C5.11332 23.219 3.70532 23.3453 2.29455 23.322L2.18262 23.3202C2.63106 27.0423 3.60627 30.6818 5.07898 34.1295L5.17499 34.0719C6.4098 33.3316 7.71998 32.7276 9.0824 32.2696Z" fill="#324558"/>
<path d="M19.0765 7.27157C17.3527 8.20381 15.6918 9.25383 14.106 10.4149C13.0963 11.1545 12.1205 11.9378 11.181 12.7622C10.2082 11.4742 9.08222 10.3082 7.82742 9.29008L7.74049 9.21955C10.4766 6.65647 13.5631 4.49529 16.9073 2.80084L16.9439 2.90666C17.4748 4.44378 18.1912 5.9095 19.0765 7.27157Z" fill="#324558"/>
<path d="M16 21C16 19.3416 17.3416 18 19 18C20.6584 18 22 19.3416 22 21C22 22.6584 20.6584 24 19 24C17.3416 24 16 22.6584 16 21Z" fill="#324558"/>
<path d="M29 18C27.3416 18 26 19.3416 26 21C26 22.6584 27.3416 24 29 24C30.6584 24 32 22.6584 32 21C32 19.3416 30.6584 18 29 18Z" fill="#324558"/>
</svg>
