<svg width="48" height="48" viewBox="0 0 48 48" fill="none" xmlns="http://www.w3.org/2000/svg">
<path d="M4 15C4 14.4477 4.44772 14 5 14H11C11.5523 14 12 14.4477 12 15V41C12 41.5523 11.5523 42 11 42H5C4.44772 42 4 41.5523 4 41V15Z" fill="#B6C2CD"/>
<path d="M17 27C17 26.4477 17.4477 26 18 26H24C24.5523 26 25 26.4477 25 27V41C25 41.5523 24.5523 42 24 42H18C17.4477 42 17 41.5523 17 41V27Z" fill="#B6C2CD"/>
<path d="M31 30C30.4477 30 30 30.4477 30 31V41C30 41.5523 30.4477 42 31 42H37C37.5523 42 38 41.5523 38 41V31C38 30.4477 37.5523 30 37 30H31Z" fill="#B6C2CD"/>
<path d="M45.3036 11.7371C41.844 7.04429 36.2776 4 30.0002 4C23.7227 4 18.1563 7.04429 14.6968 11.7371L17.7317 14.3673C20.4468 10.5159 24.9297 8 30.0002 8C35.0707 8 39.5535 10.5159 42.2686 14.3673L45.3036 11.7371Z" fill="#324558"/>
<path d="M40.7482 16.6849C38.4081 13.2531 34.4672 11 30.0001 11C25.533 11 21.5921 13.2531 19.252 16.6849L22.3046 19.3306C23.8834 16.7342 26.7393 15 30.0001 15C33.261 15 36.1168 16.7342 37.6956 19.3306L40.7482 16.6849Z" fill="#324558"/>
<path d="M30.0001 25C31.657 25 33.0001 23.6569 33.0001 22C33.0001 20.3431 31.657 19 30.0001 19C28.3433 19 27.0001 20.3431 27.0001 22C27.0001 23.6569 28.3433 25 30.0001 25Z" fill="#324558"/>
</svg>
