<svg width="48" height="48" viewBox="0 0 48 48" fill="none" xmlns="http://www.w3.org/2000/svg">
<path d="M24 3.30933V18.2264L14 23.9999L24 29.7735V44.6905C23.6547 44.6905 23.3094 44.6012 23 44.4226L6.81348 35.0773C6.19467 34.72 5.81348 34.0598 5.81348 33.3452V14.6546C5.81348 13.9401 6.19467 13.2798 6.81348 12.9226L23 3.57728C23.3094 3.39864 23.6547 3.30933 24 3.30933Z" fill="#B6C2CD"/>
<path d="M42.1865 13.4999L24 23.9999L42.1865 34.4999V13.4999Z" fill="#B6C2CD"/>
<path d="M37.1865 37.3867L24 29.7735V44.6905C24.3453 44.6905 24.6906 44.6012 25 44.4226L37.1865 37.3867Z" fill="#324558"/>
<path d="M24 18.2264V3.30933C24.3453 3.30933 24.6906 3.39864 25 3.57728L37.1866 10.6132L24 18.2264Z" fill="#324558"/>
</svg>
