<svg width="48" height="48" viewBox="0 0 48 48" fill="none" xmlns="http://www.w3.org/2000/svg">
<path fill-rule="evenodd" clip-rule="evenodd" d="M5 6C3.89543 6 3 6.89543 3 8V32C3 33.1046 3.89543 34 5 34H35C36.1046 34 37 33.1046 37 32V8C37 6.89543 36.1046 6 35 6H5ZM18.5 13H21.5V27H18.5V13ZM11.5 16H14.5V24H11.5V16ZM25.5 17H28.5V23H25.5V17Z" fill="#B6C2CD"/>
<path d="M37 25.7894L44.499 30.1309C45.1656 30.5169 46 30.0358 46 29.2655V10.7344C46 9.96407 45.1656 9.48302 44.499 9.86898L37 14.2105V25.7894Z" fill="#324558"/>
<path d="M21.5 13H18.5V27H21.5V13Z" fill="#324558"/>
<path d="M14.5 16H11.5V24H14.5V16Z" fill="#324558"/>
<path d="M28.5 17H25.5V23H28.5V17Z" fill="#324558"/>
<path d="M30 38H10V42H30V38Z" fill="#324558"/>
</svg>
