<svg width="48" height="48" viewBox="0 0 48 48" fill="none" xmlns="http://www.w3.org/2000/svg">
<path fill-rule="evenodd" clip-rule="evenodd" d="M41 12H5V40C5 41.1046 5.89543 42 7 42H41C42.1046 42 43 41.1046 43 40V14C43 12.8954 42.1046 12 41 12ZM37 32C37 29.7909 35.2091 28 33 28C30.7909 28 29 29.7909 29 32C29 34.2091 30.7909 36 33 36C35.2091 36 37 34.2091 37 32Z" fill="#B6C2CD"/>
<path d="M5 5.41411V11.9999H14L6.70711 4.70701C6.07714 4.07704 5 4.52321 5 5.41411Z" fill="#324558"/>
<path d="M20 5.41411V11.9999H29L21.7071 4.70701C21.0771 4.07704 20 4.52321 20 5.41411Z" fill="#324558"/>
<path d="M33 28C35.2091 28 37 29.7909 37 32C37 34.2091 35.2091 36 33 36C30.7909 36 29 34.2091 29 32C29 29.7909 30.7909 28 33 28Z" fill="#324558"/>
</svg>
