<svg width="48" height="48" viewBox="0 0 48 48" fill="none" xmlns="http://www.w3.org/2000/svg">
<path d="M25.029 3.61741C24.3956 3.23739 23.6044 3.23739 22.971 3.61741L4 15L24 27L44 15L25.029 3.61741Z" fill="#B6C2CD"/>
<path d="M44 24L24 36L4 24V31.8676C4 32.5702 4.3686 33.2212 4.97101 33.5826L22.971 44.3826C23.6044 44.7626 24.3956 44.7626 25.029 44.3826L43.029 33.5826C43.6314 33.2212 44 32.5702 44 31.8676V24Z" fill="#B6C2CD"/>
<path d="M4 24V15L24 27L44 15V24L24 36L4 24Z" fill="#324558"/>
</svg>
