<svg width="48" height="48" viewBox="0 0 48 48" fill="none" xmlns="http://www.w3.org/2000/svg">
<path fill-rule="evenodd" clip-rule="evenodd" d="M8 6C6.89543 6 6 6.89543 6 8V40C6 41.1046 6.89543 42 8 42H40C41.1046 42 42 41.1046 42 40V8C42 6.89543 41.1046 6 40 6H8ZM25.5 10H22.5V12.0794C15.4734 12.8279 10 18.7748 10 26H10.3368C10.8985 24.8175 12.1038 24 13.5 24C14.8962 24 16.1015 24.8175 16.6632 26H17.3368C17.8985 24.8175 19.1038 24 20.5 24C21.2436 24 21.9331 24.2319 22.5 24.6273V34.5C22.5 35.0523 22.0523 35.5 21.5 35.5C20.9477 35.5 20.5 35.0523 20.5 34.5V32H17.5V34.5C17.5 36.7091 19.2909 38.5 21.5 38.5C23.7091 38.5 25.5 36.7091 25.5 34.5V24.6273C26.0669 24.2319 26.7564 24 27.5 24C28.8962 24 30.1015 24.8175 30.6632 26H31.3368C31.8985 24.8175 33.1038 24 34.5 24C35.8962 24 37.1015 24.8175 37.6632 26H38C38 18.7748 32.5266 12.8279 25.5 12.0794V10Z" fill="#B6C2CD"/>
<path d="M22.5 10H25.5V12.0794C32.5266 12.8279 38 18.7748 38 26H37.6632C37.1015 24.8175 35.8962 24 34.5 24C33.1038 24 31.8985 24.8175 31.3368 26H30.6632C30.1015 24.8175 28.8962 24 27.5 24C26.7564 24 26.0669 24.2319 25.5 24.6273V34.5C25.5 36.7091 23.7091 38.5 21.5 38.5C19.2909 38.5 17.5 36.7091 17.5 34.5V32H20.5V34.5C20.5 35.0523 20.9477 35.5 21.5 35.5C22.0523 35.5 22.5 35.0523 22.5 34.5V24.6273C21.9331 24.2319 21.2436 24 20.5 24C19.1038 24 17.8985 24.8175 17.3368 26H16.6632C16.1015 24.8175 14.8962 24 13.5 24C12.1038 24 10.8985 24.8175 10.3368 26H10C10 18.7748 15.4734 12.8279 22.5 12.0794V10Z" fill="#324558"/>
</svg>
