<svg width="48" height="48" viewBox="0 0 48 48" fill="none" xmlns="http://www.w3.org/2000/svg">
<path d="M8 5C6.89543 5 6 5.89543 6 7V26C6 27.1046 6.89543 28 8 28H20C21.1046 28 22 27.1046 22 26V7C22 5.89543 21.1046 5 20 5H8Z" fill="#B6C2CD"/>
<path d="M28 7C28 5.89543 28.8954 5 30 5H40C41.1046 5 42 5.89543 42 7V16C42 17.1046 41.1046 18 40 18H30C28.8954 18 28 17.1046 28 16V7Z" fill="#B6C2CD"/>
<path d="M28 26C28 24.8954 28.8954 24 30 24H40C41.1046 24 42 24.8954 42 26V41C42 42.1046 41.1046 43 40 43H30C28.8954 43 28 42.1046 28 41V26Z" fill="#B6C2CD"/>
<path d="M22 14H28V10H22V14Z" fill="#324558"/>
<path d="M33 18H37V24H33V18Z" fill="#324558"/>
<path d="M6 33C6 31.8954 6.89543 31 8 31H20C21.1046 31 22 31.8954 22 33V41C22 42.1046 21.1046 43 20 43H8C6.89543 43 6 42.1046 6 41V33Z" fill="#324558"/>
</svg>
