<svg width="48" height="48" viewBox="0 0 48 48" fill="none" xmlns="http://www.w3.org/2000/svg">
<path d="M19 14.0834L13.0077 10.5879C12.385 10.2246 11.615 10.2246 10.9923 10.5879L0.992258 16.4212C0.377823 16.7796 0 17.4374 0 18.1488V29.8513C0 30.5626 0.377822 31.2204 0.992257 31.5788L10.9923 37.4122C11.615 37.7754 12.385 37.7754 13.0077 37.4122L19 33.9167V14.0834Z" fill="#B6C2CD"/>
<path d="M29 33.9167L34.9923 37.4122C35.615 37.7754 36.385 37.7754 37.0077 37.4122L47.0077 31.5788C47.6222 31.2204 48 30.5626 48 29.8513V18.1488C48 17.4374 47.6222 16.7796 47.0077 16.4212L37.0077 10.5879C36.385 10.2246 35.615 10.2246 34.9923 10.5879L29 14.0834V33.9167Z" fill="#B6C2CD"/>
<path d="M22 10H26V38H22V10Z" fill="#324558"/>
</svg>
