<svg width="48" height="48" viewBox="0 0 48 48" fill="none" xmlns="http://www.w3.org/2000/svg">
<path fill-rule="evenodd" clip-rule="evenodd" d="M38 18.153V37.9999H10V18.153C10 15.1454 11.3536 12.2976 13.6858 10.3986L22.7372 3.02823C23.4726 2.42939 24.5274 2.42939 25.2628 3.02822L34.3142 10.3986C36.6464 12.2976 38 15.1454 38 18.153ZM24 22C26.7614 22 29 19.7614 29 17C29 14.2386 26.7614 12 24 12C21.2386 12 19 14.2386 19 17C19 19.7614 21.2386 22 24 22Z" fill="#B6C2CD"/>
<path d="M24 22C26.7614 22 29 19.7614 29 17C29 14.2386 26.7614 12 24 12C21.2386 12 19 14.2386 19 17C19 19.7614 21.2386 22 24 22Z" fill="#324558"/>
<path d="M4.48149 33.4383L10 27V38L5.31623 39.5613C4.6687 39.7771 4 39.2951 4 38.6126V34.7398C4 34.2624 4.17078 33.8008 4.48149 33.4383Z" fill="#324558"/>
<path d="M38 27L43.5185 33.4383C43.8292 33.8008 44 34.2624 44 34.7398V38.6126C44 39.2951 43.3313 39.7771 42.6838 39.5613L38 38V27Z" fill="#324558"/>
<path d="M36 45V41H12V45H36Z" fill="#324558"/>
</svg>
