<svg width="48" height="48" viewBox="0 0 48 48" fill="none" xmlns="http://www.w3.org/2000/svg">
<path d="M19.8675 34.0703C19.6539 34.2109 19.3831 34.2812 19.055 34.2812C18.805 34.2812 18.5992 34.2083 18.4378 34.0625C18.2763 33.9115 18.1956 33.7161 18.1956 33.4766C18.1956 32.6536 18.6539 32.2422 19.5706 32.2422H20.3362V33.5938C20.2425 33.7708 20.0862 33.9297 19.8675 34.0703Z" fill="#B6C2CD"/>
<path d="M28.195 34.2812C28.5231 34.2812 28.7939 34.2109 29.0075 34.0703C29.2262 33.9297 29.3825 33.7708 29.4762 33.5938V32.2422H28.7106C27.7939 32.2422 27.3356 32.6536 27.3356 33.4766C27.3356 33.7161 27.4163 33.9115 27.5778 34.0625C27.7393 34.2083 27.945 34.2812 28.195 34.2812Z" fill="#B6C2CD"/>
<path fill-rule="evenodd" clip-rule="evenodd" d="M25 6C17.8249 6 11.9105 11.3976 11.0958 18.3538C5.87156 19.6524 2 24.3741 2 30C2 36.6274 7.37258 42 14 42H34C40.6274 42 46 36.6274 46 30C46 25.1453 43.1171 20.9638 38.9699 19.0743C38.4933 11.7739 32.421 6 25 6ZM10.8447 32.0391C11.1311 32.263 11.2744 32.5755 11.2744 32.9766C11.2744 33.3307 11.1415 33.6068 10.8759 33.8047C10.6155 33.9974 10.2587 34.0938 9.8056 34.0938C9.09727 34.0938 8.58425 33.9505 8.26654 33.6641C7.95404 33.3724 7.79779 32.9219 7.79779 32.3125H5.04779C5.04779 33.0625 5.23529 33.7266 5.61029 34.3047C5.9905 34.8776 6.553 35.3307 7.29779 35.6641C8.04779 35.9922 8.88373 36.1562 9.8056 36.1562C11.1129 36.1562 12.1415 35.8724 12.8915 35.3047C13.6415 34.737 14.0165 33.9557 14.0165 32.9609C14.0165 31.7161 13.402 30.7396 12.1728 30.0312C11.6676 29.7396 11.0217 29.4688 10.2353 29.2188C9.44883 28.9635 8.89935 28.7188 8.58685 28.4844C8.27435 28.2448 8.1181 27.9792 8.1181 27.6875C8.1181 27.3542 8.25873 27.0807 8.53998 26.8672C8.82644 26.6484 9.21446 26.5391 9.70404 26.5391C10.1884 26.5391 10.5712 26.6667 10.8525 26.9219C11.1389 27.1771 11.2822 27.5365 11.2822 28H14.0165C14.0165 27.3073 13.8369 26.6927 13.4775 26.1562C13.1181 25.6146 12.6129 25.1979 11.9619 24.9062C11.316 24.6146 10.5842 24.4688 9.76654 24.4688C8.928 24.4688 8.17279 24.6042 7.50092 24.875C6.82904 25.1406 6.30821 25.5156 5.93842 26C5.57383 26.4792 5.39154 27.0339 5.39154 27.6641C5.39154 28.9297 6.12852 29.9245 7.60248 30.6484C8.0556 30.8724 8.63894 31.1042 9.35248 31.3438C10.066 31.5833 10.5634 31.8151 10.8447 32.0391ZM20.4534 35.2422C20.5263 35.5755 20.6097 35.8281 20.7034 36H23.3362V35.8672C23.1071 35.4557 22.9873 34.862 22.9769 34.0859V30.3438C22.9612 29.4271 22.6409 28.7057 22.0159 28.1797C21.3909 27.6536 20.5394 27.3906 19.4612 27.3906C18.3831 27.3906 17.4951 27.6458 16.7972 28.1562C16.1045 28.6667 15.7581 29.3307 15.7581 30.1484H18.3909C18.3909 29.5339 18.7034 29.2266 19.3284 29.2266C20.0003 29.2266 20.3362 29.6146 20.3362 30.3906V30.8359H19.5237C18.2321 30.8359 17.2477 31.0703 16.5706 31.5391C15.8935 32.0078 15.555 32.7005 15.555 33.6172C15.555 34.3464 15.8336 34.9531 16.3909 35.4375C16.9482 35.9167 17.6253 36.1562 18.4222 36.1562C19.292 36.1562 19.969 35.8516 20.4534 35.2422ZM29.8434 36C29.7497 35.8281 29.6663 35.5755 29.5934 35.2422C29.109 35.8516 28.432 36.1562 27.5622 36.1562C26.7653 36.1562 26.0882 35.9167 25.5309 35.4375C24.9736 34.9531 24.695 34.3464 24.695 33.6172C24.695 32.7005 25.0335 32.0078 25.7106 31.5391C26.3877 31.0703 27.3721 30.8359 28.6637 30.8359H29.4762V30.3906C29.4762 29.6146 29.1403 29.2266 28.4684 29.2266C27.8434 29.2266 27.5309 29.5339 27.5309 30.1484H24.8981C24.8981 29.3307 25.2445 28.6667 25.9372 28.1562C26.6351 27.6458 27.5231 27.3906 28.6012 27.3906C29.6794 27.3906 30.5309 27.6536 31.1559 28.1797C31.7809 28.7057 32.1012 29.4271 32.1169 30.3438V34.0859C32.1273 34.862 32.2471 35.4557 32.4762 35.8672V36H29.8434ZM39.7803 32.0391C40.0667 32.263 40.21 32.5755 40.21 32.9766C40.21 33.3307 40.0772 33.6068 39.8115 33.8047C39.5511 33.9974 39.1944 34.0938 38.7412 34.0938C38.0329 34.0938 37.5199 33.9505 37.2022 33.6641C36.8897 33.3724 36.7334 32.9219 36.7334 32.3125H33.9834C33.9834 33.0625 34.1709 33.7266 34.5459 34.3047C34.9261 34.8776 35.4886 35.3307 36.2334 35.6641C36.9834 35.9922 37.8194 36.1562 38.7412 36.1562C40.0485 36.1562 41.0772 35.8724 41.8272 35.3047C42.5772 34.737 42.9522 33.9557 42.9522 32.9609C42.9522 31.7161 42.3376 30.7396 41.1084 30.0312C40.6032 29.7396 39.9574 29.4688 39.1709 29.2188C38.3845 28.9635 37.835 28.7188 37.5225 28.4844C37.21 28.2448 37.0537 27.9792 37.0537 27.6875C37.0537 27.3542 37.1944 27.0807 37.4756 26.8672C37.7621 26.6484 38.1501 26.5391 38.6397 26.5391C39.124 26.5391 39.5069 26.6667 39.7881 26.9219C40.0746 27.1771 40.2178 27.5365 40.2178 28H42.9522C42.9522 27.3073 42.7725 26.6927 42.4131 26.1562C42.0537 25.6146 41.5485 25.1979 40.8975 24.9062C40.2516 24.6146 39.5199 24.4688 38.7022 24.4688C37.8636 24.4688 37.1084 24.6042 36.4365 24.875C35.7647 25.1406 35.2438 25.5156 34.874 26C34.5095 26.4792 34.3272 27.0339 34.3272 27.6641C34.3272 28.9297 35.0641 29.9245 36.5381 30.6484C36.9912 30.8724 37.5746 31.1042 38.2881 31.3438C39.0016 31.5833 39.499 31.8151 39.7803 32.0391Z" fill="#B6C2CD"/>
<path d="M11.2744 32.9766C11.2744 32.5755 11.1312 32.263 10.8447 32.0391C10.5635 31.8151 10.0661 31.5833 9.35254 31.3438C8.639 31.1042 8.05566 30.8724 7.60254 30.6484C6.12858 29.9245 5.3916 28.9297 5.3916 27.6641C5.3916 27.0339 5.57389 26.4792 5.93848 26C6.30827 25.5156 6.8291 25.1406 7.50098 24.875C8.17285 24.6042 8.92806 24.4688 9.7666 24.4688C10.5843 24.4688 11.3161 24.6146 11.9619 24.9062C12.613 25.1979 13.1182 25.6146 13.4775 26.1562C13.8369 26.6927 14.0166 27.3073 14.0166 28H11.2822C11.2822 27.5365 11.139 27.1771 10.8525 26.9219C10.5713 26.6667 10.1885 26.5391 9.7041 26.5391C9.21452 26.5391 8.8265 26.6484 8.54004 26.8672C8.25879 27.0807 8.11816 27.3542 8.11816 27.6875C8.11816 27.9792 8.27441 28.2448 8.58691 28.4844C8.89941 28.7188 9.44889 28.9635 10.2354 29.2188C11.0218 29.4688 11.6676 29.7396 12.1729 30.0312C13.402 30.7396 14.0166 31.7161 14.0166 32.9609C14.0166 33.9557 13.6416 34.737 12.8916 35.3047C12.1416 35.8724 11.113 36.1562 9.80566 36.1562C8.88379 36.1562 8.04785 35.9922 7.29785 35.6641C6.55306 35.3307 5.99056 34.8776 5.61035 34.3047C5.23535 33.7266 5.04785 33.0625 5.04785 32.3125H7.79785C7.79785 32.9219 7.9541 33.3724 8.2666 33.6641C8.58431 33.9505 9.09733 34.0938 9.80566 34.0938C10.2588 34.0938 10.6156 33.9974 10.876 33.8047C11.1416 33.6068 11.2744 33.3307 11.2744 32.9766Z" fill="#324558"/>
<path d="M20.7035 36C20.6097 35.8281 20.5264 35.5755 20.4535 35.2422C19.9691 35.8516 19.292 36.1562 18.4222 36.1562C17.6254 36.1562 16.9483 35.9167 16.391 35.4375C15.8337 34.9531 15.555 34.3464 15.555 33.6172C15.555 32.7005 15.8936 32.0078 16.5707 31.5391C17.2477 31.0703 18.2321 30.8359 19.5238 30.8359H20.3363V30.3906C20.3363 29.6146 20.0004 29.2266 19.3285 29.2266C18.7035 29.2266 18.391 29.5339 18.391 30.1484H15.7582C15.7582 29.3307 16.1045 28.6667 16.7972 28.1562C17.4951 27.6458 18.3832 27.3906 19.4613 27.3906C20.5394 27.3906 21.391 27.6536 22.016 28.1797C22.641 28.7057 22.9613 29.4271 22.9769 30.3438V34.0859C22.9873 34.862 23.1071 35.4557 23.3363 35.8672V36H20.7035ZM19.055 34.2812C19.3832 34.2812 19.654 34.2109 19.8675 34.0703C20.0863 33.9297 20.2425 33.7708 20.3363 33.5938V32.2422H19.5707C18.654 32.2422 18.1957 32.6536 18.1957 33.4766C18.1957 33.7161 18.2764 33.9115 18.4379 34.0625C18.5993 34.2083 18.805 34.2812 19.055 34.2812Z" fill="#324558"/>
<path d="M29.8435 36C29.7497 35.8281 29.6664 35.5755 29.5935 35.2422C29.1091 35.8516 28.432 36.1562 27.5622 36.1562C26.7654 36.1562 26.0883 35.9167 25.531 35.4375C24.9737 34.9531 24.695 34.3464 24.695 33.6172C24.695 32.7005 25.0336 32.0078 25.7107 31.5391C26.3877 31.0703 27.3721 30.8359 28.6638 30.8359H29.4763V30.3906C29.4763 29.6146 29.1404 29.2266 28.4685 29.2266C27.8435 29.2266 27.531 29.5339 27.531 30.1484H24.8982C24.8982 29.3307 25.2445 28.6667 25.9372 28.1562C26.6351 27.6458 27.5232 27.3906 28.6013 27.3906C29.6794 27.3906 30.531 27.6536 31.156 28.1797C31.781 28.7057 32.1013 29.4271 32.1169 30.3438V34.0859C32.1273 34.862 32.2471 35.4557 32.4763 35.8672V36H29.8435ZM28.195 34.2812C28.5232 34.2812 28.794 34.2109 29.0075 34.0703C29.2263 33.9297 29.3825 33.7708 29.4763 33.5938V32.2422H28.7107C27.794 32.2422 27.3357 32.6536 27.3357 33.4766C27.3357 33.7161 27.4164 33.9115 27.5779 34.0625C27.7393 34.2083 27.945 34.2812 28.195 34.2812Z" fill="#324558"/>
<path d="M40.21 32.9766C40.21 32.5755 40.0668 32.263 39.7803 32.0391C39.4991 31.8151 39.0017 31.5833 38.2882 31.3438C37.5746 31.1042 36.9913 30.8724 36.5382 30.6484C35.0642 29.9245 34.3272 28.9297 34.3272 27.6641C34.3272 27.0339 34.5095 26.4792 34.8741 26C35.2439 25.5156 35.7647 25.1406 36.4366 24.875C37.1085 24.6042 37.8637 24.4688 38.7022 24.4688C39.5199 24.4688 40.2517 24.6146 40.8975 24.9062C41.5486 25.1979 42.0538 25.6146 42.4132 26.1562C42.7725 26.6927 42.9522 27.3073 42.9522 28H40.2178C40.2178 27.5365 40.0746 27.1771 39.7882 26.9219C39.5069 26.6667 39.1241 26.5391 38.6397 26.5391C38.1501 26.5391 37.7621 26.6484 37.4757 26.8672C37.1944 27.0807 37.0538 27.3542 37.0538 27.6875C37.0538 27.9792 37.21 28.2448 37.5225 28.4844C37.835 28.7188 38.3845 28.9635 39.171 29.2188C39.9574 29.4688 40.6033 29.7396 41.1085 30.0312C42.3376 30.7396 42.9522 31.7161 42.9522 32.9609C42.9522 33.9557 42.5772 34.737 41.8272 35.3047C41.0772 35.8724 40.0486 36.1562 38.7413 36.1562C37.8194 36.1562 36.9835 35.9922 36.2335 35.6641C35.4887 35.3307 34.9262 34.8776 34.546 34.3047C34.171 33.7266 33.9835 33.0625 33.9835 32.3125H36.7335C36.7335 32.9219 36.8897 33.3724 37.2022 33.6641C37.5199 33.9505 38.033 34.0938 38.7413 34.0938C39.1944 34.0938 39.5512 33.9974 39.8116 33.8047C40.0772 33.6068 40.21 33.3307 40.21 32.9766Z" fill="#324558"/>
</svg>
