<svg width="48" height="48" viewBox="0 0 48 48" fill="none" xmlns="http://www.w3.org/2000/svg">
<path fill-rule="evenodd" clip-rule="evenodd" d="M6 12C4.89543 12 4 12.8954 4 14V42C4 43.1046 4.89543 44 6 44H34C35.1046 44 36 43.1046 36 42V14C36 12.8954 35.1046 12 34 12H6ZM13 23.0909L20 20L27 23.0909V27.7273C27 33.7777 21.9919 36.6028 20 37C18.0081 36.6028 13 33.7777 13 27.7273V23.0909Z" fill="#B6C2CD"/>
<path d="M20 8V12H16V6C16 4.89543 16.8954 4 18 4H42C43.1046 4 44 4.89543 44 6V30C44 31.1046 43.1046 32 42 32H36V28H40V8H20Z" fill="#324558"/>
<path d="M13 23.0909L20 20L27 23.0909V27.7273C27 33.7777 21.9919 36.6028 20 37C18.0081 36.6028 13 33.7777 13 27.7273V23.0909Z" fill="#324558"/>
</svg>
