<svg width="48" height="48" viewBox="0 0 48 48" fill="none" xmlns="http://www.w3.org/2000/svg">
<path fill-rule="evenodd" clip-rule="evenodd" d="M8 6C8 4.89543 8.89543 4 10 4H38C39.1046 4 40 4.89543 40 6V15H8V6ZM12 7.5H20V11.5H12V7.5Z" fill="#B6C2CD"/>
<path fill-rule="evenodd" clip-rule="evenodd" d="M8 18H40V30H8V18ZM12 22H20V26H12V22Z" fill="#B6C2CD"/>
<path fill-rule="evenodd" clip-rule="evenodd" d="M8 33H40V42C40 43.1046 39.1046 44 38 44H10C8.89543 44 8 43.1046 8 42V33ZM12 36.5H20V40.5H12V36.5Z" fill="#B6C2CD"/>
<path d="M12 7.5H20V11.5H12V7.5Z" fill="#324558"/>
<path d="M12 22H20V26H12V22Z" fill="#324558"/>
<path d="M20 36.5H12V40.5H20V36.5Z" fill="#324558"/>
</svg>
