<svg width="48" height="48" viewBox="0 0 48 48" fill="none" xmlns="http://www.w3.org/2000/svg">
<path fill-rule="evenodd" clip-rule="evenodd" d="M8 6C8 4.89543 8.89543 4 10 4H38C39.1046 4 40 4.89543 40 6V15H8V6ZM12 7.5H20V11.5H12V7.5Z" fill="#B6C2CD"/>
<path fill-rule="evenodd" clip-rule="evenodd" d="M8 18H40V20.1655L39 19.7412L27 24.8321V30H8V18ZM12 22H20V26H12V22Z" fill="#B6C2CD"/>
<path fill-rule="evenodd" clip-rule="evenodd" d="M8 33H27.0065C27.1339 37.4624 29.1279 40.7964 31.4531 43.0471C31.8037 43.3865 32.1646 43.7041 32.5313 44H10C8.89543 44 8 43.1046 8 42V33ZM12 36.5H20V40.5H12V36.5Z" fill="#B6C2CD"/>
<path d="M20 7.5H12V11.5H20V7.5Z" fill="#324558"/>
<path d="M20 22H12V26H20V22Z" fill="#324558"/>
<path d="M12 36.5H20V40.5H12V36.5Z" fill="#324558"/>
<path fill-rule="evenodd" clip-rule="evenodd" d="M39 23L30 26.8182V32.5455C30 40.0195 36.439 43.5094 39 44C41.561 43.5094 48 40.0195 48 32.5455V26.8182L39 23ZM45.0944 30.0259L37.4376 38.1931L32.9058 33.3592L35.0944 31.3074L37.4376 33.8068L42.9058 27.9741L45.0944 30.0259Z" fill="#324558"/>
</svg>
