<svg width="48" height="48" viewBox="0 0 48 48" fill="none" xmlns="http://www.w3.org/2000/svg">
<path fill-rule="evenodd" clip-rule="evenodd" d="M6 7C6 5.89543 6.89543 5 8 5H40C41.1046 5 42 5.89543 42 7V17H6V7ZM10 11C10 9.89543 10.8954 9 12 9C13.1046 9 14 9.89543 14 11C14 12.1046 13.1046 13 12 13C10.8954 13 10 12.1046 10 11ZM28 9H38V13H28V9Z" fill="#B6C2CD"/>
<path fill-rule="evenodd" clip-rule="evenodd" d="M6 20H42V30C42 31.1046 41.1046 32 40 32H8C6.89543 32 6 31.1046 6 30V20ZM10 26C10 24.8954 10.8954 24 12 24C13.1046 24 14 24.8954 14 26C14 27.1046 13.1046 28 12 28C10.8954 28 10 27.1046 10 26ZM28 24H38V28H28V24Z" fill="#B6C2CD"/>
<path d="M10 11C10 9.89543 10.8954 9 12 9C13.1046 9 14 9.89543 14 11C14 12.1046 13.1046 13 12 13C10.8954 13 10 12.1046 10 11Z" fill="#324558"/>
<path d="M28 9H38V13H28V9Z" fill="#324558"/>
<path d="M12 24C10.8954 24 10 24.8954 10 26C10 27.1046 10.8954 28 12 28C13.1046 28 14 27.1046 14 26C14 24.8954 13.1046 24 12 24Z" fill="#324558"/>
<path d="M28 24H38V28H28V24Z" fill="#324558"/>
<path fill-rule="evenodd" clip-rule="evenodd" d="M22 32V35.416C21.0105 35.8484 20.188 36.5917 19.656 37.5225H8V41.5225H19.236C19.88 43.5394 21.7694 45 24 45C26.2305 45 28.12 43.5394 28.764 41.5225H40V37.5225H28.344C27.812 36.5917 26.9895 35.8484 26 35.416V32H22ZM24 42C25.1046 42 26 41.1046 26 40C26 38.8954 25.1046 38 24 38C22.8954 38 22 38.8954 22 40C22 41.1046 22.8954 42 24 42Z" fill="#324558"/>
</svg>
