<svg width="48" height="48" viewBox="0 0 48 48" fill="none" xmlns="http://www.w3.org/2000/svg">
<path d="M41.5002 29.5358L31.9117 35.0717L22.3232 29.5358V20.9534L16.3232 17.7955V31.8452C16.3232 32.5598 16.7044 33.22 17.3232 33.5773L30.9117 41.4226C31.5305 41.7798 32.2929 41.7798 32.9117 41.4226L46.5002 33.5773C47.119 33.22 47.5002 32.5598 47.5002 31.8452V16.1546C47.5002 15.4401 47.119 14.7798 46.5002 14.4226L32.9117 6.57727C32.6023 6.39864 32.257 6.30933 31.9117 6.30933V12.9281L41.5002 18.464V29.5358Z" fill="#B6C2CD"/>
<path d="M6.5 18.464L16.0885 12.9281L25.6769 18.464V27.0465L31.6769 30.2044V16.1546C31.6769 15.4401 31.2957 14.7798 30.6769 14.4226L17.0885 6.57728C16.4697 6.22001 15.7073 6.22001 15.0885 6.57728L1.5 14.4226C0.881198 14.7798 0.5 15.4401 0.5 16.1546V31.8452C0.5 32.5598 0.881199 33.22 1.5 33.5773L15.0885 41.4226C15.3979 41.6012 15.7432 41.6905 16.0885 41.6905V35.0717L6.5 29.5358V18.464Z" fill="#324558"/>
</svg>
