<svg width="48" height="48" viewBox="0 0 48 48" fill="none" xmlns="http://www.w3.org/2000/svg">
<path fill-rule="evenodd" clip-rule="evenodd" d="M8 6C6.89543 6 6 6.89543 6 8V40C6 41.1046 6.89543 42 8 42H40C41.1046 42 42 41.1046 42 40V8C42 6.89543 41.1046 6 40 6H8ZM15 16H12L17 10L22 16H19V22H15V16ZM17 38L22 32H19V26H15L15 32H12L17 38ZM31 38L36 32H33L33 26H29L29 32H26L31 38ZM26 16H29V22H33V16H36L31 10L26 16Z" fill="#B6C2CD"/>
<path d="M36 32L31 38L26 32H29L29 26H33L33 32L36 32Z" fill="#324558"/>
<path d="M22 32L17 38L12 32H15L15 26H19V32H22Z" fill="#324558"/>
<path d="M15 16H12L17 10L22 16H19L19 22H15L15 16Z" fill="#324558"/>
<path d="M29 16H26L31 10L36 16L33 16V22H29V16Z" fill="#324558"/>
</svg>
