<svg width="48" height="48" viewBox="0 0 48 48" fill="none" xmlns="http://www.w3.org/2000/svg">
<path fill-rule="evenodd" clip-rule="evenodd" d="M6 16C4.89543 16 4 16.8954 4 18V40C4 41.1046 4.89543 42 6 42H42C43.1046 42 44 41.1046 44 40V18C44 16.8954 43.1046 16 42 16H8H6ZM8 16L40 16V29L8 29L8 16Z" fill="#B6C2CD"/>
<path d="M24.8947 4.44723C24.3316 4.1657 23.6689 4.1657 23.1058 4.44723L11.7891 10.1056C11.0521 10.4741 11.0521 11.5259 11.7891 11.8944L24.0003 18L36.2114 11.8944C36.9485 11.5259 36.9485 10.4741 36.2114 10.1056L24.8947 4.44723Z" fill="#324558"/>
<path d="M24.0003 21.3541L14.6462 16.6771L11.7891 18.1056C11.0521 18.4741 11.0521 19.5259 11.7891 19.8944L23.1058 25.5528C23.6689 25.8343 24.3316 25.8343 24.8947 25.5528L36.2114 19.8944C36.9485 19.5259 36.9485 18.4741 36.2114 18.1056L33.3544 16.6771L24.0003 21.3541Z" fill="#324558"/>
</svg>
