<svg width="48" height="48" viewBox="0 0 48 48" fill="none" xmlns="http://www.w3.org/2000/svg">
<path d="M24.7242 21C22.1561 17.9431 18.305 16 14 16C10.2842 16 6.90649 17.4476 4.40011 19.8097C4.13967 18.9183 4 17.9755 4 17C4 11.4772 8.47715 7 14 7C18.1006 7 21.6248 9.46819 23.1679 13L42.1716 13C42.702 13 43.2107 13.2107 43.5858 13.5858L46.2929 16.2929C46.6834 16.6834 46.6834 17.3166 46.2929 17.7071L43.5858 20.4142C43.2107 20.7893 42.702 21 42.1716 21H38.9782C37.8231 19.1958 35.8012 18 33.5 18C31.1988 18 29.1769 19.1958 28.0218 21H24.7242Z" fill="#B6C2CD"/>
<path fill-rule="evenodd" clip-rule="evenodd" d="M24.2501 34C22.65 38.0974 18.664 41 14 41C7.92487 41 3 36.0751 3 30C3 23.9249 7.92487 19 14 19C18.664 19 22.65 21.9026 24.2501 26L42.1716 26C42.702 26 43.2107 26.2107 43.5858 26.5858L46.2929 29.2929C46.6834 29.6834 46.6834 30.3166 46.2929 30.7071L43.5858 33.4142C43.2107 33.7893 42.702 34 42.1716 34H38.9782C37.8231 32.1958 35.8012 31 33.5 31C31.1988 31 29.1769 32.1958 28.0218 34H24.2501ZM17 30C17 31.6569 15.6569 33 14 33C12.3431 33 11 31.6569 11 30C11 28.3431 12.3431 27 14 27C15.6569 27 17 28.3431 17 30Z" fill="#324558"/>
</svg>
