<svg width="48" height="48" viewBox="0 0 48 48" fill="none" xmlns="http://www.w3.org/2000/svg">
<path d="M27 17C27 18.6569 25.6569 20 24 20C22.3431 20 21 18.6569 21 17C21 15.3431 22.3431 14 24 14C25.6569 14 27 15.3431 27 17Z" fill="#B6C2CD"/>
<path fill-rule="evenodd" clip-rule="evenodd" d="M9 6C9 4.89543 9.89543 4 11 4H37C38.1046 4 39 4.89543 39 6V32.7959L37.9161 33.2024L24 38.7688L10.0839 33.2024L9 32.7959V6ZM28 22.7453C29.8135 21.4804 31 19.3787 31 17C31 13.134 27.866 10 24 10C20.134 10 17 13.134 17 17C17 19.3787 18.1865 21.4804 20 22.7453V29L24 25.5L28 29V22.7453Z" fill="#B6C2CD"/>
<path fill-rule="evenodd" clip-rule="evenodd" d="M31 17C31 19.3787 29.8135 21.4804 28 22.7453V29L24 25.5L20 29V22.7453C18.1865 21.4804 17 19.3787 17 17C17 13.134 20.134 10 24 10C27.866 10 31 13.134 31 17ZM24 20C25.6569 20 27 18.6569 27 17C27 15.3431 25.6569 14 24 14C22.3431 14 21 15.3431 21 17C21 18.6569 22.3431 20 24 20Z" fill="#324558"/>
<path d="M39 36L24 42L9 36L5 34.5V38.7081L24 46.3081L43 38.7081V34.5L39 36Z" fill="#324558"/>
</svg>
