<svg width="48" height="48" viewBox="0 0 48 48" fill="none" xmlns="http://www.w3.org/2000/svg">
<path d="M42.3358 16L42.3345 15.997C41.0668 13.0968 39.1311 10.5553 36.7219 8.56703C33.2647 5.71391 28.8325 4 24 4C12.9543 4 4 12.9543 4 24C4 35.0457 12.9543 44 24 44C35.0457 44 44 35.0457 44 24C44 23.325 43.9666 22.6578 43.9012 22H39.8762C39.9579 22.6552 40 23.3227 40 24C40 32.8366 32.8366 40 24 40C15.1634 40 8 32.8366 8 24C8 15.1634 15.1634 8 24 8C26.889 8 29.5992 8.76568 31.9386 10.1052L29.3772 14.4961C28.9883 15.1628 29.4692 16 30.241 16L42.3358 16Z" fill="#B6C2CD"/>
<path d="M31.4806 23.1317C32.1524 23.5156 32.1524 24.4843 31.4806 24.8682L20.4961 31.145C19.8295 31.526 19 31.0446 19 30.2768L19 17.7232C19 16.9553 19.8295 16.474 20.4961 16.8549L31.4806 23.1317Z" fill="#324558"/>
</svg>
