<svg width="48" height="48" viewBox="0 0 48 48" fill="none" xmlns="http://www.w3.org/2000/svg">
<path fill-rule="evenodd" clip-rule="evenodd" d="M23.2032 3.3455C23.7115 3.12474 24.2885 3.12474 24.7968 3.3455L40.7968 10.295C41.5274 10.6123 42 11.3317 42 12.1282V22.5449C42 37.4844 29.7282 44.6497 24.3789 45.9172C24.1268 45.9769 23.8732 45.9769 23.6211 45.9172C18.2718 44.6497 6 37.4844 6 22.5449V12.1282C6 11.3317 6.47264 10.6123 7.20323 10.295L23.2032 3.3455ZM24 13.8174C24 14.641 23.6681 15.3871 23.1308 15.9292L23.9186 18.8179C23.9457 18.8176 23.9728 18.8174 24 18.8174C26.7958 18.8174 29.1449 20.7295 29.811 23.3174H32.4013C32.9201 22.4207 33.8896 21.8174 35 21.8174C36.6569 21.8174 38 23.1605 38 24.8174C38 26.4742 36.6569 27.8174 35 27.8174C33.8896 27.8174 32.9201 27.2141 32.4013 26.3174H29.811C29.5242 27.4314 28.9256 28.4202 28.1137 29.1852L29.8712 31.8215C29.9138 31.8188 29.9567 31.8174 30 31.8174C31.1046 31.8174 32 32.7128 32 33.8174C32 34.922 31.1046 35.8174 30 35.8174C28.8954 35.8174 28 34.922 28 33.8174C28 33.4989 28.0745 33.1978 28.2069 32.9305L26.4504 30.2958C25.7023 30.631 24.8729 30.8174 24 30.8174C22.8873 30.8174 21.8453 30.5145 20.952 29.9866L18.8984 32.0403C18.9647 32.2881 19 32.5486 19 32.8174C19 34.4742 17.6569 35.8174 16 35.8174C14.3431 35.8174 13 34.4742 13 32.8174C13 31.1605 14.3431 29.8174 16 29.8174C16.2687 29.8174 16.5292 29.8527 16.777 29.919L18.8307 27.8653C18.3029 26.972 18 25.9301 18 24.8174C18 24.7144 18.0026 24.612 18.0077 24.5103L16.4738 24.1694C16.1082 24.5677 15.5833 24.8174 15 24.8174C13.8954 24.8174 13 23.922 13 22.8174C13 21.7128 13.8954 20.8174 15 20.8174C15.8955 20.8174 16.6535 21.4059 16.9084 22.2172L18.4401 22.5576C18.9482 21.3088 19.8648 20.2697 21.024 19.6062L20.2367 16.7194C18.9495 16.3818 18 15.2105 18 13.8174C18 12.1605 19.3431 10.8174 21 10.8174C22.6569 10.8174 24 12.1605 24 13.8174Z" fill="#B6C2CD"/>
<path d="M23.1308 15.9292C23.6681 15.3871 24 14.641 24 13.8174C24 12.1605 22.6569 10.8174 21 10.8174C19.3431 10.8174 18 12.1605 18 13.8174C18 15.2105 18.9495 16.3818 20.2367 16.7194L21.024 19.6062C19.8648 20.2697 18.9482 21.3088 18.4401 22.5576L16.9084 22.2172C16.6535 21.4059 15.8955 20.8174 15 20.8174C13.8954 20.8174 13 21.7128 13 22.8174C13 23.922 13.8954 24.8174 15 24.8174C15.5833 24.8174 16.1082 24.5677 16.4738 24.1694L18.0077 24.5103C18.0026 24.612 18 24.7144 18 24.8174C18 25.9301 18.3029 26.972 18.8307 27.8653L16.777 29.919C16.5292 29.8527 16.2687 29.8174 16 29.8174C14.3431 29.8174 13 31.1605 13 32.8174C13 34.4742 14.3431 35.8174 16 35.8174C17.6569 35.8174 19 34.4742 19 32.8174C19 32.5486 18.9647 32.2881 18.8984 32.0403L20.952 29.9866C21.8453 30.5145 22.8873 30.8174 24 30.8174C24.8729 30.8174 25.7023 30.631 26.4504 30.2958L28.2069 32.9305C28.0745 33.1978 28 33.4989 28 33.8174C28 34.922 28.8954 35.8174 30 35.8174C31.1046 35.8174 32 34.922 32 33.8174C32 32.7128 31.1046 31.8174 30 31.8174C29.9567 31.8174 29.9138 31.8188 29.8712 31.8215L28.1137 29.1852C28.9256 28.4202 29.5242 27.4314 29.811 26.3174H32.4013C32.9201 27.2141 33.8896 27.8174 35 27.8174C36.6569 27.8174 38 26.4742 38 24.8174C38 23.1605 36.6569 21.8174 35 21.8174C33.8896 21.8174 32.9201 22.4207 32.4013 23.3174H29.811C29.1449 20.7295 26.7958 18.8174 24 18.8174C23.9728 18.8174 23.9457 18.8176 23.9186 18.8179L23.1308 15.9292Z" fill="#324558"/>
</svg>
