<svg width="48" height="48" viewBox="0 0 48 48" fill="none" xmlns="http://www.w3.org/2000/svg">
<path d="M4.13296 18C3.53146 18 3.06608 18.5272 3.14068 19.124L5.78119 40.2481C5.90629 41.2489 6.75709 42 7.76574 42H22.0001V34H17.0001L24.0001 26L31.0001 34H26.0001V42H40.2346C41.2433 42 42.0941 41.2489 42.2192 40.2481L44.8597 19.124C44.9343 18.5272 44.4689 18 43.8674 18H4.13296Z" fill="#B6C2CD"/>
<path d="M6 8C6 6.89543 6.89543 6 8 6H19L24 10H40C41.1046 10 42 10.8954 42 12V18H6V8Z" fill="#324558"/>
<path d="M24 26L31 34H26V42H22V34H17L24 26Z" fill="#324558"/>
</svg>
