<svg width="48" height="48" viewBox="0 0 48 48" fill="none" xmlns="http://www.w3.org/2000/svg">
<path fill-rule="evenodd" clip-rule="evenodd" d="M6 8C6 6.89543 6.89543 6 8 6H40C41.1046 6 42 6.89543 42 8V40C42 41.1046 41.1046 42 40 42H15V38C15 35.2386 12.7614 33 10 33H6V8ZM18.0464 22.5H13.1013C13.7073 18.0564 16.9669 14.4572 21.231 13.3516C19.5216 15.1332 18.295 18.5129 18.0464 22.5ZM22.4406 16.8564C21.7498 18.2381 21.2175 20.1983 21.053 22.5H26.947C26.7825 20.1983 26.2502 18.2381 25.5594 16.8564C25.1415 16.0206 24.7214 15.5071 24.3979 15.2334C24.2432 15.1025 24.1321 15.0445 24.0729 15.0203C24.0437 15.0083 24.0252 15.0037 24.0163 15.0019C24.0078 15.0002 24.0032 15 24 15C23.9968 15 23.9922 15.0002 23.9837 15.0019C23.9748 15.0037 23.9563 15.0083 23.9271 15.0203C23.8679 15.0445 23.7568 15.1025 23.6021 15.2334C23.2786 15.5071 22.8585 16.0206 22.4406 16.8564ZM13.1013 25.5C13.7072 29.9438 16.967 33.5432 21.2313 34.6488C19.5218 32.8672 18.295 29.4874 18.0464 25.5H13.1013ZM25.5594 31.1436C26.2502 29.7619 26.7825 27.8017 26.947 25.5H21.053C21.2175 27.8017 21.7498 29.7619 22.4406 31.1436C22.8585 31.9794 23.2786 32.4929 23.6021 32.7666C23.7568 32.8975 23.8679 32.9555 23.9271 32.9797C23.9563 32.9917 23.9748 32.9963 23.9837 32.9981C23.9922 32.9998 23.9968 33 24 33C24.0032 33 24.0078 32.9998 24.0163 32.9981C24.0252 32.9963 24.0437 32.9917 24.0729 32.9797C24.1321 32.9555 24.2432 32.8975 24.3979 32.7666C24.7214 32.4929 25.1415 31.9794 25.5594 31.1436ZM29.9536 25.5C29.705 29.4873 28.4782 32.8671 26.7688 34.6487C31.033 33.5431 34.2927 29.9437 34.8985 25.5H29.9536ZM34.8985 22.5C34.2926 18.0565 31.0331 14.4573 26.7691 13.3516C28.4784 15.1333 29.705 18.5129 29.9536 22.5H34.8985Z" fill="#B6C2CD"/>
<path d="M18.0464 22.5H13.1013C13.7073 18.0564 16.9669 14.4572 21.231 13.3516C19.5216 15.1332 18.295 18.5129 18.0464 22.5Z" fill="#324558"/>
<path d="M22.4406 16.8564C21.7498 18.2381 21.2175 20.1983 21.053 22.5H26.947C26.7825 20.1983 26.2502 18.2381 25.5594 16.8564C25.1415 16.0206 24.7214 15.5071 24.3979 15.2334C24.2432 15.1025 24.1321 15.0445 24.0729 15.0203C24.0437 15.0083 24.0252 15.0037 24.0163 15.0019C24.0078 15.0002 24.0032 15 24 15C23.9968 15 23.9922 15.0002 23.9837 15.0019C23.9748 15.0037 23.9563 15.0083 23.9271 15.0203C23.8679 15.0445 23.7568 15.1025 23.6021 15.2334C23.2786 15.5071 22.8585 16.0206 22.4406 16.8564Z" fill="#324558"/>
<path d="M21.2313 34.6488C16.967 33.5432 13.7072 29.9438 13.1013 25.5H18.0464C18.295 29.4874 19.5218 32.8672 21.2313 34.6488Z" fill="#324558"/>
<path d="M25.5594 31.1436C26.2502 29.7619 26.7825 27.8017 26.947 25.5H21.053C21.2175 27.8017 21.7498 29.7619 22.4406 31.1436C22.8585 31.9794 23.2786 32.4929 23.6021 32.7666C23.7568 32.8975 23.8679 32.9555 23.9271 32.9797C23.9563 32.9917 23.9748 32.9963 23.9837 32.9981C23.9922 32.9998 23.9968 33 24 33C24.0032 33 24.0078 32.9998 24.0163 32.9981C24.0252 32.9963 24.0437 32.9917 24.0729 32.9797C24.1321 32.9555 24.2432 32.8975 24.3979 32.7666C24.7214 32.4929 25.1415 31.9794 25.5594 31.1436Z" fill="#324558"/>
<path d="M26.7688 34.6487C28.4782 32.8671 29.705 29.4873 29.9536 25.5H34.8985C34.2927 29.9437 31.033 33.5431 26.7688 34.6487Z" fill="#324558"/>
<path d="M34.8985 22.5C34.2926 18.0565 31.0331 14.4573 26.7691 13.3516C28.4784 15.1333 29.705 18.5129 29.9536 22.5H34.8985Z" fill="#324558"/>
<path d="M10 36H6V40C6 41.1046 6.89543 42 8 42H12V38C12 36.8954 11.1046 36 10 36Z" fill="#324558"/>
</svg>
