<svg width="48" height="48" viewBox="0 0 48 48" fill="none" xmlns="http://www.w3.org/2000/svg">
<path d="M40.0014 36H32.5326C31.7601 38.8997 30.716 41.3753 29.4817 43.2394C33.7361 42.0296 37.4125 39.4466 40.0014 36Z" fill="#B6C2CD"/>
<path d="M40.7059 13H32.7842C31.9939 9.66814 30.8556 6.83559 29.4817 4.76057C34.1383 6.0848 38.1023 9.05397 40.7059 13Z" fill="#B6C2CD"/>
<path d="M18.5181 4.76057C13.8615 6.0848 9.89745 9.05397 7.29395 13H15.2156C16.0059 9.66814 17.1442 6.83559 18.5181 4.76057Z" fill="#B6C2CD"/>
<path d="M7.99843 36C10.5873 39.4466 14.2637 42.0296 18.5181 43.2394C17.2838 41.3753 16.2397 38.8997 15.4672 36H7.99843Z" fill="#B6C2CD"/>
<path d="M23.9999 44C24.3814 44 24.9857 43.8348 25.8005 43.0422C26.6292 42.236 27.5128 40.9233 28.3198 39.0673C28.7223 38.1415 29.091 37.1144 29.4178 36H18.582C18.9088 37.1144 19.2775 38.1415 19.68 39.0673C20.487 40.9233 21.3706 42.236 22.1993 43.0422C23.0141 43.8348 23.6184 44 23.9999 44Z" fill="#B6C2CD"/>
<path d="M23.9999 4C23.6184 4 23.0141 4.16519 22.1993 4.9578C21.3706 5.76402 20.487 7.07666 19.68 8.93272C19.1598 10.1293 18.6959 11.4952 18.3063 13H29.6935C29.3039 11.4952 28.84 10.1293 28.3198 8.93272C27.5128 7.07666 26.6292 5.76402 25.8005 4.9578C24.9857 4.16519 24.3814 4 23.9999 4Z" fill="#B6C2CD"/>
<path d="M22.0702 20.9472V24.2284H23.8671C24.2525 24.2284 24.565 24.1633 24.8046 24.0331C25.0441 23.9029 25.2186 23.7232 25.328 23.4941C25.4426 23.2597 25.4999 22.9967 25.4999 22.705C25.4999 22.3925 25.4426 22.1034 25.328 21.8378C25.2186 21.5722 25.0441 21.3586 24.8046 21.1972C24.565 21.0305 24.2525 20.9472 23.8671 20.9472H22.0702Z" fill="#324558"/>
<path fill-rule="evenodd" clip-rule="evenodd" d="M4 18C4 16.8954 4.89543 16 6 16H42C43.1046 16 44 16.8954 44 18V31C44 32.1046 43.1046 33 42 33H6C4.89543 33 4 32.1046 4 31V18ZM11.0239 30.205H14.0161L17.8521 18.83H14.7817L12.5239 27.1236L10.2661 18.83H7.21143L11.0239 30.205ZM23.8671 26.3456H22.0702V30.205H19.328V18.83H23.8671C24.7785 18.83 25.5624 18.9967 26.2186 19.33C26.8801 19.6633 27.3879 20.1217 27.7421 20.705C28.0962 21.2831 28.2733 21.9446 28.2733 22.6894C28.2733 23.4238 28.0962 24.0644 27.7421 24.6113C27.3879 25.1581 26.8801 25.5852 26.2186 25.8925C25.5624 26.1946 24.7785 26.3456 23.8671 26.3456ZM39.8899 30.205V18.83H37.1555V25.9081L33.132 18.83H30.3899V30.205H33.132V23.1269L37.1555 30.205H39.8899Z" fill="#324558"/>
</svg>
