<svg width="48" height="48" viewBox="0 0 48 48" fill="none" xmlns="http://www.w3.org/2000/svg">
<path d="M28.3197 8.93272C29.1676 10.8827 29.8658 13.2827 30.3367 16H17.663C18.134 13.2827 18.8322 10.8827 19.68 8.93272C20.487 7.07666 21.3706 5.76402 22.1993 4.9578C23.0141 4.16519 23.6183 4 23.9999 4C24.3814 4 24.9857 4.16519 25.8004 4.9578C26.6292 5.76402 27.5128 7.07666 28.3197 8.93272Z" fill="#B6C2CD"/>
<path d="M18.5181 43.2394C12.7442 41.5975 8.03498 37.4264 5.66406 32H14.6214C15.3692 36.6357 16.7481 40.5662 18.5181 43.2394Z" fill="#B6C2CD"/>
<path d="M28.9999 37.3123C28.7862 37.9311 28.559 38.5171 28.3197 39.0673C27.5128 40.9233 26.6292 42.236 25.8004 43.0422C24.9857 43.8348 24.3814 44 23.9999 44C23.6183 44 23.0141 43.8348 22.1993 43.0422C21.3706 42.236 20.487 40.9233 19.68 39.0673C18.8322 37.1173 18.134 34.7173 17.663 32H28.9999V37.3123Z" fill="#B6C2CD"/>
<path d="M14.6214 16C15.3692 11.3643 16.7481 7.43381 18.5181 4.76057C12.7442 6.40254 8.03498 10.5736 5.66406 16H14.6214Z" fill="#B6C2CD"/>
<path d="M33.3784 16C32.6306 11.3643 31.2517 7.4338 29.4817 4.76057C35.2556 6.40254 39.9648 10.5736 42.3357 16H33.3784Z" fill="#B6C2CD"/>
<path d="M14.237 19C14.0818 20.6097 14 22.2829 14 24C14 25.7171 14.0818 27.3903 14.237 29H4.63009C4.21877 27.4019 4 25.7265 4 24C4 22.2735 4.21876 20.5981 4.63009 19H14.237Z" fill="#324558"/>
<path d="M17.2517 29H30.7483C30.9119 27.4064 31 25.7326 31 24C31 22.2674 30.9119 20.5936 30.7483 19H17.2517C17.0881 20.5936 17 22.2674 17 24C17 25.7326 17.0881 27.4064 17.2517 29Z" fill="#324558"/>
<path d="M33.763 19H43.3699C43.7812 20.5981 44 22.2735 44 24C44 24.249 43.9954 24.497 43.9864 24.7438C42.6189 23.6524 40.8856 23 39 23C37.1056 23 35.3651 23.6584 33.9947 24.7589C33.9982 24.5069 34 24.254 34 24C34 22.2829 33.9182 20.6097 33.763 19Z" fill="#324558"/>
<path fill-rule="evenodd" clip-rule="evenodd" d="M32 34H34V31C34 28.2386 36.2386 26 39 26C41.7614 26 44 28.2386 44 31V34H46V44H32V34ZM41 31V34H37V31C37 29.8954 37.8954 29 39 29C40.1046 29 41 29.8954 41 31Z" fill="#324558"/>
</svg>
