<svg width="48" height="48" viewBox="0 0 48 48" fill="none" xmlns="http://www.w3.org/2000/svg">
<path fill-rule="evenodd" clip-rule="evenodd" d="M24.7968 4.52811C24.2885 4.30736 23.7115 4.30736 23.2032 4.52811L7.20323 11.4776C6.47264 11.7949 6 12.5143 6 13.3109V23.7275C6 38.6671 18.2718 45.8324 23.6211 47.0998C23.8732 47.1595 24.1268 47.1595 24.3789 47.0998C29.7282 45.8324 42 38.6671 42 23.7275V13.3109C42 12.5143 41.5274 11.7949 40.7968 11.4776L24.7968 4.52811ZM33.8883 23.4999C33.3408 19.86 30.8314 16.8627 27.4713 15.6189C28.8007 17.4293 29.7287 20.2516 29.9494 23.4999H33.8883ZM18.0506 23.4999H14.1118C14.6594 19.8601 17.1687 16.8628 20.5286 15.619C19.1993 17.4293 18.2713 20.2517 18.0506 23.4999ZM22.4171 18.2559C21.7482 19.5379 21.2277 21.3573 21.0585 23.4999H26.9415C26.7723 21.3573 26.2518 19.5379 25.5829 18.2559C25.174 17.4722 24.7637 16.9914 24.4462 16.7341C24.1544 16.4974 24.0122 16.4997 24.0006 16.4999H23.9994C23.9878 16.4997 23.8456 16.4974 23.5538 16.7341C23.2363 16.9914 22.826 17.4722 22.4171 18.2559ZM20.5287 34.381C17.1687 33.1372 14.6593 30.1398 14.1118 26.4999H18.0506C18.2713 29.7482 19.1993 32.5707 20.5287 34.381ZM25.5829 31.7439C26.2518 30.4619 26.7723 28.6425 26.9415 26.4999H21.0585C21.2277 28.6425 21.7482 30.4619 22.4171 31.7439C22.826 32.5276 23.2363 33.0084 23.5538 33.2658C23.8456 33.5024 23.9878 33.5001 23.9994 33.4999H24.0006C24.0122 33.5001 24.1544 33.5024 24.4462 33.2658C24.7637 33.0084 25.174 32.5276 25.5829 31.7439ZM27.4712 34.3811C28.8006 32.5707 29.7287 29.7483 29.9494 26.4999H33.8883C33.3408 30.1399 30.8314 33.1373 27.4712 34.3811Z" fill="#B6C2CD"/>
<path d="M26.9415 26.4999C26.7723 28.6425 26.2518 30.4619 25.5829 31.7439C25.174 32.5276 24.7637 33.0084 24.4462 33.2658C24.1544 33.5024 24.0122 33.5001 24.0006 33.4999H23.9994C23.9878 33.5001 23.8456 33.5024 23.5538 33.2658C23.2363 33.0084 22.826 32.5276 22.4171 31.7439C21.7482 30.4619 21.2277 28.6425 21.0585 26.4999H26.9415Z" fill="#324558"/>
<path d="M29.9494 26.4999C29.7287 29.7483 28.8006 32.5707 27.4712 34.3811C30.8314 33.1373 33.3408 30.1399 33.8883 26.4999H29.9494Z" fill="#324558"/>
<path d="M20.5287 34.381C17.1687 33.1372 14.6593 30.1398 14.1118 26.4999H18.0506C18.2713 29.7482 19.1993 32.5707 20.5287 34.381Z" fill="#324558"/>
<path d="M21.0585 23.4999C21.2277 21.3573 21.7482 19.5379 22.4171 18.2559C22.826 17.4722 23.2363 16.9914 23.5538 16.7341C23.8456 16.4974 23.9878 16.4997 23.9994 16.4999H24.0006C24.0122 16.4997 24.1544 16.4974 24.4462 16.7341C24.7637 16.9914 25.174 17.4722 25.5829 18.2559C26.2518 19.5379 26.7723 21.3573 26.9415 23.4999H21.0585Z" fill="#324558"/>
<path d="M18.0506 23.4999H14.1118C14.6594 19.8601 17.1687 16.8628 20.5286 15.619C19.1993 17.4293 18.2713 20.2517 18.0506 23.4999Z" fill="#324558"/>
<path d="M27.4713 15.6189C30.8314 16.8627 33.3408 19.86 33.8883 23.4999H29.9494C29.7287 20.2516 28.8007 17.4293 27.4713 15.6189Z" fill="#324558"/>
</svg>
