<svg width="48" height="48" viewBox="0 0 48 48" fill="none" xmlns="http://www.w3.org/2000/svg">
<path fill-rule="evenodd" clip-rule="evenodd" d="M4 39.9998V14.9998H44V39.9998C44 41.1043 43.1046 41.9998 42 41.9998H6C4.89543 41.9998 4 41.1043 4 39.9998ZM30.5001 25.9998C32.1569 25.9998 33.5001 24.6566 33.5001 22.9998C33.5001 21.3429 32.1569 19.9998 30.5001 19.9998C28.9737 19.9998 27.7136 21.1396 27.5246 22.6145L21.1631 25.2651C20.4558 24.6336 19.5227 24.2498 18.5 24.2498C16.2909 24.2498 14.5 26.0406 14.5 28.2498C14.5 30.4589 16.2909 32.2498 18.5 32.2498C19.702 32.2498 20.7801 31.7196 21.5134 30.8803L27.5246 33.3849C27.7136 34.8599 28.9737 35.9998 30.5001 35.9998C32.1569 35.9998 33.5001 34.6566 33.5001 32.9998C33.5001 31.3429 32.1569 29.9998 30.5001 29.9998C29.815 29.9998 29.1836 30.2294 28.6786 30.6158L22.4946 28.0391C22.4932 28.0135 22.4916 27.9878 22.4898 27.9623L28.6786 25.3837C29.1836 25.7701 29.815 25.9998 30.5001 25.9998Z" fill="#B6C2CD"/>
<path fill-rule="evenodd" clip-rule="evenodd" d="M6 5.99976C4.89543 5.99976 4 6.89519 4 7.99976V14.9998H44V7.99976C44 6.89519 43.1046 5.99976 42 5.99976H6ZM8.50006 9C7.67163 9 7.00006 9.67157 7.00006 10.5C7.00006 11.3284 7.67163 12 8.50006 12C9.32849 12 10.0001 11.3284 10.0001 10.5C10.0001 9.67157 9.32849 9 8.50006 9ZM13.0001 10.5C13.0001 9.67157 13.6716 9 14.5001 9C15.3285 9 16.0001 9.67157 16.0001 10.5C16.0001 11.3284 15.3285 12 14.5001 12C13.6716 12 13.0001 11.3284 13.0001 10.5ZM20.5001 9C19.6716 9 19.0001 9.67157 19.0001 10.5C19.0001 11.3284 19.6716 12 20.5001 12C21.3285 12 22.0001 11.3284 22.0001 10.5C22.0001 9.67157 21.3285 9 20.5001 9Z" fill="#324558"/>
<path d="M30.5001 25.9998C32.1569 25.9998 33.5001 24.6566 33.5001 22.9998C33.5001 21.3429 32.1569 19.9998 30.5001 19.9998C28.9737 19.9998 27.7136 21.1396 27.5246 22.6145L21.1631 25.2651C20.4558 24.6336 19.5227 24.2498 18.5 24.2498C16.2909 24.2498 14.5 26.0406 14.5 28.2498C14.5 30.4589 16.2909 32.2498 18.5 32.2498C19.702 32.2498 20.7801 31.7196 21.5134 30.8803L27.5246 33.3849C27.7136 34.8599 28.9737 35.9998 30.5001 35.9998C32.1569 35.9998 33.5001 34.6566 33.5001 32.9998C33.5001 31.3429 32.1569 29.9998 30.5001 29.9998C29.815 29.9998 29.1836 30.2294 28.6786 30.6158L22.4946 28.0391C22.4932 28.0135 22.4916 27.9878 22.4898 27.9623L28.6786 25.3837C29.1836 25.7701 29.815 25.9998 30.5001 25.9998Z" fill="#324558"/>
</svg>
