<svg width="48" height="48" viewBox="0 0 48 48" fill="none" xmlns="http://www.w3.org/2000/svg">
<path fill-rule="evenodd" clip-rule="evenodd" d="M4 15V40C4 41.1046 4.89543 42 6 42H42C43.1046 42 44 41.1046 44 40V15H4ZM24 21L18 23.7273V27.8182C18 33.1568 22.2927 35.6495 24 36C25.7073 35.6495 30 33.1568 30 27.8182V23.7273L24 21Z" fill="#B6C2CD"/>
<path fill-rule="evenodd" clip-rule="evenodd" d="M4 8C4 6.89543 4.89543 6 6 6H42C43.1046 6 44 6.89543 44 8V15H4V8ZM7 10.5C7 9.67157 7.67157 9 8.5 9C9.32843 9 10 9.67157 10 10.5C10 11.3284 9.32843 12 8.5 12C7.67157 12 7 11.3284 7 10.5ZM14.5 9C13.6716 9 13 9.67157 13 10.5C13 11.3284 13.6716 12 14.5 12C15.3284 12 16 11.3284 16 10.5C16 9.67157 15.3284 9 14.5 9ZM19 10.5C19 9.67157 19.6716 9 20.5 9C21.3284 9 22 9.67157 22 10.5C22 11.3284 21.3284 12 20.5 12C19.6716 12 19 11.3284 19 10.5Z" fill="#324558"/>
<path d="M18 23.7273L24 21L30 23.7273V27.8182C30 33.1568 25.7073 35.6495 24 36C22.2927 35.6495 18 33.1568 18 27.8182V23.7273Z" fill="#324558"/>
</svg>
