<svg width="48" height="48" viewBox="0 0 48 48" fill="none" xmlns="http://www.w3.org/2000/svg">
<path d="M29.4178 36H18.582C18.9088 37.1144 19.2775 38.1415 19.68 39.0673C20.487 40.9233 21.3706 42.236 22.1993 43.0422C23.0141 43.8348 23.6184 44 23.9999 44C24.3814 44 24.9857 43.8348 25.8005 43.0422C26.6292 42.236 27.5128 40.9233 28.3198 39.0673C28.7223 38.1415 29.091 37.1144 29.4178 36Z" fill="#B6C2CD"/>
<path d="M18.3063 13C18.6959 11.4952 19.1598 10.1293 19.68 8.93272C20.487 7.07666 21.3706 5.76402 22.1993 4.9578C23.0141 4.16519 23.6184 4 23.9999 4C24.3814 4 24.9857 4.16519 25.8005 4.9578C26.6292 5.76402 27.5128 7.07666 28.3198 8.93272C28.84 10.1293 29.3039 11.4952 29.6935 13H18.3063Z" fill="#B6C2CD"/>
<path d="M15.2156 13H7.29395C9.89745 9.05397 13.8615 6.0848 18.5181 4.76057C17.1442 6.83559 16.0059 9.66814 15.2156 13Z" fill="#B6C2CD"/>
<path d="M15.4672 36H7.99843C10.5873 39.4466 14.2637 42.0296 18.5181 43.2394C17.2838 41.3753 16.2397 38.8997 15.4672 36Z" fill="#B6C2CD"/>
<path d="M32.5326 36H40.0014C37.4125 39.4466 33.7361 42.0296 29.4817 43.2394C30.716 41.3753 31.7601 38.8997 32.5326 36Z" fill="#B6C2CD"/>
<path d="M40.7059 13H32.7842C31.9939 9.66814 30.8556 6.83559 29.4817 4.76057C34.1383 6.0848 38.1024 9.05397 40.7059 13Z" fill="#B6C2CD"/>
<path fill-rule="evenodd" clip-rule="evenodd" d="M6 16C4.89543 16 4 16.8954 4 18V31C4 32.1046 4.89543 33 6 33H42C43.1046 33 44 32.1046 44 31V18C44 16.8954 43.1046 16 42 16H6ZM14.667 25.584L15.6455 20.2344H17.6845L15.874 28.7656H13.7412L12.5986 23.9023L11.4795 28.7656H9.3525L7.53609 20.2344H9.58102L10.5595 25.584L11.7314 20.2344H13.4775L14.667 25.584ZM26.0566 25.584L27.0352 20.2344H29.0742L27.2637 28.7656H25.1309L23.9883 23.9023L22.8691 28.7656H20.7422L18.9258 20.2344H20.9707L21.9492 25.584L23.1211 20.2344H24.8672L26.0566 25.584ZM38.4248 20.2344L37.4463 25.584L36.2569 20.2344H34.5108L33.3389 25.584L32.3604 20.2344H30.3155L32.1319 28.7656H34.2588L35.378 23.9023L36.5205 28.7656H38.6534L40.4639 20.2344H38.4248Z" fill="#324558"/>
</svg>
