<svg width="48" height="48" viewBox="0 0 48 48" fill="none" xmlns="http://www.w3.org/2000/svg">
<path d="M5 13.5C5 8.80558 8.80558 5 13.5 5C18.1944 5 22 8.80558 22 13.5V22H13.5C8.80558 22 5 18.1944 5 13.5Z" fill="#B6C2CD"/>
<path d="M5 34.5C5 39.1944 8.80558 43 13.5 43C18.1944 43 22 39.1944 22 34.5V26H13.5C8.80558 26 5 29.8056 5 34.5Z" fill="#B6C2CD"/>
<path d="M34.5 5C39.1944 5 43 8.80558 43 13.5C43 18.1944 39.1944 22 34.5 22H26V13.5C26 8.80558 29.8056 5 34.5 5Z" fill="#B6C2CD"/>
<path d="M43 34.5C43 39.1944 39.1944 43 34.5 43C29.8056 43 26 39.1944 26 34.5V26H34.5C39.1944 26 43 29.8056 43 34.5Z" fill="#324558"/>
</svg>
