<svg width="48" height="48" viewBox="0 0 48 48" fill="none" xmlns="http://www.w3.org/2000/svg">
<path d="M23.0078 4.56698C23.6226 4.21563 24.3775 4.21563 24.9923 4.56698L43.4806 15.1317C44.1525 15.5156 44.1525 16.4843 43.4806 16.8682L24.9923 27.4329C24.3775 27.7843 23.6226 27.7843 23.0078 27.4329L4.51949 16.8682C3.84767 16.4843 3.84767 15.5156 4.51949 15.1317L23.0078 4.56698Z" fill="#B6C2CD"/>
<path d="M17.0001 24L4.51949 31.1318C3.84767 31.5157 3.84767 32.4844 4.51949 32.8683L23.0078 43.433C23.6226 43.7844 24.3775 43.7844 24.9923 43.433L43.4806 32.8683C44.1525 32.4844 44.1525 31.5157 43.4806 31.1318L31 24L24.9923 27.433C24.3775 27.7843 23.6226 27.7843 23.0078 27.433L17.0001 24Z" fill="#324558"/>
</svg>
