<svg width="48" height="48" viewBox="0 0 48 48" fill="none" xmlns="http://www.w3.org/2000/svg">
<path d="M36.0608 14.0607L26.1215 24L36.0609 33.9393L44.586 25.4142C45.367 24.6332 45.367 23.3668 44.586 22.5858L36.0608 14.0607Z" fill="#B6C2CD"/>
<path d="M33.9395 36.0607L24.0002 26.1213L14.0608 36.0607L22.586 44.5858C23.367 45.3669 24.6334 45.3668 25.4144 44.5858L33.9395 36.0607Z" fill="#B6C2CD"/>
<path d="M11.9395 33.9393L21.8789 24L11.9395 14.0607L3.4144 22.5858C2.63335 23.3668 2.63335 24.6332 3.4144 25.4142L11.9395 33.9393Z" fill="#B6C2CD"/>
<path d="M25.4142 3.4144L33.9681 11.9683L24.0604 21.9393L14.0645 11.9357L22.5857 3.4144C23.3668 2.63335 24.6331 2.63335 25.4142 3.4144Z" fill="#324558"/>
</svg>
