<svg width="48" height="48" viewBox="0 0 48 48" fill="none" xmlns="http://www.w3.org/2000/svg">
<path d="M6 8C6 6.89543 6.89543 6 8 6H22.5V22.5H6V8Z" fill="#B6C2CD"/>
<path d="M25.5 22.5V6H40C41.1046 6 42 6.89543 42 8V22.5H25.5Z" fill="#B6C2CD"/>
<path d="M22.5 42V25.5H6V40C6 41.1046 6.89543 42 8 42H22.5Z" fill="#B6C2CD"/>
<path d="M31.0569 27.1449L31.4827 25H35.5173L35.9431 27.1449C36.653 27.4087 37.3095 27.7773 37.886 28.2423L39.9827 27.5317L42 30.9683L40.3223 32.401C40.3818 32.7596 40.4203 33.1248 40.4203 33.5C40.4203 33.8752 40.3818 34.2404 40.3223 34.599L42 36.0317L39.9827 39.4683L37.886 38.7577C37.3095 39.2227 36.653 39.5913 35.9431 39.8551L35.5173 42H31.4827L31.0569 39.8551C30.347 39.5913 29.6905 39.2227 29.114 38.7577L27.0173 39.4683L25 36.0317L26.6777 34.599C26.6182 34.2404 26.5797 33.8752 26.5797 33.5C26.5797 33.1248 26.6182 32.7596 26.6777 32.401L25 30.9683L27.0173 27.5317L29.114 28.2423C29.6905 27.7773 30.347 27.4087 31.0569 27.1449ZM33.5 36.6874C35.2604 36.6874 36.6875 35.2603 36.6875 33.4999C36.6875 31.7395 35.2604 30.3124 33.5 30.3124C31.7396 30.3124 30.3125 31.7395 30.3125 33.4999C30.3125 35.2603 31.7396 36.6874 33.5 36.6874Z" fill="#324558"/>
</svg>
