<svg width="48" height="48" viewBox="0 0 48 48" fill="none" xmlns="http://www.w3.org/2000/svg">
<path d="M44 36C44 31.5817 40.4183 28 36 28C31.5817 28 28 31.5817 28 36C28 40.4183 31.5817 44 36 44C40.4183 44 44 40.4183 44 36Z" fill="#B6C2CD"/>
<path fill-rule="evenodd" clip-rule="evenodd" d="M5 42C5 43.1046 5.89543 44 7 44H17C18.1046 44 19 43.1046 19 42V32C19 30.8954 18.1046 30 17 30H7C5.89543 30 5 30.8954 5 32V42ZM9 34V40H15V34H9Z" fill="#B6C2CD"/>
<path d="M20 12C20 7.58172 16.4183 4 12 4C7.58172 4 4 7.58172 4 12C4 15.7277 6.54955 18.8599 10 19.748V30H14L14 22.0175C15.7265 23.76 18.0626 25 21.0001 25H27C28.9567 25 30.2497 25.5709 31.1561 26.3423C31.8577 26.9392 32.4096 27.7275 32.8343 28.6508C33.8051 28.232 34.8755 28 36 28C36.3065 28 36.6091 28.0172 36.9066 28.0508C36.2916 26.3526 35.3129 24.6273 33.7484 23.296C32.0546 21.8545 29.8191 21 27 21H21.0001C19.0964 21 17.5605 20.1209 16.3804 18.6953C18.5602 17.2662 20 14.8012 20 12Z" fill="#324558"/>
</svg>
