<svg width="48" height="48" viewBox="0 0 48 48" fill="none" xmlns="http://www.w3.org/2000/svg">
<path fill-rule="evenodd" clip-rule="evenodd" d="M5 6C5 4.89543 5.89543 4 7 4L17 4C18.1046 4 19 4.89543 19 6V16C19 17.1046 18.1046 18 17 18H7C5.89543 18 5 17.1046 5 16L5 6ZM9 14V8H15V14H9Z" fill="#B6C2CD"/>
<path d="M44 12C44 16.4183 40.4183 20 36 20C31.5817 20 28 16.4183 28 12C28 7.58172 31.5817 4 36 4C40.4183 4 44 7.58172 44 12Z" fill="#B6C2CD"/>
<path d="M32.8343 19.3492C32.4096 20.2725 31.8577 21.0607 31.1561 21.6577C30.2497 22.4291 28.9567 23 27 23H21.0001C18.0626 23 15.7265 24.24 14 25.9825L14 18H10V28.252C6.54955 29.1401 4 32.2723 4 36C4 40.4183 7.58172 44 12 44C16.4183 44 20 40.4183 20 36C20 33.1988 18.5602 30.7338 16.3804 29.3047C17.5605 27.8791 19.0964 27 21.0001 27H27C29.8191 27 32.0546 26.1455 33.7484 24.704C35.3129 23.3727 36.2916 21.6474 36.9066 19.9492C36.6091 19.9828 36.3065 20 36 20C34.8755 20 33.8051 19.768 32.8343 19.3492Z" fill="#324558"/>
</svg>
