<svg width="48" height="48" viewBox="0 0 48 48" fill="none" xmlns="http://www.w3.org/2000/svg">
<path d="M11 18C14.866 18 18 14.866 18 11C18 7.13401 14.866 4 11 4C7.13401 4 4 7.13401 4 11C4 14.866 7.13401 18 11 18Z" fill="#B6C2CD"/>
<path d="M44 36L36 28L28 36L36 44L44 36Z" fill="#B6C2CD"/>
<path fill-rule="evenodd" clip-rule="evenodd" d="M29 6C29 4.89543 29.8954 4 31 4H41C42.1046 4 43 4.89543 43 6V16C43 17.1046 42.1046 18 41 18H38V30L36 28L34 30V18H31C29.8954 18 29 17.1046 29 16V13H17.7101C17.8987 12.3663 18 11.695 18 11C18 10.305 17.8987 9.63371 17.7101 9H29V6ZM33 8H39V14H33V8Z" fill="#324558"/>
<path fill-rule="evenodd" clip-rule="evenodd" d="M30 34H18V31C18 29.8954 17.1046 29 16 29H13V17.7101C12.3663 17.8987 11.695 18 11 18C10.305 18 9.63371 17.8987 9 17.7101V29H6C4.89543 29 4 29.8954 4 31V41C4 42.1046 4.89543 43 6 43H16C17.1046 43 18 42.1046 18 41V38H30L28 36L30 34ZM8 39V33H14V39H8Z" fill="#324558"/>
</svg>
