<svg width="48" height="48" viewBox="0 0 48 48" fill="none" xmlns="http://www.w3.org/2000/svg">
<path d="M35.8341 26C35.9432 25.3496 36 24.6814 36 24C36 23.3186 35.9432 22.6504 35.8341 22H48V26H35.8341Z" fill="#B6C2CD"/>
<path d="M12.1659 26H0V22H12.1659C12.0568 22.6504 12 23.3186 12 24C12 24.6814 12.0568 25.3496 12.1659 26Z" fill="#B6C2CD"/>
<path fill-rule="evenodd" clip-rule="evenodd" d="M24 28C26.2091 28 28 26.2091 28 24C28 21.7909 26.2091 20 24 20C21.7909 20 20 21.7909 20 24C20 26.2091 21.7909 28 24 28ZM24 36C30.6274 36 36 30.6274 36 24C36 17.3726 30.6274 12 24 12C17.3726 12 12 17.3726 12 24C12 30.6274 17.3726 36 24 36Z" fill="#324558"/>
</svg>
