<svg width="48" height="48" viewBox="0 0 48 48" fill="none" xmlns="http://www.w3.org/2000/svg">
<path d="M33 39C33 43.9706 28.9706 48 24 48C19.0294 48 15 43.9706 15 39C15 34.0294 19.0294 30 24 30C28.9706 30 33 34.0294 33 39Z" fill="#B6C2CD"/>
<path fill-rule="evenodd" clip-rule="evenodd" d="M33 9C33 13.2832 30.008 16.8675 26 17.777V30.223C25.3568 30.0771 24.6874 30 24 30C23.3126 30 22.6432 30.0771 22 30.223V17.777C17.992 16.8675 15 13.2832 15 9C15 4.02944 19.0294 0 24 0C28.9706 0 33 4.02944 33 9ZM24 14C26.7614 14 29 11.7614 29 9C29 6.23858 26.7614 4 24 4C21.2386 4 19 6.23858 19 9C19 11.7614 21.2386 14 24 14Z" fill="#324558"/>
</svg>
