<svg width="48" height="48" viewBox="0 0 48 48" fill="none" xmlns="http://www.w3.org/2000/svg">
<path d="M11.9789 9.15082L6.84008 4.01196L4.01166 6.84039L9.15051 11.9792L11.9789 9.15082Z" fill="#B6C2CD"/>
<path d="M9.15054 36.0209L4.00391 41.1675L6.83233 43.996L11.979 38.8493L9.15054 36.0209Z" fill="#B6C2CD"/>
<path d="M36.0206 38.8493L41.167 43.9957L43.9954 41.1673L38.849 36.0209L36.0206 38.8493Z" fill="#B6C2CD"/>
<path d="M38.849 11.9793L43.9955 6.83282L41.1671 4.00439L36.0206 9.15085L38.849 11.9793Z" fill="#B6C2CD"/>
<path d="M26.9998 8.94019C26.9998 7.98534 25.7893 7.57364 25.2072 8.33048L13.238 23.8904C12.7322 24.548 13.201 25.5001 14.0306 25.5001H20.9998V39.0599C20.9998 40.0148 22.2102 40.4265 22.7924 39.6697L34.7615 24.1098C35.2674 23.4522 34.7986 22.5001 33.9689 22.5001H26.9998V8.94019Z" fill="#324558"/>
</svg>
