<svg width="48" height="48" viewBox="0 0 48 48" fill="none" xmlns="http://www.w3.org/2000/svg">
<path d="M21 11L31 3V19L21 11Z" fill="#B6C2CD"/>
<path d="M18 37C18 40.866 14.866 44 11 44C7.13401 44 4 40.866 4 37C4 33.134 7.13401 30 11 30C14.866 30 18 33.134 18 37Z" fill="#B6C2CD"/>
<path fill-rule="evenodd" clip-rule="evenodd" d="M44 37C44 40.866 40.866 44 37 44C33.134 44 30 40.866 30 37C30 33.134 33.134 30 37 30C40.866 30 44 33.134 44 37ZM40 37C40 38.6569 38.6569 40 37 40C35.3431 40 34 38.6569 34 37C34 35.3431 35.3431 34 37 34C38.6569 34 40 35.3431 40 37Z" fill="#B6C2CD"/>
<path d="M18 11C18 14.171 15.8915 16.8496 13 17.7101V30.2899C12.3663 30.1013 11.695 30 11 30C10.305 30 9.63371 30.1013 9 30.2899V17.7101C6.10851 16.8496 4 14.171 4 11C4 7.13401 7.13401 4 11 4C14.866 4 18 7.13401 18 11Z" fill="#324558"/>
<path d="M31 9V13H35V30.2899C35.6337 30.1013 36.305 30 37 30C37.695 30 38.3663 30.1013 39 30.2899V11C39 9.89543 38.1046 9 37 9H31Z" fill="#324558"/>
</svg>
