<svg width="48" height="48" viewBox="0 0 48 48" fill="none" xmlns="http://www.w3.org/2000/svg">
<path fill-rule="evenodd" clip-rule="evenodd" d="M32.8619 13.0405C33.1136 13.4666 33.4225 13.8682 33.7886 14.2343C34.1507 14.5964 34.5475 14.9025 34.9684 15.1527C37.2711 16.5215 40.2928 16.2154 42.2739 14.2343C44.617 11.8912 44.617 8.0922 42.2739 5.74906C39.9308 3.40591 36.1318 3.40591 33.7886 5.74906C31.8159 7.72177 31.504 10.7264 32.853 13.0254C32.856 13.0304 32.8589 13.0354 32.8619 13.0405ZM36.617 8.57749C35.836 9.35853 35.836 10.6249 36.617 11.4059C37.3981 12.187 38.6644 12.187 39.4455 11.4059C40.2265 10.6249 40.2265 9.35853 39.4455 8.57749C38.6644 7.79644 37.3981 7.79644 36.617 8.57749Z" fill="#B6C2CD"/>
<path d="M18.9844 16.2554L16.7802 14.3143C17.2727 12.909 16.9572 11.2835 15.8338 10.1601C14.2717 8.598 11.739 8.598 10.1769 10.1601C8.61485 11.7222 8.61485 14.2549 10.1769 15.817C11.4272 17.0672 13.2991 17.3168 14.7976 16.5658L17.1033 18.5963C17.492 17.8925 17.9848 17.2309 18.5817 16.6339C18.7129 16.5027 18.8472 16.3766 18.9844 16.2554Z" fill="#B6C2CD"/>
<path d="M29.9469 29.9069C30.3059 29.644 30.6494 29.3504 30.9738 29.026C31.3735 28.6262 31.7266 28.1974 32.0329 27.7464L34.6309 30.0343C35.5913 29.3814 36.751 28.9999 37.9999 28.9999C41.3136 28.9999 43.9999 31.6862 43.9999 34.9999C43.9999 38.3136 41.3136 40.9999 37.9999 40.9999C34.6862 40.9999 31.9999 38.3136 31.9999 34.9999C31.9999 34.0229 32.2334 33.1004 32.6477 32.2852L29.9469 29.9069Z" fill="#B6C2CD"/>
<path fill-rule="evenodd" clip-rule="evenodd" d="M32.8531 13.0256C33.1064 13.4573 33.4183 13.8641 33.7887 14.2346C34.1508 14.5966 34.5476 14.9028 34.9685 15.1529L32.1031 18.0184C34.3417 21.4186 33.9653 26.0348 30.9739 29.0262C27.9825 32.0176 23.3663 32.394 19.966 30.1554L16.896 33.2254C17.5948 34.3145 18 35.61 18 37.0001C18 40.8661 14.866 44.0001 11 44.0001C7.13401 44.0001 4 40.8661 4 37.0001C4 33.1341 7.13401 30.0001 11 30.0001C12.3901 30.0001 13.6856 30.4053 14.7747 31.104L17.7771 28.1017C15.185 24.6684 15.4533 19.7627 18.5818 16.6342C21.7104 13.5056 26.6161 13.2374 30.0494 15.8294L32.8531 13.0256ZM8 37.0001C8 38.657 9.34314 40.0001 11 40.0001C12.6569 40.0001 14 38.657 14 37.0001C14 35.3433 12.6569 34.0001 11 34.0001C9.34315 34.0001 8 35.3433 8 37.0001Z" fill="#324558"/>
</svg>
