<svg width="48" height="48" viewBox="0 0 48 48" fill="none" xmlns="http://www.w3.org/2000/svg">
<path d="M4 34C4 32.8954 4.89543 32 6 32H12C13.1046 32 14 32.8954 14 34V42C14 43.1046 13.1046 44 12 44H6C4.89543 44 4 43.1046 4 42V34Z" fill="#B6C2CD"/>
<path d="M19 34C19 32.8954 19.8954 32 21 32H27C28.1046 32 29 32.8954 29 34V42C29 43.1046 28.1046 44 27 44H21C19.8954 44 19 43.1046 19 42V34Z" fill="#B6C2CD"/>
<path d="M36 32C34.8954 32 34 32.8954 34 34V42C34 43.1046 34.8954 44 36 44H42C43.1046 44 44 43.1046 44 42V34C44 32.8954 43.1046 32 42 32H36Z" fill="#B6C2CD"/>
<path d="M16 6C16 4.89543 16.8954 4 18 4H30C31.1046 4 32 4.89543 32 6V14C32 15.1046 31.1046 16 30 16H26V24H39C40.1046 24 41 24.8954 41 26V32H37V28H26V32H22V28H11V32H7V26C7 24.8954 7.89543 24 9 24H22V16H18C16.8954 16 16 15.1046 16 14V6Z" fill="#324558"/>
</svg>
