<svg width="48" height="48" viewBox="0 0 48 48" fill="none" xmlns="http://www.w3.org/2000/svg">
<path d="M25.6325 10.6528C25.134 10.8759 24.5815 11 24 11C23.4185 11 22.866 10.8759 22.3675 10.6528L9.36846 31.7763C10.0996 32.3144 10.6411 33.0952 10.874 34H37.126C37.3589 33.0952 37.9004 32.3143 38.6315 31.7763L25.6325 10.6528Z" fill="#B6C2CD"/>
<path d="M4.05118 25.4419C4.98332 25.1546 5.9736 25 7 25C7.34916 25 7.69415 25.0179 8.03409 25.0528C8.01148 24.7048 8 24.3537 8 24C8 18.5905 10.6846 13.8079 14.7942 10.912C14.2829 9.71042 14 8.38825 14 7C14 6.89045 14.0018 6.78131 14.0053 6.67261C8.02434 10.13 4 16.595 4 24C4 24.4849 4.01725 24.9657 4.05118 25.4419Z" fill="#B6C2CD"/>
<path d="M40 24C40 18.5905 37.3154 13.8079 33.2058 10.912C33.7171 9.71042 34 8.38825 34 7C34 6.89045 33.9982 6.78131 33.9947 6.67261C39.9757 10.13 44 16.595 44 24C44 24.4849 43.9827 24.9657 43.9488 25.4419C43.0167 25.1546 42.0264 25 41 25C40.6508 25 40.3059 25.0179 39.9659 25.0528C39.9885 24.7048 40 24.3537 40 24Z" fill="#B6C2CD"/>
<path d="M33.4938 41.6075C32.6129 40.6076 31.9287 39.4303 31.5016 38.136C29.2642 39.3258 26.7108 40 24 40C21.2892 40 18.7358 39.3258 16.4984 38.136C16.0713 39.4303 15.3871 40.6076 14.5062 41.6075C17.3308 43.1337 20.5642 44 24 44C27.4358 44 30.6692 43.1336 33.4938 41.6075Z" fill="#B6C2CD"/>
<path d="M28 7C28 9.20914 26.2091 11 24 11C21.7909 11 20 9.20914 20 7C20 4.79086 21.7909 3 24 3C26.2091 3 28 4.79086 28 7Z" fill="#324558"/>
<path d="M11 35C11 37.2091 9.20914 39 7 39C4.79086 39 3 37.2091 3 35C3 32.7909 4.79086 31 7 31C9.20914 31 11 32.7909 11 35Z" fill="#324558"/>
<path d="M41 39C43.2091 39 45 37.2091 45 35C45 32.7909 43.2091 31 41 31C38.7909 31 37 32.7909 37 35C37 37.2091 38.7909 39 41 39Z" fill="#324558"/>
</svg>
