<svg width="48" height="48" viewBox="0 0 48 48" fill="none" xmlns="http://www.w3.org/2000/svg">
<path fill-rule="evenodd" clip-rule="evenodd" d="M8 8H12V13.4167C14.9318 10.095 19.2212 8 24 8H45V12H34.5833C37.905 14.9318 40 19.2212 40 24V40H36V34.5833C33.0682 37.905 28.7788 40 24 40H3V36H13.4167C10.095 33.0682 8 28.7788 8 24V8ZM24 36C30.6274 36 36 30.6274 36 24C36 17.3726 30.6274 12 24 12C17.3726 12 12 17.3726 12 24C12 30.6274 17.3726 36 24 36Z" fill="#B6C2CD"/>
<path d="M9.19986 1.06675C9.59986 0.533415 10.3999 0.533415 10.7999 1.06675L14.7999 6.40008C15.2943 7.05932 14.8239 8.00008 13.9999 8.00008H5.99986C5.17582 8.00008 4.70544 7.05932 5.19986 6.40008L9.19986 1.06675Z" fill="#324558"/>
<path d="M38.7999 46.9334C38.3999 47.4667 37.5999 47.4667 37.1999 46.9334L33.1999 41.6001C32.7054 40.9408 33.1758 40.0001 33.9999 40.0001H41.9999C42.8239 40.0001 43.2943 40.9408 42.7999 41.6001L38.7999 46.9334Z" fill="#324558"/>
<path d="M24 30.0001C27.3137 30.0001 30 27.3138 30 24.0001C30 20.6864 27.3137 18.0001 24 18.0001C20.6863 18.0001 18 20.6864 18 24.0001C18 27.3138 20.6863 30.0001 24 30.0001Z" fill="#324558"/>
</svg>
