<svg width="48" height="48" viewBox="0 0 48 48" fill="none" xmlns="http://www.w3.org/2000/svg">
<path d="M28 6C28 8.20914 26.2091 10 24 10C22.6604 10 21.4746 9.34151 20.7487 8.33056C15.8792 9.33572 11.8184 12.5537 9.66427 16.8866C8.56645 16.32 7.32059 16 6 16C5.88646 16 5.77348 16.0024 5.6611 16.007C8.27891 10.0092 13.7529 5.5438 20.3644 4.32964C20.9972 2.9546 22.3871 2 24 2C26.2091 2 28 3.79086 28 6Z" fill="#B6C2CD"/>
<path d="M31.1134 9.66427C35.4463 11.8184 38.6643 15.8792 39.6694 20.7487C38.6585 21.4747 38 22.6604 38 24C38 26.2091 39.7909 28 42 28C44.2091 28 46 26.2091 46 24C46 22.3871 45.0454 20.9972 43.6704 20.3644C42.4562 13.7529 37.9908 8.27891 31.993 5.6611C31.9976 5.77348 32 5.88646 32 6C32 7.32059 31.68 8.56645 31.1134 9.66427Z" fill="#B6C2CD"/>
<path d="M42 32C42.1135 32 42.2265 31.9976 42.3389 31.993C39.7211 37.9908 34.2471 42.4562 27.6356 43.6704C27.0028 45.0454 25.6129 46 24 46C21.7909 46 20 44.2091 20 42C20 39.7909 21.7909 38 24 38C25.3396 38 26.5253 38.6585 27.2513 39.6694C32.1208 38.6643 36.1816 35.4463 38.3357 31.1134C39.4336 31.68 40.6794 32 42 32Z" fill="#B6C2CD"/>
<path d="M16.007 42.3389C16.0024 42.2265 16 42.1135 16 42C16 40.6794 16.32 39.4336 16.8866 38.3357C12.5537 36.1816 9.33571 32.1208 8.33056 27.2513C9.34151 26.5253 10 25.3396 10 24C10 21.7909 8.20914 20 6 20C3.79086 20 2 21.7909 2 24C2 25.6129 2.9546 27.0028 4.32964 27.6356C5.5438 34.2471 10.0092 39.7211 16.007 42.3389Z" fill="#B6C2CD"/>
<path d="M32 24C32 28.4183 28.4183 32 24 32C19.5817 32 16 28.4183 16 24C16 19.5817 19.5817 16 24 16C28.4183 16 32 19.5817 32 24Z" fill="#324558"/>
</svg>
