<svg width="48" height="48" viewBox="0 0 48 48" fill="none" xmlns="http://www.w3.org/2000/svg">
<path fill-rule="evenodd" clip-rule="evenodd" d="M4 11.3106C4 10.5806 4.3972 9.91079 5.0708 9.62954C6.69126 8.95297 10.0055 7.84814 14.0041 8.05017C20.2197 8.36421 24 11.2037 24 11.2037V41C24 41 18.7769 38.4234 13.9704 38.0647C10.2987 37.7907 7.06047 38.3681 5.33043 38.7766C4.66802 38.933 4 38.4353 4 37.7547V11.3106Z" fill="#B6C2CD"/>
<path fill-rule="evenodd" clip-rule="evenodd" d="M44 11.2847C44 10.5547 43.6028 9.88491 42.9292 9.60366C41.3087 8.92709 37.9945 7.82226 33.9959 8.02429C27.7803 8.33834 24 11.1778 24 11.1778V40.9742C24 40.9742 29.2231 38.3975 34.0296 38.0388C37.7013 37.7648 40.9395 38.3422 42.6696 38.7507C43.332 38.9071 44 38.4094 44 37.7288V11.2847Z" fill="#324558"/>
</svg>
