<svg width="48" height="48" viewBox="0 0 48 48" fill="none" xmlns="http://www.w3.org/2000/svg">
<path fill-rule="evenodd" clip-rule="evenodd" d="M14 40V8H40C41.1046 8 42 8.89543 42 10V42C42 43.1046 41.1046 44 40 44H10C7.79086 44 6 42.2091 6 40C6 37.7909 7.79086 36 10 36C12.2091 36 14 37.7909 14 40ZM20.5 14H35.5V22H20.5V14ZM35.5 26H20.5V30H35.5V26Z" fill="#B6C2CD"/>
<path d="M10 4C7.79086 4 6 5.79086 6 8V40C6 37.7909 7.79086 36 10 36C12.2091 36 14 37.7909 14 40V8C14 5.79086 12.2091 4 10 4Z" fill="#324558"/>
<path d="M20.5 14H35.5V22H20.5V14Z" fill="#324558"/>
<path d="M20.5 26H35.5V30H20.5V26Z" fill="#324558"/>
</svg>
