<svg width="48" height="48" viewBox="0 0 48 48" fill="none" xmlns="http://www.w3.org/2000/svg">
<path fill-rule="evenodd" clip-rule="evenodd" d="M14 8H40C41.1046 8 42 8.89543 42 10V42C42 43.1046 41.1046 44 40 44H10C7.79086 44 6 42.2091 6 40C6 37.7909 7.79086 36 10 36C12.2091 36 14 37.7909 14 40V8ZM28 18L36.5 25.9597L35.4575 27.058L33.6991 25.4114V33H29.5198V30.7358C29.5198 29.9021 28.8393 29.2263 28 29.2263C27.1607 29.2263 26.4802 29.9021 26.4802 30.7358V33H22.3009V25.4114L20.5425 27.058L19.5 25.9597L28 18Z" fill="#B6C2CD"/>
<path d="M10 4C7.79086 4 6 5.79086 6 8V40C6 37.7909 7.79086 36 10 36C12.2091 36 14 37.7909 14 40V8C14 5.79086 12.2091 4 10 4Z" fill="#324558"/>
<path d="M36.5 25.9597L28 18L19.5 25.9597L20.5425 27.058L22.3009 25.4114V33H26.4802V30.7358C26.4802 29.9021 27.1607 29.2263 28 29.2263C28.8393 29.2263 29.5198 29.9021 29.5198 30.7358V33H33.6991V25.4114L35.4575 27.058L36.5 25.9597Z" fill="#324558"/>
</svg>
