<svg width="48" height="48" viewBox="0 0 48 48" fill="none" xmlns="http://www.w3.org/2000/svg">
<path fill-rule="evenodd" clip-rule="evenodd" d="M16 7H10C8.89543 7 8 7.89543 8 9V42C8 43.1046 8.89543 44 10 44H38C39.1046 44 40 43.1046 40 42V9C40 7.89543 39.1046 7 38 7H32V10H16V7ZM14 27L22 20L22 33.9999L14 27ZM22 24.5C30.25 24.5001 34 31 34 34C34 34 32.7663 29.5 22 29.5V24.5Z" fill="#B6C2CD"/>
<path d="M18 4C16.8954 4 16 4.89543 16 6V10H32V6C32 4.89543 31.1046 4 30 4H18Z" fill="#324558"/>
<path d="M14 27L22 20L22 33.9999L14 27Z" fill="#324558"/>
<path d="M34 34C34 31 30.25 24.5001 22 24.5V29.5C32.7663 29.5 34 34 34 34Z" fill="#324558"/>
</svg>
