<svg width="48" height="48" viewBox="0 0 48 48" fill="none" xmlns="http://www.w3.org/2000/svg">
<path fill-rule="evenodd" clip-rule="evenodd" d="M16 7H10C8.89543 7 8 7.89543 8 9V42C8 43.1046 8.89543 44 10 44H38C39.1046 44 40 43.1046 40 42V9C40 7.89543 39.1046 7 38 7H32V10H16V7ZM21.8901 23.6321L19 23.0506C19.5073 20.597 21.5077 19 24.058 19C26.4468 19 28.595 20.5478 28.9444 23.1944C29.1914 25.0654 28.6154 26.23 27.2222 27.6274C27.1813 27.6685 27.0808 27.7682 26.9853 27.8629L26.9837 27.8644C26.8993 27.9482 26.819 28.0278 26.7878 28.0591C25.7793 29.0697 25.4296 29.7232 25.4296 31H22.48C22.48 28.8382 23.1839 27.5228 24.6859 26.0177C24.7239 25.9797 24.8156 25.8887 24.9063 25.7987L24.9176 25.7875C25.0035 25.7023 25.0869 25.6196 25.1193 25.5871C25.9396 24.7643 26.1271 24.3852 26.0195 23.5702C25.8776 22.4954 25.0648 21.9098 24.058 21.9098C22.9041 21.9098 22.1161 22.5388 21.8901 23.6321ZM24 37C24.8284 37 25.5 36.3284 25.5 35.5C25.5 34.6716 24.8284 34 24 34C23.1716 34 22.5 34.6716 22.5 35.5C22.5 36.3284 23.1716 37 24 37Z" fill="#B6C2CD"/>
<path d="M18 4C16.8954 4 16 4.89543 16 6V10H32V6C32 4.89543 31.1046 4 30 4H18Z" fill="#324558"/>
<path d="M21.8901 23.6321L19 23.0506C19.5073 20.597 21.5077 19 24.058 19C26.4468 19 28.595 20.5478 28.9444 23.1944C29.1914 25.0654 28.6154 26.23 27.2222 27.6274C27.1813 27.6685 27.0808 27.7682 26.9853 27.8629L26.9837 27.8644C26.8993 27.9482 26.819 28.0278 26.7878 28.0591C25.7793 29.0697 25.4296 29.7232 25.4296 31H22.48C22.48 28.8382 23.1839 27.5228 24.6859 26.0177C24.7239 25.9797 24.8156 25.8887 24.9063 25.7987L24.9107 25.7944C24.9992 25.7066 25.086 25.6205 25.1193 25.5871C25.9396 24.7643 26.1271 24.3852 26.0195 23.5702C25.8776 22.4954 25.0648 21.9098 24.058 21.9098C22.9041 21.9098 22.1161 22.5388 21.8901 23.6321Z" fill="#324558"/>
<path d="M25.5 35.5C25.5 36.3284 24.8284 37 24 37C23.1716 37 22.5 36.3284 22.5 35.5C22.5 34.6716 23.1716 34 24 34C24.8284 34 25.5 34.6716 25.5 35.5Z" fill="#324558"/>
</svg>
