<svg width="48" height="48" viewBox="0 0 48 48" fill="none" xmlns="http://www.w3.org/2000/svg">
<path fill-rule="evenodd" clip-rule="evenodd" d="M16 7V10H32V7H38C39.1046 7 40 7.89543 40 9V42C40 43.1046 39.1046 44 38 44H10C8.89543 44 8 43.1046 8 42V9C8 7.89543 8.89543 7 10 7H16ZM16 33C16 30.7909 17.7909 29 20 29H28C30.2091 29 32 30.7909 32 33V35H16V33ZM28 23C28 25.2091 26.2091 27 24 27C21.7909 27 20 25.2091 20 23C20 20.7909 21.7909 19 24 19C26.2091 19 28 20.7909 28 23Z" fill="#B6C2CD"/>
<path d="M16 6C16 4.89543 16.8954 4 18 4H30C31.1046 4 32 4.89543 32 6V10H16V6Z" fill="#324558"/>
<path d="M16 33C16 30.7909 17.7909 29 20 29H28C30.2091 29 32 30.7909 32 33V35H16V33Z" fill="#324558"/>
<path d="M24 27C26.2091 27 28 25.2091 28 23C28 20.7909 26.2091 19 24 19C21.7909 19 20 20.7909 20 23C20 25.2091 21.7909 27 24 27Z" fill="#324558"/>
</svg>
