<svg width="48" height="48" viewBox="0 0 48 48" fill="none" xmlns="http://www.w3.org/2000/svg">
<path fill-rule="evenodd" clip-rule="evenodd" d="M16 7V10H32V7H38C39.1046 7 40 7.89543 40 9V42C40 43.1046 39.1046 44 38 44H10C8.89543 44 8 43.1046 8 42V9C8 7.89543 8.89543 7 10 7H16ZM34.4042 21.4242L21.8438 33.8087L14.5958 26.6623L17.4042 23.814L21.8438 28.1913L31.5958 18.5759L34.4042 21.4242Z" fill="#B6C2CD"/>
<path d="M17.9999 4C16.8953 4 15.9999 4.89543 15.9999 6V10H31.9999V6C31.9999 4.89543 31.1045 4 29.9999 4H17.9999Z" fill="#324558"/>
<path d="M21.8437 33.8087L34.4041 21.4242L31.5957 18.5759L21.8437 28.1913L17.4041 23.814L14.5957 26.6623L21.8437 33.8087Z" fill="#324558"/>
</svg>
