<svg width="48" height="48" viewBox="0 0 48 48" fill="none" xmlns="http://www.w3.org/2000/svg">
<path fill-rule="evenodd" clip-rule="evenodd" d="M6 7C4.89543 7 4 7.89543 4 9V39C4 40.1046 4.89543 41 6 41H42C43.1046 41 44 40.1046 44 39V13C44 11.8954 43.1046 11 42 11H24L19 7H6ZM23.1278 17L31 20.09L29.6995 23.2803L26.6293 22.0752V30.2754C26.6293 32.8847 24.4737 35 21.8147 35C19.1556 35 17 32.8847 17 30.2754C17 27.666 19.1556 25.5508 21.8147 25.5508C22.2699 25.5508 22.7103 25.6128 23.1278 25.7286V17Z" fill="#B6C2CD"/>
<path d="M31 20.09L23.1278 17V25.7286C22.7103 25.6128 22.2699 25.5508 21.8147 25.5508C19.1556 25.5508 17 27.666 17 30.2754C17 32.8847 19.1556 35 21.8147 35C24.4737 35 26.6293 32.8847 26.6293 30.2754V22.0752L29.6995 23.2803L31 20.09Z" fill="#324558"/>
</svg>
