<svg width="48" height="48" viewBox="0 0 48 48" fill="none" xmlns="http://www.w3.org/2000/svg">
<path d="M26 26V24C26 22.8954 25.1046 22 24 22C22.8954 22 22 22.8954 22 24V26H26Z" fill="#B6C2CD"/>
<path fill-rule="evenodd" clip-rule="evenodd" d="M6 7C4.89543 7 4 7.89543 4 9V39C4 40.1046 4.89543 41 6 41H42C43.1046 41 44 40.1046 44 39V13C44 11.8954 43.1046 11 42 11H24L19 7H6ZM19 24V26H17V34H31V26H29V24C29 21.2386 26.7614 19 24 19C21.2386 19 19 21.2386 19 24Z" fill="#B6C2CD"/>
<path fill-rule="evenodd" clip-rule="evenodd" d="M19 26V24C19 21.2386 21.2386 19 24 19C26.7614 19 29 21.2386 29 24V26H31V34H17V26H19ZM26 24V26H22V24C22 22.8954 22.8954 22 24 22C25.1046 22 26 22.8954 26 24Z" fill="#324558"/>
</svg>
