<svg width="48" height="48" viewBox="0 0 48 48" fill="none" xmlns="http://www.w3.org/2000/svg">
<path fill-rule="evenodd" clip-rule="evenodd" d="M6 7C4.89543 7 4 7.89543 4 9V39C4 40.1046 4.89543 41 6 41H42C43.1046 41 44 40.1046 44 39V13C44 11.8954 43.1046 11 42 11H24L19 7H6ZM21.6791 21.0181L18.5 20.3882C19.058 17.7301 21.2585 16 24.0638 16C26.6915 16 29.0545 17.6768 29.4388 20.544C29.7105 22.5708 29.077 23.8325 27.5445 25.3464C27.4993 25.391 27.3882 25.4995 27.2829 25.6024C27.1897 25.6934 27.101 25.78 27.0666 25.814C25.9572 26.9088 25.5725 27.6168 25.5725 29H22.328C22.328 26.6581 23.1023 25.233 24.7545 23.6025C24.7962 23.5613 24.8971 23.4628 24.9968 23.3654L24.9976 23.3646C25.0965 23.268 25.194 23.1728 25.2312 23.136C26.1336 22.2446 26.3398 21.834 26.2214 20.9511C26.0653 19.7867 25.1713 19.1522 24.0638 19.1522C22.7945 19.1522 21.9277 19.8337 21.6791 21.0181ZM26 34C26 35.1046 25.1046 36 24 36C22.8954 36 22 35.1046 22 34C22 32.8954 22.8954 32 24 32C25.1046 32 26 32.8954 26 34Z" fill="#B6C2CD"/>
<path d="M18.5 20.3882L21.6791 21.0181C21.9277 19.8337 22.7945 19.1522 24.0638 19.1522C25.1713 19.1522 26.0653 19.7867 26.2214 20.9511C26.3398 21.834 26.1336 22.2446 25.2312 23.136C25.1939 23.1728 25.096 23.2685 24.9968 23.3654C24.8971 23.4628 24.7962 23.5613 24.7545 23.6025C23.1023 25.233 22.328 26.6581 22.328 29H25.5725C25.5725 27.6168 25.9572 26.9088 27.0666 25.814C27.101 25.78 27.1897 25.6934 27.2829 25.6024C27.3882 25.4995 27.4993 25.391 27.5445 25.3464C29.077 23.8325 29.7105 22.5708 29.4388 20.544C29.0545 17.6768 26.6915 16 24.0638 16C21.2585 16 19.058 17.7301 18.5 20.3882Z" fill="#324558"/>
<path d="M24 36C25.1046 36 26 35.1046 26 34C26 32.8954 25.1046 32 24 32C22.8954 32 22 32.8954 22 34C22 35.1046 22.8954 36 24 36Z" fill="#324558"/>
</svg>
