<svg width="48" height="48" viewBox="0 0 48 48" fill="none" xmlns="http://www.w3.org/2000/svg">
<path d="M4 6C4 4.89543 4.89543 4 6 4H13.375L16.5 6.44444H27C28.1046 6.44444 29 7.33987 29 8.44444V16H13V26H6C4.89543 26 4 25.1046 4 24V6Z" fill="#B6C2CD"/>
<path fill-rule="evenodd" clip-rule="evenodd" d="M16 19H26.5L30 21.7778H42C43.1046 21.7778 44 22.6732 44 23.7778V42C44 43.1046 43.1046 44 42 44H18C16.8954 44 16 43.1046 16 42V19ZM38 27V30H22V27H38Z" fill="#B6C2CD"/>
<path d="M31.9997 9.43146V12.9047C34.1899 14.3562 35.9629 16.3866 37.1006 18.7777H40.3613C38.8202 14.7277 35.8185 11.3977 31.9997 9.43146Z" fill="#324558"/>
<path d="M12.9997 38.6114C10.0273 36.2063 7.85855 32.8472 6.95898 29H10.0585C10.6411 31.0343 11.6569 32.8855 12.9997 34.4476V38.6114Z" fill="#324558"/>
<path d="M37.9998 27H21.9998V30H37.9998V27Z" fill="#324558"/>
</svg>
