<svg width="48" height="48" viewBox="0 0 48 48" fill="none" xmlns="http://www.w3.org/2000/svg">
<path fill-rule="evenodd" clip-rule="evenodd" d="M6 7C4.89543 7 4 7.89543 4 9V39C4 40.1046 4.89543 41 6 41H42C43.1046 41 44 40.1046 44 39V13C44 11.8954 43.1046 11 42 11H24L19 7H6ZM28 22C28 24.2091 26.2091 26 24 26C21.7909 26 20 24.2091 20 22C20 19.7909 21.7909 18 24 18C26.2091 18 28 19.7909 28 22ZM16 32C16 29.7909 17.7909 28 20 28H28C30.2091 28 32 29.7909 32 32V34H16V32Z" fill="#B6C2CD"/>
<path d="M24 26C26.2091 26 28 24.2091 28 22C28 19.7909 26.2091 18 24 18C21.7909 18 20 19.7909 20 22C20 24.2091 21.7909 26 24 26Z" fill="#324558"/>
<path d="M20 28C17.7909 28 16 29.7909 16 32V34H32V32C32 29.7909 30.2091 28 28 28H20Z" fill="#324558"/>
</svg>
