<svg width="48" height="48" viewBox="0 0 48 48" fill="none" xmlns="http://www.w3.org/2000/svg">
<path d="M27 27C27 28.6569 25.6569 30 24 30C22.3431 30 21 28.6569 21 27C21 25.3431 22.3431 24 24 24C25.6569 24 27 25.3431 27 27Z" fill="#B6C2CD"/>
<path fill-rule="evenodd" clip-rule="evenodd" d="M6 7C4.89543 7 4 7.89543 4 9V39C4 40.1046 4.89543 41 6 41H42C43.1046 41 44 40.1046 44 39V13C44 11.8954 43.1046 11 42 11H24L19 7H6ZM22.1014 19L21.7007 21.0187C21.0324 21.267 20.4146 21.6139 19.872 22.0516L17.8986 21.3828L16 24.6172L17.579 25.9656C17.523 26.3032 17.4868 26.6469 17.4868 27C17.4868 27.3531 17.523 27.6968 17.579 28.0344L16 29.3828L17.8986 32.6172L19.872 31.9484C20.4146 32.3861 21.0324 32.733 21.7007 32.9813L22.1014 35H25.8986L26.2993 32.9813C26.9676 32.733 27.5854 32.3861 28.128 31.9484L30.1014 32.6172L32 29.3828L30.421 28.0344C30.477 27.6968 30.5132 27.3531 30.5132 27C30.5132 26.6469 30.477 26.3032 30.421 25.9656L32 24.6172L30.1014 21.3828L28.128 22.0516C27.5854 21.6139 26.9676 21.267 26.2993 21.0187L25.8986 19H22.1014Z" fill="#B6C2CD"/>
<path fill-rule="evenodd" clip-rule="evenodd" d="M21.7007 21.0187L22.1014 19H25.8986L26.2993 21.0187C26.9676 21.267 27.5854 21.6139 28.128 22.0516L30.1014 21.3828L32 24.6172L30.421 25.9656C30.477 26.3032 30.5132 26.6469 30.5132 27C30.5132 27.3531 30.477 27.6968 30.421 28.0344L32 29.3828L30.1014 32.6172L28.128 31.9484C27.5854 32.3861 26.9676 32.733 26.2993 32.9812L25.8986 35H22.1014L21.7007 32.9812C21.0324 32.733 20.4146 32.3861 19.872 31.9484L17.8986 32.6172L16 29.3828L17.579 28.0344C17.523 27.6968 17.4868 27.3531 17.4868 27C17.4868 26.6469 17.523 26.3032 17.579 25.9656L16 24.6172L17.8986 21.3828L19.872 22.0516C20.4146 21.6139 21.0324 21.267 21.7007 21.0187ZM24 30C25.6569 30 27 28.6569 27 27C27 25.3431 25.6569 24 24 24C22.3431 24 21 25.3431 21 27C21 28.6569 22.3431 30 24 30Z" fill="#324558"/>
</svg>
