<svg width="48" height="48" viewBox="0 0 48 48" fill="none" xmlns="http://www.w3.org/2000/svg">
<path fill-rule="evenodd" clip-rule="evenodd" d="M6 7C4.89543 7 4 7.89543 4 9V39C4 40.1046 4.89543 41 6 41H42C43.1046 41 44 40.1046 44 39V13C44 11.8954 43.1046 11 42 11H24L19 7H6ZM27 19H15V23H19V35H23V23H27V19ZM29 31V35H25V31H29ZM31 31H35V35H31V31Z" fill="#B6C2CD"/>
<path d="M27 19H15V23H19V35H23V23H27V19Z" fill="#324558"/>
<path d="M29 31V35H25V31H29Z" fill="#324558"/>
<path d="M35 31H31V35H35V31Z" fill="#324558"/>
</svg>
