<svg width="48" height="48" viewBox="0 0 48 48" fill="none" xmlns="http://www.w3.org/2000/svg">
<path d="M6 7C4.89543 7 4 7.89543 4 9V39C4 40.1046 4.89543 41 6 41H29.6929C26.8255 38.6154 25 35.0209 25 31C25 23.8203 30.8203 18 38 18C40.1643 18 42.205 18.5289 44 19.4644V13C44 11.8954 43.1046 11 42 11H24L19 7H6Z" fill="#B6C2CD"/>
<path fill-rule="evenodd" clip-rule="evenodd" d="M38 41C43.5228 41 48 36.5228 48 31C48 25.4772 43.5228 21 38 21C32.4772 21 28 25.4772 28 31C28 36.5228 32.4772 41 38 41ZM36.5 29.5V26H39.5V29.5H43V32.5H39.5V36H36.5V32.5H33V29.5H36.5Z" fill="#324558"/>
</svg>
