<svg width="48" height="48" viewBox="0 0 48 48" fill="none" xmlns="http://www.w3.org/2000/svg">
<path fill-rule="evenodd" clip-rule="evenodd" d="M6 7C4.89543 7 4 7.89543 4 9V39C4 40.1046 4.89543 41 6 41H42C43.1046 41 44 40.1046 44 39V13C44 11.8954 43.1046 11 42 11H24L19 7H6ZM15 26.728L17.8284 23.8996L22.0711 28.1422L31.9706 18.2427L34.799 21.0712L22.0711 33.7991L15 26.728Z" fill="#B6C2CD"/>
<path d="M17.8284 23.8996L15 26.728L22.0711 33.7991L34.799 21.0712L31.9706 18.2427L22.0711 28.1422L17.8284 23.8996Z" fill="#324558"/>
</svg>
