<svg width="48" height="48" viewBox="0 0 48 48" fill="none" xmlns="http://www.w3.org/2000/svg">
<path fill-rule="evenodd" clip-rule="evenodd" d="M6 7C4.89543 7 4 7.89543 4 9V39C4 40.1046 4.89543 41 6 41H42C43.1046 41 44 40.1046 44 39V13C44 11.8954 43.1046 11 42 11H24L19 7H6ZM19.5 20H21V23H19.5C17.567 23 16 24.567 16 26.5C16 28.433 17.567 30 19.5 30H21V33H19.5C15.9101 33 13 30.0899 13 26.5C13 22.9101 15.9101 20 19.5 20ZM28.5 30H27V33H28.5C32.0899 33 35 30.0899 35 26.5C35 22.9101 32.0899 20 28.5 20H27V23H28.5C30.433 23 32 24.567 32 26.5C32 28.433 30.433 30 28.5 30ZM20 25H28V28H20V25Z" fill="#B6C2CD"/>
<path d="M19.5 20H21V23H19.5C17.567 23 16 24.567 16 26.5C16 28.433 17.567 30 19.5 30H21V33H19.5C15.9101 33 13 30.0899 13 26.5C13 22.9101 15.9101 20 19.5 20Z" fill="#324558"/>
<path d="M28.5 30H27V33H28.5C32.0899 33 35 30.0899 35 26.5C35 22.9101 32.0899 20 28.5 20H27V23H28.5C30.433 23 32 24.567 32 26.5C32 28.433 30.433 30 28.5 30Z" fill="#324558"/>
<path d="M28 25H20V28H28V25Z" fill="#324558"/>
</svg>
