<svg width="48" height="48" viewBox="0 0 48 48" fill="none" xmlns="http://www.w3.org/2000/svg">
<path fill-rule="evenodd" clip-rule="evenodd" d="M8 6C8 4.89543 8.89543 4 10 4H28L40 16V42C40 43.1046 39.1046 44 38 44H10C8.89543 44 8 43.1046 8 42V6ZM16.3583 30.2025V35.8543L13.5 35.8568V26.0013H16.3583L19.2154 29.6247L22.0712 26.0013H24.9283V35.8543H22.0712V30.2025L19.2154 33.8259L16.3583 30.2025ZM32.6417 30.9272H35.5L31.2131 36L26.9288 30.9272H29.7858V26H32.6417V30.9272Z" fill="#B6C2CD"/>
<path d="M16.3583 35.8543V30.2025L19.2154 33.8259L22.0712 30.2025V35.8543H24.9283V26.0013H22.0712L19.2154 29.6247L16.3583 26.0013H13.5V35.8568L16.3583 35.8543ZM35.5 30.9272H32.6417V26H29.7858V30.9272H26.9288L31.2131 36L35.5 30.9272Z" fill="#324558"/>
</svg>
