<svg width="48" height="48" viewBox="0 0 48 48" fill="none" xmlns="http://www.w3.org/2000/svg">
<path fill-rule="evenodd" clip-rule="evenodd" d="M8 6C8 4.89543 8.89543 4 10 4H28L40 16V42C40 43.1046 39.1046 44 38 44H10C8.89543 44 8 43.1046 8 42V6ZM32 27C32 23.134 28.866 20 25 20V27H32ZM23 36C26.866 36 30 32.866 30 29H23V22C19.134 22 16 25.134 16 29C16 32.866 19.134 36 23 36Z" fill="#B6C2CD"/>
<path d="M25 20C28.866 20 32 23.134 32 27H25V20Z" fill="#324558"/>
<path d="M30 29C30 32.866 26.866 36 23 36C19.134 36 16 32.866 16 29C16 25.134 19.134 22 23 22V29H30Z" fill="#324558"/>
</svg>
