<svg width="48" height="48" viewBox="0 0 48 48" fill="none" xmlns="http://www.w3.org/2000/svg">
<path d="M23.9709 22.3392C24.0834 21.9396 24.3219 21.552 24.8373 21.2361C24.8309 21.287 24.8231 21.3411 24.8138 21.3985C24.7037 22.0797 24.4235 23.0083 24.016 24.0782C23.8612 23.4248 23.8336 22.8269 23.9709 22.3392Z" fill="#B6C2CD"/>
<path d="M23.625 29.705C23.7657 29.4397 23.9043 29.1727 24.0403 28.9048C24.1703 29.1656 24.3004 29.4176 24.4304 29.661C24.1553 29.6716 23.8868 29.6864 23.625 29.705Z" fill="#B6C2CD"/>
<path d="M29.6108 33.1432C29.2246 32.865 28.7893 32.4681 28.3188 31.9229C29.3742 32.1673 30.0662 32.5352 30.4796 32.8839C30.9914 33.3157 31.0039 33.5815 30.9892 33.6719C30.9557 33.6814 30.8957 33.6902 30.7972 33.6817C30.5617 33.6613 30.1582 33.5373 29.6108 33.1432Z" fill="#B6C2CD"/>
<path d="M17.1366 34.3714C17.3998 33.8486 18.1193 33.1115 19.5995 32.5348C19.3202 32.9377 19.0487 33.3031 18.7901 33.6223C18.3158 34.2077 17.9289 34.582 17.6537 34.7652C17.2781 35.0152 17.091 35.01 17.0262 34.9928C17.003 34.9427 16.9422 34.7574 17.1366 34.3714Z" fill="#B6C2CD"/>
<path d="M16.999 34.9808C16.999 34.9808 17.0037 34.9819 17.0121 34.9883C17.003 34.9847 16.999 34.9808 16.999 34.9808Z" fill="#B6C2CD"/>
<path fill-rule="evenodd" clip-rule="evenodd" d="M8 6C8 4.89543 8.89543 4 10 4H28L40 16V42C40 43.1046 39.1046 44 38 44H10C8.89543 44 8 43.1046 8 42V6ZM26.7882 21.7177C26.5784 23.0149 25.9311 24.8146 25.109 26.6632C25.1551 26.7415 25.1969 26.8102 25.2329 26.8681C25.2776 26.9402 25.3131 26.9952 25.3365 27.0308C25.3482 27.0487 25.3569 27.0617 25.3622 27.0695L25.3675 27.0773L25.3681 27.0783L25.415 27.1465L25.4504 27.2227C25.8875 28.1639 26.3185 28.9785 26.7366 29.6811C29.0897 29.8453 30.7425 30.4891 31.7692 31.3552C32.8898 32.3005 33.5091 33.8752 32.5017 35.002C32.0266 35.5333 31.3294 35.7352 30.6248 35.6742C29.928 35.614 29.1862 35.302 28.442 34.7661C27.5494 34.1232 26.5885 33.1126 25.6071 31.6404L25.5226 31.6402C24.3423 31.6402 23.3148 31.7132 22.4228 31.8377C22.27 32.0922 22.1167 32.3414 21.9636 32.5837C21.4201 33.4438 20.8707 34.2314 20.3441 34.8814C19.8291 35.5169 19.2907 36.0781 18.7619 36.4301C17.7512 37.1028 16.5102 37.2661 15.6506 36.4523C14.8331 35.6785 14.8515 34.4625 15.3502 33.472C16.088 32.0066 17.9361 30.659 21.1673 30.0235C21.7694 28.9686 22.3551 27.8407 22.8773 26.7327C22.6148 26.1948 22.3393 25.5383 22.1453 24.8338C21.8945 23.9227 21.7533 22.836 22.0457 21.7972C22.3537 20.7031 23.112 19.7757 24.4216 19.2048C24.7353 19.068 25.1231 18.9576 25.5329 19.0159C26.0005 19.0824 26.3684 19.3505 26.5908 19.7245C26.7862 20.0532 26.8451 20.4187 26.8593 20.7205C26.874 21.0356 26.8436 21.3752 26.7882 21.7177Z" fill="#B6C2CD"/>
<path fill-rule="evenodd" clip-rule="evenodd" d="M24.8372 21.2362C24.3217 21.552 24.0833 21.9396 23.9708 22.3392C23.8335 22.8269 23.8611 23.4248 24.0159 24.0783C24.4234 23.0083 24.7035 22.0798 24.8137 21.3985C24.823 21.3411 24.8308 21.287 24.8372 21.2362ZM25.1089 26.6633C25.931 24.8147 26.5783 23.0149 26.788 21.7178C26.8434 21.3752 26.8739 21.0357 26.8592 20.7205C26.845 20.4188 26.7861 20.0532 26.5906 19.7245C26.3683 19.3506 26.0003 19.0825 25.5327 19.0159C25.123 18.9576 24.7352 19.068 24.4215 19.2048C23.1119 19.7757 22.3536 20.7032 22.0456 21.7973C21.7532 22.836 21.8944 23.9227 22.1452 24.8338C22.3392 25.5383 22.6147 26.1949 22.8772 26.7328C22.355 27.8407 21.7693 28.9686 21.1671 30.0236C17.936 30.659 16.0879 32.0067 15.3501 33.472C14.8514 34.4625 14.833 35.6785 15.6505 36.4524C16.5101 37.2661 17.7511 37.1029 18.7618 36.4301C19.2906 36.0781 19.829 35.517 20.3439 34.8814C20.8705 34.2315 21.42 33.4439 21.9635 32.5838C22.1166 32.3414 22.2699 32.0923 22.4227 31.8377C23.3147 31.7132 24.3422 31.6402 25.5225 31.6402C25.5508 31.6402 25.579 31.6403 25.607 31.6405C26.5884 33.1126 27.5492 34.1233 28.4419 34.7661C29.1861 35.302 29.9279 35.614 30.6247 35.6743C31.3293 35.7352 32.0265 35.5333 32.5016 35.002C33.509 33.8752 32.8896 32.3005 31.7691 31.3552C30.7424 30.4891 29.0895 29.8453 26.7365 29.6812C26.3184 28.9786 25.8874 28.164 25.4503 27.2228L25.4149 27.1465L25.368 27.0783L25.3673 27.0773L25.362 27.0695C25.3568 27.0617 25.3481 27.0487 25.3364 27.0309C25.313 26.9952 25.2775 26.9402 25.2328 26.8682C25.1968 26.8102 25.155 26.7416 25.1089 26.6633ZM24.0402 28.9049C23.9042 29.1727 23.7655 29.4398 23.6248 29.705C23.8867 29.6864 24.1551 29.6717 24.4303 29.661C24.3002 29.4176 24.1702 29.1657 24.0402 28.9049ZM28.3187 31.9229C28.7892 32.4682 29.2245 32.865 29.6107 33.1432C30.1581 33.5374 30.5616 33.6613 30.7971 33.6817C30.8956 33.6902 30.9556 33.6814 30.9891 33.672C31.0038 33.5816 30.9913 33.3157 30.4795 32.8839C30.0661 32.5352 29.3741 32.1673 28.3187 31.9229ZM19.5994 32.5348C18.1191 33.1115 17.3997 33.8486 17.1364 34.3714C16.9421 34.7574 17.0028 34.9427 17.026 34.9929C17.0909 35.01 17.278 35.0152 17.6536 34.7652C17.9288 34.582 18.3157 34.2078 18.79 33.6224C19.0486 33.3032 19.3201 32.9378 19.5994 32.5348ZM16.9989 34.9808C16.9989 34.9808 17.0036 34.9819 17.0119 34.9883C17.0029 34.9847 16.9989 34.9808 16.9989 34.9808Z" fill="#324558"/>
</svg>
