<svg width="48" height="48" viewBox="0 0 48 48" fill="none" xmlns="http://www.w3.org/2000/svg">
<path fill-rule="evenodd" clip-rule="evenodd" d="M8 6C8 4.89543 8.89543 4 10 4H28L40 16V42C40 43.1046 39.1046 44 38 44H10C8.89543 44 8 43.1046 8 42V6ZM16 21H20V24H16V21ZM22 21H26V24H22V21ZM22 27H26V30H22V27ZM22 33H26V36H22V33ZM28 21H32V24H28V21ZM16 27H20V30H16V27ZM16 33H20V36H16V33ZM28 27H32V30H28V27ZM28 33H32V36H28V33Z" fill="#B6C2CD"/>
<path d="M16 21H20V24H16V21Z" fill="#324558"/>
<path d="M22 21H26V24H22V21Z" fill="#324558"/>
<path d="M26 27H22V30H26V27Z" fill="#324558"/>
<path d="M22 33H26V36H22V33Z" fill="#324558"/>
<path d="M32 21H28V24H32V21Z" fill="#324558"/>
<path d="M16 27H20V30H16V27Z" fill="#324558"/>
<path d="M20 33H16V36H20V33Z" fill="#324558"/>
<path d="M28 27H32V30H28V27Z" fill="#324558"/>
<path d="M32 33H28V36H32V33Z" fill="#324558"/>
</svg>
