<svg width="48" height="48" viewBox="0 0 48 48" fill="none" xmlns="http://www.w3.org/2000/svg">
<path d="M12 4C10.8954 4 10 4.89543 10 6V20H36V38H10V42C10 43.1046 10.8954 44 12 44H40C41.1046 44 42 43.1046 42 42V16L30 4H12Z" fill="#B6C2CD"/>
<path d="M15.1514 30.2877C15.3662 30.4557 15.4736 30.6901 15.4736 30.9908C15.4736 31.2565 15.374 31.4635 15.1748 31.6119C14.9795 31.7565 14.7119 31.8287 14.3721 31.8287C13.8408 31.8287 13.4561 31.7213 13.2178 31.5065C12.9834 31.2877 12.8662 30.9498 12.8662 30.4928H10.8037C10.8037 31.0553 10.9443 31.5533 11.2256 31.9869C11.5107 32.4166 11.9326 32.7565 12.4912 33.0065C13.0537 33.2526 13.6807 33.3756 14.3721 33.3756C15.3525 33.3756 16.124 33.1627 16.6865 32.7369C17.249 32.3112 17.5303 31.7252 17.5303 30.9791C17.5303 30.0455 17.0693 29.3131 16.1475 28.7819C15.7686 28.5631 15.2842 28.36 14.6943 28.1725C14.1045 27.9811 13.6924 27.7975 13.458 27.6217C13.2236 27.442 13.1064 27.2428 13.1064 27.024C13.1064 26.774 13.2119 26.569 13.4229 26.4088C13.6377 26.2448 13.9287 26.1627 14.2959 26.1627C14.6592 26.1627 14.9463 26.2584 15.1572 26.4498C15.3721 26.6412 15.4795 26.9108 15.4795 27.2584H17.5303C17.5303 26.7389 17.3955 26.278 17.126 25.8756C16.8564 25.4694 16.4775 25.1569 15.9893 24.9381C15.5049 24.7194 14.9561 24.61 14.3428 24.61C13.7139 24.61 13.1475 24.7115 12.6436 24.9147C12.1396 25.1139 11.749 25.3951 11.4717 25.7584C11.1982 26.1178 11.0615 26.5338 11.0615 27.0065C11.0615 27.9557 11.6143 28.7018 12.7197 29.2448C13.0596 29.4127 13.4971 29.5865 14.0322 29.7662C14.5674 29.9459 14.9404 30.1198 15.1514 30.2877Z" fill="#324558"/>
<path d="M9.77246 24.7272H7.72168V30.5807C7.72168 30.9635 7.64355 31.2623 7.4873 31.4772C7.33496 31.6881 7.11621 31.7936 6.83105 31.7936C6.51465 31.7936 6.28809 31.7057 6.15137 31.5299C6.01855 31.3541 5.95215 31.0709 5.95215 30.6803H3.88965C3.88965 31.5397 4.14746 32.2037 4.66309 32.6725C5.17871 33.1412 5.90137 33.3756 6.83105 33.3756C7.38574 33.3756 7.8877 33.2584 8.33691 33.024C8.79004 32.7897 9.1416 32.4596 9.3916 32.0338C9.64551 31.608 9.77246 31.1237 9.77246 30.5807V24.7272Z" fill="#324558"/>
<path fill-rule="evenodd" clip-rule="evenodd" d="M25.8096 29.1686C25.8096 30.0006 25.6553 30.7369 25.3467 31.3776C25.0381 32.0182 24.5986 32.5123 24.0283 32.86C23.4619 33.2037 22.8154 33.3756 22.0889 33.3756C21.3623 33.3756 20.7178 33.2096 20.1553 32.8776C19.5928 32.5416 19.1533 32.0631 18.8369 31.442C18.5244 30.8209 18.3604 30.108 18.3447 29.3033V28.8229C18.3447 27.9869 18.4971 27.2506 18.8018 26.6139C19.1104 25.9733 19.5498 25.4791 20.1201 25.1315C20.6943 24.7838 21.3467 24.61 22.0771 24.61C22.7998 24.61 23.4443 24.7819 24.0107 25.1256C24.5771 25.4694 25.0166 25.9596 25.3291 26.5963C25.6455 27.2291 25.8057 27.9557 25.8096 28.776V29.1686ZM23.7178 28.8112C23.7178 27.9635 23.5752 27.3209 23.29 26.8834C23.0088 26.442 22.6045 26.2213 22.0771 26.2213C21.0459 26.2213 20.501 26.9948 20.4424 28.5416L20.4365 29.1686C20.4365 30.0045 20.5752 30.6471 20.8525 31.0963C21.1299 31.5455 21.542 31.7701 22.0889 31.7701C22.6084 31.7701 23.0088 31.5494 23.29 31.108C23.5713 30.6666 23.7139 30.0319 23.7178 29.2037V28.8112Z" fill="#324558"/>
<path d="M31.9502 33.2584H33.9951V24.7272H31.9443V30.0358L28.9268 24.7272H26.8701V33.2584H28.9268V27.9498L31.9502 33.2584Z" fill="#324558"/>
</svg>
