<svg width="48" height="48" viewBox="0 0 48 48" fill="none" xmlns="http://www.w3.org/2000/svg">
<path d="M12 4C10.8954 4 10 4.89543 10 6V20H36V38H10V42C10 43.1046 10.8954 44 12 44H40C41.1046 44 42 43.1046 42 42V16L30 4H12Z" fill="#B6C2CD"/>
<path d="M9.62939 23.23H12.3638V31.0347C12.3638 31.7586 12.1945 32.4045 11.856 32.9722C11.5226 33.5399 11.0539 33.98 10.4497 34.2925C9.85075 34.605 9.18148 34.7612 8.44189 34.7612C7.20231 34.7612 6.23877 34.4487 5.55127 33.8237C4.86377 33.1987 4.52002 32.3133 4.52002 31.1675H7.27002C7.27002 31.6883 7.35856 32.0659 7.53564 32.3003C7.71794 32.5347 8.02002 32.6519 8.44189 32.6519C8.8221 32.6519 9.11377 32.5112 9.31689 32.23C9.52523 31.9435 9.62939 31.5451 9.62939 31.0347V23.23Z" fill="#324558"/>
<path fill-rule="evenodd" clip-rule="evenodd" d="M20.3872 32.48H16.6294L15.9731 34.605H13.0435L17.2153 23.23H19.7935L23.9966 34.605H21.0513L20.3872 32.48ZM17.2856 30.3628H19.731L18.5044 26.4175L17.2856 30.3628Z" fill="#324558"/>
<path fill-rule="evenodd" clip-rule="evenodd" d="M27.5747 30.5894H29.0591L31.0669 34.605H34.0044V34.4878L31.6294 29.9019C32.3117 29.5789 32.8117 29.1571 33.1294 28.6362C33.4523 28.1154 33.6138 27.4591 33.6138 26.6675C33.6138 25.5737 33.2336 24.7274 32.4731 24.1284C31.7127 23.5295 30.658 23.23 29.3091 23.23H24.8325V34.605H27.5747V30.5894ZM29.3091 28.4722H27.5747V25.3472H29.3091C29.8247 25.3472 30.2153 25.4878 30.481 25.769C30.7466 26.0451 30.8794 26.4279 30.8794 26.9175C30.8794 27.4071 30.7466 27.7899 30.481 28.0659C30.2205 28.3368 29.8299 28.4722 29.3091 28.4722Z" fill="#324558"/>
</svg>
