<svg width="48" height="48" viewBox="0 0 48 48" fill="none" xmlns="http://www.w3.org/2000/svg">
<path d="M12 4C10.8954 4 10 4.89543 10 6V20H36V38H10V42C10 43.1046 10.8954 44 12 44H40C41.1046 44 42 43.1046 42 42V16L30 4H12Z" fill="#B6C2CD"/>
<path fill-rule="evenodd" clip-rule="evenodd" d="M8.3623 30.8257V34.6851H5.62012V23.3101H10.1592C11.029 23.3101 11.7972 23.4715 12.4639 23.7944C13.1357 24.1121 13.654 24.5679 14.0186 25.1616C14.3883 25.7502 14.5732 26.4194 14.5732 27.1694C14.5732 28.2788 14.1748 29.1668 13.3779 29.8335C12.5863 30.495 11.4977 30.8257 10.1123 30.8257H8.3623ZM8.3623 28.7085H10.1592C10.6904 28.7085 11.0941 28.5757 11.3701 28.3101C11.6514 28.0444 11.792 27.6694 11.792 27.1851C11.792 26.6538 11.6488 26.2293 11.3623 25.9116C11.0758 25.5939 10.6852 25.4325 10.1904 25.4272H8.3623V28.7085Z" fill="#324558"/>
<path fill-rule="evenodd" clip-rule="evenodd" d="M16.042 34.6851V23.3101H19.7061C20.7113 23.3101 21.6149 23.5392 22.417 23.9976C23.2191 24.4507 23.8441 25.0939 24.292 25.9272C24.7451 26.7554 24.9743 27.6851 24.9795 28.7163V29.2397C24.9795 30.2814 24.7581 31.2163 24.3154 32.0444C23.8779 32.8673 23.2581 33.5132 22.4561 33.9819C21.6592 34.4455 20.7686 34.6798 19.7842 34.6851H16.042ZM18.7842 25.4272V32.5757H19.7373C20.5238 32.5757 21.1279 32.297 21.5498 31.7397C21.9717 31.1772 22.1826 30.3439 22.1826 29.2397V28.7476C22.1826 27.6486 21.9717 26.8205 21.5498 26.2632C21.1279 25.7059 20.5133 25.4272 19.7061 25.4272H18.7842Z" fill="#324558"/>
<path d="M29.1279 30.1538H33.5498V28.0444H29.1279V25.4272H33.9951V23.3101H26.3857V34.6851H29.1279V30.1538Z" fill="#324558"/>
</svg>
