<svg width="48" height="48" viewBox="0 0 48 48" fill="none" xmlns="http://www.w3.org/2000/svg">
<path fill-rule="evenodd" clip-rule="evenodd" d="M29.917 8H39C40.1046 8 41 8.89543 41 10V42C41 43.1046 40.1046 44 39 44H9C7.89543 44 7 43.1046 7 42V10C7 8.89543 7.89543 8 9 8H18.083C18.559 5.16229 21.027 3 24 3C26.973 3 29.441 5.16229 29.917 8ZM26 9C26 10.1046 25.1046 11 24 11C22.8954 11 22 10.1046 22 9C22 7.89543 22.8954 7 24 7C25.1046 7 26 7.89543 26 9ZM36.9142 19.4142L32.3284 24H27V20H30.6716L34.0858 16.5858L36.9142 19.4142ZM13 20H23V24H13V20ZM13 30H23V34H13V30ZM36.9142 29.4142L32.3284 34H27V30H30.6716L34.0858 26.5858L36.9142 29.4142Z" fill="#B6C2CD"/>
<path d="M36.9142 19.4142L32.3284 24H27V20H30.6716L34.0858 16.5858L36.9142 19.4142Z" fill="#324558"/>
<path d="M13 20H23V24H13V20Z" fill="#324558"/>
<path d="M13 30H23V34H13V30Z" fill="#324558"/>
<path d="M36.9142 29.4142L32.3284 34H27V30H30.6716L34.0858 26.5858L36.9142 29.4142Z" fill="#324558"/>
</svg>
