<svg width="48" height="48" viewBox="0 0 48 48" fill="none" xmlns="http://www.w3.org/2000/svg">
<path fill-rule="evenodd" clip-rule="evenodd" d="M29.917 8H39C40.1046 8 41 8.89543 41 10V42C41 43.1046 40.1046 44 39 44H9C7.89543 44 7 43.1046 7 42V10C7 8.89543 7.89543 8 9 8H18.083C18.559 5.16229 21.027 3 24 3C26.973 3 29.441 5.16229 29.917 8ZM26 9C26 10.1046 25.1046 11 24 11C22.8954 11 22 10.1046 22 9C22 7.89543 22.8954 7 24 7C25.1046 7 26 7.89543 26 9ZM28 23C28 25.2091 26.2091 27 24 27C21.7909 27 20 25.2091 20 23C20 20.7909 21.7909 19 24 19C26.2091 19 28 20.7909 28 23ZM16 33C16 30.7909 17.7909 29 20 29H28C30.2091 29 32 30.7909 32 33V35H16V33Z" fill="#B6C2CD"/>
<path d="M24 27C26.2091 27 28 25.2091 28 23C28 20.7909 26.2091 19 24 19C21.7909 19 20 20.7909 20 23C20 25.2091 21.7909 27 24 27Z" fill="#324558"/>
<path d="M20 29C17.7909 29 16 30.7909 16 33V35H32V33C32 30.7909 30.2091 29 28 29H20Z" fill="#324558"/>
</svg>
