<svg width="48" height="48" viewBox="0 0 48 48" fill="none" xmlns="http://www.w3.org/2000/svg">
<path fill-rule="evenodd" clip-rule="evenodd" d="M40 6H12V42H40C41.1046 42 42 41.1046 42 40V8C42 6.89543 41.1046 6 40 6ZM24 13V16H18V13H24ZM26 31V34H18V31H26ZM32 25V28H22V25H32ZM36 19V22L22 22V19H36Z" fill="#B6C2CD"/>
<path d="M8 6C6.89543 6 6 6.89543 6 8V40C6 41.1046 6.89543 42 8 42H12V6H8Z" fill="#324558"/>
<path d="M24 13V16H18V13H24Z" fill="#324558"/>
<path d="M26 31V34H18V31H26Z" fill="#324558"/>
<path d="M32 25V28H22V25H32Z" fill="#324558"/>
<path d="M36 19V22L22 22V19H36Z" fill="#324558"/>
</svg>
