<svg width="48" height="48" viewBox="0 0 48 48" fill="none" xmlns="http://www.w3.org/2000/svg">
<path fill-rule="evenodd" clip-rule="evenodd" d="M8 6C8 4.89543 8.89543 4 10 4H38C39.1046 4 40 4.89543 40 6V27.0126L27 34.2348V44H10C8.89543 44 8 43.1046 8 42V6ZM14 10H28V14H14V10ZM14 18H22V22H14V18Z" fill="#B6C2CD"/>
<path d="M14 10H28V14H14V10Z" fill="#324558"/>
<path d="M14 18H22V22H14V18Z" fill="#324558"/>
<path d="M48 44H44V28.2222L48 26V44Z" fill="#324558"/>
<path d="M37 44V32.1111L41 29.8889V44H37Z" fill="#324558"/>
<path d="M30 36L34 33.7778V44H30V36Z" fill="#324558"/>
</svg>
