<svg width="48" height="48" viewBox="0 0 48 48" fill="none" xmlns="http://www.w3.org/2000/svg">
<path fill-rule="evenodd" clip-rule="evenodd" d="M8 6C8 4.89543 8.89543 4 10 4H38C39.1046 4 40 4.89543 40 6V21.1529C39.3481 21.0522 38.6801 21 38 21C30.8203 21 25 26.8203 25 34C25 38.0209 26.8255 41.6154 29.6929 44H10C8.89543 44 8 43.1046 8 42V6ZM28 10H14V14H28V10ZM22 18H14V22H22V18Z" fill="#B6C2CD"/>
<path d="M14 10H28V14H14V10Z" fill="#324558"/>
<path d="M14 18H22V22H14V18Z" fill="#324558"/>
<path fill-rule="evenodd" clip-rule="evenodd" d="M48 34C48 39.5228 43.5228 44 38 44C32.4772 44 28 39.5228 28 34C28 28.4772 32.4772 24 38 24C43.5228 24 48 28.4772 48 34ZM38 27L40.1631 31.2793L45 31.9656L41.5 35.2966L42.3262 40L38 37.7793L33.6738 40L34.5 35.2966L31 31.9656L35.8369 31.2793L38 27Z" fill="#324558"/>
</svg>
