<svg width="48" height="48" viewBox="0 0 48 48" fill="none" xmlns="http://www.w3.org/2000/svg">
<path fill-rule="evenodd" clip-rule="evenodd" d="M16 10C14.8954 10 14 10.8954 14 12V42C14 43.1046 14.8954 44 16 44H40C41.1046 44 42 43.1046 42 42V12C42 10.8954 41.1046 10 40 10H16ZM35 21V25H21V21H35ZM35 29V33H21V29H35Z" fill="#B6C2CD"/>
<path d="M6 6C6 4.89543 6.89543 4 8 4H30C31.1046 4 32 4.89543 32 6V10H28V8H10V34H14V38H8C6.89543 38 6 37.1046 6 36V6Z" fill="#324558"/>
<path d="M35 21V25H21V21H35Z" fill="#324558"/>
<path d="M35 33V29H21V33H35Z" fill="#324558"/>
</svg>
