<svg width="48" height="48" viewBox="0 0 48 48" fill="none" xmlns="http://www.w3.org/2000/svg">
<path fill-rule="evenodd" clip-rule="evenodd" d="M10 4C8.89543 4 8 4.89543 8 6V42C8 43.1046 8.89543 44 10 44H27V37C27 34.2386 29.2386 32 32 32H33.2786C33.2112 31.6177 33.1138 31.1951 32.9938 30.68L32.9613 30.5413C32.7762 29.751 32.5 28.5718 32.5 27.5C32.5 23.9101 35.4101 21 39 21C39.3401 21 39.674 21.0261 40 21.0764V6C40 4.89543 39.1046 4 38 4H10ZM28 10H14V14H28V10ZM22 18H14V22H22V18Z" fill="#B6C2CD"/>
<path d="M14 10H28V14H14V10Z" fill="#324558"/>
<path d="M14 18H22V22H14V18Z" fill="#324558"/>
<path d="M32 35H34.5012C36.9974 34.6425 36.4398 32.2491 35.9155 29.9992C35.7051 29.096 35.5 28.216 35.5 27.5C35.5 25.567 37.067 24 39 24C40.933 24 42.5 25.567 42.5 27.5C42.5 28.216 42.2949 29.096 42.0845 29.9991C41.5602 32.2491 41.0026 34.6425 43.4988 35H46C47.1046 35 48 35.8954 48 37V40.5H30V37C30 35.8954 30.8954 35 32 35Z" fill="#324558"/>
<path d="M31 42V44H47V42H31Z" fill="#324558"/>
</svg>
