<svg width="48" height="48" viewBox="0 0 48 48" fill="none" xmlns="http://www.w3.org/2000/svg">
<path fill-rule="evenodd" clip-rule="evenodd" d="M8 6C8 4.89543 8.89543 4 10 4H30V14H40V42C40 43.1046 39.1046 44 38 44H10C8.89543 44 8 43.1046 8 42V6ZM21.8901 24.6321L19 24.0506C19.5073 21.597 21.5077 20 24.058 20C26.4468 20 28.595 21.5478 28.9444 24.1944C29.1914 26.0654 28.6154 27.23 27.2222 28.6274C27.1813 28.6685 27.0808 28.7682 26.9853 28.8629L26.9837 28.8644C26.8993 28.9482 26.819 29.0278 26.7878 29.0591C25.7793 30.0697 25.4296 30.7232 25.4296 32H22.48C22.48 29.8382 23.1839 28.5228 24.6859 27.0177C24.7239 26.9797 24.8156 26.8887 24.9063 26.7987L24.9152 26.7899C25.0022 26.7036 25.0865 26.62 25.1193 26.5871C25.9396 25.7643 26.1271 25.3852 26.0195 24.5702C25.8776 23.4954 25.0648 22.9098 24.058 22.9098C22.9041 22.9098 22.1161 23.5388 21.8901 24.6321ZM25.5 36.5C25.5 37.3284 24.8284 38 24 38C23.1716 38 22.5 37.3284 22.5 36.5C22.5 35.6716 23.1716 35 24 35C24.8284 35 25.5 35.6716 25.5 36.5Z" fill="#B6C2CD"/>
<path d="M30 14H40L30 4V14Z" fill="#324558"/>
<path d="M21.8901 24.6321L19 24.0506C19.5073 21.597 21.5077 20 24.058 20C26.4468 20 28.595 21.5478 28.9444 24.1944C29.1914 26.0654 28.6154 27.23 27.2222 28.6274C27.1813 28.6685 27.0808 28.7682 26.9853 28.8629L26.9845 28.8637C26.8997 28.9477 26.8191 29.0277 26.7878 29.0591C25.7793 30.0697 25.4296 30.7232 25.4296 32H22.48C22.48 29.8382 23.1839 28.5228 24.6859 27.0177C24.7239 26.9797 24.8156 26.8887 24.9063 26.7987L24.9086 26.7965C24.9979 26.7079 25.0857 26.6208 25.1193 26.5871C25.9396 25.7643 26.1271 25.3852 26.0195 24.5702C25.8776 23.4954 25.0648 22.9098 24.058 22.9098C22.9041 22.9098 22.1161 23.5388 21.8901 24.6321Z" fill="#324558"/>
<path d="M24 38C24.8284 38 25.5 37.3284 25.5 36.5C25.5 35.6716 24.8284 35 24 35C23.1716 35 22.5 35.6716 22.5 36.5C22.5 37.3284 23.1716 38 24 38Z" fill="#324558"/>
</svg>
