<svg width="48" height="48" viewBox="0 0 48 48" fill="none" xmlns="http://www.w3.org/2000/svg">
<path d="M29 30C29 32.7614 26.7614 35 24 35C23.1655 35 22.3788 34.7956 21.6872 34.4341L28.4341 27.6872C28.7956 28.3788 29 29.1655 29 30Z" fill="#B6C2CD"/>
<path d="M26.3128 25.5659L19.5659 32.3128C19.2044 31.6212 19 30.8344 19 30C19 27.2386 21.2386 25 24 25C24.8344 25 25.6212 25.2044 26.3128 25.5659Z" fill="#B6C2CD"/>
<path fill-rule="evenodd" clip-rule="evenodd" d="M8 6C8 4.89543 8.89543 4 10 4H30V14H40V42C40 43.1046 39.1046 44 38 44H10C8.89543 44 8 43.1046 8 42V6ZM32 30C32 34.4183 28.4183 38 24 38C19.5817 38 16 34.4183 16 30C16 25.5817 19.5817 22 24 22C28.4183 22 32 25.5817 32 30Z" fill="#B6C2CD"/>
<path d="M30 14H40L30 4V14Z" fill="#324558"/>
<path fill-rule="evenodd" clip-rule="evenodd" d="M24 38C28.4183 38 32 34.4183 32 30C32 25.5817 28.4183 22 24 22C19.5817 22 16 25.5817 16 30C16 34.4183 19.5817 38 24 38ZM24 35C26.7614 35 29 32.7614 29 30C29 29.1655 28.7956 28.3788 28.4341 27.6872L21.6872 34.4341C22.3788 34.7956 23.1655 35 24 35ZM19.5659 32.3128L26.3128 25.5659C25.6212 25.2044 24.8344 25 24 25C21.2386 25 19 27.2386 19 30C19 30.8344 19.2044 31.6212 19.5659 32.3128Z" fill="#324558"/>
</svg>
