<svg width="48" height="48" viewBox="0 0 48 48" fill="none" xmlns="http://www.w3.org/2000/svg">
<path fill-rule="evenodd" clip-rule="evenodd" d="M8 6C8 4.89543 8.89543 4 10 4H38C39.1046 4 40 4.89543 40 6V23.1421L25 38.1421V44H10C8.89543 44 8 43.1046 8 42V6ZM28 10H14V14H28V10ZM22 18H14V22H22V18Z" fill="#B6C2CD"/>
<path d="M14 10H28V14H14V10Z" fill="#324558"/>
<path d="M14 18H22V22H14V18Z" fill="#324558"/>
<path d="M43.3846 24L48 28.6153L44.9231 31.6921L40.3077 27.0768L43.3846 24Z" fill="#324558"/>
<path d="M38.7692 28.6158L43.3846 33.2311L32.6154 44H28V39.3847L38.7692 28.6158Z" fill="#324558"/>
</svg>
