<svg width="48" height="48" viewBox="0 0 48 48" fill="none" xmlns="http://www.w3.org/2000/svg">
<path d="M8.44072 5.03881C8.62352 5.01323 8.81027 5 9.00012 5C9.65595 5 10.2749 5.15783 10.8211 5.43759C12.1147 6.10017 13.0001 7.44669 13.0001 9V13H12.9883V39C12.9883 41.2091 14.7791 43 16.9883 43H17.014C19.2168 42.9925 21.0001 41.2045 21.0001 39C21.0001 36.7909 19.2093 35 17.0001 35L15.0001 35L39.0001 35L39.0001 9C39.0001 7.067 37.629 5.45425 35.8062 5.08127C35.5458 5.02798 35.2762 5 35.0001 5H9.00012H8.4043V5.04407C8.41642 5.04226 8.42856 5.04051 8.44072 5.03881Z" fill="#B6C2CD"/>
<path d="M9 5C6.79086 5 5 6.79086 5 9V13H13V9C13 6.79086 11.2091 5 9 5Z" fill="#324558"/>
<path d="M39 35C41.2091 35 43 36.7909 43 39C43 41.2092 41.2091 43 39 43L17.0139 43C19.2167 42.9925 21 41.2045 21 39C21 36.7909 19.2091 35 17 35L15 35L39 35Z" fill="#324558"/>
</svg>
