<svg width="48" height="48" viewBox="0 0 48 48" fill="none" xmlns="http://www.w3.org/2000/svg">
<path fill-rule="evenodd" clip-rule="evenodd" d="M4 9C4 7.89543 4.89543 7 6 7H19L24 11H42C43.1046 11 44 11.8954 44 13V22.4644C42.205 21.5289 40.1643 21 38 21C34.8589 21 31.978 22.114 29.7308 23.9686C29.9355 23.7996 30.1454 23.6369 30.3604 23.4805L30 23L23 32.02L18 26L11 35H25.0379C25.2051 37.198 25.9189 39.2432 27.0436 41H6C4.89543 41 4 40.1046 4 39V9ZM16 22C17.6569 22 19 20.6569 19 19C19 17.3431 17.6569 16 16 16C14.3431 16 13 17.3431 13 19C13 20.6569 14.3431 22 16 22Z" fill="#B6C2CD"/>
<path d="M16 22C17.6569 22 19 20.6569 19 19C19 17.3431 17.6569 16 16 16C14.3431 16 13 17.3431 13 19C13 20.6569 14.3431 22 16 22Z" fill="#324558"/>
<path d="M18 26L11 35H25.0379C25.0128 34.67 25 34.3365 25 34C25 29.6753 27.1118 25.8438 30.3604 23.4805L30 23L23 32.02L18 26Z" fill="#324558"/>
<path fill-rule="evenodd" clip-rule="evenodd" d="M38 44C43.5229 44 48 39.5228 48 34C48 28.4772 43.5229 24 38 24C32.4772 24 28 28.4772 28 34C28 39.5228 32.4772 44 38 44ZM38 41C41.866 41 45 37.866 45 34C45 32.6099 44.5948 31.3145 43.8961 30.2253L34.2253 39.8961C35.3145 40.5948 36.6099 41 38 41ZM41.7748 28.104L32.104 37.7748C31.4052 36.6856 31 35.3901 31 34C31 30.134 34.134 27 38 27C39.3901 27 40.6856 27.4052 41.7748 28.104Z" fill="#324558"/>
</svg>
