<svg width="48" height="48" viewBox="0 0 48 48" fill="none" xmlns="http://www.w3.org/2000/svg">
<path fill-rule="evenodd" clip-rule="evenodd" d="M4 10C4 8.89543 4.89543 8 6 8H42C43.1046 8 44 8.89543 44 10V22.4644C42.205 21.5289 40.1643 21 38 21C34.8589 21 31.978 22.114 29.7308 23.9686C29.8841 23.842 30.0404 23.7189 30.1995 23.5994L29 22L22 31.02L17 25L10 34H25C25 36.1643 25.5289 38.205 26.4644 40H6C4.89543 40 4 39.1046 4 38V10ZM15 20C16.6569 20 18 18.6569 18 17C18 15.3431 16.6569 14 15 14C13.3431 14 12 15.3431 12 17C12 18.6569 13.3431 20 15 20Z" fill="#B6C2CD"/>
<path d="M15 20C16.6569 20 18 18.6569 18 17C18 15.3431 16.6569 14 15 14C13.3431 14 12 15.3431 12 17C12 18.6569 13.3431 20 15 20Z" fill="#324558"/>
<path d="M17 25L10 34H25C25 29.7471 27.0422 25.9711 30.1995 23.5994L29 22L22 31.02L17 25Z" fill="#324558"/>
<path fill-rule="evenodd" clip-rule="evenodd" d="M48 34C48 39.5228 43.5229 44 38 44C32.4772 44 28 39.5228 28 34C28 28.4772 32.4772 24 38 24C43.5229 24 48 28.4772 48 34ZM36.5 29V32.5H33V35.5H36.5V39H39.5V35.5H43V32.5H39.5V29H36.5Z" fill="#324558"/>
</svg>
