<svg width="48" height="48" viewBox="0 0 48 48" fill="none" xmlns="http://www.w3.org/2000/svg">
<path fill-rule="evenodd" clip-rule="evenodd" d="M38 21C40.14 21 42.1592 21.5171 43.9395 22.4331C43.1403 12.1198 34.5184 4 24 4C12.9543 4 4 12.9543 4 24C4 35.0457 12.9543 44 24 44C25.7233 44 27.3956 43.7821 28.991 43.3722C26.5309 41.0069 25 37.6822 25 34H10L17 25L22 31.02L29 22L30.1995 23.5994C32.3723 21.9672 35.0732 21 38 21ZM17 20C18.6569 20 20 18.6569 20 17C20 15.3431 18.6569 14 17 14C15.3431 14 14 15.3431 14 17C14 18.6569 15.3431 20 17 20Z" fill="#B6C2CD"/>
<path d="M17 20C18.6569 20 20 18.6569 20 17C20 15.3431 18.6569 14 17 14C15.3431 14 14 15.3431 14 17C14 18.6569 15.3431 20 17 20Z" fill="#324558"/>
<path d="M17 25L10 34H25C25 29.7471 27.0422 25.9711 30.1995 23.5994L29 22L22 31.02L17 25Z" fill="#324558"/>
<path fill-rule="evenodd" clip-rule="evenodd" d="M48 34C48 39.5228 43.5229 44 38 44C32.4772 44 28 39.5228 28 34C28 28.4772 32.4772 24 38 24C43.5229 24 48 28.4772 48 34ZM36.5 29V32.5H33V35.5H36.5V39H39.5V35.5H43V32.5H39.5V29H36.5Z" fill="#324558"/>
</svg>
