<svg width="48" height="48" viewBox="0 0 48 48" fill="none" xmlns="http://www.w3.org/2000/svg">
<path fill-rule="evenodd" clip-rule="evenodd" d="M6 8C4.89543 8 4 8.89543 4 10V38C4 39.1046 4.89543 40 6 40H26.4644C25.5289 38.205 25 36.1643 25 34H10L17 25L22 31.02L29 22L30.1995 23.5994C32.3723 21.9672 35.0732 21 38 21C40.1643 21 42.205 21.5289 44 22.4644V10C44 8.89543 43.1046 8 42 8H6ZM18 17C18 18.6569 16.6569 20 15 20C13.3431 20 12 18.6569 12 17C12 15.3431 13.3431 14 15 14C16.6569 14 18 15.3431 18 17Z" fill="#B6C2CD"/>
<path d="M18 17C18 18.6569 16.6569 20 15 20C13.3431 20 12 18.6569 12 17C12 15.3431 13.3431 14 15 14C16.6569 14 18 15.3431 18 17Z" fill="#324558"/>
<path d="M10 34L17 25L22 31.02L29 22L30.1995 23.5994C27.0422 25.9711 25 29.7471 25 34H10Z" fill="#324558"/>
<path fill-rule="evenodd" clip-rule="evenodd" d="M38 44C43.5229 44 48 39.5228 48 34C48 28.4772 43.5229 24 38 24C32.4772 24 28 28.4772 28 34C28 39.5228 32.4772 44 38 44ZM38 41C41.866 41 45 37.866 45 34C45 32.6099 44.5948 31.3145 43.8961 30.2253L34.2253 39.8961C35.3145 40.5948 36.6099 41 38 41ZM32.104 37.7748L41.7748 28.104C40.6856 27.4052 39.3901 27 38 27C34.134 27 31 30.134 31 34C31 35.3901 31.4052 36.6856 32.104 37.7748Z" fill="#324558"/>
</svg>
