<svg width="48" height="48" viewBox="0 0 48 48" fill="none" xmlns="http://www.w3.org/2000/svg">
<path fill-rule="evenodd" clip-rule="evenodd" d="M6 7C4.89543 7 4 7.89543 4 9V39C4 40.1046 4.89543 41 6 41H42C43.1046 41 44 40.1046 44 39V13C44 11.8954 43.1046 11 42 11H24L19 7H6ZM19 19C19 20.6569 17.6569 22 16 22C14.3431 22 13 20.6569 13 19C13 17.3431 14.3431 16 16 16C17.6569 16 19 17.3431 19 19ZM11 35L18 26L23 32.02L30 23L39 35H11Z" fill="#B6C2CD"/>
<path d="M16 22C17.6569 22 19 20.6569 19 19C19 17.3431 17.6569 16 16 16C14.3431 16 13 17.3431 13 19C13 20.6569 14.3431 22 16 22Z" fill="#324558"/>
<path d="M18 26L11 35H39L30 23L23 32.02L18 26Z" fill="#324558"/>
</svg>
