<svg width="40" height="40" viewBox="0 0 40 40" fill="none" xmlns="http://www.w3.org/2000/svg">
<path fill-rule="evenodd" clip-rule="evenodd" d="M5.00001 10C4.07954 10 3.33334 10.7462 3.33334 11.6667V35C3.33334 35.9205 4.07954 36.6667 5.00001 36.6667H28.3333C29.2538 36.6667 30 35.9205 30 35V11.6667C30 10.7462 29.2538 10 28.3333 10H5.00001ZM26.6664 17.8453L22.8449 21.6668H18.3333V18.3335H21.4642L24.3094 15.4883L26.6664 17.8453ZM8.33334 18.3333H15.8333V21.6667H8.33334V18.3333ZM15.8333 26.6667H8.33334V30H15.8333V26.6667ZM26.6664 26.1786L22.8449 30.0001H18.3366V26.6668H21.4642L24.3094 23.8216L26.6664 26.1786Z" fill="#C1C9D1"/>
<path d="M16.6667 6.66634V9.99967H13.3333V4.99968C13.3333 4.0792 14.0795 3.33301 15 3.33301H35C35.9205 3.33301 36.6667 4.0792 36.6667 4.99967V24.9997C36.6667 25.9201 35.9205 26.6663 35 26.6663H30V23.333H33.3333V6.66634H16.6667Z" fill="#36435C"/>
<path d="M26.6664 17.845L22.8449 21.6665H18.3333V18.3331H21.4642L24.3094 15.488L26.6664 17.845Z" fill="#36435C"/>
<path d="M8.33334 18.333H15.8333V21.6663H8.33334V18.333Z" fill="#36435C"/>
<path d="M8.33334 26.6663H15.8333V29.9997H8.33334V26.6663Z" fill="#36435C"/>
<path d="M26.6664 26.1783L22.8449 29.9998H18.3366V26.6665H21.4642L24.3094 23.8213L26.6664 26.1783Z" fill="#36435C"/>
</svg>
