<svg width="48" height="48" viewBox="0 0 48 48" fill="none" xmlns="http://www.w3.org/2000/svg">
<path fill-rule="evenodd" clip-rule="evenodd" d="M8 6C6.89543 6 6 6.89543 6 8V40C6 41.1046 6.89543 42 8 42H40C41.1046 42 42 41.1046 42 40V8C42 6.89543 41.1046 6 40 6H24V9H21V6H8ZM24 12V9H27V12H24ZM24 15H21V12H24V15ZM24 18V15H27V18H24ZM24 21H21V18H24V21ZM24 21H27V24H24V21ZM27 27V32H21V27H27Z" fill="#B6C2CD"/>
<path d="M21 6H24V9H21V6Z" fill="#324558"/>
<path d="M24 12V9H27V12H24Z" fill="#324558"/>
<path d="M24 15H21V12H24V15Z" fill="#324558"/>
<path d="M24 18V15H27V18H24Z" fill="#324558"/>
<path d="M24 21H21V18H24V21Z" fill="#324558"/>
<path d="M24 21H27V24H24V21Z" fill="#324558"/>
<path d="M27 32V27H21V32H27Z" fill="#324558"/>
</svg>
