<svg width="48" height="48" viewBox="0 0 48 48" fill="none" xmlns="http://www.w3.org/2000/svg">
<path d="M4 11.3106C4 10.5806 4.3972 9.91079 5.0708 9.62954C6.69126 8.95297 10.0055 7.84814 14.0041 8.05017C17.9076 8.2474 20.8506 9.44067 22.5 10.3011V40.3321C20.6026 39.5426 17.1928 38.3052 13.9704 38.0647C10.2987 37.7907 7.06047 38.3681 5.33043 38.7766C4.66802 38.933 4 38.4353 4 37.7547V11.3106Z" fill="#324558"/>
<path d="M25.5 40.3321C27.3974 39.5426 30.8072 38.3052 34.0296 38.0647C37.7013 37.7907 40.9395 38.3681 42.6696 38.7766C43.332 38.933 44 38.4353 44 37.7547V11.3106C44 10.5806 43.6028 9.91079 42.9292 9.62954C41.3087 8.95297 37.9945 7.84814 33.9959 8.05017C30.0924 8.2474 27.1494 9.44067 25.5 10.3011V40.3321Z" fill="#324558"/>
</svg>
