<svg width="48" height="48" viewBox="0 0 48 48" fill="none" xmlns="http://www.w3.org/2000/svg">
<path fill-rule="evenodd" clip-rule="evenodd" d="M9 4C7.34315 4 6 5.34315 6 7V40C6 42.2091 7.79086 44 10 44H40C41.1046 44 42 43.1046 42 42V10C42 8.89543 41.1046 8 40 8H15V40H12V7C12 5.34315 10.6569 4 9 4ZM37 25.9597L28.5 18L20 25.9597L21.0425 27.058L22.8009 25.4114V33H26.9802V30.7358C26.9802 29.9021 27.6607 29.2263 28.5 29.2263C29.3393 29.2263 30.0198 29.9021 30.0198 30.7358V33H34.1991V25.4114L35.9575 27.058L37 25.9597Z" fill="#324558"/>
</svg>
