<svg width="48" height="48" viewBox="0 0 48 48" fill="none" xmlns="http://www.w3.org/2000/svg">
<path d="M18 4C16.8954 4 16 4.89543 16 6V10H32V6C32 4.89543 31.1046 4 30 4H18Z" fill="#324558"/>
<path d="M35 13H13V7H10C8.89543 7 8 7.89543 8 9V42C8 43.1046 8.89543 44 10 44H25V38.1421L40 23.1421V9C40 7.89543 39.1046 7 38 7H35V13Z" fill="#324558"/>
<path d="M43.3846 24L48 28.6153L44.9231 31.6921L40.3077 27.0768L43.3846 24Z" fill="#324558"/>
<path d="M38.7692 28.6158L43.3846 33.2311L32.6154 44H28V39.3847L38.7692 28.6158Z" fill="#324558"/>
</svg>
