<svg width="48" height="48" viewBox="0 0 48 48" fill="none" xmlns="http://www.w3.org/2000/svg">
<path d="M18 4C16.8954 4 16 4.89543 16 6V10H32V6C32 4.89543 31.1046 4 30 4H18Z" fill="#324558"/>
<path fill-rule="evenodd" clip-rule="evenodd" d="M35 13H13V7H10C8.89543 7 8 7.89543 8 9V42C8 43.1046 8.89543 44 10 44H38C39.1046 44 40 43.1046 40 42V9C40 7.89543 39.1046 7 38 7H35V13ZM19 23.0506L21.8901 23.6321C22.1161 22.5388 22.9041 21.9098 24.058 21.9098C25.0648 21.9098 25.8776 22.4954 26.0195 23.5702C26.1271 24.3852 25.9396 24.7643 25.1193 25.5871C25.0859 25.6205 24.9993 25.7065 24.9107 25.7944L24.9063 25.7987C24.8156 25.8887 24.7239 25.9797 24.6859 26.0177C23.1839 27.5228 22.48 28.8382 22.48 31H25.4296C25.4296 29.7232 25.7793 29.0697 26.7878 28.0591C26.819 28.0278 26.8993 27.9482 26.9837 27.8644L26.9853 27.8629C27.0808 27.7682 27.1813 27.6685 27.2222 27.6274C28.6154 26.23 29.1914 25.0654 28.9444 23.1944C28.595 20.5478 26.4468 19 24.058 19C21.5077 19 19.5073 20.597 19 23.0506ZM25.5 35.5C25.5 36.3284 24.8284 37 24 37C23.1716 37 22.5 36.3284 22.5 35.5C22.5 34.6716 23.1716 34 24 34C24.8284 34 25.5 34.6716 25.5 35.5Z" fill="#324558"/>
</svg>
