<svg width="48" height="48" viewBox="0 0 48 48" fill="none" xmlns="http://www.w3.org/2000/svg">
<path d="M16 6C16 4.89543 16.8954 4 18 4H30C31.1046 4 32 4.89543 32 6V10H16V6Z" fill="#324558"/>
<path fill-rule="evenodd" clip-rule="evenodd" d="M13 13H35V7H38C39.1046 7 40 7.89543 40 9V42C40 43.1046 39.1046 44 38 44H10C8.89543 44 8 43.1046 8 42V9C8 7.89543 8.89543 7 10 7H13V13ZM21.8438 35.8087L34.4042 23.4242L31.5958 20.5759L21.8438 30.1913L17.4042 25.814L14.5958 28.6623L21.8438 35.8087Z" fill="#324558"/>
</svg>
