<svg width="48" height="48" viewBox="0 0 48 48" fill="none" xmlns="http://www.w3.org/2000/svg">
<path d="M18 4C16.8954 4 16 4.89543 16 6V10H32V6C32 4.89543 31.1046 4 30 4H18Z" fill="#324558"/>
<path fill-rule="evenodd" clip-rule="evenodd" d="M13 13H35V7H38C39.1046 7 40 7.89543 40 9V42C40 43.1046 39.1046 44 38 44H10C8.89543 44 8 43.1046 8 42V9C8 7.89543 8.89543 7 10 7H13V13ZM17.7778 27.9H20.0011C22.2199 27.5782 21.7242 25.4242 21.2582 23.3992C21.0712 22.5864 20.8889 21.7944 20.8889 21.15C20.8889 19.4103 22.2818 18 24 18C25.7182 18 27.1111 19.4103 27.1111 21.15C27.1111 21.7944 26.9288 22.5864 26.7418 23.3993C26.2758 25.4242 25.7801 27.5782 27.9989 27.9H30.2222C31.2041 27.9 32 28.7059 32 29.7V32.85H16V29.7C16 28.7059 16.7959 27.9 17.7778 27.9ZM16.8889 34.2V36H31.1111V34.2H16.8889Z" fill="#324558"/>
</svg>
