<svg width="48" height="48" viewBox="0 0 48 48" fill="none" xmlns="http://www.w3.org/2000/svg">
<path d="M24 32C26.7614 32 29 29.7614 29 27C29 26.1655 28.7956 25.3788 28.4341 24.6872L21.6872 31.4341C22.3788 31.7956 23.1655 32 24 32Z" fill="#324558"/>
<path d="M26.3128 22.5659L19.5659 29.3128C19.2044 28.6212 19 27.8344 19 27C19 24.2386 21.2386 22 24 22C24.8344 22 25.6212 22.2044 26.3128 22.5659Z" fill="#324558"/>
<path fill-rule="evenodd" clip-rule="evenodd" d="M6 7C4.89543 7 4 7.89543 4 9V39C4 40.1046 4.89543 41 6 41H42C43.1046 41 44 40.1046 44 39V13C44 11.8954 43.1046 11 42 11H24L19 7H6ZM24 35C28.4183 35 32 31.4183 32 27C32 22.5817 28.4183 19 24 19C19.5817 19 16 22.5817 16 27C16 31.4183 19.5817 35 24 35Z" fill="#324558"/>
</svg>
