<svg width="48" height="48" viewBox="0 0 48 48" fill="none" xmlns="http://www.w3.org/2000/svg">
<path fill-rule="evenodd" clip-rule="evenodd" d="M6 7C4.89543 7 4 7.89543 4 9V39C4 40.1046 4.89543 41 6 41H42C43.1046 41 44 40.1046 44 39V13C44 11.8954 43.1046 11 42 11H24L19 7H6ZM21.6791 21.0181L18.5 20.3882C19.058 17.7301 21.2585 16 24.0638 16C26.6915 16 29.0545 17.6768 29.4388 20.544C29.7105 22.5708 29.077 23.8325 27.5445 25.3464C27.4997 25.3906 27.39 25.4977 27.2855 25.5999L27.283 25.6022C27.1898 25.6933 27.101 25.78 27.0666 25.814C25.9572 26.9088 25.5725 27.6168 25.5725 29H22.328C22.328 26.6581 23.1023 25.233 24.7545 23.6025C24.7962 23.5614 24.897 23.4629 24.9966 23.3656L24.9982 23.364C25.0969 23.2676 25.1941 23.1727 25.2312 23.136C26.1336 22.2446 26.3398 21.834 26.2214 20.9511C26.0653 19.7867 25.1713 19.1522 24.0638 19.1522C22.7945 19.1522 21.9277 19.8337 21.6791 21.0181ZM26 34C26 35.1046 25.1046 36 24 36C22.8954 36 22 35.1046 22 34C22 32.8954 22.8954 32 24 32C25.1046 32 26 32.8954 26 34Z" fill="#324558"/>
</svg>
