<svg width="48" height="48" viewBox="0 0 48 48" fill="none" xmlns="http://www.w3.org/2000/svg">
<path d="M4 9C4 7.89543 4.89543 7 6 7H19L24 11H42C43.1046 11 44 11.8954 44 13V19.4644C42.205 18.5289 40.1643 18 38 18C30.8203 18 25 23.8203 25 31C25 35.0209 26.8255 38.6154 29.6929 41H6C4.89543 41 4 40.1046 4 39V9Z" fill="#324558"/>
<path fill-rule="evenodd" clip-rule="evenodd" d="M48 31C48 36.5228 43.5228 41 38 41C32.4772 41 28 36.5228 28 31C28 25.4772 32.4772 21 38 21C43.5228 21 48 25.4772 48 31ZM36.5 26V29.5H33V32.5H36.5V36H39.5V32.5H43V29.5H39.5V26H36.5Z" fill="#324558"/>
</svg>
