<svg width="48" height="48" viewBox="0 0 48 48" fill="none" xmlns="http://www.w3.org/2000/svg">
<path d="M6 4C4.89543 4 4 4.89543 4 6V24C4 25.1046 4.89543 26 6 26H13V16H29V8.44444C29 7.33987 28.1046 6.44444 27 6.44444H16.5L13.375 4H6Z" fill="#324558"/>
<path d="M32 12.9047V9.43149C35.8187 11.3977 38.8204 14.7277 40.3615 18.7778H37.1008C35.9632 16.3866 34.1901 14.3562 32 12.9047Z" fill="#324558"/>
<path d="M6.95923 29C7.85879 32.8473 10.0276 36.2063 13 38.6114V34.4476C11.6572 32.8856 10.6413 31.0343 10.0587 29H6.95923Z" fill="#324558"/>
<path fill-rule="evenodd" clip-rule="evenodd" d="M16 19H26.5L30 21.7778H42C43.1046 21.7778 44 22.6732 44 23.7778V42C44 43.1046 43.1046 44 42 44H18C16.8954 44 16 43.1046 16 42V19ZM38 27V30H22V27H38Z" fill="#324558"/>
</svg>
