<svg width="48" height="48" viewBox="0 0 48 48" fill="none" xmlns="http://www.w3.org/2000/svg">
<path d="M10 4C8.89543 4 8 4.89543 8 6V20H26V38H8V42C8 43.1046 8.89543 44 10 44H38C39.1046 44 40 43.1046 40 42V16L28 4H10Z" fill="#324558"/>
<path fill-rule="evenodd" clip-rule="evenodd" d="M15.085 35.3969V31.0551H17.0537C18.6123 31.0551 19.8369 30.683 20.7275 29.9389C21.624 29.1889 22.0723 28.1898 22.0723 26.9418C22.0723 26.0981 21.8643 25.3451 21.4482 24.683C21.0381 24.015 20.4551 23.5023 19.6992 23.1449C18.9492 22.7816 18.085 22.6 17.1064 22.6H12V35.3969H15.085ZM17.1064 28.6732H15.085V24.9818H17.1416C17.6982 24.9877 18.1377 25.1693 18.46 25.5268C18.7822 25.8842 18.9434 26.3617 18.9434 26.9594C18.9434 27.5043 18.7852 27.9262 18.4688 28.225C18.1582 28.5238 17.7041 28.6732 17.1064 28.6732Z" fill="#324558"/>
</svg>
