<svg width="48" height="48" viewBox="0 0 48 48" fill="none" xmlns="http://www.w3.org/2000/svg">
<path d="M12 4C10.8954 4 10 4.89543 10 6V20H36V38H10V42C10 43.1046 10.8954 44 12 44H40C41.1046 44 42 43.1046 42 42V16L30 4H12Z" fill="#324558"/>
<path fill-rule="evenodd" clip-rule="evenodd" d="M7.70654 30.6694H6.22217V34.685H3.47998V23.31H7.95654C9.3055 23.31 10.3602 23.6095 11.1206 24.2084C11.881 24.8074 12.2612 25.6537 12.2612 26.7475C12.2612 27.5392 12.0998 28.1954 11.7769 28.7162C11.4591 29.2371 10.9591 29.659 10.2769 29.9819L12.6519 34.5678V34.685H9.71436L7.70654 30.6694ZM6.22217 28.5522H7.95654C8.47738 28.5522 8.868 28.4168 9.12842 28.1459C9.39404 27.8699 9.52686 27.4871 9.52686 26.9975C9.52686 26.5079 9.39404 26.1251 9.12842 25.8491C8.86279 25.5678 8.47217 25.4272 7.95654 25.4272H6.22217V28.5522Z" fill="#324558"/>
<path fill-rule="evenodd" clip-rule="evenodd" d="M20.3784 32.56H16.6206L15.9644 34.685H13.0347L17.2065 23.31H19.7847L23.9878 34.685H21.0425L20.3784 32.56ZM17.2769 30.4428H19.7222L18.4956 26.4975L17.2769 30.4428Z" fill="#324558"/>
<path fill-rule="evenodd" clip-rule="evenodd" d="M27.5659 30.6694H29.0503L31.0581 34.685H33.9956V34.5678L31.6206 29.9819C32.3029 29.659 32.8029 29.2371 33.1206 28.7162C33.4435 28.1954 33.605 27.5392 33.605 26.7475C33.605 25.6537 33.2248 24.8074 32.4644 24.2084C31.7039 23.6095 30.6493 23.31 29.3003 23.31H24.8237V34.685H27.5659V30.6694ZM29.3003 28.5522H27.5659V25.4272H29.3003C29.8159 25.4272 30.2065 25.5678 30.4722 25.8491C30.7378 26.1251 30.8706 26.5079 30.8706 26.9975C30.8706 27.4871 30.7378 27.8699 30.4722 28.1459C30.2118 28.4168 29.8211 28.5522 29.3003 28.5522Z" fill="#324558"/>
</svg>
