<svg width="48" height="48" viewBox="0 0 48 48" fill="none" xmlns="http://www.w3.org/2000/svg">
<path d="M12 4C10.8954 4 10 4.89543 10 6V20H36V38H10V42C10 43.1046 10.8954 44 12 44H40C41.1046 44 42 43.1046 42 42V16L30 4H12Z" fill="#324558"/>
<path d="M7.08594 33.2313H9.13086V24.7H7.08594V28.0867H4.05664V24.7H2V33.2313H4.05664V29.6688H7.08594V33.2313Z" fill="#324558"/>
<path d="M14.3984 26.2879H16.959V24.7H9.82812V26.2879H12.3418V33.2313H14.3984V26.2879Z" fill="#324558"/>
<path d="M20.5332 24.7L22.4375 30.6356L24.3359 24.7H27.043V33.2313H24.9805V31.2391L25.1797 27.1609L23.1172 33.2313H21.7578L19.6895 27.1551L19.8887 31.2391V33.2313H17.832V24.7H20.5332Z" fill="#324558"/>
<path d="M33.9922 31.6492H30.4121V24.7H28.3555V33.2313H33.9922V31.6492Z" fill="#324558"/>
</svg>
