<svg width="48" height="48" viewBox="0 0 48 48" fill="none" xmlns="http://www.w3.org/2000/svg">
<path d="M12 4C10.8954 4 10 4.89543 10 6V20H36V38H10V42C10 43.1046 10.8954 44 12 44H40C41.1046 44 42 43.1046 42 42V16L30 4H12Z" fill="#324558"/>
<path d="M12.9434 30.8375C12.9069 31.6292 12.6934 32.3297 12.3027 32.9391C11.9121 33.5432 11.3626 34.012 10.6543 34.3453C9.95117 34.6786 9.14648 34.8453 8.24023 34.8453C6.74544 34.8453 5.56836 34.3583 4.70898 33.3844C3.84961 32.4104 3.41992 31.0354 3.41992 29.2594V28.6969C3.41992 27.5823 3.61263 26.6083 3.99805 25.775C4.38867 24.9365 4.94857 24.2906 5.67773 23.8375C6.4069 23.3792 7.25065 23.15 8.20898 23.15C9.58919 23.15 10.6986 23.5146 11.5371 24.2437C12.3757 24.9677 12.8522 25.9677 12.9668 27.2437H10.2324C10.2116 26.551 10.0371 26.0536 9.70898 25.7516C9.38086 25.4495 8.88086 25.2984 8.20898 25.2984C7.52669 25.2984 7.02669 25.5536 6.70898 26.0641C6.39128 26.5745 6.22461 27.3896 6.20898 28.5094V29.3141C6.20898 30.5276 6.36003 31.3948 6.66211 31.9156C6.9694 32.4365 7.49544 32.6969 8.24023 32.6969C8.87044 32.6969 9.35221 32.5484 9.68555 32.2516C10.0189 31.9547 10.196 31.4833 10.2168 30.8375H12.9434Z" fill="#324558"/>
<path d="M20.1074 31.6656C20.1074 31.2646 19.9642 30.9521 19.6777 30.7281C19.3965 30.5042 18.8991 30.2724 18.1855 30.0328C17.472 29.7932 16.8887 29.5615 16.4355 29.3375C14.9616 28.6135 14.2246 27.6187 14.2246 26.3531C14.2246 25.7229 14.4069 25.1682 14.7715 24.6891C15.1413 24.2047 15.6621 23.8297 16.334 23.5641C17.0059 23.2932 17.7611 23.1578 18.5996 23.1578C19.4173 23.1578 20.1491 23.3036 20.7949 23.5953C21.446 23.887 21.9512 24.3036 22.3105 24.8453C22.6699 25.3818 22.8496 25.9963 22.8496 26.6891H20.1152C20.1152 26.2255 19.972 25.8661 19.6855 25.6109C19.4043 25.3557 19.0215 25.2281 18.5371 25.2281C18.0475 25.2281 17.6595 25.3375 17.373 25.5562C17.0918 25.7698 16.9512 26.0432 16.9512 26.3766C16.9512 26.6682 17.1074 26.9338 17.4199 27.1734C17.7324 27.4078 18.2819 27.6526 19.0684 27.9078C19.8548 28.1578 20.5007 28.4286 21.0059 28.7203C22.235 29.4286 22.8496 30.4052 22.8496 31.65C22.8496 32.6448 22.4746 33.426 21.7246 33.9937C20.9746 34.5615 19.946 34.8453 18.6387 34.8453C17.7168 34.8453 16.8809 34.6812 16.1309 34.3531C15.3861 34.0198 14.8236 33.5667 14.4434 32.9937C14.0684 32.4156 13.8809 31.7516 13.8809 31.0016H16.6309C16.6309 31.6109 16.7871 32.0615 17.0996 32.3531C17.4173 32.6396 17.9303 32.7828 18.6387 32.7828C19.0918 32.7828 19.4486 32.6865 19.709 32.4937C19.9746 32.2958 20.1074 32.0198 20.1074 31.6656Z" fill="#324558"/>
<path d="M30.9355 23.3141L28.6699 31.5953L26.4121 23.3141H23.373L27.1699 34.6891H30.1699L33.998 23.3141H30.9355Z" fill="#324558"/>
</svg>
