<svg width="48" height="48" viewBox="0 0 48 48" fill="none" xmlns="http://www.w3.org/2000/svg">
<path d="M12 4C10.8954 4 10 4.89543 10 6V20H36V38H10V42C10 43.1046 10.8954 44 12 44H40C41.1046 44 42 43.1046 42 42V16L30 4H12Z" fill="#324558"/>
<path d="M10.9136 30.357L12.1367 23.67H14.6855L12.4224 34.3341H9.75635L8.32812 28.255L6.9292 34.3341H4.27051L2 23.67H4.55615L5.7793 30.357L7.24414 23.67H9.42676L10.9136 30.357Z" fill="#324558"/>
<path fill-rule="evenodd" clip-rule="evenodd" d="M21.4238 32.3419H17.9009L17.2856 34.3341H14.5391L18.4502 23.67H20.8672L24.8076 34.3341H22.0464L21.4238 32.3419ZM18.5161 30.357H20.8086L19.6587 26.6583L18.5161 30.357Z" fill="#324558"/>
<path fill-rule="evenodd" clip-rule="evenodd" d="M28.1621 30.5694H29.5537L31.436 34.3341H34.1899V34.2242L31.9634 29.9249C32.603 29.6222 33.0718 29.2267 33.3696 28.7384C33.6724 28.2501 33.8237 27.6349 33.8237 26.8927C33.8237 25.8673 33.4673 25.0738 32.7544 24.5123C32.0415 23.9508 31.0527 23.67 29.7881 23.67H25.5913V34.3341H28.1621V30.5694ZM29.7881 28.5846H28.1621V25.6549H29.7881C30.2715 25.6549 30.6377 25.7867 30.8867 26.0504C31.1357 26.3092 31.2603 26.6681 31.2603 27.127C31.2603 27.586 31.1357 27.9449 30.8867 28.2037C30.6426 28.4576 30.2764 28.5846 29.7881 28.5846Z" fill="#324558"/>
</svg>
