<svg width="48" height="48" viewBox="0 0 48 48" fill="none" xmlns="http://www.w3.org/2000/svg">
<path d="M12.0001 4C10.8956 4 10.0001 4.89543 10.0001 6V20H36.0001V38H10.0001V42C10.0001 43.1046 10.8956 44 12.0001 44H40.0001C41.1047 44 42.0001 43.1046 42.0001 42V16L30.0001 4H12.0001Z" fill="#324558"/>
<path fill-rule="evenodd" clip-rule="evenodd" d="M8.3623 30.8256V34.685H5.62012V23.31H10.1592C11.029 23.31 11.7972 23.4715 12.4639 23.7944C13.1357 24.1121 13.654 24.5678 14.0186 25.1616C14.3883 25.7501 14.5732 26.4194 14.5732 27.1694C14.5732 28.2787 14.1748 29.1668 13.3779 29.8334C12.5863 30.4949 11.4977 30.8256 10.1123 30.8256H8.3623ZM8.3623 28.7084H10.1592C10.6904 28.7084 11.0941 28.5756 11.3701 28.31C11.6514 28.0444 11.792 27.6694 11.792 27.185C11.792 26.6537 11.6488 26.2293 11.3623 25.9116C11.0758 25.5939 10.6852 25.4324 10.1904 25.4272H8.3623V28.7084Z" fill="#324558"/>
<path fill-rule="evenodd" clip-rule="evenodd" d="M16.042 34.685V23.31H19.7061C20.7113 23.31 21.6149 23.5392 22.417 23.9975C23.2191 24.4506 23.8441 25.0939 24.292 25.9272C24.7451 26.7553 24.9743 27.685 24.9795 28.7162V29.2397C24.9795 30.2814 24.7581 31.2162 24.3154 32.0444C23.8779 32.8673 23.2581 33.5131 22.4561 33.9819C21.6592 34.4454 20.7686 34.6798 19.7842 34.685H16.042ZM18.7842 25.4272V32.5756H19.7373C20.5238 32.5756 21.1279 32.297 21.5498 31.7397C21.9717 31.1772 22.1826 30.3439 22.1826 29.2397V28.7475C22.1826 27.6485 21.9717 26.8204 21.5498 26.2631C21.1279 25.7058 20.5133 25.4272 19.7061 25.4272H18.7842Z" fill="#324558"/>
<path d="M29.1279 30.1537H33.5498V28.0444H29.1279V25.4272H33.9951V23.31H26.3857V34.685H29.1279V30.1537Z" fill="#324558"/>
</svg>
