<svg width="48" height="48" viewBox="0 0 48 48" fill="none" xmlns="http://www.w3.org/2000/svg">
<path fill-rule="evenodd" clip-rule="evenodd" d="M39 8H29.917C29.441 5.16229 26.973 3 24 3C21.027 3 18.559 5.16229 18.083 8H9C7.89543 8 7 8.89543 7 10V42C7 43.1046 7.89543 44 9 44H29.6929C27.0654 41.8149 25.3128 38.614 25.0379 35H16V33C16 30.7909 17.7909 29 20 29H25.9963C27.9554 24.3021 32.5921 21 38 21C39.0325 21 40.037 21.1204 41 21.3479V10C41 8.89543 40.1046 8 39 8ZM24 11C25.1046 11 26 10.1046 26 9C26 7.89543 25.1046 7 24 7C22.8954 7 22 7.89543 22 9C22 10.1046 22.8954 11 24 11ZM24 27C26.2091 27 28 25.2091 28 23C28 20.7909 26.2091 19 24 19C21.7909 19 20 20.7909 20 23C20 25.2091 21.7909 27 24 27Z" fill="#324558"/>
<path fill-rule="evenodd" clip-rule="evenodd" d="M48 34C48 39.5229 43.5229 44 38 44C32.4772 44 28 39.5229 28 34C28 28.4772 32.4772 24 38 24C43.5229 24 48 28.4772 48 34ZM44.0944 31.0259L36.4376 39.1932L31.9058 34.3592L34.0944 32.3074L36.4376 34.8068L41.9058 28.9741L44.0944 31.0259Z" fill="#324558"/>
</svg>
