<svg width="48" height="48" viewBox="0 0 48 48" fill="none" xmlns="http://www.w3.org/2000/svg">
<path fill-rule="evenodd" clip-rule="evenodd" d="M39 8H29.917C29.441 5.16229 26.973 3 24 3C21.027 3 18.559 5.16229 18.083 8H9C7.89543 8 7 8.89543 7 10V42C7 43.1046 7.89543 44 9 44H39C40.1046 44 41 43.1046 41 42V10C41 8.89543 40.1046 8 39 8ZM24 11C25.1046 11 26 10.1046 26 9C26 7.89543 25.1046 7 24 7C22.8954 7 22 7.89543 22 9C22 10.1046 22.8954 11 24 11ZM16 33C16 30.7909 17.7909 29 20 29H28C30.2091 29 32 30.7909 32 33V35H16V33ZM24 27C26.2091 27 28 25.2091 28 23C28 20.7909 26.2091 19 24 19C21.7909 19 20 20.7909 20 23C20 25.2091 21.7909 27 24 27Z" fill="#324558"/>
</svg>
