<svg width="48" height="48" viewBox="0 0 48 48" fill="none" xmlns="http://www.w3.org/2000/svg">
<path fill-rule="evenodd" clip-rule="evenodd" d="M10 4C8.89543 4 8 4.89543 8 6V42C8 43.1046 8.89543 44 10 44H33.1507C32.8439 43.7449 32.5418 43.4737 32.2475 43.1864C29.9525 40.9463 28 37.5953 28 33.0909V25.6568L39.5 20.737L40 20.9509V6C40 4.89543 39.1046 4 38 4H10ZM14 10H28V14H14V10ZM14 18H22V22H14V18Z" fill="#324558"/>
<path fill-rule="evenodd" clip-rule="evenodd" d="M31 27.6364L39.5 24L48 27.6364V33.0909C48 40.2091 41.9187 43.5327 39.5 44C37.0813 43.5327 31 40.2091 31 33.0909V27.6364ZM38.4371 39.1932L46.0939 31.0259L43.9053 28.9741L38.4371 34.8068L36.0939 32.3074L33.9053 34.3592L38.4371 39.1932Z" fill="#324558"/>
</svg>
