<svg width="48" height="48" viewBox="0 0 48 48" fill="none" xmlns="http://www.w3.org/2000/svg">
<g clip-path="url(#clip0_29_231)">
<path fill-rule="evenodd" clip-rule="evenodd" d="M8 6C8 4.89543 8.89543 4 10 4H38C39.1046 4 40 4.89543 40 6V21.1529C39.3481 21.0522 38.6801 21 38 21C30.8203 21 25 26.8203 25 34C25 38.0209 26.8255 41.6154 29.6929 44H10C8.89543 44 8 43.1046 8 42V6ZM14 18H22V22H14V18ZM28 10H14V14H28V10Z" fill="#324558"/>
<path fill-rule="evenodd" clip-rule="evenodd" d="M35.6267 24L35.1258 26.5234C34.2905 26.8338 33.5182 27.2674 32.84 27.8145L30.3733 26.9785L28 31.0215L29.9738 32.707C29.9038 33.129 29.8585 33.5586 29.8585 34C29.8585 34.4414 29.9038 34.871 29.9738 35.293L28 36.9785L30.3733 41.0215L32.84 40.1856C33.5182 40.7326 34.2905 41.1662 35.1258 41.4766L35.6267 44H40.3733L40.8742 41.4766C41.7095 41.1662 42.4818 40.7326 43.16 40.1856L45.6267 41.0215L48 36.9785L46.0262 35.293C46.0962 34.871 46.1415 34.4414 46.1415 34C46.1415 33.5586 46.0962 33.129 46.0262 32.707L48 31.0215L45.6267 26.9785L43.16 27.8145C42.4818 27.2674 41.7095 26.8338 40.8742 26.5234L40.3733 24H35.6267ZM41.3334 33.9998C41.3334 35.8408 39.841 37.3332 38 37.3332C36.1591 37.3332 34.6667 35.8408 34.6667 33.9998C34.6667 32.1589 36.1591 30.6665 38 30.6665C39.841 30.6665 41.3334 32.1589 41.3334 33.9998Z" fill="#324558"/>
</g>
<defs>
<clipPath id="clip0_29_231">
<rect width="48" height="48" fill="white"/>
</clipPath>
</defs>
</svg>
