<svg width="48" height="48" viewBox="0 0 48 48" fill="none" xmlns="http://www.w3.org/2000/svg">
<path fill-rule="evenodd" clip-rule="evenodd" d="M8 6C8 4.89543 8.89543 4 10 4H38C39.1046 4 40 4.89543 40 6V21.1529C39.3481 21.0522 38.6801 21 38 21C30.8203 21 25 26.8203 25 34C25 38.0209 26.8255 41.6154 29.6929 44H10C8.89543 44 8 43.1046 8 42V6ZM14 18H22V22H14V18ZM28 10H14V14H28V10Z" fill="#324558"/>
<path fill-rule="evenodd" clip-rule="evenodd" d="M48 34C48 39.5229 43.5229 44 38 44C32.4772 44 28 39.5229 28 34C28 28.4772 32.4772 24 38 24C43.5229 24 48 28.4772 48 34ZM36.5 28V33H32L38 40L44 33H39.5V28H36.5Z" fill="#324558"/>
</svg>
