<svg width="48" height="48" viewBox="0 0 48 48" fill="none" xmlns="http://www.w3.org/2000/svg">
<path fill-rule="evenodd" clip-rule="evenodd" d="M10 4C8.89543 4 8 4.89543 8 6V42C8 43.1046 8.89543 44 10 44H29.6929C26.8255 41.6154 25 38.0209 25 34C25 26.8203 30.8203 21 38 21C38.6801 21 39.3481 21.0522 40 21.1529V6C40 4.89543 39.1046 4 38 4H10ZM14 10H28V14H14V10ZM14 18H22V22H14V18Z" fill="#324558"/>
<path fill-rule="evenodd" clip-rule="evenodd" d="M48 34C48 39.5229 43.5229 44 38 44C32.4772 44 28 39.5229 28 34C28 28.4772 32.4772 24 38 24C43.5229 24 48 28.4772 48 34ZM38 27L40.1631 31.2793L45 31.9656L41.5 35.2966L42.3262 40L38 37.7793L33.6738 40L34.5 35.2966L31 31.9656L35.8369 31.2793L38 27Z" fill="#324558"/>
</svg>
