<svg width="48" height="48" viewBox="0 0 48 48" fill="none" xmlns="http://www.w3.org/2000/svg">
<path d="M24 35C26.7614 35 29 32.7614 29 30C29 29.1655 28.7956 28.3788 28.4341 27.6872L21.6872 34.4341C22.3788 34.7956 23.1655 35 24 35Z" fill="#324558"/>
<path d="M26.3128 25.5659L19.5659 32.3128C19.2044 31.6212 19 30.8344 19 30C19 27.2386 21.2386 25 24 25C24.8344 25 25.6212 25.2044 26.3128 25.5659Z" fill="#324558"/>
<path fill-rule="evenodd" clip-rule="evenodd" d="M10 4C8.89543 4 8 4.89543 8 6V42C8 43.1046 8.89543 44 10 44H38C39.1046 44 40 43.1046 40 42V17H27V4H10ZM24 38C28.4183 38 32 34.4183 32 30C32 25.5817 28.4183 22 24 22C19.5817 22 16 25.5817 16 30C16 34.4183 19.5817 38 24 38Z" fill="#324558"/>
<path d="M30 14H40L30 4V14Z" fill="#324558"/>
</svg>
