<svg width="48" height="48" viewBox="0 0 48 48" fill="none" xmlns="http://www.w3.org/2000/svg">
<path fill-rule="evenodd" clip-rule="evenodd" d="M8 6C8 4.89543 8.89543 4 10 4H38C39.1046 4 40 4.89543 40 6V21.0764C39.674 21.0261 39.3401 21 39 21C35.4101 21 32.5 23.9101 32.5 27.5C32.5 28.5184 32.7431 29.5932 32.9123 30.3287C32.9425 30.4601 32.9716 30.5855 32.9995 30.7056C33.1174 31.2137 33.2133 31.627 33.279 32H32C29.2386 32 27 34.2386 27 37V44H10C8.89543 44 8 43.1046 8 42V6ZM14 18H22V22H14V18ZM28 10H14V14H28V10Z" fill="#324558"/>
<path d="M34.5012 35H32C30.8954 35 30 35.8954 30 37V40.5H48V37C48 35.8954 47.1046 35 46 35H43.4988C41.0026 34.6425 41.5602 32.2491 42.0845 29.9992C42.2949 29.096 42.5 28.216 42.5 27.5C42.5 25.567 40.933 24 39 24C37.067 24 35.5 25.567 35.5 27.5C35.5 28.216 35.7051 29.096 35.9155 29.9992C36.4398 32.2491 36.9974 34.6425 34.5012 35Z" fill="#324558"/>
<path d="M31 44V42H47V44H31Z" fill="#324558"/>
</svg>
