<svg width="48" height="48" viewBox="0 0 48 48" fill="none" xmlns="http://www.w3.org/2000/svg">
<path fill-rule="evenodd" clip-rule="evenodd" d="M6 8C4.89543 8 4 8.89543 4 10V38C4 39.1046 4.89543 40 6 40H26.4644C25.5289 38.205 25 36.1643 25 34H10L17 25L22 31.02L29 22L30.1995 23.5994C32.3723 21.9672 35.0732 21 38 21C40.1643 21 42.205 21.5289 44 22.4644V10C44 8.89543 43.1046 8 42 8H6ZM18 17C18 18.6569 16.6569 20 15 20C13.3431 20 12 18.6569 12 17C12 15.3431 13.3431 14 15 14C16.6569 14 18 15.3431 18 17Z" fill="#324558"/>
<path fill-rule="evenodd" clip-rule="evenodd" d="M48 34C48 39.5228 43.5229 44 38 44C32.4772 44 28 39.5228 28 34C28 28.4772 32.4772 24 38 24C43.5229 24 48 28.4772 48 34ZM36.5 29V32.5H33V35.5H36.5V39H39.5V35.5H43V32.5H39.5V29H36.5Z" fill="#324558"/>
</svg>
