<svg width="48" height="48" viewBox="0 0 48 48" fill="none" xmlns="http://www.w3.org/2000/svg">
<path fill-rule="evenodd" clip-rule="evenodd" d="M6 7C4.89543 7 4 7.89543 4 9V39C4 40.1046 4.89543 41 6 41H27.0436C25.9189 39.2432 25.2051 37.198 25.0379 35H11L18 26L23 32.02L30 23L30.3604 23.4805C32.505 21.9203 35.145 21 38 21C40.1643 21 42.205 21.5289 44 22.4644V13C44 11.8954 43.1046 11 42 11H24L19 7H6ZM19 19C19 20.6569 17.6569 22 16 22C14.3431 22 13 20.6569 13 19C13 17.3431 14.3431 16 16 16C17.6569 16 19 17.3431 19 19Z" fill="#324558"/>
<path fill-rule="evenodd" clip-rule="evenodd" d="M38 44C43.5229 44 48 39.5229 48 34C48 28.4772 43.5229 24 38 24C32.4772 24 28 28.4772 28 34C28 39.5229 32.4772 44 38 44ZM38 41C41.866 41 45 37.866 45 34C45 32.61 44.5948 31.3145 43.8961 30.2254L34.2254 39.8961C35.3145 40.5948 36.61 41 38 41ZM41.7749 28.104L32.104 37.7749C31.4052 36.6857 31 35.3902 31 34C31 30.134 34.134 27 38 27C39.3902 27 40.6857 27.4052 41.7749 28.104Z" fill="#324558"/>
</svg>
