<svg width="48" height="48" viewBox="0 0 48 48" fill="none" xmlns="http://www.w3.org/2000/svg">
<path fill-rule="evenodd" clip-rule="evenodd" d="M4 10C4 8.89543 4.89543 8 6 8H42C43.1046 8 44 8.89543 44 10V22.4644C42.205 21.5289 40.1643 21 38 21C35.0732 21 32.3723 21.9672 30.1995 23.5994L29 22L22 31.02L17 25L10 34H25C25 36.1643 25.5289 38.205 26.4644 40H6C4.89543 40 4 39.1046 4 38V10ZM15 20C16.6569 20 18 18.6569 18 17C18 15.3431 16.6569 14 15 14C13.3431 14 12 15.3431 12 17C12 18.6569 13.3431 20 15 20Z" fill="#324558"/>
<path fill-rule="evenodd" clip-rule="evenodd" d="M38 44C43.5229 44 48 39.5228 48 34C48 28.4772 43.5229 24 38 24C32.4772 24 28 28.4772 28 34C28 39.5228 32.4772 44 38 44ZM38 41C41.866 41 45 37.866 45 34C45 32.6099 44.5948 31.3145 43.8961 30.2253L34.2253 39.8961C35.3145 40.5948 36.6099 41 38 41ZM41.7748 28.104L32.104 37.7748C31.4052 36.6856 31 35.3901 31 34C31 30.134 34.134 27 38 27C39.3901 27 40.6856 27.4052 41.7748 28.104Z" fill="#324558"/>
</svg>
