<svg width="48" height="48" viewBox="0 0 48 48" fill="none" xmlns="http://www.w3.org/2000/svg">
<path fill-rule="evenodd" clip-rule="evenodd" d="M24 44C35.0457 44 44 35.0457 44 24C44 12.9543 35.0457 4 24 4C12.9543 4 4 12.9543 4 24C4 35.0457 12.9543 44 24 44ZM15 18C15 16.8954 15.8954 16 17 16C18.1046 16 19 16.8954 19 18V20C19 21.1046 18.1046 22 17 22C15.8954 22 15 21.1046 15 20V18ZM23.6485 30.5191C19.8363 30.5191 16.8031 31.8886 15.4017 32.7793C15.2172 32.8965 14.9651 32.7665 14.9651 32.5478C14.9651 32.485 14.9867 32.4249 15.0277 32.3773C16.3305 30.8619 18.7293 28.7127 23.6485 28.0516C26.6368 27.6499 29.8241 28.2911 31.7798 28.8857C32.4894 29.1014 32.8674 29.8436 32.6891 30.5635C32.4931 31.355 31.7063 31.8114 30.9204 31.594C29.3146 31.15 26.6697 30.5191 23.6485 30.5191ZM29 18C29 16.8954 29.8954 16 31 16C32.1046 16 33 16.8954 33 18V20C33 21.1046 32.1046 22 31 22C29.8954 22 29 21.1046 29 20V18Z" fill="#B6C2CD"/>
<path d="M15 18C15 16.8954 15.8954 16 17 16C18.1046 16 19 16.8954 19 18V20C19 21.1046 18.1046 22 17 22C15.8954 22 15 21.1046 15 20V18Z" fill="#324558"/>
<path d="M23.6485 30.5191C19.8363 30.5191 16.8031 31.8886 15.4017 32.7793C15.2172 32.8965 14.9651 32.7665 14.9651 32.5478C14.9651 32.485 14.9867 32.4249 15.0277 32.3773C16.3305 30.8619 18.7293 28.7127 23.6485 28.0516C26.6368 27.6499 29.8241 28.2911 31.7798 28.8857C32.4894 29.1014 32.8674 29.8436 32.6891 30.5635C32.4931 31.355 31.7063 31.8114 30.9204 31.594C29.3146 31.15 26.6697 30.5191 23.6485 30.5191Z" fill="#324558"/>
<path d="M29 18C29 16.8954 29.8954 16 31 16C32.1046 16 33 16.8954 33 18V20C33 21.1046 32.1046 22 31 22C29.8954 22 29 21.1046 29 20V18Z" fill="#324558"/>
</svg>
