<svg width="48" height="48" viewBox="0 0 48 48" fill="none" xmlns="http://www.w3.org/2000/svg">
<path fill-rule="evenodd" clip-rule="evenodd" d="M43.9844 23.2039C41.3984 22.3523 37.9628 21.8892 37.9628 21.8892C37.9628 21.8892 38.8861 28.7381 40.5224 30.3744C41.1005 30.9525 41.8055 31.3264 42.5478 31.496C39.5818 38.8277 32.3949 44 23.9999 44C15.605 44 8.41806 38.8277 5.45212 31.496C6.19431 31.3264 6.89928 30.9525 7.47735 30.3744C9.11368 28.7381 10.0369 21.8892 10.0369 21.8892C10.0369 21.8892 6.60148 22.3523 4.0155 23.2038C4.43348 12.5272 13.2209 4 23.9999 4C34.779 4 43.5664 12.5272 43.9844 23.2039ZM11.8665 12.1934C12.3119 11.4949 13.2392 11.2898 13.9377 11.7352L19.5564 15.3183C20.0301 15.6204 20.2953 16.1619 20.2435 16.7213C20.1916 17.2808 19.8315 17.7644 19.3103 17.9743L13.3103 20.3913C12.5419 20.7008 11.668 20.3288 11.3585 19.5604C11.049 18.792 11.421 17.9181 12.1894 17.6086L15.486 16.2806L12.3247 14.2647C11.6262 13.8192 11.4211 12.8919 11.8665 12.1934ZM11.0474 24.8806L11.0234 24.7318C11.0234 24.7318 15.9019 23 23.9682 23C32.0345 23 36.9169 25.1305 36.9169 25.1305L36.9001 25.2192L36.924 25.2116C36.7875 32.2482 31.0406 37.9104 23.9713 37.9104C16.8163 37.9104 11.0161 32.1102 11.0161 24.9552L11.0163 24.8694L11.0474 24.8806ZM36.1333 12.1934C35.6879 11.4949 34.7606 11.2898 34.0621 11.7352L28.4434 15.3183C27.9697 15.6204 27.7045 16.1619 27.7564 16.7213C27.8082 17.2808 28.1683 17.7644 28.6895 17.9743L34.6895 20.3913C35.4579 20.7008 36.3318 20.3288 36.6413 19.5604C36.9509 18.792 36.5789 17.9181 35.8104 17.6086L32.5138 16.2806L35.6751 14.2647C36.3736 13.8192 36.5788 12.8919 36.1333 12.1934Z" fill="#B6C2CD"/>
<path d="M11.8665 12.1937C12.312 11.4952 13.2393 11.29 13.9378 11.7355L19.5564 15.3185C20.0302 15.6206 20.2953 16.1621 20.2435 16.7216C20.1917 17.2811 19.8315 17.7646 19.3104 17.9746L13.3104 20.3915C12.542 20.7011 11.6681 20.3291 11.3586 19.5607C11.049 18.7922 11.421 17.9184 12.1894 17.6088L15.486 16.2809L12.3247 14.2649C11.6262 13.8195 11.4211 12.8922 11.8665 12.1937Z" fill="#324558"/>
<path d="M11.0474 24.8809L11.0234 24.7321C11.0234 24.7321 15.902 23.0002 23.9683 23.0002C32.0345 23.0002 36.917 25.1307 36.917 25.1307L36.9001 25.2195L36.9241 25.2118C36.7875 32.2485 31.0407 37.9107 23.9713 37.9107C16.8164 37.9107 11.0161 32.1104 11.0161 24.9554L11.0164 24.8696L11.0474 24.8809Z" fill="#324558"/>
<path d="M34.0622 11.7355C34.7606 11.29 35.688 11.4952 36.1334 12.1937C36.5788 12.8922 36.3737 13.8195 35.6752 14.2649L32.5139 16.2809L35.8105 17.6088C36.5789 17.9184 36.9509 18.7922 36.6414 19.5607C36.3318 20.3291 35.458 20.7011 34.6895 20.3915L28.6895 17.9746C28.1684 17.7646 27.8082 17.2811 27.7564 16.7216C27.7046 16.1621 27.9698 15.6206 28.4435 15.3185L34.0622 11.7355Z" fill="#324558"/>
<path d="M40.5225 30.3747C42.1588 32.011 44.8118 32.011 46.4482 30.3747C48.0845 28.7383 48.0845 26.0853 46.4482 24.449C44.8118 22.8127 37.9629 21.8894 37.9629 21.8894C37.9629 21.8894 38.8861 28.7383 40.5225 30.3747Z" fill="#324558"/>
<path d="M1.55171 30.3747C3.18805 32.011 5.84107 32.011 7.4774 30.3747C9.11374 28.7383 10.037 21.8894 10.037 21.8894C10.037 21.8894 3.18805 22.8127 1.55171 24.449C-0.0846207 26.0853 -0.0846206 28.7383 1.55171 30.3747Z" fill="#324558"/>
</svg>
