<svg width="48" height="48" viewBox="0 0 48 48" fill="none" xmlns="http://www.w3.org/2000/svg">
<path fill-rule="evenodd" clip-rule="evenodd" d="M24 44C35.0457 44 44 35.0457 44 24C44 12.9543 35.0457 4 24 4C12.9543 4 4 12.9543 4 24C4 35.0457 12.9543 44 24 44ZM15 16C15 14.8954 15.8955 14 17 14C18.1046 14 19 14.8954 19 16V18C19 19.1046 18.1046 20 17 20C15.8955 20 15 19.1046 15 18V16ZM29 16C29 14.8954 29.8955 14 31 14C32.1046 14 33 14.8954 33 16V18C33 19.1046 32.1046 20 31 20C29.8955 20 29 19.1046 29 18V16ZM34.3292 33.3472C33.521 33.5289 32.7184 33.0211 32.5366 32.2128C31.811 28.9861 28.5767 26.3837 24.5001 26.3837C20.4234 26.3837 17.1892 28.9861 16.4635 32.2128C16.2818 33.0211 15.4792 33.5289 14.671 33.3472C13.8627 33.1654 13.3549 32.3628 13.5366 31.5546C14.6074 26.7934 19.1971 23.3837 24.5001 23.3837C29.8031 23.3837 34.3928 26.7934 35.4635 31.5546C35.6453 32.3628 35.1374 33.1654 34.3292 33.3472Z" fill="#B6C2CD"/>
<path d="M15 16C15 14.8954 15.8955 14 17 14C18.1046 14 19 14.8954 19 16V18C19 19.1046 18.1046 20 17 20C15.8955 20 15 19.1046 15 18V16Z" fill="#324558"/>
<path d="M29 16C29 14.8954 29.8955 14 31 14C32.1046 14 33 14.8954 33 16V18C33 19.1046 32.1046 20 31 20C29.8955 20 29 19.1046 29 18V16Z" fill="#324558"/>
<path d="M32.5366 32.2128C32.7184 33.0211 33.5209 33.5289 34.3292 33.3472C35.1374 33.1654 35.6453 32.3628 35.4635 31.5546C34.3928 26.7934 29.8031 23.3837 24.5001 23.3837C19.1971 23.3837 14.6074 26.7934 13.5366 31.5546C13.3549 32.3628 13.8627 33.1654 14.671 33.3472C15.4792 33.5289 16.2818 33.0211 16.4635 32.2128C17.1892 28.9861 20.4234 26.3837 24.5001 26.3837C28.5767 26.3837 31.811 28.9861 32.5366 32.2128Z" fill="#324558"/>
</svg>
