<svg width="48" height="48" viewBox="0 0 48 48" fill="none" xmlns="http://www.w3.org/2000/svg">
<path fill-rule="evenodd" clip-rule="evenodd" d="M24 44C35.0457 44 44 35.0457 44 24C44 12.9543 35.0457 4 24 4C12.9543 4 4 12.9543 4 24C4 35.0457 12.9543 44 24 44ZM16 27C19.866 27 23 23.866 23 20C23 16.134 19.866 13 16 13C12.134 13 9 16.134 9 20C9 23.866 12.134 27 16 27ZM39 20C39 23.866 35.866 27 32 27C28.134 27 25 23.866 25 20C25 16.134 28.134 13 32 13C35.866 13 39 16.134 39 20ZM18 31.5C18 30.6716 18.6716 30 19.5 30H28.5C29.3284 30 30 30.6716 30 31.5C30 32.3284 29.3284 33 28.5 33H19.5C18.6716 33 18 32.3284 18 31.5Z" fill="#B6C2CD"/>
<path d="M18 20C18 21.1046 17.1046 22 16 22C14.8954 22 14 21.1046 14 20C14 18.8954 14.8954 18 16 18C17.1046 18 18 18.8954 18 20Z" fill="#324558"/>
<path d="M18 31.5C18 30.6716 18.6716 30 19.5 30H28.5C29.3284 30 30 30.6716 30 31.5C30 32.3284 29.3284 33 28.5 33H19.5C18.6716 33 18 32.3284 18 31.5Z" fill="#324558"/>
<path d="M32 22C33.1046 22 34 21.1046 34 20C34 18.8954 33.1046 18 32 18C30.8954 18 30 18.8954 30 20C30 21.1046 30.8954 22 32 22Z" fill="#324558"/>
</svg>
