<svg width="48" height="48" viewBox="0 0 48 48" fill="none" xmlns="http://www.w3.org/2000/svg">
<path fill-rule="evenodd" clip-rule="evenodd" d="M44 24C44 35.0457 35.0457 44 24 44C12.9543 44 4 35.0457 4 24C4 12.9543 12.9543 4 24 4C35.0457 4 44 12.9543 44 24ZM10.8017 21.5928C10.0027 24.7652 11.8966 28.0023 15.0676 28.8519C18.2386 29.7016 21.4972 27.8452 22.3915 24.6982L10.8017 21.5928ZM32.9324 28.8517C29.7614 29.7014 26.5029 27.845 25.6085 24.6982L37.1983 21.5928C37.9971 24.7652 36.1033 28.0021 32.9324 28.8517ZM18.9146 31.1402C18.2478 31.6318 18.1057 32.5709 18.5973 33.2377C19.0889 33.9045 20.0279 34.0466 20.6947 33.555C21.5781 32.9038 22.7255 32.5 23.9974 32.5C25.2692 32.5 26.4166 32.9038 27.3 33.555C27.9668 34.0466 28.9058 33.9045 29.3974 33.2377C29.889 32.5709 29.7469 31.6318 29.0801 31.1402C27.6782 30.1067 25.9062 29.5 23.9974 29.5C22.0885 29.5 20.3165 30.1067 18.9146 31.1402Z" fill="#B6C2CD"/>
<path d="M19.4929 23.9213L13.7001 22.3691C13.3294 23.9409 14.2733 25.5331 15.8439 25.9539C17.4145 26.3748 19.0281 25.4679 19.4929 23.9213Z" fill="#324558"/>
<path d="M28.5068 23.9213C28.9717 25.4679 30.5853 26.3748 32.1559 25.9539C33.7265 25.5331 34.6704 23.9409 34.2997 22.3691L28.5068 23.9213Z" fill="#324558"/>
<path d="M18.5972 33.2374C18.1056 32.5706 18.2476 31.6316 18.9145 31.14C20.3164 30.1065 22.0883 29.4998 23.9972 29.4998C25.9061 29.4998 27.678 30.1065 29.08 31.14C29.7468 31.6316 29.8889 32.5706 29.3973 33.2374C28.9057 33.9043 27.9667 34.0463 27.2998 33.5547C26.4165 32.9035 25.2691 32.4998 23.9972 32.4998C22.7253 32.4998 21.578 32.9035 20.6946 33.5547C20.0278 34.0463 19.0887 33.9043 18.5972 33.2374Z" fill="#324558"/>
</svg>
