<svg width="48" height="48" viewBox="0 0 48 48" fill="none" xmlns="http://www.w3.org/2000/svg">
<path fill-rule="evenodd" clip-rule="evenodd" d="M24 44C35.0457 44 44 35.0457 44 24C44 21.3536 43.486 18.8272 42.5524 16.5153L38.7154 18.794L37.969 26.2247L32.7889 21.234L25.8074 22.966L28.8764 16.1577L25.308 9.79743L32.3849 10.5804L35.1003 7.36068C31.9245 5.2378 28.1068 4 24 4C19.729 4 15.7708 5.33874 12.5219 7.61948L15.0191 10.5804L22.096 9.79743L18.5275 16.1577L21.5965 22.966L14.6151 21.234L9.43493 26.2247L8.68859 18.794L5.33439 16.802C4.47253 19.0355 4 21.4626 4 24C4 35.0457 12.9543 44 24 44ZM12.1675 29.3084L12.1601 29.3101C12.1601 29.3101 11.9908 28.5177 11.9469 27.9999C11.906 27.518 11.9469 26.7614 11.9469 26.7614C11.9469 26.7614 16.4774 25.1531 23.9683 25.1531C31.4592 25.1531 35.9933 27.1316 35.9933 27.1316C35.9933 27.1316 36.0412 27.8104 35.9933 28.2409C35.9637 28.5074 35.8772 28.8596 35.8167 29.0856C34.8166 34.7207 29.8936 38.9999 23.9713 38.9999C18.1272 38.9999 13.2563 34.8331 12.1675 29.3084Z" fill="#B6C2CD"/>
<path d="M7.35864 12.9027L8.93831 12.2097L9.2444 10.499C8.55701 11.2498 7.92618 12.0533 7.35864 12.9027Z" fill="#B6C2CD"/>
<path d="M38.0239 9.74059C39.1035 10.8025 40.0631 11.986 40.8804 13.269L38.4657 12.2097L38.0239 9.74059Z" fill="#B6C2CD"/>
<path d="M10.2429 4.91748L8.93819 12.2097L2.41797 15.0701L8.68847 18.794L9.43481 26.2247L14.6149 21.234L21.5964 22.966L18.5274 16.1577L22.0959 9.79743L15.019 10.5804L10.2429 4.91748Z" fill="#324558"/>
<path d="M37.1608 4.91748L38.4655 12.2097L44.9858 15.0701L38.7153 18.794L37.9689 26.2247L32.7888 21.234L25.8073 22.966L28.8763 16.1577L25.3079 9.79743L32.3847 10.5804L37.1608 4.91748Z" fill="#324558"/>
<path d="M12.1599 29.3101L12.1674 29.3084C13.2562 34.8331 18.1271 38.9999 23.9711 38.9999C29.8935 38.9999 34.8164 34.7207 35.8166 29.0856C35.8771 28.8596 35.9635 28.5074 35.9932 28.2409C36.0411 27.8104 35.9932 27.1316 35.9932 27.1316C35.9932 27.1316 31.459 25.1531 23.9682 25.1531C16.4773 25.1531 11.9468 26.7614 11.9468 26.7614C11.9468 26.7614 11.9059 27.518 11.9468 27.9999C11.9907 28.5177 12.1599 29.3101 12.1599 29.3101Z" fill="#324558"/>
</svg>
