<svg width="48" height="48" viewBox="0 0 48 48" fill="none" xmlns="http://www.w3.org/2000/svg">
<path fill-rule="evenodd" clip-rule="evenodd" d="M27 11.1252C27 7.19005 23.8661 4 20.0003 4C19.7435 4 19.4868 4.01439 19.2315 4.0431C15.3891 4.4753 12.6184 7.99641 13.043 11.9077L13.4947 16.0692C13.8612 19.4451 16.6637 22 20.0003 22C23.3369 22 26.1395 19.4451 26.5059 16.0692L26.9577 11.9077C26.9859 11.6479 27 11.3866 27 11.1252ZM20 25C11 25 6 29.1889 6 35.1865V44H34V35.1865C34 29.1889 29 25 20 25Z" fill="#B6C2CD"/>
<path d="M37.0001 43.9999H42.0001V36.0678C42.0001 31.9585 39.3094 28.7926 34.3376 27.5153C36.0831 29.6513 37.0001 32.2866 37.0001 35.1865V43.9999Z" fill="#324558"/>
<path d="M30.0304 24.1083C32.5627 23.6526 34.5641 21.5456 34.8554 18.8623L35.262 15.1169C35.2874 14.8831 35.3001 14.6479 35.3001 14.4126C35.3001 11.0491 32.7562 8.29046 29.52 8.02148C29.832 9.00178 30.0001 10.0453 30.0001 11.1251C30.0001 11.4947 29.9801 11.8641 29.9402 12.2315L29.4885 16.3929C29.2144 18.9175 27.9881 21.1433 26.1838 22.6988C27.5717 23.0417 28.8592 23.5112 30.0304 24.1083Z" fill="#324558"/>
</svg>
