<svg width="48" height="48" viewBox="0 0 48 48" fill="none" xmlns="http://www.w3.org/2000/svg">
<path fill-rule="evenodd" clip-rule="evenodd" d="M8 6C6.89543 6 6 6.89543 6 8V40C6 41.1046 6.89543 42 8 42H40C41.1046 42 42 41.1046 42 40V8C42 6.89543 41.1046 6 40 6H8ZM24 19C24 16.2458 21.7542 14 19 14C16.2246 14 14 16.2246 14 19C14 21.7542 16.2458 24 19 24C21.7542 24 24 21.7542 24 19ZM35 21.9999C35 19.7823 33.2177 18 31.0001 18C28.7825 18 26.9795 19.7823 27.0002 21.9999C27.0002 24.2175 28.7825 25.9998 31.0001 25.9998C33.2177 25.9998 35 24.2175 35 21.9999ZM19 33.0792V37H11V28.8171C13.0381 27.6715 15.9959 27 19.5 27C20.5316 27 21.5159 27.0582 22.4432 27.1696C20.5282 28.4358 19 30.4251 19 33.0792ZM37 29.1651C35.4532 28.4246 33.3888 28 31 28C25.702 28 22 30.0886 22 33.0792V37H37V29.1651Z" fill="#B6C2CD"/>
<path d="M19 14C21.7542 14 24 16.2458 24 19C24 21.7542 21.7542 24 19 24C16.2458 24 14 21.7542 14 19C14 16.2246 16.2246 14 19 14Z" fill="#324558"/>
<path d="M31.0001 18C33.2177 18 35 19.7823 35 21.9999C35 24.2175 33.2177 25.9998 31.0001 25.9998C28.7825 25.9998 27.0002 24.2175 27.0002 21.9999C26.9795 19.7823 28.7825 18 31.0001 18Z" fill="#324558"/>
<path d="M19 33.0792V37H11V28.8171C13.0381 27.6715 15.9959 27 19.5 27C20.5316 27 21.5159 27.0582 22.4432 27.1696C20.5282 28.4358 19 30.4251 19 33.0792Z" fill="#324558"/>
<path d="M31 28C33.3888 28 35.4532 28.4246 37 29.1651V37H22V33.0792C22 30.0886 25.702 28 31 28Z" fill="#324558"/>
</svg>
