<svg width="48" height="48" viewBox="0 0 48 48" fill="none" xmlns="http://www.w3.org/2000/svg">
<path fill-rule="evenodd" clip-rule="evenodd" d="M24 44C35.0457 44 44 35.0457 44 24C44 12.9543 35.0457 4 24 4C12.9543 4 4 12.9543 4 24C4 35.0457 12.9543 44 24 44ZM19.0001 14C21.7543 14 24.0001 16.2458 24.0001 19C24.0001 21.7542 21.7543 24 19.0001 24C16.2458 24 14.0001 21.7542 14.0001 19C14.0001 16.2246 16.2246 14 19.0001 14ZM19.0001 33.0792V39.2032C14.5813 37.7509 11.0122 34.4257 9.23169 30.1667C11.0588 28.216 14.7847 27 19.5001 27C20.5317 27 21.5159 27.0582 22.4433 27.1696C20.5282 28.4358 19.0001 30.4251 19.0001 33.0792ZM31.0001 28C34.4292 28 37.1898 28.875 38.7106 30.3033C36.264 36.0058 30.5985 40 24.0001 40C23.3227 40 22.6552 39.9579 22.0001 39.8762V33.0792C22.0001 30.0886 25.7021 28 31.0001 28ZM35.0001 21.9999C35.0001 19.7823 33.2177 18 31.0001 18C28.7826 18 26.9795 19.7823 27.0002 21.9999C27.0002 24.2175 28.7826 25.9998 31.0001 25.9998C33.2177 25.9998 35.0001 24.2175 35.0001 21.9999Z" fill="#B6C2CD"/>
<path d="M38.7106 30.3033C37.1898 28.875 34.4292 28 31.0001 28C25.7021 28 22.0001 30.0886 22.0001 33.0792V39.8762C22.6552 39.9579 23.3227 40 24.0001 40C30.5985 40 36.264 36.0058 38.7106 30.3033Z" fill="#324558"/>
<path d="M19.0001 39.2032V33.0792C19.0001 30.4251 20.5282 28.4358 22.4433 27.1696C21.5159 27.0582 20.5317 27 19.5001 27C14.7847 27 11.0588 28.216 9.23169 30.1667C11.0122 34.4257 14.5813 37.7509 19.0001 39.2032Z" fill="#324558"/>
<path d="M19.0001 14C21.7543 14 24.0001 16.2458 24.0001 19C24.0001 21.7542 21.7543 24 19.0001 24C16.2458 24 14.0001 21.7542 14.0001 19C14.0001 16.2246 16.2246 14 19.0001 14Z" fill="#324558"/>
<path d="M31.0001 18C33.2177 18 35.0001 19.7823 35.0001 21.9999C35.0001 24.2175 33.2177 25.9998 31.0001 25.9998C28.7826 25.9998 27.0002 24.2175 27.0002 21.9999C26.9795 19.7823 28.7826 18 31.0001 18Z" fill="#324558"/>
</svg>
