<svg width="48" height="48" viewBox="0 0 48 48" fill="none" xmlns="http://www.w3.org/2000/svg">
<g clip-path="url(#clip0_29_1147)">
<path d="M29.6929 44C26.8255 41.6154 25 38.0209 25 34C25 30.6401 26.2747 27.5779 28.3668 25.2705C26.9912 25.0929 25.5309 25 24 25C13.9927 25 7 28.9684 7 34.6504V44H29.6929Z" fill="#B6C2CD"/>
<path d="M31 11.1252C31 7.19005 27.8661 4 24.0003 4C23.7435 4 23.4868 4.01439 23.2315 4.0431C19.3891 4.4753 16.6184 7.99641 17.043 11.9077L17.4947 16.0692C17.8612 19.4451 20.6637 22 24.0003 22C27.3369 22 30.1395 19.4451 30.5059 16.0692L30.9577 11.9077C30.9859 11.6479 31 11.3866 31 11.1252Z" fill="#324558"/>
<path fill-rule="evenodd" clip-rule="evenodd" d="M35.6267 24L35.1258 26.5234C34.2905 26.8338 33.5182 27.2674 32.84 27.8145L30.3733 26.9785L28 31.0215L29.9738 32.707C29.9038 33.129 29.8585 33.5586 29.8585 34C29.8585 34.4414 29.9038 34.871 29.9738 35.293L28 36.9785L30.3733 41.0215L32.84 40.1856C33.5182 40.7326 34.2905 41.1662 35.1258 41.4766L35.6267 44H40.3733L40.8742 41.4766C41.7095 41.1662 42.4818 40.7326 43.16 40.1856L45.6267 41.0215L48 36.9785L46.0262 35.293C46.0962 34.871 46.1415 34.4414 46.1415 34C46.1415 33.5586 46.0962 33.129 46.0262 32.707L48 31.0215L45.6267 26.9785L43.16 27.8145C42.4818 27.2674 41.7095 26.8338 40.8742 26.5234L40.3733 24H35.6267ZM41.3334 33.9998C41.3334 35.8408 39.841 37.3332 38 37.3332C36.1591 37.3332 34.6667 35.8408 34.6667 33.9998C34.6667 32.1589 36.1591 30.6665 38 30.6665C39.841 30.6665 41.3334 32.1589 41.3334 33.9998Z" fill="#324558"/>
</g>
<defs>
<clipPath id="clip0_29_1147">
<rect width="48" height="48" fill="white"/>
</clipPath>
</defs>
</svg>
