<svg width="48" height="48" viewBox="0 0 48 48" fill="none" xmlns="http://www.w3.org/2000/svg">
<path d="M7 34.6504C7 28.9684 13.9927 25 24 25C34.0073 25 41 28.9684 41 34.6504V44H7L7 34.6504Z" fill="#B6C2CD"/>
<path fill-rule="evenodd" clip-rule="evenodd" d="M24.0003 4C27.8661 4 31 7.19005 31 11.1252C31 11.3866 30.9859 11.6479 30.9577 11.9077L30.5059 16.0692C30.1395 19.4451 27.3369 22 24.0003 22C20.6637 22 17.8612 19.4451 17.4947 16.0692L17.043 11.9077C16.6184 7.99641 19.3891 4.4753 23.2315 4.0431C23.4868 4.01439 23.7435 4 24.0003 4Z" fill="#324558"/>
</svg>
