<svg width="48" height="48" viewBox="0 0 48 48" fill="none" xmlns="http://www.w3.org/2000/svg">
<path d="M28.0625 44C25.5713 41.8012 24 38.5841 24 35C24 31.0391 25.919 27.5265 28.878 25.341C27.3548 25.1175 25.722 25 24 25C13.9927 25 7 28.9684 7 34.6504V44H28.0625Z" fill="#B6C2CD"/>
<path d="M31 11.1252C31 7.19005 27.8661 4 24.0003 4C23.7435 4 23.4868 4.01439 23.2315 4.0431C19.3891 4.4753 16.6184 7.99641 17.043 11.9077L17.4947 16.0692C17.8612 19.4451 20.6637 22 24.0003 22C27.3369 22 30.1395 19.4451 30.5059 16.0692L30.9577 11.9077C30.9859 11.6479 31 11.3866 31 11.1252Z" fill="#324558"/>
<path fill-rule="evenodd" clip-rule="evenodd" d="M43.3362 40.2147C44.3838 38.7435 45 36.9437 45 35C45 30.0294 40.9706 26 36 26C31.0294 26 27 30.0294 27 35C27 39.9706 31.0294 44 36 44C37.9438 44 39.7436 43.3838 41.2149 42.3361L44.9395 46.0607L47.0608 43.9393L43.3362 40.2147ZM42 35C42 38.3137 39.3137 41 36 41C32.6863 41 30 38.3137 30 35C30 31.6863 32.6863 29 36 29C39.3137 29 42 31.6863 42 35Z" fill="#324558"/>
</svg>
