<svg width="48" height="48" viewBox="0 0 48 48" fill="none" xmlns="http://www.w3.org/2000/svg">
<path d="M35.7303 27.4116C32.769 25.8827 28.7198 25 24 25C13.9927 25 7 28.9684 7 34.6504V44H25V38.142L35.7303 27.4116Z" fill="#B6C2CD"/>
<path d="M31 11.1252C31 7.19005 27.8661 4 24.0003 4C23.7435 4 23.4868 4.01439 23.2315 4.0431C19.3891 4.4753 16.6184 7.99641 17.043 11.9077L17.4947 16.0692C17.8612 19.4451 20.6637 22 24.0003 22C27.3369 22 30.1395 19.4451 30.5059 16.0692L30.9577 11.9077C30.9859 11.6479 31 11.3866 31 11.1252Z" fill="#324558"/>
<path d="M43.3846 24L48 28.6153L44.9231 31.6921L40.3077 27.0768L43.3846 24Z" fill="#324558"/>
<path d="M38.7692 28.6158L43.3846 33.2311L32.6154 44H28V39.3847L38.7692 28.6158Z" fill="#324558"/>
</svg>
