<svg width="48" height="48" viewBox="0 0 48 48" fill="none" xmlns="http://www.w3.org/2000/svg">
<path d="M31.0374 25.745C28.9346 25.261 26.5665 25 24 25C13.9927 25 7 28.9684 7 34.6504V44H34.8641C34.0931 43.0817 33.2588 42.0237 32.4737 40.8984C31.6166 39.6698 30.7755 38.3011 30.1395 36.8987C29.5177 35.5278 29 33.9265 29 32.2864C29 29.8684 29.7502 27.6027 31.0374 25.745Z" fill="#B6C2CD"/>
<path d="M31 11.1252C31 7.19005 27.8661 4 24.0003 4C23.7435 4 23.4868 4.01439 23.2315 4.0431C19.3891 4.4753 16.6184 7.99641 17.043 11.9077L17.4947 16.0692C17.8612 19.4451 20.6637 22 24.0003 22C27.3369 22 30.1395 19.4451 30.5059 16.0692L30.9577 11.9077C30.9859 11.6479 31 11.3866 31 11.1252Z" fill="#324558"/>
<path fill-rule="evenodd" clip-rule="evenodd" d="M48 32.2864C48 36.441 42.6153 42.4547 40.6813 44.4806C40.3059 44.8739 39.6941 44.8739 39.3187 44.4806C37.3847 42.4547 32 36.441 32 32.2864C32 27.71 35.5817 24 40 24C44.4183 24 48 27.71 48 32.2864ZM43.2943 32.0002C43.2943 33.8195 41.8195 35.2943 40.0002 35.2943C38.1809 35.2943 36.7061 33.8195 36.7061 32.0002C36.7061 30.1809 38.1809 28.7061 40.0002 28.7061C41.8195 28.7061 43.2943 30.1809 43.2943 32.0002Z" fill="#324558"/>
</svg>
