<svg width="48" height="48" viewBox="0 0 48 48" fill="none" xmlns="http://www.w3.org/2000/svg">
<path d="M7 34.6504C7 28.9684 13.9927 25 24 25C24.6223 25 25.2329 25.0153 25.8309 25.0455C25.2999 26.0723 25 27.238 25 28.4737C25 30.6634 25.9417 32.6331 27.4421 34C25.9417 35.3669 25 37.3366 25 39.5263C25 41.2041 25.5528 42.7527 26.4863 44H7V34.6504Z" fill="#B6C2CD"/>
<path d="M31 11.1252C31 7.19005 27.8661 4 24.0003 4C23.7435 4 23.4868 4.01439 23.2315 4.0431C19.3891 4.4753 16.6184 7.99641 17.043 11.9077L17.4947 16.0692C17.8612 19.4451 20.6637 22 24.0003 22C27.3369 22 30.1395 19.4451 30.5059 16.0692L30.9577 11.9077C30.9859 11.6479 31 11.3866 31 11.1252Z" fill="#324558"/>
<path d="M28 28.4737C28 26.0029 30.0029 24 32.4737 24C34.9444 24 36.9474 26.0029 36.9474 28.4737V32.9474H32.4737C30.0029 32.9474 28 30.9444 28 28.4737Z" fill="#324558"/>
<path d="M28 39.5263C28 41.9971 30.0029 44 32.4737 44C34.9444 44 36.9474 41.9971 36.9474 39.5263V35.0526H32.4737C30.0029 35.0526 28 37.0556 28 39.5263Z" fill="#324558"/>
<path d="M48 28.4737C48 26.0029 45.9971 24 43.5263 24C41.0556 24 39.0526 26.0029 39.0526 28.4737V32.9474H43.5263C45.9971 32.9474 48 30.9444 48 28.4737Z" fill="#324558"/>
<path d="M48 39.5263C48 41.9971 45.9971 44 43.5263 44C41.0556 44 39.0526 41.9971 39.0526 39.5263V35.0526H43.5263C45.9971 35.0526 48 37.0556 48 39.5263Z" fill="#324558"/>
</svg>
