<svg width="48" height="48" viewBox="0 0 48 48" fill="none" xmlns="http://www.w3.org/2000/svg">
<path d="M29.6929 44C26.8255 41.6154 25 38.0209 25 34C25 30.6401 26.2747 27.5779 28.3668 25.2705C26.9912 25.0929 25.5309 25 24 25C13.9927 25 7 28.9684 7 34.6504V44H29.6929Z" fill="#B6C2CD"/>
<path d="M31 11.1252C31 7.19005 27.8661 4 24.0003 4C23.7435 4 23.4868 4.01439 23.2315 4.0431C19.3891 4.4753 16.6184 7.99641 17.043 11.9077L17.4947 16.0692C17.8612 19.4451 20.6637 22 24.0003 22C27.3369 22 30.1395 19.4451 30.5059 16.0692L30.9577 11.9077C30.9859 11.6479 31 11.3866 31 11.1252Z" fill="#324558"/>
<path fill-rule="evenodd" clip-rule="evenodd" d="M48 34C48 39.5229 43.5228 44 38 44C32.4772 44 28 39.5229 28 34C28 28.4772 32.4772 24 38 24C43.5228 24 48 28.4772 48 34ZM44.0944 31.0259L36.4376 39.1932L31.9058 34.3592L34.0944 32.3074L36.4376 34.8068L41.9058 28.9741L44.0944 31.0259Z" fill="#324558"/>
</svg>
