<svg width="48" height="48" viewBox="0 0 48 48" fill="none" xmlns="http://www.w3.org/2000/svg">
<path d="M8 16V8H16V4H6C4.89543 4 4 4.89543 4 6V16H8Z" fill="#B6C2CD"/>
<path d="M8 32H4V42C4 43.1046 4.89543 44 6 44H16V40H8V32Z" fill="#B6C2CD"/>
<path d="M32 40V44H42C43.1046 44 44 43.1046 44 42V32H40V40H32Z" fill="#B6C2CD"/>
<path d="M40 16H44V6C44 4.89543 43.1046 4 42 4H32V8H40V16Z" fill="#B6C2CD"/>
<path d="M28.1999 15.2751C28.1999 12.914 26.3196 11 24.0001 11C23.846 11 23.692 11.0086 23.5388 11.0259C21.2334 11.2852 19.5709 13.3978 19.8257 15.7446L20.0967 18.2415C20.3166 20.2671 21.9981 21.8 24.0001 21.8C26.0021 21.8 27.6836 20.2671 27.9035 18.2415L28.1745 15.7446C28.1914 15.5887 28.1999 15.432 28.1999 15.2751Z" fill="#324558"/>
<path d="M23.9998 23.6C17.9954 23.6 13.7998 25.9811 13.7998 29.3903V35H34.1998V29.3903C34.1998 25.9811 30.0042 23.6 23.9998 23.6Z" fill="#324558"/>
</svg>
