<svg width="48" height="48" viewBox="0 0 48 48" fill="none" xmlns="http://www.w3.org/2000/svg">
<g clip-path="url(#clip0_29_1143)">
<path d="M26.127 25.0617C25.4348 25.0208 24.7253 25 24 25C13.9927 25 7 28.9684 7 34.6504V44H36.0078L26.127 25.0617Z" fill="#B6C2CD"/>
<path d="M31 11.1252C31 7.19005 27.8661 4 24.0003 4C23.7435 4 23.4868 4.01439 23.2315 4.0431C19.3891 4.4753 16.6184 7.99641 17.043 11.9077L17.4947 16.0692C17.8612 19.4451 20.6637 22 24.0003 22C27.3369 22 30.1395 19.4451 30.5059 16.0692L30.9577 11.9077C30.9859 11.6479 31 11.3866 31 11.1252Z" fill="#324558"/>
<path d="M39.0002 43.2499L30.0003 26H34.7682L39.0002 34.1114L43.2323 26H48.0002L39.0002 43.2499Z" fill="#324558"/>
</g>
<defs>
<clipPath id="clip0_29_1143">
<rect width="48" height="48" fill="white"/>
</clipPath>
</defs>
</svg>
