<svg width="48" height="48" viewBox="0 0 48 48" fill="none" xmlns="http://www.w3.org/2000/svg">
<path fill-rule="evenodd" clip-rule="evenodd" d="M8 6C6.89543 6 6 6.89543 6 8V40C6 41.1046 6.89543 42 8 42H40C41.1046 42 42 41.1046 42 40V8C42 6.89543 41.1046 6 40 6H8ZM29 18C29 20.7614 26.7614 23 24 23C21.2386 23 19 20.7614 19 18C19 15.2386 21.2386 13 24 13C26.7614 13 29 15.2386 29 18ZM14 30C14 27.7909 15.7909 26 18 26H30C32.2091 26 34 27.7909 34 30V34H14V30Z" fill="#B6C2CD"/>
<path d="M24 23C26.7614 23 29 20.7614 29 18C29 15.2386 26.7614 13 24 13C21.2386 13 19 15.2386 19 18C19 20.7614 21.2386 23 24 23Z" fill="#324558"/>
<path d="M18 26C15.7909 26 14 27.7909 14 30V34H34V30C34 27.7909 32.2091 26 30 26H18Z" fill="#324558"/>
</svg>
