<svg width="48" height="48" viewBox="0 0 48 48" fill="none" xmlns="http://www.w3.org/2000/svg">
<path d="M27.6739 25.2705C26.2984 25.0929 24.838 25 23.3071 25C13.2998 25 6.30713 28.9684 6.30713 34.6504V44H29C26.1326 41.6154 24.3071 38.0209 24.3071 34C24.3071 30.6401 25.5818 27.5779 27.6739 25.2705Z" fill="#B6C2CD"/>
<path d="M31 11.1252C31 7.19005 27.8661 4 24.0003 4C23.7435 4 23.4868 4.01439 23.2315 4.0431C19.3891 4.4753 16.6184 7.99641 17.043 11.9077L17.4947 16.0692C17.8612 19.4451 20.6637 22 24.0003 22C27.3369 22 30.1395 19.4451 30.5059 16.0692L30.9577 11.9077C30.9859 11.6479 31 11.3866 31 11.1252Z" fill="#324558"/>
<path fill-rule="evenodd" clip-rule="evenodd" d="M48 34C48 39.5228 43.5228 44 38 44C32.4772 44 28 39.5228 28 34C28 28.4772 32.4772 24 38 24C43.5228 24 48 28.4772 48 34ZM36.5 29V32.5H33V35.5H36.5V39H39.5V35.5H43V32.5H39.5V29H36.5Z" fill="#324558"/>
</svg>
