<svg width="48" height="48" viewBox="0 0 48 48" fill="none" xmlns="http://www.w3.org/2000/svg">
<path d="M32.9775 26.2785C30.434 25.4554 27.39 25 24 25C13.9927 25 7 28.9684 7 34.6504V44H25.8078C23.1903 40.6739 23.4152 35.8407 26.4824 32.7736L32.9775 26.2785Z" fill="#B6C2CD"/>
<path d="M31 11.1252C31 7.19005 27.8661 4 24.0003 4C23.7435 4 23.4868 4.01439 23.2315 4.0431C19.3891 4.4753 16.6184 7.99641 17.043 11.9077L17.4947 16.0692C17.8612 19.4451 20.6637 22 24.0003 22C27.3369 22 30.1395 19.4451 30.5059 16.0692L30.9577 11.9077C30.9859 11.6479 31 11.3866 31 11.1252Z" fill="#324558"/>
<path d="M43.5176 31.2249L40.4201 34.3224L42.5414 36.4438L45.6389 33.3462C47.7772 31.208 47.7772 27.7412 45.6389 25.603C43.5007 23.4647 40.0339 23.4647 37.8956 25.603L34.7981 28.7005L36.9194 30.8218L40.0169 27.7243C40.9836 26.7576 42.5509 26.7576 43.5176 27.7243C44.4843 28.691 44.4843 30.2582 43.5176 31.2249Z" fill="#324558"/>
<path d="M28.6037 34.8949L31.7008 31.7978L33.8221 33.9191L30.725 37.0162C29.7583 37.9829 29.7583 39.5502 30.725 40.5169C31.6917 41.4835 33.259 41.4835 34.2257 40.5169L37.3228 37.4198L39.4441 39.5411L36.347 42.6382C34.2087 44.7764 30.7419 44.7764 28.6037 42.6382C26.4654 40.4999 26.4654 37.0331 28.6037 34.8949Z" fill="#324558"/>
<path d="M34.4112 34.5082L37.5085 31.4109L39.8315 33.7339L36.7342 36.8312L34.4112 34.5082Z" fill="#324558"/>
</svg>
