<svg width="48" height="48" viewBox="0 0 48 48" fill="none" xmlns="http://www.w3.org/2000/svg">
<path fill-rule="evenodd" clip-rule="evenodd" d="M6 8C4.89543 8 4 8.89543 4 10V38C4 39.1046 4.89543 40 6 40H42C43.1046 40 44 39.1046 44 38V10C44 8.89543 43.1046 8 42 8H6ZM22 19C22 21.2091 20.2091 23 18 23C15.7909 23 14 21.2091 14 19C14 16.7909 15.7909 15 18 15C20.2091 15 22 16.7909 22 19ZM30 16H38V19H30V16ZM38 23H30V26H38V23ZM14 26C11.7909 26 10 27.7909 10 30V33H26V30C26 27.7909 24.2091 26 22 26H14Z" fill="#B6C2CD"/>
<path d="M18 23C20.2091 23 22 21.2091 22 19C22 16.7909 20.2091 15 18 15C15.7909 15 14 16.7909 14 19C14 21.2091 15.7909 23 18 23Z" fill="#324558"/>
<path d="M38 16H30V19H38V16Z" fill="#324558"/>
<path d="M38 23H30V26H38V23Z" fill="#324558"/>
<path d="M10 30C10 27.7909 11.7909 26 14 26H22C24.2091 26 26 27.7909 26 30V33H10V30Z" fill="#324558"/>
</svg>
