<svg width="48" height="48" viewBox="0 0 48 48" fill="none" xmlns="http://www.w3.org/2000/svg">
<path d="M13.6325 4.87759C12.3374 4.4459 11 5.40984 11 6.77495V18.0001H6C4.89543 18.0001 4 18.8955 4 20.0001V24.0001H44V20.0001C44 18.8955 43.1046 18.0001 42 18.0001H37V5.52531C37 4.23561 35.7973 3.28308 34.5419 3.57847L20 7.0001L13.6325 4.87759Z" fill="#B6C2CD"/>
<path fill-rule="evenodd" clip-rule="evenodd" d="M12.5 44C17.1944 44 21 40.1944 21 35.5C21 34.8718 20.9318 34.2595 20.8025 33.6701C21.7919 33.2366 22.871 33 24 33C25.129 33 26.2081 33.2366 27.1975 33.6701C27.0682 34.2595 27 34.8718 27 35.5C27 40.1944 30.8056 44 35.5 44C40.1944 44 44 40.1944 44 35.5C44 30.8056 40.1944 27 35.5 27C32.8679 27 30.5153 28.1963 28.9561 30.0749C27.4391 29.3849 25.763 29 24 29C22.237 29 20.5609 29.3849 19.0439 30.0749C17.4847 28.1963 15.1321 27 12.5 27C7.80558 27 4 30.8056 4 35.5C4 40.1944 7.80558 44 12.5 44ZM12.5 40C14.9853 40 17 37.9853 17 35.5C17 33.0147 14.9853 31 12.5 31C10.0147 31 8 33.0147 8 35.5C8 37.9853 10.0147 40 12.5 40ZM35.5 40C37.9853 40 40 37.9853 40 35.5C40 33.0147 37.9853 31 35.5 31C33.0147 31 31 33.0147 31 35.5C31 37.9853 33.0147 40 35.5 40Z" fill="#324558"/>
</svg>
