<svg width="48" height="48" viewBox="0 0 48 48" fill="none" xmlns="http://www.w3.org/2000/svg">
<path d="M10.8947 7C8.6856 7 6.89474 8.79086 6.89474 11V18C6.89474 20.2091 5.10387 22 2.89473 22H1V26H2.89473C5.10387 26 6.89474 27.7909 6.89474 30V37C6.89474 39.2091 8.6856 41 10.8947 41H15V37H10.8947V30C10.8947 27.6106 9.84723 25.4659 8.18638 24C9.84723 22.5341 10.8947 20.3894 10.8947 18V11H15V7H10.8947Z" fill="#324558"/>
<path d="M41.1053 11C41.1053 8.79086 39.3144 7 37.1053 7H33V11H37.1053V18C37.1053 20.3894 38.1528 22.5341 39.8136 24C38.1528 25.4659 37.1053 27.6106 37.1053 30V37H33V41H37.1053C39.3144 41 41.1053 39.2091 41.1053 37V30C41.1053 27.7909 42.8961 26 45.1053 26H47V22H45.1053C42.8961 22 41.1053 20.2091 41.1053 18V11Z" fill="#324558"/>
</svg>
