<svg width="48" height="48" viewBox="0 0 48 48" fill="none" xmlns="http://www.w3.org/2000/svg">
<path fill-rule="evenodd" clip-rule="evenodd" d="M24 44C35.0457 44 44 35.0457 44 24C44 12.9543 35.0457 4 24 4C12.9543 4 4 12.9543 4 24C4 35.0457 12.9543 44 24 44ZM24.8582 15H27.9641L23.141 33H20.0352L24.8582 15ZM15.9396 17.9393L18.0609 20.0607L14.1215 24L18.0609 27.9393L15.9396 30.0607L9.87891 24L15.9396 17.9393ZM32.0604 17.9393L29.9391 20.0607L33.8785 24L29.9391 27.9393L32.0604 30.0607L38.1211 24L32.0604 17.9393Z" fill="#B6C2CD"/>
<path d="M24.8582 15H27.9641L23.141 33H20.0352L24.8582 15Z" fill="#324558"/>
<path d="M15.9396 17.9393L18.0609 20.0607L14.1215 24L18.0609 27.9393L15.9396 30.0607L9.87891 24L15.9396 17.9393Z" fill="#324558"/>
<path d="M29.9391 20.0607L32.0604 17.9393L38.1211 24L32.0604 30.0607L29.9391 27.9393L33.8785 24L29.9391 20.0607Z" fill="#324558"/>
</svg>
