<svg width="48" height="48" viewBox="0 0 48 48" fill="none" xmlns="http://www.w3.org/2000/svg">
<path d="M25.6875 26.8008C25.8516 27.1211 25.9336 27.5156 25.9336 27.9844C25.9336 28.4375 25.8516 28.832 25.6875 29.168C25.5312 29.4961 25.3047 29.75 25.0078 29.9297C24.7188 30.1016 24.375 30.1875 23.9766 30.1875C23.5781 30.1875 23.2266 30.1016 22.9219 29.9297C22.625 29.75 22.3906 29.4961 22.2188 29.168C22.0469 28.832 21.9609 28.4375 21.9609 27.9844C21.9609 27.5156 22.043 27.1211 22.207 26.8008C22.3789 26.4727 22.6133 26.2227 22.9102 26.0508C23.2148 25.8789 23.5625 25.793 23.9531 25.793C24.3516 25.793 24.6992 25.8789 24.9961 26.0508C25.293 26.2227 25.5234 26.4727 25.6875 26.8008Z" fill="#B6C2CD"/>
<path d="M25.418 19.6641C25.543 19.9531 25.6055 20.3008 25.6055 20.707C25.6055 21.1133 25.543 21.4688 25.418 21.7734C25.3008 22.0781 25.1211 22.3164 24.8789 22.4883C24.6445 22.6602 24.3438 22.7461 23.9766 22.7461C23.6172 22.7461 23.3125 22.6602 23.0625 22.4883C22.8203 22.3164 22.6367 22.0781 22.5117 21.7734C22.3867 21.4688 22.3242 21.1133 22.3242 20.707C22.3242 20.293 22.3867 19.9414 22.5117 19.6523C22.6367 19.3555 22.8203 19.1289 23.0625 18.9727C23.3047 18.8164 23.6016 18.7383 23.9531 18.7383C24.3203 18.7383 24.625 18.8203 24.8672 18.9844C25.1094 19.1406 25.293 19.3672 25.418 19.6641Z" fill="#B6C2CD"/>
<path fill-rule="evenodd" clip-rule="evenodd" d="M24 44C35.0457 44 44 35.0457 44 24C44 12.9543 35.0457 4 24 4C12.9543 4 4 12.9543 4 24C4 35.0457 12.9543 44 24 44ZM29.1328 31.0312C29.6484 30.2969 29.9062 29.3867 29.9062 28.3008C29.9062 27.3086 29.6484 26.457 29.1328 25.7461C28.6638 25.0994 28.0364 24.5885 27.2506 24.2133C27.9141 23.8586 28.4439 23.4008 28.8398 22.8398C29.3164 22.168 29.5547 21.3867 29.5547 20.4961C29.5547 19.4492 29.3164 18.5703 28.8398 17.8594C28.3633 17.1484 27.7031 16.6094 26.8594 16.2422C26.0156 15.875 25.0469 15.6914 23.9531 15.6914C22.875 15.6914 21.9141 15.875 21.0703 16.2422C20.2266 16.6094 19.5625 17.1484 19.0781 17.8594C18.6016 18.5703 18.3633 19.4492 18.3633 20.4961C18.3633 21.3867 18.6016 22.168 19.0781 22.8398C19.4843 23.3966 20.0167 23.8518 20.6755 24.2054C20.3271 24.3734 20.0056 24.5705 19.7109 24.7969C19.1719 25.2109 18.75 25.7148 18.4453 26.3086C18.1484 26.8945 18 27.5586 18 28.3008C18 29.3867 18.2617 30.2969 18.7852 31.0312C19.3086 31.7656 20.0195 32.3164 20.918 32.6836C21.8242 33.0508 22.8438 33.2344 23.9766 33.2344C25.1172 33.2344 26.1328 33.0508 27.0234 32.6836C27.9219 32.3164 28.625 31.7656 29.1328 31.0312Z" fill="#B6C2CD"/>
<path d="M29.9062 28.3008C29.9062 29.3867 29.6484 30.2969 29.1328 31.0312C28.625 31.7656 27.9219 32.3164 27.0234 32.6836C26.1328 33.0508 25.1172 33.2344 23.9766 33.2344C22.8438 33.2344 21.8242 33.0508 20.918 32.6836C20.0195 32.3164 19.3086 31.7656 18.7852 31.0312C18.2617 30.2969 18 29.3867 18 28.3008C18 27.5586 18.1484 26.8945 18.4453 26.3086C18.75 25.7148 19.1719 25.2109 19.7109 24.7969C20.25 24.3828 20.8789 24.0664 21.5977 23.8477C22.3242 23.6289 23.1094 23.5195 23.9531 23.5195C25.0938 23.5195 26.1133 23.7148 27.0117 24.1055C27.9102 24.4883 28.6172 25.0352 29.1328 25.7461C29.6484 26.457 29.9062 27.3086 29.9062 28.3008ZM25.9336 27.9844C25.9336 27.5156 25.8516 27.1211 25.6875 26.8008C25.5234 26.4727 25.293 26.2227 24.9961 26.0508C24.6992 25.8789 24.3516 25.793 23.9531 25.793C23.5625 25.793 23.2148 25.8789 22.9102 26.0508C22.6133 26.2227 22.3789 26.4727 22.207 26.8008C22.043 27.1211 21.9609 27.5156 21.9609 27.9844C21.9609 28.4375 22.0469 28.832 22.2188 29.168C22.3906 29.4961 22.625 29.75 22.9219 29.9297C23.2266 30.1016 23.5781 30.1875 23.9766 30.1875C24.375 30.1875 24.7188 30.1016 25.0078 29.9297C25.3047 29.75 25.5312 29.4961 25.6875 29.168C25.8516 28.832 25.9336 28.4375 25.9336 27.9844ZM29.5547 20.4961C29.5547 21.3867 29.3164 22.168 28.8398 22.8398C28.3711 23.5039 27.7148 24.0234 26.8711 24.3984C26.0352 24.7656 25.0703 24.9492 23.9766 24.9492C22.8906 24.9492 21.9219 24.7656 21.0703 24.3984C20.2266 24.0234 19.5625 23.5039 19.0781 22.8398C18.6016 22.168 18.3633 21.3867 18.3633 20.4961C18.3633 19.4492 18.6016 18.5703 19.0781 17.8594C19.5625 17.1484 20.2266 16.6094 21.0703 16.2422C21.9141 15.875 22.875 15.6914 23.9531 15.6914C25.0469 15.6914 26.0156 15.875 26.8594 16.2422C27.7031 16.6094 28.3633 17.1484 28.8398 17.8594C29.3164 18.5703 29.5547 19.4492 29.5547 20.4961ZM25.6055 20.707C25.6055 20.3008 25.543 19.9531 25.418 19.6641C25.293 19.3672 25.1094 19.1406 24.8672 18.9844C24.625 18.8203 24.3203 18.7383 23.9531 18.7383C23.6016 18.7383 23.3047 18.8164 23.0625 18.9727C22.8203 19.1289 22.6367 19.3555 22.5117 19.6523C22.3867 19.9414 22.3242 20.293 22.3242 20.707C22.3242 21.1133 22.3867 21.4688 22.5117 21.7734C22.6367 22.0781 22.8203 22.3164 23.0625 22.4883C23.3125 22.6602 23.6172 22.7461 23.9766 22.7461C24.3438 22.7461 24.6445 22.6602 24.8789 22.4883C25.1211 22.3164 25.3008 22.0781 25.418 21.7734C25.543 21.4688 25.6055 21.1133 25.6055 20.707Z" fill="#324558"/>
</svg>
