<svg width="48" height="48" viewBox="0 0 48 48" fill="none" xmlns="http://www.w3.org/2000/svg">
<path fill-rule="evenodd" clip-rule="evenodd" d="M8 6C6.89543 6 6 6.89543 6 8V40C6 41.1046 6.89543 42 8 42H40C41.1046 42 42 41.1046 42 40V8C42 6.89543 41.1046 6 40 6H8ZM18.3401 24.6562L21.4807 25.3945C21.6292 25.1914 21.8675 24.9922 22.1956 24.7969C22.5237 24.6016 22.9729 24.5039 23.5432 24.5039C23.9729 24.5039 24.3401 24.5664 24.6448 24.6914C24.9573 24.8164 25.2112 25 25.4065 25.2422C25.6018 25.4766 25.7425 25.7617 25.8284 26.0977C25.9221 26.4336 25.969 26.8125 25.969 27.2344C25.969 27.6328 25.9378 28.0117 25.8753 28.3711C25.8128 28.7227 25.7073 29.0352 25.5589 29.3086C25.4104 29.582 25.2073 29.7969 24.9495 29.9531C24.6917 30.1094 24.3675 30.1875 23.9768 30.1875C23.594 30.1875 23.2542 30.1055 22.9573 29.9414C22.6682 29.7695 22.4378 29.5312 22.2659 29.2266C22.094 28.9219 21.9964 28.5625 21.9729 28.1484H18.0003C17.9925 28.9297 18.1526 29.6367 18.4807 30.2695C18.8167 30.8945 19.2698 31.4297 19.8401 31.875C20.4182 32.3125 21.0667 32.6484 21.7854 32.8828C22.5042 33.1172 23.2425 33.2344 24.0003 33.2344C25.0159 33.2344 25.8948 33.0781 26.637 32.7656C27.3792 32.4453 27.9925 32.0156 28.4768 31.4766C28.969 30.9297 29.3323 30.3164 29.5667 29.6367C29.8089 28.9492 29.93 28.2383 29.93 27.5039C29.93 26.5898 29.8128 25.7773 29.5784 25.0664C29.3518 24.3555 29.012 23.7578 28.5589 23.2734C28.1057 22.7812 27.5511 22.4102 26.8948 22.1602C26.2464 21.9023 25.5003 21.7734 24.6565 21.7734C24.1096 21.7734 23.6096 21.8516 23.1565 22.0078C22.7112 22.1562 22.3948 22.2852 22.2073 22.3945L22.594 19.0078H29.344V15.9375H19.3714L18.3401 24.6562Z" fill="#B6C2CD"/>
<path d="M21.4807 25.3945L18.3401 24.6562L19.3714 15.9375H29.344V19.0078H22.594L22.2073 22.3945C22.3948 22.2852 22.7112 22.1562 23.1565 22.0078C23.6096 21.8516 24.1096 21.7734 24.6565 21.7734C25.5003 21.7734 26.2464 21.9023 26.8948 22.1602C27.5511 22.4102 28.1057 22.7812 28.5589 23.2734C29.012 23.7578 29.3518 24.3555 29.5784 25.0664C29.8128 25.7773 29.93 26.5898 29.93 27.5039C29.93 28.2383 29.8089 28.9492 29.5667 29.6367C29.3323 30.3164 28.969 30.9297 28.4768 31.4766C27.9925 32.0156 27.3792 32.4453 26.637 32.7656C25.8948 33.0781 25.0159 33.2344 24.0003 33.2344C23.2425 33.2344 22.5042 33.1172 21.7854 32.8828C21.0667 32.6484 20.4182 32.3125 19.8401 31.875C19.2698 31.4297 18.8167 30.8945 18.4807 30.2695C18.1526 29.6367 17.9925 28.9297 18.0003 28.1484H21.9729C21.9964 28.5625 22.094 28.9219 22.2659 29.2266C22.4378 29.5312 22.6682 29.7695 22.9573 29.9414C23.2542 30.1055 23.594 30.1875 23.9768 30.1875C24.3675 30.1875 24.6917 30.1094 24.9495 29.9531C25.2073 29.7969 25.4104 29.582 25.5589 29.3086C25.7073 29.0352 25.8128 28.7227 25.8753 28.3711C25.9378 28.0117 25.969 27.6328 25.969 27.2344C25.969 26.8125 25.9221 26.4336 25.8284 26.0977C25.7425 25.7617 25.6018 25.4766 25.4065 25.2422C25.2112 25 24.9573 24.8164 24.6448 24.6914C24.3401 24.5664 23.9729 24.5039 23.5432 24.5039C22.9729 24.5039 22.5237 24.6016 22.1956 24.7969C21.8675 24.9922 21.6292 25.1914 21.4807 25.3945Z" fill="#324558"/>
</svg>
