<svg width="48" height="48" viewBox="0 0 48 48" fill="none" xmlns="http://www.w3.org/2000/svg">
<path d="M24.0742 21.0585L23.8164 21.4805L21.0039 26.332H24.0742V21.0585Z" fill="#B6C2CD"/>
<path fill-rule="evenodd" clip-rule="evenodd" d="M8 6C6.89543 6 6 6.89543 6 8V40C6 41.1046 6.89543 42 8 42H40C41.1046 42 42 41.1046 42 40V8C42 6.89543 41.1046 6 40 6H8ZM29.7461 29.3789V26.332H28.0234V15.9375H24.0742V15.9564L17.2305 26.9648L17.4648 29.3789H24.0742V33H28.0234V29.3789H29.7461Z" fill="#B6C2CD"/>
<path d="M29.7461 26.332V29.3789H17.4648L17.2305 26.9648L24.0859 15.9375H27.2031L23.8164 21.4805L21.0039 26.332H29.7461ZM28.0234 15.9375V33H24.0742V15.9375H28.0234Z" fill="#324558"/>
</svg>
