<svg width="48" height="48" viewBox="0 0 48 48" fill="none" xmlns="http://www.w3.org/2000/svg">
<path d="M23.3264 42.3818C23.7078 42.7318 24.2932 42.7329 24.6759 42.3843L26.9 40.3586L26.979 40.2862C27.6778 39.646 28.3605 39.0205 29.0259 38.4085C28.6579 37.9952 28.3113 37.5853 27.9896 37.1781C26.2897 35.0261 25 32.6036 25 29.6948C25 24.9482 28.6656 21 33.5 21C35.1173 21 36.6674 21.4636 38 22.2637C39.3326 21.4636 40.8827 21 42.5 21C42.7962 21 43.088 21.0148 43.3749 21.0437C43.7855 19.753 44 18.4437 44 17.0899C44 10.8796 39.16 6 33 6C29.52 6 26.18 7.63324 24 10.2142C21.82 7.63324 18.48 6 15 6C8.84 6 4 10.8796 4 17.0899C4 24.7055 10.7888 30.9119 21.0746 40.3152L21.1 40.3384L23.3264 42.3818Z" fill="#B6C2CD"/>
<path d="M38 43L36.55 41.6332C31.4 36.7978 28 33.6087 28 29.6948C28 26.5057 30.42 24 33.5 24C35.24 24 36.91 24.8387 38 26.164C39.09 24.8387 40.76 24 42.5 24C45.58 24 48 26.5057 48 29.6948C48 33.6087 44.6 36.7978 39.45 41.6436L38 43Z" fill="#324558"/>
</svg>
