<svg width="48" height="48" viewBox="0 0 48 48" fill="none" xmlns="http://www.w3.org/2000/svg">
<path d="M23.325 43.3781C23.7068 43.7298 24.2942 43.731 24.6774 43.3806L27.045 41.2158L27.1319 41.1359C25.7842 39.0875 25 36.6353 25 34C25 26.8203 30.8203 21 38 21C40.0779 21 42.042 21.4875 43.7841 22.3545C44.5781 20.5072 45 18.6422 45 16.6894C45 10.1433 39.918 5 33.45 5C29.796 5 26.289 6.72153 24 9.44196C21.711 6.72153 18.204 5 14.55 5C8.082 5 3 10.1433 3 16.6894C3 24.7166 10.1283 31.2585 20.9284 41.1701L20.955 41.1945L23.325 43.3781Z" fill="#B6C2CD"/>
<path fill-rule="evenodd" clip-rule="evenodd" d="M38 44C43.5228 44 48 39.5228 48 34C48 28.4772 43.5228 24 38 24C32.4772 24 28 28.4772 28 34C28 39.5228 32.4772 44 38 44ZM36.5 32.5V29H39.5V32.5H43V35.5H39.5V39H36.5V35.5H33V32.5H36.5Z" fill="#324558"/>
</svg>
