<svg width="48" height="48" viewBox="0 0 48 48" fill="none" xmlns="http://www.w3.org/2000/svg">
<path d="M17.5761 24.476H22.5481V19.746H17.5761V24.476Z" fill="#B6C2CD"/>
<path d="M25.3421 19.746V24.476H30.3361V19.746H25.3421Z" fill="#B6C2CD"/>
<path fill-rule="evenodd" clip-rule="evenodd" d="M8 6C6.89543 6 6 6.89543 6 8V40C6 41.1046 6.89543 42 8 42H40C41.1046 42 42 41.1046 42 40V8C42 6.89543 41.1046 6 40 6H8ZM14.9141 28.304V17.15H22.5481V13.322H25.3421V17.15H33.1081V28.194H30.3361V27.072H25.3421V33.98H22.5481V27.072H17.5761V28.304H14.9141Z" fill="#B6C2CD"/>
<path d="M14.9141 17.15V28.304H17.5761V19.746H30.3361V28.194H33.1081V17.15H14.9141ZM16.3001 24.476V27.072H31.8761V24.476H16.3001ZM22.5481 13.322V33.98H25.3421V13.322H22.5481Z" fill="#324558"/>
</svg>
