<svg width="48" height="48" viewBox="0 0 48 48" fill="none" xmlns="http://www.w3.org/2000/svg">
<path fill-rule="evenodd" clip-rule="evenodd" d="M23.2032 3.34599C23.7115 3.12523 24.2885 3.12523 24.7968 3.34599L40.7968 10.2955C41.5274 10.6128 42 11.3322 42 12.1287V22.5454C42 37.4849 29.7282 44.6502 24.3789 45.9176C24.1268 45.9774 23.8732 45.9774 23.6211 45.9176C18.2718 44.6502 6 37.4849 6 22.5454V12.1287C6 11.3322 6.47264 10.6128 7.20323 10.2955L23.2032 3.34599ZM21.375 32.8151L35.9074 18.421L33.0925 15.5791L21.375 27.1851L15.9074 21.7696L13.0925 24.6115L21.375 32.8151Z" fill="#B6C2CD"/>
<path fill-rule="evenodd" clip-rule="evenodd" d="M35.9076 18.421L21.3752 32.8151L13.0928 24.6115L15.9076 21.7696L21.3752 27.1851L33.0928 15.5791L35.9076 18.421Z" fill="#324558"/>
</svg>
