<svg width="48" height="48" viewBox="0 0 48 48" fill="none" xmlns="http://www.w3.org/2000/svg">
<path d="M24 45.9624V3.18042C23.7287 3.18042 23.4573 3.23561 23.2032 3.34599L7.20323 10.2955C6.47264 10.6128 6 11.3322 6 12.1287V22.5454C6 37.4849 18.2718 44.6502 23.6211 45.9176C23.7471 45.9475 23.8736 45.9624 24 45.9624Z" fill="#B6C2CD"/>
<path d="M24 45.9624C24.1264 45.9624 24.2529 45.9475 24.3789 45.9176C29.7282 44.6502 42 37.4849 42 22.5454V12.1287C42 11.3322 41.5274 10.6128 40.7968 10.2955L24.7968 3.34599C24.5427 3.23561 24.2713 3.18042 24 3.18042V45.9624Z" fill="#324558"/>
</svg>
