<svg width="48" height="48" viewBox="0 0 48 48" fill="none" xmlns="http://www.w3.org/2000/svg">
<path fill-rule="evenodd" clip-rule="evenodd" d="M23.2032 3.34623C23.7115 3.12548 24.2885 3.12548 24.7968 3.34623L40.7968 10.2957C41.5274 10.613 42 11.3325 42 12.129V22.5456C42 37.4852 29.7282 44.6505 24.3789 45.9179C24.1268 45.9776 23.8732 45.9776 23.6211 45.9179C18.2718 44.6505 6 37.4852 6 22.5456V12.129C6 11.3325 6.47264 10.613 7.20323 10.2957L23.2032 3.34623ZM29 18.0001C29 20.7615 26.7614 23.0001 24 23.0001C21.2386 23.0001 19 20.7615 19 18.0001C19 15.2387 21.2386 13.0001 24 13.0001C26.7614 13.0001 29 15.2387 29 18.0001ZM16 30.0001C16 27.791 17.7909 26.0001 20 26.0001H28C30.2091 26.0001 32 27.791 32 30.0001V32.0001H16V30.0001Z" fill="#B6C2CD"/>
<path d="M24 23C26.7614 23 29 20.7614 29 18C29 15.2386 26.7614 13 24 13C21.2386 13 19 15.2386 19 18C19 20.7614 21.2386 23 24 23Z" fill="#324558"/>
<path d="M20 26C17.7909 26 16 27.7909 16 30V32H32V30C32 27.7909 30.2091 26 28 26H20Z" fill="#324558"/>
</svg>
