<svg width="48" height="48" viewBox="0 0 48 48" fill="none" xmlns="http://www.w3.org/2000/svg">
<path fill-rule="evenodd" clip-rule="evenodd" d="M23.2032 3.34599C23.7115 3.12523 24.2885 3.12523 24.7968 3.34599L40.7968 10.2955C41.5274 10.6128 42 11.3322 42 12.1287V22.5454C42 37.4849 29.7282 44.6502 24.3789 45.9176C24.1268 45.9774 23.8732 45.9774 23.6211 45.9176C18.2718 44.6502 6 37.4849 6 22.5454V12.1287C6 11.3322 6.47264 10.6128 7.20323 10.2955L23.2032 3.34599ZM14.5858 30.5857L21.1715 24L14.5858 17.4143L17.4142 14.5859L23.9999 21.1716L30.5858 14.5857L33.4142 17.4141L26.8284 24L33.4142 30.5859L30.5858 33.4143L23.9999 26.8284L17.4142 33.4141L14.5858 30.5857Z" fill="#B6C2CD"/>
<path d="M21.1716 24L14.5859 30.5857L17.4144 33.4141L24.0001 26.8284L30.5859 33.4143L33.4144 30.5859L26.8285 24L33.4144 17.4141L30.5859 14.5857L24.0001 21.1716L17.4144 14.5859L14.5859 17.4143L21.1716 24Z" fill="#324558"/>
</svg>
