<svg width="48" height="48" viewBox="0 0 48 48" fill="none" xmlns="http://www.w3.org/2000/svg">
<path fill-rule="evenodd" clip-rule="evenodd" d="M23.2032 3.34599C23.7115 3.12523 24.2885 3.12523 24.7968 3.34599L40.7968 10.2955C41.5274 10.6128 42 11.3322 42 12.1287V22.5454C42 37.4849 29.7282 44.6502 24.3789 45.9176C24.1268 45.9774 23.8732 45.9774 23.6211 45.9176C18.2718 44.6502 6 37.4849 6 22.5454V12.1287C6 11.3322 6.47264 10.6128 7.20323 10.2955L23.2032 3.34599ZM27.0902 20.2544L24 13.9999L20.9098 20.2544L14 21.2573L19 26.1257L17.8197 32.9999L24 29.7544L30.1803 32.9999L29 26.1257L34 21.2573L27.0902 20.2544Z" fill="#B6C2CD"/>
<path d="M24 14L27.0902 20.2544L34 21.2574L29 26.1257L30.1803 33L24 29.7544L17.8197 33L19 26.1257L14 21.2574L20.9098 20.2544L24 14Z" fill="#324558"/>
</svg>
