<svg width="48" height="48" viewBox="0 0 48 48" fill="none" xmlns="http://www.w3.org/2000/svg">
<path d="M37 6C36.4477 6 36 6.44772 36 7V41C36 41.5523 36.4477 42 37 42H41C41.5523 42 42 41.5523 42 41V7C42 6.44772 41.5523 6 41 6H37Z" fill="#B6C2CD"/>
<path d="M27 14C26.4477 14 26 14.4477 26 15V41C26 41.5523 26.4477 42 27 42H31C31.5523 42 32 41.5523 32 41V15C32 14.4477 31.5523 14 31 14H27Z" fill="#B6C2CD"/>
<path d="M17 22C16.4477 22 16 22.4477 16 23V41C16 41.5523 16.4477 42 17 42H21C21.5523 42 22 41.5523 22 41V23C22 22.4477 21.5523 22 21 22H17Z" fill="#324558"/>
<path d="M7 30C6.44772 30 6 30.4477 6 31V41C6 41.5523 6.44772 42 7 42H11C11.5523 42 12 41.5523 12 41V31C12 30.4477 11.5523 30 11 30H7Z" fill="#324558"/>
</svg>
