<svg width="48" height="48" viewBox="0 0 48 48" fill="none" xmlns="http://www.w3.org/2000/svg">
<path fill-rule="evenodd" clip-rule="evenodd" d="M15.8503 15.6362C16.5027 15.5409 17.0662 15.1302 17.3566 14.5383L23.1022 2.82949C23.4683 2.08353 24.5317 2.08353 24.8977 2.82949L30.6434 14.5383C30.9338 15.1302 31.4973 15.5409 32.1496 15.6362L45.0043 17.5149C45.8228 17.6345 46.1504 18.6394 45.5598 19.2184L36.2473 28.348C35.7792 28.8069 35.5657 29.4661 35.6759 30.1124L37.8735 42.9991C38.013 43.8168 37.1536 44.4389 36.4203 44.0512L24.9349 37.9782C24.35 37.669 23.65 37.669 23.0651 37.9782L11.5796 44.0512C10.8463 44.4389 9.98699 43.8168 10.1264 42.9991L12.324 30.1124C12.4343 29.4661 12.2208 28.8069 11.7526 28.348L2.44019 19.2184C1.84955 18.6394 2.1772 17.6345 2.99564 17.5149L15.8503 15.6362ZM24 33.7463C24.9636 33.7463 25.9273 33.9782 26.8046 34.4421L32.9068 37.6687L31.7328 30.7848C31.4022 28.8461 32.0427 26.8685 33.4471 25.4917L38.4389 20.5979L31.5712 19.5942C29.6141 19.3082 27.9237 18.076 27.0524 16.3004L24 10.08V33.7463Z" fill="#324558"/>
</svg>
