<svg width="48" height="48" viewBox="0 0 48 48" fill="none" xmlns="http://www.w3.org/2000/svg">
<path fill-rule="evenodd" clip-rule="evenodd" d="M7 7C5.89543 7 5 7.89543 5 9V39C5 40.1046 5.89543 41 7 41H41C42.1046 41 43 40.1046 43 39V9C43 7.89543 42.1046 7 41 7H7ZM18.8788 24L12.9395 18.0607L15.0608 15.9393L23.1214 24L15.0608 32.0607L12.9395 29.9393L18.8788 24ZM26 29H36V32H26V29Z" fill="#B6C2CD"/>
<path d="M12.9395 18.0608L18.8788 24.0001L12.9395 29.9395L15.0608 32.0608L23.1214 24.0001L15.0608 15.9395L12.9395 18.0608Z" fill="#324558"/>
<path d="M36 29.0001H26V32.0001H36V29.0001Z" fill="#324558"/>
</svg>
