<svg width="48" height="48" viewBox="0 0 48 48" fill="none" xmlns="http://www.w3.org/2000/svg">
<path fill-rule="evenodd" clip-rule="evenodd" d="M24 44C35.0457 44 44 35.0457 44 24C44 12.9543 35.0457 4 24 4C12.9543 4 4 12.9543 4 24C4 35.0457 12.9543 44 24 44ZM18.8788 24L12.9395 18.0607L15.0608 15.9393L23.1214 24L15.0608 32.0607L12.9395 29.9393L18.8788 24ZM26 29H36V32H26V29Z" fill="#B6C2CD"/>
<path d="M12.9395 18.0608L18.8788 24.0001L12.9395 29.9395L15.0608 32.0608L23.1214 24.0001L15.0608 15.9395L12.9395 18.0608Z" fill="#324558"/>
<path d="M36 29.0001H26V32.0001H36V29.0001Z" fill="#324558"/>
</svg>
