<svg width="48" height="48" viewBox="0 0 48 48" fill="none" xmlns="http://www.w3.org/2000/svg">
<path fill-rule="evenodd" clip-rule="evenodd" d="M4.3915 12.3497C4.24579 11.4754 5.22526 10.8578 5.95136 11.366L13.9999 17L23.2073 5.03043C23.6076 4.51004 24.3922 4.51004 24.7925 5.03043L33.9999 17L42.0484 11.366C42.7745 10.8578 43.754 11.4754 43.6083 12.3497L40.2784 32.3288C40.1177 33.2932 39.2833 34 38.3056 34H9.69415C8.71647 34 7.88209 33.2932 7.72136 32.3288L4.3915 12.3497ZM28 24C28 26.2092 26.2091 28 24 28C21.7909 28 20 26.2092 20 24C20 21.7909 21.7909 20 24 20C26.2091 20 28 21.7909 28 24Z" fill="#324558"/>
<path d="M39 41V37H9V41H39Z" fill="#324558"/>
</svg>
