<svg width="48" height="48" viewBox="0 0 48 48" fill="none" xmlns="http://www.w3.org/2000/svg">
<path d="M4 6C4 4.89543 4.89543 4 6 4H42C43.1046 4 44 4.89543 44 6V16H40V8H8V16H4V6Z" fill="#324558"/>
<path fill-rule="evenodd" clip-rule="evenodd" d="M37 11H11V42.2104C11 42.9928 11.8578 43.4721 12.5241 43.0621L16.4518 40.645C17.0946 40.2495 17.9054 40.2495 18.5482 40.645L22.9518 43.355C23.5946 43.7505 24.4054 43.7505 25.0482 43.355L29.4518 40.645C30.0946 40.2495 30.9054 40.2495 31.5482 40.645L35.4759 43.0621C36.1422 43.4721 37 42.9928 37 42.2104V11ZM30 18H18V22H30V18ZM18 26H30V30H18V26Z" fill="#324558"/>
</svg>
