<svg width="48" height="48" viewBox="0 0 48 48" fill="none" xmlns="http://www.w3.org/2000/svg">
<path d="M4 8H7.26541L10.5295 30.8485C10.9518 33.8044 13.4833 36 16.4692 36H42V32H16.4692C15.4739 32 14.63 31.2681 14.4893 30.2828L11.1026 6.57574C10.8914 5.09779 9.62566 4 8.1327 4H4V8Z" fill="#324558"/>
<path d="M16 44C17.6569 44 19 42.6569 19 41C19 39.3431 17.6569 38 16 38C14.3431 38 13 39.3431 13 41C13 42.6569 14.3431 44 16 44Z" fill="#324558"/>
<path d="M41 41C41 42.6569 39.6569 44 38 44C36.3431 44 35 42.6569 35 41C35 39.3431 36.3431 38 38 38C39.6569 38 41 39.3431 41 41Z" fill="#324558"/>
<path d="M40.3216 27.3922C40.1346 28.3271 39.3138 29 38.3604 29H19.7656C18.7569 29 17.9061 28.2489 17.781 27.2481L15.6405 10.124C15.5659 9.52718 16.0313 9 16.6328 9H42.7802C43.4112 9 43.8845 9.57732 43.7608 10.1961L40.3216 27.3922Z" fill="#324558"/>
</svg>
