<svg width="48" height="48" viewBox="0 0 48 48" fill="none" xmlns="http://www.w3.org/2000/svg">
<path d="M7.26541 8H4V4H8.1327C9.62566 4 10.8914 5.09779 11.1026 6.57574L14.4893 30.2828C14.63 31.2681 15.4739 32 16.4692 32H42V36H16.4692C13.4833 36 10.9518 33.8044 10.5295 30.8485L7.26541 8Z" fill="#324558"/>
<path d="M19 41C19 42.6569 17.6569 44 16 44C14.3431 44 13 42.6569 13 41C13 39.3431 14.3431 38 16 38C17.6569 38 19 39.3431 19 41Z" fill="#324558"/>
<path d="M38 44C39.6569 44 41 42.6569 41 41C41 39.3431 39.6569 38 38 38C36.3431 38 35 39.3431 35 41C35 42.6569 36.3431 44 38 44Z" fill="#324558"/>
<path fill-rule="evenodd" clip-rule="evenodd" d="M38.3604 29C39.3138 29 40.1346 28.3271 40.3216 27.3922L43.7608 10.1961C43.8845 9.57732 43.4112 9 42.7802 9H16.6328C16.0313 9 15.5659 9.52718 15.6405 10.124L17.781 27.2481C17.9061 28.2489 18.7569 29 19.7656 29H38.3604ZM29 12L36 20H31V26H27V20H22L29 12Z" fill="#324558"/>
</svg>
