<svg width="48" height="48" viewBox="0 0 48 48" fill="none" xmlns="http://www.w3.org/2000/svg">
<path fill-rule="evenodd" clip-rule="evenodd" d="M6 8C4.89543 8 4 8.89543 4 10V18C7.31371 18 10 20.6863 10 24C10 27.3137 7.31371 30 4 30V38C4 39.1046 4.89543 40 6 40H42C43.1046 40 44 39.1046 44 38V30C40.6863 30 38 27.3137 38 24C38 20.6863 40.6863 18 44 18V10C44 8.89543 43.1046 8 42 8H6ZM26.1914 15.49L24 21.572L21.8086 15.49H17.6133L21.2109 23.8572H18.3516V26.0837H21.9023V27.2556H18.3516V29.4705H21.9023V32.5525H26.0039V29.4705H29.1914V27.2556H26.0039V26.0837H29.1914V23.8572H26.7891L30.375 15.49H26.1914Z" fill="#324558"/>
</svg>
