<svg width="48" height="48" viewBox="0 0 48 48" fill="none" xmlns="http://www.w3.org/2000/svg">
<path fill-rule="evenodd" clip-rule="evenodd" d="M4 10C4 8.89543 4.89543 8 6 8H42C43.1046 8 44 8.89543 44 10V23.0556C41.877 21.1554 39.0734 20 36 20C29.3726 20 24 25.3726 24 32C24 35.0734 25.1554 37.877 27.0556 40H6C4.89543 40 4 39.1046 4 38V30C7.31371 30 10 27.3137 10 24C10 20.6863 7.31371 18 4 18V10ZM17 14H14V34H17V14Z" fill="#324558"/>
<path fill-rule="evenodd" clip-rule="evenodd" d="M43.3362 37.2147C44.3838 35.7435 45 33.9437 45 32C45 27.0294 40.9706 23 36 23C31.0294 23 27 27.0294 27 32C27 36.9706 31.0294 41 36 41C37.9438 41 39.7436 40.3838 41.2149 39.3361L44.9395 43.0607L47.0608 40.9393L43.3362 37.2147ZM42 32C42 35.3137 39.3137 38 36 38C32.6863 38 30 35.3137 30 32C30 28.6863 32.6863 26 36 26C39.3137 26 42 28.6863 42 32Z" fill="#324558"/>
</svg>
