<svg width="48" height="48" viewBox="0 0 48 48" fill="none" xmlns="http://www.w3.org/2000/svg">
<path fill-rule="evenodd" clip-rule="evenodd" d="M4 10C4 8.89543 4.89543 8 6 8H42C43.1046 8 44 8.89543 44 10V22.4644C42.205 21.5289 40.1643 21 38 21C30.8203 21 25 26.8203 25 34C25 36.1643 25.5289 38.205 26.4644 40H6C4.89543 40 4 39.1046 4 38V30C7.31371 30 10 27.3137 10 24C10 20.6863 7.31371 18 4 18V10ZM17 14H14V34H17V14Z" fill="#324558"/>
<path fill-rule="evenodd" clip-rule="evenodd" d="M48 34C48 39.5228 43.5229 44 38 44C32.4772 44 28 39.5228 28 34C28 28.4772 32.4772 24 38 24C43.5229 24 48 28.4772 48 34ZM35 30H32V33H35V30ZM35 35H32V38H35V35ZM44 30H37V33H44V30ZM44 35H37V38H44V35Z" fill="#324558"/>
</svg>
