<svg width="48" height="48" viewBox="0 0 48 48" fill="none" xmlns="http://www.w3.org/2000/svg">
<path d="M6 8C4.89543 8 4 8.89543 4 10V14H44V10C44 8.89543 43.1046 8 42 8H6Z" fill="#324558"/>
<path fill-rule="evenodd" clip-rule="evenodd" d="M44 17H4V38C4 39.1046 4.89543 40 6 40H42C43.1046 40 44 39.1046 44 38V17ZM35 32C35 33.2682 34.5278 34.4261 33.7498 35.3075C34.3908 35.7445 35.1656 36 35.9999 36C38.2091 36 39.9999 34.2091 39.9999 32C39.9999 29.7909 38.2091 28 35.9999 28C35.1656 28 34.3908 28.2555 33.7498 28.6925C34.5278 29.5739 35 30.7318 35 32ZM32 32C32 34.2091 30.2091 36 28 36C25.7909 36 24 34.2091 24 32C24 29.7909 25.7909 28 28 28C30.2091 28 32 29.7909 32 32Z" fill="#324558"/>
</svg>
