<svg width="48" height="48" viewBox="0 0 48 48" fill="none" xmlns="http://www.w3.org/2000/svg">
<path fill-rule="evenodd" clip-rule="evenodd" d="M24 44C35.0457 44 44 35.0457 44 24C44 12.9543 35.0457 4 24 4C12.9543 4 4 12.9543 4 24C4 35.0457 12.9543 44 24 44ZM25.4866 26.6195C25.7913 26.9711 25.9436 27.4554 25.9436 28.0726C25.9436 28.6273 25.7913 29.0648 25.4866 29.3851C25.1819 29.6976 24.7639 29.8539 24.2327 29.8539C23.5061 29.8539 22.9436 29.6234 22.5452 29.1625C22.1545 28.6937 21.9592 28.014 21.9592 27.1234H18.01C18.01 28.7406 18.4631 30.0453 19.3694 31.0375C20.2834 32.0219 21.592 32.6039 23.2952 32.7836V35.1508H25.1584V32.7953C26.6194 32.6547 27.7717 32.1625 28.6155 31.3187C29.467 30.475 29.8928 29.3851 29.8928 28.0492C29.8928 27.2601 29.76 26.5844 29.4944 26.0219C29.2288 25.4594 28.8616 24.9672 28.3928 24.5453C27.9241 24.1234 27.3655 23.7484 26.717 23.4203C26.0764 23.0844 25.3928 22.764 24.6663 22.4594C23.9397 22.1469 23.4124 21.8226 23.0842 21.4867C22.7561 21.1429 22.592 20.682 22.592 20.1039C22.592 19.5336 22.7327 19.0883 23.0139 18.7679C23.303 18.4398 23.7053 18.2758 24.2209 18.2758C24.7991 18.2758 25.2444 18.4945 25.5569 18.932C25.8694 19.3695 26.0256 19.9945 26.0256 20.807H29.9866C29.9866 19.3226 29.5764 18.1 28.7561 17.139C27.9436 16.1703 26.8225 15.5804 25.3928 15.3695V12.85H23.5295V15.3226C22.0452 15.4633 20.8577 15.9633 19.967 16.8226C19.0764 17.6742 18.6311 18.7601 18.6311 20.0804C18.6311 20.8695 18.7561 21.5414 19.0061 22.0961C19.2561 22.6508 19.6155 23.139 20.0842 23.5609C20.553 23.9828 21.1116 24.3539 21.76 24.6742C22.4084 24.9945 23.1155 25.3109 23.8811 25.6234C24.6467 25.9359 25.1819 26.2679 25.4866 26.6195Z" fill="#324558"/>
</svg>
