<svg width="48" height="48" viewBox="0 0 48 48" fill="none" xmlns="http://www.w3.org/2000/svg">
<path fill-rule="evenodd" clip-rule="evenodd" d="M24.6999 2.6855C24.3111 2.3047 23.6892 2.3047 23.3004 2.6855L17.8048 8.06825C17.6204 8.24881 17.3734 8.35112 17.1154 8.35379L9.42319 8.43363C8.87903 8.43927 8.43927 8.87903 8.43363 9.42319L8.35379 17.1154C8.35112 17.3734 8.24881 17.6204 8.06826 17.8048L2.6855 23.3004C2.3047 23.6892 2.3047 24.3111 2.6855 24.6999L8.06825 30.1955C8.24881 30.3799 8.35112 30.6269 8.35379 30.8849L8.43363 38.5771C8.43927 39.1213 8.87903 39.561 9.42319 39.5667L17.1154 39.6465C17.3734 39.6492 17.6204 39.7515 17.8048 39.932L23.3004 45.3148C23.6892 45.6956 24.3111 45.6956 24.6999 45.3148L30.1955 39.932C30.3799 39.7515 30.6269 39.6492 30.8849 39.6465L38.5771 39.5667C39.1213 39.561 39.561 39.1213 39.5667 38.5771L39.6465 30.8849C39.6492 30.6269 39.7515 30.3799 39.932 30.1955L45.3148 24.6999C45.6956 24.3111 45.6956 23.6892 45.3148 23.3004L39.932 17.8048C39.7515 17.6204 39.6492 17.3734 39.6465 17.1154L39.5667 9.42319C39.561 8.87903 39.1213 8.43927 38.5771 8.43363L30.8849 8.35379C30.6269 8.35112 30.3799 8.24881 30.1955 8.06826L24.6999 2.6855ZM25.4767 26.6198C25.7814 26.9713 25.9337 27.4557 25.9337 28.0729C25.9337 28.6276 25.7814 29.0651 25.4767 29.3854C25.172 29.6979 24.754 29.8541 24.2228 29.8541C23.4962 29.8541 22.9337 29.6237 22.5353 29.1627C22.1447 28.694 21.9493 28.0143 21.9493 27.1237H18.0001C18.0001 28.7408 18.4532 30.0455 19.3595 31.0377C20.2736 32.0221 21.5822 32.6041 23.2853 32.7838V35.151H25.1486V32.7955C26.6095 32.6549 27.7618 32.1627 28.6056 31.319C29.4572 30.4752 29.8829 29.3854 29.8829 28.0494C29.8829 27.2604 29.7501 26.5846 29.4845 26.0221C29.2189 25.4596 28.8517 24.9674 28.3829 24.5455C27.9142 24.1237 27.3556 23.7487 26.7072 23.4205C26.0665 23.0846 25.3829 22.7643 24.6564 22.4596C23.9298 22.1471 23.4025 21.8229 23.0743 21.4869C22.7462 21.1432 22.5822 20.6823 22.5822 20.1041C22.5822 19.5338 22.7228 19.0885 23.004 18.7682C23.2931 18.4401 23.6954 18.276 24.2111 18.276C24.7892 18.276 25.2345 18.4948 25.547 18.9323C25.8595 19.3698 26.0157 19.9948 26.0157 20.8073H29.9767C29.9767 19.3229 29.5665 18.1002 28.7462 17.1393C27.9337 16.1705 26.8126 15.5807 25.3829 15.3698V12.8502H23.5197V15.3229C22.0353 15.4635 20.8478 15.9635 19.9572 16.8229C19.0665 17.6744 18.6212 18.7604 18.6212 20.0807C18.6212 20.8698 18.7462 21.5416 18.9962 22.0963C19.2462 22.651 19.6056 23.1393 20.0743 23.5612C20.5431 23.983 21.1017 24.3541 21.7501 24.6744C22.3986 24.9948 23.1056 25.3112 23.8712 25.6237C24.6368 25.9362 25.172 26.2682 25.4767 26.6198Z" fill="#324558"/>
</svg>
