<svg width="48" height="48" viewBox="0 0 48 48" fill="none" xmlns="http://www.w3.org/2000/svg">
<path fill-rule="evenodd" clip-rule="evenodd" d="M23.2032 3.34599C23.7115 3.12523 24.2885 3.12523 24.7968 3.34599L40.7968 10.2955C41.5274 10.6128 42 11.3322 42 12.1287V22.5454C42 37.4849 29.7282 44.6502 24.3789 45.9176C24.1268 45.9774 23.8732 45.9774 23.6211 45.9176C18.2718 44.6502 6 37.4849 6 22.5454V12.1287C6 11.3322 6.47264 10.6128 7.20323 10.2955L23.2032 3.34599ZM32.8881 22.6179C29.4781 20.7259 25.7821 17.5579 23.8901 14.8299C22.0861 17.5139 18.6981 20.5939 15.0461 22.6619C14.6941 22.0459 13.9461 21.0779 13.3521 20.5279C17.1801 18.5479 20.7441 15.0499 22.3941 12.2119H25.1441C27.5201 15.7319 31.1281 18.7239 34.6701 20.2639C34.0101 20.9459 33.3941 21.8259 32.8881 22.6179ZM25.5181 23.2339V18.5039H22.7021V30.0099H19.6001V22.3099H17.0041V30.0099H14.6061V32.3859H33.4161V30.0099H25.5181V25.5879H31.4141V23.2339H25.5181Z" fill="#324558"/>
</svg>
