<svg width="48" height="48" viewBox="0 0 48 48" fill="none" xmlns="http://www.w3.org/2000/svg">
<path fill-rule="evenodd" clip-rule="evenodd" d="M24.6999 2.6855C24.3111 2.3047 23.6892 2.3047 23.3004 2.6855L17.8048 8.06825C17.6204 8.24881 17.3734 8.35112 17.1154 8.35379L9.42319 8.43363C8.87903 8.43927 8.43927 8.87903 8.43363 9.42319L8.35379 17.1154C8.35112 17.3734 8.24881 17.6204 8.06826 17.8048L2.6855 23.3004C2.3047 23.6892 2.3047 24.3111 2.6855 24.6999L8.06825 30.1955C8.24881 30.3799 8.35112 30.6269 8.35379 30.8849L8.43363 38.5771C8.43927 39.1213 8.87903 39.561 9.42319 39.5667L17.1154 39.6465C17.3734 39.6492 17.6204 39.7515 17.8048 39.932L23.3004 45.3148C23.6892 45.6956 24.3111 45.6956 24.6999 45.3148L30.1955 39.932C30.3799 39.7515 30.6269 39.6492 30.8849 39.6465L38.5771 39.5667C39.1213 39.561 39.561 39.1213 39.5667 38.5771L39.6465 30.8849C39.6492 30.6269 39.7515 30.3799 39.932 30.1955L45.3148 24.6999C45.6956 24.3111 45.6956 23.6892 45.3148 23.3004L39.932 17.8048C39.7515 17.6204 39.6492 17.3734 39.6465 17.1154L39.5667 9.42319C39.561 8.87903 39.1213 8.43927 38.5771 8.43363L30.8849 8.35379C30.6269 8.35112 30.3799 8.24881 30.1955 8.06826L24.6999 2.6855ZM23.0478 26.9453H27.301V24.8034H23.0478V23.1701H27.301V21.0416H23.0887C23.2069 19.8725 23.5977 19.0113 24.2611 18.458C24.9245 17.8957 25.8833 17.6146 27.1374 17.6146C27.9462 17.6146 28.7051 17.7529 29.4139 18.0296L30.0001 14.4151C28.855 14.1385 27.8008 14.0001 26.8375 14.0001C24.3474 14.0001 22.3435 14.6204 20.8258 15.8609C19.3081 17.1014 18.463 18.8283 18.2903 21.0416H16.0001V23.1701H18.2494V24.8034H16.0001V26.9453H18.2494C18.3221 29.1496 19.0855 30.8765 20.5396 32.1259C22.0027 33.3754 23.9612 34.0001 26.4149 34.0001C27.5963 34.0001 28.7914 33.8662 30.0001 33.5985L29.4139 29.9975C28.7142 30.2652 27.9144 30.3991 27.0147 30.3991C25.6243 30.3991 24.6246 30.1179 24.0157 29.5556C23.4159 28.9935 23.0933 28.1233 23.0478 26.9453Z" fill="#324558"/>
</svg>
