<svg width="48" height="48" viewBox="0 0 48 48" fill="none" xmlns="http://www.w3.org/2000/svg">
<path d="M40 12C40 16.4183 32.8366 20 24 20C15.1634 20 8 16.4183 8 12C8 7.58172 15.1634 4 24 4C32.8366 4 40 7.58172 40 12Z" fill="#324558"/>
<path d="M24 35C28.732 35 33.1594 34.1668 36.5162 32.6982L36.576 32.6719C38.7205 33.863 40 35.3661 40 37C40 40.866 32.8366 44 24 44C15.1634 44 8 40.866 8 37C8 35.3661 9.27949 33.863 11.424 32.6719L11.4838 32.6982C14.8406 34.1668 19.268 35 24 35Z" fill="#324558"/>
<path d="M8 25C8 23.2948 9.39358 21.7321 11.7096 20.5178C15.0563 22.1041 19.3865 23 24 23C28.6135 23 32.9437 22.1041 36.2904 20.5178C38.6064 21.7321 40 23.2948 40 25C40 28.866 32.8366 32 24 32C15.1634 32 8 28.866 8 25Z" fill="#324558"/>
</svg>
