<svg width="48" height="48" viewBox="0 0 48 48" fill="none" xmlns="http://www.w3.org/2000/svg">
<path fill-rule="evenodd" clip-rule="evenodd" d="M24.6996 2.68525C24.3109 2.30446 23.6889 2.30446 23.3002 2.68525L17.8045 8.06801C17.6202 8.24856 17.3732 8.35087 17.1152 8.35355L9.42295 8.43338C8.87878 8.43903 8.43903 8.87878 8.43338 9.42295L8.35355 17.1152C8.35087 17.3732 8.24856 17.6202 8.06801 17.8045L2.68525 23.3002C2.30446 23.6889 2.30446 24.3109 2.68525 24.6996L8.06801 30.1953C8.24856 30.3796 8.35087 30.6266 8.35355 30.8846L8.43338 38.5768C8.43903 39.121 8.87878 39.5608 9.42295 39.5664L17.1152 39.6462C17.3732 39.6489 17.6202 39.7512 17.8045 39.9318L23.3002 45.3145C23.6889 45.6953 24.3109 45.6953 24.6996 45.3145L30.1953 39.9318C30.3796 39.7512 30.6266 39.6489 30.8846 39.6462L38.5768 39.5664C39.121 39.5608 39.5608 39.121 39.5664 38.5768L39.6462 30.8846C39.6489 30.6266 39.7512 30.3796 39.9318 30.1953L45.3145 24.6996C45.6953 24.3109 45.6953 23.6889 45.3145 23.3002L39.9318 17.8045C39.7512 17.6202 39.6489 17.3732 39.6462 17.1152L39.5664 9.42295C39.5608 8.87878 39.121 8.43903 38.5768 8.43338L30.8846 8.35355C30.6266 8.35087 30.3796 8.24856 30.1953 8.06801L24.6996 2.68525ZM27.0902 20.2543L24 13.9999L20.9098 20.2543L14 21.2573L19 26.1256L17.8197 32.9999L24 29.7543L30.1803 32.9999L29 26.1256L34 21.2573L27.0902 20.2543Z" fill="#324558"/>
</svg>
