<svg width="48" height="48" viewBox="0 0 48 48" fill="none" xmlns="http://www.w3.org/2000/svg">
<path fill-rule="evenodd" clip-rule="evenodd" d="M24 44C35.0457 44 44 35.0457 44 24C44 12.9543 35.0457 4 24 4C12.9543 4 4 12.9543 4 24C4 35.0457 12.9543 44 24 44ZM23.7985 27.7163L23.7335 26.2736H27.5812V22.9115H23.5905L23.4735 20.1163C23.4735 19.3863 23.6079 18.8496 23.8765 18.5061C24.1452 18.154 24.5005 17.978 24.9424 17.978C26.121 17.978 26.7103 18.6521 26.7103 20.0003H31C31 18.3086 30.454 16.9689 29.3621 15.9814C28.2789 14.9938 26.7666 14.5 24.8254 14.5C23.0142 14.5 21.5757 14.9981 20.5098 15.9942C19.4525 16.9818 18.9239 18.3558 18.9239 20.1163L19.0019 22.9115H17V26.2736H19.1059L19.1708 28.0125L19.1578 28.6953C19.1318 29.451 18.8719 29.8932 18.3779 30.022H17.039V33.5H30.935V30.022H23.0316C23.5429 29.4638 23.7985 28.6953 23.7985 27.7163Z" fill="#324558"/>
</svg>
