<svg width="48" height="48" viewBox="0 0 48 48" fill="none" xmlns="http://www.w3.org/2000/svg">
<path fill-rule="evenodd" clip-rule="evenodd" d="M24.6999 2.6855C24.3111 2.3047 23.6892 2.3047 23.3004 2.6855L17.8048 8.06825C17.6204 8.24881 17.3734 8.35112 17.1154 8.35379L9.42319 8.43363C8.87903 8.43927 8.43927 8.87903 8.43363 9.42319L8.35379 17.1154C8.35112 17.3734 8.24881 17.6204 8.06826 17.8048L2.6855 23.3004C2.3047 23.6892 2.3047 24.3111 2.6855 24.6999L8.06825 30.1955C8.24881 30.3799 8.35112 30.6269 8.35379 30.8849L8.43363 38.5771C8.43927 39.1213 8.87903 39.561 9.42319 39.5667L17.1154 39.6465C17.3734 39.6492 17.6204 39.7515 17.8048 39.932L23.3004 45.3148C23.6892 45.6956 24.3111 45.6956 24.6999 45.3148L30.1955 39.932C30.3799 39.7515 30.6269 39.6492 30.8849 39.6465L38.5771 39.5667C39.1213 39.561 39.561 39.1213 39.5667 38.5771L39.6465 30.8849C39.6492 30.6269 39.7515 30.3799 39.932 30.1955L45.3148 24.6999C45.6956 24.3111 45.6956 23.6892 45.3148 23.3004L39.932 17.8048C39.7515 17.6204 39.6492 17.3734 39.6465 17.1154L39.5667 9.42319C39.561 8.87903 39.1213 8.43927 38.5771 8.43363L30.8849 8.35379C30.6269 8.35112 30.3799 8.24881 30.1955 8.06826L24.6999 2.6855ZM23.7986 27.5208L23.7336 26.1541H27.5813V22.9689H23.5907L23.4737 20.3208C23.4737 19.6293 23.608 19.1208 23.8766 18.7954C24.1453 18.4618 24.5006 18.295 24.9426 18.295C26.1211 18.295 26.7104 18.9337 26.7104 20.211H31.0001C31.0001 18.6083 30.4541 17.3391 29.3622 16.4035C28.279 15.4679 26.7668 15.0001 24.8256 15.0001C23.0144 15.0001 21.5758 15.472 20.5099 16.4157C19.4526 17.3513 18.924 18.653 18.924 20.3208L19.002 22.9689H17.0001V26.1541H19.106L19.171 27.8014L19.158 28.4483C19.132 29.1642 18.872 29.5832 18.378 29.7052H17.0391V33.0001H30.9351V29.7052H23.0317C23.543 29.1764 23.7986 28.4483 23.7986 27.5208Z" fill="#324558"/>
</svg>
