<svg width="48" height="48" viewBox="0 0 48 48" fill="none" xmlns="http://www.w3.org/2000/svg">
<path d="M8 6C8 4.89543 8.89543 4 10 4H38C39.1046 4 40 4.89543 40 6V13.3817C37.1155 15.2039 33.8988 16.5479 30.4613 17.3024C29.4051 14.7756 26.9099 13 24 13C21.0901 13 18.5949 14.7756 17.5387 17.3024C14.1012 16.5479 10.8845 15.2039 8 13.3817V6Z" fill="#324558"/>
<path d="M30.8788 21.3038C34.1101 20.6398 37.1742 19.5175 40 18.0076V42C40 43.1046 39.1046 44 38 44H10C8.89543 44 8 43.1046 8 42V18.0076C10.8258 19.5175 13.8899 20.6398 17.1212 21.3038C17.7321 24.5467 20.5795 27 24 27C27.4205 27 30.2679 24.5467 30.8788 21.3038Z" fill="#324558"/>
<path d="M24 16L20 20L24 24L28 20L24 16Z" fill="#324558"/>
</svg>
