<svg width="48" height="48" viewBox="0 0 48 48" fill="none" xmlns="http://www.w3.org/2000/svg">
<path d="M10.9193 8.87028L13.0164 12.3655C15.8821 9.65915 19.7473 8 24 8C32.8366 8 40 15.1634 40 24H36.7662C35.9942 24 35.5154 24.8364 35.9006 25.5007L41.1637 34.2726C42.9646 31.2701 44 27.756 44 24C44 12.9543 35.0457 4 24 4C18.9986 4 14.426 5.83579 10.9193 8.87028Z" fill="#324558"/>
<path d="M6.83313 13.7326L6.83633 13.7272L12.0913 22.4855C12.4912 23.152 12.0111 24 11.2338 24L8 24C8 32.8366 15.1634 40 24 40C28.2528 40 32.118 38.3408 34.9837 35.6344L37.0808 39.1296C33.574 42.1642 29.0014 44 24 44C12.9543 44 4 35.0457 4 24C4 20.5482 4.87444 17.3007 6.41389 14.4668C6.54859 14.2188 6.68839 13.9741 6.83313 13.7326Z" fill="#324558"/>
<path d="M29.2031 26.5312V24.3047H26.806L30.3867 15.9375H26.1914L24.0115 22.0328L21.8086 15.9375H17.625L21.2149 24.3047H18.3633V26.5312H21.9141V27.7031H18.3633V29.918H21.9141V33H26.0156V29.918H29.2031V27.7031H26.0156V26.5312H29.2031Z" fill="#324558"/>
</svg>
