<svg width="48" height="48" viewBox="0 0 48 48" fill="none" xmlns="http://www.w3.org/2000/svg">
<path fill-rule="evenodd" clip-rule="evenodd" d="M8 6C6.89543 6 6 6.89543 6 8V40C6 41.1046 6.89543 42 8 42H40C41.1046 42 42 41.1046 42 40V8C42 6.89543 41.1046 6 40 6H8ZM26.1982 15.47L24.0068 21.552L21.8154 15.47H17.6201L21.2178 23.8372H18.3584V26.0637H21.9092V27.2356H18.3584V29.4504H21.9092V32.5325H26.0107V29.4504H29.1982V27.2356H26.0107V26.0637H29.1982V23.8372H26.7959L30.3818 15.47H26.1982Z" fill="#324558"/>
</svg>
