<svg width="48" height="48" viewBox="0 0 48 48" fill="none" xmlns="http://www.w3.org/2000/svg">
<path fill-rule="evenodd" clip-rule="evenodd" d="M27.4142 4.58579C27.7892 4.21071 28.2979 4 28.8284 4H42.9999C43.5522 4 43.9999 4.44772 43.9999 5V19.1716C43.9999 19.702 43.7892 20.2107 43.4142 20.5858L21.4142 42.5858C20.6331 43.3668 19.3668 43.3668 18.5857 42.5858L5.41415 29.4142C4.63311 28.6332 4.63311 27.3668 5.41416 26.5858L27.4142 4.58579ZM40 12C40 14.2091 38.2091 16 36 16C33.7909 16 32 14.2091 32 12C32 9.79086 33.7909 8 36 8C38.2091 8 40 9.79086 40 12Z" fill="#324558"/>
<path d="M33.5229 42.0782L27.7194 40.5232L39.0448 29.1978L35.9724 40.664C35.6865 41.731 34.5899 42.3641 33.5229 42.0782Z" fill="#324558"/>
</svg>
