<svg width="48" height="48" viewBox="0 0 48 48" fill="none" xmlns="http://www.w3.org/2000/svg">
<path fill-rule="evenodd" clip-rule="evenodd" d="M28.8284 4C28.2979 4 27.7892 4.21071 27.4142 4.58579L5.41416 26.5858C4.63311 27.3668 4.63311 28.6332 5.41415 29.4142L18.5857 42.5858C19.3668 43.3668 20.6331 43.3668 21.4142 42.5858L25.7207 38.2792C25.2538 36.9392 25 35.4992 25 34C25 26.8203 30.8203 21 38 21C39.4992 21 40.9392 21.2538 42.2792 21.7207L43.4142 20.5858C43.7892 20.2107 43.9999 19.702 43.9999 19.1716V5C43.9999 4.44772 43.5522 4 42.9999 4H28.8284ZM40 12C40 14.2091 38.2091 16 36 16C33.7909 16 32 14.2091 32 12C32 9.79086 33.7909 8 36 8C38.2091 8 40 9.79086 40 12Z" fill="#324558"/>
<path fill-rule="evenodd" clip-rule="evenodd" d="M48 34C48 39.5228 43.5228 44 38 44C32.4772 44 28 39.5228 28 34C28 28.4772 32.4772 24 38 24C43.5228 24 48 28.4772 48 34ZM33 32.5H43V35.5H33V32.5Z" fill="#324558"/>
</svg>
