<svg width="48" height="48" viewBox="0 0 48 48" fill="none" xmlns="http://www.w3.org/2000/svg">
<path d="M4 11.9566C4 10.9527 4.74423 10.1043 5.7396 9.97362L34.8698 6.14832C35.4687 6.06968 36 6.53582 36 7.13981V12.9999H4V11.9566Z" fill="#324558"/>
<path fill-rule="evenodd" clip-rule="evenodd" d="M4 15.9999V37.9999C4 39.1044 4.89543 39.9999 6 39.9999H42C43.1046 39.9999 44 39.1044 44 37.9999V15.9999H4ZM38 24.9999C38 26.6567 36.6569 27.9999 35 27.9999C33.3431 27.9999 32 26.6567 32 24.9999C32 23.343 33.3431 21.9999 35 21.9999C36.6569 21.9999 38 23.343 38 24.9999Z" fill="#324558"/>
</svg>
