<svg width="48" height="48" viewBox="0 0 48 48" fill="none" xmlns="http://www.w3.org/2000/svg">
<path d="M8 4H4V44H8V4Z" fill="#324558"/>
<path d="M12 8C11.4477 8 11 8.44772 11 9V15C11 15.5523 11.4477 16 12 16H27C27.5523 16 28 15.5523 28 15V9C28 8.44772 27.5523 8 27 8H12Z" fill="#324558"/>
<path d="M11 21C11 20.4477 11.4477 20 12 20H43C43.5523 20 44 20.4477 44 21V27C44 27.5523 43.5523 28 43 28H12C11.4477 28 11 27.5523 11 27V21Z" fill="#324558"/>
<path d="M12 32C11.4477 32 11 32.4477 11 33V39C11 39.5523 11.4477 40 12 40H35C35.5523 40 36 39.5523 36 39V33C36 32.4477 35.5523 32 35 32H12Z" fill="#324558"/>
</svg>
