<svg width="48" height="48" viewBox="0 0 48 48" fill="none" xmlns="http://www.w3.org/2000/svg">
<path d="M20 5C20 4.44771 20.4477 4 21 4H27C27.5523 4 28 4.44772 28 5V36C28 36.5523 27.5523 37 27 37H21C20.4477 37 20 36.5523 20 36V5Z" fill="#324558"/>
<path d="M9 21C8.44772 21 8 21.4477 8 22V36C8 36.5523 8.44772 37 9 37H15C15.5523 37 16 36.5523 16 36V22C16 21.4477 15.5523 21 15 21H9Z" fill="#324558"/>
<path d="M44 40H4V44H44V40Z" fill="#324558"/>
<path d="M33 13C32.4477 13 32 13.4477 32 14V36C32 36.5523 32.4477 37 33 37H39C39.5523 37 40 36.5523 40 36V14C40 13.4477 39.5523 13 39 13H33Z" fill="#324558"/>
</svg>
