<svg width="48" height="48" viewBox="0 0 48 48" fill="none" xmlns="http://www.w3.org/2000/svg">
<path d="M19.0059 26.0277C19.0255 25.7675 19.0964 25.3083 19.2596 24.6171C19.4464 23.8257 19.7209 22.8639 20.063 21.7799C20.7465 19.6141 21.666 17.0669 22.5968 14.6148C22.7584 14.1892 22.92 13.7673 23.0803 13.3516C23.4065 12.5063 24.5935 12.5063 24.9197 13.3516C25.08 13.7673 25.2416 14.1892 25.4032 14.6148C26.334 17.0669 27.2535 19.6141 27.937 21.7799C28.2791 22.8639 28.5536 23.8257 28.7404 24.6171C28.9036 25.3083 28.9745 25.7675 28.9941 26.0277C28.9974 26.0719 28.9993 26.1104 28.9998 26.1433C28.9999 26.1506 29 26.1577 29 26.1644C29 28.8351 26.7614 31.0002 24 31.0002C21.2386 31.0002 19 28.8351 19 26.1644C19 26.1644 19 26.1644 19 26.1644" fill="#324558"/>
<path d="M19 26.1644C19 26.1273 19.0019 26.0817 19.0059 26.0277L19 26.1644Z" fill="#324558"/>
<path fill-rule="evenodd" clip-rule="evenodd" d="M24 44C35.0457 44 44 35.0457 44 24C44 12.9543 35.0457 4 24 4C12.9543 4 4 12.9543 4 24C4 35.0457 12.9543 44 24 44ZM8 24C8 15.1634 15.1634 8 24 8C32.8366 8 40 15.1634 40 24H31.677C31.8737 24.8448 32 25.5973 32 26.1644C32 30.5856 28.3231 34.0002 24 34.0002C19.677 34.0002 16 30.5856 16 26.1644C16 25.5973 16.1263 24.8448 16.323 24H8Z" fill="#324558"/>
</svg>
