<svg width="48" height="48" viewBox="0 0 48 48" fill="none" xmlns="http://www.w3.org/2000/svg">
<path d="M22.5 4.05542C12.1549 4.82247 4 13.4589 4 24C4 35.0457 12.9543 44 24 44C28.9829 44 33.5403 42.1777 37.0419 39.1632L31.3585 33.4798C29.3264 35.0594 26.7731 36 24 36C17.3726 36 12 30.6274 12 24C12 17.8806 16.5805 12.831 22.5 12.0929V4.05542Z" fill="#324558"/>
<path d="M25.5 12.0929C30.9281 12.7697 35.2303 17.0719 35.9072 22.5H43.9446C43.2143 12.6501 35.3499 4.78575 25.5 4.05542V12.0929Z" fill="#324558"/>
<path d="M33.4798 31.3585C34.77 29.6987 35.6339 27.6911 35.9072 25.5H43.9446C43.6187 29.8951 41.8725 33.8949 39.1632 37.0419L33.4798 31.3585Z" fill="#324558"/>
</svg>
