<svg width="48" height="48" viewBox="0 0 48 48" fill="none" xmlns="http://www.w3.org/2000/svg">
<path fill-rule="evenodd" clip-rule="evenodd" d="M4 8C4 6.89543 4.89543 6 6 6H42C43.1046 6 44 6.89543 44 8V32C44 33.1046 43.1046 34 42 34L27 34V37.9821C27.2859 38.1063 29.2193 38.9034 31.9653 38.996C32.5305 39.015 33 39.4649 33 40.0304V41.9955H27V42H21V41.9955H15V40.0304C15 39.4649 15.4695 39.015 16.0347 38.996C18.7807 38.9034 20.7141 38.1063 21 37.9821V34L6 34C4.89543 34 4 33.1046 4 32V8ZM25.3092 24.016L20.0745 9.88232L15.4958 20.9934H8V23.9934H17.5042L19.9255 18.1178L24.6908 30.9841L29.9364 22.0666L30.9647 23.9934H40V20.9934H32.7641L30.0636 15.9335L25.3092 24.016Z" fill="#324558"/>
</svg>
