<svg width="48" height="48" viewBox="0 0 48 48" fill="none" xmlns="http://www.w3.org/2000/svg">
<path d="M22.5 4.05542C12.1549 4.82247 4 13.4589 4 24C4 34.5411 12.1549 43.1776 22.5 43.9446V29.811C19.9122 29.1449 18 26.7958 18 24C18 21.2043 19.9122 18.8551 22.5 18.189V4.05542Z" fill="#324558"/>
<path d="M43.9446 25.5C43.2143 35.3499 35.3499 43.2143 25.5 43.9446V29.811C27.6084 29.2683 29.2683 27.6084 29.811 25.5H43.9446Z" fill="#324558"/>
<path d="M43.9446 22.5H29.811C29.2683 20.3916 27.6084 18.7317 25.5 18.189V4.05542C35.3499 4.78575 43.2143 12.6501 43.9446 22.5Z" fill="#324558"/>
</svg>
