<svg width="48" height="48" viewBox="0 0 48 48" fill="none" xmlns="http://www.w3.org/2000/svg">
<path d="M24 11.9999L34 17.9999V29.9999L24 35.9999L13.5 29.9999L20.5 22.9999L24 11.9999Z" fill="#324558"/>
<path fill-rule="evenodd" clip-rule="evenodd" d="M23 3.57728C23.6188 3.22001 24.3812 3.22001 25 3.57728L41.1865 12.9226C41.8053 13.2798 42.1865 13.9401 42.1865 14.6546V33.3452C42.1865 34.0598 41.8053 34.72 41.1865 35.0773L25 44.4226C24.3812 44.7798 23.6188 44.7798 23 44.4226L6.81348 35.0773C6.19467 34.72 5.81348 34.0598 5.81348 33.3452V14.6546C5.81348 13.9401 6.19467 13.2798 6.81348 12.9226L23 3.57728ZM9.81348 15.8093L24 7.61873L38.1865 15.8093V32.1905L24 40.3811L9.81348 32.1905V15.8093Z" fill="#324558"/>
</svg>
