<svg width="48" height="48" viewBox="0 0 48 48" fill="none" xmlns="http://www.w3.org/2000/svg">
<path d="M8 24C8 32.8366 15.1634 40 24 40C32.8366 40 40 32.8366 40 24C40 15.1634 32.8366 8 24 8L23.9997 4C35.0454 4 44 12.9543 44 24C44 35.0457 35.0457 44 24 44C12.9543 44 4 35.0457 4 24C4 18.934 5.88355 14.3079 8.98855 10.7839C8.57715 11.2511 8.1869 11.7384 7.81934 12.2443L11.0547 14.5949C9.13341 17.2349 8 20.4851 8 24Z" fill="#324558"/>
<path d="M8.98855 10.7839C9.52971 10.1697 10.108 9.58895 10.7198 9.04522C10.1084 9.58812 9.53017 10.1687 8.98855 10.7839Z" fill="#324558"/>
<path d="M10.7198 9.04522C11.9879 7.91918 13.3984 6.95509 14.9199 6.17987C17.7246 4.7508 20.8269 4.00399 23.9744 4.00002C18.8877 4.00639 14.2459 5.91174 10.7198 9.04522Z" fill="#324558"/>
<path d="M15 24C15 28.9706 19.0294 33 24 33C28.9706 33 33 28.9706 33 24C33 19.0294 28.9706 15 24 15V11C31.1797 11 37 16.8203 37 24C37 31.1797 31.1797 37 24 37C16.8203 37 11 31.1797 11 24H15Z" fill="#324558"/>
<path fill-rule="evenodd" clip-rule="evenodd" d="M30 24C30 20.6863 27.3137 18 24 18C22.3431 18 20.8431 18.6716 19.7574 19.7574C18.6716 20.8431 18 22.3431 18 24C18 27.3137 20.6863 30 24 30C27.3137 30 30 27.3137 30 24ZM24 30C23.2121 30 22.4319 29.8448 21.7039 29.5433C20.9759 29.2417 20.3145 28.7998 19.7574 28.2426C19.2002 27.6855 18.7583 27.0241 18.4567 26.2961C18.1552 25.5681 18 24.7879 18 24C18 23.2121 18.1552 22.4319 18.4567 21.7039C18.7583 20.9759 19.2002 20.3145 19.7574 19.7574C20.3145 19.2002 20.9759 18.7583 21.7039 18.4567C22.4319 18.1552 23.2121 18 24 18V22C25.1046 22 26 22.8954 26 24C26 25.1046 25.1046 26 24 26V30Z" fill="#324558"/>
</svg>
