<svg width="48" height="48" viewBox="0 0 48 48" fill="none" xmlns="http://www.w3.org/2000/svg">
<path fill-rule="evenodd" clip-rule="evenodd" d="M6 6C4.89543 6 4 6.89543 4 8V32C4 33.1046 4.89543 34 6 34L21 34V37.9821C20.7141 38.1063 18.7807 38.9034 16.0347 38.996C15.4695 39.015 15 39.4649 15 40.0304V41.9955H21V42H27V41.9955H33V40.0304C33 39.4649 32.5305 39.015 31.9653 38.996C29.2193 38.9034 27.2859 38.1063 27 37.9821V34L42 34C43.1046 34 44 33.1046 44 32V8C44 6.89543 43.1046 6 42 6H6ZM19 15.8787L25.5 22.3787L30.9393 16.9393L27 13H37V23L33.0606 19.0606L25.5 26.6213L19 20.1213L13.0607 26.0606L10.9393 23.9393L19 15.8787Z" fill="#324558"/>
</svg>
