<svg width="48" height="48" viewBox="0 0 48 48" fill="none" xmlns="http://www.w3.org/2000/svg">
<path d="M7 5C6.44772 5 6 5.44772 6 6V42C6 42.5523 6.44772 43 7 43H11C11.5523 43 12 42.5523 12 42V6C12 5.44772 11.5523 5 11 5H7Z" fill="#324558"/>
<path d="M17 16C16.4477 16 16 16.4477 16 17V25C16 25.5523 16.4477 26 17 26H21C21.5523 26 22 25.5523 22 25V17C22 16.4477 21.5523 16 21 16H17Z" fill="#324558"/>
<path d="M26 6C26 5.44772 26.4477 5 27 5H31C31.5523 5 32 5.44772 32 6V20C32 20.5523 31.5523 21 31 21H27C26.4477 21 26 20.5523 26 20V6Z" fill="#324558"/>
<path d="M37 23C36.4477 23 36 23.4477 36 24V42C36 42.5523 36.4477 43 37 43H41C41.5523 43 42 42.5523 42 42V24C42 23.4477 41.5523 23 41 23H37Z" fill="#324558"/>
</svg>
