<svg width="48" height="48" viewBox="0 0 48 48" fill="none" xmlns="http://www.w3.org/2000/svg">
<path d="M11 23.3043C11 30.8682 16.8203 37 24 37C31.1797 37 37 30.8682 37 23.3043L33.7525 24.5253C30.4766 25.7569 26.8 25.2474 23.9825 23.1713C20.9147 20.9108 16.8521 20.5214 13.4108 22.1579L11 23.3043Z" fill="#324558"/>
<path fill-rule="evenodd" clip-rule="evenodd" d="M44 24C44 35.0457 35.0457 44 24 44C12.9543 44 4 35.0457 4 24C4 12.9543 12.9543 4 24 4C35.0457 4 44 12.9543 44 24ZM40 24C40 32.8366 32.8366 40 24 40C15.1634 40 8 32.8366 8 24C8 15.1634 15.1634 8 24 8C32.8366 8 40 15.1634 40 24Z" fill="#324558"/>
</svg>
