<svg width="48" height="48" viewBox="0 0 48 48" fill="none" xmlns="http://www.w3.org/2000/svg">
<path d="M36.9333 11.2001C37.4667 11.6001 37.4667 12.4001 36.9333 12.8001L27.6 19.8001C26.9408 20.2945 26 19.8242 26 19.0001V14H14C10.6863 14 8 16.6863 8 20V28H4V20C4 14.4772 8.47715 10 14 10H26V5.00011C26 4.17606 26.9408 3.70568 27.6 4.20011L36.9333 11.2001Z" fill="#324558"/>
<path d="M34 38C39.5228 38 44 33.5228 44 28V20H40V28C40 31.3137 37.3137 34 34 34H22.0003V29.0001C22.0003 28.1761 21.0596 27.7057 20.4003 28.2001L11.067 35.2001C10.5337 35.6001 10.5337 36.4001 11.067 36.8001L20.4003 43.8001C21.0596 44.2945 22.0003 43.8242 22.0003 43.0001V38H34Z" fill="#324558"/>
</svg>
