<svg width="48" height="48" viewBox="0 0 48 48" fill="none" xmlns="http://www.w3.org/2000/svg">
<path d="M33.7999 5.06675C33.3999 4.53341 32.5999 4.53341 32.1999 5.06675L25.1999 14.4001C24.7054 15.0593 25.1758 16.0001 25.9999 16.0001H31V42H35V16.0001H39.9999C40.8239 16.0001 41.2943 15.0593 40.7999 14.4001L33.7999 5.06675Z" fill="#324558"/>
<path d="M17 6H13V32H7.99986C7.17582 32 6.70544 32.9408 7.19986 33.6L14.1999 42.9333C14.5999 43.4667 15.3999 43.4667 15.7999 42.9333L22.7999 33.6C23.2943 32.9408 22.8239 32 21.9999 32H17V6Z" fill="#324558"/>
</svg>
