<svg width="48" height="48" viewBox="0 0 48 48" fill="none" xmlns="http://www.w3.org/2000/svg">
<path d="M5.06663 15.8001C4.53329 15.4001 4.53329 14.6001 5.06663 14.2001L14.4 7.20011C15.0592 6.70568 16 7.17606 16 8.00011V13H42V17H16V22.0001C16 22.8242 15.0592 23.2945 14.4 22.8001L5.06663 15.8001Z" fill="#324558"/>
<path d="M42.9333 33.8001C43.4667 33.4001 43.4667 32.6001 42.9333 32.2001L33.6 25.2001C32.9408 24.7057 32 25.1761 32 26.0001V31H6V35H32V40.0001C32 40.8242 32.9408 41.2945 33.6 40.8001L42.9333 33.8001Z" fill="#324558"/>
</svg>
