<svg width="48" height="48" viewBox="0 0 48 48" fill="none" xmlns="http://www.w3.org/2000/svg">
<path d="M32.4142 6H41C41.5523 6 42 6.44772 42 7V15.5858C42 16.4767 40.9229 16.9229 40.2929 16.2929L37.4142 13.4142L29.4142 21.4141L26.5858 18.5857L34.5858 10.5857L31.7071 7.70711C31.0772 7.07714 31.5233 6 32.4142 6Z" fill="#324558"/>
<path d="M15.5858 6H7C6.44771 6 6 6.44772 6 7V15.5858C6 16.4767 7.07714 16.9229 7.70711 16.2929L10.5858 13.4142L18.5858 21.4141L21.4142 18.5857L13.4142 10.5858L16.2929 7.70711C16.9229 7.07714 16.4767 6 15.5858 6Z" fill="#324558"/>
<path d="M34.5857 37.4142L31.7071 40.2928C31.0772 40.9228 31.5233 41.9999 32.4142 41.9999H41C41.5523 41.9999 42 41.5522 42 40.9999V32.4141C42 31.5232 40.9229 31.077 40.2929 31.707L37.4141 34.5858L29.4142 26.5859L26.5858 29.4143L34.5857 37.4142Z" fill="#324558"/>
<path d="M13.4143 37.4142L16.2929 40.2928C16.9229 40.9228 16.4767 41.9999 15.5858 41.9999H7C6.44771 41.9999 6 41.5522 6 40.9999V32.4141C6 31.5232 7.07714 31.077 7.70711 31.707L10.5859 34.5858L18.5858 26.5859L21.4142 29.4143L13.4143 37.4142Z" fill="#324558"/>
</svg>
