<svg width="48" height="48" viewBox="0 0 48 48" fill="none" xmlns="http://www.w3.org/2000/svg">
<path d="M12.5859 15.4142L3.58582 6.41412L6.41424 3.58569L15.4143 12.5858L18.2929 9.70711C18.9229 9.07714 20.0001 9.52331 20.0001 10.4142V19C20.0001 19.5523 19.5523 20 19.0001 20H10.4143C9.52337 20 9.0772 18.9229 9.70716 18.2929L12.5859 15.4142Z" fill="#324558"/>
<path d="M44.4143 6.41412L35.4142 15.4142L38.2929 18.2929C38.9229 18.9229 38.4767 20 37.5858 20H29.0001C28.4478 20 28.0001 19.5523 28.0001 19V10.4142C28.0001 9.52331 29.0772 9.07714 29.7072 9.70711L32.5858 12.5858L41.5859 3.58569L44.4143 6.41412Z" fill="#324558"/>
<path d="M10.4143 28H19.0001C19.5523 28 20.0001 28.4477 20.0001 29V37.5858C20.0001 38.4767 18.9229 38.9229 18.2929 38.2929L15.4143 35.4142L6.41424 44.4143L3.58582 41.5859L12.5859 32.5858L9.70716 29.7071C9.0772 29.0771 9.52337 28 10.4143 28Z" fill="#324558"/>
<path d="M37.5858 28H29.0001C28.4478 28 28.0001 28.4477 28.0001 29V37.5858C28.0001 38.4767 29.0772 38.9229 29.7072 38.2929L32.5858 35.4142L41.5859 44.4143L44.4143 41.5859L35.4142 32.5858L38.2929 29.7071C38.9229 29.0771 38.4767 28 37.5858 28Z" fill="#324558"/>
</svg>
