<svg width="48" height="48" viewBox="0 0 48 48" fill="none" xmlns="http://www.w3.org/2000/svg">
<path d="M42.9333 14.2001C43.4667 14.6001 43.4667 15.4001 42.9333 15.8001L33.6 22.8001C32.9408 23.2945 32 22.8242 32 22.0001V17H6V13H32V8.00011C32 7.17606 32.9408 6.70568 33.6 7.20011L42.9333 14.2001Z" fill="#324558"/>
<path d="M5.06699 32.2001C4.53366 32.6001 4.53366 33.4001 5.06699 33.8001L14.4003 40.8001C15.0596 41.2945 16.0003 40.8242 16.0003 40.0001V35H42V31H16.0003V26.0001C16.0003 25.1761 15.0596 24.7057 14.4003 25.2001L5.06699 32.2001Z" fill="#324558"/>
</svg>
