<svg width="48" height="48" viewBox="0 0 48 48" fill="none" xmlns="http://www.w3.org/2000/svg">
<path d="M14.2 5.06675C14.6 4.53341 15.4 4.53341 15.8 5.06675L22.8 14.4001C23.2944 15.0593 22.824 16.0001 22 16.0001H17V42H13V16.0001H7.99998C7.17594 16.0001 6.70556 15.0593 7.19998 14.4001L14.2 5.06675Z" fill="#324558"/>
<path d="M31 6H35V32H40C40.824 32 41.2944 32.9408 40.8 33.6L33.8 42.9333C33.4 43.4667 32.6 43.4667 32.2 42.9333L25.2 33.6C24.7056 32.9408 25.1759 32 26 32H31V6Z" fill="#324558"/>
</svg>
