<svg width="48" height="48" viewBox="0 0 48 48" fill="none" xmlns="http://www.w3.org/2000/svg">
<path fill-rule="evenodd" clip-rule="evenodd" d="M24 10C15.1634 10 8 17.1634 8 26V40H40V26C40 17.1634 32.8366 10 24 10ZM25.5 18V26.25H30L22.5 36V27.75H18L25.5 18Z" fill="#B6C2CD"/>
<path d="M26 7.10401V1H22V7.10401C22.6573 7.03525 23.3245 7 24 7C24.6755 7 25.3427 7.03525 26 7.10401Z" fill="#324558"/>
<path d="M41.9706 8.85788L37.8429 12.9856C36.9259 12.0106 35.9071 11.1325 34.8034 10.3682L39.1422 6.02945L41.9706 8.85788Z" fill="#324558"/>
<path d="M13.1966 10.3682C12.0929 11.1324 11.0741 12.0106 10.1571 12.9855L6.02942 8.85788L8.85785 6.02945L13.1966 10.3682Z" fill="#324558"/>
<path d="M43 40V44H5V40H43Z" fill="#324558"/>
<path d="M25.5 18V26.25H30L22.5 36V27.75H18L25.5 18Z" fill="#324558"/>
</svg>
