<svg width="48" height="48" viewBox="0 0 48 48" fill="none" xmlns="http://www.w3.org/2000/svg">
<path d="M43.9708 22.9134C43.8259 20.2075 43.1432 17.6444 42.0276 15.3292C42.0441 15.3635 42.0606 15.398 42.077 15.4325C40.1999 16.3741 38.8249 17.7357 38.1141 19.2527C38.7919 19.546 39.4431 19.8599 40.0639 20.1929C41.5147 20.9712 42.847 21.883 43.9708 22.9134Z" fill="#B6C2CD"/>
<path d="M40.5799 12.8116C36.9852 7.49505 30.9007 4 23.9998 4C13.3187 4 4.59315 12.373 4.02881 22.9134C5.15254 21.883 6.48485 20.9712 7.93572 20.1929C9.91276 19.1324 12.1975 18.266 14.6744 17.6396C13.6289 16.14 11.7908 14.9684 9.41611 14.2761C8.5921 14.0358 7.72105 13.8591 6.82383 13.7478C7.39881 12.7866 8.05219 11.8776 8.77513 11.0298C9.27839 11.1331 9.77284 11.2552 10.2558 11.396C13.3474 12.2973 16.1505 14.0271 17.6272 16.7154C17.6787 16.8091 17.7283 16.9035 17.7761 16.9987C19.7825 16.6732 21.8745 16.5 23.9998 16.5C24.5902 16.5 25.1781 16.5134 25.7622 16.5397C25.1818 13.7186 24.2852 11.2098 23.1682 9.16195C22.0014 7.02269 20.6615 5.4907 19.2634 4.56418C20.5275 4.2572 21.8387 4.07033 23.184 4.01636C24.1693 5.08172 25.0468 6.34096 25.8019 7.72539C27.193 10.2757 28.2482 13.374 28.8685 16.8038C31.125 17.0873 33.2913 17.5626 35.2968 18.2016C36.295 15.9034 38.1561 14.0465 40.5799 12.8116Z" fill="#B6C2CD"/>
<path d="M4.27007 27.2959C5.17596 25.7086 6.87716 24.1651 9.35382 22.8366C11.1681 21.8633 13.313 21.0588 15.6683 20.4838C15.7592 21.8328 15.4219 23.4525 14.4252 25.3819C13.124 27.9004 10.7272 30.8726 6.83401 34.2693C5.57247 32.1651 4.68688 29.8096 4.27007 27.2959Z" fill="#B6C2CD"/>
<path d="M8.57449 36.7312C12.7868 33.0916 15.5375 29.765 17.0905 26.7589C18.3721 24.2781 18.8552 21.9694 18.6297 19.9015C20.3561 19.6405 22.1592 19.5 23.9998 19.5C24.756 19.5 25.5059 19.5237 26.2468 19.5698C26.4121 20.9937 26.4998 22.4756 26.4998 24C26.4998 29.8736 25.198 35.1169 23.1682 38.8381C22.0014 40.9774 20.6615 42.5093 19.2634 43.4359C15.0045 42.4016 11.2787 40.0039 8.57449 36.7312Z" fill="#B6C2CD"/>
<path d="M23.184 43.9837C24.1693 42.9183 25.0468 41.6591 25.8019 40.2746C28.1153 36.0334 29.4998 30.2767 29.4998 24C29.4998 22.6007 29.431 21.2273 29.2984 19.8907C31.1559 20.1677 32.9254 20.5841 34.5582 21.1155C34.3514 23.5773 35.1315 26.2024 37.0157 28.7089C38.1758 30.2523 39.7522 31.7528 41.7791 33.1686C38.4547 39.6021 31.7408 44 23.9998 44C23.7265 44 23.4546 43.9945 23.184 43.9837Z" fill="#B6C2CD"/>
<path d="M42.9758 30.3347C43.3032 29.3534 43.5567 28.3383 43.7295 27.2959C42.8236 25.7086 41.1224 24.1651 38.6458 22.8366C38.2893 22.6454 37.92 22.4606 37.5389 22.2829C37.6253 23.7153 38.1927 25.2819 39.4137 26.9063C40.2652 28.039 41.4353 29.1965 42.9758 30.3347Z" fill="#B6C2CD"/>
<path d="M23.1684 38.8381C25.1982 35.1169 26.5 29.8736 26.5 24C26.5 22.4756 26.4123 20.9937 26.247 19.5698C25.5061 19.5237 24.7562 19.5 24 19.5C22.1594 19.5 20.3563 19.6405 18.6299 19.9015C18.8554 21.9694 18.3723 24.2781 17.0907 26.7589C15.5377 29.765 12.787 33.0916 8.5747 36.7312C7.93528 35.9573 7.35297 35.1345 6.83422 34.2693C10.7274 30.8726 13.1242 27.9004 14.4254 25.3819C15.4221 23.4525 15.7594 21.8328 15.6685 20.4838C13.3132 21.0588 11.1684 21.8633 9.35403 22.8366C6.87736 24.1651 5.17617 25.7086 4.27028 27.2959C4.0925 26.2237 4 25.1226 4 24C4 23.6354 4.00975 23.2731 4.02902 22.9134C5.15275 21.883 6.48506 20.9712 7.93593 20.1929C9.91297 19.1324 12.1977 18.266 14.6746 17.6396C13.6291 16.14 11.791 14.9684 9.41632 14.2761C8.59231 14.0358 7.72126 13.8591 6.82404 13.7478C7.39902 12.7866 8.0524 11.8776 8.77534 11.0298C9.27859 11.1331 9.77305 11.2552 10.256 11.396C13.3476 12.2973 16.1508 14.0271 17.6274 16.7154C17.6789 16.8091 17.7285 16.9035 17.7763 16.9987C19.7827 16.6732 21.8747 16.5 24 16.5C24.5904 16.5 25.1783 16.5134 25.7624 16.5397C25.182 13.7186 24.2854 11.2098 23.1684 9.16195C22.0016 7.02269 20.6617 5.4907 19.2636 4.56418C20.5277 4.2572 21.8389 4.07033 23.1842 4.01636C24.1695 5.08172 25.047 6.34096 25.8021 7.72539C27.1932 10.2757 28.2484 13.374 28.8687 16.8038C31.1252 17.0873 33.2915 17.5626 35.297 18.2016C36.2952 15.9034 38.1563 14.0465 40.5801 12.8116C41.1421 13.6428 41.6433 14.5186 42.0772 15.4325C40.2001 16.3741 38.8251 17.7357 38.1143 19.2527C38.7922 19.546 39.4433 19.8599 40.0641 20.1929C41.5149 20.9712 42.8473 21.883 43.971 22.9134C43.9902 23.2731 44 23.6354 44 24C44 25.1226 43.9075 26.2237 43.7297 27.2959C42.8238 25.7086 41.1226 24.1651 38.646 22.8366C38.2895 22.6454 37.9202 22.4606 37.5392 22.2829C37.6255 23.7153 38.1929 25.2819 39.4139 26.9063C40.2654 28.039 41.4356 29.1965 42.976 30.3347C42.6488 31.3154 42.2477 32.2622 41.7793 33.1686C39.7524 31.7528 38.176 30.2523 37.0159 28.7089C35.1317 26.2024 34.3516 23.5773 34.5584 21.1155C32.9256 20.5841 31.1561 20.1677 29.2986 19.8907C29.4312 21.2273 29.5 22.6007 29.5 24C29.5 30.2767 28.1155 36.0334 25.8021 40.2746C25.047 41.6591 24.1695 42.9183 23.1842 43.9837C21.8389 43.9297 20.5277 43.7428 19.2636 43.4359C20.6617 42.5093 22.0016 40.9774 23.1684 38.8381Z" fill="#324558"/>
</svg>
