<svg width="48" height="48" viewBox="0 0 48 48" fill="none" xmlns="http://www.w3.org/2000/svg">
<path fill-rule="evenodd" clip-rule="evenodd" d="M12 7C10.8954 7 10 7.89543 10 9V43C10 44.1046 10.8954 45 12 45H36C37.1046 45 38 44.1046 38 43V9C38 7.89543 37.1046 7 36 7H12ZM16 30.4384V24.5615L32 20.5615V26.4384L16 30.4384ZM16 34.5615L32 30.5615V38.9999H16V34.5615Z" fill="#B6C2CD"/>
<path d="M30 7V3H18V7H30Z" fill="#324558"/>
<path d="M16 30.4384V24.5615L32 20.5615V26.4384L16 30.4384Z" fill="#324558"/>
<path d="M16 34.5615L32 30.5615V38.9999H16V34.5615Z" fill="#324558"/>
</svg>
