<svg width="48" height="48" viewBox="0 0 48 48" fill="none" xmlns="http://www.w3.org/2000/svg">
<path d="M41.5 35L40.36 16H7.64L6.5 35L6.27 39.09C6.25 39.36 6.18 39.63 6.06 39.87L4 44H12.4L18 35L17 44H39.89C41.04 44 41.95 43.04 41.89 41.89L41.5 35Z" fill="#B6C2CD"/>
<path d="M24.0001 4C21.791 4 20.0001 5.79086 20.0001 8V10H9.88374C8.8257 10 7.9507 10.8241 7.88733 11.8802L7.64014 16H40.3601L40.113 11.8802C40.0496 10.8241 39.1746 10 38.1165 10H28.0001V8C28.0001 5.79086 26.2092 4 24.0001 4Z" fill="#324558"/>
</svg>
