<svg width="48" height="48" viewBox="0 0 48 48" fill="none" xmlns="http://www.w3.org/2000/svg">
<path d="M29.8994 40.7279L7.27197 18.1004L22.1212 3.25119C22.9023 2.47014 24.1686 2.47014 24.9496 3.25119L27.071 5.37258L24.9496 11.7365L31.3136 9.61522L36.0966 14.3982L31.1468 23.5905L40.3392 18.6408L44.7486 23.0502C45.5297 23.8312 45.5297 25.0976 44.7486 25.8786L29.8994 40.7279Z" fill="#B6C2CD"/>
<path fill-rule="evenodd" clip-rule="evenodd" d="M7.27219 18.1005L29.8996 40.7279L27.7783 42.8492C26.9972 43.6302 25.7309 43.6302 24.9499 42.8492L17.4074 35.3068L11.7792 42.4561C10.1337 44.5463 7.03195 44.7303 5.15087 42.8492C3.26979 40.9682 3.45377 37.8664 5.54403 36.2209L12.6933 30.5927L5.15087 23.0502C4.36982 22.2692 4.36982 21.0028 5.15087 20.2218L7.27219 18.1005ZM10.1006 37.8994C9.31957 37.1184 8.05324 37.1184 7.27219 37.8994C6.49114 38.6805 6.49114 39.9468 7.27219 40.7279C8.05324 41.5089 9.31957 41.5089 10.1006 40.7279C10.8817 39.9468 10.8817 38.6805 10.1006 37.8994Z" fill="#324558"/>
</svg>
