<svg width="48" height="48" viewBox="0 0 48 48" fill="none" xmlns="http://www.w3.org/2000/svg">
<path fill-rule="evenodd" clip-rule="evenodd" d="M13 4C12.4477 4 12 4.44772 12 5V8H8C6.89543 8 6 8.89543 6 10V40H4V44H26V10C26 8.89543 25.1046 8 24 8H20V5C20 4.44772 19.5523 4 19 4H13ZM12 17H20V20H12V17ZM12 24H20V27H12V24ZM12 31H20V34H12V31Z" fill="#B6C2CD"/>
<path d="M20 17H12V20H20V17Z" fill="#324558"/>
<path d="M20 24H12V27H20V24Z" fill="#324558"/>
<path d="M12 31H20V34H12V31Z" fill="#324558"/>
<path fill-rule="evenodd" clip-rule="evenodd" d="M34 18C29.5817 18 26 21.5817 26 26V44H44V40H42V26C42 21.5817 38.4183 18 34 18ZM34 29C35.6569 29 37 27.6569 37 26C37 24.3431 35.6569 23 34 23C32.3431 23 31 24.3431 31 26C31 27.6569 32.3431 29 34 29Z" fill="#324558"/>
</svg>
