<svg width="48" height="48" viewBox="0 0 48 48" fill="none" xmlns="http://www.w3.org/2000/svg">
<path fill-rule="evenodd" clip-rule="evenodd" d="M40.2633 7.73657C35.1865 2.65975 26.9553 2.65975 21.8785 7.73657L7.73633 21.8787C2.65951 26.9555 2.65951 35.1867 7.73633 40.2635C12.8131 45.3403 21.0443 45.3403 26.1211 40.2635L40.2633 26.1213C45.3401 21.0445 45.3401 12.8134 40.2633 7.73657ZM31.0709 31.0711L16.9288 16.929L9.85765 24C5.9524 27.9053 5.9524 34.2369 9.85765 38.1422C13.7629 42.0474 20.0946 42.0474 23.9998 38.1422L31.0709 31.0711Z" fill="#B6C2CD"/>
<path d="M16.9288 16.929L31.0709 31.0711L23.9998 38.1422C20.0946 42.0474 13.7629 42.0474 9.85765 38.1422C5.9524 34.2369 5.9524 27.9053 9.85765 24L16.9288 16.929Z" fill="#324558"/>
</svg>
