<svg width="48" height="48" viewBox="0 0 48 48" fill="none" xmlns="http://www.w3.org/2000/svg">
<path fill-rule="evenodd" clip-rule="evenodd" d="M2 18C2 19.8673 3.02357 21.4955 4.54023 22.3541L6.16946 35.4852V34.1194L6.43335 36.2462C6.55763 37.2479 7.40879 38 8.41813 38L39.7617 38C40.7665 37.9948 41.6123 37.2445 41.7361 36.2463L43.4598 22.3541C44.9764 21.4955 46 19.8673 46 18H2ZM31.1695 27H17.1695L18.1695 30H30.1695L31.1695 27ZM8.16946 23H13.6695L15.1695 27H12.1695C9.96033 27 8.16946 25.2091 8.16946 23ZM40 23H34.5L33 27H36C38.2091 27 40 25.2091 40 23Z" fill="#B6C2CD"/>
<path d="M12.2122 11.4118C12.4704 10.5726 13.2457 10 14.1238 10H34.2152C35.0932 10 35.8685 10.5726 36.1267 11.4118L38.1539 18H42.3389L39.9498 10.2355C39.1752 7.71794 36.8492 6 34.2152 6H14.1238C11.4897 6 9.16371 7.71794 8.38908 10.2355L6 18H10.1851L12.2122 11.4118Z" fill="#324558"/>
<path d="M6.16946 34.1194V41C6.16946 41.5523 6.61718 42 7.16946 42H13.1695C13.7217 42 14.1695 41.5523 14.1695 41V38H8.41813C7.40879 38 6.55763 37.2479 6.43335 36.2462L6.16946 34.1194Z" fill="#324558"/>
<path d="M34.1695 41V38H39.9208C40.9301 38 41.7813 37.2479 41.9056 36.2462L42.1695 34.1194V41C42.1695 41.5523 41.7217 42 41.1695 42H35.1695C34.6172 42 34.1695 41.5523 34.1695 41Z" fill="#324558"/>
<path d="M17.1695 27H31.1695L30.1695 30H18.1695L17.1695 27Z" fill="#324558"/>
<path d="M8.16946 23H13.6695L15.1695 27H12.1695C9.96033 27 8.16946 25.2091 8.16946 23Z" fill="#324558"/>
<path d="M34.5 23H40C40 25.2091 38.2091 27 36 27H33L34.5 23Z" fill="#324558"/>
</svg>
