<svg width="48" height="48" viewBox="0 0 48 48" fill="none" xmlns="http://www.w3.org/2000/svg">
<path d="M21.9198 16.2637L27.577 10.6065C30.3106 7.87286 34.7428 7.87286 37.4765 10.6065C40.2101 13.3402 40.2101 17.7724 37.4765 20.506L31.8193 26.1632L34.6477 28.9916L40.3049 23.3344C44.6007 19.0387 44.6007 12.0739 40.3049 7.7781C36.0091 3.48233 29.0443 3.48233 24.7485 7.7781L19.0913 13.4353L21.9198 16.2637Z" fill="#B6C2CD"/>
<path d="M16.2629 21.9206L13.4345 19.0921L7.77798 24.7487C3.48221 29.0444 3.48221 36.0092 7.77798 40.305C12.0737 44.6008 19.0386 44.6008 23.3343 40.305L28.9908 34.6485L26.1624 31.8201L20.5059 37.4766C17.7722 40.2103 13.3401 40.2103 10.6064 37.4766C7.87273 34.7429 7.87273 30.3108 10.6064 27.5771L16.2629 21.9206Z" fill="#B6C2CD"/>
<path d="M15.5146 29.6573L29.6568 15.5151L32.4852 18.3436L18.3431 32.4857L15.5146 29.6573Z" fill="#324558"/>
</svg>
