<svg width="48" height="48" viewBox="0 0 48 48" fill="none" xmlns="http://www.w3.org/2000/svg">
<path d="M24 15.5152L28.2431 11.2721C30.5862 8.92898 34.3852 8.92898 36.7283 11.2721C39.0715 13.6153 39.0715 17.4143 36.7283 19.7574L32.4853 24.0005L35.3137 26.8289L39.5568 22.5858C43.462 18.6806 43.462 12.3489 39.5568 8.4437C35.6515 4.53846 29.3199 4.53846 25.4146 8.4437L21.1715 12.6868L24 15.5152Z" fill="#B6C2CD"/>
<path d="M15.5147 24.0005L12.6863 21.1721L8.44407 25.4143C4.53883 29.3195 4.53883 35.6512 8.44407 39.5564C12.3493 43.4616 18.681 43.4616 22.5862 39.5564L26.8284 35.3142L24 32.4858L19.7578 36.728C17.4146 39.0711 13.6156 39.0711 11.2725 36.728C8.92935 34.3848 8.92935 30.5858 11.2725 28.2427L15.5147 24.0005Z" fill="#B6C2CD"/>
<path d="M17.4403 10.7922L15.8874 4.99667L18.7851 4.22021L20.338 10.0158L17.4403 10.7922Z" fill="#324558"/>
<path d="M12.8786 15.0001L7.22179 9.34329L9.34311 7.22197L15 12.8788L12.8786 15.0001Z" fill="#324558"/>
<path d="M10.0153 20.3382L4.21973 18.7853L4.99618 15.8875L10.7917 17.4404L10.0153 20.3382Z" fill="#324558"/>
<path d="M37.2074 30.5638L43.003 32.1167L43.7794 29.2189L37.9839 27.666L37.2074 30.5638Z" fill="#324558"/>
<path d="M29.214 43.7843L27.6611 37.9888L30.5589 37.2123L32.1118 43.0079L29.214 43.7843Z" fill="#324558"/>
<path d="M38.6562 40.7821L32.9994 35.1252L35.1207 33.0039L40.7775 38.6607L38.6562 40.7821Z" fill="#324558"/>
</svg>
