<svg width="48" height="48" viewBox="0 0 48 48" fill="none" xmlns="http://www.w3.org/2000/svg">
<path d="M40.2634 23.2928L34.2523 29.3039L31.4239 26.4755L37.435 20.4644C40.1686 17.7307 40.1686 13.2986 37.435 10.5649C34.7013 7.83123 30.2691 7.83123 27.5355 10.5649L21.5244 16.576L18.6959 13.7476L24.707 7.73647C29.0028 3.44071 35.9676 3.44071 40.2634 7.73647C44.5592 12.0322 44.5592 18.9971 40.2634 23.2928Z" fill="#B6C2CD"/>
<path d="M7.73647 24.707C3.44071 29.0028 3.44071 35.9676 7.73647 40.2634C12.0322 44.5592 18.9971 44.5592 23.2928 40.2634L29.3026 34.2537L26.4741 31.4252L20.4644 37.435C17.7307 40.1686 13.2986 40.1686 10.5649 37.435C7.83123 34.7013 7.83123 30.2691 10.5649 27.5355L16.5746 21.5257L13.7462 18.6973L7.73647 24.707Z" fill="#B6C2CD"/>
<path d="M8.79718 8.09155L5.96875 10.92L20.1103 25.0616L15.5147 29.6572L18.3431 32.4856L22.9388 27.89L37.0814 42.0327L39.9099 39.2043L8.79718 8.09155Z" fill="#324558"/>
<path d="M25.0601 20.1118L27.8885 22.9403L32.4853 18.3435L29.6568 15.5151L25.0601 20.1118Z" fill="#324558"/>
</svg>
