<svg width="48" height="48" viewBox="0 0 48 48" fill="none" xmlns="http://www.w3.org/2000/svg">
<path d="M24 11C20.6863 11 18 8.31372 18 5H12.5562C11.8409 5 11.18 5.38208 10.823 6.00195L3 19.5857L10.2746 23.7961L11.6889 21.3403L10.3682 41.936C10.3313 42.5122 10.7887 43 11.3662 43H24V11Z" fill="#B6C2CD"/>
<path d="M30 5C30 8.31371 27.3137 11 24 11V43H36.6338C37.2113 43 37.6687 42.5123 37.6318 41.936L36.3111 21.3404L37.7254 23.7962L45 19.5857L37.177 6.00188C36.82 5.38202 36.1592 5 35.4439 5H30Z" fill="#324558"/>
</svg>
