<svg width="48" height="48" viewBox="0 0 48 48" fill="none" xmlns="http://www.w3.org/2000/svg">
<path d="M4 8C4 6.89543 4.89543 6 6 6H42C43.1046 6 44 6.89543 44 8V32C44 33.1046 43.1046 34 42 34H6C4.89543 34 4 33.1046 4 32V8Z" fill="#B6C2CD"/>
<path d="M21 34H27V37.9821C27.2859 38.1063 29.2193 38.9034 31.9653 38.996C32.5305 39.015 33 39.4649 33 40.0304V41.9955H27V42H21V41.9955H15V40.0304C15 39.4649 15.4695 39.015 16.0347 38.996C18.7807 38.9034 20.7141 38.1063 21 37.9821V34Z" fill="#324558"/>
</svg>
