<svg width="48" height="48" viewBox="0 0 48 48" fill="none" xmlns="http://www.w3.org/2000/svg">
<path fill-rule="evenodd" clip-rule="evenodd" d="M6 28C4.89543 28 4 28.8954 4 30V42C4 43.1046 4.89543 44 6 44H42C43.1046 44 44 43.1046 44 42V30C44 28.8954 43.1046 28 42 28H6ZM10 34H14V38H10V34ZM22 34H18V38H22V34ZM38 34H30V38H38V34Z" fill="#B6C2CD"/>
<path d="M36.7016 10.2689C33.7771 6.45733 29.1755 4 24 4C18.8245 4 14.2229 6.45733 11.2983 10.2689L14.1597 13.1303C16.3291 10.0285 19.9277 8 24 8C28.0723 8 31.6709 10.0285 33.8403 13.1303L36.7016 10.2689Z" fill="#324558"/>
<path d="M32.3995 14.5711C30.6178 11.8202 27.5215 10 24 10C20.4786 10 17.3822 11.8202 15.6006 14.5711L18.5395 17.51C19.4853 15.4391 21.5746 14 24 14C26.4254 14 28.5147 15.4391 29.4606 17.51L32.3995 14.5711Z" fill="#324558"/>
<path d="M22 18H26V28H22V18Z" fill="#324558"/>
<path d="M14 34H10V38H14V34Z" fill="#324558"/>
<path d="M22 34H18V38H22V34Z" fill="#324558"/>
<path d="M30 34H38V38H30V34Z" fill="#324558"/>
</svg>
