<svg width="48" height="48" viewBox="0 0 48 48" fill="none" xmlns="http://www.w3.org/2000/svg">
<path fill-rule="evenodd" clip-rule="evenodd" d="M11.8621 22C11.1436 22 10.4803 22.3854 10.1245 23.0096L5 32V42C5 43.1046 5.89543 44 7 44H41C42.1046 44 43 43.1046 43 42V32L37.8755 23.0096C37.5197 22.3854 36.8564 22 36.1379 22H11.8621ZM9 36H39V40H9V36Z" fill="#B6C2CD"/>
<path d="M37.1624 10.4963C34.1318 6.54647 29.3633 4 24.0001 4C18.6368 4 13.8683 6.54647 10.8376 10.4963L13.8028 13.4614C16.0509 10.2472 19.78 8.14513 24 8.14513C28.2201 8.14513 31.9492 10.2472 34.1973 13.4615L37.1624 10.4963Z" fill="#324558"/>
<path d="M32.7042 14.9545C30.8579 12.1039 27.6493 10.2177 24.0001 10.2177C20.3509 10.2177 17.1423 12.1039 15.296 14.9545L18.3415 18C19.3216 15.854 21.4867 14.3627 24.0001 14.3627C26.5135 14.3627 28.6785 15.854 29.6587 18L32.7042 14.9545Z" fill="#324558"/>
<path d="M22 17H26V22H22V17Z" fill="#324558"/>
<path d="M39 36H9V40H39V36Z" fill="#324558"/>
</svg>
