<svg width="48" height="48" viewBox="0 0 48 48" fill="none" xmlns="http://www.w3.org/2000/svg">
<path fill-rule="evenodd" clip-rule="evenodd" d="M10 6H38L42 10V38L38 42H10L6 38L6 10L10 6ZM10 10H13V13H10V10ZM18 10H21V13H18V10ZM18 18H30V30H18V18ZM27 10H30V13H27V10ZM35 10H38V13H35V10ZM10 18H13V21H10V18ZM35 18H38V21H35V18ZM10 27H13V30H10V27ZM35 27H38V30H35V27ZM10 35H13V38H10V35ZM18 35H21V38H18V35ZM27 35H30V38H27V35ZM35 35H38V38H35V35Z" fill="#B6C2CD"/>
<path d="M10 10H13V13H10V10Z" fill="#324558"/>
<path d="M18 10H21V13H18V10Z" fill="#324558"/>
<path d="M30 18H18V30H30V18Z" fill="#324558"/>
<path d="M27 10H30V13H27V10Z" fill="#324558"/>
<path d="M38 10H35V13H38V10Z" fill="#324558"/>
<path d="M10 18H13V21H10V18Z" fill="#324558"/>
<path d="M38 18H35V21H38V18Z" fill="#324558"/>
<path d="M10 27H13V30H10V27Z" fill="#324558"/>
<path d="M38 27H35V30H38V27Z" fill="#324558"/>
<path d="M10 35H13V38H10V35Z" fill="#324558"/>
<path d="M21 35H18V38H21V35Z" fill="#324558"/>
<path d="M27 35H30V38H27V35Z" fill="#324558"/>
<path d="M38 35H35V38H38V35Z" fill="#324558"/>
</svg>
