<svg width="48" height="48" viewBox="0 0 48 48" fill="none" xmlns="http://www.w3.org/2000/svg">
<path fill-rule="evenodd" clip-rule="evenodd" d="M14 6C9.58172 6 6 9.58172 6 14V34C6 38.4183 9.58172 42 14 42H34C38.4183 42 42 38.4183 42 34V14C42 9.58172 38.4183 6 34 6H14ZM20 17C20 18.6569 18.6569 20 17 20C15.3431 20 14 18.6569 14 17C14 15.3431 15.3431 14 17 14C18.6569 14 20 15.3431 20 17ZM20 31C20 32.6569 18.6569 34 17 34C15.3431 34 14 32.6569 14 31C14 29.3431 15.3431 28 17 28C18.6569 28 20 29.3431 20 31ZM34 17C34 18.6569 32.6569 20 31 20C29.3431 20 28 18.6569 28 17C28 15.3431 29.3431 14 31 14C32.6569 14 34 15.3431 34 17ZM27 24C27 25.6569 25.6569 27 24 27C22.3431 27 21 25.6569 21 24C21 22.3431 22.3431 21 24 21C25.6569 21 27 22.3431 27 24ZM34 31C34 32.6569 32.6569 34 31 34C29.3431 34 28 32.6569 28 31C28 29.3431 29.3431 28 31 28C32.6569 28 34 29.3431 34 31Z" fill="#B6C2CD"/>
<path d="M20 17C20 18.6569 18.6569 20 17 20C15.3431 20 14 18.6569 14 17C14 15.3431 15.3431 14 17 14C18.6569 14 20 15.3431 20 17Z" fill="#324558"/>
<path d="M20 31C20 32.6569 18.6569 34 17 34C15.3431 34 14 32.6569 14 31C14 29.3431 15.3431 28 17 28C18.6569 28 20 29.3431 20 31Z" fill="#324558"/>
<path d="M31 20C32.6569 20 34 18.6569 34 17C34 15.3431 32.6569 14 31 14C29.3431 14 28 15.3431 28 17C28 18.6569 29.3431 20 31 20Z" fill="#324558"/>
<path d="M27 24C27 25.6569 25.6569 27 24 27C22.3431 27 21 25.6569 21 24C21 22.3431 22.3431 21 24 21C25.6569 21 27 22.3431 27 24Z" fill="#324558"/>
<path d="M31 34C32.6569 34 34 32.6569 34 31C34 29.3431 32.6569 28 31 28C29.3431 28 28 29.3431 28 31C28 32.6569 29.3431 34 31 34Z" fill="#324558"/>
</svg>
