<svg width="48" height="48" viewBox="0 0 48 48" fill="none" xmlns="http://www.w3.org/2000/svg">
<path fill-rule="evenodd" clip-rule="evenodd" d="M12.1085 6C11.4189 6 10.778 6.35524 10.4125 6.94L6 14V40C6 41.1046 6.89543 42 8 42H40C41.1046 42 42 41.1046 42 40V14L37.5875 6.94C37.222 6.35524 36.5811 6 35.8915 6H12.1085ZM38 18H10V26H38V18ZM38 30H10V38H38V30Z" fill="#B6C2CD"/>
<path fill-rule="evenodd" clip-rule="evenodd" d="M10 18H38V26H10V18ZM12 20H16V24H12V20ZM18 20H22V24H18V20Z" fill="#324558"/>
<path fill-rule="evenodd" clip-rule="evenodd" d="M10 30H38V38H10V30ZM12 32H16V36H12V32ZM18 32H22V36H18V32Z" fill="#324558"/>
</svg>
