<svg width="48" height="48" viewBox="0 0 48 48" fill="none" xmlns="http://www.w3.org/2000/svg">
<path fill-rule="evenodd" clip-rule="evenodd" d="M2.29048 23.3091C3.66084 20.2409 10.0051 8 23.9999 8C37.9947 8 44.339 20.2409 45.7093 23.3091C45.9065 23.7506 45.9065 24.2494 45.7093 24.6909C44.3389 27.7591 37.9947 40 23.9999 40C10.0051 40 3.66084 27.7591 2.29048 24.6909C2.09328 24.2494 2.09328 23.7506 2.29048 23.3091ZM14.9999 24C14.9999 19.0294 19.0293 15 23.9999 15C28.9704 15 32.9999 19.0294 32.9999 24C32.9999 28.9706 28.9704 33 23.9999 33C19.0293 33 14.9999 28.9706 14.9999 24Z" fill="#B6C2CD"/>
<path d="M24 15C19.0294 15 15 19.0294 15 24C15 28.9706 19.0294 33 24 33C28.9706 33 33 28.9706 33 24C33 19.0294 28.9706 15 24 15Z" fill="#324558"/>
</svg>
