<svg width="48" height="48" viewBox="0 0 48 48" fill="none" xmlns="http://www.w3.org/2000/svg">
<path fill-rule="evenodd" clip-rule="evenodd" d="M45.5667 24.6909C44.8443 26.3084 42.7394 30.4754 38.8598 34.0542L14.7623 9.95667C17.3447 8.76339 20.3624 8 23.8573 8C37.8521 8 44.1964 20.2409 45.5667 23.3091C45.7639 23.7506 45.7639 24.2494 45.5667 24.6909ZM32.3393 27.391C32.7653 26.3445 33 25.1996 33 24C33 19.0294 28.9706 15 24 15C22.8004 15 21.6556 15.2347 20.609 15.6607L32.3393 27.391Z" fill="#B6C2CD"/>
<path d="M8.92764 13.8789C5.00158 17.4724 2.87487 21.6815 2.1479 23.3091C1.9507 23.7506 1.9507 24.2494 2.1479 24.6909C3.51827 27.7591 9.8625 40 23.8573 40C27.3953 40 30.4444 39.2177 33.0477 37.9989L27.3889 32.3402C26.3429 32.7656 25.1988 33 24 33C19.0295 33 15 28.9706 15 24C15 22.8012 15.2344 21.6571 15.6599 20.6111L8.92764 13.8789Z" fill="#B6C2CD"/>
<path d="M8.79718 8.09155L5.96875 10.92L15.6599 20.6111C15.2344 21.6571 15 22.8012 15 24C15 28.9706 19.0295 33 24 33C25.1988 33 26.3429 32.7656 27.3889 32.3402L37.0814 42.0327L39.9099 39.2043L8.79718 8.09155Z" fill="#324558"/>
<path d="M33 24C33 25.1996 32.7653 26.3445 32.3393 27.391L20.609 15.6607C21.6556 15.2347 22.8004 15 24 15C28.9706 15 33 19.0294 33 24Z" fill="#324558"/>
</svg>
