<svg width="48" height="48" viewBox="0 0 48 48" fill="none" xmlns="http://www.w3.org/2000/svg">
<path fill-rule="evenodd" clip-rule="evenodd" d="M6 8C6 6.89543 6.89543 6 8 6H40C41.1046 6 42 6.89543 42 8V40C42 41.1046 41.1046 42 40 42H8C6.89543 42 6 41.1046 6 40V8ZM22.8955 35.9496C21.9525 34.7879 21.2144 33.3116 20.9659 31.7443C20.8212 30.8314 20.7833 29.9526 20.8819 29.1266C19.5854 28.3359 18.6123 27.0668 18.2078 25.5645C17.6583 25.6249 16.9918 25.8265 16.1919 26.234C15.2044 26.737 14.266 27.5439 13.6178 28.4232C13.4298 28.6782 13.2782 28.922 13.1588 29.1511C14.9364 32.8855 18.5867 35.5564 22.8955 35.9496ZM14.8296 23.5611C13.8316 24.0695 12.8926 24.7756 12.1037 25.5849C12.0353 25.0662 12 24.5371 12 23.9998C12 20.8045 13.2488 17.9009 15.285 15.7505C15.8121 15.5189 16.307 15.4907 16.8321 15.6451C17.4105 15.8153 18.1129 16.2356 18.9293 17.052C19.7458 17.8685 20.1661 18.5708 20.3362 19.1492C20.3443 19.1767 20.3519 19.2042 20.359 19.2315C19.2928 20.0473 18.5082 21.2129 18.1765 22.5569C17.0743 22.6264 15.9515 22.9896 14.8296 23.5611ZM21.0506 14.9307C20.3285 14.2086 19.5655 13.6159 18.7584 13.202C20.3421 12.4318 22.1206 11.9998 24 11.9998C25.7266 11.9998 27.3681 12.3644 28.8517 13.021L28.8383 13.0337C29.308 13.5278 29.5241 14.0466 29.5523 14.6376C29.5822 15.2659 29.4028 16.0882 28.8659 17.142C28.3826 18.0908 27.8808 18.6949 27.4018 19.0577C26.4352 18.3906 25.2632 18 24 18C23.7071 18 23.4192 18.021 23.1376 18.0616C22.7534 16.9393 22.0182 15.8983 21.0506 14.9307ZM31.5388 18.5042C32.0448 17.5109 32.3875 16.5168 32.5077 15.537C34.6661 17.7068 36 20.6975 36 23.9998C36 24.0653 35.9994 24.1307 35.9984 24.196C35.6553 24.5231 35.2177 24.8413 34.7037 25.1046C33.7616 25.5872 32.7133 25.8077 31.7626 25.657C30.9704 25.5314 30.3609 25.3355 29.8975 25.0997C29.9635 24.7432 29.998 24.3756 29.998 24C29.998 23.0392 29.7723 22.1311 29.3709 21.326C30.2448 20.618 30.9559 19.6485 31.5388 18.5042ZM35.9968 24.276C35.9974 24.2494 35.9979 24.2227 35.9984 24.196L35.9968 24.276ZM31.2937 28.6201C32.6844 28.8406 34.062 28.6099 35.2675 28.1376C33.9481 31.7293 30.9603 34.5153 27.2434 35.5563C26.7063 35.4144 25.9917 34.9635 25.3182 34.172C24.6111 33.341 24.0906 32.2947 23.9291 31.2755C23.853 30.7956 23.8222 30.3715 23.8277 29.9976C23.8849 29.9992 23.9423 30 24 30C25.8625 30 27.5268 29.1508 28.627 27.8182C29.4195 28.2074 30.3193 28.4656 31.2937 28.6201ZM24 26.9998C25.6568 26.9998 27 25.6566 27 23.9998C27 22.3429 25.6568 20.9998 24 20.9998C22.3431 20.9998 21 22.3429 21 23.9998C21 25.6566 22.3431 26.9998 24 26.9998ZM11 13C12.1046 13 13 12.1046 13 11C13 9.89543 12.1046 9 11 9C9.89543 9 9 9.89543 9 11C9 12.1046 9.89543 13 11 13ZM37 13C38.1046 13 39 12.1046 39 11C39 9.89543 38.1046 9 37 9C35.8954 9 35 9.89543 35 11C35 12.1046 35.8954 13 37 13ZM13 37C13 38.1046 12.1046 39 11 39C9.89543 39 9 38.1046 9 37C9 35.8954 9.89543 35 11 35C12.1046 35 13 35.8954 13 37ZM37 39C38.1046 39 39 38.1046 39 37C39 35.8954 38.1046 35 37 35C35.8954 35 35 35.8954 35 37C35 38.1046 35.8954 39 37 39ZM35.2718 28.1258L35.2675 28.1376L35.2718 28.1258Z" fill="#B6C2CD"/>
<path d="M13 11C13 12.1046 12.1046 13 11 13C9.89543 13 9 12.1046 9 11C9 9.89543 9.89543 9 11 9C12.1046 9 13 9.89543 13 11Z" fill="#324558"/>
<path d="M39 11C39 12.1046 38.1046 13 37 13C35.8954 13 35 12.1046 35 11C35 9.89543 35.8954 9 37 9C38.1046 9 39 9.89543 39 11Z" fill="#324558"/>
<path d="M13 37C13 38.1046 12.1046 39 11 39C9.89543 39 9 38.1046 9 37C9 35.8954 9.89543 35 11 35C12.1046 35 13 35.8954 13 37Z" fill="#324558"/>
<path d="M39 37C39 38.1046 38.1046 39 37 39C35.8954 39 35 38.1046 35 37C35 35.8954 35.8954 35 37 35C38.1046 35 39 35.8954 39 37Z" fill="#324558"/>
<path d="M35.9984 24.196C35.9994 24.1307 36 24.0653 36 23.9998C36 20.686 34.6568 17.686 32.4852 15.5145C32.4927 15.522 32.5002 15.5295 32.5077 15.537C32.3875 16.5168 32.0448 17.5109 31.5388 18.5042C30.9559 19.6485 30.2448 20.618 29.3709 21.326C29.7723 22.1311 29.998 23.0392 29.998 24C29.998 24.3756 29.9635 24.7432 29.8975 25.0997C30.3609 25.3355 30.9704 25.5314 31.7626 25.657C32.7133 25.8077 33.7616 25.5872 34.7037 25.1046C35.2177 24.8413 35.6553 24.5231 35.9984 24.196Z" fill="#324558"/>
<path d="M35.2718 28.1258C35.2704 28.1297 35.2689 28.1336 35.2675 28.1376C34.062 28.6099 32.6844 28.8406 31.2937 28.6201C30.3193 28.4656 29.4195 28.2074 28.627 27.8182C27.5268 29.1508 25.8625 30 24 30C23.9423 30 23.8849 29.9992 23.8277 29.9976C23.8222 30.3715 23.853 30.7956 23.9291 31.2755C24.0906 32.2947 24.6111 33.341 25.3182 34.172C25.9917 34.9635 26.7063 35.4144 27.2434 35.5563C30.9644 34.5141 33.9546 31.7232 35.2718 28.1258Z" fill="#324558"/>
<path d="M22.8955 35.9496C21.9525 34.7879 21.2144 33.3116 20.9659 31.7443C20.8212 30.8314 20.7833 29.9526 20.8819 29.1266C19.5854 28.3359 18.6123 27.0668 18.2078 25.5645C17.6583 25.6249 16.9918 25.8265 16.1919 26.234C15.2044 26.737 14.266 27.5439 13.6178 28.4232C13.4298 28.6782 13.2782 28.922 13.1588 29.1511C14.9364 32.8855 18.5867 35.5564 22.8955 35.9496Z" fill="#324558"/>
<path d="M12.1037 25.5849C12.0353 25.0662 12 24.5371 12 23.9998C12 20.8045 13.2488 17.9009 15.285 15.7505C15.8121 15.5189 16.307 15.4907 16.8321 15.6451C17.4105 15.8153 18.1129 16.2356 18.9293 17.052C19.7458 17.8685 20.1661 18.5708 20.3362 19.1492C20.3443 19.1767 20.3519 19.2042 20.359 19.2315C19.2928 20.0473 18.5082 21.2129 18.1765 22.5569C17.0743 22.6264 15.9515 22.9896 14.8296 23.5611C13.8316 24.0695 12.8926 24.7756 12.1037 25.5849Z" fill="#324558"/>
<path d="M18.7584 13.202C19.5655 13.6159 20.3285 14.2086 21.0506 14.9307C22.0182 15.8983 22.7534 16.9393 23.1376 18.0616C23.4192 18.021 23.7071 18 24 18C25.2632 18 26.4352 18.3906 27.4018 19.0577C27.8808 18.6949 28.3826 18.0908 28.8659 17.142C29.4028 16.0882 29.5822 15.2659 29.5523 14.6376C29.5241 14.0466 29.308 13.5278 28.8383 13.0337L28.8517 13.021C27.3681 12.3644 25.7266 11.9998 24 11.9998C22.1206 11.9998 20.3421 12.4318 18.7584 13.202Z" fill="#324558"/>
<path d="M24 26.9998C25.6568 26.9998 27 25.6566 27 23.9998C27 22.3429 25.6568 20.9998 24 20.9998C22.3431 20.9998 21 22.3429 21 23.9998C21 25.6566 22.3431 26.9998 24 26.9998Z" fill="#324558"/>
</svg>
