<svg width="48" height="48" viewBox="0 0 48 48" fill="none" xmlns="http://www.w3.org/2000/svg">
<path d="M37.9996 25.5V22C37.9996 14.268 31.7316 8 23.9996 8C19.8356 8 16.0962 9.8179 13.5317 12.7033L10.6995 9.87107C13.9912 6.26349 18.7311 4 23.9996 4C33.9407 4 41.9996 12.0589 41.9996 22V25.5C41.9996 31.3159 41.0136 37.0833 39.0897 42.5583L35.2138 41.5198C37.0554 36.385 37.9996 30.9657 37.9996 25.5Z" fill="#B6C2CD"/>
<path d="M8.32176 13.1502C6.84341 15.7635 5.9996 18.7832 5.9996 22L5.9996 25.5C5.9996 28.4732 5.7202 31.4326 5.16895 34.34L9.04254 35.3779C9.67759 32.1315 9.9996 28.8237 9.9996 25.5V22C9.9996 19.8996 10.4621 17.9073 11.2909 16.1193L8.32176 13.1502Z" fill="#B6C2CD"/>
<path d="M21.9991 28.5V22H25.9991V28.5C25.9991 33.0483 25.1313 37.5549 23.4421 41.7779L21.8561 45.7428L18.1422 44.2572L19.7281 40.2923C21.2284 36.5418 21.9991 32.5394 21.9991 28.5Z" fill="#B6C2CD"/>
<path d="M24 17C27.3137 17 30 19.6863 30 23V28H34V23C34 17.4772 29.5229 13 24 13C18.4772 13 14 17.4772 14 23V30C14 33.0485 13.4183 36.0691 12.2861 38.8996L10.1431 44.2572L13.857 45.7428L16 40.3852C17.3212 37.0822 18 33.5574 18 30V23C18 19.6863 20.6863 17 24 17Z" fill="#324558"/>
<path d="M33.7726 32H29.7286C29.3528 34.4082 28.7585 36.7787 27.9523 39.0821L26.1123 44.3393L29.8877 45.6607L31.7277 40.4035C32.6829 37.6746 33.3675 34.8598 33.7726 32Z" fill="#324558"/>
</svg>
