<svg width="48" height="48" viewBox="0 0 48 48" fill="none" xmlns="http://www.w3.org/2000/svg">
<path d="M30.9641 43.4153C36.1648 40.9588 40 35.9018 40 30.062C40 22.168 36.175 13.2696 23.9307 5.10065C23.241 4.64054 22.3257 5.20747 22.3245 6.03651C22.3149 12.6658 18.6871 15.4607 15.0852 18.2355C11.5299 20.9745 8 23.694 8 30.062C8 36.2579 12.3172 41.5728 18.0022 43.8353C17.6881 41.3423 18.1035 38.864 20.5 36C26.8045 29.2574 26.5003 26 26.5003 26C27.0545 26.0548 32.8672 34.9434 30.9641 43.4153Z" fill="#B6C2CD"/>
<path d="M18.0915 43.8353C17.7774 41.3423 18.1928 38.864 20.5893 36C26.8938 29.2574 26.5896 26 26.5896 26C27.1438 26.0547 32.9565 34.9434 31.0533 43.4153C28.9068 44.4291 26.5275 45 24.0893 45C22.0114 45 19.9763 44.5854 18.0915 43.8353Z" fill="#324558"/>
</svg>
