<svg width="48" height="48" viewBox="0 0 48 48" fill="none" xmlns="http://www.w3.org/2000/svg">
<path fill-rule="evenodd" clip-rule="evenodd" d="M24 4C20.134 4 17 7.13401 17 11V11.8757L16.2416 11.4379C12.8936 9.50487 8.61247 10.652 6.67947 14C4.74647 17.3481 5.8936 21.6292 9.24165 23.5622L9.99994 24L9.24165 24.4378C5.8936 26.3708 4.74647 30.652 6.67947 34C8.61247 37.348 12.8936 38.4952 16.2416 36.5622L17 36.1243V37C17 40.866 20.134 44 24 44C27.866 44 31 40.866 31 37V36.1244L31.7583 36.5622C35.1064 38.4952 39.3875 37.3481 41.3205 34C43.2535 30.652 42.1064 26.3709 38.7583 24.4379L37.9999 24L38.7583 23.5622C42.1064 21.6292 43.2535 17.348 41.3205 14C39.3875 10.652 35.1064 9.50483 31.7583 11.4378L31 11.8756V11C31 7.13401 27.866 4 24 4ZM24 32C28.4183 32 32 28.4183 32 24C32 19.5817 28.4183 16 24 16C19.5817 16 16 19.5817 16 24C16 28.4183 19.5817 32 24 32Z" fill="#B6C2CD"/>
<path d="M29 24C29 26.7614 26.7614 29 24 29C21.2386 29 19 26.7614 19 24C19 21.2386 21.2386 19 24 19C26.7614 19 29 21.2386 29 24Z" fill="#324558"/>
</svg>
