<svg width="48" height="48" viewBox="0 0 48 48" fill="none" xmlns="http://www.w3.org/2000/svg">
<path d="M13.8787 32L21.8787 24L13.8787 16H6C4.89543 16 4 16.8954 4 18L4 30C4 31.1046 4.89543 32 6 32H13.8787Z" fill="#B6C2CD"/>
<path d="M34.1214 32H42C43.1046 32 44 31.1046 44 30V18C44 16.8954 43.1046 16 42 16H34.1213L26.1213 24L34.1214 32Z" fill="#B6C2CD"/>
<path d="M16 42V34.1213L24 26.1213L32 34.1213V42C32 43.1046 31.1046 44 30 44H18C16.8954 44 16 43.1046 16 42Z" fill="#B6C2CD"/>
<path d="M32 13.8787L24 21.8787L16 13.8787V6C16 4.89543 16.8954 4 18 4H30C31.1046 4 32 4.89543 32 6V13.8787Z" fill="#324558"/>
</svg>
