<svg width="48" height="48" viewBox="0 0 48 48" fill="none" xmlns="http://www.w3.org/2000/svg">
<path fill-rule="evenodd" clip-rule="evenodd" d="M13.0042 12C8.9946 12 5.60433 14.9682 5.0744 18.9427L3.20773 32.9427C2.57153 37.7142 6.26144 41.9567 11.0639 41.9997C13.9439 41.9699 16.4147 39.9271 16.9807 37.0971L17.357 35.2155C17.7309 33.3458 19.3726 32 21.2793 32H27.2209C29.1276 32 30.7693 33.3458 31.1432 35.2155L31.5195 37.0971C32.0702 39.8507 34.4244 41.8591 37.2042 41.9929C41.8751 41.798 45.4168 37.6251 44.7924 32.9427L42.9258 18.9427C42.3959 14.9682 39.0056 12 34.996 12H13.0042ZM18.0001 26H15.0001V23H12.0001V20H15.0001V17H18.0001V20H21.0001V23H18.0001V26ZM29.0001 17H32.0001V20H29.0001V17ZM35.0001 23H38.0001V26H35.0001V23Z" fill="#B6C2CD"/>
<path d="M22 6C22 4.89543 22.8954 4 24 4H34V8H26V12H22V6Z" fill="#324558"/>
<path d="M15 26H18V23H21V20H18V17H15V20H12V23H15V26Z" fill="#324558"/>
<path d="M29 17H32V20H29V17Z" fill="#324558"/>
<path d="M38 23H35V26H38V23Z" fill="#324558"/>
</svg>
