<svg width="48" height="48" viewBox="0 0 48 48" fill="none" xmlns="http://www.w3.org/2000/svg">
<path fill-rule="evenodd" clip-rule="evenodd" d="M39 34V12H9L3 18V38C3 39.1046 3.89543 40 5 40H33L39 34ZM29 16H36V19H29V16ZM29 22H36V25H29V22ZM16 36C21.5228 36 26 31.5228 26 26C26 20.4772 21.5228 16 16 16C10.4772 16 6 20.4772 6 26C6 31.5228 10.4772 36 16 36Z" fill="#B6C2CD"/>
<path d="M39 6H43C44.1046 6 45 6.89543 45 8V40C45 41.1046 44.1046 42 43 42H39V6Z" fill="#324558"/>
<path d="M12 40V42H6V40H12Z" fill="#324558"/>
<path d="M21 40V42H15V40H21Z" fill="#324558"/>
<path d="M30 42V40H24V42H30Z" fill="#324558"/>
<path d="M36 16H29V19H36V16Z" fill="#324558"/>
<path d="M29 22H36V25H29V22Z" fill="#324558"/>
<path d="M12.1688 20.1406L14.9184 24.3175C15.2302 24.1166 15.6015 24 16 24C16.3957 24 16.7646 24.115 17.075 24.3132L19.8246 20.1363C18.7253 19.4177 17.4114 19 16 19C14.5858 19 13.2695 19.4194 12.1688 20.1406Z" fill="#324558"/>
<path d="M22.9878 25.5841L17.9971 25.8906C17.999 25.9268 18 25.9633 18 26C18 26.787 17.5455 27.4678 16.8847 27.7942L19.1274 32.2643C21.4235 31.1157 23 28.742 23 26C23 25.8604 22.9959 25.7217 22.9878 25.5841Z" fill="#324558"/>
<path d="M15.0954 27.7843L12.8651 32.2605C10.5731 31.1105 9 28.739 9 26C9 25.8606 9.00408 25.7221 9.01212 25.5847L14.0029 25.8911C14.001 25.9272 14 25.9635 14 26C14 26.7791 14.4454 27.4541 15.0954 27.7843Z" fill="#324558"/>
</svg>
