<svg width="48" height="48" viewBox="0 0 48 48" fill="none" xmlns="http://www.w3.org/2000/svg">
<path d="M27.0701 16.616L31.3692 20.915L11.5289 43.3282C10.7651 44.1911 9.43202 44.2316 8.61716 43.4168L4.55308 39.3527C3.73782 38.5374 3.77888 37.2035 4.64273 36.44L27.0701 16.616Z" fill="#B6C2CD"/>
<path d="M40.2647 19.1749C40.9908 19.9009 42.0544 20.0837 42.9504 19.7232C43.4627 19.517 44.0951 19.4913 44.4856 19.8818L45.0213 20.4173C45.4118 20.8078 45.4118 21.441 45.0213 21.8315L39.3645 27.4884C38.9739 27.8789 38.3408 27.8789 37.9502 27.4884L37.3583 26.8964C36.9876 26.5257 36.9812 25.9359 37.2167 25.4675C37.9285 24.0519 37.6935 22.2819 36.5118 21.1001C35.1026 19.691 32.8571 19.6281 31.3733 20.9114L27.0649 16.603C28.7348 14.2598 28.5187 10.9857 26.4164 8.88348C24.3142 6.78125 21.0401 6.5651 18.6969 8.23503L17.9312 7.46926C22.8649 4.17999 29.4345 4.83046 33.6274 9.02338L39.5578 14.9538C39.9483 15.3443 39.9227 15.9768 39.7165 16.4892C39.356 17.3852 39.5387 18.4488 40.2647 19.1749Z" fill="#324558"/>
</svg>
