<svg width="48" height="48" viewBox="0 0 48 48" fill="none" xmlns="http://www.w3.org/2000/svg">
<path d="M12.6015 5.48005C12.8366 4.60682 13.6284 4 14.5328 4H33.4672C34.3716 4 35.1634 4.60682 35.3985 5.48005L41.1923 27H41.1947L42 30H31.4185C30.2317 32.9318 27.3574 35 24 35C20.6426 35 17.7683 32.9318 16.5815 30H6L12.6015 5.48005Z" fill="#B6C2CD"/>
<path d="M6 30V42C6 43.1046 6.89543 44 8 44H40C41.1046 44 42 43.1046 42 42V30H31.4185C30.2317 32.9318 27.3574 35 24 35C20.6426 35 17.7683 32.9318 16.5815 30H6Z" fill="#324558"/>
</svg>
