<svg width="48" height="48" viewBox="0 0 48 48" fill="none" xmlns="http://www.w3.org/2000/svg">
<path fill-rule="evenodd" clip-rule="evenodd" d="M9 22.8908L23.9999 8.74878L39 22.891V41C39 42.1046 38.1046 43 37 43H11C9.89543 43 9 42.1046 9 41V22.8908ZM24 37L22.84 35.921L22.8299 35.9116C18.7155 32.0994 16 29.5833 16 26.4959C16 23.9782 17.936 22 20.4 22C21.792 22 23.128 22.6621 24 23.7085C24.872 22.6621 26.208 22 27.6 22C30.064 22 32 23.9782 32 26.4959C32 29.5779 29.2939 32.0907 25.1916 35.8999L25.16 35.9292L24 37Z" fill="#B6C2CD"/>
<path d="M26.0579 5.19157C24.9022 4.102 23.0976 4.10199 21.9419 5.19157L1.62793 24.3438L4.37191 27.2542L23.9999 8.74876L43.6279 27.2542L46.3719 24.3438L26.0579 5.19157Z" fill="#324558"/>
<path d="M22.84 35.921L24 37L25.16 35.9292L25.1916 35.8998C29.2939 32.0907 32 29.5779 32 26.4959C32 23.9782 30.064 22 27.6 22C26.208 22 24.872 22.6621 24 23.7084C23.128 22.6621 21.792 22 20.4 22C17.936 22 16 23.9782 16 26.4959C16 29.5833 18.7155 32.0994 22.8299 35.9116L22.84 35.921Z" fill="#324558"/>
</svg>
