<svg width="48" height="48" viewBox="0 0 48 48" fill="none" xmlns="http://www.w3.org/2000/svg">
<path d="M24 31.6666C25.4728 31.6666 26.6667 30.4727 26.6667 28.9999C26.6667 27.5271 25.4728 26.3332 24 26.3332C22.5273 26.3332 21.3333 27.5271 21.3333 28.9999C21.3333 30.4727 22.5273 31.6666 24 31.6666Z" fill="#B6C2CD"/>
<path fill-rule="evenodd" clip-rule="evenodd" d="M9 22.8908L23.9999 8.74878L39 22.891V41C39 42.1046 38.1046 43 37 43H11C9.89543 43 9 42.1046 9 41V22.8908ZM21.7007 23.0188L22.1014 21H25.8986L26.2993 23.0188C26.9676 23.2671 27.5854 23.6139 28.128 24.0516L30.1014 23.3828L32 26.6172L30.421 27.9656C30.477 28.3032 30.5132 28.6469 30.5132 29C30.5132 29.3531 30.477 29.6968 30.421 30.0344L32 31.3828L30.1014 34.6172L28.128 33.9485C27.5854 34.3861 26.9676 34.733 26.2993 34.9813L25.8986 37H22.1014L21.7007 34.9813C21.0324 34.733 20.4146 34.3861 19.872 33.9485L17.8986 34.6172L16 31.3828L17.579 30.0344C17.523 29.6968 17.4868 29.3531 17.4868 29C17.4868 28.6469 17.523 28.3032 17.579 27.9656L16 26.6172L17.8986 23.3828L19.872 24.0516C20.4146 23.6139 21.0324 23.2671 21.7007 23.0188Z" fill="#B6C2CD"/>
<path d="M26.0579 5.19157C24.9022 4.102 23.0976 4.10199 21.9419 5.19157L1.62793 24.3438L4.37191 27.2542L23.9999 8.74876L43.6279 27.2542L46.3719 24.3438L26.0579 5.19157Z" fill="#324558"/>
<path fill-rule="evenodd" clip-rule="evenodd" d="M22.1014 21L21.7007 23.0187C21.0324 23.267 20.4146 23.6139 19.872 24.0516L17.8986 23.3828L16 26.6172L17.579 27.9656C17.523 28.3032 17.4868 28.6469 17.4868 29C17.4868 29.3531 17.523 29.6968 17.579 30.0344L16 31.3828L17.8986 34.6172L19.872 33.9484C20.4146 34.3861 21.0324 34.733 21.7007 34.9813L22.1014 37H25.8986L26.2993 34.9813C26.9676 34.733 27.5854 34.3861 28.128 33.9484L30.1014 34.6172L32 31.3828L30.421 30.0344C30.477 29.6968 30.5132 29.3531 30.5132 29C30.5132 28.6469 30.477 28.3032 30.421 27.9656L32 26.6172L30.1014 23.3828L28.128 24.0516C27.5854 23.6139 26.9676 23.267 26.2993 23.0187L25.8986 21H22.1014ZM26.6667 28.9999C26.6667 30.4726 25.4728 31.6665 24 31.6665C22.5273 31.6665 21.3333 30.4726 21.3333 28.9999C21.3333 27.5271 22.5273 26.3332 24 26.3332C25.4728 26.3332 26.6667 27.5271 26.6667 28.9999Z" fill="#324558"/>
</svg>
