<svg width="48" height="48" viewBox="0 0 48 48" fill="none" xmlns="http://www.w3.org/2000/svg">
<path fill-rule="evenodd" clip-rule="evenodd" d="M24 8.74878L9 22.8909V41C9 42.1046 9.89543 43 11 43H37C38.1046 43 39 42.1046 39 41V22.8909L24 8.74878ZM24 33C22.6193 33 21.402 33.6996 20.6832 34.7636L24 33ZM20.6832 34.7636C20.2519 35.402 20 36.1716 20 37V43H28L28 37C28 36.4779 27.9 35.9791 27.718 35.5218C27.1301 34.0444 25.687 33 24 33" fill="#B6C2CD"/>
<path d="M26.0579 5.19157C24.9022 4.102 23.0976 4.10199 21.9419 5.19157L1.62793 24.3438L4.37191 27.2542L23.9999 8.74876L43.6279 27.2542L46.3719 24.3438L26.0579 5.19157Z" fill="#324558"/>
<path d="M23.9999 33C21.7908 33 19.9999 34.7909 19.9999 37V43H27.9999V37C27.9999 34.7909 26.209 33 23.9999 33Z" fill="#324558"/>
</svg>
