<svg width="48" height="48" viewBox="0 0 48 48" fill="none" xmlns="http://www.w3.org/2000/svg">
<path d="M20.5141 19.4862C21.6022 23.0758 24.3269 25.9539 27.8199 27.252L23.2931 31.7788C20.9477 30.832 18.1618 31.3093 16.2606 33.2105C14.3594 35.1117 13.8821 37.8977 14.8288 40.2431L11.6571 43.4148C11.2821 43.7898 10.7734 44.0005 10.2429 44.0005H5C4.4477 44.0005 3.99998 43.5528 4 43.0005L4.00024 36.8284C4.00026 36.298 4.21097 35.7893 4.58602 35.4143L20.5141 19.4862Z" fill="#B6C2CD"/>
<path fill-rule="evenodd" clip-rule="evenodd" d="M32 20C34.2091 20 36 18.2091 36 16C36 13.7909 34.2091 12 32 12C29.7909 12 28 13.7909 28 16C28 18.2091 29.7909 20 32 20ZM32 28C38.6274 28 44 22.6274 44 16C44 9.37258 38.6274 4 32 4C25.3726 4 20 9.37258 20 16C20 22.6274 25.3726 28 32 28Z" fill="#324558"/>
</svg>
