<svg width="48" height="48" viewBox="0 0 48 48" fill="none" xmlns="http://www.w3.org/2000/svg">
<path fill-rule="evenodd" clip-rule="evenodd" d="M5 7C3.89543 7 3 7.89543 3 9V34C3 35.1046 3.89543 36 5 36H43C44.1046 36 45 35.1046 45 34V9C45 7.89543 44.1046 7 43 7H5ZM10 13H14V17H10V13ZM16 28H32V31H16V28ZM10 20H14V24H10V20ZM18 13H22V17H18V13ZM18 20H22V24H18V20ZM26 13H30V17H26V13ZM26 20H30V24H26V20ZM34 13H38V17H34V13ZM34 20H38V24H34V20Z" fill="#B6C2CD"/>
<path d="M10 13H14V17H10V13Z" fill="#324558"/>
<path d="M16 28H32V31H16V28Z" fill="#324558"/>
<path d="M10 20H14V24H10V20Z" fill="#324558"/>
<path d="M18 13H22V17H18V13Z" fill="#324558"/>
<path d="M18 20H22V24H18V20Z" fill="#324558"/>
<path d="M26 13H30V17H26V13Z" fill="#324558"/>
<path d="M26 20H30V24H26V20Z" fill="#324558"/>
<path d="M34 13H38V17H34V13Z" fill="#324558"/>
<path d="M34 20H38V24H34V20Z" fill="#324558"/>
<path d="M24.6585 45.4238C24.2815 45.7537 23.7185 45.7537 23.3415 45.4238L16 39H32L24.6585 45.4238Z" fill="#324558"/>
</svg>
