<svg width="48" height="48" viewBox="0 0 48 48" fill="none" xmlns="http://www.w3.org/2000/svg">
<path d="M31.9986 36.0045C37.3552 33.1431 41 27.4972 41 21C41 11.6112 33.3888 4 24 4C14.6112 4 7 11.6112 7 21C7 27.4972 10.6448 33.1431 16.0014 36.0045L16 36H22.5V28.6212L16.9395 23.0607L19.0608 20.9393L24 25.8786L28.9392 20.9393L31.0605 23.0607L25.5 28.6212V36H32L31.9986 36.0045Z" fill="#B6C2CD"/>
<path d="M16.9395 23.0607L22.5 28.6212L22.5 36H16L18.5724 44.5747C18.8262 45.4207 19.6048 46 20.4881 46H27.5119C28.3952 46 29.1738 45.4207 29.4276 44.5747L32 36H25.5V28.6212L31.0605 23.0607L28.9392 20.9393L24 25.8786L19.0608 20.9393L16.9395 23.0607Z" fill="#324558"/>
</svg>
