<svg width="48" height="48" viewBox="0 0 48 48" fill="none" xmlns="http://www.w3.org/2000/svg">
<path d="M42 35L6.00001 35L6 13C6 11.8954 6.89543 11 8 11L40 11C41.1046 11 42 11.8954 42 13L42 35Z" fill="#B6C2CD"/>
<path d="M11 6C11 5.44772 11.4477 5 12 5H18C18.5523 5 19 5.44772 19 6V11H11V6Z" fill="#324558"/>
<path d="M29 6C29 5.44772 29.4477 5 30 5H36C36.5523 5 37 5.44772 37 6V11H29V6Z" fill="#324558"/>
<path d="M40 43C41.1046 43 42 42.1046 42 41V35L6 35L6.00001 41C6.00001 42.1046 6.89544 43 8.00001 43L40 43Z" fill="#324558"/>
</svg>
