<svg width="48" height="48" viewBox="0 0 48 48" fill="none" xmlns="http://www.w3.org/2000/svg">
<path fill-rule="evenodd" clip-rule="evenodd" d="M10 19C8.89543 19 8 19.8954 8 21V43C8 44.1046 8.89543 45 10 45H38C39.1046 45 40 44.1046 40 43V21C40 19.8954 39.1046 19 38 19H10ZM26 27V37H22V27H26Z" fill="#B6C2CD"/>
<path d="M31 14V19H35V14C35 7.92487 30.0751 3 24 3C17.9249 3 13 7.92487 13 14V19H17V14C17 10.134 20.134 7 24 7C27.866 7 31 10.134 31 14Z" fill="#324558"/>
<path d="M26 37V27H22V37H26Z" fill="#324558"/>
</svg>
