<svg width="48" height="48" viewBox="0 0 48 48" fill="none" xmlns="http://www.w3.org/2000/svg">
<path fill-rule="evenodd" clip-rule="evenodd" d="M7 12C5.89543 12 5 12.8954 5 14V42C5 43.1046 5.89543 44 7 44H41C42.1046 44 43 43.1046 43 42V14C43 12.8954 42.1046 12 41 12H7ZM26 36H22V30H16V26H22V20H26V26H32V30H26V36Z" fill="#B6C2CD"/>
<path d="M17 8V12H13V6C13 4.89543 13.8954 4 15 4H33C34.1046 4 35 4.89543 35 6V12H31V8H17Z" fill="#324558"/>
<path d="M26 36H22V30H16V26H22V20H26V26H32V30H26V36Z" fill="#324558"/>
</svg>
