<svg width="48" height="48" viewBox="0 0 48 48" fill="none" xmlns="http://www.w3.org/2000/svg">
<g clip-path="url(#clip0_5613_4988)">
<path fill-rule="evenodd" clip-rule="evenodd" d="M0.664888 30.364C-0.11616 31.145 -0.116161 32.4114 0.664888 33.1924L4.20042 36.7279C5.37199 35.5564 7.27149 35.5564 8.44306 36.7279C9.61464 37.8995 9.61464 39.799 8.44306 40.9706L14.807 47.3345C15.5881 48.1156 16.8544 48.1156 17.6355 47.3345L20.4642 44.5058L18.3433 42.3849L42.3849 18.3433L44.5058 20.4642L47.3339 17.6361C48.115 16.855 48.115 15.5887 47.3339 14.8076L40.97 8.44367C39.7984 9.61524 37.8989 9.61524 36.7273 8.44367C35.5558 7.2721 35.5558 5.3726 36.7273 4.20103L33.1918 0.665498C32.4108 -0.11555 31.1444 -0.11555 30.3634 0.665498L0.664888 30.364ZM30.3636 9.15051L26.121 13.3932L31.7778 19.05L36.0204 14.8074L30.3636 9.15051ZM22.5853 16.9293L16.9285 22.5861L22.5853 28.243L28.2422 22.5861L22.5853 16.9293ZM9.15039 30.3637L13.393 26.1211L19.0499 31.7779L14.8072 36.0206L9.15039 30.3637Z" fill="#B6C2CD"/>
<path d="M26.121 13.3932L30.3636 9.15051L36.0204 14.8074L31.7778 19.05L26.121 13.3932Z" fill="#324558"/>
<path d="M16.9285 22.5861L22.5853 16.9293L28.2422 22.5861L22.5853 28.243L16.9285 22.5861Z" fill="#324558"/>
<path d="M9.15039 30.3637L13.393 26.1211L19.0499 31.7779L14.8072 36.0206L9.15039 30.3637Z" fill="#324558"/>
<path d="M37.7884 22.9392L39.9098 20.8179L42.0311 22.9392L39.9098 25.0605L37.7884 22.9392Z" fill="#324558"/>
<path d="M33.5458 27.1818L35.6671 25.0605L37.7884 27.1818L35.6671 29.3032L33.5458 27.1818Z" fill="#324558"/>
<path d="M29.3032 31.4245L31.4245 29.3032L33.5458 31.4245L31.4245 33.5458L29.3032 31.4245Z" fill="#324558"/>
<path d="M25.0605 35.6671L27.1818 33.5458L29.3032 35.6671L27.1818 37.7884L25.0605 35.6671Z" fill="#324558"/>
<path d="M20.8179 39.9098L22.9392 37.7884L25.0605 39.9098L22.9392 42.0311L20.8179 39.9098Z" fill="#324558"/>
</g>
<defs>
<clipPath id="clip0_5613_4988">
<rect width="48" height="48" fill="white"/>
</clipPath>
</defs>
</svg>
