<svg width="48" height="48" viewBox="0 0 48 48" fill="none" xmlns="http://www.w3.org/2000/svg">
<path fill-rule="evenodd" clip-rule="evenodd" d="M24 44C35.0457 44 44 35.0457 44 24C44 12.9543 35.0457 4 24 4C12.9543 4 4 12.9543 4 24C4 35.0457 12.9543 44 24 44ZM34 13.9999C34 25.0456 25.0457 33.9999 14 33.9999C13.11 33.9999 12.2335 33.9418 11.3742 33.8291C14.3021 37.5847 18.869 39.9999 24 39.9999C32.8366 39.9999 40 32.8365 40 23.9999C40 18.8689 37.5848 14.3021 33.8292 11.3741C33.9419 12.2334 34 13.1099 34 13.9999Z" fill="#B6C2CD"/>
<path d="M13.9998 33.9999C25.0455 33.9999 33.9998 25.0456 33.9998 13.9999C33.9998 13.1099 33.9417 12.2334 33.829 11.3741C37.5846 14.3021 39.9998 18.8689 39.9998 23.9999C39.9998 32.8365 32.8364 39.9999 23.9998 39.9999C18.8688 39.9999 14.3019 37.5847 11.374 33.8291C12.2333 33.9418 13.1098 33.9999 13.9998 33.9999Z" fill="#324558"/>
</svg>
