<svg width="48" height="48" viewBox="0 0 48 48" fill="none" xmlns="http://www.w3.org/2000/svg">
<path fill-rule="evenodd" clip-rule="evenodd" d="M10 38H14V34H19L22 37V38H42C43.1046 38 44 37.1046 44 36V12L40 8H10V38ZM14 16H22V19H14V16ZM22 22H14V25H22V22ZM26 16H41V25H26V16ZM26 29H29V32H26V29ZM32 29H35V32H32V29ZM38 29H41V32H38V29Z" fill="#B6C2CD"/>
<path d="M6 6C4.89543 6 4 6.89543 4 8V40C4 41.1046 4.89543 42 6 42H10V6H6Z" fill="#324558"/>
<path d="M14 16H22V19H14V16Z" fill="#324558"/>
<path d="M14 22H22V25H14V22Z" fill="#324558"/>
<path d="M26 16H41V25H26V16Z" fill="#324558"/>
<path d="M29 29H26V32H29V29Z" fill="#324558"/>
<path d="M32 29H35V32H32V29Z" fill="#324558"/>
<path d="M41 29H38V32H41V29Z" fill="#324558"/>
</svg>
