<svg width="48" height="48" viewBox="0 0 48 48" fill="none" xmlns="http://www.w3.org/2000/svg">
<path fill-rule="evenodd" clip-rule="evenodd" d="M4 24.0051C4.00282 12.9607 12.9605 4.00281 24.0048 4C35.0491 3.99719 44.0025 11.9505 44 21.7727C43.9984 27.906 39.0195 32.8851 32.8862 32.8866L28.9529 32.8876C27.1085 32.8881 25.6193 34.3774 25.6188 36.2218C25.6186 37.0663 25.9517 37.8439 26.4627 38.4216C26.9958 39.0215 27.329 39.7992 27.3288 40.6658C27.3283 42.5103 25.839 43.9995 23.9946 44C12.9503 44.0028 3.99719 35.0495 4 24.0051ZM20 13C20 14.6569 18.6569 16 17 16C15.3431 16 14 14.6569 14 13C14 11.3431 15.3431 10 17 10C18.6569 10 20 11.3431 20 13ZM37 19C37 21.7614 34.7614 24 32 24C29.2386 24 27 21.7614 27 19C27 16.2386 29.2386 14 32 14C34.7614 14 37 16.2386 37 19ZM14 23C14 24.6569 12.6569 26 11 26C9.34315 26 8 24.6569 8 23C8 21.3431 9.34315 20 11 20C12.6569 20 14 21.3431 14 23ZM19 33C19 34.6569 17.6569 36 16 36C14.3431 36 13 34.6569 13 33C13 31.3431 14.3431 30 16 30C17.6569 30 19 31.3431 19 33Z" fill="#B6C2CD"/>
<path d="M17 16C18.6569 16 20 14.6569 20 13C20 11.3431 18.6569 10 17 10C15.3431 10 14 11.3431 14 13C14 14.6569 15.3431 16 17 16Z" fill="#324558"/>
<path d="M32 24C34.7614 24 37 21.7614 37 19C37 16.2386 34.7614 14 32 14C29.2386 14 27 16.2386 27 19C27 21.7614 29.2386 24 32 24Z" fill="#324558"/>
<path d="M14 23C14 24.6569 12.6569 26 11 26C9.34315 26 8 24.6569 8 23C8 21.3431 9.34315 20 11 20C12.6569 20 14 21.3431 14 23Z" fill="#324558"/>
<path d="M16 36C17.6569 36 19 34.6569 19 33C19 31.3431 17.6569 30 16 30C14.3431 30 13 31.3431 13 33C13 34.6569 14.3431 36 16 36Z" fill="#324558"/>
</svg>
