<svg width="48" height="48" viewBox="0 0 48 48" fill="none" xmlns="http://www.w3.org/2000/svg">
<path d="M22.0469 17.6761L30.9682 26.3983L27.1612 37.6402C26.9478 38.2703 26.435 38.7531 25.7931 38.9282L5.43004 44.4818L17.7524 32.1594C18.8664 32.6845 20.2384 32.4911 21.1631 31.5772C22.3415 30.4125 22.347 28.5186 21.1754 27.347C20.0039 26.1754 18.0988 26.1699 16.9204 27.3346C15.987 28.2571 15.7895 29.6372 16.33 30.7534L4.01562 43.0677L9.56606 22.7162C9.74289 22.0678 10.2336 21.5515 10.8721 21.342L22.0469 17.6761Z" fill="#B6C2CD"/>
<path d="M28.625 5.09817C28.1107 4.58389 27.2368 4.77319 26.9815 5.45419L25.9841 8.11417L40.362 22.492L43.0298 21.5105C43.7149 21.2584 43.9078 20.381 43.3916 19.8649L28.625 5.09817Z" fill="#324558"/>
<path d="M22.0467 17.6761L22.0394 17.6785C21.9747 15.2927 22.8616 12.8866 24.6984 11.0712L37.4266 23.7993C35.6407 25.5645 33.2984 26.4337 30.9645 26.4085L30.968 26.3983L22.0467 17.6761Z" fill="#324558"/>
</svg>
