<svg width="48" height="48" viewBox="0 0 48 48" fill="none" xmlns="http://www.w3.org/2000/svg">
<path fill-rule="evenodd" clip-rule="evenodd" d="M11 3C9.89543 3 9 3.89543 9 5V43C9 44.1046 9.89543 45 11 45H37C38.1046 45 39 44.1046 39 43V5C39 3.89543 38.1046 3 37 3H11ZM13 7H35V33H13V7ZM27 39C27 40.6569 25.6569 42 24 42C22.3431 42 21 40.6569 21 39C21 37.3431 22.3431 36 24 36C25.6569 36 27 37.3431 27 39Z" fill="#B6C2CD"/>
<path d="M35 7H13V33H35V7Z" fill="#324558"/>
<path d="M24 42C25.6569 42 27 40.6569 27 39C27 37.3431 25.6569 36 24 36C22.3431 36 21 37.3431 21 39C21 40.6569 22.3431 42 24 42Z" fill="#324558"/>
</svg>
