<svg width="48" height="48" viewBox="0 0 48 48" fill="none" xmlns="http://www.w3.org/2000/svg">
<path fill-rule="evenodd" clip-rule="evenodd" d="M30.6249 11.0928C30.8674 10.4412 31 9.73605 31 8.99994C31 8.54193 30.9487 8.09591 30.8515 7.6673C39.0853 9.38616 45 14.4744 45 23.4999C45 27.9957 42.7116 32.0715 39 35.0475V40.9999C39 42.1045 38.1046 42.9999 37 42.9999H33.0616C32.1438 42.9999 31.3439 42.3753 31.1213 41.485L30.5457 39.1826C28.4858 39.713 26.2856 39.9999 24 39.9999C22.0601 39.9999 20.1817 39.7932 18.3984 39.4064L17.8787 41.485C17.6561 42.3753 16.8562 42.9999 15.9384 42.9999H12C10.8954 42.9999 10 42.1045 10 40.9999V35.7985C9.57039 35.4964 9.1567 35.1806 8.76005 34.8519C4.85543 34.3117 0 29.7841 0 27.9049V23.9049C0 22.8031 0.890908 21.9095 1.99162 21.9049H1.73096C2.14333 21.9049 2.83715 21.7873 3.21057 20.7744C3.61913 18.2811 4.66275 15.9666 6.68906 14.0218L5.22176 11.7665C4.57061 10.7657 4.96377 9.46175 6.13574 9.23335C7.67875 8.93265 9.96119 8.79979 12.66 9.61005C14.6396 8.61025 16.8468 7.86457 19.207 7.43164C19.072 7.93156 19 8.45734 19 8.99994C19 9.66089 19.1069 10.2969 19.3043 10.8916C20.8218 10.6346 22.393 10.4999 24 10.4999C26.2859 10.4999 28.5138 10.6919 30.6249 11.0928ZM11 22.9999C12.1046 22.9999 13 22.1045 13 20.9999C13 19.8953 12.1046 18.9999 11 18.9999C9.89543 18.9999 9 19.8953 9 20.9999C9 22.1045 9.89543 22.9999 11 22.9999Z" fill="#B6C2CD"/>
<path d="M31 9C31 9.73611 30.8674 10.4413 30.6249 11.0929C28.5138 10.692 26.2859 10.5 24 10.5C22.393 10.5 20.8218 10.6346 19.3043 10.8916C19.1069 10.2969 19 9.66095 19 9C19 5.68629 21.6863 3 25 3C28.3137 3 31 5.68629 31 9Z" fill="#324558"/>
<path d="M44.7212 20.2511C44.5115 19.0843 44.1866 17.999 43.7577 16.9935C44.2623 16.3369 44.4999 15.6524 44.4999 15C44.4999 13.79 43.5622 12.7685 42.5256 12.423C41.7397 12.161 41.3149 11.3116 41.5769 10.5256C41.8389 9.73972 42.6883 9.31498 43.4743 9.57695C45.4376 10.2314 47.4999 12.2099 47.4999 15C47.4999 17.1261 46.3599 18.9307 44.7212 20.2511Z" fill="#324558"/>
<path d="M13 21C13 22.1046 12.1046 23 11 23C9.89543 23 9 22.1046 9 21C9 19.8954 9.89543 19 11 19C12.1046 19 13 19.8954 13 21Z" fill="#324558"/>
</svg>
