<svg width="48" height="48" viewBox="0 0 48 48" fill="none" xmlns="http://www.w3.org/2000/svg">
<path d="M16.1196 20.3607L5.74405 35.3186C5.36887 35.8594 5.61033 36.596 6.2435 36.7761C8.79546 37.5016 15.1384 39 23.9999 39C32.8614 39 39.2043 37.5016 41.7563 36.7761C42.3895 36.596 42.6309 35.8594 42.2558 35.3186L31.8802 20.3607C30.0241 20.7137 27.4538 21 23.9999 21C20.546 21 17.9757 20.7137 16.1196 20.3607Z" fill="#B6C2CD"/>
<path d="M24.8009 4.07168C24.401 3.53657 23.5988 3.53657 23.1989 4.07168L12.6399 18.1992C12.2936 18.6626 12.4283 19.2975 12.9681 19.5057C14.4575 20.08 17.8093 21 23.9999 21C30.1905 21 33.5423 20.08 35.0317 19.5057C35.5715 19.2975 35.7062 18.6626 35.3599 18.1992L24.8009 4.07168Z" fill="#324558"/>
<path d="M23.9999 39C22.9649 39 21.9643 38.9795 21 38.9423V44C21 44.5523 21.4477 45 22 45H26C26.5523 45 27 44.5523 27 44V38.9423C26.0357 38.9795 25.035 39 23.9999 39Z" fill="#324558"/>
</svg>
