<svg width="48" height="48" viewBox="0 0 48 48" fill="none" xmlns="http://www.w3.org/2000/svg">
<path fill-rule="evenodd" clip-rule="evenodd" d="M24 44C35.0457 44 44 35.0457 44 24C44 12.9543 35.0457 4 24 4C12.9543 4 4 12.9543 4 24C4 35.0457 12.9543 44 24 44ZM22 14H18V20H15V24C15 28.0796 18.0537 31.446 22 31.9381V36H26V31.9381C29.9463 31.446 33 28.0796 33 24V20H30V14H26V20H22V14Z" fill="#B6C2CD"/>
<path d="M18 14H22V20H26V14H30V20H33V24C33 28.0796 29.9463 31.446 26 31.9381V36H22V31.9381C18.0537 31.446 15 28.0796 15 24V20H18V14Z" fill="#324558"/>
</svg>
