<svg width="48" height="48" viewBox="0 0 48 48" fill="none" xmlns="http://www.w3.org/2000/svg">
<path d="M11 6C11 4.89543 11.8954 4 13 4H35C36.1046 4 37 4.89543 37 6V12H11V6Z" fill="#B6C2CD"/>
<path fill-rule="evenodd" clip-rule="evenodd" d="M11 42C11 43.1046 11.8954 44 13 44H35C36.1046 44 37 43.1046 37 42V23H11V42ZM19 27H29V30H19V27ZM29 33H19V36H29V33Z" fill="#B6C2CD"/>
<path d="M4 14C4 12.8954 4.89543 12 6 12H42C43.1046 12 44 12.8954 44 14V32C44 33.1046 43.1046 34 42 34H37V23H11V34H6C4.89543 34 4 33.1046 4 32V14Z" fill="#324558"/>
<path d="M19 27H29V30H19V27Z" fill="#324558"/>
<path d="M19 33H29V36H19V33Z" fill="#324558"/>
</svg>
