<svg width="48" height="48" viewBox="0 0 48 48" fill="none" xmlns="http://www.w3.org/2000/svg">
<path fill-rule="evenodd" clip-rule="evenodd" d="M17.8966 9.00023C18.7556 9.0131 19.5104 9.57308 19.7718 10.3914L25.8939 29.5563L31.3918 17.9232C31.7165 17.236 32.4028 16.7923 33.1627 16.7781C33.9227 16.764 34.625 17.1818 34.9751 17.8564L38.274 24.2119H48V28.2119H37.0588C36.3121 28.2119 35.6276 27.7959 35.2836 27.1333L33.284 23.2808L27.3416 35.8546C26.9905 36.5974 26.2209 37.0499 25.4011 36.9956C24.5814 36.9413 23.8782 36.3912 23.6282 35.6086L17.7726 17.2781L14.3861 26.8772C14.1039 27.677 13.3481 28.2119 12.5 28.2119H0V24.2119H11.0848L15.9806 10.3346C16.2664 9.52447 17.0377 8.98736 17.8966 9.00023Z" fill="#324558"/>
</svg>
