<svg width="48" height="48" viewBox="0 0 48 48" fill="none" xmlns="http://www.w3.org/2000/svg">
<path d="M37 44C38.1046 44 39 43.1046 39 42L39 13C39 11.8954 38.1046 11 37 11L8 11C6.89543 11 6 11.8954 6 13L6 23.81C6.09167 24.26 6.64167 24.44 7.00833 24.44C8.04 24.5244 8.99103 24.0547 9.86143 23.6247L10.0333 23.54C10.7667 23.18 11.4083 23 12.2333 23C14.8917 23 17 24.98 17 27.5C17 30.02 14.8917 32 12.2333 32C11.4083 32 10.7667 31.82 10.0333 31.46C9.11667 31.01 8.01667 30.47 7.00833 30.56C6.64167 30.65 6.09167 30.83 6 31.19L6.00001 42C6.00001 43.1046 6.89544 44 8.00001 44L18.81 44C19.26 43.9083 19.44 43.3583 19.44 42.9917C19.5244 41.96 19.0547 41.009 18.6247 40.1386C18.5963 40.0809 18.568 40.0236 18.54 39.9667C18.18 39.2333 18 38.5917 18 37.7667C18 35.1083 19.98 33 22.5 33C25.02 33 27 35.1083 27 37.7667C27 38.5917 26.82 39.2333 26.46 39.9667C26.01 40.8833 25.47 41.9833 25.56 42.9917C25.65 43.3583 25.83 43.9083 26.19 44H37Z" fill="#B6C2CD"/>
<path d="M27 6.76667C27 4.10833 25.02 2 22.5 2C19.98 2 18 4.10833 18 6.76667C18 7.59167 18.18 8.23333 18.54 8.96667C18.568 9.02361 18.5963 9.0809 18.6247 9.13855C18.9133 9.72271 19.2198 10.3432 19.3646 11H25.6446C25.8079 10.2951 26.1547 9.58867 26.46 8.96667C26.82 8.23333 27 7.59167 27 6.76667Z" fill="#324558"/>
<path d="M39 30.6446L39 24.3646C39.6568 24.2197 40.2773 23.9133 40.8615 23.6247C40.9191 23.5963 40.9764 23.568 41.0333 23.54C41.7667 23.18 42.4083 23 43.2333 23C45.8917 23 48 24.98 48 27.5C48 30.02 45.8917 32 43.2333 32C42.4083 32 41.7667 31.82 41.0333 31.46C40.4113 31.1547 39.7049 30.8079 39 30.6446Z" fill="#324558"/>
</svg>
