<svg width="48" height="48" viewBox="0 0 48 48" fill="none" xmlns="http://www.w3.org/2000/svg">
<path fill-rule="evenodd" clip-rule="evenodd" d="M35.3884 28.013C30.4146 32.9867 26.748 34.912 23.9256 35.2331L17.6652 35.8367L12.0083 30.1798C12.0083 30.1798 12.1122 26.2075 12.7587 23.7726C14.096 18.7357 15.0131 17.2755 19.832 12.4566C26.8866 5.40199 42.2567 3.85983 43.1209 4.72407C43.9852 5.58831 42.443 20.9583 35.3884 28.013ZM29.6858 18.159C30.8574 19.3306 32.7569 19.3306 33.9284 18.159C35.1 16.9874 35.1 15.0879 33.9284 13.9163C32.7569 12.7448 30.8574 12.7448 29.6858 13.9163C28.5142 15.0879 28.5142 16.9874 29.6858 18.159Z" fill="#B6C2CD"/>
<path d="M16.8099 11.2434C11.4941 11.4626 5.431 14.6615 3.60498 23.021L9.63182 23.9909C9.69951 23.6517 9.77495 23.3197 9.85907 23.0029C10.549 20.4042 11.204 18.4283 12.4462 16.4422C13.4905 14.7724 14.8838 13.2044 16.8099 11.2434Z" fill="#324558"/>
<path d="M23.6576 38.2729L24.2391 38.2169L24.2647 38.214C27.8056 37.8111 31.7145 35.6454 36.3271 31.285C35.9341 36.4766 32.6795 42.2254 24.5784 43.995L23.6576 38.2729Z" fill="#324558"/>
<path d="M10.9463 32.135C8.23438 31.569 5.5484 33.1927 5.17016 36.1015L4.14697 43.9703L12.0158 42.9471C15.0501 42.5525 16.686 39.6467 15.8967 36.8199C14.5383 37.7159 12.6929 37.5662 11.4973 36.3706C10.3491 35.2224 10.1654 33.4749 10.9463 32.135Z" fill="#324558"/>
<path d="M29.6858 18.159C30.8574 19.3306 32.7569 19.3306 33.9284 18.159C35.1 16.9875 35.1 15.088 33.9284 13.9164C32.7569 12.7448 30.8574 12.7448 29.6858 13.9164C28.5142 15.088 28.5142 16.9875 29.6858 18.159Z" fill="#324558"/>
</svg>
