<svg width="48" height="48" viewBox="0 0 48 48" fill="none" xmlns="http://www.w3.org/2000/svg">
<path d="M38 12H35V8H39C40.6569 8 42 9.34314 42 11V20C42 21.6569 40.6569 23 39 23H25V28H26C27.1046 28 28 28.8954 28 30V42C28 43.1046 27.1046 44 26 44H20C18.8954 44 18 43.1046 18 42V30C18 28.8954 18.8954 28 20 28H21V22C21 20.3431 22.3431 19 24 19H38V12Z" fill="#B6C2CD"/>
<path d="M6 6C6 4.89543 6.89543 4 8 4H33C34.1046 4 35 4.89543 35 6V14C35 15.1046 34.1046 16 33 16H8C6.89543 16 6 15.1046 6 14V6Z" fill="#324558"/>
</svg>
