<svg width="48" height="48" viewBox="0 0 48 48" fill="none" xmlns="http://www.w3.org/2000/svg">
<path fill-rule="evenodd" clip-rule="evenodd" d="M11.8621 22C11.1436 22 10.4803 22.3854 10.1245 23.0096L5 32V42C5 43.1046 5.89543 44 7 44H41C42.1046 44 43 43.1046 43 42V32L37.8755 23.0096C37.5197 22.3854 36.8564 22 36.1379 22H11.8621ZM9 36H39V40H9V36Z" fill="#B6C2CD"/>
<path d="M22 4H26V22H22V4Z" fill="#324558"/>
<path d="M32 4H36V22H32V4Z" fill="#324558"/>
<path d="M9 36H39V40H9V36Z" fill="#324558"/>
<path d="M16 4H12V22H16V4Z" fill="#324558"/>
</svg>
