<svg width="48" height="48" viewBox="0 0 48 48" fill="none" xmlns="http://www.w3.org/2000/svg">
<path fill-rule="evenodd" clip-rule="evenodd" d="M6 6C4.89543 6 4 6.89543 4 8V36C4 37.1046 4.89543 38 6 38H42C43.1046 38 44 37.1046 44 36V8C44 6.89543 43.1046 6 42 6H6ZM28 13H32V17H28V13ZM24 22C24 26.4183 20.4183 30 16 30C11.5817 30 8 26.4183 8 22C8 17.5817 11.5817 14 16 14C20.4183 14 24 17.5817 24 22ZM28 20H32V24H28V20ZM28 27H32V31H28V27ZM36 13H40V17H36V13ZM36 20H40V24H36V20ZM36 27H40V31H36V27Z" fill="#B6C2CD"/>
<path d="M28 13H32V17H28V13Z" fill="#324558"/>
<path d="M24 22C24 26.4183 20.4183 30 16 30C11.5817 30 8 26.4183 8 22C8 17.5817 11.5817 14 16 14C20.4183 14 24 17.5817 24 22Z" fill="#324558"/>
<path d="M32 20H28V24H32V20Z" fill="#324558"/>
<path d="M28 27H32V31H28V27Z" fill="#324558"/>
<path d="M40 13H36V17H40V13Z" fill="#324558"/>
<path d="M36 20H40V24H36V20Z" fill="#324558"/>
<path d="M40 27H36V31H40V27Z" fill="#324558"/>
<path d="M10 38H16V42H10V38Z" fill="#324558"/>
<path d="M38 38H32V42H38V38Z" fill="#324558"/>
</svg>
