<svg width="48" height="48" viewBox="0 0 48 48" fill="none" xmlns="http://www.w3.org/2000/svg">
<path d="M9.76846 5.35984C8.07136 6.77409 7.84206 9.29635 9.25631 10.9935L20.0951 24L16.4448 28.3804C18.4324 29.0176 20.0816 30.411 21.0537 32.222L24.0002 28.6862L26.9467 32.222C27.9188 30.411 29.5679 29.0176 31.5556 28.3804L27.9053 24L38.7441 10.9935C40.1584 9.29635 39.9291 6.77409 38.232 5.35984L36.6955 4.07947L24.0002 19.3139L11.3049 4.07947L9.76846 5.35984Z" fill="#B6C2CD"/>
<path fill-rule="evenodd" clip-rule="evenodd" d="M22 36C22 40.4183 18.4183 44 14 44C9.58172 44 6 40.4183 6 36C6 31.5817 9.58172 28 14 28C18.4183 28 22 31.5817 22 36ZM18 36C18 38.2091 16.2091 40 14 40C11.7909 40 10 38.2091 10 36C10 33.7909 11.7909 32 14 32C16.2091 32 18 33.7909 18 36Z" fill="#324558"/>
<path fill-rule="evenodd" clip-rule="evenodd" d="M42 36C42 40.4183 38.4183 44 34 44C29.5817 44 26 40.4183 26 36C26 31.5817 29.5817 28 34 28C38.4183 28 42 31.5817 42 36ZM38 36C38 38.2091 36.2091 40 34 40C31.7909 40 30 38.2091 30 36C30 33.7909 31.7909 32 34 32C36.2091 32 38 33.7909 38 36Z" fill="#324558"/>
</svg>
