<svg width="48" height="48" viewBox="0 0 48 48" fill="none" xmlns="http://www.w3.org/2000/svg">
<path fill-rule="evenodd" clip-rule="evenodd" d="M24 44C35.0457 44 44 35.0457 44 24C44 12.9543 35.0457 4 24 4C12.9543 4 4 12.9543 4 24C4 35.0457 12.9543 44 24 44ZM17 25H19.5012C21.9974 24.6425 21.4398 22.2491 20.9155 19.9992C20.7051 19.096 20.5 18.216 20.5 17.5C20.5 15.567 22.067 14 24 14C25.933 14 27.5 15.567 27.5 17.5C27.5 18.216 27.2949 19.096 27.0845 19.9992C26.5602 22.2491 26.0026 24.6425 28.4988 25H31C32.1046 25 33 25.8954 33 27V30.5H15V27C15 25.8954 15.8954 25 17 25ZM16 32V34H32V32H16Z" fill="#B6C2CD"/>
<path fill-rule="evenodd" clip-rule="evenodd" d="M19.5012 25H17C15.8954 25 15 25.8954 15 27V30.5H33V27C33 25.8954 32.1046 25 31 25H28.4988C26.0026 24.6425 26.5602 22.2491 27.0845 19.9992C27.2949 19.096 27.5 18.216 27.5 17.5C27.5 15.567 25.933 14 24 14C22.067 14 20.5 15.567 20.5 17.5C20.5 18.216 20.7051 19.096 20.9155 19.9992C21.4398 22.2491 21.9974 24.6425 19.5012 25ZM16 34V32H32V34H16Z" fill="#324558"/>
</svg>
