<svg width="48" height="48" viewBox="0 0 48 48" fill="none" xmlns="http://www.w3.org/2000/svg">
<path fill-rule="evenodd" clip-rule="evenodd" d="M8 6C6.89543 6 6 6.89543 6 8V40C6 41.1046 6.89543 42 8 42H40C41.1046 42 42 41.1046 42 40V8C42 6.89543 41.1046 6 40 6H8ZM19.5012 25H17C15.8954 25 15 25.8954 15 27V30.5H33V27C33 25.8954 32.1046 25 31 25H28.4988C26.0026 24.6425 26.5602 22.2491 27.0845 19.9992C27.2949 19.096 27.5 18.216 27.5 17.5C27.5 15.567 25.933 14 24 14C22.067 14 20.5 15.567 20.5 17.5C20.5 18.216 20.7051 19.096 20.9155 19.9992C21.4398 22.2491 21.9974 24.6425 19.5012 25ZM16 34V32H32V34H16Z" fill="#B6C2CD"/>
<path d="M16 32H32V34H16V32Z" fill="#324558"/>
<path d="M15 27C15 25.8954 15.8954 25 17 25H31C32.1046 25 33 25.8954 33 27V30.5H15V27Z" fill="#324558"/>
<path d="M27.5 17.5C27.5 19.433 24 21 24 21C24 21 20.5 19.433 20.5 17.5C20.5 15.567 22.067 14 24 14C25.933 14 27.5 15.567 27.5 17.5Z" fill="#324558"/>
<path d="M27.5 17.5C27.5 20 25 24.5 28.5 25.0002H23.75V18L27.5 17.5Z" fill="#324558"/>
<path d="M20.5 17.5C20.5 20 23 24.5 19.5 25.0002H24.25V18L20.5 17.5Z" fill="#324558"/>
</svg>
