<svg width="48" height="48" viewBox="0 0 48 48" fill="none" xmlns="http://www.w3.org/2000/svg">
<path fill-rule="evenodd" clip-rule="evenodd" d="M9.87899 12C8.82286 12 7.94876 12.8212 7.88288 13.8752L6.13288 41.8752C6.06092 43.0266 6.97534 44 8.12898 44H39.8712C41.0248 44 41.9392 43.0266 41.8673 41.8752L40.1173 13.8752C40.0514 12.8212 39.1773 12 38.1212 12H9.87899ZM33.5002 18C33.5002 23.2467 29.2469 27.5 24.0002 27.5C18.7534 27.5 14.5002 23.2467 14.5002 18V16L17.5002 16V18C17.5002 21.5898 20.4103 24.5 24.0002 24.5C27.59 24.5 30.5002 21.5899 30.5002 18L30.5002 16H33.5002V18Z" fill="#B6C2CD"/>
<path d="M18.3416 12H14.2002C15.1267 7.43552 19.1622 4 24.0002 4C28.8381 4 32.8736 7.43552 33.8001 12H29.6587C28.8351 9.66962 26.6126 8 24.0002 8C21.3877 8 19.1652 9.66962 18.3416 12Z" fill="#324558"/>
<path d="M24.0002 27.5C29.2469 27.5 33.5002 23.2467 33.5002 18L33.5002 16H30.5002L30.5002 18C30.5002 21.5899 27.59 24.5 24.0002 24.5C20.4103 24.5 17.5002 21.5898 17.5002 18L17.5002 16L14.5002 16L14.5002 18C14.5002 23.2467 18.7534 27.5 24.0002 27.5Z" fill="#324558"/>
</svg>
