<svg width="48" height="48" viewBox="0 0 48 48" fill="none" xmlns="http://www.w3.org/2000/svg">
<path fill-rule="evenodd" clip-rule="evenodd" d="M42 20.0004C41.9331 20.0506 41.865 20.0992 41.7955 20.1461C40.9975 20.6852 40.0355 21 39 21C36.2386 21 34 18.7614 34 16C34 18.7614 31.7614 21 29 21C26.2386 21 24 18.7614 24 16C24 18.7614 21.7614 21 19 21C16.2386 21 14 18.7614 14 16C14 18.7614 11.7614 21 9 21C7.87439 21 6.83566 20.6281 6 20.0004V40C6 41.1046 6.89543 42 8 42H14V30H22V42H40C41.1046 42 42 41.1046 42 40V20.0004ZM28 30H34V36H28V30Z" fill="#B6C2CD"/>
<path d="M7.08267 7.32998C7.36618 6.53262 8.12084 6 8.9671 6H39.0329C39.8792 6 40.6338 6.53262 40.9173 7.32998L44 16C44 18.7614 41.7614 21 39 21C36.2386 21 34 18.7614 34 16C34 18.7614 31.7614 21 29 21C26.2386 21 24 18.7614 24 16C24 18.7614 21.7614 21 19 21C16.2386 21 14 18.7614 14 16C14 18.7614 11.7614 21 9 21C6.23858 21 4 18.7614 4 16L7.08267 7.32998Z" fill="#324558"/>
<path d="M28 30H34V36H28V30Z" fill="#324558"/>
<path d="M22 30H14V42H22V30Z" fill="#324558"/>
</svg>
