<svg width="48" height="48" viewBox="0 0 48 48" fill="none" xmlns="http://www.w3.org/2000/svg">
<path fill-rule="evenodd" clip-rule="evenodd" d="M7.88288 13.8752C7.94876 12.8212 8.82286 12 9.87898 12H38.1212C39.1773 12 40.0514 12.8212 40.1173 13.8752L40.8751 26H22.0001V44H8.12898C6.97534 44 6.06092 43.0266 6.13288 41.8752L7.88288 13.8752ZM30.0001 18H18.0001V21H30.0001V18Z" fill="#B6C2CD"/>
<path d="M18.3416 12H14.2002C15.1267 7.43552 19.1622 4 24.0002 4C28.8381 4 32.8736 7.43552 33.8001 12H29.6587C28.8351 9.66961 26.6126 8 24.0002 8C21.3877 8 19.1652 9.66961 18.3416 12Z" fill="#324558"/>
<path d="M25.0001 29H29.0001V45H25.0001V29Z" fill="#324558"/>
<path d="M36.0001 29H45.0001V45H36.0001V29Z" fill="#324558"/>
<path d="M31.0001 29H34.0001V45H31.0001V29Z" fill="#324558"/>
</svg>
