<svg width="48" height="48" viewBox="0 0 48 48" fill="none" xmlns="http://www.w3.org/2000/svg">
<path fill-rule="evenodd" clip-rule="evenodd" d="M20 4H38C39.1046 4 40 4.89543 40 6V42C40 43.1046 39.1046 44 38 44H10C8.89543 44 8 43.1046 8 42V16L20 4ZM15 21H19V30H15V21ZM22 21H26V24H22V21ZM22 27H26V36H22V27ZM15 33H19V36H15V33ZM29 21H33V30H29V21ZM29 33H33V36H29V33Z" fill="#B6C2CD"/>
<path d="M19 21H15V30H19V21Z" fill="#324558"/>
<path d="M26 21H22V24H26V21Z" fill="#324558"/>
<path d="M22 27H26V36H22V27Z" fill="#324558"/>
<path d="M19 33H15V36H19V33Z" fill="#324558"/>
<path d="M29 21H33V30H29V21Z" fill="#324558"/>
<path d="M33 33H29V36H33V33Z" fill="#324558"/>
</svg>
