<svg width="48" height="48" viewBox="0 0 48 48" fill="none" xmlns="http://www.w3.org/2000/svg">
<path fill-rule="evenodd" clip-rule="evenodd" d="M7 10V32C7 33.1046 7.89543 34 9 34H39C40.1046 34 41 33.1046 41 32V10H7ZM14 20H18V28H14V20ZM22 14H26V28H22V14ZM30 22H34V28H30V22Z" fill="#B6C2CD"/>
<path d="M4 6H44V10H4V6Z" fill="#324558"/>
<path d="M15.9372 34L9.08008 42H14.3484L21.2055 34H15.9372Z" fill="#324558"/>
<path d="M26.7945 34L33.6517 42H38.92L32.0628 34H26.7945Z" fill="#324558"/>
<path d="M18 20H14V28H18V20Z" fill="#324558"/>
<path d="M22 14H26V28H22V14Z" fill="#324558"/>
<path d="M34 22H30V28H34V22Z" fill="#324558"/>
</svg>
