<svg width="48" height="48" viewBox="0 0 48 48" fill="none" xmlns="http://www.w3.org/2000/svg">
<path fill-rule="evenodd" clip-rule="evenodd" d="M7 10V32C7 33.1046 7.89543 34 9 34H39C40.1046 34 41 33.1046 41 32V10H7ZM35.4144 17.4142L25.5002 27.3285L21.0002 22.8285L16.4144 27.4142L13.5859 24.5858L21.0002 17.1716L25.5002 21.6716L32.5859 14.5858L35.4144 17.4142Z" fill="#B6C2CD"/>
<path d="M4 6H44V10H4V6Z" fill="#324558"/>
<path d="M15.9372 34L9.08008 42H14.3484L21.2055 34H15.9372Z" fill="#324558"/>
<path d="M26.7945 34L33.6517 42H38.92L32.0628 34H26.7945Z" fill="#324558"/>
<path d="M25.5002 27.3285L35.4144 17.4142L32.5859 14.5858L25.5002 21.6716L21.0002 17.1716L13.5859 24.5858L16.4144 27.4142L21.0002 22.8285L25.5002 27.3285Z" fill="#324558"/>
</svg>
