<svg width="48" height="48" viewBox="0 0 48 48" fill="none" xmlns="http://www.w3.org/2000/svg">
<path fill-rule="evenodd" clip-rule="evenodd" d="M24 40C32.8366 40 40 32.8366 40 24C40 15.1634 32.8366 8 24 8C15.1634 8 8 15.1634 8 24C8 32.8366 15.1634 40 24 40ZM24 44C35.0457 44 44 35.0457 44 24C44 12.9543 35.0457 4 24 4C12.9543 4 4 12.9543 4 24C4 35.0457 12.9543 44 24 44Z" fill="#B6C2CD"/>
<path fill-rule="evenodd" clip-rule="evenodd" d="M24 40C24.749 40 25.486 39.9485 26.2076 39.849L26.62 31.6005C26.8329 27.3428 30.347 24 34.61 24H40C40 21.8782 39.587 19.8529 38.837 18H9.16303C8.41301 19.8529 8 21.8782 8 24H13.39C17.653 24 21.1671 27.3428 21.38 31.6005L21.7924 39.849C22.514 39.9485 23.251 40 24 40ZM24 27C25.6569 27 27 25.6569 27 24C27 22.3431 25.6569 21 24 21C22.3431 21 21 22.3431 21 24C21 25.6569 22.3431 27 24 27Z" fill="#324558"/>
</svg>
