<svg width="48" height="48" viewBox="0 0 48 48" fill="none" xmlns="http://www.w3.org/2000/svg">
<path d="M38 24C38 31.732 31.732 38 24 38C16.268 38 10 31.732 10 24C10 16.268 16.268 10 24 10C31.732 10 38 16.268 38 24Z" fill="#B6C2CD"/>
<path d="M22 2H26V7.11641C25.344 7.03953 24.6766 7 24 7C23.3234 7 22.656 7.03953 22 7.11641V2Z" fill="#324558"/>
<path d="M13.4764 10.6479L9.85785 7.02939L7.02943 9.85782L10.648 13.4764C11.4766 12.4264 12.4265 11.4766 13.4764 10.6479Z" fill="#324558"/>
<path d="M7.11641 22H2V26H7.11641C7.03953 25.344 7 24.6766 7 24C7 23.3234 7.03953 22.656 7.11641 22Z" fill="#324558"/>
<path d="M10.6479 34.5236L7.02945 38.1421L9.85788 40.9705L13.4764 37.352C12.4264 36.5234 11.4766 35.5736 10.6479 34.5236Z" fill="#324558"/>
<path d="M22 40.8836V46H26V40.8836C25.344 40.9605 24.6766 41 24 41C23.3234 41 22.656 40.9605 22 40.8836Z" fill="#324558"/>
<path d="M34.5236 37.352L38.1421 40.9705L40.9706 38.1421L37.3521 34.5236C36.5234 35.5735 35.5736 36.5234 34.5236 37.352Z" fill="#324558"/>
<path d="M40.8836 26H46V22H40.8836C40.9605 22.656 41 23.3234 41 24C41 24.6766 40.9605 25.344 40.8836 26Z" fill="#324558"/>
<path d="M37.352 13.4764L40.9706 9.85785L38.1422 7.02942L34.5236 10.6479C35.5736 11.4766 36.5234 12.4264 37.352 13.4764Z" fill="#324558"/>
</svg>
