<svg width="48" height="48" viewBox="0 0 48 48" fill="none" xmlns="http://www.w3.org/2000/svg">
<path fill-rule="evenodd" clip-rule="evenodd" d="M34.1601 41.2308C31.1825 42.9903 27.7091 44 24 44C12.9543 44 4 35.0457 4 24C4 12.9543 12.9543 4 24 4C27.7092 4 31.1825 5.00971 34.1601 6.76927L28.181 12.7484C29.1739 13.1174 30.1047 13.6141 30.9535 14.2186L36.6577 8.51432C37.692 9.36073 38.6399 10.3087 39.4863 11.343L33.7821 17.0472C34.3865 17.896 34.8832 18.8268 35.2523 19.8197L41.2312 13.8407C42.9905 16.8182 44 20.2912 44 24C44 27.7088 42.9905 31.1819 41.2312 34.1593L35.2523 28.1804C34.8833 29.1733 34.3866 30.1041 33.7822 30.9529L39.4863 36.657C38.6399 37.6913 37.692 38.6393 36.6577 39.4857L30.9536 33.7816C30.1048 34.386 29.174 34.8827 28.1811 35.2518L34.1601 41.2308ZM36 24C36 30.6274 30.6274 36 24 36C22.53 36 21.1216 35.7357 19.82 35.2519L13.8408 41.2311C12.963 40.7124 12.1282 40.1285 11.3432 39.4861L17.0474 33.7819C15.9543 33.0035 14.9972 32.0464 14.2187 30.9533L8.51454 36.6575C7.87214 35.8725 7.28825 35.0377 6.76953 34.1599L12.7484 28.181C12.2645 26.8791 12 25.4704 12 24C12 22.5296 12.2645 21.121 12.7484 19.8191L6.76959 13.8403C7.28831 12.9624 7.87221 12.1276 8.51461 11.3426L14.2187 17.0467C14.9971 15.9536 15.9542 14.9965 17.0474 14.2182L11.3433 8.51402C12.1283 7.87163 12.9631 7.28775 13.8409 6.76904L19.82 12.7481C21.1216 12.2643 22.5299 12 24 12C30.6274 12 36 17.3726 36 24Z" fill="#B6C2CD"/>
<path d="M39.4865 11.3428C40.1289 12.1278 40.7128 12.9626 41.2315 13.8405L35.2523 19.8197C34.8832 18.8268 34.3865 17.896 33.7821 17.0472L39.4865 11.3428Z" fill="#324558"/>
<path d="M34.1602 6.76916C35.0381 7.28788 35.8729 7.87176 36.6579 8.51417L30.9535 14.2186C30.1047 13.6141 29.1739 13.1174 28.181 12.7484L34.1602 6.76916Z" fill="#324558"/>
<path d="M11.3433 8.51402C12.1283 7.87163 12.9631 7.28775 13.8409 6.76904L19.8202 12.7483C18.8273 13.1173 17.8965 13.614 17.0477 14.2184L11.3433 8.51402Z" fill="#324558"/>
<path d="M6.76959 13.8403C7.28831 12.9624 7.87221 12.1276 8.51461 11.3426L14.219 17.047C13.6146 17.8958 13.1179 18.8266 12.7488 19.8195L6.76959 13.8403Z" fill="#324558"/>
<path d="M39.4866 36.6573C40.129 35.8723 40.7128 35.0375 41.2316 34.1597L35.2523 28.1804C34.8833 29.1733 34.3866 30.1041 33.7822 30.9529L39.4866 36.6573Z" fill="#324558"/>
<path d="M36.658 39.486L30.9536 33.7816C30.1048 34.386 29.174 34.8827 28.1811 35.2518L34.1603 41.231C35.0382 40.7123 35.8729 40.1284 36.658 39.486Z" fill="#324558"/>
<path d="M13.8408 41.2311L19.8201 35.2519C18.8272 34.8828 17.8964 34.3861 17.0476 33.7817L11.3432 39.4861C12.1282 40.1285 12.963 40.7124 13.8408 41.2311Z" fill="#324558"/>
<path d="M8.51454 36.6575L14.2189 30.9531C13.6145 30.1043 13.1178 29.1735 12.7488 28.1806L6.76953 34.1599C7.28825 35.0377 7.87214 35.8725 8.51454 36.6575Z" fill="#324558"/>
</svg>
