<svg width="48" height="48" viewBox="0 0 48 48" fill="none" xmlns="http://www.w3.org/2000/svg">
<path fill-rule="evenodd" clip-rule="evenodd" d="M6 13C4.89543 13 4 13.8954 4 15V41C4 42.1046 4.89543 43 6 43H42C43.1046 43 44 42.1046 44 41V15C44 13.8954 43.1046 13 42 13H6ZM30 20H10V36H30V20ZM37 24C38.1046 24 39 23.1046 39 22C39 20.8954 38.1046 20 37 20C35.8954 20 35 20.8954 35 22C35 23.1046 35.8954 24 37 24ZM39 29C39 30.1046 38.1046 31 37 31C35.8954 31 35 30.1046 35 29C35 27.8954 35.8954 27 37 27C38.1046 27 39 27.8954 39 29Z" fill="#B6C2CD"/>
<path d="M22.9124 9.08405C23.2668 9.02876 23.6301 9.00006 24 9.00006C24.3699 9.00006 24.7331 9.02875 25.0876 9.08404L30.5858 3.58582L33.4142 6.41424L28.8632 10.9652C29.4651 11.5468 29.963 12.2352 30.3263 13H17.6737C18.037 12.2352 18.5349 11.5468 19.1368 10.9653L14.5858 6.4143L17.4142 3.58587L22.9124 9.08405Z" fill="#324558"/>
<path d="M10 20H30V36H10V20Z" fill="#324558"/>
<path d="M37 24C38.1046 24 39 23.1046 39 22C39 20.8954 38.1046 20 37 20C35.8954 20 35 20.8954 35 22C35 23.1046 35.8954 24 37 24Z" fill="#324558"/>
<path d="M37 31C38.1046 31 39 30.1046 39 29C39 27.8954 38.1046 27 37 27C35.8954 27 35 27.8954 35 29C35 30.1046 35.8954 31 37 31Z" fill="#324558"/>
</svg>
