<svg width="48" height="48" viewBox="0 0 48 48" fill="none" xmlns="http://www.w3.org/2000/svg">
<path fill-rule="evenodd" clip-rule="evenodd" d="M24 44C35.0457 44 44 35.0457 44 24C44 12.9543 35.0457 4 24 4C12.9543 4 4 12.9543 4 24C4 35.0457 12.9543 44 24 44ZM34 27.959L33.9997 33.8901C33.3431 33.9627 32.6758 34 31.9997 34C22.0588 34 14 25.9411 14 16C14 15.324 14.0373 14.6567 14.1099 14H20.041C20.0138 14.3297 19.9999 14.6632 19.9999 15C19.9999 16.9295 20.4553 18.7526 21.2644 20.3677L18.6521 21.6739C20.1186 25.1196 22.8804 27.8814 26.3261 29.3479L27.6323 26.7355C29.2475 27.5447 31.0706 28 33 28C33.3368 28 33.6703 27.9862 34 27.959Z" fill="#B6C2CD"/>
<path d="M33.9997 30.8679C33.9996 30.8679 33.9998 30.8679 33.9997 30.8679L34 27.959C33.6703 27.9862 33.3368 28 33 28C31.0706 28 29.2475 27.5447 27.6323 26.7355L26.3261 29.3479C22.8804 27.8814 20.1186 25.1196 18.6521 21.6739L21.2644 20.3677C20.4553 18.7526 19.9999 16.9295 19.9999 15C19.9999 14.6632 20.0138 14.3297 20.041 14H14.1099C14.0373 14.6567 14 15.324 14 16C14 25.9411 22.0588 34 31.9997 34C32.6758 34 33.3431 33.9627 33.9997 33.8901V30.8679Z" fill="#324558"/>
</svg>
