<svg width="48" height="48" viewBox="0 0 48 48" fill="none" xmlns="http://www.w3.org/2000/svg">
<path d="M44 36.8728C44.0001 36.8685 44.0001 36.8643 44.0001 36.86V33.0037C44.0001 32.419 43.5005 31.9609 42.9162 31.9828C42.6123 31.9942 42.3069 32 42.0001 32C38.4969 32 35.169 31.2494 32.1685 29.9003C31.6645 29.6737 31.0641 29.8718 30.817 30.366L28.6785 34.6429C28.6697 34.6606 28.6614 34.6784 28.6537 34.6964C21.7612 31.7632 16.2368 26.2388 13.3036 19.3463C13.3216 19.3386 13.3394 19.3303 13.357 19.3215L17.6339 17.183C18.1282 16.9359 18.3263 16.3356 18.0997 15.8316C16.7506 12.831 16 9.50317 16 6C16 5.69324 16.0058 5.38782 16.0172 5.08385C16.0391 4.49955 15.581 4 14.9963 4H4.21972C4.07453 5.31334 4 6.64796 4 8C4 27.8823 20.1177 44 40 44C41.352 44 42.6867 43.9255 44 43.7803V36.8728Z" fill="#324558"/>
</svg>
