<svg width="48" height="48" viewBox="0 0 48 48" fill="none" xmlns="http://www.w3.org/2000/svg">
<path fill-rule="evenodd" clip-rule="evenodd" d="M9 12L10.8828 42.1248C10.9487 43.1788 11.8228 44 12.8789 44H35.1211C36.1772 44 37.0513 43.1788 37.1172 42.1248L39 12H9ZM22 22V34H18V22H22ZM30 22V34H26V22H30Z" fill="#B6C2CD"/>
<path d="M20 4L18 6H8C6.89543 6 6 6.89543 6 8V12H42V8C42 6.89543 41.1046 6 40 6H30L28 4H20Z" fill="#324558"/>
<path d="M22 22V34H18V22H22Z" fill="#324558"/>
<path d="M30 34V22H26V34H30Z" fill="#324558"/>
</svg>
