<svg width="48" height="48" viewBox="0 0 48 48" fill="none" xmlns="http://www.w3.org/2000/svg">
<path d="M13.9422 5.56071L15.858 9.07296C17.7213 8.05446 19.7962 7.37468 22 7.11641V14.2C22.6462 14.0689 23.3151 14 24 14C24.6849 14 25.3538 14.0689 26 14.2V7.11641C28.2038 7.37468 30.2787 8.05446 32.142 9.07296L34.0578 5.56071C31.0709 3.92806 27.6439 3 24 3C20.3561 3 16.9291 3.92806 13.9422 5.56071Z" fill="#B6C2CD"/>
<path d="M33.8 26C33.9311 25.3538 34 24.6849 34 24C34 23.3151 33.9311 22.6462 33.8 22H40.8836C40.6253 19.7962 39.9455 17.7213 38.927 15.858L42.4393 13.9422C44.0719 16.9291 45 20.3561 45 24C45 27.6439 44.0719 31.0709 42.4393 34.0578L38.927 32.142C39.9455 30.2787 40.6253 28.2038 40.8836 26H33.8Z" fill="#B6C2CD"/>
<path d="M22 33.8C22.6462 33.9311 23.3151 34 24 34C24.6849 34 25.3538 33.9311 26 33.8V40.8836C28.2038 40.6253 30.2787 39.9455 32.142 38.927L34.0578 42.4393C31.0709 44.0719 27.6439 45 24 45C20.3561 45 16.9291 44.0719 13.9422 42.4393L15.858 38.927C17.7213 39.9455 19.7962 40.6253 22 40.8836V33.8Z" fill="#B6C2CD"/>
<path d="M14.2 22C14.0689 22.6462 14 23.3151 14 24C14 24.6849 14.0689 25.3538 14.2 26H7.11641C7.37468 28.2038 8.05446 30.2787 9.07296 32.142L5.56071 34.0578C3.92806 31.0709 3 27.6439 3 24C3 20.3561 3.92806 16.9291 5.56071 13.9422L9.07296 15.858C8.05446 17.7213 7.37468 19.7962 7.11641 22H14.2Z" fill="#B6C2CD"/>
<path fill-rule="evenodd" clip-rule="evenodd" d="M24 34C29.5228 34 34 29.5228 34 24C34 18.4772 29.5228 14 24 14C18.4772 14 14 18.4772 14 24C14 29.5228 18.4772 34 24 34ZM24 28C26.2091 28 28 26.2091 28 24C28 21.7909 26.2091 20 24 20C21.7909 20 20 21.7909 20 24C20 26.2091 21.7909 28 24 28Z" fill="#324558"/>
</svg>
