<svg width="48" height="48" viewBox="0 0 48 48" fill="none" xmlns="http://www.w3.org/2000/svg">
<path d="M2 28C2 15.8497 11.8497 6 24 6C36.1503 6 46 15.8497 46 28H44.1973C43.1599 26.2066 41.2208 25 39 25C36.7792 25 34.8401 26.2066 33.8027 28H32.4857C30.4681 25.557 27.4159 24 24 24C20.5841 24 17.5319 25.557 15.5143 28H14.1973C13.1599 26.2066 11.2208 25 9 25C6.77915 25 4.84012 26.2066 3.80269 28H2Z" fill="#B6C2CD"/>
<path d="M22 2H26V6.08969C25.3413 6.03032 24.6742 6 24 6C23.3258 6 22.6587 6.03032 22 6.08969V2Z" fill="#324558"/>
<path d="M22 40.5V27.2516C22.6392 27.0872 23.3093 27 24 27C24.6907 27 25.3608 27.0872 26 27.2516V40.5C26 43.5376 23.5376 46 20.5 46C17.4624 46 15 43.5376 15 40.5V38H19V40.5C19 41.3284 19.6716 42 20.5 42C21.3284 42 22 41.3284 22 40.5Z" fill="#324558"/>
</svg>
