<svg width="48" height="48" viewBox="0 0 48 48" fill="none" xmlns="http://www.w3.org/2000/svg">
<path fill-rule="evenodd" clip-rule="evenodd" d="M10 19C8.89543 19 8 19.8954 8 21V43C8 44.1046 8.89543 45 10 45H38C39.1046 45 40 44.1046 40 43V21C40 19.8954 39.1046 19 38 19H10ZM26 27V37H22V27H26Z" fill="#B6C2CD"/>
<path d="M17 14V19H13V14C13 7.92487 17.9249 3 24 3C28.8838 3 33.0243 6.18278 34.4603 10.5873L30.5089 11.4192C29.4816 8.83045 26.9545 7 24 7C20.134 7 17 10.134 17 14Z" fill="#324558"/>
<path d="M26 37V27H22V37H26Z" fill="#324558"/>
</svg>
