<svg width="48" height="48" viewBox="0 0 48 48" fill="none" xmlns="http://www.w3.org/2000/svg">
<path d="M8 14C6.89543 14 6 14.8954 6 16V42C6 43.1046 6.89543 44 8 44H29.6929C26.8255 41.6154 25 38.0209 25 34C25 26.8203 30.8203 21 38 21C39.3956 21 40.7399 21.2199 42 21.627V16C42 14.8954 41.1046 14 40 14H8Z" fill="#B6C2CD"/>
<path fill-rule="evenodd" clip-rule="evenodd" d="M12 6C12 4.89543 12.8954 4 14 4H34C35.1046 4 36 4.89543 36 6V14H12V6ZM18 7H22V11H18V7ZM30 7H26V11H30V7Z" fill="#324558"/>
<path fill-rule="evenodd" clip-rule="evenodd" d="M48 34C48 39.5229 43.5228 44 38 44C32.4772 44 28 39.5229 28 34C28 28.4772 32.4772 24 38 24C43.5228 24 48 28.4772 48 34ZM44.0943 31.0259L36.4375 39.1932L31.9057 34.3593L34.0943 32.3075L36.4375 34.8069L41.9057 28.9741L44.0943 31.0259Z" fill="#324558"/>
</svg>
