<svg width="48" height="48" viewBox="0 0 48 48" fill="none" xmlns="http://www.w3.org/2000/svg">
<path d="M38 15H10V29C10 36.0529 15.2154 41.8878 22 42.8582V29H26V42.8582C32.7846 41.8878 38 36.0529 38 29V15Z" fill="#B6C2CD"/>
<path d="M24 4C19.5817 4 16 7.58172 16 12H32C32 7.58172 28.4183 4 24 4Z" fill="#324558"/>
<path d="M10 28V24H5V28H10Z" fill="#324558"/>
<path d="M10 15.7696V15H14.8872L10 10.1128L7.17157 12.9412L10 15.7696Z" fill="#324558"/>
<path d="M7 41.1128L11.9616 36.1511C12.6527 37.312 13.507 38.3645 14.4928 39.2769L9.82843 43.9412L7 41.1128Z" fill="#324558"/>
<path d="M33.5072 39.2769L38.2843 44.0539L41.1127 41.2255L36.0383 36.1511C35.3473 37.312 34.493 38.3645 33.5072 39.2769Z" fill="#324558"/>
<path d="M38 28H43V24H38V28Z" fill="#324558"/>
<path d="M38 15.7696L40.9411 12.8285L38.1127 10.0001L33.1128 15H38V15.7696Z" fill="#324558"/>
</svg>
