<svg width="48" height="48" viewBox="0 0 48 48" fill="none" xmlns="http://www.w3.org/2000/svg">
<path fill-rule="evenodd" clip-rule="evenodd" d="M24 44C35.0457 44 44 35.0457 44 24C44 12.9543 35.0457 4 24 4C12.9543 4 4 12.9543 4 24C4 35.0457 12.9543 44 24 44ZM30.3639 13.3934C27.8973 12.5156 25.0366 13.0639 23.0621 15.0384C20.8198 17.2807 20.4167 20.6656 21.8528 23.3187L14.1005 31.071L16.9289 33.8995L24.6812 26.1471C27.3343 27.5832 30.7193 27.1802 32.9616 24.9379C34.9361 22.9634 35.4844 20.1028 34.6066 17.6361L31.5474 20.6953C30.3758 21.8669 28.4763 21.8669 27.3047 20.6953C26.1331 19.5237 26.1331 17.6242 27.3047 16.4527L30.3639 13.3934Z" fill="#B6C2CD"/>
<path d="M23.0622 15.0384C25.0367 13.0639 27.8974 12.5156 30.3641 13.3934L27.3048 16.4527C26.1333 17.6242 26.1333 19.5237 27.3048 20.6953C28.4764 21.8669 30.3759 21.8669 31.5475 20.6953L34.6067 17.6361C35.4845 20.1028 34.9362 22.9634 32.9617 24.9379C30.7194 27.1802 27.3344 27.5832 24.6814 26.1471L16.929 33.8995L14.1006 31.071L21.8529 23.3187C20.4169 20.6656 20.8199 17.2807 23.0622 15.0384Z" fill="#324558"/>
</svg>
