<svg width="48" height="48" viewBox="0 0 48 48" fill="none" xmlns="http://www.w3.org/2000/svg">
<path fill-rule="evenodd" clip-rule="evenodd" d="M21.2173 20.8907C21.7986 22.1945 22.6241 23.4158 23.6937 24.4853C24.6085 25.4002 25.6343 26.1364 26.7277 26.694L17.8536 35.5682C18.3164 37.7999 17.6818 40.2139 15.9497 41.9459C13.2161 44.6796 8.78392 44.6796 6.05025 41.9459C3.31658 39.2123 3.31658 34.7801 6.05025 32.0464C7.68117 30.4155 9.91665 29.7576 12.0353 30.0727L21.2173 20.8907ZM9.58563 38.4104C10.3667 39.1915 11.633 39.1915 12.4141 38.4104C13.1951 37.6294 13.1951 36.363 12.4141 35.582C11.633 34.8009 10.3667 34.8009 9.58563 35.582C8.80458 36.363 8.80458 37.6294 9.58563 38.4104Z" fill="#B6C2CD"/>
<path d="M35.2867 4.40726C31.2833 3.33815 26.8347 4.37397 23.6939 7.51472C19.0076 12.201 19.0076 19.799 23.6939 24.4853C28.3802 29.1716 35.9782 29.1716 40.6645 24.4853C43.8052 21.3445 44.8411 16.8959 43.7719 12.8925L38.5432 18.1213L32.1792 16L30.0579 9.63604L35.2867 4.40726Z" fill="#324558"/>
</svg>
