<svg width="48" height="48" viewBox="0 0 48 48" fill="none" xmlns="http://www.w3.org/2000/svg">
<path fill-rule="evenodd" clip-rule="evenodd" d="M8 6C6.89543 6 6 6.89543 6 8V40C6 41.1046 6.89543 42 8 42H40C41.1046 42 42 41.1046 42 40V8C42 6.89543 41.1046 6 40 6H8ZM30.364 14.3934C27.8974 13.5156 25.0367 14.0639 23.0622 16.0384C20.8199 18.2807 20.4169 21.6656 21.853 24.3187L14.1006 32.0711L16.929 34.8995L24.6814 27.1471C27.3345 28.5832 30.7194 28.1802 32.9617 25.9379C34.9362 23.9634 35.4845 21.1027 34.6067 18.6361L31.5475 21.6953C30.3759 22.8668 28.4764 22.8668 27.3048 21.6953C26.1333 20.5237 26.1333 18.6242 27.3048 17.4526L30.364 14.3934Z" fill="#B6C2CD"/>
<path d="M23.0622 16.0384C25.0367 14.0639 27.8974 13.5156 30.364 14.3934L27.3048 17.4526C26.1333 18.6242 26.1333 20.5237 27.3048 21.6953C28.4764 22.8668 30.3759 22.8668 31.5475 21.6953L34.6067 18.6361C35.4845 21.1027 34.9362 23.9634 32.9617 25.9379C30.7194 28.1802 27.3345 28.5832 24.6814 27.1471L16.929 34.8995L14.1006 32.0711L21.853 24.3187C20.4169 21.6656 20.8199 18.2807 23.0622 16.0384Z" fill="#324558"/>
</svg>
