<svg width="48" height="48" viewBox="0 0 48 48" fill="none" xmlns="http://www.w3.org/2000/svg">
<path d="M26 7.10401V1H22V7.10401C22.6573 7.03525 23.3245 7 24 7C24.6755 7 25.3427 7.03525 26 7.10401Z" fill="#324558"/>
<path d="M41.9705 8.85788L37.8429 12.9855C36.9259 12.0105 35.907 11.1324 34.8033 10.3682L39.1421 6.02945L41.9705 8.85788Z" fill="#324558"/>
<path d="M13.1965 10.3683C12.0929 11.1325 11.074 12.0106 10.157 12.9856L6.0293 8.85788L8.85772 6.02945L13.1965 10.3683Z" fill="#324558"/>
<path fill-rule="evenodd" clip-rule="evenodd" d="M43 40V44H5V40H8V26C8 17.1634 15.1634 10 24 10C32.8366 10 40 17.1634 40 26V40H43ZM25.5 26.25V18L18 27.75H22.5V36L30 26.25H25.5Z" fill="#324558"/>
</svg>
