<svg width="48" height="48" viewBox="0 0 48 48" fill="none" xmlns="http://www.w3.org/2000/svg">
<path d="M23 3.57728C23.6188 3.22001 24.3812 3.22001 25 3.57728L30.3384 6.65938L13.0038 16.4979L13 16.4956V27.2107L17 29.5701V19L34.5048 9.06489L41.1865 12.9226C41.8053 13.2798 42.1865 13.9401 42.1865 14.6546V33.3452C42.1865 34.0598 41.8053 34.72 41.1865 35.0773L25 44.4226C24.3812 44.7798 23.6188 44.7798 23 44.4226L6.81348 35.0773C6.19467 34.72 5.81348 34.0598 5.81348 33.3452V14.6546C5.81348 13.9401 6.19467 13.2798 6.81348 12.9226L23 3.57728Z" fill="#324558"/>
</svg>
