<svg width="48" height="48" viewBox="0 0 48 48" fill="none" xmlns="http://www.w3.org/2000/svg">
<path d="M32.0207 38.6068L9.39331 15.9794L22.1212 3.25144C22.9023 2.47039 24.1686 2.47039 24.9497 3.25144L27.0709 5.37275L24.9496 11.7367L31.3136 9.61539L36.0966 14.3983L31.1469 23.5907L40.3393 18.641L44.7487 23.0504C45.5297 23.8315 45.5297 25.0978 44.7486 25.8789L32.0207 38.6068Z" fill="#324558"/>
<path fill-rule="evenodd" clip-rule="evenodd" d="M7.27192 18.1006L29.8993 40.728L27.778 42.8493C26.997 43.6304 25.7306 43.6304 24.9496 42.8493L17.4071 35.3069L11.779 42.4563C10.1334 44.5465 7.03171 44.7305 5.15063 42.8494C3.26955 40.9683 3.45352 37.8666 5.54378 36.2211L12.6931 30.5929L5.15061 23.0503C4.36956 22.2693 4.36956 21.003 5.15061 20.2219L7.27192 18.1006ZM7.27194 37.8997C8.05299 37.1186 9.31932 37.1186 10.1004 37.8997C10.8814 38.6807 10.8814 39.9471 10.1004 40.7281C9.31932 41.5092 8.05299 41.5092 7.27194 40.7281C6.49089 39.9471 6.49089 38.6807 7.27194 37.8997Z" fill="#324558"/>
</svg>
