<svg width="48" height="48" viewBox="0 0 48 48" fill="none" xmlns="http://www.w3.org/2000/svg">
<path fill-rule="evenodd" clip-rule="evenodd" d="M39.7803 10.2355L42.1694 18H46C46 19.8673 44.9764 21.4955 43.4598 22.3541L42 34.1193V41C42 41.5523 41.5523 42 41 42H35C34.4477 42 34 41.5523 34 41V38H14V41C14 41.5523 13.5523 42 13 42H7C6.44771 42 6 41.5523 6 41V34.1195L4.54022 22.3541C3.02357 21.4955 2 19.8673 2 18H5.8306L8.21968 10.2355C8.99431 7.71794 11.3203 6 13.9544 6H34.0456C36.6797 6 39.0057 7.71794 39.7803 10.2355ZM12.0428 11.4118C12.301 10.5726 13.0763 10 13.9544 10H34.0456C34.9237 10 35.699 10.5726 35.9572 11.4118L37.9843 18L10.0157 18L12.0428 11.4118ZM31 27H17L18 30H30L31 27ZM8 23H13.5L15 27H12C9.79086 27 8 25.2091 8 23ZM34.5 23H40C40 25.2091 38.2091 27 36 27H33L34.5 23Z" fill="#324558"/>
</svg>
