<svg width="48" height="48" viewBox="0 0 48 48" fill="none" xmlns="http://www.w3.org/2000/svg">
<path d="M20 21C20 22.6569 18.6569 24 17 24C15.3431 24 14 22.6569 14 21C14 19.3431 15.3431 18 17 18C18.6569 18 20 19.3431 20 21Z" fill="#324558"/>
<path fill-rule="evenodd" clip-rule="evenodd" d="M12 8C13.1046 8 14 7.10457 14 6H18C18 7.10457 18.8954 8 20 8C21.1046 8 22 7.10457 22 6H26C26 7.10457 26.8954 8 28 8C29.1046 8 30 7.10457 30 6H34C34 7.10457 34.8954 8 36 8C37.1046 8 38 7.10457 38 6H40C41.1046 6 42 6.89543 42 8V40C42 41.1046 41.1046 42 40 42H38C38 40.8954 37.1046 40 36 40C34.8954 40 34 40.8954 34 42H30C30 40.8954 29.1046 40 28 40C26.8954 40 26 40.8954 26 42H22C22 40.8954 21.1046 40 20 40C18.8954 40 18 40.8954 18 42H14C14 40.8954 13.1046 40 12 40C10.8954 40 10 40.8954 10 42H8C6.89543 42 6 41.1046 6 40V8C6 6.89543 6.89543 6 8 6H10C10 7.10457 10.8954 8 12 8ZM20.2551 26.0411C21.9069 24.9723 23 23.1138 23 21C23 17.6863 20.3137 15 17 15C13.6863 15 11 17.6863 11 21C11 23.1138 12.0931 24.9723 13.7449 26.0411L13 32L17 28.5L21 32L20.2551 26.0411ZM27 16H34V19H27V16ZM37 22H27V25H37V22ZM34 28H27V31H34V28Z" fill="#324558"/>
</svg>
