<svg width="48" height="48" viewBox="0 0 48 48" fill="none" xmlns="http://www.w3.org/2000/svg">
<path d="M27.5355 10.565L21.8784 16.2221L19.0502 13.3939L13.3934 19.0508L16.2215 21.8789L10.5649 27.5356C7.83123 30.2693 7.83123 34.7014 10.5649 37.4351C13.2986 40.1688 17.7307 40.1688 20.4644 37.4351L26.121 31.7784L28.9495 34.6069L23.2928 40.2635C18.9971 44.5593 12.0322 44.5593 7.73647 40.2635C3.44071 35.9677 3.44071 29.0029 7.73647 24.7072L24.707 7.7366C29.0028 3.44083 35.9676 3.44083 40.2634 7.7366C44.5592 12.0324 44.5592 18.9972 40.2634 23.2929L34.6063 28.95L31.7779 26.1216L37.435 20.4645C40.1686 17.7308 40.1686 13.2987 37.435 10.565C34.7013 7.83135 30.2691 7.83135 27.5355 10.565Z" fill="#324558"/>
<path d="M29.6568 15.5151L15.5146 29.6572L18.3431 32.4857L32.4852 18.3435L29.6568 15.5151Z" fill="#324558"/>
</svg>
