<svg width="48" height="48" viewBox="0 0 48 48" fill="none" xmlns="http://www.w3.org/2000/svg">
<path d="M15.8874 4.99655L17.4403 10.7921L20.338 10.0156L18.7851 4.22009L15.8874 4.99655Z" fill="#324558"/>
<path d="M7.22179 9.34317L12.8786 15L15 12.8787L9.34311 7.22185L7.22179 9.34317Z" fill="#324558"/>
<path d="M4.21973 18.7852L10.0153 20.3381L10.7917 17.4403L4.99618 15.8874L4.21973 18.7852Z" fill="#324558"/>
<path d="M24.0004 15.5152L28.2435 11.272C30.5867 8.92886 34.3857 8.92886 36.7288 11.272C39.072 13.6152 39.072 17.4141 36.7288 19.7573L32.4857 24.0004L35.3141 26.8289L39.5573 22.5857C43.4625 18.6805 43.4625 12.3488 39.5573 8.44358C35.652 4.53834 29.3204 4.53834 25.4151 8.44358L21.172 12.6867L24.0004 15.5152Z" fill="#324558"/>
<path d="M15.5151 24.0004L12.6867 21.172L8.44456 25.4141C4.53931 29.3194 4.53931 35.651 8.44456 39.5563C12.3498 43.4615 18.6815 43.4615 22.5867 39.5563L26.8288 35.3141L24.0004 32.4857L19.7583 36.7279C17.4151 39.071 13.6161 39.071 11.273 36.7279C8.92984 34.3847 8.92984 30.5857 11.273 28.2426L15.5151 24.0004Z" fill="#324558"/>
<path d="M37.2074 30.5637L43.003 32.1166L43.7794 29.2188L37.9839 27.6659L37.2074 30.5637Z" fill="#324558"/>
<path d="M29.214 43.7842L27.6611 37.9886L30.5589 37.2122L32.1118 43.0077L29.214 43.7842Z" fill="#324558"/>
<path d="M38.6562 40.7819L32.9994 35.1251L35.1207 33.0038L40.7775 38.6606L38.6562 40.7819Z" fill="#324558"/>
</svg>
