<svg width="48" height="48" viewBox="0 0 48 48" fill="none" xmlns="http://www.w3.org/2000/svg">
<path fill-rule="evenodd" clip-rule="evenodd" d="M7.73647 40.2634C3.44071 35.9676 3.44071 29.0028 7.73647 24.707L13.7462 18.6973L5.96869 10.9199L8.79712 8.09143L39.9098 39.2041L37.0814 42.0326L29.3025 34.2537L23.2928 40.2634C18.9971 44.5592 12.0322 44.5592 7.73647 40.2634ZM10.5649 27.5355L16.5746 21.5258L20.1103 25.0615L15.5146 29.6571L18.3431 32.4855L22.9387 27.8899L26.4741 31.4253L20.4644 37.435C17.7307 40.1686 13.2986 40.1686 10.5649 37.435C7.83123 34.7013 7.83123 30.2691 10.5649 27.5355Z" fill="#324558"/>
<path d="M34.2523 29.3039L40.2634 23.2928C44.5592 18.9971 44.5592 12.0322 40.2634 7.73647C35.9676 3.44071 29.0028 3.44071 24.707 7.73647L18.6959 13.7476L21.5244 16.576L27.5355 10.5649C30.2691 7.83123 34.7013 7.83123 37.435 10.5649C40.1686 13.2986 40.1686 17.7307 37.435 20.4644L31.4239 26.4755L34.2523 29.3039Z" fill="#324558"/>
<path d="M27.8885 22.9401L32.4852 18.3434L29.6568 15.515L25.0601 20.1117L27.8885 22.9401Z" fill="#324558"/>
</svg>
