<svg width="48" height="48" viewBox="0 0 48 48" fill="none" xmlns="http://www.w3.org/2000/svg">
<path d="M24.0001 4C29.3633 4 34.1318 6.54647 37.1624 10.4963L34.1973 13.4615C31.9492 10.2472 28.2201 8.14513 24 8.14513C19.78 8.14513 16.0509 10.2472 13.8028 13.4614L10.8376 10.4963C13.8683 6.54647 18.6368 4 24.0001 4Z" fill="#324558"/>
<path d="M32.7042 14.9545C30.8578 12.1039 27.6492 10.2177 24 10.2177C20.3508 10.2177 17.1422 12.1039 15.2959 14.9545L18.3414 18C19.3216 15.854 21.4866 14.3627 24 14.3627C26.5134 14.3627 28.6785 15.854 29.6586 18L32.7042 14.9545Z" fill="#324558"/>
<path fill-rule="evenodd" clip-rule="evenodd" d="M22 17H26V22H36.1379C36.8564 22 37.5197 22.3854 37.8755 23.0096L43 32V42C43 43.1046 42.1046 44 41 44H7C5.89543 44 5 43.1046 5 42V32L10.1245 23.0096C10.4803 22.3854 11.1436 22 11.8621 22H22V17ZM39 36H9V40H39V36Z" fill="#324558"/>
</svg>
