<svg width="48" height="48" viewBox="0 0 48 48" fill="none" xmlns="http://www.w3.org/2000/svg">
<path d="M32.9999 24C32.9999 25.1995 32.7651 26.3443 32.339 27.3909L39.0024 34.0542C42.8819 30.4755 44.9869 26.3084 45.7093 24.6909C45.9065 24.2494 45.9065 23.7506 45.7093 23.3091C44.339 20.2409 37.9947 8 23.9999 8C20.505 8 17.4872 8.7634 14.9048 9.95671L20.609 15.6609C21.6556 15.2348 22.8004 15 23.9999 15C28.9697 15 32.9999 19.0302 32.9999 24Z" fill="#324558"/>
<path fill-rule="evenodd" clip-rule="evenodd" d="M39.9097 39.2043L37.0813 42.0327L33.0929 38.0443C30.511 39.237 27.4939 40 23.9999 40C10.0051 40 3.66084 27.7591 2.29048 24.6909C2.09328 24.2494 2.09328 23.7506 2.29048 23.3091C3.01284 21.6918 5.11727 17.5257 8.99582 13.9472L5.96857 10.92L8.797 8.09155L39.9097 39.2043ZM15.6599 20.6113C15.2344 21.6573 14.9999 22.8013 14.9999 24C14.9999 28.9698 19.0301 33 23.9999 33C25.1986 33 26.3426 32.7655 27.3886 32.34L24.0484 28.9998C24.0322 28.9999 24.0161 29 23.9999 29C21.2385 29 18.9999 26.7614 18.9999 24C18.9999 23.9838 19 23.9677 19.0001 23.9515L15.6599 20.6113Z" fill="#324558"/>
<path d="M28.9996 24.0515L23.9484 19.0003L23.9999 19C26.7613 19 28.9999 21.2386 28.9999 24L28.9996 24.0515Z" fill="#324558"/>
</svg>
