<svg width="48" height="48" viewBox="0 0 48 48" fill="none" xmlns="http://www.w3.org/2000/svg">
<path d="M18.9999 24C18.9999 21.2386 21.2385 19 23.9999 19C26.7613 19 28.9999 21.2386 28.9999 24C28.9999 26.7614 26.7613 29 23.9999 29C21.2385 29 18.9999 26.7614 18.9999 24Z" fill="#324558"/>
<path fill-rule="evenodd" clip-rule="evenodd" d="M23.9999 8C10.0051 8 3.66084 20.2409 2.29048 23.3091C2.09328 23.7506 2.09328 24.2494 2.29048 24.6909C3.66084 27.7591 10.0051 40 23.9999 40C37.9947 40 44.3389 27.7591 45.7093 24.6909C45.9065 24.2494 45.9065 23.7506 45.7093 23.3091C44.3389 20.2409 37.9947 8 23.9999 8ZM23.9999 15C28.9697 15 32.9999 19.0302 32.9999 24C32.9999 28.9698 28.9697 33 23.9999 33C19.0301 33 14.9999 28.9698 14.9999 24C14.9999 19.0302 19.0301 15 23.9999 15Z" fill="#324558"/>
</svg>
