<svg width="48" height="48" viewBox="0 0 48 48" fill="none" xmlns="http://www.w3.org/2000/svg">
<path fill-rule="evenodd" clip-rule="evenodd" d="M6 8C6 6.89543 6.89543 6 8 6H40C41.1046 6 42 6.89543 42 8V40C42 41.1046 41.1046 42 40 42H8C6.89543 42 6 41.1046 6 40V8ZM13 11C13 12.1046 12.1046 13 11 13C9.89543 13 9 12.1046 9 11C9 9.89543 9.89543 9 11 9C12.1046 9 13 9.89543 13 11ZM37 13C38.1046 13 39 12.1046 39 11C39 9.89543 38.1046 9 37 9C35.8954 9 35 9.89543 35 11C35 12.1046 35.8954 13 37 13ZM13 37C13 38.1046 12.1046 39 11 39C9.89543 39 9 38.1046 9 37C9 35.8954 9.89543 35 11 35C12.1046 35 13 35.8954 13 37ZM37 39C38.1046 39 39 38.1046 39 37C39 35.8954 38.1046 35 37 35C35.8954 35 35 35.8954 35 37C35 38.1046 35.8954 39 37 39ZM28.8382 13.0335C29.308 13.5275 29.5241 14.0463 29.5522 14.6373C29.5821 15.2656 29.4027 16.0879 28.8659 17.1417C28.3827 18.0903 27.881 18.6943 27.4022 19.0571C26.4353 18.3904 25.2633 18 24 18C23.7072 18 23.4193 18.021 23.1377 18.0615C22.7535 16.9391 22.0183 15.8981 21.0507 14.9304C20.3286 14.2084 19.5657 13.6158 18.7587 13.2019C20.3423 12.4318 22.1207 11.9998 24 11.9998C25.7266 11.9998 27.368 12.3644 28.8514 13.0209L28.8382 13.0335ZM30 24C30 23.0387 29.7739 22.1302 29.372 21.3247C30.2454 20.6169 30.9561 19.6477 31.5388 18.504C32.0447 17.5107 32.3875 16.5167 32.5076 15.5369C34.6661 17.7067 36 20.6974 36 23.9998C36 24.0652 35.9995 24.1305 35.9984 24.1958C35.6554 24.5228 35.2178 24.841 34.7037 25.1043C33.7617 25.5869 32.7134 25.8075 31.7626 25.6567C30.9714 25.5313 30.3625 25.3357 29.8993 25.1003C29.9654 24.7436 30 24.3758 30 24ZM24 30C25.863 30 27.5277 29.1509 28.6282 27.8186C29.4205 28.2074 30.3198 28.4655 31.2938 28.6199C32.6845 28.8404 34.0621 28.6096 35.2676 28.1372C33.9483 31.7291 30.9605 34.5152 27.2435 35.5563C26.7064 35.4144 25.9917 34.9635 25.3182 34.172C24.6111 33.3409 24.0907 32.2946 23.9291 31.2755C23.853 30.7956 23.8222 30.3715 23.8277 29.9976C23.885 29.9992 23.9424 30 24 30ZM18.2061 25.5647C18.6108 27.0672 19.5845 28.3365 20.8819 29.1272C20.7834 29.9529 20.8212 30.8315 20.9659 31.7443C21.2144 33.3116 21.9525 34.7879 22.8955 35.9496C18.5868 35.5564 14.9364 32.8855 13.1588 29.1511C13.2783 28.922 13.4298 28.6782 13.6178 28.4232C14.266 27.5438 15.2044 26.737 16.1919 26.2339C16.9909 25.8269 17.6569 25.6253 18.2061 25.5647ZM20.3589 19.2307C19.2918 20.0466 18.5066 21.2125 18.1747 22.5569C17.0731 22.6268 15.9508 22.9899 14.8296 23.561C13.8316 24.0694 12.8926 24.7755 12.1038 25.5848C12.0353 25.0662 12 24.5371 12 23.9998C12 20.8042 13.249 17.9005 15.2855 15.75C15.8125 15.5187 16.3072 15.4905 16.8321 15.6449C17.4106 15.815 18.1129 16.2353 18.9293 17.0518C19.7458 17.8682 20.1661 18.5705 20.3362 19.149C20.3443 19.1763 20.3518 19.2036 20.3589 19.2307ZM24 27C25.6569 27 27 25.6569 27 24C27 22.3431 25.6569 21 24 21C22.3431 21 21 22.3431 21 24C21 25.6569 22.3431 27 24 27Z" fill="#324558"/>
</svg>
