<svg width="48" height="48" viewBox="0 0 48 48" fill="none" xmlns="http://www.w3.org/2000/svg">
<path d="M37.9996 22V25.5C37.9996 30.9657 37.0554 36.385 35.2138 41.5198L39.0897 42.5583C41.0136 37.0833 41.9996 31.3159 41.9996 25.5V22C41.9996 12.0589 33.9407 4 23.9996 4C18.7311 4 13.9912 6.26349 10.6995 9.87107L13.5317 12.7033C16.0962 9.8179 19.8356 8 23.9996 8C31.7316 8 37.9996 14.268 37.9996 22Z" fill="#324558"/>
<path d="M11.2909 16.1193C10.4621 17.9073 9.9996 19.8996 9.9996 22V25.5C9.9996 28.8237 9.67759 32.1315 9.04254 35.3779L5.16895 34.34C5.7202 31.4326 5.9996 28.4732 5.9996 25.5L5.9996 22C5.9996 18.7832 6.84341 15.7635 8.32176 13.1502L11.2909 16.1193Z" fill="#324558"/>
<path d="M29.9996 23C29.9996 19.6863 27.3133 17 23.9996 17C20.6859 17 17.9996 19.6863 17.9996 23V30C17.9996 32.9174 17.5431 35.8129 16.6501 38.5821L12.7807 37.5453C13.5871 35.1146 13.9996 32.5672 13.9996 30V23C13.9996 17.4772 18.4768 13 23.9996 13C29.5224 13 33.9996 17.4772 33.9996 23V28H29.9996V23Z" fill="#324558"/>
<path d="M29.7282 32C29.3524 34.4082 28.7581 36.7787 27.9519 39.0821L26.1119 44.3393L29.8873 45.6607L31.7273 40.4035C32.6825 37.6746 33.3671 34.8598 33.7722 32H29.7282Z" fill="#324558"/>
<path d="M21.9991 22V28.5C21.9991 32.5394 21.2284 36.5418 19.7281 40.2923L18.1422 44.2572L21.8561 45.7428L23.4421 41.7779C25.1313 37.5549 25.9991 33.0483 25.9991 28.5V22H21.9991Z" fill="#324558"/>
</svg>
