<svg width="48" height="48" viewBox="0 0 48 48" fill="none" xmlns="http://www.w3.org/2000/svg">
<path d="M24 29C26.7614 29 29 26.7614 29 24C29 21.2386 26.7614 19 24 19C21.2386 19 19 21.2386 19 24C19 26.7614 21.2386 29 24 29Z" fill="#324558"/>
<path fill-rule="evenodd" clip-rule="evenodd" d="M17 11C17 7.13401 20.134 4 24 4C27.866 4 31 7.13401 31 11V11.8756L31.7583 11.4378C35.1064 9.50482 39.3875 10.6519 41.3205 14C43.2535 17.348 42.1064 21.6292 38.7583 23.5622L37.9999 24L38.7583 24.4379C42.1064 26.3709 43.2535 30.652 41.3205 34C39.3875 37.3481 35.1064 38.4952 31.7583 36.5622L31 36.1244V37C31 40.866 27.866 44 24 44C20.134 44 17 40.866 17 37V36.1243L16.2416 36.5622C12.8936 38.4952 8.61247 37.348 6.67947 34C4.74647 30.6519 5.8936 26.3708 9.24165 24.4378L9.99994 24L9.24165 23.5622C5.8936 21.6292 4.74647 17.3481 6.67947 14C8.61247 10.652 12.8936 9.50487 16.2416 11.4379L17 11.8757V11ZM32 24C32 28.4183 28.4183 32 24 32C19.5817 32 16 28.4183 16 24C16 19.5817 19.5817 16 24 16C28.4183 16 32 19.5817 32 24Z" fill="#324558"/>
</svg>
