<svg width="48" height="48" viewBox="0 0 48 48" fill="none" xmlns="http://www.w3.org/2000/svg">
<path d="M13.8788 16H6C4.89543 16 4 16.8954 4 18L4 30C4 31.1046 4.89543 32 6 32H13.8788L21.8788 24L13.8788 16Z" fill="#324558"/>
<path d="M16 34.1214V42C16 43.1046 16.8954 44 18 44H30C31.1046 44 32 43.1046 32 42V34.1212L24.0001 26.1213L16 34.1214Z" fill="#324558"/>
<path d="M34.1214 32H42C43.1046 32 44 31.1046 44 30V18C44 16.8954 43.1046 16 42 16H34.1214L26.1214 24L34.1214 32Z" fill="#324558"/>
<path d="M32 13.8788V6C32 4.89543 31.1046 4 30 4H18C16.8954 4 16 4.89543 16 6V13.8786L24.0001 21.8787L32 13.8788Z" fill="#324558"/>
</svg>
