<svg width="48" height="48" viewBox="0 0 48 48" fill="none" xmlns="http://www.w3.org/2000/svg">
<path fill-rule="evenodd" clip-rule="evenodd" d="M24 4C22.8954 4 22 4.89543 22 6V12H13.0042C8.9946 12 5.60433 14.9682 5.0744 18.9427L3.20773 32.9427C2.58341 37.6251 6.12513 41.798 10.796 41.9929C13.5758 41.8591 15.93 39.8507 16.4807 37.0971L16.857 35.2155C17.2309 33.3458 18.8726 32 20.7793 32H27.2209C29.1276 32 30.7693 33.3458 31.1432 35.2155L31.5195 37.0971C32.0702 39.8507 34.4244 41.8591 37.2042 41.9929C41.8751 41.798 45.4168 37.6251 44.7924 32.9427L42.9258 18.9427C42.3959 14.9682 39.0056 12 34.996 12H26V8H34V4H24ZM18 26H15V23H12V20H15V17H18V20H21V23H18V26ZM29 17H32V20H29V17ZM38 23H35V26H38V23Z" fill="#324558"/>
</svg>
