<svg width="48" height="48" viewBox="0 0 48 48" fill="none" xmlns="http://www.w3.org/2000/svg">
<path fill-rule="evenodd" clip-rule="evenodd" d="M25 3.5774C24.3812 3.22013 23.6188 3.22013 23 3.5774L6.81348 12.9227C6.19467 13.28 5.81348 13.9402 5.81348 14.6547V33.3453C5.81348 34.0599 6.19467 34.7201 6.81348 35.0774L23 44.4227C23.6188 44.78 24.3812 44.78 25 44.4227L41.1865 35.0774C41.8053 34.7201 42.1865 34.0599 42.1865 33.3453V14.6547C42.1865 13.9402 41.8053 13.28 41.1865 12.9227L25 3.5774ZM24 31C27.866 31 31 27.866 31 24C31 20.134 27.866 17 24 17C20.134 17 17 20.134 17 24C17 27.866 20.134 31 24 31Z" fill="#324558"/>
</svg>
