<svg width="48" height="48" viewBox="0 0 48 48" fill="none" xmlns="http://www.w3.org/2000/svg">
<path fill-rule="evenodd" clip-rule="evenodd" d="M18.8564 3.8053C18.9493 3.33721 19.36 3 19.8372 3H28.163C28.6402 3 29.0509 3.33721 29.1439 3.8053L29.9271 7.75115C29.9947 8.09175 30.235 8.37094 30.5566 8.50188C31.9385 9.06452 33.2316 9.79155 34.4024 10.6724C34.676 10.8783 35.0326 10.9438 35.3569 10.8339L39.2451 9.51622C39.6941 9.36403 40.1884 9.54815 40.4284 9.95707L44.576 17.0225C44.8214 17.4406 44.7316 17.9744 44.363 18.2892L41.2848 20.9179C41.0182 21.1456 40.8923 21.4959 40.9403 21.8432C41.0378 22.5495 41.0973 23.267 41.0973 24C41.0973 24.733 41.0378 25.4505 40.9403 26.1568C40.8923 26.5041 41.0182 26.8544 41.2848 27.0821L44.363 29.7108C44.7316 30.0256 44.8214 30.5594 44.576 30.9775L40.4284 38.0429C40.1884 38.4518 39.6941 38.636 39.2451 38.4838L35.3569 37.1661C35.0326 37.0562 34.676 37.1217 34.4024 37.3276C33.2316 38.2085 31.9385 38.9355 30.5566 39.4981C30.235 39.6291 29.9947 39.9082 29.9271 40.2488L29.1439 44.1947C29.0509 44.6628 28.6402 45 28.163 45H19.8372C19.36 45 18.9493 44.6628 18.8564 44.1947L18.0731 40.2488C18.0055 39.9082 17.7652 39.6291 17.4436 39.4981C16.0617 38.9355 14.7686 38.2085 13.5978 37.3276C13.3242 37.1217 12.9676 37.0562 12.6433 37.1661L8.75517 38.4838C8.30609 38.636 7.81186 38.4518 7.57182 38.0429L3.42427 30.9775C3.17888 30.5594 3.26864 30.0256 3.63727 29.7108L6.71547 27.0821C6.98204 26.8544 7.10794 26.5041 7.05997 26.1568C6.96241 25.4505 6.90292 24.733 6.90292 24C6.90292 23.267 6.96241 22.5495 7.05997 21.8432C7.10794 21.4959 6.98204 21.1456 6.71547 20.9179L3.63727 18.2892C3.26864 17.9744 3.17888 17.4406 3.42427 17.0225L7.57182 9.95707C7.81186 9.54815 8.30609 9.36403 8.75517 9.51622L12.6433 10.8339C12.9676 10.9438 13.3242 10.8783 13.5978 10.6724C14.7686 9.79155 16.0617 9.06452 17.4436 8.50188C17.7652 8.37094 18.0055 8.09175 18.0731 7.75115L18.8564 3.8053ZM24.0001 31C27.8661 31 31.0001 27.866 31.0001 24C31.0001 20.134 27.8661 17 24.0001 17C20.1341 17 17.0001 20.134 17.0001 24C17.0001 27.866 20.1341 31 24.0001 31Z" fill="#324558"/>
</svg>
