<svg width="48" height="48" viewBox="0 0 48 48" fill="none" xmlns="http://www.w3.org/2000/svg">
<path d="M19.1274 32.2642C18.1861 32.7351 17.124 33 16 33C14.8729 33 13.8081 32.7336 12.865 32.2604L15.0954 27.7842C14.8516 27.6604 14.6367 27.4881 14.4631 27.28C14.174 26.9331 14 26.4869 14 26C14 25.9634 14.0009 25.9271 14.0029 25.8911L9.01208 25.5846C9.14544 23.3057 10.369 21.3197 12.1688 20.1405L14.9183 24.3174C15.2302 24.1165 15.6015 24 16 24C16.0827 24 16.1643 24.005 16.2444 24.0148C16.5474 24.0517 16.8294 24.1564 17.075 24.3132L19.8246 20.1362C21.6278 21.3148 22.8541 23.3026 22.9878 25.584L17.9971 25.8905C17.999 25.9268 18 25.9633 18 26C18 26.787 17.5455 27.4678 16.8846 27.7942L19.1274 32.2642Z" fill="#324558"/>
<path fill-rule="evenodd" clip-rule="evenodd" d="M43 6H39V12H7.60547L3 16.6055V38C3 39.1046 3.89543 40 5 40H6V42H12V40H15V42H21V40H24V42H30V40H33L39 34V42H43C44.1046 42 45 41.1046 45 40V8C45 6.89543 44.1046 6 43 6ZM29 16H36V19H29V16ZM36 22H29V25H36V22ZM16 36C21.5228 36 26 31.5228 26 26C26 20.4772 21.5228 16 16 16C10.4772 16 6 20.4772 6 26C6 31.5228 10.4772 36 16 36Z" fill="#324558"/>
</svg>
