<svg width="48" height="48" viewBox="0 0 48 48" fill="none" xmlns="http://www.w3.org/2000/svg">
<path d="M44.05 19.0401L43.51 18.5001C43.12 18.1101 42.49 18.1401 41.97 18.3401C41.07 18.7001 40.01 18.5201 39.28 17.7901C38.55 17.0601 38.37 16.0001 38.73 15.1001C38.94 14.5901 38.96 13.9601 38.57 13.5601L32.64 7.63006C28.47 3.45006 21.9 2.80006 16.96 6.09006L17.73 6.86006C20.07 5.19006 23.35 5.41006 25.45 7.51006C27.55 9.61006 27.77 12.8901 26.1 15.2301L3.68001 35.0601C2.82001 35.8201 2.78001 37.1601 3.59001 37.9701L7.65001 42.0301C8.46001 42.8401 9.80001 42.8001 10.56 41.9401C10.56 41.9401 30.39 19.5401 30.41 19.5201C31.89 18.2501 34.13 18.3101 35.54 19.7201C36.72 20.9001 36.96 22.6701 36.24 24.0901C36 24.5601 36.01 25.1501 36.38 25.5201L36.97 26.1101C37.36 26.5001 37.99 26.5001 38.38 26.1101L44.04 20.4501C44.44 20.0601 44.44 19.4301 44.05 19.0401Z" fill="#324558"/>
</svg>
