<svg width="48" height="48" viewBox="0 0 48 48" fill="none" xmlns="http://www.w3.org/2000/svg">
<path d="M14.5328 4C13.6284 4 12.8366 4.60682 12.6015 5.48005L6.80769 27H19C19 29.7614 21.2386 32 24 32C26.7614 32 29 29.7614 29 27H41.1923L35.3985 5.48005C35.1634 4.60682 34.3716 4 33.4672 4H14.5328Z" fill="#324558"/>
<path d="M6 42V30H16.5815C17.7683 32.9318 20.6426 35 24 35C27.3574 35 30.2317 32.9318 31.4185 30H42V42C42 43.1046 41.1046 44 40 44H8C6.89543 44 6 43.1046 6 42Z" fill="#324558"/>
</svg>
