<svg width="48" height="48" viewBox="0 0 48 48" fill="none" xmlns="http://www.w3.org/2000/svg">
<path d="M27 28C27 29.6569 25.6569 31 24 31C22.3431 31 21 29.6569 21 28C21 26.3431 22.3431 25 24 25C25.6569 25 27 26.3431 27 28Z" fill="#324558"/>
<path fill-rule="evenodd" clip-rule="evenodd" d="M10 4C8.89543 4 8 4.89543 8 6V42C8 43.1046 8.89543 44 10 44H38C39.1046 44 40 43.1046 40 42V6C40 4.89543 39.1046 4 38 4H10ZM12.5 41C13.3284 41 14 40.3284 14 39.5C14 38.6716 13.3284 38 12.5 38C11.6716 38 11 38.6716 11 39.5C11 40.3284 11.6716 41 12.5 41ZM37 39.5C37 40.3284 36.3284 41 35.5 41C34.6716 41 34 40.3284 34 39.5C34 38.6716 34.6716 38 35.5 38C36.3284 38 37 38.6716 37 39.5ZM30 12H18L16 14V18H32V14L30 12ZM32 28C32 32.4183 28.4183 36 24 36C19.5817 36 16 32.4183 16 28C16 23.5817 19.5817 20 24 20C28.4183 20 32 23.5817 32 28ZM12.5 10C13.3284 10 14 9.32843 14 8.5C14 7.67157 13.3284 7 12.5 7C11.6716 7 11 7.67157 11 8.5C11 9.32843 11.6716 10 12.5 10ZM37 8.5C37 9.32843 36.3284 10 35.5 10C34.6716 10 34 9.32843 34 8.5C34 7.67157 34.6716 7 35.5 7C36.3284 7 37 7.67157 37 8.5Z" fill="#324558"/>
</svg>
