<svg width="48" height="48" viewBox="0 0 48 48" fill="none" xmlns="http://www.w3.org/2000/svg">
<path d="M26.6667 28.9999C26.6667 30.4726 25.4728 31.6666 24 31.6666C22.5273 31.6666 21.3333 30.4726 21.3333 28.9999C21.3333 27.5271 22.5273 26.3332 24 26.3332C25.4728 26.3332 26.6667 27.5271 26.6667 28.9999Z" fill="#324558"/>
<path fill-rule="evenodd" clip-rule="evenodd" d="M21.9419 5.19157C23.0976 4.10199 24.9022 4.102 26.0579 5.19157L46.3719 24.3438L43.6279 27.2542L39 22.891V41C39 42.1046 38.1046 43 37 43H11C9.89543 43 9 42.1046 9 41V22.8908L4.37191 27.2542L1.62793 24.3438L21.9419 5.19157ZM22.1014 21L21.7007 23.0188C21.0324 23.2671 20.4146 23.6139 19.872 24.0516L17.8986 23.3828L16 26.6172L17.579 27.9656C17.523 28.3032 17.4868 28.6469 17.4868 29C17.4868 29.3531 17.523 29.6968 17.579 30.0344L16 31.3828L17.8986 34.6172L19.872 33.9485C20.4146 34.3861 21.0324 34.733 21.7007 34.9813L22.1014 37H25.8986L26.2993 34.9813C26.9676 34.733 27.5854 34.3861 28.128 33.9485L30.1014 34.6172L32 31.3828L30.421 30.0344C30.477 29.6968 30.5132 29.3531 30.5132 29C30.5132 28.6469 30.477 28.3032 30.421 27.9656L32 26.6172L30.1014 23.3828L28.128 24.0516C27.5854 23.6139 26.9676 23.2671 26.2993 23.0188L25.8986 21H22.1014Z" fill="#324558"/>
</svg>
