<svg width="48" height="48" viewBox="0 0 48 48" fill="none" xmlns="http://www.w3.org/2000/svg">
<path d="M21.9419 5.19157C23.0976 4.10199 24.9022 4.102 26.0579 5.19157L46.3719 24.3438L43.6279 27.2542L39 22.891V41C39 42.1046 38.1046 43 37 43H29.5V31.7092C30.9659 31.1159 32 29.6787 32 28C32 25.7909 30.2091 24 28 24C25.7909 24 24 25.7909 24 28C24 29.6787 25.0341 31.1159 26.5 31.7092V43H22.4998V38.7424C22.4998 38.1494 22.3492 37.5662 22.062 37.0473L20.6255 34.4525C20.8641 34.0222 21 33.5269 21 33C21 31.3431 19.6569 30 18 30C16.3431 30 15 31.3431 15 33C15 34.6569 16.3431 36 18 36L18.0271 35.9999L18.0529 35.9995L19.4373 38.5003C19.4783 38.5744 19.4998 38.6577 19.4998 38.7424V43H11C9.89543 43 9 42.1046 9 41V22.8908L4.37191 27.2542L1.62793 24.3438L21.9419 5.19157Z" fill="#324558"/>
</svg>
