<svg width="48" height="48" viewBox="0 0 48 48" fill="none" xmlns="http://www.w3.org/2000/svg">
<path fill-rule="evenodd" clip-rule="evenodd" d="M21.9419 5.19157C23.0976 4.10199 24.9022 4.102 26.0579 5.19157L46.3719 24.3438L43.6279 27.2542L39 22.891V41C39 42.1046 38.1046 43 37 43H11C9.89543 43 9 42.1046 9 41V22.8908L4.37191 27.2542L1.62793 24.3438L21.9419 5.19157ZM22.84 35.921L24 37L25.16 35.9292L25.1916 35.8999C29.2939 32.0907 32 29.5779 32 26.4959C32 23.9782 30.064 22 27.6 22C26.208 22 24.872 22.6621 24 23.7085C23.128 22.6621 21.792 22 20.4 22C17.936 22 16 23.9782 16 26.4959C16 29.5833 18.7155 32.0994 22.8299 35.9116L22.84 35.921Z" fill="#324558"/>
</svg>
