<svg width="48" height="48" viewBox="0 0 48 48" fill="none" xmlns="http://www.w3.org/2000/svg">
<path fill-rule="evenodd" clip-rule="evenodd" d="M44 16C44 22.6274 38.6274 28 32 28C30.5299 28 29.1216 27.7357 27.8199 27.2519L23.2931 31.7787C20.9477 30.832 18.1618 31.3092 16.2606 33.2105C14.3594 35.1117 13.8821 37.8976 14.8288 40.243L11.6571 43.4147C11.2821 43.7898 10.7734 44.0005 10.2429 44.0005H5C4.4477 44.0005 3.99998 43.5527 4 43.0005L4.00024 36.8284C4.00026 36.298 4.21097 35.7893 4.58602 35.4142L20.5142 19.4861C20.1798 18.3828 20 17.2124 20 16C20 9.37258 25.3726 4 32 4C38.6274 4 44 9.37258 44 16ZM36 16C36 18.2091 34.2091 20 32 20C29.7909 20 28 18.2091 28 16C28 13.7909 29.7909 12 32 12C34.2091 12 36 13.7909 36 16Z" fill="#324558"/>
</svg>
