<svg width="48" height="48" viewBox="0 0 48 48" fill="none" xmlns="http://www.w3.org/2000/svg">
<path fill-rule="evenodd" clip-rule="evenodd" d="M3 9C3 7.89543 3.89543 7 5 7H43C44.1046 7 45 7.89543 45 9V34C45 35.1046 44.1046 36 43 36H5C3.89543 36 3 35.1046 3 34V9ZM14 13H10V17H14V13ZM32 28H16V31H32V28ZM14 20H10V24H14V20ZM22 13H18V17H22V13ZM22 20H18V24H22V20ZM30 13H26V17H30V13ZM30 20H26V24H30V20ZM38 13H34V17H38V13ZM38 20H34V24H38V20Z" fill="#324558"/>
<path d="M24.6585 45.4238C24.2815 45.7537 23.7185 45.7537 23.3415 45.4238L16 39H32L24.6585 45.4238Z" fill="#324558"/>
</svg>
