<svg width="48" height="48" viewBox="0 0 48 48" fill="none" xmlns="http://www.w3.org/2000/svg">
<path d="M41 21C41 29.8834 34.1863 37.1753 25.5 37.9347V28.6214L31.0608 23.0607L28.9395 20.9393L24.0001 25.8787L19.0608 20.9393L16.9395 23.0607L22.5 28.6212V37.9347C13.8137 37.1753 7 29.8834 7 21C7 11.6112 14.6112 4 24 4C33.3888 4 41 11.6112 41 21Z" fill="#324558"/>
<path d="M18.5726 44.5747L17.1377 39.7916C19.278 40.5735 21.5893 41 24.0002 41C26.4112 41 28.7225 40.5735 30.8627 39.7916L29.4278 44.5747C29.174 45.4207 28.3954 46 27.5122 46H20.4883C19.6051 46 18.8264 45.4207 18.5726 44.5747Z" fill="#324558"/>
</svg>
