<svg width="48" height="48" viewBox="0 0 48 48" fill="none" xmlns="http://www.w3.org/2000/svg">
<path d="M24 5C25.1046 5 26 4.10457 26 3C26 1.89543 25.1046 1 24 1C22.8954 1 22 1.89543 22 3C22 4.10457 22.8954 5 24 5Z" fill="#324558"/>
<path d="M39 22C39 28.151 35.2977 33.4372 30 35.7519V43C30 44.1046 29.1046 45 28 45H20C18.8954 45 18 44.1046 18 43V35.7519C12.7023 33.4372 9 28.151 9 22C9 13.7157 15.7157 7 24 7C32.2843 7 39 13.7157 39 22Z" fill="#324558"/>
<path d="M45 22C45 23.1046 44.1046 24 43 24C41.8954 24 41 23.1046 41 22C41 20.8954 41.8954 20 43 20C44.1046 20 45 20.8954 45 22Z" fill="#324558"/>
<path d="M5 24C6.10457 24 7 23.1046 7 22C7 20.8954 6.10457 20 5 20C3.89543 20 3 20.8954 3 22C3 23.1046 3.89543 24 5 24Z" fill="#324558"/>
<path d="M38.8493 9.97897C38.0682 10.76 36.8019 10.76 36.0208 9.97897C35.2398 9.19792 35.2398 7.93159 36.0208 7.15054C36.8019 6.36949 38.0682 6.36949 38.8493 7.15054C39.6303 7.93159 39.6303 9.19792 38.8493 9.97897Z" fill="#324558"/>
<path d="M9.15073 36.8491C9.93178 37.6301 11.1981 37.6301 11.9792 36.8491C12.7602 36.068 12.7602 34.8017 11.9792 34.0207C11.1981 33.2396 9.93178 33.2396 9.15073 34.0207C8.36968 34.8017 8.36968 36.068 9.15073 36.8491Z" fill="#324558"/>
<path d="M38.8493 36.8491C38.0682 37.6301 36.8019 37.6301 36.0208 36.8491C35.2398 36.068 35.2398 34.8017 36.0208 34.0207C36.8019 33.2396 38.0682 33.2396 38.8493 34.0207C39.6303 34.8017 39.6303 36.068 38.8493 36.8491Z" fill="#324558"/>
<path d="M9.15073 9.97897C9.93178 10.76 11.1981 10.76 11.9792 9.97897C12.7602 9.19792 12.7602 7.93159 11.9792 7.15054C11.1981 6.36949 9.93178 6.36949 9.15073 7.15054C8.36968 7.93159 8.36968 9.19792 9.15073 9.97897Z" fill="#324558"/>
</svg>
