<svg width="48" height="48" viewBox="0 0 48 48" fill="none" xmlns="http://www.w3.org/2000/svg">
<g clip-path="url(#clip0_5613_4992)">
<path fill-rule="evenodd" clip-rule="evenodd" d="M0.664888 33.1924C-0.116161 32.4114 -0.11616 31.145 0.664888 30.364L30.3634 0.665498C31.1444 -0.11555 32.4108 -0.11555 33.1918 0.665498L36.7273 4.20103C35.5558 5.3726 35.5558 7.2721 36.7273 8.44367C37.8989 9.61524 39.7984 9.61524 40.97 8.44367L47.3339 14.8076C48.115 15.5887 48.115 16.855 47.3339 17.6361L44.5058 20.4642L42.3849 18.3433L39.91 20.8181L42.0311 22.9392L39.9098 25.0605L37.7887 22.9395L35.6674 25.0608L37.7884 27.1818L35.6671 29.3032L33.5461 27.1821L31.4247 29.3034L33.5458 31.4245L31.4245 33.5458L29.3034 31.4247L27.1821 33.5461L29.3032 35.6671L27.1818 37.7884L25.0608 35.6674L22.9395 37.7887L25.0605 39.9098L22.9392 42.0311L20.8181 39.91L18.3433 42.3849L20.4642 44.5058L17.6355 47.3345C16.8544 48.1156 15.5881 48.1156 14.807 47.3345L8.44306 40.9706C9.61464 39.799 9.61464 37.8995 8.44306 36.7279C7.27149 35.5564 5.37199 35.5564 4.20042 36.7279L0.664888 33.1924ZM30.3636 9.15051L26.121 13.3932L31.7778 19.05L36.0204 14.8074L30.3636 9.15051ZM22.5853 16.9293L16.9285 22.5861L22.5853 28.243L28.2422 22.5861L22.5853 16.9293ZM13.393 26.1211L9.15039 30.3637L14.8072 36.0206L19.0499 31.7779L13.393 26.1211Z" fill="#324558"/>
</g>
<defs>
<clipPath id="clip0_5613_4992">
<rect width="48" height="48" fill="white"/>
</clipPath>
</defs>
</svg>
