<svg width="48" height="48" viewBox="0 0 48 48" fill="none" xmlns="http://www.w3.org/2000/svg">
<path fill-rule="evenodd" clip-rule="evenodd" d="M24 44C35.0457 44 44 35.0457 44 24C44 12.9543 35.0457 4 24 4C12.9543 4 4 12.9543 4 24C4 35.0457 12.9543 44 24 44ZM34.0001 14.0001C34.0001 25.0458 25.0458 34.0001 14.0001 34.0001C13.11 34.0001 12.2336 33.9419 11.3743 33.8292C14.3022 37.5848 18.8691 40.0001 24.0001 40.0001C32.8366 40.0001 40.0001 32.8366 40.0001 24.0001C40.0001 18.8691 37.5848 14.3022 33.8292 11.3743C33.9419 12.2336 34.0001 13.11 34.0001 14.0001Z" fill="#324558"/>
</svg>
