<svg width="48" height="48" viewBox="0 0 48 48" fill="none" xmlns="http://www.w3.org/2000/svg">
<path fill-rule="evenodd" clip-rule="evenodd" d="M24.0048 4C12.9605 4.00281 4.00282 12.9607 4 24.0051C3.99719 35.0495 12.9503 44.0028 23.9946 44C25.839 43.9995 27.3283 42.5103 27.3288 40.6658C27.329 39.7992 26.9958 39.0215 26.4627 38.4216C25.9517 37.8439 25.6186 37.0663 25.6188 36.2218C25.6193 34.3774 27.1085 32.8881 28.9529 32.8876L32.8862 32.8866C39.0195 32.8851 43.9984 27.906 44 21.7727C44.0025 11.9505 35.0491 3.99719 24.0048 4ZM20 13C20 14.6569 18.6569 16 17 16C15.3431 16 14 14.6569 14 13C14 11.3431 15.3431 10 17 10C18.6569 10 20 11.3431 20 13ZM32 24C34.7614 24 37 21.7614 37 19C37 16.2386 34.7614 14 32 14C29.2386 14 27 16.2386 27 19C27 21.7614 29.2386 24 32 24ZM14 23C14 24.6569 12.6569 26 11 26C9.34315 26 8 24.6569 8 23C8 21.3431 9.34315 20 11 20C12.6569 20 14 21.3431 14 23ZM16 36C17.6569 36 19 34.6569 19 33C19 31.3431 17.6569 30 16 30C14.3431 30 13 31.3431 13 33C13 34.6569 14.3431 36 16 36Z" fill="#324558"/>
</svg>
