<svg width="48" height="48" viewBox="0 0 48 48" fill="none" xmlns="http://www.w3.org/2000/svg">
<path d="M24.657 9.75736L11.9289 22.4861C8.02369 26.3914 8.02369 32.723 11.9289 36.6283C15.8342 40.5335 22.1658 40.5335 26.0711 36.6283L40.2132 22.4861L43.0416 25.3146L28.8995 39.4567C23.4322 44.9241 14.5678 44.9241 9.1005 39.4567C3.63316 33.9894 3.63317 25.1251 9.1005 19.6577L21.8286 6.92893C25.7338 3.02369 32.0655 3.02369 35.9707 6.92893C39.8759 10.8342 39.8759 17.1658 35.9707 21.0711L23.2427 33.7999C20.8995 36.143 17.1005 36.143 14.7574 33.7999C12.4142 31.4567 12.4142 27.6577 14.7574 25.3146L26.0711 14.0009L28.8995 16.8293L17.5858 28.143C16.8048 28.9241 16.8048 30.1904 17.5858 30.9714C18.3668 31.7525 19.6332 31.7525 20.4142 30.9714L33.1423 18.2426C35.4854 15.8995 35.4854 12.1005 33.1423 9.75736C30.7991 7.41421 27.0001 7.41421 24.657 9.75736Z" fill="#324558"/>
</svg>
