<svg width="48" height="48" viewBox="0 0 48 48" fill="none" xmlns="http://www.w3.org/2000/svg">
<path d="M28.6251 5.09817C28.1109 4.58389 27.237 4.77319 26.9817 5.45419L25.9843 8.11417L40.3622 22.492L43.03 21.5105C43.7151 21.2584 43.908 20.381 43.3918 19.8649L28.6251 5.09817Z" fill="#324558"/>
<path d="M37.4268 23.7993C35.6408 25.5645 33.2986 26.4337 30.9647 26.4086L27.1612 37.6403C26.9478 38.2705 26.435 38.7533 25.7931 38.9283L5.42982 44.4819L17.7523 32.1594C18.8663 32.6846 20.2384 32.4912 21.163 31.5773C22.3414 30.4126 22.347 28.5186 21.1754 27.3471C20.0038 26.1755 18.0988 26.1699 16.9204 27.3346C15.987 28.2572 15.7895 29.6372 16.3299 30.7534L4.01562 43.0677L9.56601 22.7163C9.74284 22.0679 10.2335 21.5517 10.8721 21.3422L22.0396 17.6785C21.9749 15.2927 22.8618 12.8866 24.6986 11.0712L37.4268 23.7993Z" fill="#324558"/>
</svg>
