<svg width="48" height="48" viewBox="0 0 48 48" fill="none" xmlns="http://www.w3.org/2000/svg">
<path fill-rule="evenodd" clip-rule="evenodd" d="M19.207 7.43171C16.8468 7.86464 14.6396 8.61032 12.66 9.61011C9.96119 8.79985 7.67875 8.93271 6.13574 9.23342C4.96377 9.46181 4.57061 10.7658 5.22176 11.7666L6.68906 14.0219C4.66275 15.9667 3.61913 18.2812 3.21057 20.7745C2.83715 21.7874 2.14333 21.905 1.73096 21.905H1.99162C0.890908 21.9096 0 22.8033 0 23.905V27.905C0 29.7842 4.85543 34.3118 8.76005 34.852C9.1567 35.1807 9.57039 35.4965 10 35.7986V41C10 42.1046 10.8954 43 12 43H15.9384C16.8562 43 17.6561 42.3754 17.8787 41.4851L18.3984 39.4065C20.1817 39.7933 22.0601 40 24 40C26.2856 40 28.4858 39.7131 30.5457 39.1827L31.1213 41.4851C31.3439 42.3754 32.1438 43 33.0616 43H37C38.1046 43 39 42.1046 39 41V35.0476C42.7116 32.0716 45 27.9958 45 23.5C45 22.354 44.9046 21.2714 44.7213 20.2511C46.36 18.9307 47.5 17.1261 47.5 15C47.5 12.21 45.4377 10.2314 43.4743 9.57697C42.6884 9.315 41.8389 9.73974 41.577 10.5257C41.315 11.3116 41.7397 12.161 42.5257 12.423C43.5623 12.7686 44.5 13.79 44.5 15C44.5 15.6525 44.2624 16.3369 43.7578 16.9935C41.6082 11.9541 36.8441 8.91835 30.8515 7.66737C30.2454 4.99503 27.8557 3 25 3C22.2289 3 19.8966 4.87859 19.207 7.43171ZM13 21C13 22.1046 12.1046 23 11 23C9.89543 23 9 22.1046 9 21C9 19.8954 9.89543 19 11 19C12.1046 19 13 19.8954 13 21ZM20.2113 13.784C21.4358 13.5978 22.7024 13.5 23.9998 13.5C25.9668 13.5 27.8561 13.6531 29.6309 13.9612L30.144 11.0054C28.1827 10.6649 26.1206 10.5 23.9998 10.5C22.5517 10.5 21.1343 10.6092 19.7603 10.8181L20.2113 13.784Z" fill="#324558"/>
</svg>
