<svg width="48" height="48" viewBox="0 0 48 48" fill="none" xmlns="http://www.w3.org/2000/svg">
<path d="M23.199 4.07168C23.5989 3.53657 24.4011 3.53657 24.801 4.07168L36 19.0555C36 19.0555 33 21 24 21C15 21 12 19.0555 12 19.0555L23.199 4.07168Z" fill="#324558"/>
<path d="M27 38.9423V44C27 44.5523 26.5523 45 26 45H22C21.4477 45 21 44.5523 21 44V38.9423C13.7085 38.6605 8.4974 37.4168 6.2435 36.776C5.61033 36.596 5.36887 35.8594 5.74405 35.3185L14.2675 23.0306C16.4203 23.5495 19.5655 24 24 24C28.4344 24 31.5795 23.5495 33.7323 23.0306L42.2558 35.3185C42.6309 35.8594 42.3895 36.596 41.7563 36.776C39.5024 37.4168 34.2914 38.6605 27 38.9423Z" fill="#324558"/>
</svg>
