<svg width="48" height="48" viewBox="0 0 48 48" fill="none" xmlns="http://www.w3.org/2000/svg">
<path d="M19 27H29V30H19V27Z" fill="#324558"/>
<path d="M29 33H19V36H29V33Z" fill="#324558"/>
<path fill-rule="evenodd" clip-rule="evenodd" d="M11 6C11 4.89543 11.8954 4 13 4H35C36.1046 4 37 4.89543 37 6V12H42C43.1046 12 44 12.8954 44 14V32C44 33.1046 43.1046 34 42 34H37V42C37 43.1046 36.1046 44 35 44H13C11.8954 44 11 43.1046 11 42V34H6C4.89543 34 4 33.1046 4 32V14C4 12.8954 4.89543 12 6 12H11V6ZM15 23V40H33V23H15ZM33 12H15V8H33V12Z" fill="#324558"/>
</svg>
