<svg width="48" height="48" viewBox="0 0 48 48" fill="none" xmlns="http://www.w3.org/2000/svg">
<path d="M22.5 2C25.02 2 27 4.10833 27 6.76667C27 7.59167 26.82 8.23333 26.46 8.96667C26.1547 9.58867 25.8079 10.2951 25.6446 11L37 11C38.1046 11 39 11.8954 39 13V24.3646C39.6568 24.2197 40.2773 23.9133 40.8615 23.6247C40.9191 23.5963 40.9764 23.568 41.0333 23.54C41.7667 23.18 42.4083 23 43.2333 23C45.8917 23 48 24.98 48 27.5C48 30.02 45.8917 32 43.2333 32C42.4083 32 41.7667 31.82 41.0333 31.46C40.4113 31.1547 39.7049 30.8079 39 30.6446V42C39 43.1046 38.1046 44 37 44H26.19C25.83 43.9083 25.65 43.3583 25.56 42.9917C25.47 41.9833 26.01 40.8833 26.46 39.9667C26.82 39.2333 27 38.5917 27 37.7667C27 35.1083 25.02 33 22.5 33C19.98 33 18 35.1083 18 37.7667C18 38.5917 18.18 39.2333 18.54 39.9667C18.568 40.0236 18.5963 40.0809 18.6247 40.1386C19.0547 41.009 19.5244 41.96 19.44 42.9917C19.44 43.3583 19.26 43.9083 18.81 44L8.00001 44C6.89544 44 6.00001 43.1046 6.00001 42L6 31.19C6.09167 30.83 6.64167 30.65 7.00833 30.56C8.01667 30.47 9.11667 31.01 10.0333 31.46C10.7667 31.82 11.4083 32 12.2333 32C14.8917 32 17 30.02 17 27.5C17 24.98 14.8917 23 12.2333 23C11.4083 23 10.7667 23.18 10.0333 23.54L9.86311 23.6239L9.86146 23.6247C8.99106 24.0546 8.04 24.5244 7.00833 24.44C6.64167 24.44 6.09167 24.26 6 23.81V13C6 11.8954 6.89543 11 8 11L19.3646 11C19.2198 10.3432 18.9133 9.72271 18.6247 9.13855C18.5963 9.0809 18.568 9.02361 18.54 8.96667C18.18 8.23333 18 7.59167 18 6.76667C18 4.10833 19.98 2 22.5 2Z" fill="#324558"/>
</svg>
