<svg width="48" height="48" viewBox="0 0 48 48" fill="none" xmlns="http://www.w3.org/2000/svg">
<path fill-rule="evenodd" clip-rule="evenodd" d="M6 7C4.89543 7 4 7.89543 4 9V35C4 36.1046 4.89543 37 6 37H8V41H14V37H17V41H23V37H26V41H40V37H42C43.1046 37 44 36.1046 44 35V9C44 7.89543 43.1046 7 42 7H6ZM11 17H15V27H11V17ZM38 17H31V20H38V17ZM31 24H38V27H31V24ZM28 17H18V27H28V17ZM10 11.5C10 12.3284 9.32843 13 8.5 13C7.67157 13 7 12.3284 7 11.5C7 10.6716 7.67157 10 8.5 10C9.32843 10 10 10.6716 10 11.5ZM39.5 13C40.3284 13 41 12.3284 41 11.5C41 10.6716 40.3284 10 39.5 10C38.6716 10 38 10.6716 38 11.5C38 12.3284 38.6716 13 39.5 13ZM10 32.5C10 33.3284 9.32843 34 8.5 34C7.67157 34 7 33.3284 7 32.5C7 31.6716 7.67157 31 8.5 31C9.32843 31 10 31.6716 10 32.5ZM39.5 34C40.3284 34 41 33.3284 41 32.5C41 31.6716 40.3284 31 39.5 31C38.6716 31 38 31.6716 38 32.5C38 33.3284 38.6716 34 39.5 34Z" fill="#324558"/>
</svg>
