<svg width="48" height="48" viewBox="0 0 48 48" fill="none" xmlns="http://www.w3.org/2000/svg">
<path fill-rule="evenodd" clip-rule="evenodd" d="M20.7152 11.6378C27.0067 6.21671 38.2645 4.40972 41.9527 4.51069C42.5882 4.52809 42.9989 4.60212 43.1209 4.72407C43.9851 5.58831 42.4429 20.9583 35.3883 28.013C30.4146 32.9867 26.7479 34.912 23.9256 35.2331L17.6652 35.8367L12.0083 30.1798C12.0083 30.1798 12.0942 26.8944 12.596 24.4679C12.646 24.2263 12.7001 23.9931 12.7586 23.7726C14.096 18.7357 15.013 17.2755 19.832 12.4566C20.1136 12.175 20.4085 11.9021 20.7152 11.6378ZM33.9284 18.159C32.7569 19.3306 30.8574 19.3306 29.6858 18.159C28.5142 16.9874 28.5142 15.0879 29.6858 13.9164C30.8574 12.7448 32.7569 12.7448 33.9284 13.9164C35.1 15.0879 35.1 16.9874 33.9284 18.159Z" fill="#324558"/>
<path d="M23.6576 38.2728L24.2391 38.2168L24.2647 38.2138C27.8056 37.811 31.7145 35.6453 36.3271 31.2849C35.9341 36.4765 32.6795 42.2253 24.5784 43.9949L23.6576 38.2728Z" fill="#324558"/>
<path d="M3.60498 23.0209C5.431 14.6615 11.4941 11.4625 16.8099 11.2433C14.8838 13.2043 13.4905 14.7723 12.4462 16.4421C11.204 18.4282 10.549 20.4041 9.85907 23.0028C9.77495 23.3196 9.69951 23.6516 9.63182 23.9908L3.60498 23.0209Z" fill="#324558"/>
<path d="M5.17016 36.1014C5.5484 33.1926 8.23439 31.569 10.9463 32.135C10.1654 33.4749 10.3491 35.2224 11.4973 36.3705C12.6929 37.5661 14.5383 37.7159 15.8967 36.8199C16.6859 39.6467 15.0501 42.5525 12.0158 42.947L4.14697 43.9702L5.17016 36.1014Z" fill="#324558"/>
</svg>
