<svg width="48" height="48" viewBox="0 0 48 48" fill="none" xmlns="http://www.w3.org/2000/svg">
<path d="M16 27C18.7614 27 21 24.7614 21 22C21 19.2386 18.7614 17 16 17C13.2386 17 11 19.2386 11 22C11 24.7614 13.2386 27 16 27Z" fill="#324558"/>
<path fill-rule="evenodd" clip-rule="evenodd" d="M4 8C4 6.89543 4.89543 6 6 6H42C43.1046 6 44 6.89543 44 8V36C44 37.1046 43.1046 38 42 38H38V42H32V38H16V42H10V38H6C4.89543 38 4 37.1046 4 36V8ZM24 22C24 26.4183 20.4183 30 16 30C11.5817 30 8 26.4183 8 22C8 17.5817 11.5817 14 16 14C20.4183 14 24 17.5817 24 22ZM32 13H28V17H32V13ZM28 20H32V24H28V20ZM32 27H28V31H32V27ZM36 13H40V17H36V13ZM40 20H36V24H40V20ZM36 27H40V31H36V27Z" fill="#324558"/>
</svg>
