<svg width="48" height="48" viewBox="0 0 48 48" fill="none" xmlns="http://www.w3.org/2000/svg">
<path fill-rule="evenodd" clip-rule="evenodd" d="M9.25607 10.9935C7.84181 9.29635 8.07111 6.77409 9.76822 5.35984L11.3047 4.07947L24 19.3139L36.6953 4.07947L38.2318 5.35984C39.9289 6.77409 40.1582 9.29635 38.7439 10.9935L27.9051 24L31.5554 28.3804C32.326 28.1334 33.1474 28 34 28C38.4183 28 42 31.5818 42 36C42 40.4183 38.4183 44 34 44C29.5817 44 26 40.4183 26 36C26 34.6336 26.3426 33.3472 26.9465 32.222L24 28.6862L21.0535 32.222C21.6574 33.3472 22 34.6336 22 36C22 40.4183 18.4183 44 14 44C9.58172 44 6 40.4183 6 36C6 31.5818 9.58172 28 14 28C14.8526 28 15.674 28.1334 16.4445 28.3804L20.0949 24L9.25607 10.9935ZM38 36C38 38.2092 36.2091 40 34 40C31.7909 40 30 38.2092 30 36C30 33.7909 31.7909 32 34 32C36.2091 32 38 33.7909 38 36ZM14 40C16.2091 40 18 38.2092 18 36C18 33.7909 16.2091 32 14 32C11.7909 32 10 33.7909 10 36C10 38.2092 11.7909 40 14 40Z" fill="#324558"/>
</svg>
