<svg width="48" height="48" viewBox="0 0 48 48" fill="none" xmlns="http://www.w3.org/2000/svg">
<path fill-rule="evenodd" clip-rule="evenodd" d="M24 44C35.0457 44 44 35.0457 44 24C44 12.9543 35.0457 4 24 4C12.9543 4 4 12.9543 4 24C4 35.0457 12.9543 44 24 44ZM19.5012 24H17C15.8954 24 15 24.8954 15 26V29.5H33V26C33 24.8954 32.1046 24 31 24H28.4988C26.0026 23.6425 26.5602 21.2491 27.0845 18.9992C27.2949 18.096 27.5 17.216 27.5 16.5C27.5 14.567 25.933 13 24 13C22.067 13 20.5 14.567 20.5 16.5C20.5 17.216 20.7051 18.096 20.9155 18.9992C21.4398 21.2491 21.9974 23.6425 19.5012 24ZM16 33V31H32V33H16Z" fill="#324558"/>
</svg>
