<svg width="48" height="48" viewBox="0 0 48 48" fill="none" xmlns="http://www.w3.org/2000/svg">
<path d="M27.9996 27.9999V2.70317C27.9996 1.77477 26.8445 1.34748 26.2403 2.05238L5.41455 26.3491C4.85854 26.9978 5.31945 27.9999 6.17381 27.9999H27.9996Z" fill="#324558"/>
<path d="M3.9087 33.5145C3.50879 32.848 3.9889 32 4.76619 32H43.2338C44.0111 32 44.4912 32.848 44.0913 33.5145L39.5826 41.029C39.2212 41.6314 38.5701 42 37.8676 42H10.1324C9.42986 42 8.77884 41.6314 8.4174 41.029L3.9087 33.5145Z" fill="#324558"/>
<path d="M32 16.3029V28.0001H40.1315C40.9302 28.0001 41.4066 27.1099 40.9635 26.4454L33.8321 15.7482C33.2832 14.9249 32 15.3135 32 16.3029Z" fill="#324558"/>
</svg>
