<svg width="48" height="48" viewBox="0 0 48 48" fill="none" xmlns="http://www.w3.org/2000/svg">
<path fill-rule="evenodd" clip-rule="evenodd" d="M38.1212 12H33.8001C32.8735 7.43552 28.838 4 24.0001 4C19.1622 4 15.1267 7.43552 14.2002 12H9.87899C8.82286 12 7.94876 12.8212 7.88288 13.8752L6.13288 41.8752C6.06092 43.0266 6.97534 44 8.12898 44H39.8712C41.0248 44 41.9392 43.0266 41.8673 41.8752L40.1173 13.8752C40.0514 12.8212 39.1773 12 38.1212 12ZM24.0001 8C26.6126 8 28.835 9.66962 29.6587 12H18.3415C19.1652 9.66962 21.3877 8 24.0001 8ZM24.0001 27.5C29.2468 27.5 33.5001 23.2467 33.5001 18L33.5001 16H30.5001L30.5001 18C30.5001 21.5899 27.59 24.5 24.0001 24.5C20.4103 24.5 17.5001 21.5898 17.5001 18V16L14.5001 16V18C14.5001 23.2467 18.7534 27.5 24.0001 27.5Z" fill="#324558"/>
</svg>
