<svg width="48" height="48" viewBox="0 0 48 48" fill="none" xmlns="http://www.w3.org/2000/svg">
<path fill-rule="evenodd" clip-rule="evenodd" d="M38.1212 12H33.8C32.8734 7.43552 28.8379 4 24 4C19.1621 4 15.1266 7.43552 14.2 12H9.87899C8.82286 12 7.94876 12.8212 7.88288 13.8752L6.13288 41.8752C6.06092 43.0266 6.97534 44 8.12898 44H22V26H40.8751L40.1173 13.8752C40.0514 12.8212 39.1773 12 38.1212 12ZM18 21V18H30V21H18ZM24 8C26.6124 8 28.8349 9.66962 29.6586 12H18.3414C19.1651 9.66962 21.3876 8 24 8Z" fill="#324558"/>
<path d="M25 29H29V45H25V29Z" fill="#324558"/>
<path d="M36 29H45V45H36V29Z" fill="#324558"/>
<path d="M31 29H34V45H31V29Z" fill="#324558"/>
</svg>
