<svg width="48" height="48" viewBox="0 0 48 48" fill="none" xmlns="http://www.w3.org/2000/svg">
<path d="M7.08267 7.32998C7.36618 6.53262 8.12084 6 8.9671 6H39.0329C39.8792 6 40.6338 6.53262 40.9173 7.32998L44 16C44 18.7614 41.7614 21 39 21C36.2386 21 34 18.7614 34 16C34 18.7614 31.7614 21 29 21C26.2386 21 24 18.7614 24 16C24 18.7614 21.7614 21 19 21C16.2386 21 14 18.7614 14 16C14 18.7614 11.7614 21 9 21C6.23858 21 4 18.7614 4 16L7.08267 7.32998Z" fill="#324558"/>
<path fill-rule="evenodd" clip-rule="evenodd" d="M42 23.4185C41.0736 23.7935 40.0609 24 39 24C37.1081 24 35.3696 23.3433 34 22.2454C32.6304 23.3433 30.8919 24 29 24C27.1081 24 25.3696 23.3433 24 22.2454C22.6304 23.3433 20.8919 24 19 24C17.1081 24 15.3696 23.3433 14 22.2454C12.6304 23.3433 10.8919 24 9 24C7.9391 24 6.92643 23.7935 6 23.4185V40C6 41.1046 6.89543 42 8 42H14V30H22V42H40C41.1046 42 42 41.1046 42 40V23.4185ZM28 30H34V36H28V30Z" fill="#324558"/>
<path d="M42 20.0004C41.1643 20.6281 40.1256 21 39 21C37.8523 21 36.7949 20.6133 35.951 19.9631C34.7645 19.0488 34 17.6137 34 16H42V20.0004Z" fill="#324558"/>
<path d="M24 16C24 17.6137 23.2355 19.0488 22.049 19.9631C21.2051 20.6133 20.1477 21 19 21C17.8523 21 16.7949 20.6133 15.951 19.9631C14.7645 19.0488 14 17.6137 14 16H24Z" fill="#324558"/>
<path d="M6 20.0004C6.83566 20.6281 7.87439 21 9 21C10.1477 21 11.2051 20.6133 12.049 19.9631C13.2355 19.0488 14 17.6137 14 16H6V20.0004Z" fill="#324558"/>
<path d="M24 16H34C34 17.6137 33.2355 19.0488 32.049 19.9631C31.2051 20.6133 30.1477 21 29 21C27.8523 21 26.7949 20.6133 25.951 19.9631C24.7645 19.0488 24 17.6137 24 16Z" fill="#324558"/>
</svg>
