<svg width="48" height="48" viewBox="0 0 48 48" fill="none" xmlns="http://www.w3.org/2000/svg">
<path fill-rule="evenodd" clip-rule="evenodd" d="M4 24C4 21.9096 4.32071 19.8941 4.9156 18C7.46413 9.88579 15.0447 4 24 4C32.9553 4 40.5359 9.88579 43.0844 18C43.0899 18.0175 43.0954 18.0351 43.1008 18.0526C43.6852 19.9314 44 21.9289 44 24C44 34.369 36.1092 42.895 26.005 43.9008C25.9342 43.9078 25.8633 43.9145 25.7923 43.9208C25.2019 43.9732 24.6041 44 24 44C23.3233 44 22.6545 43.9664 21.995 43.9008C11.8908 42.895 4 34.369 4 24ZM21.7924 39.849L21.38 31.6005C21.1671 27.3428 17.653 24 13.39 24H8C8 32.0876 14.0006 38.7736 21.7924 39.849ZM26.2076 39.849C33.9994 38.7736 40 32.0876 40 24H34.61C30.347 24 26.8329 27.3428 26.62 31.6005L26.2076 39.849ZM38.837 18H9.16303C11.5366 12.1363 17.2852 8 24 8C30.7148 8 36.4634 12.1363 38.837 18ZM27 24C27 25.6569 25.6569 27 24 27C22.3431 27 21 25.6569 21 24C21 22.3431 22.3431 21 24 21C25.6569 21 27 22.3431 27 24Z" fill="#324558"/>
</svg>
