<svg width="48" height="48" viewBox="0 0 48 48" fill="none" xmlns="http://www.w3.org/2000/svg">
<path d="M26 2H22V7.11641C22.656 7.03953 23.3234 7 24 7C24.6766 7 25.344 7.03953 26 7.11641V2Z" fill="#324558"/>
<path d="M9.85789 7.02939L13.4764 10.6479C12.4265 11.4766 11.4766 12.4264 10.648 13.4763L7.02946 9.85782L9.85789 7.02939Z" fill="#324558"/>
<path d="M7.11641 22H2V26H7.11641C7.03953 25.344 7 24.6766 7 24C7 23.3234 7.03953 22.656 7.11641 22Z" fill="#324558"/>
<path d="M7.02939 38.1421L10.6479 34.5236C11.4766 35.5735 12.4264 36.5234 13.4763 37.352L9.85782 40.9705L7.02939 38.1421Z" fill="#324558"/>
<path d="M22 40.8836V46H26V40.8836C25.344 40.9605 24.6766 41 24 41C23.3234 41 22.656 40.9605 22 40.8836Z" fill="#324558"/>
<path d="M38.1422 40.9705L34.5237 37.352C35.5736 36.5234 36.5234 35.5735 37.3521 34.5236L40.9706 38.1421L38.1422 40.9705Z" fill="#324558"/>
<path d="M40.8836 26H46V22H40.8836C40.9605 22.656 41 23.3234 41 24C41 24.6766 40.9605 25.344 40.8836 26Z" fill="#324558"/>
<path d="M40.9705 9.85785L37.352 13.4763C36.5234 12.4264 35.5735 11.4766 34.5236 10.6479L38.1421 7.02942L40.9705 9.85785Z" fill="#324558"/>
<path d="M24 38C31.732 38 38 31.732 38 24C38 16.268 31.732 10 24 10C16.268 10 10 16.268 10 24C10 31.732 16.268 38 24 38Z" fill="#324558"/>
</svg>
