<svg width="48" height="48" viewBox="0 0 48 48" fill="none" xmlns="http://www.w3.org/2000/svg">
<path fill-rule="evenodd" clip-rule="evenodd" d="M34.1601 41.2308C31.1825 42.9903 27.7091 44 24 44C12.9543 44 4 35.0457 4 24C4 12.9543 12.9543 4 24 4C27.7092 4 31.1825 5.00971 34.1601 6.76927L28.181 12.7484C29.1739 13.1174 30.1047 13.6141 30.9535 14.2186L36.6577 8.51432C37.692 9.36073 38.6399 10.3087 39.4863 11.343L33.7821 17.0472C34.3865 17.896 34.8832 18.8268 35.2523 19.8197L41.2312 13.8407C42.9905 16.8182 44 20.2912 44 24C44 27.7088 42.9905 31.1819 41.2312 34.1593L35.2523 28.1804C34.8833 29.1733 34.3866 30.1041 33.7822 30.9529L39.4863 36.657C38.6399 37.6913 37.692 38.6393 36.6577 39.4857L30.9536 33.7816C30.1048 34.386 29.174 34.8827 28.1811 35.2518L34.1601 41.2308ZM36 24C36 30.6274 30.6274 36 24 36C22.53 36 21.1216 35.7357 19.82 35.2519L13.8408 41.2311C12.963 40.7124 12.1282 40.1285 11.3432 39.4861L17.0474 33.7819C15.9543 33.0035 14.9972 32.0464 14.2187 30.9533L8.51454 36.6575C7.87214 35.8725 7.28825 35.0377 6.76953 34.1599L12.7484 28.181C12.2645 26.8791 12 25.4704 12 24C12 22.5296 12.2645 21.121 12.7484 19.8191L6.76959 13.8403C7.28831 12.9624 7.87221 12.1276 8.51461 11.3426L14.2187 17.0467C14.9971 15.9536 15.9542 14.9965 17.0474 14.2182L11.3433 8.51402C12.1283 7.87163 12.9631 7.28775 13.8409 6.76904L19.82 12.7481C21.1216 12.2643 22.5299 12 24 12C30.6274 12 36 17.3726 36 24Z" fill="#324558"/>
</svg>
