<svg width="48" height="48" viewBox="0 0 48 48" fill="none" xmlns="http://www.w3.org/2000/svg">
<path d="M44.0001 36.86L44 36.8728V43.7803C42.6867 43.9255 41.352 44 40 44C20.1177 44 4 27.8823 4 8C4 6.64796 4.07453 5.31334 4.21972 4H14.9963C15.581 4 16.0391 4.49955 16.0172 5.08385C16.0058 5.38782 16 5.69324 16 6C16 9.50317 16.7506 12.831 18.0997 15.8316C18.3263 16.3356 18.1282 16.9359 17.6339 17.183L13.357 19.3215C13.3394 19.3303 13.3216 19.3386 13.3036 19.3463C16.2368 26.2388 21.7612 31.7632 28.6537 34.6964C28.6614 34.6784 28.6697 34.6606 28.6785 34.6429L30.817 30.366C31.0641 29.8718 31.6645 29.6737 32.1685 29.9003C35.169 31.2494 38.4969 32 42.0001 32C42.3069 32 42.6123 31.9942 42.9162 31.9828C43.5005 31.9609 44.0001 32.419 44.0001 33.0037V36.86Z" fill="#324558"/>
<path d="M30.3261 5.02124C36.2831 7.00596 40.994 11.7168 42.9787 17.6738L39.1829 18.939C37.5951 14.1735 33.8264 10.4048 29.0609 8.817L30.3261 5.02124Z" fill="#324558"/>
<path d="M28.1119 11.6638C31.984 12.9539 35.046 16.0159 36.3361 19.888L32.5403 21.1532C31.6472 18.4726 29.5273 16.3527 26.8467 15.4596L28.1119 11.6638Z" fill="#324558"/>
</svg>
