<svg width="48" height="48" viewBox="0 0 48 48" fill="none" xmlns="http://www.w3.org/2000/svg">
<path fill-rule="evenodd" clip-rule="evenodd" d="M24 9.00006C23.6301 9.00006 23.2668 9.02875 22.9124 9.08404L17.4142 3.58587L14.5858 6.4143L19.1368 10.9653C18.5349 11.5468 18.0369 12.2353 17.6736 13.0001H6C4.89543 13.0001 4 13.8955 4 15.0001V41.0001C4 42.1046 4.89543 43.0001 6 43.0001H42C43.1046 43.0001 44 42.1046 44 41.0001V15.0001C44 13.8955 43.1046 13.0001 42 13.0001H30.3264C29.9631 12.2353 29.4651 11.5468 28.8632 10.9653L33.4142 6.41424L30.5858 3.58582L25.0876 9.08404C24.7332 9.02875 24.3699 9.00006 24 9.00006ZM30 20H10V36H30V20ZM39 22C39 23.1046 38.1046 24 37 24C35.8954 24 35 23.1046 35 22C35 20.8954 35.8954 20 37 20C38.1046 20 39 20.8954 39 22ZM37 31C38.1046 31 39 30.1046 39 29C39 27.8954 38.1046 27 37 27C35.8954 27 35 27.8954 35 29C35 30.1046 35.8954 31 37 31Z" fill="#324558"/>
</svg>
