<svg width="48" height="48" viewBox="0 0 48 48" fill="none" xmlns="http://www.w3.org/2000/svg">
<path d="M44.0001 36.86L44 36.8728V43.7803C42.6867 43.9255 41.352 44 40 44C20.1177 44 4 27.8823 4 8C4 6.64796 4.07453 5.31334 4.21972 4H14.9963C15.581 4 16.0391 4.49955 16.0172 5.08385C16.0058 5.38782 16 5.69324 16 6C16 9.50317 16.7506 12.831 18.0997 15.8316C18.3263 16.3356 18.1282 16.9359 17.6339 17.183L13.357 19.3215C13.3394 19.3303 13.3216 19.3386 13.3036 19.3463C16.2368 26.2388 21.7612 31.7632 28.6537 34.6964C28.6614 34.6784 28.6697 34.6606 28.6785 34.6429L30.817 30.366C31.0641 29.8718 31.6645 29.6737 32.1685 29.9003C35.169 31.2494 38.4969 32 42.0001 32C42.3069 32 42.6123 31.9942 42.9162 31.9828C43.5005 31.9609 44.0001 32.419 44.0001 33.0037V36.86Z" fill="#324558"/>
<path d="M32 22V16H26V12L32 12V6H36V12L42 12V16H36V22H32Z" fill="#324558"/>
</svg>
