<svg width="48" height="48" viewBox="0 0 48 48" fill="none" xmlns="http://www.w3.org/2000/svg">
<path fill-rule="evenodd" clip-rule="evenodd" d="M13.9422 5.56071L15.858 9.07296C17.7213 8.05446 19.7962 7.37468 22 7.11641V14.2C18.0817 14.9954 14.9954 18.0817 14.2 22H7.11641C7.37468 19.7962 8.05446 17.7213 9.07296 15.858L5.56071 13.9422C3.92806 16.9291 3 20.3561 3 24C3 27.6439 3.92806 31.0709 5.56071 34.0578L9.07296 32.142C8.05446 30.2787 7.37468 28.2038 7.11641 26H14.2C14.9954 29.9183 18.0817 33.0046 22 33.8V40.8836C19.7962 40.6253 17.7213 39.9455 15.858 38.927L13.9422 42.4393C16.9291 44.0719 20.3561 45 24 45C27.6439 45 31.0709 44.0719 34.0578 42.4393L32.142 38.927C30.2787 39.9455 28.2038 40.6253 26 40.8836V33.8C29.9183 33.0046 33.0046 29.9183 33.8 26H40.8836C40.6253 28.2038 39.9455 30.2787 38.927 32.142L42.4393 34.0578C44.0719 31.0709 45 27.6439 45 24C45 20.3561 44.0719 16.9291 42.4393 13.9422L38.927 15.858C39.9455 17.7213 40.6253 19.7962 40.8836 22H33.8C33.0046 18.0817 29.9183 14.9954 26 14.2V7.11641C28.2038 7.37468 30.2787 8.05446 32.142 9.07296L34.0578 5.56071C31.0709 3.92806 27.6439 3 24 3C20.3561 3 16.9291 3.92806 13.9422 5.56071ZM28 24C28 26.2091 26.2091 28 24 28C21.7909 28 20 26.2091 20 24C20 21.7909 21.7909 20 24 20C26.2091 20 28 21.7909 28 24Z" fill="#324558"/>
</svg>
