<svg width="48" height="48" viewBox="0 0 48 48" fill="none" xmlns="http://www.w3.org/2000/svg">
<path d="M26 2H22V6.08969C10.787 7.10014 2 16.5239 2 28H3.80269C4.84012 26.2066 6.77915 25 9 25C11.2208 25 13.1599 26.2066 14.1973 28H15.5143C17.5319 25.557 20.5841 24 24 24C27.4159 24 30.4681 25.557 32.4857 28H33.8027C34.8401 26.2066 36.7792 25 39 25C41.2208 25 43.1599 26.2066 44.1973 28H46C46 16.5239 37.213 7.10014 26 6.08969V2Z" fill="#324558"/>
<path d="M22 27.2516V40.5C22 41.3284 21.3284 42 20.5 42C19.6716 42 19 41.3284 19 40.5V38H15V40.5C15 43.5376 17.4624 46 20.5 46C23.5376 46 26 43.5376 26 40.5V27.2516C25.3608 27.0873 24.6907 27 24 27C23.3093 27 22.6392 27.0872 22 27.2516Z" fill="#324558"/>
</svg>
