<svg width="48" height="48" viewBox="0 0 48 48" fill="none" xmlns="http://www.w3.org/2000/svg">
<path fill-rule="evenodd" clip-rule="evenodd" d="M24.6851 2.68915C27.8613 5.93456 41 19.9311 41 29.3912C41 39.1163 33.3888 46.9999 24 46.9999C14.6112 46.9999 7 39.1163 7 29.3912C7 19.9311 20.1387 5.93457 23.3149 2.68915C23.6952 2.30056 24.3048 2.30056 24.6851 2.68915ZM11 29.3043C11 36.8682 16.8203 42.9999 24 42.9999C31.1797 42.9999 37 36.8682 37 29.3043L33.7525 30.5252C30.4766 31.7568 26.8 31.2473 23.9825 29.1712C20.9147 26.9108 16.8521 26.5213 13.4108 28.1578L11 29.3043Z" fill="#324558"/>
</svg>
