<svg width="48" height="48" viewBox="0 0 48 48" fill="none" xmlns="http://www.w3.org/2000/svg">
<path d="M24 4C19.5817 4 16 7.58172 16 12H32C32 7.58172 28.4183 4 24 4Z" fill="#324558"/>
<path d="M11.9616 36.1511L7 41.1128L9.82843 43.9412L14.4928 39.2769C16.5275 41.1602 19.1226 42.4466 22 42.8582V29H26V42.8582C28.8774 42.4466 31.4725 41.1602 33.5072 39.2769L38.2843 44.0539L41.1127 41.2255L36.0383 36.1511C37.2843 34.0581 38 31.6126 38 29V28H43V24H38V15.7696L40.9411 12.8285L38.1127 10.0001L33.1128 15H14.8872L10 10.1128L7.17157 12.9412L10 15.7696V24H5V28H10V29C10 31.6126 10.7157 34.0581 11.9616 36.1511Z" fill="#324558"/>
</svg>
