<svg width="48" height="48" viewBox="0 0 48 48" fill="none" xmlns="http://www.w3.org/2000/svg">
<path fill-rule="evenodd" clip-rule="evenodd" d="M8 6C6.89543 6 6 6.89543 6 8V40C6 41.1046 6.89543 42 8 42H40C41.1046 42 42 41.1046 42 40V8C42 6.89543 41.1046 6 40 6H8ZM30.364 14.3933C27.8974 13.5154 25.0367 14.0638 23.0622 16.0383C20.8199 18.2805 20.4169 21.6655 21.853 24.3186L14.1006 32.071L16.929 34.8994L24.6814 27.147C27.3345 28.5831 30.7194 28.18 32.9617 25.9378C34.9362 23.9633 35.4845 21.1026 34.6067 18.6359L31.5475 21.6951C30.3759 22.8667 28.4764 22.8667 27.3048 21.6951C26.1333 20.5236 26.1333 18.6241 27.3048 17.4525L30.364 14.3933Z" fill="#324558"/>
</svg>
