<svg width="48" height="48" viewBox="0 0 48 48" fill="none" xmlns="http://www.w3.org/2000/svg">
<path fill-rule="evenodd" clip-rule="evenodd" d="M35.2865 4.40726C31.2831 3.33815 26.8345 4.37397 23.6937 7.51472C20.077 11.1314 19.2516 16.4824 21.2173 20.8907L12.0354 30.0727C9.91669 29.7575 7.68119 30.4154 6.05025 32.0464C3.31658 34.78 3.31658 39.2122 6.05025 41.9459C8.78392 44.6795 13.2161 44.6795 15.9497 41.9459C17.6818 40.2138 18.3164 37.7999 17.8536 35.5681L26.7277 26.694C31.2355 28.993 36.8928 28.2567 40.6643 24.4853C43.805 21.3445 44.8409 16.8959 43.7717 12.8925L38.543 18.1213L32.179 16L30.0577 9.63604L35.2865 4.40726ZM12.4141 38.4103C11.633 39.1914 10.3667 39.1914 9.58563 38.4103C8.80458 37.6293 8.80458 36.363 9.58563 35.5819C10.3667 34.8009 11.633 34.8009 12.4141 35.5819C13.1951 36.363 13.1951 37.6293 12.4141 38.4103Z" fill="#324558"/>
</svg>
