<svg width="48" height="48" viewBox="0 0 48 48" fill="none" xmlns="http://www.w3.org/2000/svg">
<path d="M8.21118 17.3941C9.09637 17.1375 10.0321 17 11 17H12.3781C13.7102 11.8243 18.4085 8 24 8C29.5915 8 34.2898 11.8243 35.622 17H37C37.9679 17 38.9037 17.1375 39.7889 17.3941C38.5444 9.79697 31.9492 4 24 4C16.0508 4 9.45562 9.79696 8.21118 17.3941Z" fill="#324558"/>
<path d="M4 27C4 23.134 7.13401 20 11 20H14V34H11C7.13401 34 4 30.866 4 27Z" fill="#324558"/>
<path d="M44 27C44 23.134 40.866 20 37 20H34V34H36.5V36C36.5 37.3807 35.3807 38.5 34 38.5H29.7092C29.1159 37.0341 27.6787 36 26 36H22C19.7909 36 18 37.7909 18 40C18 42.2091 19.7909 44 22 44H26C27.6787 44 29.1159 42.9659 29.7092 41.5H34C37.0376 41.5 39.5 39.0376 39.5 36V33.5404C42.1314 32.5339 44 29.9852 44 27Z" fill="#324558"/>
</svg>
