<svg width="48" height="48" viewBox="0 0 48 48" fill="none" xmlns="http://www.w3.org/2000/svg">
<path d="M14.3429 9.39444C15.4893 5.13503 19.3786 2 24.0001 2C29.5229 2 34.0001 6.47715 34.0001 12V23C34.0001 24.7464 33.5524 26.3883 32.7655 27.8171L14.3429 9.39444Z" fill="#324558"/>
<path d="M8.79718 8.09132L5.96875 10.9198L14.0001 18.9511V23C14.0001 28.5228 18.4772 33 24.0001 33C25.2092 33 26.3683 32.7854 27.4412 32.3922L29.7242 34.6752C27.9971 35.5236 26.0542 36 24.0001 36C16.8204 36 11.0001 30.1797 11.0001 23H7.00006C7.00006 31.7122 13.5537 38.8937 22.0001 39.8836V46H26.0001V39.8836C28.4156 39.6005 30.6763 38.811 32.6732 37.6242L37.0814 42.0324L39.9099 39.204L8.79718 8.09132Z" fill="#324558"/>
<path d="M34.9533 30.0049L37.8328 32.8843C39.8266 30.0991 41.0001 26.6866 41.0001 23H37.0001C37.0001 25.5793 36.2489 27.9832 34.9533 30.0049Z" fill="#324558"/>
</svg>
