<svg width="48" height="48" viewBox="0 0 48 48" fill="none" xmlns="http://www.w3.org/2000/svg">
<path fill-rule="evenodd" clip-rule="evenodd" d="M44 24C44 30.5424 40.8586 36.3511 36.0019 40H42V44H24C12.9543 44 4 35.0457 4 24C4 12.9543 12.9543 4 24 4C35.0457 4 44 12.9543 44 24ZM24 21.0005C22.3431 21.0005 21 22.3436 21 24.0005C21 25.6573 22.3431 27.0005 24 27.0005C25.6569 27.0005 27 25.6573 27 24.0005C27 22.3436 25.6569 21.0005 24 21.0005ZM15.0356 16.4739C13.931 14.5607 14.5865 12.1143 16.4997 11.0098C18.4129 9.9052 20.8592 10.5607 21.9638 12.4739C23.0684 14.387 22.4129 16.8334 20.4997 17.938C18.5865 19.0425 16.1402 18.387 15.0356 16.4739ZM12.4736 26.0365C10.5604 27.1411 9.9049 29.5874 11.0095 31.5006C12.114 33.4138 14.5604 34.0693 16.4736 32.9647C18.3867 31.8601 19.0422 29.4138 17.9377 27.5006C16.8331 25.5874 14.3867 24.9319 12.4736 26.0365ZM30.062 20.5006C28.9574 18.5875 29.6129 16.1411 31.5261 15.0365C33.4392 13.932 35.8856 14.5875 36.9902 16.5006C38.0947 18.4138 37.4392 20.8602 35.5261 21.9647C33.6129 23.0693 31.1665 22.4138 30.062 20.5006ZM27.4999 30.0622C25.5868 31.1668 24.9313 33.6131 26.0358 35.5263C27.1404 37.4395 29.5868 38.095 31.4999 36.9904C33.4131 35.8858 34.0686 33.4395 32.964 31.5263C31.8595 29.6131 29.4131 28.9576 27.4999 30.0622Z" fill="#324558"/>
</svg>
