<svg width="48" height="48" viewBox="0 0 48 48" fill="none" xmlns="http://www.w3.org/2000/svg">
<path fill-rule="evenodd" clip-rule="evenodd" d="M24 44C35.0457 44 44 35.0457 44 24C44 12.9543 35.0457 4 24 4C12.9543 4 4 12.9543 4 24C4 35.0457 12.9543 44 24 44ZM23.8786 12L34 16.12L32.328 20.3738L28.3806 18.767V29.7005C28.3806 33.1796 25.6091 36 22.1903 36C18.7715 36 16 33.1796 16 29.7005C16 26.2214 18.7715 23.401 22.1903 23.401C22.7756 23.401 23.3419 23.4837 23.8786 23.6381V12Z" fill="#324558"/>
</svg>
