<svg width="48" height="48" viewBox="0 0 48 48" fill="none" xmlns="http://www.w3.org/2000/svg">
<path fill-rule="evenodd" clip-rule="evenodd" d="M14 10H21.1716L23.1716 12H4C2.89543 12 2 12.8954 2 14V38C2 39.1046 2.89543 40 4 40H36V12H28.8284L24 7.17157C23.2499 6.42143 22.2324 6 21.1716 6H14V10ZM25 26L15 32L15 20L25 26Z" fill="#324558"/>
<path d="M45.499 36.131L39 32.3684V19.6316L45.499 15.869C46.1656 15.4831 47 15.9641 47 16.7345V35.2656C47 36.0359 46.1656 36.5169 45.499 36.131Z" fill="#324558"/>
</svg>
