<svg width="48" height="48" viewBox="0 0 48 48" fill="none" xmlns="http://www.w3.org/2000/svg">
<path fill-rule="evenodd" clip-rule="evenodd" d="M21.1716 10H14V6H21.1716C22.2324 6 23.2499 6.42143 24 7.17157L28.8284 12H36V40H4C2.89543 40 2 39.1046 2 38V14C2 12.8954 2.89543 12 4 12H23.1716L21.1716 10ZM20.5 17V25.25H25L17.5 35V26.75H13L20.5 17Z" fill="#324558"/>
<path d="M45.499 36.1309L39 32.3684V19.6315L45.499 15.869C46.1656 15.483 47 15.9641 47 16.7344V35.2655C47 36.0358 46.1656 36.5169 45.499 36.1309Z" fill="#324558"/>
</svg>
