<svg width="48" height="48" viewBox="0 0 48 48" fill="none" xmlns="http://www.w3.org/2000/svg">
<path d="M27.4855 5.9087L14 14L7.51493 15.6213C6.62459 15.8439 6 16.6438 6 17.5616V30.4384C6 31.3562 6.62459 32.1562 7.51493 32.3787L14 34L27.4855 42.0913C28.152 42.4912 29 42.0111 29 41.2338V6.76619C29 5.9889 28.152 5.50879 27.4855 5.9087Z" fill="#324558"/>
<path d="M37.8151 33.983L34.8711 31.2654C36.7979 29.4426 38 26.8615 38 23.9998C38 21.138 36.7979 18.557 34.8711 16.7342L37.8151 14.0166C40.3982 16.5564 42 20.091 42 23.9998C42 27.9085 40.3982 31.4431 37.8151 33.983Z" fill="#324558"/>
</svg>
