<svg width="48" height="48" viewBox="0 0 48 48" fill="none" xmlns="http://www.w3.org/2000/svg">
<path d="M11 14L24.4855 5.9087C25.152 5.50879 26 5.9889 26 6.76619V41.2338C26 42.0111 25.152 42.4912 24.4855 42.0913L11 34L4.51493 32.3787C3.62459 32.1562 3 31.3562 3 30.4384V17.5616C3 16.6438 3.62459 15.8439 4.51493 15.6213L11 14Z" fill="#324558"/>
<path d="M38.4785 39.211L35.5317 36.4909C38.8943 33.385 41 28.9384 41 24C41 19.0616 38.8943 14.6151 35.5317 11.5092L38.4785 8.78906C42.496 12.6143 45 18.0147 45 24C45 29.9853 42.496 35.3857 38.4785 39.211Z" fill="#324558"/>
<path d="M32.8151 33.983L29.8711 31.2654C31.7979 29.4426 33 26.8615 33 23.9998C33 21.138 31.7979 18.557 29.8711 16.7342L32.8151 14.0166C35.3982 16.5564 37 20.091 37 23.9998C37 27.9085 35.3982 31.4431 32.8151 33.983Z" fill="#324558"/>
</svg>
