<svg width="48" height="48" viewBox="0 0 48 48" fill="none" xmlns="http://www.w3.org/2000/svg">
<path d="M5.96869 10.92L9.43898 14.3903L4.51493 15.6213C3.62459 15.8439 3 16.6438 3 17.5616V30.4384C3 31.3562 3.62459 32.1562 4.51493 32.3787L11 34L24.4855 42.0913C25.152 42.4912 26 42.0111 26 41.2338V30.9513L37.0814 42.0327L39.9098 39.2042L8.79712 8.09154L5.96869 10.92Z" fill="#324558"/>
<path d="M15.9677 11.0194L26 21.0518V6.76619C26 5.9889 25.152 5.50879 24.4855 5.9087L15.9677 11.0194Z" fill="#324558"/>
<path d="M32.3914 27.4431L35.4184 30.4701C36.4287 28.5349 37 26.334 37 23.9998C37 20.091 35.3982 16.5564 32.8151 14.0166L29.8711 16.7342C31.7979 18.557 33 21.138 33 23.9998C33 25.2098 32.7851 26.3696 32.3914 27.4431Z" fill="#324558"/>
<path d="M38.239 33.2907L41.117 36.1688C43.562 32.7357 45 28.5358 45 24C45 18.0147 42.496 12.6143 38.4785 8.78906L35.5317 11.5092C38.8943 14.6151 41 19.0616 41 24C41 27.4287 39.9849 30.6203 38.239 33.2907Z" fill="#324558"/>
</svg>
