<svg width="48" height="48" viewBox="0 0 48 48" fill="none" xmlns="http://www.w3.org/2000/svg">
<path fill-rule="evenodd" clip-rule="evenodd" d="M16.3237 2.99988C15.3671 2.4476 14.1439 2.77535 13.5916 3.73193L4.59165 19.3204C4.03936 20.277 4.36711 21.5002 5.3237 22.0524L26.9743 34.5524L40.5724 16.9999L16.3237 2.99988ZM22.9837 11.4628L16.0555 7.46277L14.0555 10.9269L20.9837 14.9269L22.9837 11.4628Z" fill="#324558"/>
<path d="M32.876 31.8331L37.0787 36.4437C37.5347 36.9439 38.3454 36.8562 38.6838 36.2701L45.3162 24.7824C45.6546 24.1963 45.3252 23.4503 44.6641 23.3055L40.2338 22.3355L32.876 31.8331Z" fill="#324558"/>
<path d="M20.9118 31.0526L12.2516 26.0526L10.2516 29.5167L12.7468 30.9573C12.464 34.3416 9.62762 37 6.17031 37H6.00005L6 40.9889L6 34.0001H2V44.0001H6V41H6.17026C11.0977 41.0001 15.2399 37.6379 16.4277 33.0825L18.9118 34.5167L20.9118 31.0526Z" fill="#324558"/>
</svg>
