<svg width="48" height="48" viewBox="0 0 48 48" fill="none" xmlns="http://www.w3.org/2000/svg">
<path d="M4 9C4 7.89543 4.89543 7 6 7H42C43.1046 7 44 7.89543 44 9V12C44 12.5523 43.5523 13 43 13H5C4.44771 13 4 12.5523 4 12V9Z" fill="#324558"/>
<path d="M24 36C26.2091 36 28 34.2091 28 32C28 29.7909 26.2091 28 24 28C21.7909 28 20 29.7909 20 32C20 34.2091 21.7909 36 24 36Z" fill="#324558"/>
<path fill-rule="evenodd" clip-rule="evenodd" d="M41 16H7V26C7 35.3888 14.6112 43 24 43C33.3888 43 41 35.3888 41 26V16ZM24 21C20.6863 21 18 23.6863 18 27V32C18 35.3137 20.6863 38 24 38C27.3137 38 30 35.3137 30 32V27C30 23.6863 27.3137 21 24 21Z" fill="#324558"/>
</svg>
