<svg width="48" height="48" viewBox="0 0 48 48" fill="none" xmlns="http://www.w3.org/2000/svg">
<path d="M24 14C20.6863 14 18 16.6863 18 20C18 23.3137 20.6863 26 24 26C27.3137 26 30 23.3137 30 20C30 16.6863 27.3137 14 24 14Z" fill="#324558"/>
<path fill-rule="evenodd" clip-rule="evenodd" d="M24 4C15.1634 4 8 11.1634 8 20C8 28.8366 15.1634 36 24 36C32.8366 36 40 28.8366 40 20C40 11.1634 32.8366 4 24 4ZM24 11C19.0294 11 15 15.0294 15 20C15 24.9706 19.0294 29 24 29C28.9706 29 33 24.9706 33 20C33 15.0294 28.9706 11 24 11Z" fill="#324558"/>
<path d="M12.4545 35.091L8.72356 42.5528C8.39111 43.2177 8.87461 44 9.61799 44H38.3819C39.1253 44 39.6088 43.2177 39.2763 42.5528L35.5455 35.091C32.3454 37.5429 28.3429 39 24 39C19.6571 39 15.6545 37.5429 12.4545 35.091Z" fill="#324558"/>
</svg>
