<svg width="48" height="48" viewBox="0 0 48 48" fill="none" xmlns="http://www.w3.org/2000/svg">
<path fill-rule="evenodd" clip-rule="evenodd" d="M22 8.10401C12.4467 9.1034 5 17.1821 5 27C5 37.4934 13.5066 46 24 46C34.4934 46 43 37.4934 43 27C43 17.1821 35.5533 9.1034 26 8.10401C25.3427 8.03525 24.6755 8 24 8C23.3245 8 22.6573 8.03525 22 8.10401ZM24 12L27.2155 28.0777C27.6214 30.1068 26.0693 32 24 32C21.9307 32 20.3786 30.1068 20.7845 28.0777L24 12Z" fill="#B6C2CD"/>
<path d="M32 2H16V6H22V8.10401C22.6573 8.03525 23.3245 8 24 8C24.6755 8 25.3427 8.03525 26 8.10401V6H32V2Z" fill="#324558"/>
<path d="M41.3538 7.63867L38.0891 10.1026C40.6633 12.2513 42.739 14.9772 44.1172 18.0814L47.3824 15.6171C45.9005 12.5786 43.8438 9.87199 41.3538 7.63867Z" fill="#324558"/>
<path d="M27.2155 28.0777L24 12L20.7845 28.0777C20.3786 30.1068 21.9307 32 24 32C26.0693 32 27.6214 30.1068 27.2155 28.0777Z" fill="#324558"/>
</svg>
