<svg width="48" height="48" viewBox="0 0 48 48" fill="none" xmlns="http://www.w3.org/2000/svg">
<path fill-rule="evenodd" clip-rule="evenodd" d="M24 45C34.4934 45 43 36.4934 43 26C43 15.5066 34.4934 7 24 7C13.5066 7 5 15.5066 5 26C5 36.4934 13.5066 45 24 45ZM26 26.1716V18H22V27.8284L27.5858 33.4142L30.4142 30.5858L26 26.1716Z" fill="#B6C2CD"/>
<path d="M20.671 7.29066C14.3601 8.40595 9.12428 12.6363 6.6088 18.3366C4.99614 16.7101 4 14.4714 4 12C4 7.02944 8.02944 3 13 3C16.2441 3 19.0873 4.71642 20.671 7.29066Z" fill="#324558"/>
<path d="M44 12C44 14.4714 43.0039 16.7101 41.3912 18.3366C38.8757 12.6363 33.6399 8.40595 27.329 7.29066C28.9127 4.71642 31.7559 3 35 3C39.9706 3 44 7.02944 44 12Z" fill="#324558"/>
<path d="M26 18H22V27.8284L27.5858 33.4142L30.4142 30.5858L26 26.1716V18Z" fill="#324558"/>
</svg>
