<svg width="48" height="48" viewBox="0 0 48 48" fill="none" xmlns="http://www.w3.org/2000/svg">
<path fill-rule="evenodd" clip-rule="evenodd" d="M42 14H6V42C6 43.1046 6.89543 44 8 44H40C41.1046 44 42 43.1046 42 42V14ZM34.4042 23.9241L21.8438 36.3087L14.5958 29.1622L17.4042 26.3139L21.8438 30.6913L31.5958 21.0758L34.4042 23.9241Z" fill="#B6C2CD"/>
<path d="M18 4H14V8H8C6.89543 8 6 8.89543 6 10V14H42V10C42 8.89543 41.1046 8 40 8H34V4H30V8H18V4Z" fill="#324558"/>
<path d="M21.8438 36.3087L34.4042 23.9241L31.5958 21.0758L21.8438 30.6913L17.4042 26.3139L14.5958 29.1622L21.8438 36.3087Z" fill="#324558"/>
</svg>
