<svg width="48" height="48" viewBox="0 0 48 48" fill="none" xmlns="http://www.w3.org/2000/svg">
<path fill-rule="evenodd" clip-rule="evenodd" d="M42 14H6V42C6 43.1046 6.89543 44 8 44H40C41.1046 44 42 43.1046 42 42V14ZM23.9316 36.1094L29.2441 23.6484V21.8906H19V24.4297H25.7773L20.4551 36.1094H23.9316Z" fill="#B6C2CD"/>
<path d="M18 4H14V8H8C6.89543 8 6 8.89543 6 10V14H42V10C42 8.89543 41.1046 8 40 8H34V4H30V8H18V4Z" fill="#324558"/>
<path d="M29.2441 23.6484L23.9316 36.1094H20.4551L25.7773 24.4297H19V21.8906H29.2441V23.6484Z" fill="#324558"/>
</svg>
