<svg width="48" height="48" viewBox="0 0 48 48" fill="none" xmlns="http://www.w3.org/2000/svg">
<path fill-rule="evenodd" clip-rule="evenodd" d="M6 14V42C6 43.1046 6.89543 44 8 44H40C41.1046 44 42 43.1046 42 42V14H6ZM22 23.5H26V27.5H22V23.5ZM30 23.5H34V27.5H30V23.5ZM18 30.5H14V34.5H18V30.5ZM22 30.5H26V34.5H22V30.5ZM34 30.5H30V34.5H34V30.5ZM14 23.5H18V27.5H14V23.5Z" fill="#B6C2CD"/>
<path d="M18 4H14V8H8C6.89543 8 6 8.89543 6 10V14H42V10C42 8.89543 41.1046 8 40 8H34V4H30V8H18V4Z" fill="#324558"/>
<path d="M22 23.5H26V27.5H22V23.5Z" fill="#324558"/>
<path d="M34 23.5H30V27.5H34V23.5Z" fill="#324558"/>
<path d="M18 30.5H14V34.5H18V30.5Z" fill="#324558"/>
<path d="M26 30.5H22V34.5H26V30.5Z" fill="#324558"/>
<path d="M34 30.5H30V34.5H34V30.5Z" fill="#324558"/>
<path d="M18 23.5H14V27.5H18V23.5Z" fill="#324558"/>
</svg>
