<svg width="48" height="48" viewBox="0 0 48 48" fill="none" xmlns="http://www.w3.org/2000/svg">
<path d="M31.2412 25.001C31.5081 25.5023 31.6416 26.264 31.6416 27.2861V30.8018C31.6351 31.8239 31.4984 32.5758 31.2314 33.0576C30.9645 33.5329 30.5511 33.7705 29.9912 33.7705C29.4118 33.7705 28.9886 33.5264 28.7217 33.0381C28.4548 32.5433 28.3213 31.7653 28.3213 30.7041V27.0713C28.3408 26.1208 28.4775 25.4111 28.7314 24.9424C28.9919 24.4736 29.4053 24.2393 29.9717 24.2393C30.5511 24.2393 30.9743 24.4932 31.2412 25.001Z" fill="#B6C2CD"/>
<path fill-rule="evenodd" clip-rule="evenodd" d="M6 14V42C6 43.1046 6.89543 44 8 44H40C41.1046 44 42 43.1046 42 42V14H6ZM16.4854 27.6279H18.0381C19.2686 27.6279 19.8838 27.0257 19.8838 25.8213C19.8838 25.3525 19.7373 24.9717 19.4443 24.6787C19.1514 24.3792 18.738 24.2295 18.2041 24.2295C17.7679 24.2295 17.387 24.3564 17.0615 24.6104C16.7425 24.8643 16.583 25.18 16.583 25.5576H13.292C13.292 24.8089 13.5003 24.1416 13.917 23.5557C14.3337 22.9697 14.9098 22.514 15.6455 22.1885C16.3877 21.8564 17.2015 21.6904 18.0869 21.6904C19.6689 21.6904 20.9124 22.0518 21.8174 22.7744C22.7223 23.4971 23.1748 24.4899 23.1748 25.7529C23.1748 26.3649 22.986 26.9443 22.6084 27.4912C22.2373 28.0316 21.6937 28.471 20.9775 28.8096C21.7327 29.083 22.3252 29.4997 22.7549 30.0596C23.1846 30.613 23.3994 31.2998 23.3994 32.1201C23.3994 33.3896 22.9111 34.4053 21.9346 35.167C20.958 35.9287 19.6755 36.3096 18.0869 36.3096C17.1559 36.3096 16.29 36.1338 15.4893 35.7822C14.695 35.4242 14.0928 34.9326 13.6826 34.3076C13.2725 33.6761 13.0674 32.96 13.0674 32.1592H16.3779C16.3779 32.5954 16.5537 32.973 16.9053 33.292C17.2568 33.611 17.6898 33.7705 18.2041 33.7705C18.7835 33.7705 19.2458 33.611 19.5908 33.292C19.9359 32.9665 20.1084 32.5531 20.1084 32.0518C20.1084 31.3356 19.9294 30.8278 19.5713 30.5283C19.2132 30.2288 18.7184 30.0791 18.0869 30.0791H16.4854V27.6279ZM33.6338 34.7471C34.4997 33.7054 34.9326 32.2243 34.9326 30.3037V27.7158C34.9326 25.8018 34.4997 24.3206 33.6338 23.2725C32.7679 22.2243 31.5472 21.7002 29.9717 21.7002C28.3962 21.7002 27.1755 22.221 26.3096 23.2627C25.4502 24.3044 25.0205 25.7855 25.0205 27.7061V30.3037C25.0205 32.2113 25.4535 33.6891 26.3193 34.7373C27.1852 35.7855 28.4092 36.3096 29.9912 36.3096C31.5602 36.3096 32.7744 35.7887 33.6338 34.7471Z" fill="#B6C2CD"/>
<path d="M18 4H14V8H8C6.89543 8 6 8.89543 6 10V14H42V10C42 8.89543 41.1046 8 40 8H34V4H30V8H18V4Z" fill="#324558"/>
<path d="M16.4854 27.6279H18.0381C19.2686 27.6279 19.8838 27.0257 19.8838 25.8213C19.8838 25.3525 19.7373 24.9717 19.4443 24.6787C19.1514 24.3792 18.738 24.2295 18.2041 24.2295C17.7679 24.2295 17.387 24.3564 17.0615 24.6104C16.7425 24.8643 16.583 25.18 16.583 25.5576H13.292C13.292 24.8089 13.5003 24.1416 13.917 23.5557C14.3337 22.9697 14.9098 22.514 15.6455 22.1885C16.3877 21.8564 17.2015 21.6904 18.0869 21.6904C19.6689 21.6904 20.9124 22.0518 21.8174 22.7744C22.7223 23.4971 23.1748 24.4899 23.1748 25.7529C23.1748 26.3649 22.986 26.9443 22.6084 27.4912C22.2373 28.0316 21.6937 28.471 20.9775 28.8096C21.7327 29.083 22.3252 29.4997 22.7549 30.0596C23.1846 30.613 23.3994 31.2998 23.3994 32.1201C23.3994 33.3896 22.9111 34.4053 21.9346 35.167C20.958 35.9287 19.6755 36.3096 18.0869 36.3096C17.1559 36.3096 16.29 36.1338 15.4893 35.7822C14.695 35.4242 14.0928 34.9326 13.6826 34.3076C13.2725 33.6761 13.0674 32.96 13.0674 32.1592H16.3779C16.3779 32.5954 16.5537 32.973 16.9053 33.292C17.2568 33.611 17.6898 33.7705 18.2041 33.7705C18.7835 33.7705 19.2458 33.611 19.5908 33.292C19.9359 32.9665 20.1084 32.5531 20.1084 32.0518C20.1084 31.3356 19.9294 30.8278 19.5713 30.5283C19.2132 30.2288 18.7184 30.0791 18.0869 30.0791H16.4854V27.6279Z" fill="#324558"/>
<path fill-rule="evenodd" clip-rule="evenodd" d="M34.9326 30.3037C34.9326 32.2243 34.4997 33.7054 33.6338 34.7471C32.7744 35.7887 31.5602 36.3096 29.9912 36.3096C28.4092 36.3096 27.1852 35.7855 26.3193 34.7373C25.4535 33.6891 25.0205 32.2113 25.0205 30.3037V27.7061C25.0205 25.7855 25.4502 24.3044 26.3096 23.2627C27.1755 22.221 28.3962 21.7002 29.9717 21.7002C31.5472 21.7002 32.7679 22.2243 33.6338 23.2725C34.4997 24.3206 34.9326 25.8018 34.9326 27.7158V30.3037ZM31.6416 27.2861C31.6416 26.264 31.5081 25.5023 31.2412 25.001C30.9743 24.4932 30.5511 24.2393 29.9717 24.2393C29.4053 24.2393 28.9919 24.4736 28.7314 24.9424C28.4775 25.4111 28.3408 26.1208 28.3213 27.0713V30.7041C28.3213 31.7653 28.4548 32.5433 28.7217 33.0381C28.9886 33.5264 29.4118 33.7705 29.9912 33.7705C30.5511 33.7705 30.9645 33.5329 31.2314 33.0576C31.4984 32.5758 31.6351 31.8239 31.6416 30.8018V27.2861Z" fill="#324558"/>
</svg>
