<svg width="48" height="48" viewBox="0 0 48 48" fill="none" xmlns="http://www.w3.org/2000/svg">
<path fill-rule="evenodd" clip-rule="evenodd" d="M6 14V42C6 43.1046 6.89543 44 8 44H40C41.1046 44 42 43.1046 42 42V14H6ZM28.5858 21.5858L24 26.1716L19.4142 21.5858L16.5858 24.4142L21.1716 29L16.5858 33.5858L19.4142 36.4142L24 31.8284L28.5858 36.4142L31.4142 33.5858L26.8284 29L31.4142 24.4142L28.5858 21.5858Z" fill="#B6C2CD"/>
<path d="M14 4H18V8H30V4H34V8H40C41.1046 8 42 8.89543 42 10V14H6V10C6 8.89543 6.89543 8 8 8H14V4Z" fill="#324558"/>
<path d="M24 26.1716L28.5858 21.5858L31.4142 24.4142L26.8284 29L31.4142 33.5858L28.5858 36.4142L24 31.8284L19.4142 36.4142L16.5858 33.5858L21.1716 29L16.5858 24.4142L19.4142 21.5858L24 26.1716Z" fill="#324558"/>
</svg>
