<svg width="48" height="48" viewBox="0 0 48 48" fill="none" xmlns="http://www.w3.org/2000/svg">
<g clip-path="url(#clip0_29_952)">
<path fill-rule="evenodd" clip-rule="evenodd" d="M38 21C40.14 21 42.1592 21.5171 43.9395 22.4331C43.1403 12.1198 34.5184 4 24 4C12.9543 4 4 12.9543 4 24C4 35.0457 12.9543 44 24 44C25.7233 44 27.3956 43.7821 28.991 43.3722C26.5309 41.0069 25 37.6822 25 34C25 26.8203 30.8203 21 38 21ZM26 13H22V25.1716L15.5858 31.5858L18.4142 34.4142L26 26.8284V13Z" fill="#B6C2CD"/>
<path d="M21.9999 13H25.9999V26.8284L18.4141 34.4142L15.5857 31.5858L21.9999 25.1716V13Z" fill="#324558"/>
<path fill-rule="evenodd" clip-rule="evenodd" d="M47.9999 34C47.9999 39.5228 43.5228 44 37.9999 44C32.4771 44 27.9999 39.5228 27.9999 34C27.9999 28.4772 32.4771 24 37.9999 24C43.5228 24 47.9999 28.4772 47.9999 34ZM32.9999 32.5H42.9999V35.5H32.9999V32.5Z" fill="#324558"/>
</g>
<defs>
<clipPath id="clip0_29_952">
<rect width="48" height="48" fill="white"/>
</clipPath>
</defs>
</svg>
