<svg width="48" height="48" viewBox="0 0 48 48" fill="none" xmlns="http://www.w3.org/2000/svg">
<path fill-rule="evenodd" clip-rule="evenodd" d="M24 37C31.1797 37 37 31.1797 37 24C37 16.8203 31.1797 11 24 11C16.8203 11 11 16.8203 11 24C11 31.1797 16.8203 37 24 37ZM25.5 18V24.3787L30.0607 28.9393L27.9393 31.0607L22.5 25.6213V18H25.5Z" fill="#B6C2CD"/>
<path d="M24 40C32.8366 40 40 32.8366 40 24C40 15.1634 32.8366 8 24 8C20.3928 8 17.0644 9.19369 14.3883 11.2076L16.252 13.0713L6.53551 15.7167L9.18095 6.00022L11.5374 8.35667C14.9556 5.62987 19.2875 4 24 4C35.0457 4 44 12.9543 44 24C44 35.0457 35.0457 44 24 44C20.9243 44 18.0108 43.3057 15.4076 42.0654L17.416 38.5869C19.424 39.4947 21.653 40 24 40Z" fill="#324558"/>
<path d="M4.75804 18.5271L8.62327 19.5628C8.21743 20.9717 8 22.4605 8 24C8 24.8503 8.06632 25.685 8.19408 26.4994L4.31224 27.5396C4.10707 26.3907 4 25.2079 4 24C4 22.1024 4.26428 20.2665 4.75804 18.5271Z" fill="#324558"/>
<path d="M8.93644 29.4063L5.06107 30.4447C6.47749 34.6084 9.22835 38.155 12.804 40.575L14.8106 37.0995C12.1345 35.2188 10.0608 32.5387 8.93644 29.4063Z" fill="#324558"/>
<path d="M25.5 24.3787V18H22.5V25.6213L27.9393 31.0607L30.0607 28.9393L25.5 24.3787Z" fill="#324558"/>
</svg>
