<svg width="48" height="48" viewBox="0 0 48 48" fill="none" xmlns="http://www.w3.org/2000/svg">
<path fill-rule="evenodd" clip-rule="evenodd" d="M14 4C12.8954 4 12 4.89543 12 6V15.1716C12 15.702 12.2107 16.2107 12.5858 16.5858L20 24L12.5858 31.4142C12.2107 31.7893 12 32.298 12 32.8284V42C12 43.1046 12.8954 44 14 44H34C35.1046 44 36 43.1046 36 42V32.8284C36 32.298 35.7893 31.7893 35.4142 31.4142L28 24L35.4142 16.5858C35.7893 16.2107 36 15.702 36 15.1716V6C36 4.89543 35.1046 4 34 4H14ZM32 8H16V14L24 22L32 14V8ZM16 34L16 40H32V34L24 26L16 34Z" fill="#B6C2CD"/>
<path d="M32 40L16 40L16 34L24 26L32 34V40Z" fill="#324558"/>
</svg>
