<svg width="48" height="48" viewBox="0 0 48 48" fill="none" xmlns="http://www.w3.org/2000/svg">
<path fill-rule="evenodd" clip-rule="evenodd" d="M24 39C32.2843 39 39 32.2843 39 24C39 15.7157 32.2843 9 24 9C15.7157 9 9 15.7157 9 24C9 32.2843 15.7157 39 24 39ZM26 24.1716V18H22V25.8284L26.0858 29.9142L28.9142 27.0858L26 24.1716Z" fill="#B6C2CD"/>
<path d="M15.8347 3.81893C15.9283 2.78877 16.7921 2 17.8265 2H30.1736C31.208 2 32.0717 2.78877 32.1654 3.81893L32.9024 11.9262C30.4124 10.0871 27.3332 9 24 9C20.6669 9 17.5877 10.0871 15.0977 11.9262L15.8347 3.81893Z" fill="#324558"/>
<path d="M24 39C27.3332 39 30.4124 37.9129 32.9024 36.0738L32.1654 44.1811C32.0717 45.2112 31.208 46 30.1736 46H17.8265C16.7921 46 15.9283 45.2112 15.8347 44.1811L15.0977 36.0738C17.5877 37.9129 20.6669 39 24 39Z" fill="#324558"/>
<path d="M26 18H22V25.8284L26.0858 29.9142L28.9142 27.0858L26 24.1716V18Z" fill="#324558"/>
</svg>
