<svg width="48" height="48" viewBox="0 0 48 48" fill="none" xmlns="http://www.w3.org/2000/svg">
<path d="M10.8182 40C14.6943 40 20.237 34.0429 24 29.3539C27.763 34.0429 33.3057 40 37.1818 40C40.7872 40 43.9806 37.3916 45.9464 33.3811C44.559 35.0201 42.8001 36 40.8864 36C36.4053 36 28.9545 25.3846 28 24C28.9545 22.6154 36.4053 12 40.8864 12C42.8001 12 44.559 12.9799 45.9464 14.6189C43.9806 10.6084 40.7872 8 37.1818 8C33.3057 8 27.763 13.9571 24 18.6461C20.237 13.9571 14.6943 8 10.8182 8C7.21283 8 4.0194 10.6084 2.05359 14.6189C3.44095 12.9799 5.19992 12 7.11363 12C11.5947 12 19.0454 22.6154 20 24C19.0454 25.3846 11.5947 36 7.11363 36C5.19992 36 3.44095 35.0201 2.05359 33.3811C4.0194 37.3916 7.21282 40 10.8182 40Z" fill="#324558"/>
<path d="M3.46997 23.9999C3.46997 20.4875 4.49029 17.3276 6.11648 15.1331C3.21003 15.8681 1 19.5582 1 23.9999C1 28.4416 3.21003 32.1317 6.11648 32.8668C4.49029 30.6722 3.46997 27.5123 3.46997 23.9999Z" fill="#324558"/>
<path d="M47.0001 23.9999C47.0001 28.4446 44.7871 32.1368 41.8777 32.8683C43.5045 30.6737 44.5253 27.5131 44.5253 23.9999C44.5253 20.4867 43.5045 17.3262 41.8777 15.1316C44.7871 15.8631 47.0001 19.5553 47.0001 23.9999Z" fill="#324558"/>
<path fill-rule="evenodd" clip-rule="evenodd" d="M12.4053 26.6406H9.11719L8.54297 28.5H5.97949L9.62988 18.5469H11.8857L15.5635 28.5H12.9863L12.4053 26.6406ZM9.69141 24.7881H11.8311L10.7578 21.3359L9.69141 24.7881Z" fill="#324558"/>
<path fill-rule="evenodd" clip-rule="evenodd" d="M34.752 18.5469V28.5H38.792C40.0042 28.4909 40.918 28.2425 41.5332 27.7549C42.153 27.2627 42.4629 26.529 42.4629 25.5537C42.4629 25.016 42.3239 24.5602 42.0459 24.1865C41.7679 23.8128 41.3691 23.5576 40.8496 23.4209C41.3099 23.2477 41.6585 22.9788 41.8955 22.6143C42.1325 22.2497 42.251 21.8099 42.251 21.2949C42.251 20.4017 41.916 19.7204 41.2461 19.251C40.5807 18.7816 39.6077 18.5469 38.3271 18.5469H34.752ZM37.1514 26.6543V24.2686H38.833C39.6579 24.2731 40.0703 24.6901 40.0703 25.5195C40.0703 25.8796 39.9541 26.1598 39.7217 26.3604C39.4893 26.5563 39.1566 26.6543 38.7236 26.6543H37.1514ZM38.4023 22.6963H37.1514V20.3994H38.3271C38.8649 20.3994 39.2546 20.4928 39.4961 20.6797C39.7376 20.862 39.8584 21.1628 39.8584 21.582C39.8584 21.9466 39.7467 22.2223 39.5234 22.4092C39.3001 22.596 38.9264 22.6917 38.4023 22.6963Z" fill="#324558"/>
</svg>
