<svg width="48" height="48" viewBox="0 0 48 48" fill="none" xmlns="http://www.w3.org/2000/svg">
<path d="M6 6C4.89543 6 4 6.89543 4 8V24C4 25.1046 4.89543 26 6 26H11V31H6.24513C5.37936 31 4.92266 32.0254 5.50183 32.669L12.2565 40.1741C12.6537 40.6155 13.3458 40.6155 13.7431 40.1741L20.4977 32.669C21.0769 32.0254 20.6202 31 19.7544 31H15V26H22.4644C24.6325 21.8402 28.9846 19 34 19C38.0209 19 41.6154 20.8255 44 23.6929V8C44 6.89543 43.1046 6 42 6H6Z" fill="#324558"/>
<path fill-rule="evenodd" clip-rule="evenodd" d="M44 32C44 37.5228 39.5229 42 34 42C28.4772 42 24 37.5228 24 32C24 26.4772 28.4772 22 34 22C39.5229 22 44 26.4772 44 32ZM32.5 27V30.5H29V33.5H32.5V37H35.5V33.5H39V30.5H35.5V27H32.5Z" fill="#324558"/>
</svg>
