<svg width="48" height="48" viewBox="0 0 48 48" fill="none" xmlns="http://www.w3.org/2000/svg">
<path d="M21.9346 3C17.5348 3 13.5266 4.66492 10.5155 7.39429L11.6213 8.50011H17.729L22.074 14.03C22.2131 14.0102 22.3554 14 22.5 14C24.1569 14 25.5 15.3431 25.5 17C25.5 18.6569 24.1569 20 22.5 20C20.8431 20 19.5 18.6569 19.5 17C19.5 16.6053 19.5762 16.2284 19.7148 15.8832L16.2709 11.5001H10.3787L8.4781 9.59955C6.29634 12.4278 5 15.9638 5 19.8C5 25.1059 6.61899 27.425 8.22207 29.7213C9.79392 31.9729 11.3505 34.2026 11.3505 39.2045V41.2813C11.3505 42.3087 12.1288 43.1689 13.1511 43.2713L15.5 43.5067V25.0102L12.3953 20.9742C12.266 20.9912 12.134 21 12 21C10.3431 21 9 19.6569 9 18C9 16.3431 10.3431 15 12 15C13.6569 15 15 16.3431 15 18C15 18.4057 14.9195 18.7925 14.7736 19.1455L18.5 23.9898V43.8073L29.3022 44.8898C29.8909 44.9488 30.4019 44.4865 30.4019 43.8948V38.7H34.8692C37.0783 38.7 38.8692 36.9091 38.8692 34.7V28.2451L42.8997 26.56C43.4736 26.3201 43.6915 25.62 43.3551 25.0967L38.7617 17.9502C37.8327 9.54323 30.6561 3 21.9346 3Z" fill="#324558"/>
</svg>
