<svg width="48" height="48" viewBox="0 0 48 48" fill="none" xmlns="http://www.w3.org/2000/svg">
<path d="M22.5 4.05518C12.1549 4.82223 4 13.4587 4 23.9998C4 35.0455 12.9543 43.9998 24 43.9998C28.9829 43.9998 33.5403 42.1775 37.0419 39.163L32.7822 34.9033C30.3805 36.8402 27.3257 37.9998 24 37.9998C16.268 37.9998 10 31.7318 10 23.9998C10 16.7745 15.4734 10.8276 22.5 10.0792V4.05518Z" fill="#324558"/>
<path d="M43.9446 25.4998C43.6187 29.8948 41.8725 33.8946 39.1632 37.0417L34.9035 32.782C36.5453 30.7462 37.6286 28.2412 37.9206 25.4998H43.9446Z" fill="#324558"/>
<path d="M25.5 4.05518C35.3499 4.78551 43.2143 12.6499 43.9446 22.4998H37.9206C37.2246 15.9659 32.0338 10.7752 25.5 10.0792V4.05518Z" fill="#324558"/>
<path fill-rule="evenodd" clip-rule="evenodd" d="M24 16C16.7273 16 14 24 14 24C14 24 16.7273 32 24 32C31.2727 32 34 24 34 24C34 24 31.2727 16 24 16ZM27 24C27 25.6569 25.6569 27 24 27C22.3431 27 21 25.6569 21 24C21 22.3431 22.3431 21 24 21C25.6569 21 27 22.3431 27 24Z" fill="#324558"/>
</svg>
