<svg width="48" height="48" viewBox="0 0 48 48" fill="none" xmlns="http://www.w3.org/2000/svg">
<path fill-rule="evenodd" clip-rule="evenodd" d="M23.0675 3.49176C23.6512 3.18406 24.3491 3.18406 24.9328 3.49176L42.8514 12.9375C43.5078 13.2835 43.9187 13.9646 43.9187 14.7067V25.6767L23.9999 36.3001L4.08154 25.677V14.7067C4.08154 13.9646 4.49243 13.2835 5.1489 12.9375L23.0675 3.49176ZM24 11.0001C25.1046 11.0001 26 10.1047 26 9.00012C26 7.89555 25.1046 7.00012 24 7.00012C22.8954 7.00012 22 7.89555 22 9.00012C22 10.1047 22.8954 11.0001 24 11.0001ZM26 24.0001C26 25.1047 25.1046 26.0001 24 26.0001C22.8954 26.0001 22 25.1047 22 24.0001C22 22.8955 22.8954 22.0001 24 22.0001C25.1046 22.0001 26 22.8955 26 24.0001ZM10 18.0001C11.1046 18.0001 12 17.1047 12 16.0001C12 14.8955 11.1046 14.0001 10 14.0001C8.89543 14.0001 8 14.8955 8 16.0001C8 17.1047 8.89543 18.0001 10 18.0001ZM40 16.0001C40 17.1047 39.1046 18.0001 38 18.0001C36.8954 18.0001 36 17.1047 36 16.0001C36 14.8955 36.8954 14.0001 38 14.0001C39.1046 14.0001 40 14.8955 40 16.0001ZM31 16.5001L24 20.0001L17 16.5001L24 13.0001L31 16.5001Z" fill="#324558"/>
<path d="M24 39.7001L43.9187 29.0767V33.2935C43.9187 34.0356 43.5078 34.7167 42.8514 35.0628L24.9328 44.5085C24.3491 44.8162 23.6512 44.8162 23.0675 44.5085L5.1489 35.0628C4.49243 34.7167 4.08154 34.0356 4.08154 33.2935V29.077L24 39.7001Z" fill="#324558"/>
</svg>
