<svg width="48" height="48" viewBox="0 0 48 48" fill="none" xmlns="http://www.w3.org/2000/svg">
<path d="M34 11C34 12.3807 29.5228 13.5 24 13.5C18.4772 13.5 14 12.3807 14 11C14 9.61929 18.4772 8.5 24 8.5C29.5228 8.5 34 9.61929 34 11Z" fill="#324558"/>
<path fill-rule="evenodd" clip-rule="evenodd" d="M7 13.636C6.35214 12.8106 6 11.9236 6 11C6 6.58172 14.0589 3 24 3C33.9411 3 42 6.58172 42 11C42 11.9236 41.6479 12.8106 41 13.636V34.364C41.6479 35.1894 42 36.0764 42 37C42 41.4183 33.9411 45 24 45C14.0589 45 6 41.4183 6 37C6 36.0764 6.35214 35.1894 7 34.364V13.636ZM39 11C39 11.1284 38.9539 11.4766 38.4123 12.0458C37.8559 12.6304 36.909 13.2934 35.5095 13.9154C32.718 15.1561 28.6513 16 24 16C19.3487 16 15.282 15.1561 12.4905 13.9154C11.0909 13.2934 10.1441 12.6304 9.58771 12.0458C9.04606 11.4766 9 11.1284 9 11C9 10.8716 9.04606 10.5234 9.58771 9.95419C10.1441 9.36957 11.0909 8.7066 12.4905 8.08458C15.282 6.84391 19.3487 6 24 6C28.6513 6 32.718 6.84391 35.5095 8.08458C36.909 8.7066 37.8559 9.36957 38.4123 9.95419C38.9539 10.5234 39 10.8716 39 11ZM11 22.0287C12.6229 22.9201 14.6679 23.6534 17 24.1684V20.1684C14.6679 19.6533 12.6229 18.9201 11 18.0287V22.0287ZM17 32.1397C14.6679 31.6246 12.6229 30.8913 11 30V26C12.6229 26.8913 14.6679 27.6246 17 28.1397V32.1397ZM11 37.9713C12.6229 38.8626 14.6679 39.5959 17 40.1109V36.1109C14.6679 35.5959 12.6229 34.8626 11 33.9713V37.9713Z" fill="#324558"/>
</svg>
