<svg width="48" height="48" viewBox="0 0 48 48" fill="none" xmlns="http://www.w3.org/2000/svg">
<path fill-rule="evenodd" clip-rule="evenodd" d="M30.2275 18.364C31.3411 16.8661 32 15.01 32 13C32 8.02944 27.9706 4 23 4C18.0294 4 14 8.02944 14 13C14 15.6406 15.1372 18.0156 16.9486 19.662L12.0471 30.0778C11.7055 30.0266 11.3559 30 11 30C7.13401 30 4 33.134 4 37C4 40.866 7.13401 44 11 44C14.5282 44 17.4467 41.3898 17.9298 37.9951L32.696 35.8075C33.7033 37.7066 35.7006 39 38 39C41.3137 39 44 36.3137 44 33C44 29.6863 41.3137 27 38 27C37.4469 27 36.9112 27.0749 36.4026 27.215L30.2275 18.364ZM17.3444 34.0382L32.11 31.8507C32.2772 30.9885 32.6291 30.1922 33.1227 29.5046L27.1727 20.9763C25.9255 21.6301 24.5059 22 23 22C22.1116 22 21.2532 21.8713 20.4426 21.6315L15.666 31.7818C16.3671 32.4092 16.9411 33.1758 17.3444 34.0382Z" fill="#324558"/>
</svg>
