<svg width="48" height="48" viewBox="0 0 48 48" fill="none" xmlns="http://www.w3.org/2000/svg">
<path d="M4 8C4 6.89543 4.89543 6 6 6H20.5V15H4V8Z" fill="#324558"/>
<path d="M23.5 15H40V8C40 6.89543 39.1046 6 38 6H23.5V15Z" fill="#324558"/>
<path d="M4 18H32V21.4116C28.5396 22.4094 25.7936 25.1339 24.8717 28.62C23.918 28.929 23.0346 29.3992 22.2579 30H4V18Z" fill="#324558"/>
<path d="M4 33H19.8187C19.2947 34.0857 19 35.3042 19 36.6C19 38.0384 19.3632 39.3816 20 40.5536V42H6C4.89543 42 4 41.1046 4 40V33Z" fill="#324558"/>
<path d="M22 36.6C22 39.5823 24.4797 42 27.5385 42H41.3846C43.9336 42 46 39.9853 46 37.5C46 35.2391 44.29 33.3677 42.0621 33.0481C42.2223 32.4584 42.3077 31.8389 42.3077 31.2C42.3077 27.2235 39.0015 24 34.9231 24C30.8447 24 27.5385 27.2235 27.5385 31.2C24.4797 31.2 22 33.6177 22 36.6Z" fill="#324558"/>
</svg>
