<svg width="48" height="48" viewBox="0 0 48 48" fill="none" xmlns="http://www.w3.org/2000/svg">
<path fill-rule="evenodd" clip-rule="evenodd" d="M16 6V12H6C4.89543 12 4 12.8954 4 14V42C4 43.1046 4.89543 44 6 44H34C35.1046 44 36 43.1046 36 42V32H42C43.1046 32 44 31.1046 44 30V6C44 4.89543 43.1046 4 42 4H18C16.8954 4 16 4.89543 16 6ZM20 8V12H34C35.1046 12 36 12.8954 36 14V28H40V8H20ZM17.8437 35.8086L30.4041 23.4241L27.5957 20.5758L17.8437 30.1913L13.4041 25.8139L10.5957 28.6622L17.8437 35.8086Z" fill="#324558"/>
</svg>
