<svg width="48" height="48" viewBox="0 0 48 48" fill="none" xmlns="http://www.w3.org/2000/svg">
<path d="M13 42C6.92487 42 2 37.0751 2 31C2 25.6075 5.88034 21.1212 11.0011 20.1812C11.0004 20.1209 11 20.0605 11 20C11 12.268 17.268 6 25 6C32.4078 6 38.4718 11.7534 38.9673 19.0354C38.6479 19.012 38.3254 19 38 19C30.8203 19 25 24.8203 25 32C25 36.0209 26.8255 39.6154 29.6929 42H13Z" fill="#324558"/>
<path fill-rule="evenodd" clip-rule="evenodd" d="M38 42C43.5228 42 48 37.5228 48 32C48 26.4772 43.5228 22 38 22C32.4772 22 28 26.4772 28 32C28 37.5228 32.4772 42 38 42ZM43 30.5H39.5V27H36.5V30.5H33V33.5H36.5V37H39.5V33.5H43V30.5Z" fill="#324558"/>
</svg>
