<svg width="48" height="48" viewBox="0 0 48 48" fill="none" xmlns="http://www.w3.org/2000/svg">
<path d="M13 42C6.92487 42 2 37.0751 2 31C2 25.6075 5.88034 21.1212 11.0011 20.1812C11.0004 20.1209 11 20.0605 11 20C11 12.268 17.268 6 25 6C31.7022 6 37.3045 10.7096 38.6778 17H31C28.7909 17 27 18.7909 27 21V41C27 41.3453 27.0438 41.6804 27.126 42H13Z" fill="#324558"/>
<path fill-rule="evenodd" clip-rule="evenodd" d="M30 21C30 20.4477 30.4477 20 31 20H45C45.5523 20 46 20.4477 46 21V41C46 41.5523 45.5523 42 45 42H31C30.4477 42 30 41.5523 30 41V21ZM41.5 23.5H34.5V26.5H41.5V23.5ZM41.5 29.5H34.5V32.5H41.5V29.5ZM41.5 35.5H34.5V38.5H41.5V35.5Z" fill="#324558"/>
</svg>
