<svg width="48" height="48" viewBox="0 0 48 48" fill="none" xmlns="http://www.w3.org/2000/svg">
<path fill-rule="evenodd" clip-rule="evenodd" d="M8 6C6.89543 6 6 6.89543 6 8V40C6 41.1046 6.89543 42 8 42H40C41.1046 42 42 41.1046 42 40V8C42 6.89543 41.1046 6 40 6H8ZM11 28C11 31.3137 13.6863 34 17 34H32C34.7614 34 37 31.7614 37 29C37 26.4879 35.1474 24.4085 32.734 24.0535C32.9075 23.3982 33 22.7099 33 22C33 17.5817 29.4183 14 25 14C20.5817 14 17 17.5817 17 22C13.6863 22 11 24.6863 11 28Z" fill="#324558"/>
</svg>
