<svg width="48" height="48" viewBox="0 0 48 48" fill="none" xmlns="http://www.w3.org/2000/svg">
<path fill-rule="evenodd" clip-rule="evenodd" d="M4 8C4 6.89543 4.89543 6 6 6H42C43.1046 6 44 6.89543 44 8V32C44 33.1046 43.1046 34 42 34L27 34V37.982C27.2857 38.1062 29.2191 38.9034 31.9654 38.996C32.5305 39.015 33.0001 39.4649 33.0001 40.0304V41.9955H27V42H21V41.9955H15V40.0304C15 39.4649 15.4695 39.015 16.0347 38.996C18.7807 38.9034 20.7141 38.1063 21 37.9821V34L6 34C4.89543 34 4 33.1046 4 32V8ZM26 15H22V29H26V15ZM14 10H18V29H14V10ZM34 21H30V29H34V21Z" fill="#324558"/>
</svg>
