<svg width="48" height="48" viewBox="0 0 48 48" fill="none" xmlns="http://www.w3.org/2000/svg">
<path fill-rule="evenodd" clip-rule="evenodd" d="M36.9998 15.0619L37 15C37 8.92487 32.0751 4 26 4C20.6079 4 16.1219 7.87976 15.1814 13H13C8.02944 13 4 17.0294 4 22C4 26.9706 8.02944 31 13 31H19C19.336 31 19.6695 30.989 20 30.9672V31H22V37H17.584C16.8124 35.2341 15.0503 34 13 34C10.2386 34 8 36.2386 8 39C8 41.7614 10.2386 44 13 44C15.0503 44 16.8124 42.7659 17.584 41H30.416C31.1876 42.7659 32.9497 44 35 44C37.7614 44 40 41.7614 40 39C40 36.2386 37.7614 34 35 34C32.9497 34 31.1876 35.2341 30.416 37H26V31H36C40.4183 31 44 27.4183 44 23C44 18.9203 40.9462 15.5539 36.9998 15.0619ZM13 41C14.1046 41 15 40.1046 15 39C15 37.8954 14.1046 37 13 37C11.8954 37 11 37.8954 11 39C11 40.1046 11.8954 41 13 41ZM37 39C37 40.1046 36.1046 41 35 41C33.8954 41 33 40.1046 33 39C33 37.8954 33.8954 37 35 37C36.1046 37 37 37.8954 37 39Z" fill="#324558"/>
</svg>
