<svg width="48" height="48" viewBox="0 0 48 48" fill="none" xmlns="http://www.w3.org/2000/svg">
<path d="M13 42C6.92487 42 2 37.0751 2 31C2 25.6075 5.88034 21.1212 11.0011 20.1812C11.0004 20.1209 11 20.0605 11 20C11 12.268 17.268 6 25 6C31.9881 6 37.7804 11.1199 38.8302 17.8132L27 22.8321V30.5455C27 35.2367 29.0496 38.7206 31.4531 41.0471C31.8037 41.3865 32.1646 41.7041 32.5313 42H13Z" fill="#324558"/>
<path fill-rule="evenodd" clip-rule="evenodd" d="M39 21L30 24.8182V30.5455C30 38.0195 36.439 41.5094 39 42C41.561 41.5094 48 38.0195 48 30.5455V24.8182L39 21ZM45.0944 28.0259L37.4376 36.1932L32.9058 31.3593L35.0944 29.3075L37.4376 31.8069L42.9058 25.9741L45.0944 28.0259Z" fill="#324558"/>
</svg>
