<svg width="48" height="48" viewBox="0 0 48 48" fill="none" xmlns="http://www.w3.org/2000/svg">
<path d="M12 34H18V38H12V34Z" fill="#324558"/>
<path d="M20 34H26V38H20V34Z" fill="#324558"/>
<path fill-rule="evenodd" clip-rule="evenodd" d="M9.94369 5.65243C10.1123 4.69671 10.9428 4 11.9133 4H36.0867C37.0572 4 37.8877 4.69671 38.0563 5.65243L42 28V42C42 43.1046 41.1046 44 40 44H8C6.89543 44 6 43.1046 6 42V28L9.94369 5.65243ZM38 32H10V40H38V32ZM19.6923 24C17.6531 24 16 22.3882 16 20.4C16 18.4118 17.6531 16.8 19.6923 16.8C19.6923 14.149 21.8964 12 24.6154 12C27.3343 12 29.5385 14.149 29.5385 16.8C29.5385 17.2259 29.4816 17.6389 29.3748 18.0321C30.86 18.2451 32 19.4928 32 21C32 22.6569 30.6224 24 28.9231 24H19.6923Z" fill="#324558"/>
</svg>
