<svg width="48" height="48" viewBox="0 0 48 48" fill="none" xmlns="http://www.w3.org/2000/svg">
<path fill-rule="evenodd" clip-rule="evenodd" d="M37 15L36.9998 15.0619C40.9462 15.5539 44 18.9203 44 23C44 27.4183 40.4183 31 36 31H26V34.416C27.1534 34.92 28.08 35.8466 28.584 37H40V41H28.584C27.8124 42.7659 26.0503 44 24 44C21.9497 44 20.1876 42.7659 19.416 41H8L8 37H19.416C19.92 35.8466 20.8466 34.92 22 34.416V31H20V30.9672C19.6695 30.989 19.336 31 19 31H13C8.02944 31 4 26.9706 4 22C4 17.0294 8.02944 13 13 13H15.1814C16.1219 7.87976 20.6079 4 26 4C32.0751 4 37 8.92487 37 15ZM26 39C26 40.1046 25.1046 41 24 41C22.8954 41 22 40.1046 22 39C22 37.8954 22.8954 37 24 37C25.1046 37 26 37.8954 26 39Z" fill="#324558"/>
</svg>
