<svg width="48" height="48" viewBox="0 0 48 48" fill="none" xmlns="http://www.w3.org/2000/svg">
<path fill-rule="evenodd" clip-rule="evenodd" d="M25 13H18V35H25V13ZM23 16.5C23 17.3284 22.3284 18 21.5 18C20.6716 18 20 17.3284 20 16.5C20 15.6716 20.6716 15 21.5 15C22.3284 15 23 15.6716 23 16.5Z" fill="#324558"/>
<path fill-rule="evenodd" clip-rule="evenodd" d="M28 13V35H35V13H28ZM31.5 18C32.3284 18 33 17.3284 33 16.5C33 15.6716 32.3284 15 31.5 15C30.6716 15 30 15.6716 30 16.5C30 17.3284 30.6716 18 31.5 18Z" fill="#324558"/>
<path fill-rule="evenodd" clip-rule="evenodd" d="M6 8C6 6.89543 6.89543 6 8 6H40C41.1046 6 42 6.89543 42 8V40C42 41.1046 41.1046 42 40 42H8C6.89543 42 6 41.1046 6 40V8ZM38 10H15V38H38V10Z" fill="#324558"/>
</svg>
