<svg width="48" height="48" viewBox="0 0 48 48" fill="none" xmlns="http://www.w3.org/2000/svg">
<path d="M27 24C27 25.6569 25.6569 27 24 27C22.3431 27 21 25.6569 21 24C21 22.3431 22.3431 21 24 21C25.6569 21 27 22.3431 27 24Z" fill="#324558"/>
<path fill-rule="evenodd" clip-rule="evenodd" d="M18 4H14V8H10C8.89543 8 8 8.89543 8 10V14H4V18H8V22H4V26H8V30H4V34H8V38C8 39.1046 8.89543 40 10 40H14V44H18V40H22V44H26V40H30V44H34V40H38C39.1046 40 40 39.1046 40 38V34H44V30H40V26H44V22H40V18H44V14H40V10C40 8.89543 39.1046 8 38 8H34V4H30V8H26V4H22V8H18V4ZM22.1014 16L21.7007 18.0187C21.0324 18.267 20.4146 18.6139 19.872 19.0516L17.8986 18.3828L16 21.6172L17.579 22.9656C17.523 23.3032 17.4868 23.6469 17.4868 24C17.4868 24.3531 17.523 24.6968 17.579 25.0344L16 26.3828L17.8986 29.6172L19.872 28.9484C20.4146 29.3861 21.0324 29.733 21.7007 29.9813L22.1014 32H25.8986L26.2993 29.9813C26.9676 29.733 27.5854 29.3861 28.128 28.9484L30.1014 29.6172L32 26.3828L30.421 25.0344C30.477 24.6968 30.5132 24.3531 30.5132 24C30.5132 23.6469 30.477 23.3032 30.421 22.9656L32 21.6172L30.1014 18.3828L28.128 19.0516C27.5854 18.6139 26.9676 18.267 26.2993 18.0187L25.8986 16H22.1014Z" fill="#324558"/>
</svg>
