<svg width="48" height="48" viewBox="0 0 48 48" fill="none" xmlns="http://www.w3.org/2000/svg">
<g clip-path="url(#clip0_3053_3371)">
<path d="M44.2774 11.2257L41.1798 14.3232L43.3012 16.4445L46.3987 13.347C48.5369 11.2087 48.5369 7.74194 46.3987 5.60369C44.2604 3.46544 40.7936 3.46544 38.6554 5.60369L35.5579 8.7012L37.6792 10.8225L40.7767 7.72501C41.7434 6.75833 43.3107 6.75833 44.2774 7.72501C45.244 8.69168 45.244 10.259 44.2774 11.2257Z" fill="#324558"/>
<path d="M29.3635 14.8956L32.4606 11.7985L34.5819 13.9198L31.4848 17.017C30.5181 17.9836 30.5181 19.5509 31.4848 20.5176C32.4514 21.4843 34.0187 21.4843 34.9854 20.5176L38.0825 17.4205L40.2039 19.5418L37.1067 22.6389C34.9685 24.7772 31.5017 24.7772 29.3635 22.6389C27.2252 20.5007 27.2252 17.0339 29.3635 14.8956Z" fill="#324558"/>
<path d="M35.1711 14.5089L38.2684 11.4116L40.5914 13.7346L37.4941 16.8319L35.1711 14.5089Z" fill="#324558"/>
<path d="M6 7H33.0164L27.2421 12.7743C23.9323 16.0841 23.9323 21.4504 27.2421 24.7602C30.552 28.0701 35.9182 28.0701 39.2281 24.7602L44 19.9883V33C44 34.1046 43.1046 35 42 35L27 35V38.982C27.2857 39.1062 29.2191 39.9034 31.9654 39.996C32.5305 40.015 33.0001 40.4649 33.0001 41.0304V42.9955H27V43H21V42.9955H15V41.0304C15 40.4649 15.4695 40.015 16.0347 39.996C18.7807 39.9034 20.7141 39.1063 21 38.9821V35L6 35C4.89543 35 4 34.1046 4 33V9C4 7.89543 4.89543 7 6 7Z" fill="#324558"/>
</g>
<defs>
<clipPath id="clip0_3053_3371">
<rect width="48" height="48" fill="white"/>
</clipPath>
</defs>
</svg>
