<svg width="48" height="48" viewBox="0 0 48 48" fill="none" xmlns="http://www.w3.org/2000/svg">
<path fill-rule="evenodd" clip-rule="evenodd" d="M18 4H14V8H10C8.89543 8 8 8.89543 8 10V14H4V18H8V22H4V26H8V30H4V34H8V38C8 39.1046 8.89543 40 10 40H14V44H18V40H22V44H26V40H30V44H34V40H38C39.1046 40 40 39.1046 40 38V34H44V30H40V26H44V22H40V18H44V14H40V10C40 8.89543 39.1046 8 38 8H34V4H30V8H26V4H22V8H18V4ZM16 17.5C16 18.3284 15.3284 19 14.5 19C13.6716 19 13 18.3284 13 17.5C13 16.6716 13.6716 16 14.5 16C15.3284 16 16 16.6716 16 17.5ZM26 27.6586C28.3304 26.8349 30 24.6124 30 22C30 18.6863 27.3137 16 24 16C20.6863 16 18 18.6863 18 22C18 24.6124 19.6696 26.8349 22 27.6586V33H26V27.6586ZM16 25.5C16 26.3284 15.3284 27 14.5 27C13.6716 27 13 26.3284 13 25.5C13 24.6716 13.6716 24 14.5 24C15.3284 24 16 24.6716 16 25.5ZM35 17.5C35 18.3284 34.3284 19 33.5 19C32.6716 19 32 18.3284 32 17.5C32 16.6716 32.6716 16 33.5 16C34.3284 16 35 16.6716 35 17.5ZM35 25.5C35 26.3284 34.3284 27 33.5 27C32.6716 27 32 26.3284 32 25.5C32 24.6716 32.6716 24 33.5 24C34.3284 24 35 24.6716 35 25.5Z" fill="#324558"/>
</svg>
