<svg width="48" height="48" viewBox="0 0 48 48" fill="none" xmlns="http://www.w3.org/2000/svg">
<path fill-rule="evenodd" clip-rule="evenodd" d="M24.9972 2.27177C24.3801 1.90941 23.6199 1.90941 23.0028 2.27177L13 8.14545V14.3682L5 18.9997V33.9857C5 34.7105 5.38015 35.3801 5.99724 35.7425L23.0028 45.7282C23.6199 46.0906 24.3801 46.0906 24.9972 45.7282L42.0028 35.7425C42.6199 35.3801 43 34.7105 43 33.9857V14.0143C43 13.2895 42.6199 12.6199 42.0028 12.2575L24.9972 2.27177ZM22 27.2104V20.2104L14 24.842V31.842L22 27.2104ZM40 15.2104L32 19.842V27.1088L40 22.4772V15.2104ZM32 30.5753V37.842L40 33.2104V25.9437L32 30.5753Z" fill="#324558"/>
</svg>
