<svg width="48" height="48" viewBox="0 0 48 48" fill="none" xmlns="http://www.w3.org/2000/svg">
<path fill-rule="evenodd" clip-rule="evenodd" d="M4 6C4 4.89543 4.89543 4 6 4H42C43.1046 4 44 4.89543 44 6V29C44 30.1046 43.1046 31 42 31H26V34.416C27.1534 34.92 28.08 35.8466 28.584 37H40V41H28.584C27.8124 42.7659 26.0503 44 24 44C21.9497 44 20.1876 42.7659 19.416 41H8V37H19.416C19.92 35.8466 20.8466 34.92 22 34.416V31H6C4.89543 31 4 30.1046 4 29V6ZM15 16H34L27 9V13H15V16ZM14 19H33V22H21V26L14 19ZM24 41C25.1046 41 26 40.1046 26 39C26 37.8954 25.1046 37 24 37C22.8954 37 22 37.8954 22 39C22 40.1046 22.8954 41 24 41Z" fill="#324558"/>
</svg>
