<svg width="48" height="48" viewBox="0 0 48 48" fill="none" xmlns="http://www.w3.org/2000/svg">
<path d="M24 8C19.7473 8 15.8821 9.65914 13.0165 12.3654L10.9193 8.87025C14.4261 5.83577 18.9987 4 24 4C35.0457 4 44 12.9543 44 24C44 27.756 42.9646 31.2702 41.1637 34.2728L35.9087 25.5145C35.5088 24.848 35.9889 24 36.7662 24H40C40 15.1634 32.8366 8 24 8Z" fill="#324558"/>
<path d="M6.83313 13.7326L6.83636 13.7272L12.0913 22.4855C12.4912 23.152 12.0111 24 11.2338 24L8 24C8 32.8366 15.1634 40 24 40C28.2527 40 32.1179 38.3409 34.9835 35.6346L37.0807 39.1297C33.5739 42.1642 29.0014 44 24 44C12.9543 44 4 35.0457 4 24C4 20.5482 4.87444 17.3007 6.41389 14.4668C6.54859 14.2188 6.68839 13.9741 6.83313 13.7326Z" fill="#324558"/>
<path fill-rule="evenodd" clip-rule="evenodd" d="M21.864 15L21.4132 17.2711C20.6615 17.5504 19.9664 17.9407 19.356 18.433L17.136 17.6807L15 21.3193L16.7764 22.8363C16.7134 23.2161 16.6726 23.6028 16.6726 24C16.6726 24.3972 16.7134 24.7839 16.7764 25.1637L15 26.6807L17.136 30.3193L19.356 29.567C19.9664 30.0593 20.6615 30.4496 21.4132 30.7289L21.864 33H26.136L26.5868 30.7289C27.3385 30.4496 28.0336 30.0593 28.644 29.567L30.864 30.3193L33 26.6807L31.2236 25.1637C31.2866 24.7839 31.3274 24.3972 31.3274 24C31.3274 23.6028 31.2866 23.2161 31.2236 22.8363L33 21.3193L30.864 17.6807L28.644 18.433C28.0336 17.9407 27.3385 17.5504 26.5868 17.2711L26.136 15H21.864ZM27.375 24C27.375 25.864 25.864 27.375 24 27.375C22.136 27.375 20.625 25.864 20.625 24C20.625 22.136 22.136 20.625 24 20.625C25.864 20.625 27.375 22.136 27.375 24Z" fill="#324558"/>
</svg>
