<svg width="48" height="48" viewBox="0 0 48 48" fill="none" xmlns="http://www.w3.org/2000/svg">
<path d="M6 8.72237C6 7.73238 6.72428 6.89136 7.70332 6.7445L26 4V44L7.70332 41.2555C6.72428 41.1086 6 40.2676 6 39.2776V8.72237Z" fill="#324558"/>
<path d="M29 39.9863C29.3297 39.9954 29.6632 40 30 40C36.6274 40 42 38.2091 42 36V32.5364C41.2115 33.0042 40.3288 33.3762 39.434 33.6745C36.8816 34.5253 33.5464 35 30 35C29.6646 35 29.3311 34.9958 29 34.9873V39.9863Z" fill="#324558"/>
<path d="M29 31.9863C29.3297 31.9954 29.6632 32 30 32C36.6274 32 42 30.2091 42 28V24.5364C41.2115 25.0042 40.3288 25.3762 39.434 25.6745C36.8816 26.5253 33.5464 27 30 27C29.6646 27 29.3311 26.9958 29 26.9873V31.9863Z" fill="#324558"/>
<path d="M29 23.9863C29.3297 23.9954 29.6632 24 30 24C36.6274 24 42 22.2091 42 20V16.5364C41.2115 17.0042 40.3288 17.3762 39.434 17.6745C36.8816 18.5253 33.5464 19 30 19C29.6646 19 29.3311 18.9958 29 18.9874V23.9863Z" fill="#324558"/>
<path d="M29 15.9863C29.3297 15.9954 29.6632 16 30 16C36.6274 16 42 14.2091 42 12C42 9.79086 36.6274 8 30 8C29.6632 8 29.3297 8.00462 29 8.01369V15.9863Z" fill="#324558"/>
</svg>
