<svg width="48" height="48" viewBox="0 0 48 48" fill="none" xmlns="http://www.w3.org/2000/svg">
<path fill-rule="evenodd" clip-rule="evenodd" d="M14 4C12.8954 4 12 4.89543 12 6V14H36V6C36 4.89543 35.1046 4 34 4H14ZM22 7H18V11H22V7ZM26 7H30V11H26V7Z" fill="#324558"/>
<path d="M42 17H6V42C6 43.1046 6.89543 44 8 44H22.9963C21.7549 42.5497 21 40.6737 21 38.6C21 34.8301 23.4949 31.714 26.8717 30.62C28.0413 26.197 32.1473 23 36.9231 23C38.7569 23 40.492 23.4714 42 24.3026V17Z" fill="#324558"/>
<path d="M24 38.6C24 41.5823 26.4797 44 29.5385 44H43.3846C45.9336 44 48 41.9853 48 39.5C48 37.2391 46.29 35.3677 44.0621 35.0481C44.2223 34.4584 44.3077 33.8389 44.3077 33.2C44.3077 29.2235 41.0015 26 36.9231 26C32.8447 26 29.5385 29.2235 29.5385 33.2C26.4797 33.2 24 35.6177 24 38.6Z" fill="#324558"/>
</svg>
