<svg width="48" height="48" viewBox="0 0 48 48" fill="none" xmlns="http://www.w3.org/2000/svg">
<path d="M24.0001 29.354C20.2371 34.0429 14.6944 40 10.8183 40C7.21294 40 4.01952 37.3916 2.05371 33.3811C3.44107 35.0201 5.20004 36 7.11375 36C11.5947 36 19.0453 25.3849 20.0001 23.9999C20.4472 23.3513 21.9627 21.1845 23.9999 18.6461C27.7629 13.9572 33.3057 8 37.1818 8C40.7872 8 43.9806 10.6084 45.9464 14.6189C44.559 12.9799 42.8001 12 40.8864 12C36.4056 12 28.9556 22.614 28.0002 23.9999C27.7068 24.4255 26.9527 25.5055 25.8932 26.9152C25.3385 27.6532 24.7001 28.4817 24.0001 29.354C24.0001 29.354 24 29.354 24.0001 29.354Z" fill="#324558"/>
<path d="M25.8812 31.6173C29.4544 35.7591 33.9113 40 37.1818 40C40.7872 40 43.9806 37.3916 45.9464 33.3811C44.559 35.0201 42.8001 36 40.8864 36C37.5584 36 32.5925 30.145 29.8661 26.5645C29.1228 27.6105 27.8753 29.3182 26.3397 31.2316L25.9585 31.7067C25.9326 31.6769 25.9069 31.6471 25.8812 31.6173Z" fill="#324558"/>
<path d="M7.11375 12C10.4416 12 15.4075 17.8549 18.1339 21.4354C18.8772 20.3893 20.1247 18.6817 21.6602 16.7684L22.0415 16.2933C18.4814 12.1802 14.0652 8 10.8183 8C7.21295 8 4.01953 10.6084 2.05372 14.6189C3.44107 12.9799 5.20004 12 7.11375 12Z" fill="#324558"/>
<path d="M8.0945 15.1624C6.48096 17.3557 5.46973 20.5031 5.46973 23.9998C5.46973 27.4966 6.48096 30.644 8.0945 32.8373C7.77694 32.9426 7.47125 32.9998 7.18182 32.9998C3.76769 32.9998 1 28.9704 1 23.9998C1 19.0293 3.7677 14.9998 7.18182 14.9998C7.47125 14.9998 7.77694 15.0571 8.0945 15.1624Z" fill="#324558"/>
<path d="M40.8184 32.9998C40.5276 32.9998 40.2205 32.942 39.9014 32.8357C41.5143 30.6425 42.5251 27.4957 42.5251 23.9998C42.5251 20.5038 41.5143 17.357 39.9014 15.1638C40.2205 15.0575 40.5276 14.9998 40.8184 14.9998C44.2325 14.9998 47.0002 19.0292 47.0002 23.9998C47.0002 28.9703 44.2325 32.9998 40.8184 32.9998Z" fill="#324558"/>
</svg>
