<svg width="48" height="48" viewBox="0 0 48 48" fill="none" xmlns="http://www.w3.org/2000/svg">
<path d="M28.3199 8.93272C28.8401 10.1293 29.304 11.4952 29.6936 13H18.3064C18.696 11.4952 19.1599 10.1293 19.6802 8.93272C20.4871 7.07666 21.3707 5.76402 22.1995 4.9578C23.0142 4.16519 23.6185 4 24 4C24.3816 4 24.9858 4.16519 25.8006 4.9578C26.6293 5.76402 27.5129 7.07666 28.3199 8.93272Z" fill="#324558"/>
<path d="M32.7844 13H40.706C38.1025 9.05397 34.1384 6.0848 29.4818 4.76057C30.8557 6.83559 31.994 9.66814 32.7844 13Z" fill="#324558"/>
<path d="M32.5327 36H40.0015C37.4127 39.4466 33.7363 42.0296 29.4818 43.2394C30.7161 41.3753 31.7602 38.8997 32.5327 36Z" fill="#324558"/>
<path d="M28.3199 39.0673C28.7224 38.1415 29.0912 37.1144 29.4179 36H18.5821C18.9089 37.1144 19.2777 38.1415 19.6802 39.0673C20.4871 40.9233 21.3707 42.236 22.1995 43.0422C23.0142 43.8348 23.6185 44 24 44C24.3816 44 24.9858 43.8348 25.8006 43.0422C26.6293 42.236 27.5129 40.9233 28.3199 39.0673Z" fill="#324558"/>
<path d="M7.99856 36H15.4673C16.2398 38.8997 17.284 41.3753 18.5182 43.2394C14.2638 42.0296 10.5874 39.4466 7.99856 36Z" fill="#324558"/>
<path d="M18.5182 4.76057C13.8617 6.0848 9.89757 9.05397 7.29407 13H15.2157C16.0061 9.66814 17.1443 6.83559 18.5182 4.76057Z" fill="#324558"/>
<path d="M12.2095 27.6543V21.3994H13.0161C13.7225 21.3994 14.2603 21.6432 14.6294 22.1309C14.9985 22.6185 15.1831 23.3431 15.1831 24.3047V24.7354C15.1831 25.7015 14.9985 26.4307 14.6294 26.9229C14.2603 27.4105 13.7316 27.6543 13.0435 27.6543H12.2095Z" fill="#324558"/>
<path fill-rule="evenodd" clip-rule="evenodd" d="M4 18C4 16.8954 4.89543 16 6 16H42C43.1046 16 44 16.8954 44 18V31C44 32.1046 43.1046 33 42 33H6C4.89543 33 4 32.1046 4 31V18ZM36.0647 26.8545C36.0647 26.5036 35.9394 26.2301 35.6887 26.0342C35.4426 25.8382 35.0074 25.6354 34.3831 25.4258C33.7587 25.2161 33.2483 25.0133 32.8518 24.8174C31.5621 24.1839 30.9172 23.3135 30.9172 22.2061C30.9172 21.6546 31.0767 21.1693 31.3958 20.75C31.7193 20.3262 32.1751 19.998 32.7629 19.7656C33.3508 19.5286 34.0116 19.4102 34.7454 19.4102C35.4609 19.4102 36.1012 19.5378 36.6663 19.793C37.2359 20.0482 37.678 20.4128 37.9924 20.8867C38.3069 21.3561 38.4641 21.8939 38.4641 22.5H36.0715C36.0715 22.0944 35.9462 21.7799 35.6956 21.5566C35.4495 21.3333 35.1145 21.2217 34.6907 21.2217C34.2623 21.2217 33.9228 21.3174 33.6721 21.5088C33.426 21.6956 33.303 21.9349 33.303 22.2266C33.303 22.4818 33.4397 22.7142 33.7131 22.9238C33.9866 23.1289 34.4674 23.3431 35.1555 23.5664C35.8437 23.7852 36.4088 24.0221 36.8508 24.2773C37.9264 24.8971 38.4641 25.7516 38.4641 26.8408C38.4641 27.7113 38.136 28.3949 37.4797 28.8916C36.8235 29.3883 35.9234 29.6367 34.7795 29.6367C33.9729 29.6367 33.2415 29.4932 32.5852 29.2061C31.9335 28.9144 31.4413 28.5179 31.1087 28.0166C30.7805 27.5107 30.6165 26.9297 30.6165 26.2734H33.0227C33.0227 26.8066 33.1594 27.2008 33.4329 27.4561C33.7109 27.7067 34.1598 27.832 34.7795 27.832C35.176 27.832 35.4882 27.7477 35.7161 27.5791C35.9485 27.4059 36.0647 27.1644 36.0647 26.8545ZM9.81006 19.5469V29.5H13.0845C13.9458 29.4954 14.7251 29.2904 15.4224 28.8848C16.1242 28.4746 16.6665 27.9095 17.0493 27.1895C17.4367 26.4648 17.6304 25.6468 17.6304 24.7354V24.2773C17.6258 23.375 17.4253 22.5615 17.0288 21.8369C16.6369 21.1077 16.09 20.5449 15.3882 20.1484C14.6864 19.7474 13.8957 19.5469 13.0161 19.5469H9.81006ZM25.9076 29.5H28.2933V19.5469H25.9008V25.7402L22.3803 19.5469H19.9808V29.5H22.3803V23.3066L25.9076 29.5Z" fill="#324558"/>
</svg>
