<svg width="48" height="48" viewBox="0 0 48 48" fill="none" xmlns="http://www.w3.org/2000/svg">
<path d="M28.3199 8.93272C29.1677 10.8827 29.8659 13.2827 30.3369 16H17.6631C18.1341 13.2827 18.8323 10.8827 19.6801 8.93272C20.4871 7.07666 21.3707 5.76402 22.1994 4.9578C23.0142 4.16519 23.6185 4 24 4C24.3815 4 24.9858 4.16519 25.8006 4.9578C26.6293 5.76402 27.5129 7.07666 28.3199 8.93272Z" fill="#324558"/>
<path d="M14.237 19C14.0818 20.6097 14 22.2829 14 24C14 25.7171 14.0818 27.3903 14.237 29H4.63009C4.21877 27.4019 4 25.7265 4 24C4 22.2735 4.21876 20.5981 4.63009 19H14.237Z" fill="#324558"/>
<path d="M30.8871 27.3689C30.9611 26.2761 31 25.151 31 24C31 22.2674 30.9119 20.5936 30.7483 19H17.2517C17.0881 20.5936 17 22.2674 17 24C17 25.7326 17.0881 27.4064 17.2517 29H29.2559L30.8871 27.3689Z" fill="#324558"/>
<path d="M34.7743 23.4816C37.2293 21.0267 40.8156 20.3926 43.855 21.5795C43.749 20.7008 43.586 19.8397 43.3699 19H33.763C33.9182 20.6097 34 22.2829 34 24C34 24.0856 33.9998 24.1711 33.9994 24.2566L34.7743 23.4816Z" fill="#324558"/>
<path d="M26.2559 32L25.4824 32.7736C22.4635 35.7924 22.1981 40.5221 24.6862 43.8417C24.4089 43.9633 24.1797 44 24 44C23.6185 44 23.0142 43.8348 22.1994 43.0422C21.3707 42.236 20.4871 40.9233 19.6801 39.0673C18.8323 37.1173 18.1341 34.7173 17.6631 32H26.2559Z" fill="#324558"/>
<path d="M18.5182 43.2394C12.7443 41.5975 8.03509 37.4264 5.66418 32H14.6215C15.3693 36.6357 16.7482 40.5662 18.5182 43.2394Z" fill="#324558"/>
<path d="M14.6215 16C15.3693 11.3643 16.7482 7.43381 18.5182 4.76057C12.7443 6.40254 8.03509 10.5736 5.66417 16H14.6215Z" fill="#324558"/>
<path d="M33.3785 16C32.6307 11.3643 31.2518 7.43381 29.4818 4.76057C35.2557 6.40254 39.9649 10.5736 42.3358 16H33.3785Z" fill="#324558"/>
<path d="M42.5176 31.2249L39.4201 34.3224L41.5414 36.4438L44.6389 33.3462C46.7772 31.208 46.7772 27.7412 44.6389 25.603C42.5007 23.4647 39.0339 23.4647 36.8956 25.603L33.7981 28.7005L35.9194 30.8218L39.0169 27.7243C39.9836 26.7576 41.5509 26.7576 42.5176 27.7243C43.4843 28.691 43.4843 30.2582 42.5176 31.2249Z" fill="#324558"/>
<path d="M27.6037 34.8949L30.7008 31.7978L32.8221 33.9191L29.725 37.0162C28.7583 37.9829 28.7583 39.5502 29.725 40.5169C30.6917 41.4835 32.259 41.4835 33.2257 40.5169L36.3228 37.4198L38.4441 39.5411L35.347 42.6382C33.2087 44.7764 29.7419 44.7764 27.6037 42.6382C25.4654 40.4999 25.4654 37.0331 27.6037 34.8949Z" fill="#324558"/>
<path d="M33.4111 34.5083L36.5084 31.411L38.8314 33.734L35.7341 36.8313L33.4111 34.5083Z" fill="#324558"/>
</svg>
