<svg width="48" height="48" viewBox="0 0 48 48" fill="none" xmlns="http://www.w3.org/2000/svg">
<path d="M18.3063 13H29.6935C29.3039 11.4952 28.84 10.1293 28.3198 8.93272C27.5128 7.07666 26.6292 5.76402 25.8005 4.9578C24.9857 4.16519 24.3814 4 23.9999 4C23.6184 4 23.0141 4.16519 22.1993 4.9578C21.3706 5.76402 20.487 7.07666 19.68 8.93272C19.1598 10.1293 18.6959 11.4952 18.3063 13Z" fill="#324558"/>
<path d="M40.7059 13H32.7842C31.9939 9.66814 30.8556 6.83559 29.4817 4.76057C34.1383 6.0848 38.1023 9.05397 40.7059 13Z" fill="#324558"/>
<path d="M29.4178 36C29.091 37.1144 28.7223 38.1415 28.3198 39.0673C27.5128 40.9233 26.6292 42.236 25.8005 43.0422C24.9857 43.8348 24.3814 44 23.9999 44C23.6184 44 23.0141 43.8348 22.1993 43.0422C21.3706 42.236 20.487 40.9233 19.68 39.0673C19.2775 38.1415 18.9088 37.1144 18.582 36H29.4178Z" fill="#324558"/>
<path d="M29.4817 43.2394C30.716 41.3753 31.7601 38.8997 32.5326 36H40.0014C37.4125 39.4466 33.7361 42.0296 29.4817 43.2394Z" fill="#324558"/>
<path d="M18.5181 4.76057C17.1442 6.83559 16.0059 9.66814 15.2156 13H7.29395C9.89745 9.05397 13.8615 6.0848 18.5181 4.76057Z" fill="#324558"/>
<path d="M18.5181 43.2394C14.2637 42.0296 10.5873 39.4466 7.99844 36H15.4672C16.2397 38.8997 17.2838 41.3753 18.5181 43.2394Z" fill="#324558"/>
<path d="M26.607 24.5527C26.607 23.7051 26.4644 23.0625 26.1793 22.625C25.898 22.1836 25.4937 21.9629 24.9664 21.9629C23.9351 21.9629 23.3902 22.7363 23.3316 24.2832L23.3258 24.9102C23.3258 25.7461 23.4644 26.3887 23.7418 26.8379C24.0191 27.2871 24.4312 27.5117 24.9781 27.5117C25.4976 27.5117 25.898 27.291 26.1793 26.8496C26.4605 26.4082 26.6031 25.7734 26.607 24.9453V24.5527Z" fill="#324558"/>
<path fill-rule="evenodd" clip-rule="evenodd" d="M4 18C4 16.8954 4.89543 16 6 16H42C43.1046 16 44 16.8954 44 18V31C44 32.1046 43.1046 33 42 33H6C4.89543 33 4 32.1046 4 31V18ZM19.0611 27.6875C19.354 27.2305 19.5142 26.7051 19.5415 26.1113H17.4966C17.481 26.5957 17.3482 26.9492 17.0982 27.1719C16.8482 27.3945 16.4869 27.5059 16.0142 27.5059C15.4556 27.5059 15.0611 27.3105 14.8306 26.9199C14.604 26.5293 14.4908 25.8789 14.4908 24.9688V24.3652C14.5025 23.5254 14.6275 22.9141 14.8658 22.5312C15.104 22.1484 15.479 21.957 15.9908 21.957C16.4947 21.957 16.8697 22.0703 17.1158 22.2969C17.3619 22.5234 17.4927 22.8965 17.5083 23.416H19.5591C19.4732 22.459 19.1158 21.709 18.4869 21.166C17.8579 20.6191 17.0259 20.3457 15.9908 20.3457C15.272 20.3457 14.6392 20.5176 14.0923 20.8613C13.5454 21.2012 13.1255 21.6855 12.8326 22.3145C12.5435 22.9395 12.399 23.6699 12.399 24.5059V24.9277C12.399 26.2598 12.7212 27.291 13.3658 28.0215C14.0103 28.752 14.8931 29.1172 16.0142 29.1172C16.6939 29.1172 17.2974 28.9922 17.8247 28.7422C18.356 28.4922 18.7681 28.1406 19.0611 27.6875ZM9.95654 27.3652C9.74951 27.1777 9.48975 27.084 9.17725 27.084C8.86084 27.084 8.59912 27.1777 8.39209 27.3652C8.18896 27.5527 8.0874 27.7891 8.0874 28.0742C8.0874 28.3594 8.18896 28.5957 8.39209 28.7832C8.59912 28.9707 8.86084 29.0645 9.17725 29.0645C9.48975 29.0645 9.74951 28.9727 9.95654 28.7891C10.1636 28.6016 10.2671 28.3633 10.2671 28.0742C10.2671 27.7852 10.1636 27.5488 9.95654 27.3652ZM28.6988 24.9102C28.6988 25.7422 28.5445 26.4785 28.2359 27.1191C27.9273 27.7598 27.4879 28.2539 26.9176 28.6016C26.3512 28.9453 25.7047 29.1172 24.9781 29.1172C24.2515 29.1172 23.607 28.9512 23.0445 28.6191C22.482 28.2832 22.0426 27.8047 21.7262 27.1836C21.4137 26.5625 21.2496 25.8496 21.234 25.0449V24.5645C21.234 23.7285 21.3863 22.9922 21.691 22.3555C21.9996 21.7148 22.439 21.2207 23.0094 20.873C23.5836 20.5254 24.2359 20.3516 24.9664 20.3516C25.689 20.3516 26.3336 20.5234 26.9 20.8672C27.4664 21.2109 27.9058 21.7012 28.2183 22.3379C28.5347 22.9707 28.6949 23.6973 28.6988 24.5176V24.9102ZM35.3248 26.4043L33.4205 20.4688H30.7194V29H32.776V27.0078L32.5768 22.9238L34.6451 29H36.0045L38.067 22.9297L37.8678 27.0078V29H39.9303V20.4688H37.2233L35.3248 26.4043Z" fill="#324558"/>
</svg>
