<svg width="48" height="48" viewBox="0 0 48 48" fill="none" xmlns="http://www.w3.org/2000/svg">
<path fill-rule="evenodd" clip-rule="evenodd" d="M14 4H18V8H22V4H26V8H30V4H34V8H38C39.1046 8 40 8.89543 40 10V14H44V18H40V22H44V26H40V30H44V34H40V38C40 39.1046 39.1046 40 38 40H34V44H30V40H26V44H22V40H18V44H14V40H10C8.89543 40 8 39.1046 8 38V34H4V30H8V26H4V22H8V18H4V14H8V10C8 8.89543 8.89543 8 10 8H14V4ZM22 15L28 20L22 25V21.5H12V18.5H22V15ZM36 28L30 23V26.5H12V29.5H30V33L36 28Z" fill="#324558"/>
</svg>
