<svg width="48" height="48" viewBox="0 0 48 48" fill="none" xmlns="http://www.w3.org/2000/svg">
<path d="M6 8C6 6.89543 6.89543 6 8 6H22.5V10H10V22.5H6V8Z" fill="#324558"/>
<path d="M6 25.5V40C6 41.1046 6.89543 42 8 42H22.5V38H10L10 25.5H6Z" fill="#324558"/>
<path d="M25.5 6V10H38V22.5H42V8C42 6.89543 41.1046 6 40 6H25.5Z" fill="#324558"/>
<path d="M38 38V25.5H42V40C42 41.1046 41.1046 42 40 42H25.5V38H38Z" fill="#324558"/>
<path d="M24 20.6488C22.7283 20.6488 21.6975 21.6661 21.6975 22.9211C21.6975 24.176 22.7283 25.1933 24 25.1933C25.2717 25.1933 26.3025 24.176 26.3025 22.9211C26.3025 21.6661 25.2717 20.6488 24 20.6488Z" fill="#324558"/>
<path fill-rule="evenodd" clip-rule="evenodd" d="M13 13H35V35H13V13ZM24 17C27.3137 17 30 19.6509 30 22.9211C30 24.5941 28.8221 26.7656 26.4662 29.4355L26.0249 29.9264C25.5706 30.4229 25.0773 30.9358 24.5452 31.4651L24 32L23.4548 31.4651C22.9227 30.9358 22.4294 30.4229 21.9751 29.9264L21.5338 29.4355C19.1779 26.7656 18 24.5941 18 22.9211C18 19.6509 20.6863 17 24 17Z" fill="#324558"/>
</svg>
