<svg width="48" height="48" viewBox="0 0 48 48" fill="none" xmlns="http://www.w3.org/2000/svg">
<path d="M21.3137 22.1053C21.3137 20.5994 22.5164 19.3786 24 19.3786C25.4836 19.3786 26.6863 20.5994 26.6863 22.1053C26.6863 23.6112 25.4836 24.832 24 24.832C22.5164 24.832 21.3137 23.6112 21.3137 22.1053Z" fill="#324558"/>
<path fill-rule="evenodd" clip-rule="evenodd" d="M8 6C6.89543 6 6 6.89543 6 8V22.5H12V25.5H6V40C6 41.1046 6.89543 42 8 42H22.5V36H25.5V42H40C41.1046 42 42 41.1046 42 40V25.5H36V22.5H42V8C42 6.89543 41.1046 6 40 6H25.5V12H22.5V6H8ZM31 22.1053C31 18.1811 27.866 15 24 15C20.134 15 17 18.1811 17 22.1053C17 24.113 18.3743 26.7187 21.1228 29.9226L21.6376 30.5117C22.1677 31.1074 22.7431 31.7229 23.364 32.3582L24 33L24.636 32.3582C25.2569 31.7229 25.8323 31.1074 26.3624 30.5117L26.8772 29.9226C29.6257 26.7187 31 24.113 31 22.1053Z" fill="#324558"/>
</svg>
