<svg width="48" height="48" viewBox="0 0 48 48" fill="none" xmlns="http://www.w3.org/2000/svg">
<path d="M4 8C4 6.89543 4.89543 6 6 6H20.5V15H4V8Z" fill="#324558"/>
<path d="M23.5 15V6H38C39.1046 6 40 6.89543 40 8V15H23.5Z" fill="#324558"/>
<path d="M20 33H4V40C4 41.1046 4.89543 42 6 42H20V33Z" fill="#324558"/>
<path d="M38.7404 43.5839C41.8523 42.114 44.1471 39.0882 44.1471 35.594C44.1471 31.0182 41.9992 25.8784 35.2041 21.1178C34.5251 20.6421 33.6062 21.2046 33.5377 22.0308C33.2566 25.4228 31.2413 26.9754 29.2394 28.5177C27.1121 30.1565 25 31.7837 25 35.594C25 39.3013 27.5832 42.4814 30.9848 43.8352C30.7968 42.3435 31.0454 40.8606 32.4793 39.147C36.2516 35.1125 36.0696 33.1635 36.0696 33.1635C36.4012 33.1963 39.8792 38.5148 38.7404 43.5839Z" fill="#324558"/>
<path d="M29.9156 23.7771C30.3347 23.1249 30.7054 22.1442 30.5241 20.2922L30.2997 18H4V30H23.5391C23.6537 29.82 23.7736 29.6444 23.8986 29.4731C24.9489 28.034 26.3038 26.9913 27.3006 26.2243L27.4085 26.1412C28.6561 25.18 29.4102 24.5636 29.9156 23.7771Z" fill="#324558"/>
</svg>
