<svg width="48" height="48" viewBox="0 0 48 48" fill="none" xmlns="http://www.w3.org/2000/svg">
<path d="M6 8C6 6.89543 6.89543 6 8 6H40C41.1046 6 42 6.89543 42 8V21.142L38 25.1421V14H10V38H25.1421L25 38.1421V42H8C6.89543 42 6 41.1046 6 40V8Z" fill="#324558"/>
<path d="M34 29.1421L31.1421 32H22V28H34V29.1421Z" fill="#324558"/>
<path d="M18 20H14V24H18V20Z" fill="#324558"/>
<path d="M34 20H22V24H34V20Z" fill="#324558"/>
<path d="M14 28H18V32H14V28Z" fill="#324558"/>
<path d="M43.3846 24L48 28.6153L44.9231 31.6921L40.3077 27.0768L43.3846 24Z" fill="#324558"/>
<path d="M38.7692 28.6158L43.3846 33.2311L32.6154 44H28V39.3847L38.7692 28.6158Z" fill="#324558"/>
</svg>
