<svg width="48" height="48" viewBox="0 0 48 48" fill="none" xmlns="http://www.w3.org/2000/svg">
<path d="M6 8C6 6.89543 6.89543 6 8 6H40C41.1046 6 42 6.89543 42 8V40C42 41.1046 41.1046 42 40 42H8C6.89543 42 6 41.1046 6 40V8ZM27 14C27 12.3432 25.6569 11 24 11C22.3431 11 21 12.3432 21 14C21 15.6568 22.3431 17 24 17C25.6569 17 27 15.6568 27 14ZM33 32C34.6569 32 36 30.6569 36 29C36 27.3431 34.6569 26 33 26C31.3431 26 30 27.3431 30 29C30 30.6569 31.3431 32 33 32ZM18 29C18 27.3431 16.6569 26 15 26C13.3432 26 12 27.3431 12 29C12 30.6569 13.3432 32 15 32C16.6569 32 18 30.6569 18 29ZM18.0133 13.5977C14.4726 15.6398 12.0723 19.4376 12.0016 23.8017C12.8837 23.2918 13.9078 22.9999 15 22.9999L15.0549 23.0002C15.3379 20.4395 16.6951 18.2026 18.666 16.7502C18.2404 15.9263 18 14.9912 18 13.9999C18 13.8647 18.0045 13.7306 18.0133 13.5977ZM29.334 16.7502C31.3048 18.2026 32.6621 20.4395 32.9451 23.0002L33 22.9999C34.0922 22.9999 35.1162 23.2918 35.9984 23.8017C35.9277 19.4376 33.5273 15.6398 29.9867 13.5977C29.9955 13.7306 30 13.8647 30 13.9999C30 14.9912 29.7596 15.9263 29.334 16.7502ZM24 35.9999C26.2571 35.9999 28.3687 35.3768 30.1721 34.2931C29.2274 33.7873 28.4339 33.036 27.8768 32.1245C26.7027 32.6857 25.3881 32.9999 24 32.9999C22.6119 32.9999 21.2972 32.6857 20.1232 32.1245C19.5661 33.036 18.7726 33.7873 17.8279 34.2931C19.6312 35.3768 21.7428 35.9999 24 35.9999Z" fill="#324558"/>
</svg>
