<svg width="48" height="48" viewBox="0 0 48 48" fill="none" xmlns="http://www.w3.org/2000/svg">
<path d="M6 6C6 4.89543 6.89543 4 8 4H24C25.1046 4 26 4.89543 26 6V15H19V30H8C6.89543 30 6 29.1046 6 28V6Z" fill="#324558"/>
<path fill-rule="evenodd" clip-rule="evenodd" d="M40 18H22V42C22 43.1046 22.8954 44 24 44H40C41.1046 44 42 43.1046 42 42V20C42 18.8954 41.1046 18 40 18ZM33.5 22V30.25H38L30.5 40V31.75H26L33.5 22Z" fill="#324558"/>
<path d="M29.0002 7.2247V10.3851C31.5286 11.314 33.7266 12.9271 35.3697 15H39.0116C36.7859 11.2956 33.2278 8.48289 29.0002 7.2247Z" fill="#324558"/>
<path d="M8.98877 33C11.2145 36.7044 14.7726 39.5171 19.0002 40.7753V37.6149C16.4717 36.686 14.2737 35.0729 12.6306 33H8.98877Z" fill="#324558"/>
</svg>
