<svg width="48" height="48" viewBox="0 0 48 48" fill="none" xmlns="http://www.w3.org/2000/svg">
<path d="M43.8453 26.5C43.9474 25.681 44 24.8467 44 24C44 19.0171 42.1778 14.4599 39.1633 10.9582L28.0523 22.0693C28.9954 23.3475 29.6413 24.8584 29.8883 26.5H43.8453Z" fill="#324558"/>
<path d="M43.2342 29.5H29.8883C29.6413 31.1416 28.9953 32.6526 28.0522 33.9309L34.8957 40.7743C38.8885 38.1755 41.8958 34.1896 43.2342 29.5Z" fill="#324558"/>
<path d="M32.1488 42.2701L25.9309 36.0522C24.2716 37.2764 22.2203 38 20 38C17.7798 38 15.7286 37.2765 14.0693 36.0523L10.9582 39.1633C14.4599 42.1778 19.0171 44 24 44C26.9021 44 29.6599 43.3819 32.1488 42.2701Z" fill="#324558"/>
<path d="M8.87705 37.0885C8.86364 37.073 8.85028 37.0575 8.83691 37.042L11.9479 33.931C10.7236 32.2717 10 30.2203 10 28C10 25.7797 10.7236 23.7285 11.9478 22.0692L5.72998 15.8514C6.15783 14.8936 6.65878 13.9756 7.22574 13.1045L14.0691 19.9478C15.3474 19.0047 16.8584 18.3587 18.5 18.1118V4.76581C19.4718 4.48845 20.4738 4.28275 21.5 4.15479V18.1118C23.1417 18.3587 24.6527 19.0047 25.931 19.9479L37.042 8.83691C33.5403 5.82234 28.983 4 24 4C12.9543 4 4 12.9543 4 24C4 29.0051 5.83852 33.5808 8.87705 37.0885Z" fill="#324558"/>
</svg>
