<svg width="48" height="48" viewBox="0 0 48 48" fill="none" xmlns="http://www.w3.org/2000/svg">
<path d="M28.6521 23.5293H26.406V19.4277H28.6911C29.3096 19.4342 29.7979 19.6361 30.156 20.0332C30.514 20.4303 30.6931 20.9609 30.6931 21.625C30.6931 22.2305 30.5173 22.6992 30.1657 23.0312C29.8207 23.3633 29.3161 23.5293 28.6521 23.5293Z" fill="#324558"/>
<path fill-rule="evenodd" clip-rule="evenodd" d="M6 5C6 4.44772 6.44772 4 7 4H13C13.5523 4 14 4.44772 14 5V8H20V5C20 4.44772 20.4477 4 21 4H27C27.5523 4 28 4.44772 28 5V8H34V5C34 4.44772 34.4477 4 35 4H41C41.5523 4 42 4.44772 42 5V34.9021C42 35.6998 41.526 36.4212 40.7938 36.7378L24.7938 43.6567C24.2873 43.8758 23.7127 43.8758 23.2062 43.6567L7.20618 36.7378C6.47401 36.4212 6 35.6998 6 34.9021V5ZM16.3774 31H19.7954V16.7812H16.3774V31ZM26.406 31V26.1758H28.5935C30.3252 26.1758 31.6859 25.7624 32.6755 24.9355C33.6716 24.1022 34.1696 22.9922 34.1696 21.6055C34.1696 20.668 33.9385 19.8314 33.4763 19.0957C33.0205 18.3535 32.3728 17.7839 31.5329 17.3867C30.6996 16.9831 29.7393 16.7812 28.6521 16.7812H22.9782V31H26.406Z" fill="#324558"/>
</svg>
