<svg width="48" height="48" viewBox="0 0 48 48" fill="none" xmlns="http://www.w3.org/2000/svg">
<path d="M13 17C12.4247 17 11.8574 17.0347 11.3003 17.1021C12.635 10.7607 18.2615 6 25 6C32.732 6 39 12.268 39 20C39 24.7613 36.6232 28.9674 32.9914 31.4966C32.9971 31.3318 33 31.1662 33 31C33 23.268 26.732 17 19 17H13Z" fill="#324558"/>
<path d="M36 42H27.6612C29.8054 40.3094 31.4434 38.0052 32.3103 35.3523C36.9623 33.1332 40.4473 28.862 41.594 23.7098C44.2524 25.5071 46 28.5495 46 32C46 37.5228 41.5229 42 36 42Z" fill="#324558"/>
<path d="M13 20C6.92487 20 2 24.9249 2 31C2 37.0751 6.92487 42 13 42H19C25.0751 42 30 37.0751 30 31C30 24.9249 25.0751 20 19 20H13Z" fill="#324558"/>
</svg>
