<svg width="48" height="48" viewBox="0 0 48 48" fill="none" xmlns="http://www.w3.org/2000/svg">
<path d="M22.1994 4.9578C23.0142 4.16519 23.6185 4 24 4C24.3815 4 24.9858 4.16519 25.8006 4.9578C26.6293 5.76402 27.5129 7.07666 28.3199 8.93272C28.7472 9.91552 29.1364 11.0126 29.4778 12.207C27.8131 11.4325 25.9571 11 24 11C22.0429 11 20.1869 11.4325 18.5222 12.207C18.8636 11.0126 19.2528 9.91552 19.6801 8.93272C20.4871 7.07666 21.3707 5.76402 22.1994 4.9578Z" fill="#324558"/>
<path d="M43.2394 18.5182C41.3516 11.8796 36.1204 6.64845 29.4818 4.76057C31.0942 7.19586 32.3821 10.6746 33.164 14.7793L33.2207 14.836C37.3254 15.6179 40.8041 16.9058 43.2394 18.5182Z" fill="#324558"/>
<path d="M14.836 33.2207C15.6179 37.3254 16.9058 40.8041 18.5182 43.2394C11.8796 41.3516 6.64845 36.1204 4.76057 29.4818C7.19586 31.0942 10.6746 32.3821 14.7793 33.164L14.836 33.2207Z" fill="#324558"/>
<path d="M43.2394 29.4818C41.3516 36.1204 36.1204 41.3516 29.4818 43.2394C31.0942 40.8041 32.3821 37.3254 33.164 33.2207L33.2207 33.164C37.3254 32.3821 40.8041 31.0942 43.2394 29.4818Z" fill="#324558"/>
<path d="M4.76057 18.5182C6.64845 11.8796 11.8796 6.64845 18.5182 4.76057C16.9058 7.19586 15.6179 10.6746 14.836 14.7793L14.7793 14.836C10.6746 15.6179 7.19586 16.9058 4.76057 18.5182Z" fill="#324558"/>
<path d="M4 24C4 24.3815 4.16519 24.9858 4.9578 25.8006C5.76402 26.6293 7.07666 27.5129 8.93272 28.3199C9.91552 28.7472 11.0126 29.1364 12.207 29.4778C11.4325 27.8131 11 25.9571 11 24C11 22.0429 11.4325 20.1869 12.207 18.5222C11.0126 18.8635 9.91552 19.2528 8.93272 19.6801C7.07666 20.4871 5.76402 21.3707 4.9578 22.1994C4.16519 23.0142 4 23.6185 4 24Z" fill="#324558"/>
<path d="M24 44C23.6185 44 23.0142 43.8348 22.1994 43.0422C21.3707 42.236 20.4871 40.9233 19.6801 39.0673C19.2528 38.0845 18.8636 36.9874 18.5222 35.793C20.1869 36.5675 22.0429 37 24 37C25.9571 37 27.8131 36.5675 29.4778 35.793C29.1364 36.9874 28.7472 38.0845 28.3199 39.0673C27.5129 40.9233 26.6293 42.236 25.8006 43.0422C24.9858 43.8348 24.3815 44 24 44Z" fill="#324558"/>
<path d="M35.793 29.4778C36.5675 27.8131 37 25.9571 37 24C37 22.0429 36.5675 20.1869 35.793 18.5222C36.9874 18.8636 38.0845 19.2528 39.0673 19.6801C40.9233 20.4871 42.236 21.3707 43.0422 22.1994C43.8348 23.0142 44 23.6185 44 24C44 24.3815 43.8348 24.9858 43.0422 25.8006C42.236 26.6293 40.9233 27.5129 39.0673 28.3199C38.0845 28.7472 36.9874 29.1364 35.793 29.4778Z" fill="#324558"/>
<path d="M26.7812 20.5961L24 15L21.2188 20.5961L15 21.4934L19.5 25.8493L18.4377 32L24 29.0961L29.5623 32L28.5 25.8493L33 21.4934L26.7812 20.5961Z" fill="#324558"/>
</svg>
