<svg width="48" height="48" viewBox="0 0 48 48" fill="none" xmlns="http://www.w3.org/2000/svg">
<path d="M20 32C22.2091 32 24 30.2091 24 28C24 25.7909 22.2091 24 20 24C17.7909 24 16 25.7909 16 28C16 30.2091 17.7909 32 20 32Z" fill="#324558"/>
<path fill-rule="evenodd" clip-rule="evenodd" d="M16 12V6C16 4.89543 16.8954 4 18 4H42C43.1046 4 44 4.89543 44 6V30C44 31.1046 43.1046 32 42 32H36V42C36 43.1046 35.1046 44 34 44H6C4.89543 44 4 43.1046 4 42V14C4 12.8954 4.89543 12 6 12H16ZM20 12V8H40V28H36V14C36 12.8954 35.1046 12 34 12H20ZM28 28C28 32.4183 24.4183 36 20 36C15.5817 36 12 32.4183 12 28C12 23.5817 15.5817 20 20 20C24.4183 20 28 23.5817 28 28Z" fill="#324558"/>
</svg>
