<svg width="48" height="48" viewBox="0 0 48 48" fill="none" xmlns="http://www.w3.org/2000/svg">
<path d="M28.3199 8.93272C28.8401 10.1293 29.304 11.4952 29.6936 13H18.3064C18.696 11.4952 19.1599 10.1293 19.6802 8.93272C20.4871 7.07666 21.3707 5.76402 22.1995 4.9578C23.0142 4.16519 23.6185 4 24 4C24.3816 4 24.9858 4.16519 25.8006 4.9578C26.6293 5.76402 27.5129 7.07666 28.3199 8.93272Z" fill="#324558"/>
<path d="M32.7844 13H40.706C38.1025 9.05397 34.1384 6.0848 29.4818 4.76057C30.8557 6.83559 31.994 9.66814 32.7844 13Z" fill="#324558"/>
<path d="M32.5327 36H40.0015C37.4127 39.4466 33.7363 42.0296 29.4818 43.2394C30.7161 41.3753 31.7602 38.8997 32.5327 36Z" fill="#324558"/>
<path d="M28.3199 39.0673C28.7224 38.1415 29.0912 37.1144 29.4179 36H18.5821C18.9089 37.1144 19.2777 38.1415 19.6802 39.0673C20.4871 40.9233 21.3707 42.236 22.1995 43.0422C23.0142 43.8348 23.6185 44 24 44C24.3816 44 24.9858 43.8348 25.8006 43.0422C26.6293 42.236 27.5129 40.9233 28.3199 39.0673Z" fill="#324558"/>
<path d="M7.99856 36H15.4673C16.2398 38.8997 17.284 41.3753 18.5182 43.2394C14.2638 42.0296 10.5874 39.4466 7.99856 36Z" fill="#324558"/>
<path d="M18.5182 4.76057C13.8617 6.0848 9.89757 9.05397 7.29407 13H15.2157C16.0061 9.66814 17.1443 6.83559 18.5182 4.76057Z" fill="#324558"/>
<path fill-rule="evenodd" clip-rule="evenodd" d="M6 16C4.89543 16 4 16.8954 4 18V31C4 32.1046 4.89543 33 6 33H42C43.1046 33 44 32.1046 44 31V18C44 16.8954 43.1046 16 42 16H6ZM26 19H29V25H32L26 31V19ZM22 30H19V24H16L22 18V30Z" fill="#324558"/>
</svg>
