<svg width="48" height="48" viewBox="0 0 48 48" fill="none" xmlns="http://www.w3.org/2000/svg">
<path d="M24 4C17.9408 4 12.7807 7.84922 10.8315 13.2358C6.35124 14.2263 3 18.2218 3 23C3 27.2327 5.62977 30.8513 9.34459 32.3108L10 31V23H31.3186L39 19.7412L44.9742 22.2757C44.6554 17.8223 41.4204 14.1758 37.1685 13.2358C35.2193 7.84922 30.0592 4 24 4Z" fill="#324558"/>
<path d="M17.5 32.2576V26H14.5V32.2576C14.5 32.3423 14.4784 32.4256 14.4374 32.4997L12.4837 36.0289C12.3252 36.0098 12.1637 36 12 36C9.79086 36 8 37.7909 8 40C8 42.2091 9.79086 44 12 44C14.2091 44 16 42.2091 16 40C16 39.0458 15.6659 38.1696 15.1083 37.4821L17.0621 33.9527C17.3493 33.4338 17.5 32.8506 17.5 32.2576Z" fill="#324558"/>
<path d="M22.5 36.2908V26H25.5V36.2908C26.9659 36.8841 28 38.3213 28 40C28 42.2091 26.2091 44 24 44C21.7909 44 20 42.2091 20 40C20 38.3213 21.0341 36.8841 22.5 36.2908Z" fill="#324558"/>
<path fill-rule="evenodd" clip-rule="evenodd" d="M39 23L30 26.8182V32.5455C30 40.0195 36.439 43.5094 39 44C41.561 43.5094 48 40.0195 48 32.5455V26.8182L39 23ZM45.0943 30.0259L37.4375 38.1932L32.9057 33.3593L35.0943 31.3075L37.4375 33.8069L42.9057 27.9741L45.0943 30.0259Z" fill="#324558"/>
</svg>
