<svg width="48" height="48" viewBox="0 0 48 48" fill="none" xmlns="http://www.w3.org/2000/svg">
<path d="M10.8315 13.2358C12.7807 7.84922 17.9408 4 24 4C30.0592 4 35.2193 7.84922 37.1685 13.2358C41.6488 14.2263 45 18.2218 45 23C45 27.2327 42.3702 30.8513 38.6554 32.3108L38 31V23H10V31L9.34459 32.3108C5.62977 30.8513 3 27.2327 3 23C3 18.2218 6.35124 14.2263 10.8315 13.2358Z" fill="#324558"/>
<path d="M17.5 26V32.2576C17.5 32.8506 17.3493 33.4338 17.0621 33.9527L15.1083 37.4821C15.6659 38.1696 16 39.0458 16 40C16 42.2091 14.2091 44 12 44C9.79086 44 8 42.2091 8 40C8 37.7909 9.79086 36 12 36C12.1637 36 12.3252 36.0098 12.4837 36.0289L14.4374 32.4997C14.4784 32.4256 14.5 32.3423 14.5 32.2576V26H17.5Z" fill="#324558"/>
<path d="M30.5 32.2576V26H33.5V32.2576C33.5 32.3423 33.5215 32.4256 33.5626 32.4997L35.5162 36.0289C35.6748 36.0098 35.8362 36 36 36C38.2091 36 40 37.7909 40 40C40 42.2091 38.2091 44 36 44C33.7908 44 32 42.2091 32 40C32 39.0458 32.3341 38.1696 32.8917 37.4821L30.9379 33.9527C30.6507 33.4338 30.5 32.8506 30.5 32.2576Z" fill="#324558"/>
<path d="M22.5 26H25.5V36.2908C26.9659 36.8841 28 38.3213 28 40C28 42.2091 26.2091 44 24 44C21.7909 44 20 42.2091 20 40C20 38.3213 21.0341 36.8841 22.5 36.2908V26Z" fill="#324558"/>
</svg>
