<svg width="48" height="48" viewBox="0 0 48 48" fill="none" xmlns="http://www.w3.org/2000/svg">
<path d="M42 11L34 4V7H6V11H42Z" fill="#324558"/>
<path d="M6 37L14 44V41H42V37H6Z" fill="#324558"/>
<path d="M17.3197 23.7185H15.5228V20.4373H17.3509C17.8457 20.4425 18.2364 20.6039 18.5228 20.9216C18.8093 21.2393 18.9525 21.6638 18.9525 22.1951C18.9525 22.6794 18.8119 23.0544 18.5306 23.3201C18.2546 23.5857 17.8509 23.7185 17.3197 23.7185Z" fill="#324558"/>
<path d="M36.3894 25.2498H34.3425L36.2253 22.0154L36.3894 21.7498V25.2498Z" fill="#324558"/>
<path fill-rule="evenodd" clip-rule="evenodd" d="M4 16C4 14.8954 4.89543 14 6 14H42C43.1046 14 44 14.8954 44 16V32C44 33.1046 43.1046 34 42 34H6C4.89543 34 4 33.1046 4 32V16ZM10.5544 29.6951H7.82001V18.3201H10.5544V29.6951ZM15.5228 25.8357V29.6951H12.7806V18.3201H17.3197C18.1895 18.3201 18.9577 18.4815 19.6244 18.8044C20.2963 19.1222 20.8145 19.5779 21.1791 20.1716C21.5489 20.7602 21.7338 21.4294 21.7338 22.1794C21.7338 23.2888 21.3353 24.1768 20.5384 24.8435C19.7468 25.505 18.6582 25.8357 17.2728 25.8357H15.5228ZM28.2334 21.2419L26.8975 26.5623L25.585 21.2419H22.8038L25.5616 29.6951H28.2491L31.0069 21.2419H28.2334ZM39.0222 25.2498H40.1784V27.281H39.0222V29.6951H36.3894V27.281H31.9909L31.8347 25.6716L36.3894 18.3435V18.3201H39.0222V25.2498Z" fill="#324558"/>
</svg>
