<svg width="48" height="48" viewBox="0 0 48 48" fill="none" xmlns="http://www.w3.org/2000/svg">
<path d="M42 11L34 4V7H6V11H42Z" fill="#324558"/>
<path d="M6 37L14 44V41H42V37H6Z" fill="#324558"/>
<path d="M35.1785 24.2749C35.4129 24.1134 35.7045 24.0327 36.0535 24.0327C36.5066 24.0327 36.8686 24.2098 37.1394 24.564C37.4155 24.9129 37.5535 25.366 37.5535 25.9233C37.5535 26.465 37.4181 26.9155 37.1473 27.2749C36.8816 27.6343 36.5483 27.814 36.1473 27.814C35.1525 27.814 34.6551 27.0952 34.6551 25.6577V24.8687C34.7696 24.6343 34.9441 24.4364 35.1785 24.2749Z" fill="#324558"/>
<path d="M17.3198 23.7124H15.5229V20.4312H17.351C17.8458 20.4364 18.2364 20.5978 18.5229 20.9155C18.8093 21.2332 18.9526 21.6577 18.9526 22.189C18.9526 22.6733 18.8119 23.0483 18.5307 23.314C18.2547 23.5796 17.851 23.7124 17.3198 23.7124Z" fill="#324558"/>
<path fill-rule="evenodd" clip-rule="evenodd" d="M4 16C4 14.8954 4.89543 14 6 14H42C43.1046 14 44 14.8954 44 16V32C44 33.1046 43.1046 34 42 34H6C4.89543 34 4 33.1046 4 32V16ZM38.4285 18.1499V20.2202H38.3113C37.3269 20.2202 36.517 20.4572 35.8816 20.9312C35.2514 21.3999 34.8634 22.0535 34.7176 22.8921C35.3113 22.3088 36.0613 22.0171 36.9676 22.0171C37.9519 22.0171 38.7358 22.3765 39.3191 23.0952C39.9025 23.814 40.1941 24.7567 40.1941 25.9233C40.1941 26.6473 40.0223 27.3114 39.6785 27.9155C39.34 28.5197 38.8634 28.9937 38.2488 29.3374C37.6394 29.6759 36.9624 29.8452 36.2176 29.8452C35.4103 29.8452 34.6889 29.6629 34.0535 29.2983C33.4181 28.9285 32.9233 28.4025 32.5691 27.7202C32.215 27.0379 32.0327 26.2515 32.0223 25.3608V24.3062C32.0223 23.1343 32.2723 22.0822 32.7723 21.1499C33.2775 20.2124 33.9962 19.478 34.9285 18.9468C35.8608 18.4155 36.8946 18.1499 38.0301 18.1499H38.4285ZM10.5544 29.689H7.82007V18.314H10.5544V29.689ZM15.5229 25.8296V29.689H12.7807V18.314H17.3198C18.1895 18.314 18.9578 18.4754 19.6244 18.7983C20.2963 19.116 20.8145 19.5718 21.1791 20.1655C21.5489 20.7541 21.7338 21.4233 21.7338 22.1733C21.7338 23.2827 21.3354 24.1707 20.5385 24.8374C19.7468 25.4989 18.6583 25.8296 17.2729 25.8296H15.5229ZM28.2335 21.2358L26.8976 26.5562L25.5851 21.2358H22.8038L25.5616 29.689H28.2491L31.0069 21.2358H28.2335Z" fill="#324558"/>
</svg>
