<svg width="48" height="48" viewBox="0 0 48 48" fill="none" xmlns="http://www.w3.org/2000/svg">
<path d="M41 24C41 33.3888 33.3888 41 24 41C21.3511 41 18.8436 40.3941 16.6087 39.3134C16.1486 40.6279 15.3074 41.7633 14.2177 42.5872C17.139 44.1279 20.4677 45 24 45C35.598 45 45 35.598 45 24C45 12.402 35.598 3 24 3C20.4677 3 17.139 3.87213 14.2177 5.4128C15.3074 6.23674 16.1486 7.37215 16.6087 8.68657C18.8436 7.60586 21.3511 7 24 7C33.3888 7 41 14.6112 41 24Z" fill="#324558"/>
<path d="M3.00005 23.973L3.00002 23.9844L3 24L3.00002 24.0156L3.00005 24.027C3.01267 27.3662 5.36327 30.1541 8.5 30.8389V33.2908C7.03408 33.8841 6 35.3213 6 37C6 39.2091 7.79086 41 10 41C12.2091 41 14 39.2091 14 37C14 35.3213 12.9659 33.8841 11.5 33.2908V30.8389C13.2533 30.4561 14.7609 29.4163 15.752 27.9904L23.0001 30.9749L23 31C23 33.2091 24.7909 35 27 35C29.2091 35 31 33.2091 31 31C31 28.7909 29.2091 27 27 27C25.8806 27 24.8685 27.4599 24.1425 28.201L16.8947 25.2166C16.9639 24.8215 17 24.4149 17 24C17 23.5849 16.9639 23.1783 16.8946 22.7831L24.1422 19.7988C24.8683 20.54 25.8804 21 27 21C29.2091 21 31 19.2091 31 17C31 14.7909 29.2091 13 27 13C24.7909 13 23 14.7909 23 17L23.0001 17.0247L15.7518 20.0093C14.7607 18.5836 13.2531 17.5438 11.5 17.1611V14.7092C12.9659 14.1159 14 12.6787 14 11C14 8.79086 12.2091 7 10 7C7.79086 7 6 8.79086 6 11C6 12.6787 7.03408 14.1159 8.5 14.7092V17.1611C5.36327 17.8459 3.01267 20.6338 3.00005 23.973Z" fill="#324558"/>
</svg>
