<svg width="48" height="48" viewBox="0 0 48 48" fill="none" xmlns="http://www.w3.org/2000/svg">
<path fill-rule="evenodd" clip-rule="evenodd" d="M5 15C5 20.2249 8.33923 24.6698 13 26.3172L13 30H10C9.44771 30 9 30.4477 9 31V37C9 37.5523 9.44771 38 10 38H13V41.1716C13 41.702 13.2107 42.2107 13.5858 42.5858L16.2929 45.2929C16.6834 45.6834 17.3166 45.6834 17.7071 45.2929L20.4142 42.5858C20.7893 42.2107 21 41.702 21 41.1716L21 26.3172C25.6608 24.6698 29 20.2249 29 15C29 8.37258 23.6274 3 17 3C10.3726 3 5 8.37258 5 15ZM17 19C14.7909 19 13 17.2091 13 15C13 12.7909 14.7909 11 17 11C19.2091 11 21 12.7909 21 15C21 17.2091 19.2091 19 17 19Z" fill="#324558"/>
<path d="M32 15C32 17.1333 31.5547 19.1626 30.7519 21H41C42.1046 21 43 20.1046 43 19V11C43 9.89543 42.1046 9 41 9H30.7519C31.5547 10.8374 32 12.8667 32 15Z" fill="#324558"/>
<path d="M29.0011 24C27.6743 25.7664 25.9666 27.2303 24 28.2699V36H41C42.1046 36 43 35.1046 43 34V26C43 24.8954 42.1046 24 41 24H29.0011Z" fill="#324558"/>
</svg>
