<svg width="48" height="48" viewBox="0 0 48 48" fill="none" xmlns="http://www.w3.org/2000/svg">
<path d="M21.6388 4.42343C22.4199 3.64238 23.6862 3.64238 24.4672 4.42343L29.48 9.43619L23.053 15.8632L16.6261 9.43619L21.6388 4.42343Z" fill="#324558"/>
<path d="M23.053 17.6171L29.48 24.0441L25.113 28.411L32.6776 24.0436L37.2221 31.915L29.3507 36.4596L24.8537 28.6704L23.053 30.471L16.6261 24.0441L23.053 17.6171Z" fill="#324558"/>
<path d="M23.053 32.1461L29.48 38.5731L24.4672 43.5859C23.6862 44.3669 22.4199 44.3669 21.6388 43.5859L16.6261 38.5731L23.053 32.1461Z" fill="#324558"/>
<path d="M15.7327 24.947L22.1597 31.374L15.7327 37.801L9.30576 31.374L15.7327 24.947Z" fill="#324558"/>
<path d="M8.46232 17.6171L14.8893 24.0441L8.46232 30.471L3.44956 25.4583C2.66851 24.6772 2.66851 23.4109 3.44956 22.6298L8.46232 17.6171Z" fill="#324558"/>
<path d="M15.7327 10.2866L22.1597 16.7136L15.7327 23.1406L9.30576 16.7136L15.7327 10.2866Z" fill="#324558"/>
<path d="M32.3414 10.446L37.4239 17.9813L29.8887 23.0638L24.8062 15.5286L32.3414 10.446Z" fill="#324558"/>
<path d="M42.8561 19.0265L45.9647 27.5675L37.4238 30.6761L34.3151 22.1352L42.8561 19.0265Z" fill="#324558"/>
</svg>
