<svg width="48" height="48" viewBox="0 0 48 48" fill="none" xmlns="http://www.w3.org/2000/svg">
<path d="M20 34L30 28L20 22V34Z" fill="#324558"/>
<path fill-rule="evenodd" clip-rule="evenodd" d="M24 8.99981C23.63 8.99981 23.2667 9.02852 22.9122 9.08383L17.4141 3.58575L14.5857 6.41418L19.1367 10.9651C18.5348 11.5467 18.0368 12.2352 17.6735 13H6C4.89543 13 4 13.8954 4 15V41C4 42.1046 4.89543 43 6 43H42C43.1046 43 44 42.1046 44 41V15C44 13.8954 43.1046 13 42 13H30.3265C29.9631 12.2351 29.4651 11.5465 28.8631 10.9649L33.4141 6.41388L30.5857 3.58545L25.0874 9.08376C24.733 9.0285 24.3699 8.99981 24 8.99981ZM33 28C33 32.9706 28.9706 37 24 37C19.0294 37 15 32.9706 15 28C15 23.0294 19.0294 19 24 19C28.9706 19 33 23.0294 33 28Z" fill="#324558"/>
</svg>
