<svg width="48" height="48" viewBox="0 0 48 48" fill="none" xmlns="http://www.w3.org/2000/svg">
<path fill-rule="evenodd" clip-rule="evenodd" d="M6 6C4.89543 6 4 6.89543 4 8V32C4 33.1046 4.89543 34 6 34L21 34V37.9821C20.7141 38.1063 18.7807 38.9034 16.0347 38.996C15.4695 39.015 15 39.4649 15 40.0304V41.9955H21V42H27V41.9955H33.0001V40.0304C33.0001 39.4649 32.5305 39.015 31.9654 38.996C29.2191 38.9034 27.2857 38.1062 27 37.982V34L42 34C43.1046 34 44 33.1046 44 32V8C44 6.89543 43.1046 6 42 6H6ZM26 22V27L34 20L26 13V18H14V22H26Z" fill="#324558"/>
</svg>
