<svg width="48" height="48" viewBox="0 0 48 48" fill="none" xmlns="http://www.w3.org/2000/svg">
<path d="M22.8824 25.9551C22.8824 27.5366 21.5919 28.8187 20 28.8187C18.4081 28.8187 17.1177 27.5366 17.1177 25.9551C17.1177 24.3735 18.4081 23.0914 20 23.0914C21.5919 23.0914 22.8824 24.3735 22.8824 25.9551Z" fill="#324558"/>
<path fill-rule="evenodd" clip-rule="evenodd" d="M16 6V12H6C4.89543 12 4 12.8954 4 14V42C4 43.1046 4.89543 44 6 44H34C35.1046 44 36 43.1046 36 42V32H42C43.1046 32 44 31.1046 44 30V6C44 4.89543 43.1046 4 42 4H18C16.8954 4 16 4.89543 16 6ZM20 8V12H34C35.1046 12 36 12.8954 36 14V28H40V8H20ZM27 26.0435C27 30.3478 20.1944 37 20 37C19.8056 37 13 30.3478 13 26.0435C13 22.1535 16.134 19 20 19C23.866 19 27 22.1535 27 26.0435Z" fill="#324558"/>
</svg>
