<svg width="48" height="48" viewBox="0 0 48 48" fill="none" xmlns="http://www.w3.org/2000/svg">
<path d="M28 24C28 26.2091 26.2091 28 24 28C21.7909 28 20 26.2091 20 24C20 21.7909 21.7909 20 24 20C26.2091 20 28 21.7909 28 24Z" fill="#324558"/>
<path fill-rule="evenodd" clip-rule="evenodd" d="M22 4H26V9H42C43.1046 9 44 9.89543 44 11V22.5H38V25.5H44V37C44 38.1046 43.1046 39 42 39H26V44H22V39H6C4.89543 39 4 38.1046 4 37V25.5H10V22.5H4V11C4 9.89543 4.89543 9 6 9H22V4ZM21.6267 14L21.1258 16.5234C20.2905 16.8338 19.5182 17.2674 18.84 17.8145L16.3733 16.9785L14 21.0215L15.9738 22.707C15.9038 23.129 15.8585 23.5586 15.8585 24C15.8585 24.4414 15.9038 24.871 15.9738 25.293L14 26.9785L16.3733 31.0215L18.84 30.1855C19.5182 30.7326 20.2905 31.1662 21.1258 31.4766L21.6267 34H26.3733L26.8742 31.4766C27.7095 31.1662 28.4818 30.7326 29.16 30.1855L31.6267 31.0215L34 26.9785L32.0262 25.293C32.0962 24.871 32.1415 24.4414 32.1415 24C32.1415 23.5586 32.0962 23.129 32.0262 22.707L34 21.0215L31.6267 16.9785L29.16 17.8145C28.4818 17.2674 27.7095 16.8338 26.8742 16.5234L26.3733 14H21.6267Z" fill="#324558"/>
</svg>
