<svg width="48" height="48" viewBox="0 0 48 48" fill="none" xmlns="http://www.w3.org/2000/svg">
<path d="M23.0195 2.55153C23.6283 2.20906 24.3717 2.20906 24.9805 2.55153L30.9805 5.92653C31.6103 6.28076 32 6.94713 32 7.66968V14.3303C32 15.0528 31.6103 15.7192 30.9805 16.0734L24.9805 19.4484C24.3717 19.7909 23.6283 19.7909 23.0195 19.4484L17.0195 16.0734C16.3897 15.7192 16 15.0528 16 14.3303V7.66968C16 6.94713 16.3897 6.28076 17.0195 5.92653L23.0195 2.55153Z" fill="#324558"/>
<path d="M10.0195 22.5515C10.6283 22.2091 11.3717 22.2091 11.9805 22.5515L17.9805 25.9265C18.6103 26.2808 19 26.9471 19 27.6697V34.3303C19 35.0528 18.6103 35.7192 17.9805 36.0734L11.9805 39.4484C11.3717 39.7909 10.6283 39.7909 10.0195 39.4484L4.01948 36.0734C3.38972 35.7192 3 35.0528 3 34.3303V27.6697C3 26.9471 3.38972 26.2808 4.01948 25.9265L10.0195 22.5515Z" fill="#324558"/>
<path d="M37.9805 22.5515C37.3717 22.2091 36.6283 22.2091 36.0195 22.5515L30.0195 25.9265C29.3897 26.2808 29 26.9471 29 27.6697V34.3303C29 35.0528 29.3897 35.7192 30.0195 36.0734L36.0195 39.4484C36.6283 39.7909 37.3717 39.7909 37.9805 39.4484L43.9805 36.0734C44.6103 35.7192 45 35.0528 45 34.3303V27.6697C45 26.9471 44.6103 26.2808 43.9805 25.9265L37.9805 22.5515Z" fill="#324558"/>
<path d="M7.29263 12.6181L13 9.42871V12.8654L8.75609 15.237C8.59797 15.3253 8.5 15.4923 8.5 15.6734V19.9642L5.5 21.6517V15.6734C5.5 14.4055 6.18577 13.2367 7.29263 12.6181Z" fill="#324558"/>
<path d="M35 9.42871V12.8654L39.2439 15.237C39.402 15.3253 39.5 15.4923 39.5 15.6734V19.9642L42.5 21.6517V15.6734C42.5 14.4055 41.8142 13.2367 40.7074 12.6181L35 9.42871Z" fill="#324558"/>
<path d="M28.5947 38.714L24.2439 41.1454C24.0923 41.2301 23.9077 41.2301 23.7561 41.1453L19.4053 38.714L16.3405 40.438L22.2926 43.7642C23.3537 44.3571 24.6463 44.3571 25.7074 43.7642L31.6595 40.438L28.5947 38.714Z" fill="#324558"/>
<path d="M24 22.7913L19.2183 20.1831L17.7817 22.8168L22.5 25.3904V34.5H25.5V25.3904L30.2183 22.8168L28.7817 20.1831L24 22.7913Z" fill="#324558"/>
</svg>
