<svg width="48" height="48" viewBox="0 0 48 48" fill="none" xmlns="http://www.w3.org/2000/svg">
<path d="M23.0684 2.49017C23.6515 2.18329 24.3483 2.18329 24.9314 2.49017L41.3185 11.115C42.0309 11.4899 42.0309 12.5099 41.3185 12.8848L35.7954 15.7917L31.491 13.537L34.4115 11.9999L23.9999 6.52011L13.5882 11.9999L16.509 13.5372L12.2046 15.7919L6.68123 12.8848C5.96889 12.5099 5.96889 11.4899 6.68123 11.115L23.0684 2.49017Z" fill="#324558"/>
<path d="M6.68123 35.115L12.2046 32.208L16.509 34.4627L13.5882 35.9999L23.9999 41.4797L34.4115 35.9999L31.4909 34.4628L35.7954 32.2081L41.3185 35.115C42.0309 35.4899 42.0309 36.5099 41.3185 36.8848L24.9314 45.5097C24.3483 45.8165 23.6515 45.8165 23.0684 45.5097L6.68123 36.8848C5.96889 36.5099 5.96889 35.4899 6.68123 35.115Z" fill="#324558"/>
<path d="M45 23.9999L24 12.9999L3 23.9999L24 34.9999L45 23.9999Z" fill="#324558"/>
</svg>
