<svg width="48" height="48" viewBox="0 0 48 48" fill="none" xmlns="http://www.w3.org/2000/svg">
<path d="M17.0668 10.1334C19.1531 9.08822 21.508 8.5 24.0003 8.5C26.4924 8.5 28.8472 9.08817 30.9334 10.1333L32.2754 7.44941C29.7854 6.20202 26.9748 5.5 24.0003 5.5C21.0256 5.5 18.2149 6.20207 15.7249 7.44955L17.0668 10.1334Z" fill="#324558"/>
<path d="M32.2754 40.5506L30.9334 37.8667C28.8472 38.9118 26.4924 39.5 24.0003 39.5C21.508 39.5 19.1531 38.9118 17.0668 37.8666L15.7249 40.5505C18.2149 41.7979 21.0256 42.5 24.0003 42.5C26.9748 42.5 29.7854 41.798 32.2754 40.5506Z" fill="#324558"/>
<path d="M7.73654 7.73633C3.57436 11.8985 1 17.6485 1 23.9998C1 30.3511 3.57436 36.1011 7.73654 40.2632L18.3431 29.6566C16.8954 28.2089 16 26.2089 16 23.9998C16 21.7906 16.8954 19.7906 18.3431 18.3429L7.73654 7.73633Z" fill="#324558"/>
<path d="M47 23.9998C47 30.3511 44.4256 36.1011 40.2635 40.2632L29.6569 29.6566C31.1046 28.2089 32 26.2089 32 23.9998C32 21.7906 31.1046 19.7906 29.6569 18.3429L40.2635 7.73633C44.4256 11.8985 47 17.6485 47 23.9998Z" fill="#324558"/>
<path d="M24 20C26.2091 20 28 21.7909 28 24C28 26.2091 26.2091 28 24 28C21.7909 28 20 26.2091 20 24C20 21.7909 21.7909 20 24 20Z" fill="#324558"/>
<path d="M24.0001 14.5C22.4726 14.5 21.0293 14.8605 19.7506 15.5011L18.4087 12.8172C20.0911 11.9743 21.9902 11.5 24.0001 11.5C26.0099 11.5 27.909 11.9744 29.5915 12.8172L28.2495 15.5011C26.9709 14.8605 25.5276 14.5 24.0001 14.5Z" fill="#324558"/>
<path d="M28.2495 32.4989L29.5915 35.1828C27.909 36.0256 26.0099 36.5 24.0001 36.5C21.9902 36.5 20.0911 36.0257 18.4087 35.1828L19.7506 32.4989C21.0293 33.1395 22.4726 33.5 24.0001 33.5C25.5276 33.5 26.9709 33.1395 28.2495 32.4989Z" fill="#324558"/>
</svg>
