<svg width="48" height="48" viewBox="0 0 48 48" fill="none" xmlns="http://www.w3.org/2000/svg">
<path d="M10 3L4 7L10 11L10 8.5H15.9955L16.6131 10H19.8575L18.642 7.04813C18.2563 6.11137 17.3434 5.5 16.3303 5.5H10V3Z" fill="#324558"/>
<path d="M38 8.5H32.0045L31.3869 10H28.1425L29.358 7.04813C29.7437 6.11137 30.6566 5.5 31.6697 5.5H38V3L44 7L38 11V8.5Z" fill="#324558"/>
<path d="M28.1425 38H31.3869L32.0045 39.5H38V37L44 41L38 45V42.5H31.6697C30.6566 42.5 29.7437 41.8886 29.358 40.9519L28.1425 38Z" fill="#324558"/>
<path d="M19.8575 38H16.6131L15.9955 39.5H10V37L4 41L10 45L10 42.5H16.3303C17.3434 42.5 18.2563 41.8886 18.642 40.9519L19.8575 38Z" fill="#324558"/>
<path d="M26.0797 25.4529H23.6344L24.8531 21.5076L26.0797 25.4529Z" fill="#324558"/>
<path fill-rule="evenodd" clip-rule="evenodd" d="M3 15C3 13.8954 3.89543 13 5 13H43C44.1046 13 45 13.8954 45 15V33C45 34.1046 44.1046 35 43 35H5C3.89543 35 3 34.1046 3 33V15ZM15.0334 29.6951H17.76V18.3201H15.0256V25.3982L11.0022 18.3201H8.26001V29.6951H11.0022V22.6169L15.0334 29.6951ZM22.9781 27.5701H26.7359L27.4 29.6951H30.3453L26.1422 18.3201H23.5641L19.3922 29.6951H22.3219L22.9781 27.5701ZM39.8134 20.4373H36.3994V29.6951H33.6572V20.4373H30.3056V18.3201H39.8134V20.4373Z" fill="#324558"/>
</svg>
