<svg width="48" height="48" viewBox="0 0 48 48" fill="none" xmlns="http://www.w3.org/2000/svg">
<path fill-rule="evenodd" clip-rule="evenodd" d="M26 19.748C29.4505 18.8599 32 15.7277 32 12C32 7.58172 28.4183 4 24 4C19.5817 4 16 7.58172 16 12C16 15.7277 18.5495 18.8599 22 19.748V24.2654L9.71716 26.0201C8.73186 26.1609 8 27.0047 8 28V32.3414C5.66962 33.1651 4 35.3876 4 38C4 41.3137 6.68629 44 10 44C13.3137 44 16 41.3137 16 38C16 35.3876 14.3304 33.1651 12 32.3414V29.7346L24 28.0203L36 29.7346V32.3414C33.6696 33.1651 32 35.3876 32 38C32 41.3137 34.6863 44 38 44C41.3137 44 44 41.3137 44 38C44 35.3876 42.3304 33.1651 40 32.3414V28C40 27.0047 39.2681 26.1609 38.2828 26.0201L26 24.2654V19.748ZM28 12C28 14.2091 26.2091 16 24 16C21.7909 16 20 14.2091 20 12C20 9.79086 21.7909 8 24 8C26.2091 8 28 9.79086 28 12Z" fill="#324558"/>
</svg>
