<svg width="48" height="48" viewBox="0 0 48 48" fill="none" xmlns="http://www.w3.org/2000/svg">
<path d="M30.3369 32C29.8659 34.7173 29.1677 37.1173 28.3199 39.0673C27.5129 40.9233 26.6293 42.236 25.8006 43.0422C24.9858 43.8348 24.3815 44 24 44C23.6185 44 23.0142 43.8348 22.1994 43.0422C21.3707 42.236 20.4871 40.9233 19.6801 39.0673C18.8323 37.1173 18.1341 34.7173 17.6631 32H30.3369Z" fill="#324558"/>
<path d="M33.3785 32C32.6307 36.6357 31.2518 40.5662 29.4818 43.2394C35.2557 41.5975 39.9649 37.4264 42.3358 32H33.3785Z" fill="#324558"/>
<path d="M18.5182 43.2394C12.7443 41.5975 8.03509 37.4264 5.66418 32H14.6215C15.3693 36.6357 16.7482 40.5662 18.5182 43.2394Z" fill="#324558"/>
<path d="M17.2517 29H30.7483C30.9119 27.4064 31 25.7326 31 24C31 22.2674 30.9119 20.5936 30.7483 19H17.2517C17.0881 20.5936 17 22.2674 17 24C17 25.7326 17.0881 27.4064 17.2517 29Z" fill="#324558"/>
<path d="M14.237 19C14.0818 20.6097 14 22.2829 14 24C14 25.7171 14.0818 27.3903 14.237 29H4.63009C4.21877 27.4019 4 25.7265 4 24C4 22.2735 4.21876 20.5981 4.63009 19H14.237Z" fill="#324558"/>
<path d="M17.6631 16H30.3369C29.8659 13.2827 29.1677 10.8827 28.3199 8.93272C27.5129 7.07666 26.6293 5.76402 25.8006 4.9578C24.9858 4.16519 24.3815 4 24 4C23.6185 4 23.0142 4.16519 22.1994 4.9578C21.3707 5.76402 20.4871 7.07666 19.6801 8.93272C18.8323 10.8827 18.1341 13.2827 17.6631 16Z" fill="#324558"/>
<path d="M18.5182 4.76057C16.7482 7.43381 15.3693 11.3643 14.6215 16H5.66417C8.03509 10.5736 12.7443 6.40254 18.5182 4.76057Z" fill="#324558"/>
<path d="M29.4818 4.76057C31.2518 7.43381 32.6307 11.3643 33.3785 16H42.3358C39.9649 10.5736 35.2557 6.40254 29.4818 4.76057Z" fill="#324558"/>
<path d="M33.763 19H43.3699C43.7812 20.5981 44 22.2735 44 24C44 25.7265 43.7812 27.4019 43.3699 29H33.763C33.9182 27.3903 34 25.7171 34 24C34 22.2829 33.9182 20.6097 33.763 19Z" fill="#324558"/>
</svg>
