<svg width="48" height="48" viewBox="0 0 48 48" fill="none" xmlns="http://www.w3.org/2000/svg">
<path fill-rule="evenodd" clip-rule="evenodd" d="M6 8C6 6.89543 6.89543 6 8 6H12V8H40C41.1046 8 42 8.89543 42 10V34C42 35.1046 41.1046 36 40 36H39V42H18V36H12V42H8C6.89543 42 6 41.1046 6 40V8ZM27 17H37V27H27V23.5H20.5987C20.0799 24.3967 19.1104 25 18 25C16.3431 25 15 23.6569 15 22C15 20.3431 16.3431 19 18 19C19.1104 19 20.0799 19.6033 20.5987 20.5H27V17ZM24 36H21V39H24V36ZM27 36H30V39H27V36ZM36 36H33V39H36V36Z" fill="#324558"/>
</svg>
