<svg width="48" height="48" viewBox="0 0 48 48" fill="none" xmlns="http://www.w3.org/2000/svg">
<path fill-rule="evenodd" clip-rule="evenodd" d="M19.8372 3C19.36 3 18.9493 3.33721 18.8564 3.8053L18.0731 7.75115C18.0055 8.09175 17.7652 8.37094 17.4436 8.50188C16.0617 9.06452 14.7686 9.79155 13.5978 10.6724C13.3242 10.8783 12.9676 10.9438 12.6433 10.8339L8.75517 9.51622C8.30609 9.36403 7.81186 9.54815 7.57182 9.95707L3.42427 17.0225C3.17888 17.4406 3.26864 17.9744 3.63727 18.2892L6.71547 20.9179C6.98204 21.1456 7.10794 21.4959 7.05997 21.8432C6.96241 22.5495 6.90292 23.267 6.90292 24C6.90292 24.733 6.96241 25.4505 7.05997 26.1568C7.10794 26.5041 6.98204 26.8544 6.71547 27.0821L3.63727 29.7108C3.26864 30.0256 3.17888 30.5594 3.42427 30.9775L7.57182 38.0429C7.81186 38.4518 8.30609 38.636 8.75517 38.4838L12.6433 37.1661C12.9676 37.0562 13.3242 37.1217 13.5978 37.3276C14.7686 38.2085 16.0617 38.9355 17.4436 39.4981C17.7652 39.6291 18.0055 39.9082 18.0731 40.2488L18.8564 44.1947C18.9493 44.6628 19.36 45 19.8372 45H28.163C28.6402 45 29.0509 44.6628 29.1439 44.1947L29.9271 40.2488C29.9947 39.9082 30.235 39.6291 30.5566 39.4981C31.9385 38.9355 33.2316 38.2085 34.4024 37.3276C34.676 37.1217 35.0326 37.0562 35.3569 37.1661L39.2451 38.4838C39.6941 38.636 40.1884 38.4518 40.4284 38.0429L44.576 30.9775C44.8214 30.5594 44.7316 30.0256 44.363 29.7108L41.2848 27.0821C41.0182 26.8544 40.8923 26.5041 40.9403 26.1568C41.0378 25.4505 41.0973 24.733 41.0973 24C41.0973 23.267 41.0378 22.5495 40.9403 21.8432C40.8923 21.4959 41.0182 21.1456 41.2848 20.9179L44.363 18.2892C44.7316 17.9744 44.8214 17.4406 44.576 17.0225L40.4284 9.95707C40.1884 9.54815 39.6941 9.36403 39.2451 9.51622L35.3569 10.8339C35.0326 10.9438 34.676 10.8783 34.4024 10.6724C33.2316 9.79155 31.9385 9.06452 30.5566 8.50188C30.235 8.37094 29.9947 8.09175 29.9271 7.75115L29.1439 3.8053C29.0509 3.33721 28.6402 3 28.163 3H19.8372ZM18.3414 26C18.944 27.7048 20.2952 29.056 22 29.6586V33.8C18.0817 33.0046 14.9954 29.9183 14.2 26H18.3414ZM22 18.3414C20.2952 18.944 18.944 20.2952 18.3414 22H14.2C14.9954 18.0817 18.0817 14.9954 22 14.2V18.3414ZM29.6586 22C29.056 20.2952 27.7048 18.944 26 18.3414V14.2C29.9183 14.9954 33.0046 18.0817 33.8 22H29.6586ZM26 29.6586C27.7048 29.056 29.056 27.7048 29.6586 26H33.8C33.0046 29.9183 29.9183 33.0046 26 33.8V29.6586Z" fill="#324558"/>
</svg>
