<svg width="48" height="48" viewBox="0 0 48 48" fill="none" xmlns="http://www.w3.org/2000/svg">
<path d="M19.1072 20.3125C19.63 21.1146 19.8914 22.2926 19.8914 23.8467V24.5664C19.8842 26.0846 19.6228 27.2484 19.1072 28.0576C18.5916 28.8669 17.8575 29.2715 16.905 29.2715C15.9024 29.2715 15.1469 28.8597 14.6384 28.0361C14.13 27.2126 13.8757 26.0345 13.8757 24.502L13.8865 23.3525C13.9939 20.5166 14.9929 19.0986 16.8835 19.0986C17.8503 19.0986 18.5916 19.5033 19.1072 20.3125Z" fill="#324558"/>
<path fill-rule="evenodd" clip-rule="evenodd" d="M24 3C29.7005 3 34.4726 6.97479 35.696 12.304C41.0252 13.5274 45 18.2995 45 24C45 29.7005 41.0252 34.4726 35.696 35.696C34.4726 41.0252 29.7005 45 24 45C18.2995 45 13.5274 41.0252 12.304 35.696C6.97479 34.4726 3 29.7005 3 24C3 18.2995 6.97479 13.5274 12.304 12.304C13.5274 6.97479 18.2995 3 24 3ZM22.8777 28.5518C23.4434 27.3773 23.7263 26.0273 23.7263 24.502V23.7822C23.7192 22.2783 23.4255 20.9463 22.8455 19.7861C22.2725 18.6188 21.4669 17.7201 20.4285 17.0898C19.3901 16.4596 18.2084 16.1445 16.8835 16.1445C15.5444 16.1445 14.3484 16.4632 13.2957 17.1006C12.2501 17.738 11.4444 18.6439 10.8787 19.8184C10.3201 20.9857 10.0408 22.3356 10.0408 23.8682V24.749C10.0694 26.2243 10.3702 27.5312 10.9431 28.6699C11.5232 29.8086 12.3289 30.6859 13.3601 31.3018C14.3914 31.9105 15.573 32.2148 16.905 32.2148C18.2371 32.2148 19.4223 31.8997 20.4607 31.2695C21.5063 30.6322 22.3119 29.7262 22.8777 28.5518ZM33.5872 26.5537C33.9811 26.8617 34.178 27.2913 34.178 27.8428C34.178 28.3298 33.9954 28.7093 33.6302 28.9814C33.2721 29.2464 32.7816 29.3789 32.1585 29.3789C31.1845 29.3789 30.4791 29.182 30.0423 28.7881C29.6126 28.387 29.3978 27.7676 29.3978 26.9297H25.6165C25.6165 27.9609 25.8743 28.874 26.3899 29.6689C26.9127 30.4567 27.6862 31.0798 28.7103 31.5381C29.7415 31.9893 30.8909 32.2148 32.1585 32.2148C33.956 32.2148 35.3704 31.8245 36.4017 31.0439C37.4329 30.2633 37.9485 29.1891 37.9485 27.8213C37.9485 26.1097 37.1035 24.7669 35.4134 23.793C34.7187 23.3919 33.8307 23.0195 32.7493 22.6758C31.6679 22.3249 30.9124 21.9883 30.4827 21.666C30.053 21.3366 29.8382 20.9714 29.8382 20.5703C29.8382 20.112 30.0316 19.736 30.4183 19.4424C30.8122 19.1416 31.3457 18.9912 32.0189 18.9912C32.6849 18.9912 33.2112 19.1667 33.598 19.5176C33.9918 19.8685 34.1888 20.3626 34.1888 21H37.9485C37.9485 20.0475 37.7015 19.2025 37.2073 18.4648C36.7132 17.7201 36.0185 17.1471 35.1233 16.7461C34.2353 16.3451 33.2291 16.1445 32.1048 16.1445C30.9518 16.1445 29.9134 16.3307 28.9896 16.7031C28.0657 17.0684 27.3496 17.584 26.8411 18.25C26.3398 18.9089 26.0892 19.6715 26.0892 20.5381C26.0892 22.2783 27.1025 23.6462 29.1292 24.6416C29.7523 24.9495 30.5543 25.2682 31.5355 25.5977C32.5166 25.9271 33.2005 26.2458 33.5872 26.5537Z" fill="#324558"/>
</svg>
