<svg width="48" height="48" viewBox="0 0 48 48" fill="none" xmlns="http://www.w3.org/2000/svg">
<path d="M24.9849 4.55715C24.3738 4.21142 23.6262 4.21142 23.0151 4.55715L15.5151 8.80057C14.8878 9.1555 14.5 9.82051 14.5 10.5413V18.9586C14.5 19.6793 14.8878 20.3443 15.5151 20.6993L23.0151 24.9427C23.6262 25.2884 24.3738 25.2884 24.9849 24.9427L32.4849 20.6993C33.1122 20.3443 33.5 19.6793 33.5 18.9586V10.5413C33.5 9.82051 33.1122 9.1555 32.4849 8.80057L24.9849 4.55715Z" fill="#324558"/>
<path d="M12.2628 23.5602C12.8751 23.2127 13.6249 23.2127 14.2372 23.5602L21.4872 27.6751C22.1132 28.0303 22.5 28.6946 22.5 29.4144V37.5853C22.5 38.3051 22.1132 38.9694 21.4872 39.3247L14.2372 43.4396C13.6249 43.7871 12.8751 43.7871 12.2628 43.4396L5.01279 39.3247C4.38679 38.9694 4 38.3051 4 37.5853V29.4144C4 28.6946 4.38679 28.0303 5.01279 27.6751L12.2628 23.5602Z" fill="#324558"/>
<path d="M33.7628 23.5602C34.3751 23.2127 35.1249 23.2127 35.7372 23.5602L42.9872 27.6751C43.6132 28.0303 44 28.6946 44 29.4144V37.5853C44 38.3051 43.6132 38.9694 42.9872 39.3247L35.7372 43.4396C35.1249 43.7871 34.3751 43.7871 33.7628 43.4396L26.5128 39.3247C25.8868 38.9694 25.5 38.3051 25.5 37.5853V29.4144C25.5 28.6946 25.8868 28.0303 26.5128 27.6751L33.7628 23.5602Z" fill="#324558"/>
</svg>
