<svg width="48" height="48" viewBox="0 0 48 48" fill="none" xmlns="http://www.w3.org/2000/svg">
<path d="M23.132 4.41791C23.6804 4.15383 24.3192 4.15383 24.8675 4.41791L39.5504 11.4888C40.0988 11.7529 40.4971 12.2523 40.6325 12.8457L44.2589 28.734C44.3944 29.3273 44.2522 29.9501 43.8727 30.426L33.7118 43.1673C33.3323 43.6432 32.7568 43.9204 32.1482 43.9204H15.8513C15.2427 43.9204 14.6672 43.6432 14.2877 43.1673L4.12678 30.426C3.7473 29.9501 3.60515 29.3273 3.74059 28.734L7.36698 12.8457C7.50241 12.2523 7.90069 11.7529 8.44906 11.4888L23.132 4.41791ZM34 25C34 19.4772 29.5228 15 24 15C18.4772 15 14 19.4772 14 25C14 27.8084 15.1577 30.3464 17.0219 32.1628L19.5674 24.6382C20.3963 22.1879 23.2596 21.1085 25.4997 22.4019C27.7399 23.6952 28.2368 26.7146 26.5292 28.6576L21.2835 34.6266C22.1472 34.8699 23.0584 35 24 35C29.5228 35 34 30.5229 34 25Z" fill="#324558"/>
</svg>
