<svg width="48" height="48" viewBox="0 0 48 48" fill="none" xmlns="http://www.w3.org/2000/svg">
<path d="M38 12.2857L25.0186 4.60282C24.3904 4.23103 23.6096 4.23103 22.9814 4.60282L10 12.2857V15.7142L24 24L38 15.7142V12.2857Z" fill="#324558"/>
<path d="M4.25947 25.6831L3 26.4285V30.431C3 31.1378 3.37308 31.7922 3.98136 32.1522L22.9814 43.3971C23.6096 43.7689 24.3904 43.7689 25.0186 43.3971L44.0186 32.1522C44.6269 31.7922 45 31.1378 45 30.431V26.4285L43.7405 25.6831L24 37.4961L4.25947 25.6831Z" fill="#324558"/>
<path d="M24 27.486L40.3713 17.7969L42 18.7715V23.2286L24 34.0001L6 23.2286V18.7715L7.62865 17.7969L24 27.486Z" fill="#324558"/>
</svg>
