<svg width="48" height="48" viewBox="0 0 48 48" fill="none" xmlns="http://www.w3.org/2000/svg">
<path d="M16 21C16 19.3416 17.3416 18 19 18C20.6584 18 22 19.3416 22 21C22 22.6584 20.6584 24 19 24C17.3416 24 16 22.6584 16 21Z" fill="#324558"/>
<path d="M29 18C27.3416 18 26 19.3416 26 21C26 22.6584 27.3416 24 29 24C30.6584 24 32 22.6584 32 21C32 19.3416 30.6584 18 29 18Z" fill="#324558"/>
<path fill-rule="evenodd" clip-rule="evenodd" d="M31.2389 2.90611C30.6974 4.47373 29.9631 5.96709 29.0534 7.35197C27.4199 6.46048 25.7295 5.67465 23.9923 5C22.3064 5.65374 20.6647 6.41267 19.0765 7.27157C18.1912 5.9095 17.4748 4.44378 16.9439 2.90666L16.9073 2.80084C13.5631 4.49529 10.4766 6.65647 7.74049 9.21955L7.82742 9.29008C9.08222 10.3082 10.2082 11.4742 11.181 12.7622C9.30135 14.4116 7.56735 16.2258 6 18.1846C6.0775 19.7844 6.24327 21.3739 6.49509 22.9461C5.11332 23.219 3.70532 23.3453 2.29455 23.322L2.18262 23.3202C2.63106 27.0423 3.60627 30.6818 5.07898 34.1295L5.17499 34.0719C6.4098 33.3316 7.71998 32.7276 9.0824 32.2696C10.0911 34.7758 11.3359 37.1907 12.8056 39.4797C14.9242 40.0665 17.077 40.4834 19.2441 40.7305C19.1456 42.1027 18.9055 43.4624 18.5268 44.7877L18.4961 44.8953C22.2075 45.4255 25.9754 45.4255 29.6868 44.8953L29.656 44.7877C29.2752 43.4547 29.0344 42.0869 28.937 40.7065C31.0348 40.4569 33.1185 40.0479 35.1702 39.4797C36.6437 37.1776 37.8974 34.743 38.9158 32.2086C40.3445 32.6734 41.7172 33.2983 43.0076 34.0719L43.1036 34.1295C44.5763 30.6818 45.5516 27.0423 46 23.3202L45.8881 23.322C44.4136 23.3463 42.9422 23.2073 41.5006 22.9082C41.7509 21.3584 41.9178 19.7945 42 18.2234C40.4598 16.295 38.7594 14.5051 36.9184 12.8727C37.9101 11.5407 39.0645 10.3368 40.3553 9.28953L40.4423 9.219C37.7062 6.65592 34.6197 4.49474 31.2754 2.80029L31.2389 2.90611ZM31.4468 33.9865C26.5675 35.3378 21.4164 35.3378 16.5371 33.9865C13.8098 29.7391 12.2447 24.8416 12 19.7897C13.5671 17.8312 15.3842 16.0895 17.404 14.61C19.4353 13.1227 21.651 11.9089 23.9949 11C26.3331 11.9081 28.5441 13.1183 30.5723 14.6003C32.6011 16.0912 34.426 17.845 36 19.8156C35.8685 22.3294 35.4117 24.8153 34.6414 27.2103C33.8715 29.5983 32.7977 31.8759 31.4468 33.9865Z" fill="#324558"/>
</svg>
