<svg width="48" height="48" viewBox="0 0 48 48" fill="none" xmlns="http://www.w3.org/2000/svg">
<path d="M45.3033 11.7371C41.8438 7.04429 36.2774 4 29.9999 4C23.7225 4 18.1561 7.04429 14.6965 11.7371L17.7315 14.3673C20.4465 10.5159 24.9294 8 29.9999 8C35.0704 8 39.5533 10.5159 42.2684 14.3673L45.3033 11.7371Z" fill="#324558"/>
<path d="M29.9999 11C34.467 11 38.4078 13.2531 40.748 16.6849L37.6953 19.3306C36.1165 16.7342 33.2607 15 29.9999 15C26.739 15 23.8832 16.7342 22.3044 19.3306L19.2517 16.6849C21.5919 13.2531 25.5327 11 29.9999 11Z" fill="#324558"/>
<path d="M5 14C4.44772 14 4 14.4477 4 15V41C4 41.5523 4.44772 42 5 42H11C11.5523 42 12 41.5523 12 41V15C12 14.4477 11.5523 14 11 14H5Z" fill="#324558"/>
<path d="M18 26C17.4477 26 17 26.4477 17 27V41C17 41.5523 17.4477 42 18 42H24C24.5523 42 25 41.5523 25 41V27C25 26.4477 24.5523 26 24 26H18Z" fill="#324558"/>
<path d="M30 31C30 30.4477 30.4477 30 31 30H37C37.5523 30 38 30.4477 38 31V41C38 41.5523 37.5523 42 37 42H31C30.4477 42 30 41.5523 30 41V31Z" fill="#324558"/>
<path d="M30 25C31.6569 25 33 23.6569 33 22C33 20.3431 31.6569 19 30 19C28.3431 19 27 20.3431 27 22C27 23.6569 28.3431 25 30 25Z" fill="#324558"/>
</svg>
