<svg width="48" height="48" viewBox="0 0 48 48" fill="none" xmlns="http://www.w3.org/2000/svg">
<path fill-rule="evenodd" clip-rule="evenodd" d="M5 6C3.89543 6 3 6.89543 3 8V32C3 33.1046 3.89543 34 5 34H35C36.1046 34 37 33.1046 37 32V25.7894L44.499 30.1309C45.1656 30.5169 46 30.0358 46 29.2655V10.7344C46 9.96407 45.1656 9.48302 44.499 9.86898L37 14.2105V8C37 6.89543 36.1046 6 35 6H5ZM14.5 16H11.5V24H14.5V16ZM18.5 13H21.5V27H18.5V13ZM28.5 17H25.5V23H28.5V17Z" fill="#324558"/>
<path d="M10 38H30V42H10V38Z" fill="#324558"/>
</svg>
