<svg width="48" height="48" viewBox="0 0 48 48" fill="none" xmlns="http://www.w3.org/2000/svg">
<path fill-rule="evenodd" clip-rule="evenodd" d="M5 5.41411C5 4.52321 6.07714 4.07704 6.70711 4.70701L14 11.9999H20V5.41411C20 4.52321 21.0771 4.07704 21.7071 4.70701L29 11.9999H41C42.1046 11.9999 43 12.8953 43 13.9999V39.9999C43 41.1045 42.1046 41.9999 41 41.9999H7C5.89543 41.9999 5 41.1045 5 39.9999V5.41411ZM33 28C35.2091 28 37 29.7909 37 32C37 34.2091 35.2091 36 33 36C30.7909 36 29 34.2091 29 32C29 29.7909 30.7909 28 33 28Z" fill="#324558"/>
</svg>
