<svg width="48" height="48" viewBox="0 0 48 48" fill="none" xmlns="http://www.w3.org/2000/svg">
<path d="M26 10H22V38H26V10Z" fill="#324558"/>
<path d="M13.0077 10.5879L19 14.0834V33.9167L13.0077 37.4122C12.385 37.7754 11.615 37.7754 10.9923 37.4122L0.992257 31.5788C0.377822 31.2204 0 30.5626 0 29.8513V18.1488C0 17.4374 0.377823 16.7796 0.992258 16.4212L10.9923 10.5879C11.615 10.2246 12.385 10.2246 13.0077 10.5879Z" fill="#324558"/>
<path d="M34.9923 37.4122L29 33.9167V14.0834L34.9923 10.5879C35.615 10.2246 36.385 10.2246 37.0077 10.5879L47.0077 16.4212C47.6222 16.7796 48 17.4374 48 18.1488V29.8513C48 30.5626 47.6222 31.2204 47.0077 31.5788L37.0077 37.4122C36.385 37.7754 35.615 37.7754 34.9923 37.4122Z" fill="#324558"/>
</svg>
