<svg width="48" height="48" viewBox="0 0 48 48" fill="none" xmlns="http://www.w3.org/2000/svg">
<path d="M6 7C6 5.89543 6.89543 5 8 5H20C21.1046 5 22 5.89543 22 7V10H28V7C28 5.89543 28.8954 5 30 5H40C41.1046 5 42 5.89543 42 7V16C42 17.1046 41.1046 18 40 18H37V24H40C41.1046 24 42 24.8954 42 26V41C42 42.1046 41.1046 43 40 43H30C28.8954 43 28 42.1046 28 41V26C28 24.8954 28.8954 24 30 24H33V18H30C28.8954 18 28 17.1046 28 16V14H22V26C22 27.1046 21.1046 28 20 28H8C6.89543 28 6 27.1046 6 26V7Z" fill="#324558"/>
<path d="M8 31C6.89543 31 6 31.8954 6 33V41C6 42.1046 6.89543 43 8 43H20C21.1046 43 22 42.1046 22 41V33C22 31.8954 21.1046 31 20 31H8Z" fill="#324558"/>
</svg>
