<svg width="48" height="48" viewBox="0 0 48 48" fill="none" xmlns="http://www.w3.org/2000/svg">
<path fill-rule="evenodd" clip-rule="evenodd" d="M5.31623 39.5613L10 37.9999H38L42.6838 39.5613C43.3313 39.7771 44 39.2951 44 38.6126V34.7398C44 34.2624 43.8292 33.8008 43.5185 33.4383L38 27V18.153C38 15.1454 36.6464 12.2976 34.3142 10.3986L25.2628 3.02822C24.5274 2.42939 23.4726 2.42939 22.7372 3.02822L13.6858 10.3986C11.3536 12.2976 10 15.1454 10 18.153V27L4.48149 33.4383C4.17078 33.8008 4 34.2624 4 34.7398V38.6126C4 39.2951 4.6687 39.7771 5.31623 39.5613ZM24 22C26.7614 22 29 19.7614 29 17C29 14.2386 26.7614 12 24 12C21.2386 12 19 14.2386 19 17C19 19.7614 21.2386 22 24 22Z" fill="#324558"/>
<path d="M12 45V41H36V45H12Z" fill="#324558"/>
</svg>
