<svg width="48" height="48" viewBox="0 0 48 48" fill="none" xmlns="http://www.w3.org/2000/svg">
<path fill-rule="evenodd" clip-rule="evenodd" d="M8 4C6.89543 4 6 4.89543 6 6V36C6 37.1046 6.89543 38 8 38H14V42C14 43.1046 14.8954 44 16 44H40C41.1046 44 42 43.1046 42 42V12C42 10.8954 41.1046 10 40 10H32V6C32 4.89543 31.1046 4 30 4H8ZM16 10H28V8H10V34H14V12C14 10.8954 14.8954 10 16 10ZM22 25C23.1104 25 24.0799 24.3967 24.5987 23.5H28.375L30.5217 30.8601C29.5948 31.5926 29 32.7269 29 34C29 36.2091 30.7909 38 33 38C35.2091 38 37 36.2091 37 34C37 31.9264 35.4222 30.2214 33.4016 30.0199L30.625 20.5H24.5987C24.0799 19.6033 23.1104 19 22 19C20.3431 19 19 20.3431 19 22C19 23.6569 20.3431 25 22 25Z" fill="#324558"/>
</svg>
