<svg width="48" height="48" viewBox="0 0 48 48" fill="none" xmlns="http://www.w3.org/2000/svg">
<path d="M19.8197 34.0703C19.6061 34.2109 19.3353 34.2812 19.0072 34.2812C18.7572 34.2812 18.5515 34.2083 18.39 34.0625C18.2285 33.9115 18.1478 33.7161 18.1478 33.4766C18.1478 32.6536 18.6061 32.2422 19.5228 32.2422H20.2884V33.5938C20.1947 33.7708 20.0384 33.9297 19.8197 34.0703Z" fill="#324558"/>
<path d="M28.1472 34.2812C28.4753 34.2812 28.7461 34.2109 28.9597 34.0703C29.1784 33.9297 29.3347 33.7708 29.4284 33.5938V32.2422H28.6628C27.7461 32.2422 27.2878 32.6536 27.2878 33.4766C27.2878 33.7161 27.3685 33.9115 27.53 34.0625C27.6915 34.2083 27.8972 34.2812 28.1472 34.2812Z" fill="#324558"/>
<path fill-rule="evenodd" clip-rule="evenodd" d="M25 6C17.8249 6 11.9105 11.3976 11.0958 18.3538C5.87156 19.6524 2 24.3741 2 30C2 36.6274 7.37258 42 14 42H34C40.6274 42 46 36.6274 46 30C46 25.1453 43.1171 20.9638 38.9699 19.0743C38.4933 11.7739 32.421 6 25 6ZM10.7969 32.0391C11.0833 32.263 11.2266 32.5755 11.2266 32.9766C11.2266 33.3307 11.0938 33.6068 10.8281 33.8047C10.5677 33.9974 10.2109 34.0938 9.75781 34.0938C9.04948 34.0938 8.53646 33.9505 8.21875 33.6641C7.90625 33.3724 7.75 32.9219 7.75 32.3125H5C5 33.0625 5.1875 33.7266 5.5625 34.3047C5.94271 34.8776 6.50521 35.3307 7.25 35.6641C8 35.9922 8.83594 36.1562 9.75781 36.1562C11.0651 36.1562 12.0938 35.8724 12.8438 35.3047C13.5938 34.737 13.9688 33.9557 13.9688 32.9609C13.9688 31.7161 13.3542 30.7396 12.125 30.0312C11.6198 29.7396 10.974 29.4688 10.1875 29.2188C9.40104 28.9635 8.85156 28.7188 8.53906 28.4844C8.22656 28.2448 8.07031 27.9792 8.07031 27.6875C8.07031 27.3542 8.21094 27.0807 8.49219 26.8672C8.77865 26.6484 9.16667 26.5391 9.65625 26.5391C10.1406 26.5391 10.5234 26.6667 10.8047 26.9219C11.0911 27.1771 11.2344 27.5365 11.2344 28H13.9688C13.9688 27.3073 13.7891 26.6927 13.4297 26.1562C13.0703 25.6146 12.5651 25.1979 11.9141 24.9062C11.2682 24.6146 10.5365 24.4688 9.71875 24.4688C8.88021 24.4688 8.125 24.6042 7.45312 24.875C6.78125 25.1406 6.26042 25.5156 5.89062 26C5.52604 26.4792 5.34375 27.0339 5.34375 27.6641C5.34375 28.9297 6.08073 29.9245 7.55469 30.6484C8.00781 30.8724 8.59115 31.1042 9.30469 31.3438C10.0182 31.5833 10.5156 31.8151 10.7969 32.0391ZM20.4056 35.2422C20.4785 35.5755 20.5619 35.8281 20.6556 36H23.2884V35.8672C23.0593 35.4557 22.9395 34.862 22.9291 34.0859V30.3438C22.9134 29.4271 22.5931 28.7057 21.9681 28.1797C21.3431 27.6536 20.4916 27.3906 19.4134 27.3906C18.3353 27.3906 17.4473 27.6458 16.7494 28.1562C16.0567 28.6667 15.7103 29.3307 15.7103 30.1484H18.3431C18.3431 29.5339 18.6556 29.2266 19.2806 29.2266C19.9525 29.2266 20.2884 29.6146 20.2884 30.3906V30.8359H19.4759C18.1843 30.8359 17.1999 31.0703 16.5228 31.5391C15.8457 32.0078 15.5072 32.7005 15.5072 33.6172C15.5072 34.3464 15.7858 34.9531 16.3431 35.4375C16.9004 35.9167 17.5775 36.1562 18.3744 36.1562C19.2442 36.1562 19.9212 35.8516 20.4056 35.2422ZM29.7956 36C29.7019 35.8281 29.6185 35.5755 29.5456 35.2422C29.0613 35.8516 28.3842 36.1562 27.5144 36.1562C26.7175 36.1562 26.0404 35.9167 25.4831 35.4375C24.9258 34.9531 24.6472 34.3464 24.6472 33.6172C24.6472 32.7005 24.9857 32.0078 25.6628 31.5391C26.3399 31.0703 27.3243 30.8359 28.6159 30.8359H29.4284V30.3906C29.4284 29.6146 29.0925 29.2266 28.4206 29.2266C27.7956 29.2266 27.4831 29.5339 27.4831 30.1484H24.8503C24.8503 29.3307 25.1967 28.6667 25.8894 28.1562C26.5873 27.6458 27.4753 27.3906 28.5534 27.3906C29.6316 27.3906 30.4831 27.6536 31.1081 28.1797C31.7331 28.7057 32.0534 29.4271 32.0691 30.3438V34.0859C32.0795 34.862 32.1993 35.4557 32.4284 35.8672V36H29.7956ZM39.7325 32.0391C40.019 32.263 40.1622 32.5755 40.1622 32.9766C40.1622 33.3307 40.0294 33.6068 39.7637 33.8047C39.5033 33.9974 39.1466 34.0938 38.6934 34.0938C37.9851 34.0938 37.4721 33.9505 37.1544 33.6641C36.8419 33.3724 36.6856 32.9219 36.6856 32.3125H33.9356C33.9356 33.0625 34.1231 33.7266 34.4981 34.3047C34.8783 34.8776 35.4408 35.3307 36.1856 35.6641C36.9356 35.9922 37.7716 36.1562 38.6934 36.1562C40.0007 36.1562 41.0294 35.8724 41.7794 35.3047C42.5294 34.737 42.9044 33.9557 42.9044 32.9609C42.9044 31.7161 42.2898 30.7396 41.0606 30.0312C40.5554 29.7396 39.9096 29.4688 39.1231 29.2188C38.3367 28.9635 37.7872 28.7188 37.4747 28.4844C37.1622 28.2448 37.0059 27.9792 37.0059 27.6875C37.0059 27.3542 37.1466 27.0807 37.4278 26.8672C37.7143 26.6484 38.1023 26.5391 38.5919 26.5391C39.0762 26.5391 39.4591 26.6667 39.7403 26.9219C40.0268 27.1771 40.17 27.5365 40.17 28H42.9044C42.9044 27.3073 42.7247 26.6927 42.3653 26.1562C42.0059 25.6146 41.5007 25.1979 40.8497 24.9062C40.2039 24.6146 39.4721 24.4688 38.6544 24.4688C37.8158 24.4688 37.0606 24.6042 36.3887 24.875C35.7169 25.1406 35.196 25.5156 34.8262 26C34.4617 26.4792 34.2794 27.0339 34.2794 27.6641C34.2794 28.9297 35.0164 29.9245 36.4903 30.6484C36.9434 30.8724 37.5268 31.1042 38.2403 31.3438C38.9539 31.5833 39.4512 31.8151 39.7325 32.0391Z" fill="#324558"/>
</svg>
