<svg width="48" height="48" viewBox="0 0 48 48" fill="none" xmlns="http://www.w3.org/2000/svg">
<path d="M12 27H24V15C30.6274 15 36 20.3726 36 27C36 33.6274 30.6274 39 24 39C17.3726 39 12 33.6274 12 27Z" fill="#324558"/>
<path fill-rule="evenodd" clip-rule="evenodd" d="M16 2H32V6H26V8.10401C35.5533 9.1034 43 17.1821 43 27C43 37.4934 34.4934 46 24 46C13.5066 46 5 37.4934 5 27C5 17.1821 12.4467 9.1034 22 8.10401V6H16V2ZM24 42C32.2843 42 39 35.2843 39 27C39 18.7157 32.2843 12 24 12C15.7157 12 9 18.7157 9 27C9 35.2843 15.7157 42 24 42Z" fill="#324558"/>
<path d="M41.3538 7.63867L38.0891 10.1026C40.6633 12.2513 42.739 14.9772 44.1172 18.0814L47.3824 15.6171C45.9005 12.5786 43.8438 9.87199 41.3538 7.63867Z" fill="#324558"/>
</svg>
