<svg width="48" height="48" viewBox="0 0 48 48" fill="none" xmlns="http://www.w3.org/2000/svg">
<path d="M23.2032 3.34599C23.7115 3.12523 24.2885 3.12523 24.7968 3.34599L35.9717 8.19972L26.5867 17.5847C25.8035 17.2099 24.9262 17 24 17C20.6863 17 18 19.6863 18 23C18 26.3137 20.6863 29 24 29C27.3137 29 30 26.3137 30 23C30 22.0737 29.7901 21.1963 29.4152 20.413L39.9155 9.91272L40.7968 10.2955C41.5274 10.6128 42 11.3322 42 12.1287V22.5454C42 37.4849 29.7282 44.6502 24.3789 45.9176C24.1268 45.9774 23.8732 45.9774 23.6211 45.9176C18.2718 44.6502 6 37.4849 6 22.5454V12.1287C6 11.3322 6.47264 10.6128 7.20323 10.2955L23.2032 3.34599Z" fill="#324558"/>
</svg>
