<svg width="48" height="48" viewBox="0 0 48 48" fill="none" xmlns="http://www.w3.org/2000/svg">
<path fill-rule="evenodd" clip-rule="evenodd" d="M16 6V12H6C4.89543 12 4 12.8954 4 14V42C4 43.1046 4.89543 44 6 44H34C35.1046 44 36 43.1046 36 42V32H42C43.1046 32 44 31.1046 44 30V6C44 4.89543 43.1046 4 42 4H18C16.8954 4 16 4.89543 16 6ZM20 8V12H34C35.1046 12 36 12.8954 36 14V28H40V8H20ZM13 23.0909L20 20L27 23.0909V27.7273C27 33.7777 21.9919 36.6028 20 37C18.0081 36.6028 13 33.7777 13 27.7273V23.0909Z" fill="#324558"/>
</svg>
