<svg width="48" height="48" viewBox="0 0 48 48" fill="none" xmlns="http://www.w3.org/2000/svg">
<path fill-rule="evenodd" clip-rule="evenodd" d="M8 5C6.89543 5 6 5.89543 6 7V17H42V7C42 5.89543 41.1046 5 40 5H8ZM12 9C10.8954 9 10 9.89543 10 11C10 12.1046 10.8954 13 12 13C13.1046 13 14 12.1046 14 11C14 9.89543 13.1046 9 12 9ZM28 9H38V13H28V9Z" fill="#324558"/>
<path fill-rule="evenodd" clip-rule="evenodd" d="M28.764 41.5225H40V37.5225H28.344C27.812 36.5917 26.9895 35.8484 26 35.416V32H40C41.1046 32 42 31.1046 42 30V20H6V30C6 31.1046 6.89543 32 8 32H22V35.416C21.0105 35.8484 20.188 36.5917 19.656 37.5225H8V41.5225H19.236C19.88 43.5394 21.7694 45 24 45C26.2305 45 28.12 43.5394 28.764 41.5225ZM10 26C10 24.8954 10.8954 24 12 24C13.1046 24 14 24.8954 14 26C14 27.1046 13.1046 28 12 28C10.8954 28 10 27.1046 10 26ZM38 24H28V28H38V24ZM24 42C25.1046 42 26 41.1046 26 40C26 38.8954 25.1046 38 24 38C22.8954 38 22 38.8954 22 40C22 41.1046 22.8954 42 24 42Z" fill="#324558"/>
</svg>
