<svg width="48" height="48" viewBox="0 0 48 48" fill="none" xmlns="http://www.w3.org/2000/svg">
<path fill-rule="evenodd" clip-rule="evenodd" d="M26 4H22V8H8C6.89543 8 6 8.89543 6 10V20C6 21.1046 6.89543 22 8 22H22V26H8C6.89543 26 6 26.8954 6 28V38C6 39.1046 6.89543 40 8 40H22V44H26V40H40C41.1046 40 42 39.1046 42 38V28C42 26.8954 41.1046 26 40 26H26V22H40C41.1046 22 42 21.1046 42 20V10C42 8.89543 41.1046 8 40 8H26V4ZM10 31H14V35H10V31ZM22 31H18V35H22V31ZM10 13H14V17H10V13ZM22 13H18V17H22V13Z" fill="#324558"/>
</svg>
