<svg width="48" height="48" viewBox="0 0 48 48" fill="none" xmlns="http://www.w3.org/2000/svg">
<path d="M16.0885 12.9281L6.5 18.464V29.5358L16.0885 35.0717V41.6905C15.7432 41.6905 15.3979 41.6012 15.0885 41.4226L1.5 33.5773C0.881199 33.22 0.5 32.5598 0.5 31.8452V16.1546C0.5 15.4401 0.881198 14.7798 1.5 14.4226L15.0885 6.57728C15.7073 6.22001 16.4697 6.22001 17.0885 6.57728L30.6769 14.4226C31.2957 14.7798 31.6769 15.4401 31.6769 16.1546V30.2044L25.6769 27.0465V18.464L16.0885 12.9281Z" fill="#324558"/>
<path d="M31.9117 35.0718L41.5002 29.5359V18.4641L31.9117 12.9282V6.30936C32.257 6.30936 32.6023 6.39867 32.9117 6.5773L46.5002 14.4226C47.119 14.7799 47.5002 15.4401 47.5002 16.1547V31.8453C47.5002 32.5598 47.119 33.22 46.5002 33.5773L32.9117 41.4226C32.2929 41.7799 31.5305 41.7799 30.9117 41.4226L17.3232 33.5773C16.7044 33.22 16.3232 32.5598 16.3232 31.8453V17.7955L22.3232 20.9534V29.5359L31.9117 35.0718Z" fill="#324558"/>
</svg>
