<svg width="48" height="48" viewBox="0 0 48 48" fill="none" xmlns="http://www.w3.org/2000/svg">
<g clip-path="url(#clip0_5613_4976)">
<path fill-rule="evenodd" clip-rule="evenodd" d="M4 9C4 7.89543 4.89543 7 6 7H42C43.1046 7 44 7.89543 44 9V21H4V9ZM14 11H8V15H14V11ZM23 11H17V15H23V11Z" fill="#324558"/>
<path d="M26.4644 28C27.267 26.4601 28.3688 25.1011 29.6929 24H4V28H12.4998V32.2576C12.4998 32.3423 12.4783 32.4256 12.4373 32.4997L10.9855 35.1223C10.6702 35.0424 10.3401 35 10 35C7.79086 35 6 36.7909 6 39C6 41.2091 7.79086 43 10 43C12.2091 43 14 41.2091 14 39C14 38.2389 13.7874 37.5274 13.4184 36.9217L15.062 33.9527C15.3492 33.4338 15.4998 32.8506 15.4998 32.2576V28H20.5V37.2908C19.0341 37.8841 18 39.3213 18 41C18 43.2091 19.7909 45 22 45C24.2091 45 26 43.2091 26 41C26 39.3213 24.9659 37.8841 23.5 37.2908V28H26.4644Z" fill="#324558"/>
<path fill-rule="evenodd" clip-rule="evenodd" d="M35.6267 24L35.1258 26.5234C34.2905 26.8338 33.5182 27.2674 32.84 27.8145L30.3733 26.9785L28 31.0215L29.9738 32.707C29.9038 33.129 29.8585 33.5586 29.8585 34C29.8585 34.4414 29.9038 34.871 29.9738 35.293L28 36.9785L30.3733 41.0215L32.84 40.1856C33.5182 40.7326 34.2905 41.1662 35.1258 41.4766L35.6267 44H40.3733L40.8742 41.4766C41.7095 41.1662 42.4818 40.7326 43.16 40.1856L45.6267 41.0215L48 36.9785L46.0262 35.293C46.0962 34.871 46.1415 34.4414 46.1415 34C46.1415 33.5586 46.0962 33.129 46.0262 32.707L48 31.0215L45.6267 26.9785L43.16 27.8145C42.4818 27.2674 41.7095 26.8338 40.8742 26.5234L40.3733 24H35.6267ZM41.3334 33.9998C41.3334 35.8408 39.841 37.3332 38 37.3332C36.1591 37.3332 34.6667 35.8408 34.6667 33.9998C34.6667 32.1589 36.1591 30.6665 38 30.6665C39.841 30.6665 41.3334 32.1589 41.3334 33.9998Z" fill="#324558"/>
</g>
<defs>
<clipPath id="clip0_5613_4976">
<rect width="48" height="48" fill="white"/>
</clipPath>
</defs>
</svg>
