<svg width="48" height="48" viewBox="0 0 48 48" fill="none" xmlns="http://www.w3.org/2000/svg">
<path fill-rule="evenodd" clip-rule="evenodd" d="M4 9C4 7.89543 4.89543 7 6 7H42C43.1046 7 44 7.89543 44 9V21H4V9ZM14 11H8V15H14V11ZM23 11H17V15H23V11Z" fill="#324558"/>
<path d="M44 24H4V28H12.4998V32.2576C12.4998 32.3423 12.4783 32.4256 12.4373 32.4997L10.9855 35.1223C10.6702 35.0424 10.3401 35 10 35C7.79086 35 6 36.7909 6 39C6 41.2091 7.79086 43 10 43C12.2091 43 14 41.2091 14 39C14 38.2389 13.7874 37.5274 13.4184 36.9217L15.062 33.9527C15.3492 33.4338 15.4998 32.8506 15.4998 32.2576V28H22.5V37.2908C21.0341 37.8841 20 39.3213 20 41C20 43.2091 21.7909 45 24 45C26.2091 45 28 43.2091 28 41C28 39.3213 26.9659 37.8841 25.5 37.2908V28H32.5002V32.2576C32.5002 32.8506 32.6508 33.4338 32.938 33.9527L34.5816 36.9217C34.2126 37.5274 34 38.2389 34 39C34 41.2091 35.7909 43 38 43C40.2091 43 42 41.2091 42 39C42 36.7909 40.2091 35 38 35C37.6599 35 37.3298 35.0424 37.0145 35.1223L35.5627 32.4997C35.5217 32.4256 35.5002 32.3423 35.5002 32.2576V28H44V24Z" fill="#324558"/>
</svg>
