<svg width="48" height="48" viewBox="0 0 48 48" fill="none" xmlns="http://www.w3.org/2000/svg">
<path d="M23.1053 4.44723C23.6684 4.1657 24.3311 4.1657 24.8942 4.44723L36.2109 10.1056C36.948 10.4741 36.948 11.5259 36.2109 11.8944L27.9998 16L23.9998 18L11.7886 11.8944C11.0516 11.5259 11.0516 10.4741 11.7886 10.1056L23.1053 4.44723Z" fill="#324558"/>
<path d="M27.9998 16L40 16V29L8 29L8 16H6C4.89543 16 4 16.8954 4 18V40C4 41.1046 4.89543 42 6 42H42C43.1046 42 44 41.1046 44 40V18C44 16.8954 43.1046 16 42 16H27.9998Z" fill="#324558"/>
<path d="M14.6457 16.6771L23.9998 21.3541L33.3539 16.6771L36.2109 18.1056C36.948 18.4741 36.948 19.5259 36.2109 19.8944L24.8942 25.5528C24.3311 25.8343 23.6684 25.8343 23.1053 25.5528L11.7886 19.8944C11.0516 19.5259 11.0516 18.4741 11.7886 18.1056L14.6457 16.6771Z" fill="#324558"/>
</svg>
