<svg width="48" height="48" viewBox="0 0 48 48" fill="none" xmlns="http://www.w3.org/2000/svg">
<path d="M14 16C18.305 16 22.1561 17.9431 24.7242 21H28.0218C29.1769 19.1958 31.1988 18 33.5 18C35.8012 18 37.8231 19.1958 38.9782 21H42.1716C42.702 21 43.2107 20.7893 43.5858 20.4142L46.2929 17.7071C46.6834 17.3166 46.6834 16.6834 46.2929 16.2929L43.5858 13.5858C43.2107 13.2107 42.702 13 42.1716 13L23.1679 13C21.6248 9.46819 18.1006 7 14 7C8.47715 7 4 11.4772 4 17C4 17.9755 4.13967 18.9183 4.40011 19.8097C6.90649 17.4476 10.2842 16 14 16Z" fill="#324558"/>
<path fill-rule="evenodd" clip-rule="evenodd" d="M14 41C18.664 41 22.65 38.0974 24.2501 34H28.0218C29.1769 32.1958 31.1988 31 33.5 31C35.8012 31 37.8231 32.1958 38.9782 34H42.1716C42.702 34 43.2107 33.7893 43.5858 33.4142L46.2929 30.7071C46.6834 30.3166 46.6834 29.6834 46.2929 29.2929L43.5858 26.5858C43.2107 26.2107 42.702 26 42.1716 26H24.2501C22.65 21.9026 18.664 19 14 19C7.92487 19 3 23.9249 3 30C3 36.0751 7.92487 41 14 41ZM14 33C15.6569 33 17 31.6569 17 30C17 28.3431 15.6569 27 14 27C12.3431 27 11 28.3431 11 30C11 31.6569 12.3431 33 14 33Z" fill="#324558"/>
</svg>
