<svg width="48" height="48" viewBox="0 0 48 48" fill="none" xmlns="http://www.w3.org/2000/svg">
<path d="M24 20C25.6569 20 27 18.6569 27 17C27 15.3431 25.6569 14 24 14C22.3431 14 21 15.3431 21 17C21 18.6569 22.3431 20 24 20Z" fill="#324558"/>
<path fill-rule="evenodd" clip-rule="evenodd" d="M11 4C9.89543 4 9 4.89543 9 6V32.7959L10.0839 33.2024L24 38.7688L37.9161 33.2024L39 32.7959V6C39 4.89543 38.1046 4 37 4H11ZM31 17C31 19.3787 29.8135 21.4804 28 22.7453V29L24 25.5L20 29V22.7453C18.1865 21.4804 17 19.3787 17 17C17 13.134 20.134 10 24 10C27.866 10 31 13.134 31 17Z" fill="#324558"/>
<path d="M39 36L24 42L9 36L5 34.5V38.7081L24 46.3081L43 38.7081V34.5L39 36Z" fill="#324558"/>
</svg>
