<svg width="48" height="48" viewBox="0 0 48 48" fill="none" xmlns="http://www.w3.org/2000/svg">
<path d="M42.3345 15.997L42.3358 16L30.241 16C29.4692 16 28.9883 15.1628 29.3772 14.4961L31.9386 10.1052C29.5992 8.76568 26.889 8 24 8C15.1634 8 8 15.1634 8 24C8 32.8366 15.1634 40 24 40C32.8366 40 40 32.8366 40 24C40 23.3227 39.9579 22.6552 39.8762 22H43.9012C43.9666 22.6578 44 23.325 44 24C44 35.0457 35.0457 44 24 44C12.9543 44 4 35.0457 4 24C4 12.9543 12.9543 4 24 4C28.8325 4 33.2647 5.71391 36.7219 8.56703C39.1311 10.5553 41.0668 13.0968 42.3345 15.997Z" fill="#324558"/>
<path d="M31.4806 24.8683C32.1524 24.4844 32.1524 23.5157 31.4806 23.1318L20.4961 16.8549C19.8295 16.474 19 16.9554 19 17.7232V30.2768C19 31.0447 19.8295 31.526 20.4961 31.1451L31.4806 24.8683Z" fill="#324558"/>
</svg>
