<svg width="48" height="48" viewBox="0 0 48 48" fill="none" xmlns="http://www.w3.org/2000/svg">
<path d="M28.3199 8.93272C29.1677 10.8827 29.8659 13.2827 30.3369 16H17.6631C18.1341 13.2827 18.8323 10.8827 19.6801 8.93272C20.4871 7.07666 21.3707 5.76402 22.1994 4.9578C23.0142 4.16519 23.6185 4 24 4C24.3815 4 24.9858 4.16519 25.8006 4.9578C26.6293 5.76402 27.5129 7.07666 28.3199 8.93272Z" fill="#324558"/>
<path d="M14.237 19C14.0818 20.6097 14 22.2829 14 24C14 25.7171 14.0818 27.3903 14.237 29H4.63009C4.21877 27.4019 4 25.7265 4 24C4 22.2735 4.21876 20.5981 4.63009 19H14.237Z" fill="#324558"/>
<path d="M30.7483 29C30.9119 27.4064 31 25.7326 31 24C31 22.2674 30.9119 20.5936 30.7483 19H17.2517C17.0881 20.5936 17 22.2674 17 24C17 25.7326 17.0881 27.4064 17.2517 29H30.7483Z" fill="#324558"/>
<path d="M18.5182 43.2394C12.7443 41.5975 8.03509 37.4264 5.66418 32H14.6215C15.3693 36.6357 16.7482 40.5662 18.5182 43.2394Z" fill="#324558"/>
<path d="M29 37.3123C28.7864 37.9311 28.5591 38.5171 28.3199 39.0673C27.5129 40.9233 26.6293 42.236 25.8006 43.0422C24.9858 43.8348 24.3815 44 24 44C23.6185 44 23.0142 43.8348 22.1994 43.0422C21.3707 42.236 20.4871 40.9233 19.6801 39.0673C18.8323 37.1173 18.1341 34.7173 17.6631 32H29V37.3123Z" fill="#324558"/>
<path d="M44 24C44 24.249 43.9954 24.497 43.9864 24.7438C42.6189 23.6524 40.8856 23 39 23C37.1056 23 35.3651 23.6584 33.9947 24.7589C33.9982 24.5069 34 24.254 34 24C34 22.2829 33.9182 20.6097 33.763 19H43.3699C43.7812 20.5981 44 22.2735 44 24Z" fill="#324558"/>
<path d="M14.6215 16C15.3693 11.3643 16.7482 7.43381 18.5182 4.76057C12.7443 6.40254 8.03509 10.5736 5.66417 16H14.6215Z" fill="#324558"/>
<path d="M33.3785 16C32.6307 11.3643 31.2518 7.43381 29.4818 4.76057C35.2557 6.40254 39.9649 10.5736 42.3358 16H33.3785Z" fill="#324558"/>
<path fill-rule="evenodd" clip-rule="evenodd" d="M32 34H34V31C34 28.2386 36.2386 26 39 26C41.7614 26 44 28.2386 44 31V34H46V44H32V34ZM41 31V34H37V31C37 29.8954 37.8954 29 39 29C40.1046 29 41 29.8954 41 31Z" fill="#324558"/>
</svg>
