<svg width="48" height="48" viewBox="0 0 48 48" fill="none" xmlns="http://www.w3.org/2000/svg">
<path fill-rule="evenodd" clip-rule="evenodd" d="M6 6C4.89543 6 4 6.89543 4 8V15H44V8C44 6.89543 43.1046 6 42 6H6ZM7 10.5C7 9.67157 7.67157 9 8.5 9C9.32843 9 10 9.67157 10 10.5C10 11.3284 9.32843 12 8.5 12C7.67157 12 7 11.3284 7 10.5ZM14.5 9C13.6716 9 13 9.67157 13 10.5C13 11.3284 13.6716 12 14.5 12C15.3284 12 16 11.3284 16 10.5C16 9.67157 15.3284 9 14.5 9ZM19 10.5C19 9.67157 19.6716 9 20.5 9C21.3284 9 22 9.67157 22 10.5C22 11.3284 21.3284 12 20.5 12C19.6716 12 19 11.3284 19 10.5Z" fill="#324558"/>
<path fill-rule="evenodd" clip-rule="evenodd" d="M44 18H4V40C4 41.1046 4.89543 42 6 42H42C43.1046 42 44 41.1046 44 40V18ZM32 24.9998C32 26.6566 30.6569 27.9998 29 27.9998C28.315 27.9998 27.6836 27.7702 27.1786 27.3837L20.9898 29.9624C20.9916 29.9879 20.9932 30.0136 20.9946 30.0393L27.1784 32.6159C27.6835 32.2294 28.3149 31.9998 29 31.9998C30.6569 31.9998 32 33.3429 32 34.9998C32 36.6566 30.6569 37.9998 29 37.9998C27.4737 37.9998 26.2136 36.86 26.0245 35.3851L20.0133 32.8805C19.28 33.7196 18.2019 34.2498 17 34.2498C14.7909 34.2498 13 32.4589 13 30.2498C13 28.0406 14.7909 26.2498 17 26.2498C18.0228 26.2498 18.9559 26.6336 19.6631 27.2651L26.0245 24.6146C26.2135 23.1397 27.4736 21.9998 29 21.9998C30.6569 21.9998 32 23.3429 32 24.9998Z" fill="#324558"/>
</svg>
