<svg width="48" height="48" viewBox="0 0 48 48" fill="none" xmlns="http://www.w3.org/2000/svg">
<path fill-rule="evenodd" clip-rule="evenodd" d="M6 6C4.89543 6 4 6.89543 4 8V15H44V8C44 6.89543 43.1046 6 42 6H6ZM8.5 9C7.67157 9 7 9.67157 7 10.5C7 11.3284 7.67157 12 8.5 12C9.32843 12 10 11.3284 10 10.5C10 9.67157 9.32843 9 8.5 9ZM13 10.5C13 9.67157 13.6716 9 14.5 9C15.3284 9 16 9.67157 16 10.5C16 11.3284 15.3284 12 14.5 12C13.6716 12 13 11.3284 13 10.5ZM20.5 9C19.6716 9 19 9.67157 19 10.5C19 11.3284 19.6716 12 20.5 12C21.3284 12 22 11.3284 22 10.5C22 9.67157 21.3284 9 20.5 9Z" fill="#324558"/>
<path fill-rule="evenodd" clip-rule="evenodd" d="M44 18H4V40C4 41.1046 4.89543 42 6 42H42C43.1046 42 44 41.1046 44 40V18ZM24 22L18 24.7273V28.8182C18 34.1568 22.2927 36.6495 24 37C25.7073 36.6495 30 34.1568 30 28.8182V24.7273L24 22Z" fill="#324558"/>
</svg>
