<svg width="48" height="48" viewBox="0 0 48 48" fill="none" xmlns="http://www.w3.org/2000/svg">
<path d="M28.3199 8.93272C28.8401 10.1293 29.304 11.4952 29.6936 13H18.3064C18.696 11.4952 19.1599 10.1293 19.6802 8.93272C20.4871 7.07666 21.3707 5.76402 22.1995 4.9578C23.0142 4.16519 23.6185 4 24 4C24.3816 4 24.9858 4.16519 25.8006 4.9578C26.6293 5.76402 27.5129 7.07666 28.3199 8.93272Z" fill="#324558"/>
<path d="M32.7844 13H40.706C38.1025 9.05397 34.1384 6.0848 29.4818 4.76057C30.8557 6.83559 31.994 9.66814 32.7844 13Z" fill="#324558"/>
<path d="M32.5327 36H40.0015C37.4127 39.4466 33.7363 42.0296 29.4818 43.2394C30.7161 41.3753 31.7602 38.8997 32.5327 36Z" fill="#324558"/>
<path d="M28.3199 39.0673C28.7224 38.1415 29.0912 37.1144 29.4179 36H18.5821C18.9089 37.1144 19.2777 38.1415 19.6802 39.0673C20.4871 40.9233 21.3707 42.236 22.1995 43.0422C23.0142 43.8348 23.6185 44 24 44C24.3816 44 24.9858 43.8348 25.8006 43.0422C26.6293 42.236 27.5129 40.9233 28.3199 39.0673Z" fill="#324558"/>
<path d="M7.99856 36H15.4673C16.2398 38.8997 17.284 41.3753 18.5182 43.2394C14.2638 42.0296 10.5874 39.4466 7.99856 36Z" fill="#324558"/>
<path d="M18.5182 4.76057C13.8617 6.0848 9.89757 9.05397 7.29407 13H15.2157C16.0061 9.66814 17.1443 6.83559 18.5182 4.76057Z" fill="#324558"/>
<path fill-rule="evenodd" clip-rule="evenodd" d="M4 18C4 16.8954 4.89543 16 6 16H42C43.1046 16 44 16.8954 44 18V31C44 32.1046 43.1046 33 42 33H6C4.89543 33 4 32.1046 4 31V18ZM15.6279 20.27L14.6494 25.6196L13.46 20.27H11.7139L10.542 25.6196L9.56348 20.27H7.51855L9.33496 28.8013H11.4619L12.5811 23.938L13.7236 28.8013H15.8564L17.667 20.27H15.6279ZM27.0176 20.27L26.0391 25.6196L24.8496 20.27H23.1036L21.9317 25.6196L20.9532 20.27H18.9082L20.7246 28.8013H22.8516L23.9707 23.938L25.1133 28.8013H27.2461L29.0567 20.27H27.0176ZM37.4288 25.6196L38.4073 20.27H40.4464L38.6358 28.8013H36.503L35.3604 23.938L34.2413 28.8013H32.1143L30.2979 20.27H32.3429L33.3214 25.6196L34.4932 20.27H36.2393L37.4288 25.6196Z" fill="#324558"/>
</svg>
