<svg width="16" height="16" viewBox="0 0 16 16" fill="none" xmlns="http://www.w3.org/2000/svg">
<g clip-path="url(#clip0_4493_410307)">
<path d="M7.49993 9.4298L3.93676 7.742L6.49996 6L3.99996 3.5L0.666626 5.83333L1.93779 7.15747V12.0961C1.93779 12.3444 2.07574 12.5721 2.29578 12.687L7.49993 15.4055V9.4298Z" fill="#B6C2CD"/>
<path d="M8.49992 9.42983V15.4055L13.7041 12.687C13.9242 12.5721 14.0621 12.3444 14.0621 12.0961V7.15747L15.3333 5.83333L12 3.5L9.49995 6L12.0632 7.742L8.49992 9.42983Z" fill="#B6C2CD"/>
<path d="M8.66663 0.666626H7.33329V2.66663H5.66663L7.99996 5.33329L10.3333 2.66663H8.66663V0.666626Z" fill="#324558"/>
</g>
<defs>
<clipPath id="clip0_4493_410307">
<rect width="16" height="16" rx="1.6" fill="white"/>
</clipPath>
</defs>
</svg>
