<svg xmlns="http://www.w3.org/2000/svg" width="24" height="24" viewBox="0 0 24 24">
  <g fill="none">
    <path fill="#B6C2CD" d="M10.077 17.138a1.994 1.994 0 01-2.826.01l-.008-.008a2.004 2.004 0 01.003-2.833l2.823-2.823-1.412-1.413-2.83 2.83a3.999 3.999 0 00.001 5.655 3.999 3.999 0 005.655.002l2.83-2.83-1.413-1.413-2.823 2.823z"/>
    <path fill="#324558" d="M9.364 13.607l4.243-4.243 1.414 1.414-4.243 4.243z"/>
    <path fill="#B6C2CD" d="M12.868 5.861l-2.796 2.797 1.413 1.413 2.789-2.789c.37-.373.875-.581 1.403-.579a2.012 2.012 0 011.413.592c.781.78.787 2.042.013 2.816L14.314 12.9l1.413 1.413 2.798-2.797a3.94 3.94 0 001.08-3.87 4.043 4.043 0 00-2.868-2.866 3.94 3.94 0 00-3.869 1.081z"/>
  </g>
</svg>
