<svg xmlns="http://www.w3.org/2000/svg" width="24" height="24" viewBox="0 0 24 24">
  <path fill="#324558" fill-rule="evenodd" d="M5.585 15.548a.912.912 0 01-.723-.885V9.794c.031-.443.314-.79.723-.885l4.497-.98L10.553 6h-5.22A3.317 3.317 0 002 9.32v5.754c0 1.834 1.51 3.351 3.333 3.351h5.22l-.471-1.928-4.497-.949zM18.667 6h-5.252l.472 1.929 4.497.98a.912.912 0 01.723.885v4.869c-.032.443-.315.79-.723.885l-4.497.98-.472 1.929h5.252A3.344 3.344 0 0022 15.106V9.32C21.968 7.486 20.49 6 18.667 6zm-8.585 5.976h3.836v.474h-3.836v-.474z"/>
</svg>
