<svg xmlns="http://www.w3.org/2000/svg" width="24" height="24" viewBox="0 0 24 24">
  <g fill="none" fill-rule="evenodd">
    <path fill="#324558" fill-rule="nonzero" d="M7.676 10.37c0 .246.027.445.073.59.053.146.12.305.212.477a.288.288 0 01.047.152c0 .067-.04.133-.126.2l-.417.277a.32.32 0 01-.173.06c-.066 0-.132-.033-.198-.093a2.049 2.049 0 01-.239-.311 5.127 5.127 0 01-.205-.39c-.517.608-1.166.913-1.947.913-.556 0-1-.159-1.325-.477-.324-.318-.49-.742-.49-1.271 0-.563.199-1.02.603-1.365.404-.344.94-.516 1.623-.516.225 0 .456.02.702.053.245.033.496.086.761.146V8.33c0-.503-.106-.854-.311-1.06-.212-.205-.57-.304-1.08-.304-.231 0-.47.026-.715.086s-.483.132-.715.225a1.9 1.9 0 01-.232.086.406.406 0 01-.106.02c-.093 0-.139-.066-.139-.205v-.325c0-.106.013-.185.046-.231a.496.496 0 01.186-.14 3.86 3.86 0 01.834-.298 4.015 4.015 0 011.033-.125c.788 0 1.365.178 1.736.536.364.358.55.9.55 1.63v2.145h.012zm-2.688 1.007c.218 0 .443-.04.682-.119.238-.08.45-.225.629-.424.106-.125.185-.264.225-.423.04-.16.066-.351.066-.577v-.278a5.53 5.53 0 00-.609-.112 4.99 4.99 0 00-.622-.04c-.444 0-.769.086-.987.265-.219.179-.325.43-.325.761 0 .312.08.544.245.702.16.166.391.245.696.245zm5.318.716c-.12 0-.2-.02-.252-.067-.053-.04-.1-.132-.14-.258L8.36 6.65a1.16 1.16 0 01-.06-.265c0-.106.053-.165.159-.165h.649c.126 0 .212.02.258.066.053.04.093.132.133.258l1.112 4.384 1.033-4.384c.033-.132.073-.218.126-.258a.456.456 0 01.265-.066h.53c.126 0 .212.02.265.066.053.04.1.132.126.258L14 10.98l1.146-4.437c.04-.132.086-.218.132-.258a.432.432 0 01.258-.066h.616c.106 0 .166.053.166.165 0 .033-.007.066-.013.106a.942.942 0 01-.047.166l-1.596 5.119c-.04.132-.086.218-.139.258a.424.424 0 01-.252.066h-.57c-.125 0-.211-.02-.264-.066-.053-.046-.1-.132-.126-.265l-1.026-4.271-1.02 4.265c-.033.132-.073.218-.126.264-.053.047-.146.067-.265.067h-.57zm8.51.179c-.345 0-.69-.04-1.02-.12-.331-.08-.59-.165-.762-.265-.106-.06-.179-.125-.205-.185a.467.467 0 01-.04-.185v-.338c0-.14.053-.205.152-.205.04 0 .08.006.12.02.04.013.099.04.165.066.225.099.47.178.729.231.264.053.523.08.788.08.417 0 .741-.073.967-.219a.713.713 0 00.344-.629.645.645 0 00-.179-.463c-.12-.126-.344-.239-.669-.345l-.96-.298c-.483-.152-.841-.377-1.06-.675a1.578 1.578 0 01-.33-.96c0-.279.059-.524.178-.736.12-.212.278-.397.477-.543.199-.152.424-.265.689-.344.265-.08.543-.113.834-.113.146 0 .298.007.444.027.152.02.291.046.43.073.133.033.258.066.378.106.119.04.212.08.278.119a.573.573 0 01.199.165c.04.053.06.126.06.219v.311c0 .14-.054.212-.153.212a.689.689 0 01-.252-.08 3.03 3.03 0 00-1.271-.258c-.378 0-.676.06-.881.186-.205.126-.311.318-.311.59 0 .185.066.344.198.47.133.125.378.251.729.364l.94.298c.477.152.821.364 1.027.635.205.272.304.583.304.928 0 .284-.06.543-.172.768-.12.225-.278.424-.483.583-.206.165-.45.284-.735.37a3.15 3.15 0 01-.947.14z"/>
    <path fill="#B6C2CD" d="M20.067 15.49c-2.179 1.61-5.344 2.464-8.066 2.464-3.815 0-7.252-1.411-9.848-3.755-.205-.186-.02-.437.225-.292 2.808 1.63 6.272 2.616 9.855 2.616 2.417 0 5.073-.503 7.516-1.536.365-.166.676.238.318.503zm.907-1.033c-.278-.358-1.84-.172-2.55-.086-.211.026-.244-.16-.052-.298 1.245-.874 3.291-.623 3.53-.331.238.298-.067 2.344-1.232 3.324-.179.153-.351.073-.272-.126.265-.655.855-2.132.576-2.483z"/>
  </g>
</svg>
