<svg xmlns="http://www.w3.org/2000/svg" width="24" height="24" viewBox="0 0 24 24">
  <g fill="currentColor" fill-rule="evenodd">
    <path d="M11.964 3a8.746 8.746 0 00-3.502.707 8.983 8.983 0 00-2.86 1.928 9.159 9.159 0 00-1.927 2.859A9.142 9.142 0 003 11.964c0 .707.064 1.381.225 2.056.16.643.385 1.285.675 1.896.546 1.092 1.413 2.217 2.41 3.02.642-.354.995-.74 1.092-1.157.064-.385-.097-.835-.547-1.35a6.865 6.865 0 01-1.67-4.465c0-3.727 3.052-6.78 6.779-6.78h.064c3.727 0 6.78 3.053 6.78 6.78a6.76 6.76 0 01-1.671 4.466c-.45.514-.643.964-.547 1.381.097.418.45.804 1.093 1.157.996-.835 1.863-1.928 2.41-3.02.289-.61.514-1.221.674-1.896a8.77 8.77 0 00.225-2.056c0-1.22-.225-2.377-.707-3.502a8.983 8.983 0 00-1.927-2.86 9.159 9.159 0 00-2.86-1.927A8.597 8.597 0 0012.028 3h-.064z"/>
    <path d="M12.028 6.566c.225 0 .482.032.74.065a5.47 5.47 0 012.055.739c.61.385 1.125.867 1.543 1.445.417.61.706 1.285.867 1.992a5.28 5.28 0 01-.032 2.346 5.45 5.45 0 01-.9 1.96c-.128.16-.257.289-.385.45l-.129.16s-.032 0-.032.032c-.482.578-.707 1.157-.707 1.767 0 .932.514 1.8 1.35 2.25-.45.256-.964.481-1.478.642-.16.064-.354.128-.514.16a3.437 3.437 0 01-.804-.803c-.32-.482-.738-1.22-.706-2.249 0-.61.128-1.189.353-1.767a5.03 5.03 0 01.964-1.51l.032-.032c.16-.16.321-.353.45-.578a2.74 2.74 0 00.353-.836c.129-.45.129-.931.032-1.381a3.045 3.045 0 00-.514-1.189 2.899 2.899 0 00-.9-.868 3.295 3.295 0 00-1.22-.45c-.16 0-.29-.031-.45-.031h-.064c-.16 0-.321 0-.45.032a3.295 3.295 0 00-1.22.45 2.899 2.899 0 00-.9.867c-.258.353-.418.771-.515 1.189-.096.45-.064.931.033 1.381.064.29.192.579.353.836.128.192.29.385.45.578l.096.096c.418.45.74.964.964 1.51.225.547.321 1.157.353 1.767.033 1.029-.385 1.8-.706 2.25a3.437 3.437 0 01-.804.803c-.16-.065-.353-.097-.514-.161a8.573 8.573 0 01-1.478-.643 2.559 2.559 0 001.35-2.249c0-.61-.225-1.22-.707-1.767l-.032-.032-.129-.16-.385-.45a5.45 5.45 0 01-.9-1.96 5.256 5.256 0 01-.032-2.345c.16-.707.45-1.382.868-1.992a5.518 5.518 0 011.542-1.446 5.102 5.102 0 012.056-.74c.225-.031.482-.063.739-.063v-.065zm-.032 3.727c.964 0 1.767.771 1.767 1.767 0 .964-.803 1.767-1.767 1.767a1.783 1.783 0 01-1.767-1.767c0-.964.803-1.767 1.767-1.767z"/>
  </g>
</svg>
