<svg xmlns="http://www.w3.org/2000/svg" width="24" height="24" viewBox="0 0 24 24">
  <path fill="currentColor" d="M13.576 5.263c-3.86-1.43-9.508-4.045-9.508-4.045-.4-.106-.457.288-.457.288-.128 1.587.858 4.167 1.368 4.746.508.58 8.147 2.952 8.147 2.952s-5.874-1.205-7.291-1.62c-1.42-.415-.968.462-.968.462.291 1.602 1.657 3.422 2.737 3.593 1.077.171 5.62.104 5.62.104s-.907.106-2.38.309c-1.09.15-2.477.324-2.837.462-.845.325.613 1.625.613 1.625 2.163 1.994 3.311 1.311 3.311 1.311.85-.277 1.568-.48 2.176-.628L13.354 18h2.16l-1.19 4.8 5.241-7.059h-2.744l.569-1.005c.008.013.01.021.01.021s1.948-3.17 2.694-4.787l.015-.026h-.003c.128-.28.22-.512.256-.67.434-1.851-2.924-2.58-6.786-4.011z"/>
</svg>
