<svg xmlns="http://www.w3.org/2000/svg" width="24" height="24" viewBox="0 0 24 24">
  <path fill="#324558" fill-rule="evenodd" d="M18.963 12.473c.67.142 1.368.134 2.037-.022a9.518 9.518 0 01-1.317 4.114c-.453-.529-1-.946-1.62-1.237-.51 1.334-1.086 2.437-1.54 2.75-.453.313-1.684.537-3.08.619a5.14 5.14 0 00.633 2.057 8.857 8.857 0 01-4.145 0 5.177 5.177 0 00.633-2.065c-1.303-.082-2.432-.283-2.915-.61-.482-.329-1.086-1.454-1.605-2.796a4.78 4.78 0 00-1.727 1.29A9.549 9.549 0 013 12.45a4.627 4.627 0 002.166-.008c-.33-1.371-.467-2.586-.259-3.108.209-.521 1.022-1.386 2.059-2.288A4.782 4.782 0 005.094 5.61 9.072 9.072 0 018.534 3a5.08 5.08 0 00.727 2.28c1.145-.774 2.224-1.34 2.822-1.34.597 0 1.605.52 2.706 1.259A5.136 5.136 0 0015.465 3a9.09 9.09 0 013.44 2.616c-.69.298-1.31.76-1.799 1.35 1.08.923 1.944 1.84 2.152 2.377.209.537.043 1.751-.295 3.13zm-6.88-5.627c-.965 0-4.016 2.43-4.354 3.28-.339.85.856 4.755 1.662 5.299.806.544 4.642.514 5.383 0 .742-.514 1.994-4.45 1.663-5.3-.331-.85-3.383-3.279-4.354-3.279zM9.067 11.02c0-.663.518-1.2 1.159-1.2.64 0 1.159.537 1.159 1.2 0 .663-.519 1.2-1.16 1.2-.64 0-1.158-.537-1.158-1.2zm3.613 0c0-.663.518-1.2 1.159-1.2.64 0 1.159.537 1.159 1.2 0 .663-.519 1.2-1.16 1.2-.64 0-1.158-.537-1.158-1.2z"/>
</svg>
