<svg xmlns="http://www.w3.org/2000/svg" width="24" height="24" viewBox="0 0 24 24">
  <path d="M17.6856 9.15618C17.6301 9.15918 17.6166 9.13368 17.6106 9.08118C17.6046 9.02568 17.6076 8.95968 17.5806 8.91618C17.5281 8.83369 17.5431 8.73619 17.4981 8.65069C17.4727 8.60541 17.455 8.55625 17.4456 8.50519C17.4426 8.47519 17.4501 8.43319 17.4291 8.41669C17.3811 8.38219 17.3991 8.32669 17.3691 8.28169C17.3361 8.23369 17.3346 8.16319 17.3091 8.10469C17.2836 8.04319 17.2521 7.9772 17.2461 7.9097C17.2431 7.8767 17.2056 7.8752 17.2071 7.8422C17.2101 7.7867 17.1696 7.7417 17.1561 7.6892C17.1381 7.6187 17.0991 7.5512 17.0721 7.4822C17.0511 7.4267 17.0286 7.3697 17.0031 7.3202C16.9656 7.24521 16.9341 7.16871 16.8906 7.09521C16.8486 7.03071 16.8366 6.94671 16.7916 6.87621C16.7544 6.81754 16.7223 6.75582 16.6956 6.69171C16.6521 6.58971 16.5891 6.50121 16.5396 6.40372C16.492 6.30716 16.4404 6.21259 16.3851 6.12022C16.3326 6.03172 16.2861 5.93872 16.2246 5.85322C16.2006 5.81872 16.1616 5.78422 16.1556 5.74522C16.1466 5.68822 16.1031 5.64772 16.0761 5.61473C16.0386 5.56973 16.0371 5.49023 15.9636 5.47373C15.9636 5.47373 15.9606 5.46623 15.9621 5.46323C15.9681 5.40323 15.8841 5.38673 15.8916 5.32523C15.8271 5.30273 15.8451 5.20823 15.7716 5.19023C15.7716 5.19023 15.7686 5.18423 15.7701 5.18123C15.7761 5.12123 15.7176 5.08823 15.6921 5.04923C15.6589 4.99898 15.6213 4.95179 15.5796 4.90823C15.5601 4.88723 15.5271 4.86923 15.5196 4.84373C15.4941 4.75374 15.4086 4.70874 15.3651 4.63074C15.3246 4.55874 15.2541 4.51074 15.1986 4.45074C15.1452 4.38728 15.0787 4.33611 15.0036 4.30074C14.9331 4.27374 14.8776 4.21674 14.7936 4.21224C14.7066 4.20774 14.6241 4.15674 14.5326 4.15974C14.5326 4.14024 14.5266 4.12524 14.5026 4.12524H5.41126C5.38726 4.12524 5.38126 4.14024 5.38126 4.15974C5.32126 4.15524 5.28826 4.20474 5.26876 4.24074C5.22376 4.32024 5.28826 4.46574 5.37526 4.50024C5.41126 4.51374 5.43076 4.53924 5.45626 4.56324C5.46976 4.57674 5.48176 4.59774 5.50126 4.59474C5.53726 4.59174 5.55376 4.61724 5.56426 4.63824C5.57776 4.66674 5.60326 4.67724 5.62426 4.68774C5.68783 4.72085 5.7464 4.76276 5.79826 4.81224C5.87626 4.88423 5.96326 4.94273 6.04725 5.00423C6.11775 5.05523 6.17475 5.12273 6.25125 5.16473C6.30975 5.19473 6.34125 5.26223 6.39675 5.28923C6.47475 5.32823 6.51825 5.40323 6.59325 5.44223C6.63975 5.46623 6.67575 5.50523 6.70875 5.54423C6.73875 5.57873 6.79274 5.58023 6.81674 5.61473C6.88724 5.71972 7.00724 5.76772 7.08974 5.86222C7.17074 5.95372 7.28474 6.00922 7.36874 6.10522C7.46774 6.22072 7.60273 6.30322 7.71073 6.41122C7.78573 6.48621 7.86223 6.55671 7.93873 6.62871C7.99873 6.68421 8.05873 6.73971 8.11573 6.79821C8.15773 6.84021 8.21173 6.87321 8.25073 6.91071C8.34823 7.00521 8.46072 7.08921 8.52822 7.21071L8.54322 7.22871C8.61822 7.2992 8.69322 7.3697 8.76522 7.4417C8.85522 7.5317 8.94222 7.6277 9.03972 7.7132C9.07991 7.7431 9.11359 7.78086 9.13872 7.8242C9.15822 7.8692 9.19271 7.8992 9.22271 7.9277C9.30521 8.0087 9.39521 8.08369 9.45371 8.18569C9.47771 8.22769 9.52721 8.24269 9.55271 8.28319C9.58571 8.33419 9.63521 8.37019 9.66821 8.42419C9.71621 8.50369 9.79871 8.55919 9.85421 8.64169C9.90821 8.72269 9.98021 8.80069 10.0492 8.86968C10.1272 8.94768 10.1812 9.04368 10.2637 9.11418C10.3072 9.15018 10.3117 9.21918 10.3672 9.24168C10.3957 9.25368 10.4047 9.27768 10.4122 9.29718C10.4422 9.36168 10.4977 9.40668 10.5322 9.46668C10.5667 9.52668 10.6252 9.56418 10.6642 9.62268C10.7362 9.73367 10.8187 9.84017 10.9087 9.93767C10.9372 9.97067 10.9342 10.0217 10.9762 10.0382C11.0392 10.0637 11.0497 10.1312 11.0827 10.1762C11.1247 10.2347 11.1817 10.2842 11.2132 10.3487C11.2462 10.4177 11.3032 10.4687 11.3392 10.5317C11.3722 10.5887 11.4142 10.6397 11.4487 10.6967C11.4742 10.7402 11.4982 10.7897 11.5357 10.8272C11.5762 10.8677 11.5882 10.9292 11.6347 10.9667C11.6767 11.0012 11.6857 11.0567 11.7247 11.0957C11.7652 11.1407 11.7817 11.2067 11.8267 11.2502C11.8657 11.2877 11.8852 11.3387 11.9122 11.3822C11.9317 11.4122 11.9722 11.4302 11.9767 11.4707C11.9812 11.5157 12.0157 11.5427 12.0382 11.5757C12.0727 11.6267 12.1177 11.6777 12.1372 11.7256C12.1732 11.8156 12.2347 11.8846 12.2782 11.9656C12.3292 12.0556 12.3922 12.1456 12.4432 12.2386C12.4822 12.3061 12.5212 12.3736 12.5632 12.4366C12.5812 12.4681 12.5782 12.5101 12.6127 12.5341C12.6547 12.5641 12.6637 12.6151 12.6877 12.6571C12.7087 12.6946 12.7237 12.7396 12.7537 12.7651C12.7777 12.7861 12.7777 12.8056 12.7822 12.8296C12.8182 12.8446 12.8362 12.8161 12.8572 12.7966L13.0252 12.6301L13.3717 12.2881C13.4707 12.1906 13.5622 12.0871 13.6642 11.9926C13.8442 11.8276 14.0092 11.6506 14.1892 11.4842C14.3062 11.3747 14.4111 11.2547 14.5401 11.1572C14.6526 11.0702 14.7471 10.9622 14.8491 10.8617L15.0756 10.6367C15.1536 10.5587 15.2556 10.5077 15.3276 10.4237C15.3335 10.4155 15.3412 10.4088 15.3501 10.4042C15.4251 10.3742 15.4776 10.3127 15.5406 10.2662C15.6141 10.2137 15.6876 10.1612 15.7596 10.1057C15.7956 10.0772 15.8421 10.0637 15.8736 10.0322C15.9636 9.94217 16.0836 9.90167 16.1886 9.83867C16.2996 9.77267 16.4136 9.70817 16.5306 9.65267C16.6131 9.61368 16.6866 9.55068 16.7766 9.53268C16.8801 9.51168 16.9566 9.44118 17.0541 9.41118C17.0841 9.40218 17.1216 9.39918 17.1486 9.37818C17.2056 9.33318 17.2821 9.33318 17.3466 9.30318C17.3766 9.28818 17.4096 9.26868 17.4441 9.26418C17.5221 9.25368 17.5911 9.21768 17.6661 9.19818C17.6871 9.19368 17.7036 9.18168 17.6856 9.15618" fill="currentColor"/>
  <path d="M19.8456 14.6521C19.8231 14.6371 19.8096 14.6566 19.7961 14.6701C19.7556 14.7061 19.7271 14.7541 19.6926 14.7961L19.5201 14.9971C19.4016 15.1276 19.2741 15.2521 19.1451 15.3691C19.0446 15.4606 18.9322 15.5386 18.8242 15.6211C18.7837 15.6511 18.7432 15.6841 18.7012 15.7111C18.6562 15.7426 18.6157 15.7846 18.5662 15.8056C18.4717 15.8461 18.3877 15.9046 18.3007 15.9556C18.1477 16.0395 17.9894 16.1132 17.8267 16.1761C17.7352 16.2136 17.6452 16.2541 17.5507 16.2841C17.4757 16.3081 17.4022 16.3396 17.3257 16.3591C17.3002 16.3651 17.2732 16.3621 17.2492 16.3711C17.1742 16.3996 17.0947 16.4161 17.0167 16.4356C16.9492 16.4536 16.8757 16.4386 16.8172 16.4656C16.7272 16.5076 16.6252 16.4686 16.5412 16.5256C16.4107 16.5241 16.2802 16.5391 16.1497 16.5496C15.9187 16.5676 15.6877 16.5346 15.4567 16.5286C15.3517 16.5256 15.2527 16.4731 15.1462 16.4881C15.1402 16.4881 15.1342 16.4866 15.1297 16.4821C15.0952 16.4551 15.0547 16.4566 15.0157 16.4566C14.9347 16.4566 14.8567 16.4386 14.7802 16.4236C14.7052 16.4086 14.6287 16.3801 14.5552 16.3546C14.5117 16.3396 14.4652 16.3486 14.4262 16.3291C14.3692 16.3017 14.3086 16.2825 14.2462 16.2721C14.1022 16.2421 13.9687 16.1821 13.8232 16.1581C13.7272 16.1416 13.6432 16.0876 13.5472 16.0681C13.4797 16.0531 13.4137 16.0291 13.3492 16.0081C13.2667 15.9811 13.1842 15.9526 13.1002 15.9316C12.9667 15.8956 12.8437 15.8386 12.7132 15.7966C12.5572 15.7456 12.4057 15.6841 12.2497 15.6316C12.1582 15.6016 12.0757 15.5461 11.9767 15.5311C11.9343 15.5238 11.8935 15.5085 11.8567 15.4861C11.7832 15.4441 11.7007 15.4291 11.6257 15.3931C11.5627 15.3631 11.4922 15.3481 11.4307 15.3181C11.3287 15.2656 11.2102 15.2491 11.1172 15.1756C11.1112 15.1711 11.1022 15.1696 11.0947 15.1696C11.0197 15.1621 10.9523 15.1276 10.8878 15.0946C10.7453 15.0256 10.5923 14.9791 10.4528 14.9026C10.3418 14.8411 10.2188 14.8066 10.1078 14.7466C10.0823 14.7406 10.0598 14.7451 10.0328 14.7316C9.98626 14.7091 9.94276 14.6716 9.89476 14.6596C9.80327 14.6341 9.73427 14.5681 9.64427 14.5411C9.59327 14.5261 9.55427 14.4811 9.50627 14.4691C9.44627 14.4541 9.39677 14.4241 9.34877 14.3971C9.26927 14.3521 9.18377 14.3221 9.10427 14.2726C9.06077 14.2456 9.00378 14.2366 8.96628 14.2051C8.90928 14.1571 8.82078 14.1601 8.78178 14.0881C8.68578 14.0806 8.62128 14.0071 8.53878 13.9726C8.44128 13.9321 8.35278 13.8706 8.25978 13.8181C8.22078 13.7956 8.18478 13.7551 8.14729 13.7476C8.04529 13.7266 7.97629 13.6546 7.89229 13.6096C7.79412 13.5581 7.69896 13.501 7.60729 13.4386C7.59229 13.4296 7.56979 13.4311 7.55929 13.4191C7.49929 13.3516 7.41379 13.3171 7.34029 13.2721C7.26724 13.229 7.19473 13.185 7.1228 13.1401C7.0343 13.0846 6.9428 13.0291 6.8588 12.9691C6.8033 12.9286 6.7328 12.9046 6.6848 12.8581C6.6488 12.8251 6.6053 12.8131 6.56931 12.7831C6.50331 12.7291 6.42681 12.6856 6.35481 12.6361C6.32181 12.6136 6.27831 12.5926 6.25581 12.5686C6.21231 12.5206 6.15381 12.4966 6.10731 12.4576C6.03831 12.3991 5.95131 12.3586 5.88231 12.2971C5.84181 12.2611 5.78181 12.2551 5.75181 12.2041C5.74132 12.1846 5.72182 12.1711 5.69482 12.1636C5.64982 12.1516 5.61832 12.1141 5.58082 12.0886C5.52532 12.0511 5.47582 12.0001 5.41882 11.9611C5.34982 11.9146 5.28982 11.8531 5.21932 11.8111C5.14282 11.7646 5.08882 11.6926 5.01232 11.6491C4.96582 11.6206 4.93733 11.5681 4.89233 11.5471C4.81133 11.5111 4.76333 11.4406 4.68983 11.3971C4.63283 11.3611 4.59383 11.2936 4.53383 11.2621C4.46333 11.2246 4.42133 11.1586 4.35833 11.1151C4.34033 11.1016 4.31933 11.1001 4.30283 11.0791C4.26233 11.0296 4.20683 10.9936 4.16033 10.9501C4.11084 10.9051 4.04934 10.8751 4.00434 10.8211C3.96834 10.7821 3.92934 10.7296 3.88434 10.7116C3.81534 10.6861 3.78534 10.6246 3.73134 10.5856C3.66384 10.5376 3.61434 10.4686 3.54834 10.4161C3.50634 10.3831 3.45834 10.3561 3.42534 10.3141C3.37584 10.2511 3.31285 10.1986 3.25585 10.1446C3.18085 10.0711 3.10885 9.99465 3.03085 9.92415C2.97085 9.87015 2.91535 9.81015 2.85385 9.75615C2.79685 9.70515 2.74585 9.64815 2.68885 9.59715C2.61385 9.52815 2.54486 9.45015 2.47286 9.37665C2.40236 9.30165 2.32586 9.23266 2.25686 9.15616C2.19686 9.08866 2.13686 9.00616 2.01986 9.03166C1.96286 9.04366 1.93586 9.07966 1.91486 9.12616C1.85636 9.13216 1.88036 9.17716 1.88036 9.20266V17.697C1.88036 17.7315 1.88336 17.7645 1.88186 17.7975C1.88186 17.823 1.89086 17.835 1.91486 17.8365C1.89986 17.9145 1.95236 17.9775 1.96436 18.0495C1.97186 18.1005 2.00486 18.144 2.02436 18.192C2.05286 18.258 2.10836 18.3135 2.14736 18.3765C2.18245 18.4299 2.22723 18.4762 2.27936 18.513C2.33336 18.552 2.38886 18.594 2.44736 18.6285C2.51636 18.6675 2.58235 18.717 2.64685 18.762C2.66635 18.774 2.68885 18.777 2.70985 18.7965C2.76985 18.8505 2.84635 18.891 2.91985 18.9285C2.96935 18.954 3.01585 18.9885 3.06985 19.011C3.18985 19.0605 3.29185 19.1505 3.41484 19.1985C3.48384 19.224 3.53634 19.2735 3.60684 19.2945C3.62334 19.3005 3.64284 19.302 3.65634 19.311C3.75534 19.38 3.86784 19.419 3.97434 19.473C3.99684 19.485 4.02534 19.485 4.04334 19.5C4.10023 19.5446 4.16719 19.5744 4.23833 19.587C4.25033 19.59 4.26233 19.5915 4.27583 19.602C4.30583 19.6245 4.34333 19.641 4.37783 19.6605C4.41683 19.683 4.46783 19.6695 4.50383 19.7085C4.51733 19.7235 4.54883 19.743 4.57433 19.7475C4.67933 19.767 4.77683 19.8165 4.87433 19.8555C4.90433 19.8675 4.94333 19.8555 4.96432 19.878C5.00332 19.9185 5.05882 19.917 5.10382 19.938C5.16982 19.9665 5.23882 19.989 5.31232 20.007C5.34382 20.0145 5.38732 20.0085 5.40682 20.0295C5.44432 20.0715 5.50132 20.0745 5.54182 20.085C5.64982 20.1105 5.75481 20.145 5.85981 20.181C5.94381 20.211 6.03831 20.217 6.12681 20.244C6.20181 20.265 6.27681 20.289 6.35181 20.3025C6.38631 20.3085 6.43731 20.295 6.45681 20.313C6.51381 20.37 6.5918 20.337 6.6563 20.3685C6.7193 20.3985 6.8063 20.4105 6.8873 20.4045C6.9023 20.403 6.9248 20.4 6.9323 20.4075C6.9923 20.4675 7.0853 20.4075 7.1423 20.469C7.2773 20.481 7.41229 20.487 7.54429 20.526C7.62979 20.5515 7.72429 20.538 7.81429 20.559C7.92379 20.5845 8.04229 20.577 8.15629 20.589C8.23128 20.595 8.30478 20.592 8.37828 20.5935C8.37828 20.6175 8.39178 20.6265 8.41578 20.625H10.0358C10.0598 20.625 10.0733 20.6175 10.0733 20.5935C10.2533 20.6025 10.4303 20.5605 10.6088 20.5665H10.7078C10.7318 20.568 10.7453 20.559 10.7438 20.5335C10.8243 20.5288 10.9045 20.5188 10.9838 20.5035C11.1097 20.478 11.2417 20.484 11.3677 20.4435C11.4307 20.4225 11.5027 20.4255 11.5702 20.409C11.6482 20.391 11.7307 20.37 11.8162 20.376C11.8252 20.376 11.8402 20.376 11.8447 20.3715C11.8867 20.316 11.9572 20.3415 12.0127 20.316C12.0742 20.2896 12.1409 20.2778 12.2077 20.2815C12.2167 20.2815 12.2287 20.2815 12.2377 20.277C12.2967 20.2432 12.3621 20.2222 12.4297 20.2155C12.5205 20.2021 12.6095 20.179 12.6952 20.1465C12.7591 20.1234 12.8248 20.1058 12.8917 20.094C12.9067 20.091 12.9232 20.091 12.9307 20.082C12.9682 20.043 13.0237 20.0415 13.0657 20.0295C13.1527 20.007 13.2352 19.974 13.3207 19.9485C13.3492 19.941 13.3822 19.95 13.4062 19.9335C13.4723 19.8869 13.5483 19.8561 13.6282 19.8435C13.6417 19.842 13.6537 19.8405 13.6657 19.8315C13.7047 19.8075 13.7407 19.779 13.7902 19.773C13.8592 19.7655 13.9252 19.731 13.9852 19.701C14.0362 19.6755 14.0932 19.656 14.1457 19.629C14.1862 19.608 14.2297 19.5825 14.2792 19.5735C14.3497 19.5615 14.3962 19.5 14.4682 19.485C14.5223 19.4717 14.5739 19.4499 14.6212 19.4205C14.6977 19.377 14.7772 19.341 14.8552 19.3035C14.9047 19.278 14.9617 19.257 15.0022 19.227C15.0635 19.1846 15.1288 19.1485 15.1972 19.119C15.2842 19.08 15.3607 19.0245 15.4477 18.987C15.5227 18.9525 15.5902 18.897 15.6652 18.855C15.7027 18.834 15.7372 18.801 15.7732 18.783C15.8143 18.7614 15.8543 18.7379 15.8932 18.7125C15.9442 18.678 16.0042 18.657 16.0477 18.6135C16.0867 18.5745 16.1392 18.561 16.1797 18.525C16.2277 18.4845 16.2922 18.465 16.3372 18.42C16.3522 18.405 16.3612 18.39 16.3822 18.39C16.3938 18.3888 16.4049 18.3847 16.4146 18.3781C16.4242 18.3716 16.4322 18.3628 16.4377 18.3525C16.4519 18.3297 16.4729 18.3119 16.4977 18.3015C16.5682 18.276 16.6057 18.2085 16.6717 18.1755C16.7122 18.156 16.7467 18.1185 16.7842 18.0915C16.8487 18.0465 16.9102 17.9985 16.9717 17.9505C17.0062 17.9235 17.0362 17.877 17.0707 17.8665C17.1457 17.8425 17.1682 17.7615 17.2387 17.7315C17.2628 17.7194 17.2846 17.7032 17.3032 17.6836C17.3572 17.6236 17.4232 17.5756 17.4832 17.5171C17.5207 17.4781 17.5717 17.4601 17.6077 17.4181C17.6502 17.3663 17.6974 17.3186 17.7487 17.2756C17.7937 17.2396 17.8357 17.1976 17.8747 17.1556L18.0997 16.9321C18.1747 16.8601 18.2452 16.7866 18.3202 16.7161C18.3647 16.6731 18.4049 16.6259 18.4402 16.5751C18.4788 16.5219 18.5242 16.474 18.5752 16.4326C18.6142 16.4011 18.6262 16.3531 18.6622 16.3201C18.7158 16.2763 18.7619 16.2241 18.7987 16.1656C18.8392 16.0966 18.9082 16.0531 18.9457 15.9826C18.9726 15.9316 19.0251 15.8986 19.0566 15.8476C19.0881 15.7936 19.1316 15.7456 19.1721 15.6976C19.2171 15.6436 19.2681 15.5866 19.2981 15.5266C19.3296 15.4621 19.3866 15.4216 19.4181 15.3571C19.451 15.2979 19.4897 15.2421 19.5336 15.1906C19.5636 15.1531 19.5816 15.1111 19.6071 15.0721C19.6461 15.0121 19.6881 14.9536 19.7301 14.8951C19.7466 14.8696 19.7496 14.8426 19.7721 14.8171C19.8126 14.7751 19.8576 14.7241 19.8471 14.6551" fill="currentColor"/>
  <path d="M22.8456 9.54469C22.8366 9.53419 22.8276 9.53419 22.8156 9.53119C22.7826 9.52069 22.7451 9.51319 22.7151 9.49519C22.6822 9.47181 22.647 9.45171 22.6101 9.4352C22.5546 9.4127 22.4901 9.4052 22.4436 9.3722C22.3791 9.3227 22.2981 9.3242 22.2291 9.2882C22.1803 9.2617 22.1277 9.24297 22.0731 9.2327C22.0311 9.2252 21.9876 9.2057 21.9471 9.1937C21.8916 9.1757 21.8331 9.1562 21.7761 9.1412C21.6866 9.11934 21.5981 9.09382 21.5106 9.0647C21.4505 9.04128 21.3861 9.03055 21.3216 9.0332C21.3066 8.9717 21.2571 9.0077 21.2226 9.0002C21.1777 9.0002 21.1357 8.9777 21.0937 8.9702C20.9572 8.9462 20.8177 8.9417 20.6797 8.9102C20.5702 8.8862 20.4517 8.8997 20.3377 8.8832C20.2702 8.8742 20.2027 8.8802 20.1337 8.8787C20.1337 8.8517 20.1202 8.8457 20.0962 8.8457H19.4377C19.4137 8.8457 19.4002 8.8532 19.4002 8.8787C19.2322 8.8697 19.0672 8.9072 18.8992 8.9057H18.8002C18.7762 8.9042 18.7657 8.9147 18.7642 8.9372C18.6682 8.9282 18.5782 8.9702 18.4822 8.9642C18.4764 8.96407 18.4706 8.96563 18.4657 8.9687C18.3922 9.0197 18.3022 9.0017 18.2227 9.0287C18.1597 9.0497 18.0832 9.0467 18.0232 9.0692C17.9752 9.0857 17.9212 9.0992 17.8732 9.1187C17.8142 9.1449 17.7502 9.15771 17.6857 9.1562C17.6872 9.1682 17.6902 9.1832 17.6737 9.1847C17.6362 9.1877 17.6017 9.2072 17.5687 9.2147C17.4697 9.2402 17.3767 9.2777 17.2807 9.3107C17.1967 9.3407 17.1187 9.3857 17.0362 9.4052C16.9417 9.4277 16.8757 9.50269 16.7767 9.51469C16.746 9.5166 16.7164 9.52698 16.6912 9.54469C16.6642 9.5684 16.6332 9.58718 16.5997 9.60019C16.5466 9.61779 16.4962 9.64252 16.4497 9.67369C16.3807 9.71869 16.3057 9.74869 16.2397 9.79369C16.2142 9.81169 16.1722 9.80419 16.1602 9.82369C16.1122 9.90769 16.0132 9.90919 15.9457 9.96169C15.8737 10.0172 15.7882 10.0592 15.7162 10.1132C15.6562 10.1582 15.5932 10.2002 15.5362 10.2482C15.4612 10.3127 15.3802 10.3712 15.3007 10.4282C15.2587 10.4582 15.2332 10.5137 15.1897 10.5272C15.1207 10.5512 15.0847 10.6082 15.0397 10.6502C14.9947 10.6952 14.9437 10.7417 14.8987 10.7897C14.8297 10.8602 14.7562 10.9262 14.6842 10.9952C14.6302 11.0462 14.5837 11.1107 14.5237 11.1497C14.4337 11.2097 14.3677 11.2892 14.2927 11.3597C14.2177 11.4302 14.1427 11.5037 14.0707 11.5772C13.9867 11.6627 13.8937 11.7392 13.8142 11.8277C13.7452 11.9057 13.6657 11.9732 13.5922 12.0452C13.5172 12.1187 13.4467 12.1967 13.3672 12.2672C13.2901 12.3379 13.216 12.412 13.1453 12.4892C13.0883 12.5492 13.0283 12.6077 12.9683 12.6647C12.9083 12.7217 12.8573 12.7892 12.7823 12.8297C12.7748 12.8657 12.7448 12.8807 12.7178 12.8987C12.6398 12.9482 12.5783 13.0156 12.5108 13.0786C12.4658 13.1191 12.4298 13.1731 12.3788 13.2016C12.2948 13.2466 12.2348 13.3216 12.1598 13.3756C12.0698 13.4416 11.9768 13.5091 11.8973 13.5886C11.8583 13.6261 11.7983 13.6321 11.7728 13.6816C11.7518 13.7236 11.6978 13.7146 11.6723 13.7476C11.6198 13.8181 11.5343 13.8466 11.4713 13.9036C11.4338 13.9381 11.3813 13.9666 11.3363 13.9936C11.3078 14.0086 11.2763 14.0191 11.2523 14.0416C11.1935 14.0943 11.1285 14.1396 11.0588 14.1766C11.0288 14.1946 10.9883 14.2066 10.9658 14.2321C10.9238 14.2771 10.8653 14.2981 10.8173 14.3371C10.7696 14.3772 10.7159 14.4095 10.6583 14.4331C10.5833 14.4616 10.5263 14.5141 10.4573 14.5486C10.3643 14.5936 10.2773 14.6491 10.1858 14.6941C10.1618 14.7061 10.1213 14.7136 10.1078 14.7466C10.1078 14.7676 10.1168 14.7736 10.1348 14.7841C10.1753 14.8081 10.2203 14.8141 10.2608 14.8306C10.3268 14.8606 10.3898 14.8981 10.4558 14.9251C10.5188 14.9506 10.5713 14.9941 10.6463 15.0001C10.6804 15.0064 10.712 15.022 10.7378 15.0451C10.7828 15.0841 10.8398 15.0991 10.8878 15.1171C10.9298 15.1321 10.9703 15.1591 11.0183 15.1681C11.0483 15.1741 11.0888 15.1726 11.1128 15.1906C11.1548 15.2236 11.2028 15.2416 11.2478 15.2686C11.2778 15.2866 11.3183 15.2626 11.3363 15.2896C11.3618 15.3271 11.4083 15.3331 11.4368 15.3436C11.5223 15.3736 11.6018 15.4081 11.6858 15.4426C11.7578 15.4726 11.8313 15.4936 11.9018 15.5326C11.9603 15.5641 12.0383 15.5656 12.1058 15.5941C12.1313 15.6061 12.1448 15.6301 12.1733 15.6331C12.2382 15.6372 12.3013 15.6562 12.3578 15.6886C12.3758 15.7006 12.3953 15.7216 12.4178 15.7261C12.4838 15.7396 12.5483 15.7561 12.6128 15.7831C12.6728 15.8071 12.7358 15.8341 12.7988 15.8431C12.8333 15.8476 12.8408 15.8821 12.8738 15.8821C12.9323 15.8821 12.9788 15.9196 13.0343 15.9316C13.1093 15.9496 13.1827 15.9766 13.2562 15.9991C13.2727 16.0036 13.3012 15.9961 13.3087 16.0051C13.3537 16.0651 13.4287 16.0351 13.4887 16.0651C13.5532 16.0981 13.6387 16.1131 13.7137 16.1386C13.7812 16.1626 13.8487 16.1881 13.9207 16.1911C13.9327 16.1911 13.9432 16.1941 13.9537 16.2016C14.0017 16.2316 14.0572 16.2481 14.1127 16.2616C14.1391 16.267 14.1656 16.2715 14.1922 16.2751C14.2402 16.2826 14.2792 16.3156 14.3257 16.3186C14.3947 16.3216 14.4532 16.3636 14.5252 16.3666C14.5522 16.3681 14.5972 16.3636 14.6197 16.3861C14.6662 16.4326 14.7322 16.4296 14.7847 16.4431C14.8987 16.4731 15.0202 16.4656 15.1372 16.5046C15.2047 16.5286 15.2812 16.5196 15.3562 16.5376C15.4762 16.5646 15.6067 16.5556 15.7342 16.5631C15.9697 16.5781 16.2067 16.5721 16.4407 16.5451C16.5007 16.5376 16.5562 16.5346 16.6147 16.5196C16.6983 16.4981 16.7836 16.4841 16.8697 16.4776C16.9432 16.4716 17.0107 16.4401 17.0857 16.4476C17.091 16.4475 17.0962 16.446 17.1007 16.4431C17.1652 16.4026 17.2402 16.4026 17.3077 16.3801C17.3557 16.3651 17.4127 16.3666 17.4532 16.3426C17.4952 16.3171 17.5414 16.2994 17.5897 16.2901C17.6647 16.2781 17.7172 16.2151 17.7937 16.2211C17.7967 16.2211 17.7997 16.2166 17.8027 16.2151C17.8537 16.1761 17.9167 16.1551 17.9737 16.1356C18.0357 16.1143 18.0963 16.0893 18.1552 16.0606C18.2332 16.0216 18.3082 15.9706 18.3847 15.9256C18.4072 15.9121 18.4402 15.9316 18.4567 15.8956C18.4687 15.8656 18.4972 15.8506 18.5317 15.8431C18.5707 15.8326 18.6157 15.8176 18.6322 15.7726C18.6397 15.7531 18.6547 15.7516 18.6697 15.7531C18.68 15.7534 18.6901 15.7509 18.6991 15.7459C18.7081 15.7409 18.7155 15.7335 18.7207 15.7246C18.7687 15.6526 18.8512 15.6196 18.9172 15.5716C18.9862 15.5236 19.0402 15.4591 19.1122 15.4156C19.1977 15.3661 19.2592 15.2866 19.3282 15.2176C19.3867 15.1576 19.4422 15.0961 19.5037 15.0421C19.5517 15.0001 19.5742 14.9431 19.6222 14.9011C19.6552 14.8711 19.7077 14.8411 19.7212 14.7961C19.7422 14.7256 19.7992 14.6971 19.8472 14.6536C19.8644 14.6171 19.8895 14.5848 19.9207 14.5591L19.9387 14.5306C19.9642 14.5156 19.9507 14.4781 19.9777 14.4616C20.0257 14.4301 20.0437 14.3716 20.0647 14.3266C20.0977 14.2576 20.1382 14.1901 20.1772 14.1256C20.2192 14.0551 20.2447 13.9771 20.2972 13.9111C20.3362 13.8601 20.3617 13.7926 20.3902 13.7326C20.4412 13.6276 20.4937 13.5241 20.5492 13.4221C20.5822 13.3621 20.6137 13.2991 20.6422 13.2361C20.6707 13.1701 20.7082 13.1086 20.7382 13.0457C20.7682 12.9797 20.8102 12.9197 20.8342 12.8552C20.8642 12.7757 20.9092 12.7082 20.9437 12.6317C20.9542 12.6047 20.9512 12.5717 20.9707 12.5522C21.0092 12.51 21.0379 12.4598 21.0547 12.4052C21.0847 12.3257 21.1522 12.2642 21.1597 12.1757L21.1656 12.1727C21.1956 12.1502 21.2061 12.1127 21.2226 12.0812C21.2496 12.0317 21.2616 11.9732 21.2946 11.9282C21.3456 11.8562 21.3756 11.7752 21.4146 11.6987C21.4401 11.6507 21.4596 11.5967 21.4866 11.5532C21.5316 11.4827 21.5616 11.4032 21.6036 11.3327C21.6337 11.2827 21.6588 11.23 21.6786 11.1752C21.6921 11.1392 21.7176 11.1032 21.7401 11.0702C21.7806 11.0072 21.8091 10.9352 21.8616 10.8797C21.8841 10.8557 21.8826 10.8227 21.9096 10.7957C21.9546 10.7507 21.9786 10.6907 22.0146 10.6382C22.0416 10.5992 22.0596 10.5512 22.0911 10.5212C22.1511 10.4642 22.1961 10.3937 22.2366 10.3292C22.2771 10.2647 22.3296 10.2062 22.3761 10.1507C22.4526 10.0577 22.5351 9.96619 22.6191 9.87619C22.6953 9.79531 22.7713 9.71431 22.8471 9.63319C22.8921 9.58669 22.8801 9.57619 22.8471 9.54319" fill="currentColor"/>
</svg>
