<svg xmlns="http://www.w3.org/2000/svg" width="24" height="24" viewBox="0 0 24 24">
  <path fill="#324558" fill-rule="evenodd" d="M20.644 11.19l-7.852-7.85a1.158 1.158 0 00-1.638 0L9.33 5.163l1.373 1.372a1.686 1.686 0 012.248 2.248l2.247 2.247a1.686 1.686 0 11-.795.795l-2.247-2.247a1.56 1.56 0 01-.164.068v4.688a1.686 1.686 0 11-1.124 0V9.647a1.686 1.686 0 01-.96-2.317L8.536 5.958l-5.197 5.195a1.158 1.158 0 000 1.638l7.852 7.851a1.158 1.158 0 001.639 0l7.814-7.814a1.158 1.158 0 000-1.638z"/>
</svg>
