<svg xmlns="http://www.w3.org/2000/svg" width="24" height="24" viewBox="0 0 24 24">
  <path fill="#324558" d="M12 3.002a9 9 0 00-2.846 17.539c.45.083.616-.196.616-.433 0-.215-.01-.924-.013-1.675-2.504.544-3.031-1.062-3.031-1.062-.41-1.04-1-1.317-1-1.317-.816-.56.063-.547.063-.547.903.063 1.379.927 1.379.927.803 1.376 2.106.977 2.619.748.08-.582.314-.979.571-1.204-1.999-.227-4.1-.999-4.1-4.448 0-.982.352-1.785.927-2.415-.094-.227-.402-1.142.086-2.381 0 0 .756-.242 2.476.922a8.62 8.62 0 012.252-.303 8.655 8.655 0 012.255.303c1.718-1.164 2.472-.922 2.472-.922.49 1.24.183 2.155.09 2.381.576.63.925 1.433.925 2.415 0 3.457-2.106 4.218-4.11 4.44.324.28.612.827.612 1.666 0 1.204-.01 2.174-.01 2.47 0 .24.161.52.618.432A9 9 0 0012.001 3l-.002.002z"/>
</svg>
