<svg xmlns="http://www.w3.org/2000/svg" width="24" height="24" viewBox="0 0 24 24">
  <g fill="none" fill-rule="evenodd">
    <path fill="#B6C2CD" d="M7.732 9.713s.275-.65.937-.65c.223.004.576.255.663.4l-.394.883c-.057.132-.249.544-.249.544s-.836.02-.957-.646c-.057-.377-.02-.442 0-.53z"/>
    <path fill="#324558" d="M18.245 5.468c-.312-.333-.832-.998-1.556-2.303a.308.308 0 00-.296-.162.314.314 0 00-.274.198c-.486 1.196-2.39 3.783-2.415 3.817l-.163.235a.315.315 0 00-.048.247c.088.41.496.598 1.038.474.176-.042.286-.068 1.831-3.53.293.713.809 1.807 1.505 2.67 1.063 1.24 1.745 1.502 2.13 1.502a.593.593 0 00.28-.06.317.317 0 00.168-.28c.001-.41-2.18-2.784-2.2-2.808zM10.933 4.05c-.015-.118-.076-.235-.189-.275-.112-.039-.218-.028-.305.055-.052.03-.302.142-1.392.549l-.312.112c-.503.181-1.347.484-1.75.687-.582.293-.688.611-.706.702a.315.315 0 00.137.327c.137.09.32.133.564.133.464 0 1.032-.163 1.025-.163.682-.112 1.553-.721 2.16-1.172-.036.441-.136 1.144-.372 2.258l-.018.09a.317.317 0 00.174.347.958.958 0 00.41.097.88.88 0 00.672-.329.317.317 0 00.07-.183c.064-1.33-.16-3.157-.168-3.235zm1.37 9.88c-.364 0-.634-.085-.723-.113-.627-.191-1.7-1.062-1.248-2.974.039-.134.336-1.105.765-1.64.024-.032.839-1.114 2.04-1.114.348 0 .69.091 1.02.27.545.323.939.863 1.09 1.49.134.554.146 1.447-.555 2.56-.793 1.257-1.737 1.52-2.389 1.52zm.834-4.944c-.746 0-1.326.758-1.331.766-.282.352-.534 1.072-.609 1.322-.366 1.557.607 1.875.648 1.887.058.018.23.072.458.072.62 0 1.169-.371 1.63-1.102.423-.672.577-1.319.443-1.871a1.466 1.466 0 00-.662-.922 1.2 1.2 0 00-.577-.152z"/>
    <path fill="#B6C2CD" d="M11.752 11.222c0 .516.226.992.592 1.25.366.257.817.257 1.184 0 .366-.258.591-.734.591-1.25 0-.515-.225-.991-.591-1.25a1.003 1.003 0 00-1.184 0c-.366.259-.592.735-.592 1.25z"/>
    <path fill="#324558" d="M16.081 15.087c-.268-.328-.61-.608-1.076-.88l-.228-.134-.242.103a4.137 4.137 0 01-.456.161c-1.038.314-3.317 1.005-4.684 1.866a8.11 8.11 0 01-.998-2.336l-.123-.48-.487.093c-2.56.492-4.419 2.467-4.496 2.551l-.28.3.223.345c1.903 2.941 5.49 4.04 7.325 4.227.317.022.613.032.89.032 2.354 0 3.359-.742 3.898-1.14l.19-.139c.77-.582 1.132-1.346 1.037-2.182.083-.122.14-.26.165-.406.118-.628-.242-1.472-.658-1.98zm-.67 1.972l.09.385c.12.518-.082.98-.578 1.355l-.204.147c-.472.35-1.263.934-3.27.934-.254 0-.525-.01-.8-.028-1.45-.147-4.534-1.047-6.283-3.396.527-.479 1.695-1.418 3.15-1.83.526 1.67 1.317 2.608 1.353 2.65l.334.39.399-.322c1.088-.88 3.773-1.693 4.778-1.998.105-.031.207-.064.306-.1a2.5 2.5 0 01.58.507c.342.42.488.995.483 1.082l-.338.224z"/>
    <path fill="#324558" d="M17.462 10.874c-.384-2.556-2.475-4.254-5.35-4.327-1.244.023-2.3.395-3.138 1.104l-.898.76 1.165.166.047.007c-.384.412-.873 1.022-1.095 1.65-.148.41-.314.813-.497 1.208l-.617-.381-.012.933c0 .107.002.202.007.264.193 3.149 1.733 4.95 1.798 5.024l.334.384.395-.32c1.087-.88 3.773-1.693 4.776-1.997 2.765-.797 3.228-3.265 3.085-4.475zm-3.383 3.462c-1.038.315-3.32 1.006-4.687 1.868-.367-.568-.996-1.747-1.21-3.424l.013.004.202-.378s.223-.418.483-1.03c.1-.238.206-.505.307-.788.242-.686 1.035-1.475 1.32-1.722l.222-.194-.048-.291c-.025-.152-.108-.283-.266-.41a4.162 4.162 0 011.692-.37c1.842.048 3.942.974 4.308 3.413.014.104.274 2.57-2.336 3.322z"/>
    <path fill="#324558" d="M10.56 8.412c-.039-.232-.254-.416-.738-.632-1.164-.536-3.077.462-3.358 2.432-.218 1.54.784 2.223 1.344 2.37l.323.083.157-.293s.222-.414.479-1.023c.1-.235.205-.501.304-.782.301-.852 1.338-1.756 1.348-1.765l.18-.156-.039-.234zm-2.286 1.874c-.16.452-.345.895-.552 1.328-.24-.18-.526-.55-.423-1.283.156-1.096 1.077-1.86 1.804-1.86a.87.87 0 01.363.076c-.388.399-.951 1.058-1.192 1.74z"/>
  </g>
</svg>
