<svg xmlns="http://www.w3.org/2000/svg" width="24" height="24" viewBox="0 0 24 24">
  <path fill="#324558" d="M3 11.998a9 9 0 009 9.001 9 9 0 009-9.001C21 7.028 16.97 3 12 3s-9 4.028-9 8.998zm9.85-3.194h2.736V6.109h.864v2.695h2.722v.863H16.45v2.735h-.864V9.667h-2.737v-.863zm-5.587 2.902a2.178 2.178 0 01-1.21-1.24 2.277 2.277 0 01-.159-.828c0-.335.077-.673.23-1.015.154-.341.385-.646.692-.916.413-.334.847-.551 1.303-.646a6.272 6.272 0 011.275-.145h2.966l-.922.519h-.892c.086.066.187.154.302.266a2.492 2.492 0 01.605.958c.076.21.115.45.115.72 0 .268-.034.505-.1.705a1.99 1.99 0 01-.274.542 2.71 2.71 0 01-.39.43 5.89 5.89 0 01-.446.367 4.054 4.054 0 00-.273.302.615.615 0 00-.13.404.53.53 0 00.13.381c.086.092.168.17.245.24l.518.4c.154.135.305.27.454.404.148.134.278.279.389.433.11.154.199.325.266.519a2.194 2.194 0 01-.144 1.654 2.624 2.624 0 01-.72.874 3.82 3.82 0 01-1.188.617c-.476.16-1.02.24-1.635.24-.518 0-.972-.06-1.36-.175a3.128 3.128 0 01-.972-.46 1.898 1.898 0 01-.576-.656 1.678 1.678 0 01-.188-.771c0-.26.08-.552.238-.883.158-.332.449-.624.871-.873.22-.135.459-.243.713-.325a7.059 7.059 0 011.462-.296c.22-.016.412-.033.576-.043a4.591 4.591 0 01-.296-.423 1.044 1.044 0 01-.136-.555c0-.125.014-.226.043-.308.029-.082.062-.168.1-.253-.076.01-.153.016-.23.023a5.381 5.381 0 01-.23.006c-.384 0-.725-.065-1.022-.193zm.662-4.186a1.258 1.258 0 00-.699.85 2.459 2.459 0 00-.064.562c0 .24.036.509.107.807.073.296.183.575.332.834.148.26.336.48.561.657.226.177.492.266.8.266a1.446 1.446 0 00.979-.405c.163-.163.264-.344.302-.547.039-.2.058-.368.058-.503 0-.259-.039-.541-.116-.85a3.417 3.417 0 00-.345-.863 2.277 2.277 0 00-.569-.67 1.234 1.234 0 00-.785-.266c-.192 0-.379.043-.561.128zm1.267 6.293c-.029 0-.096.003-.201.007-.106.006-.23.016-.375.03a4.021 4.021 0 00-.46.072 5.353 5.353 0 00-.476.121c-.077.03-.185.075-.324.138a1.698 1.698 0 00-.763.7c-.101.17-.151.386-.151.646 0 .518.227.942.684 1.267.456.328 1.072.489 1.85.489.691 0 1.217-.144 1.577-.437.36-.295.54-.666.54-1.116 0-.184-.031-.348-.094-.499a1.605 1.605 0 00-.28-.436 3.272 3.272 0 00-.49-.45 31.335 31.335 0 00-.706-.515.927.927 0 00-.151-.017h-.18z"/>
</svg>
