<svg xmlns="http://www.w3.org/2000/svg" width="24" height="24" viewBox="0 0 24 24">
  <path fill="#324558" fill-rule="evenodd" d="M5.314 20.795h-.722a2.965 2.965 0 01-.052-.146c-.16-.494-.44-1.104-.513-1.596-.108-.728.578-.769 1.018-1.084.678-.49 1.211-.76 1.946-1.2.218-.132.875-.462.948-.614.15-.302-.255-.727-.362-.964a2.943 2.943 0 01-.279-1.062 2.075 2.075 0 01-1.365-.877c-.467-.685-.79-1.952-.39-2.915.034-.077.189-.226.212-.343.044-.23-.078-.533-.09-.777-.044-1.253.211-2.333 1.056-2.71.343-1.363 1.565-1.818 2.72-2.494.43-.254.907-.416 1.4-.598 1.757-.65 4.464-.527 5.921.58.62.469 1.612 1.46 1.967 2.177.935 1.892.867 5.055.213 7.358-.09.311-.216.764-.395 1.135-.124.258-.51.778-.463 1.007.048.233.88.867 1.06 1.033.322.313.934.722.981 1.111.052.413-.184.99-.304 1.389-.158.527-.32 1.053-.484 1.578l-14.024.012zm8.223-2.623a5.747 5.747 0 00-1.529-.56c-.644-.121-.577.88-.555 1.477.022.476.267.975.378 1.292.056.146.066.304.189.332.222.051.955-.241 1.166-.354.445-.243.789-.625 1.166-.88.012-.127.012-.252.023-.377a1.96 1.96 0 00-.812-.205c.233-.111.556-.111.767-.246l.012-.143c-.367-.023-.51-.188-.756-.322l-.049-.013zm4.046.6c-.022-.379-.122-1.155-.356-1.288-.489-.29-1.367.577-1.733.698.033.111.1.2.111.356.211-.055.478-.022.665.068-.221.022-.466.022-.61.122-.055.144.011.355-.022.566.51.146 1.111.224 1.766.246.122-.169.167-.478.157-.802l.021.035zm-3.022-.266c-.033.278.033.378.088.698.933.29.767-1.288-.1-.71l.012.012zm1.767-14.013c-1.188-.671-3.221-1.179-4.5-.542-1.021.513-2.421 1.364-2.887 2.438.444 1.038-.123 1.99-.167 3.043-.014.562.266 1.052.289 1.662-.148.25-.611.281-.933.264-.108-.54-.297-1.148-.856-1.209-.788-.085-1.366.567-1.4 1.247-.044.8.618 2.122 1.545 2.033.362-.034.45-.4.844-.4.21.422-.33.555-.388.855-.011.078.044.379.078.522.172.7.55 1.6.922 2.133.47.667 1.395.779 2.39.845.179-.389.834-.355 1.265-.256-.512-.2-.99-.7-1.39-1.132-.455-.5-.91-1.045-.933-1.689.855 1.188 1.555 2.221 3.111 2.743 1.178.39 2.555-.188 3.455-.821.377-.266.6-.689.866-1.066 1-1.434 1.467-3.488 1.367-5.477-.045-.823-.045-1.645-.323-2.188-.288-.579-1.255-1.09-1.833-.579-.11-.566.466-.91 1.145-.71-.49-.633-.99-1.377-1.678-1.766l.012.049zm-3.084 9.559c.456 1.144 2.018 1.01 3.338.98-.063.144-.19.322-.345.381-.422.172-1.589.303-2.175-.009-.375-.2-.61-.646-.816-.908-.102-.127-.59-.45-.01-.451l.01.007h-.002zm.122-.645c.662.345 1.866.384 2.764.356.049.198.049.44.05.677-1.148.06-2.508-.225-2.81-1.033h-.004zm4.944-.433c-.35.666-.848 1.405-1.88 1.428-.017-.21-.033-.544 0-.67.788-.075 1.28-.478 1.884-.753l-.003-.004v-.001zm-.48-.494c-.756.489-1.595 1.018-2.832.896-.26-.23-.36-.742-.105-1.08.135.232.045.655.422.718.7.123 1.51-.429 2.022-.622.311-.527-.033-.722-.31-1.06-.58-.69-1.356-1.556-1.335-2.6.233-.167.257.255.29.332.3.712 1.055 1.612 1.61 2.222.133.156.356.29.378.39.068.287-.188.632-.155.82l.015-.015v-.001zm-4.4-4.196c.227.416.3.85.622 1.162.145.142.425.314.287.704-.033.09-.27.29-.408.334-.5.144-1.67.022-1.275-.6.417.01.973.266 1.282-.034-.232-.388-.655-1.133-.499-1.577l-.01.01h.001zm4.591-.01h.051c.244.495.444 1.018.744 1.455-.2.466-1.52.882-1.498.043.288-.126.777-.027 1.033-.185-.143-.412-.356-.745-.322-1.312h-.007zm-5.13-1.197c-1.054-.245-1.579.438-1.897 1.15-.284-.07-.17-.455-.1-.654.19-.52.949-1.21 1.57-1.115.266.042.628.286.426.618v.001z"/>
</svg>
