<svg xmlns="http://www.w3.org/2000/svg" width="24" height="24" viewBox="0 0 24 24">
  <path fill="#324558" d="M19.171 18.971L12.141 22l-7.112-2.829L2 12.141l2.829-7.112L11.859 2l7.112 2.829L22 11.859l-2.829 7.112zm-.368-7.409c-.1 0-1.266.035-2.575.092a4.24 4.24 0 00-1.011-2.417c.635-.58 1.265-1.165 1.889-1.757a.424.424 0 10-.601-.601l-1.754 1.89a4.24 4.24 0 00-2.424-1c.057-1.309.092-2.475.092-2.575a.427.427 0 00-.853 0c0 .1.035 1.266.09 2.575A4.23 4.23 0 009.23 8.776c-.578-.632-1.162-1.26-1.751-1.882a.424.424 0 10-.601.601c.072.07.918.868 1.884 1.748a4.23 4.23 0 00-1.007 2.43c-.854-.04-1.708-.07-2.562-.092a.427.427 0 100 .853c.1 0 1.258-.035 2.562-.09a4.25 4.25 0 001.007 2.429c-.63.575-1.256 1.157-1.875 1.745a.423.423 0 000 .6.423.423 0 00.6 0c.071-.07.865-.914 1.746-1.876a4.236 4.236 0 002.434 1 129.11 129.11 0 00-.09 2.561.427.427 0 00.852 0c0-.099-.033-1.26-.09-2.562a4.232 4.232 0 002.425-1.017c.578.633 1.162 1.26 1.751 1.882a.424.424 0 10.601-.6c-.07-.071-.918-.872-1.882-1.754.58-.684.93-1.535.995-2.43 1.307.058 2.473.093 2.573.093a.427.427 0 000-.853zm-5.797 1.214c.142-.182.23-.4.256-.63.608.058 1.47.108 2.335.15a3.606 3.606 0 01-.83 2.029 59.126 59.126 0 00-1.76-1.549zm-.01-1.567a55.762 55.762 0 001.753-1.54c.485.568.781 1.274.847 2.019-.78.033-1.558.083-2.335.15a1.282 1.282 0 00-.266-.63zm-.851-.471c.057-.605.107-1.468.15-2.333a3.6 3.6 0 012.024.835 62.659 62.659 0 00-1.545 1.754 1.238 1.238 0 00-.63-.256zm.715.582l.228.534c.012.091.013.182.001.274l-.218.538-.191.196-.534.227a1.083 1.083 0 01-.274.001l-.538-.22-.195-.19-.226-.534a1.078 1.078 0 01-.002-.274l.218-.538.19-.194.535-.227c.09-.011.181-.013.274-.001l.538.217.194.191zM9.663 9.246a3.6 3.6 0 012.025-.84c.042.865.092 1.728.15 2.333a1.27 1.27 0 00-.628.266 58.268 58.268 0 00-1.547-1.76zm1.074 2.61a56.731 56.731 0 00-2.345-.152 3.6 3.6 0 01.84-2.028 60.998 60.998 0 001.761 1.548 1.28 1.28 0 00-.256.631zm.27.934a58.72 58.72 0 00-1.768 1.553 3.59 3.59 0 01-.847-2.03 56.81 56.81 0 002.346-.15c.03.224.118.44.268.627zm.85.472a55.89 55.89 0 00-.152 2.347 3.607 3.607 0 01-2.034-.835 63.67 63.67 0 001.555-1.769c.187.146.405.23.63.257zm2.481 1.495a3.596 3.596 0 01-2.024.852 56.739 56.739 0 00-.151-2.347 1.28 1.28 0 00.627-.267c.504.598 1.02 1.185 1.548 1.762z"/>
</svg>
