<svg xmlns="http://www.w3.org/2000/svg" width="48" height="48" fill="none" viewBox="0 0 48 48">
  <path fill="#324558" d="M9 13.839l-5 9.193 2.742 6.774.968 5.484.967 2.742-3.71 4.516h5.323l.646-4.838 2.258-3.226 3.87.484 3.549-1.452 2.903-1.613L26.42 34l-3.225 3.871-3.71 3.387 5.645.161V39l4.032-3.226 1.613 1.936L26.42 44h5.484v-3.226l3.871-3.71-2.097-4.193V27.71l3.871-2.42 2.581.323 2.903-.968.968-6.451-5 1.613-2.903 4.354-5 2.58L24 24l-5.161-3.871 3.387-4.677-1.13-5.807L23.033 4l-5 5h-.968l1.452-3.226-5 5L9 13.84z"/>
</svg>
