<svg xmlns="http://www.w3.org/2000/svg" width="24" height="24" viewBox="0 0 24 24">
  <g fill="none" fill-rule="evenodd">
    <path fill="#324558" d="M6.655 11.21h4.009c.373 0 .7-.07.979-.21.28-.14.51-.33.687-.57a2.46 2.46 0 00.397-.827 3.676 3.676 0 000-1.932 2.346 2.346 0 00-.397-.815 1.943 1.943 0 00-.687-.56 2.16 2.16 0 00-.979-.209H6.655v5.123zm4.009-8.173c.824 0 1.55.14 2.18.42a4.325 4.325 0 011.573 1.163c.42.497.737 1.08.955 1.746A6.86 6.86 0 0115.7 8.51a7.41 7.41 0 01-.303 2.13 4.954 4.954 0 01-.933 1.77 4.609 4.609 0 01-1.573 1.21c-.63.303-1.371.454-2.226.454h-4.01v6.791H3.602V3.037h7.062zm6.686 10.43V3.037h3.052v11.93z"/>
    <path fill="#B6C2CD" d="M20.402 18.095v2.77l-3.053-.001v-4.268z"/>
  </g>
</svg>
