<svg xmlns="http://www.w3.org/2000/svg" width="24" height="24" viewBox="0 0 24 24">
  <path fill="#324558" fill-rule="evenodd" d="M5.792 4.4a1.83 1.83 0 00-.727.576c1.323.24 2.54-.023 3.762-.5-.87-.452-2.195-.478-3.035-.077zm6.123 9.535c-1.375.863-2.706 1.783-3.814 2.978-.668.721-1.244 1.505-1.569 2.443-.04.114-.064.234-.103.379.23-.042.417-.07.601-.11 1.043-.235 1.914-.774 2.672-1.5.978-.935 1.627-2.073 2.058-3.338.096-.284.165-.577.253-.89-.055.021-.079.026-.098.038zm2.281-4.313c.574-.334 1.134-.65 1.685-.982.825-.497 1.65-.997 2.349-1.667.463-.444.84-.943.887-1.608.045-.654-.114-1.159-.842-1.426a3.163 3.163 0 00-.933-.178c-.755-.034-1.49.122-2.215.318-.931.253-1.82.611-2.7 1.053.995 1.35 1.505 2.86 1.77 4.49zm-5.154-2.87a5.863 5.863 0 01-2.131.453c-.529.007-1.054-.05-1.557-.232-.269-.097-.455-.275-.535-.538a64.647 64.647 0 01-.624-2.161c-.1-.376.083-.672.373-.907.512-.416 1.119-.633 1.757-.746 1.574-.28 3.038.021 4.377.886.104.068.184.059.287.014.904-.4 1.83-.732 2.806-.92 1.237-.24 2.468-.288 3.66.198.927.377 1.713.946 2.222 1.815.714 1.222.61 2.446-.066 3.65-.461.82-1.145 1.444-1.914 1.971-1.055.725-2.131 1.42-3.201 2.125-.09.06-.13.118-.137.229-.082 1.347-.327 2.659-.859 3.911a9.42 9.42 0 01-3.275 4.065c-.588.418-1.194.81-1.922.965-.462.1-.929.148-1.383.01a1.44 1.44 0 01-.587-.353 29.581 29.581 0 01-1.321-1.448c-.471-.549-.538-1.19-.37-1.868.295-1.186.925-2.184 1.772-3.06.951-.982 2.052-1.782 3.201-2.517.78-.499 1.581-.964 2.379-1.434.151-.09.218-.157.194-.357a12.923 12.923 0 00-.492-2.372 7.386 7.386 0 00-.94-1.942c-.034-.05-.072-.096-.104-.139-.553.242-1.076.485-1.61.701z"/>
</svg>
