<svg xmlns="http://www.w3.org/2000/svg" width="24" height="24" viewBox="0 0 24 24">
  <path fill="#324558" d="M16.284 13.598l3.25 1.873-3.25 1.9v-3.773zm.248-.441l3.25-1.873v3.746l-3.25-1.873zm-.248-4.187l3.25 1.873-3.25 1.873V8.97zM4.466 6.187l3.25-1.873v3.747l-3.25-1.874zm-.248.441l3.25 1.9-3.25 1.874V6.628zm0 4.656l3.25 1.873-3.25 1.873v-3.746zm12.066-6.97l3.25 1.873-3.25 1.874V4.314zm.248 4.215l3.25-1.9v3.773l-3.25-1.873zM12.51 6.187l3.25-1.873v3.747l-3.25-1.874zm0 9.284l3.25-1.873v3.774l-3.25-1.9zM8.488 3.873L11.738 2v3.747l-3.25-1.874zM12.262 2l3.25 1.873-3.25 1.874V2zm0 13.94l3.25 1.873-3.25 1.873v-3.747zm.248 4.187l3.25-1.874V22l-3.25-1.873zm-4.27-6.53l3.25 1.874-3.25 1.9v-3.773zm0-9.283l3.25 1.873-3.25 1.874V4.314zm-3.774 6.529l3.25-1.873v3.746l-3.25-1.873zm0 4.628l3.25-1.873v3.774l-3.25-1.9zm4.022 2.342l3.25-1.874v3.747l-3.25-1.873z"/>
</svg>
