<svg xmlns="http://www.w3.org/2000/svg" width="24" height="24" viewBox="0 0 24 24">
  <path fill="currentColor" d="M8.924 3.16a1.794 1.794 0 011.955.389 1.792 1.792 0 01.524 1.269v1.795H9.61a1.794 1.794 0 01-1.656-2.482 1.794 1.794 0 01.97-.972zM4.832 7.81h4.779a1.794 1.794 0 011.656 2.482 1.793 1.793 0 01-1.656 1.11H4.832A1.793 1.793 0 013.04 9.605 1.794 1.794 0 014.832 7.81zm15.992 1.11a1.793 1.793 0 010 1.372 1.794 1.794 0 01-1.656 1.11h-1.792V9.605a1.795 1.795 0 011.792-1.796 1.794 1.794 0 011.656 1.11zm-4.643-4.102v4.788A1.795 1.795 0 0114.39 11.4a1.793 1.793 0 01-1.792-1.795V4.818a1.791 1.791 0 113.584 0zm-1.791 16.16a1.794 1.794 0 000-3.591h-1.793v1.795a1.791 1.791 0 001.792 1.796zm0-4.788h4.778a1.794 1.794 0 001.268-3.065 1.794 1.794 0 00-1.268-.527h-4.779a1.797 1.797 0 000 3.591z"/>
  <path fill="currentColor" fill-rule="evenodd" d="M3.176 15.08a1.793 1.793 0 010-1.372 1.794 1.794 0 011.656-1.11h1.792v1.796a1.793 1.793 0 01-3.448.687z" clip-rule="evenodd"/>
  <path fill="currentColor" d="M7.819 19.182v-4.788a1.793 1.793 0 013.06-1.269 1.793 1.793 0 01.524 1.27v4.787a1.793 1.793 0 11-3.584 0z"/>
</svg>
