<svg xmlns="http://www.w3.org/2000/svg" width="24" height="24" viewBox="0 0 24 24">
  <g fill="none" fill-rule="evenodd">
    <path fill="#324558" d="M12.45 13.859a.716.716 0 11-.803-1.185.716.716 0 01.804 1.185m.442-1.166a1.02 1.02 0 10-.437 1.51l.395.642.314-.213-.395-.641c.34-.34.404-.885.123-1.298"/>
    <path fill="#B6C2CD" d="M21.28 14.228h-.243c0-1.966-1.622-3.566-3.616-3.566v-.244c2.128 0 3.86 1.709 3.86 3.81"/>
    <path fill="#B6C2CD" d="M21.45 12.916c-.293-1.233-1.293-2.262-2.546-2.622l.056-.196c1.323.38 2.378 1.467 2.687 2.771l-.198.047zm.274-1.157a3.744 3.744 0 00-1.448-1.617l.084-.14a3.915 3.915 0 011.512 1.689l-.148.068z"/>
    <path fill="#324558" d="M2.004 14.123c.147.08.374.14.628.14.555 0 .837-.267.837-.632-.004-.282-.155-.468-.524-.595-.238-.08-.313-.131-.313-.222 0-.096.083-.155.23-.155.162 0 .333.063.42.107l.104-.413a1.276 1.276 0 00-.544-.115c-.48 0-.79.274-.79.64-.004.225.15.444.556.579.222.071.281.123.281.222 0 .1-.075.159-.257.159-.18 0-.41-.076-.52-.143l-.108.428zm2.532.143c.516 0 1.02-.325 1.02-1.032 0-.587-.397-.996-.988-.996-.627 0-1.04.401-1.04 1.028s.437 1 1.004 1h.004zm.008-.432c-.254 0-.393-.25-.393-.58 0-.29.112-.583.397-.583.274 0 .385.294.385.58 0 .349-.147.583-.385.583h-.004zm1.187.389h.603v-1.12a.43.43 0 01.02-.15c.044-.111.143-.227.31-.227.218 0 .305.171.305.421v1.076h.603v-1.147c0-.572-.297-.838-.694-.838a.697.697 0 00-.6.314h-.011l-.028-.27h-.524c.008.175.016.377.016.619v1.322zm3.742-1.147c0-.457-.202-.838-.849-.838-.353 0-.619.1-.754.175l.111.385c.127-.076.337-.143.536-.143.298 0 .353.147.353.25v.024c-.686 0-1.139.238-1.139.742 0 .31.234.595.627.595.23 0 .429-.083.556-.238h.012l.035.195h.544a2.515 2.515 0 01-.032-.469v-.678zm-.583.44a.433.433 0 01-.012.103.333.333 0 01-.313.223c-.135 0-.239-.076-.239-.23 0-.23.246-.306.564-.306v.21zm.865.707h.603v-.98c0-.052.004-.096.012-.136.04-.19.19-.305.413-.305.067 0 .115.008.163.016v-.568a.6.6 0 00-.127-.012c-.19 0-.425.12-.524.405h-.016l-.024-.361H9.74c.012.167.016.353.016.639v1.302zm5.128-1.91h-.349v1.174a.502.502 0 01-.492.5c-.313 0-.428-.25-.428-.615v-1.06h-.35v1.124c0 .67.361.841.663.841a.717.717 0 00.635-.357h.008l.02.313h.31a6.876 6.876 0 01-.017-.527v-1.393zm.381 1.424c0 .17-.004.365-.015.496h.301l.02-.317h.008c.147.254.365.361.643.361.428 0 .865-.341.865-1.032 0-.58-.333-.976-.81-.976-.31 0-.531.135-.654.35h-.008v-1.203h-.35v2.321zm.35-.619a.55.55 0 01.02-.147.553.553 0 01.527-.428c.373 0 .572.33.572.718 0 .44-.214.738-.584.738a.542.542 0 01-.523-.409.657.657 0 01-.012-.127v-.345zm3.254.218a.851.851 0 00.012-.162c0-.353-.163-.905-.79-.905-.56 0-.905.456-.905 1.036 0 .575.357.968.945.968.305 0 .52-.067.643-.123l-.064-.25a1.25 1.25 0 01-.532.1c-.349 0-.646-.195-.654-.664h1.345zm-1.341-.25c.027-.242.178-.567.535-.567.39 0 .484.345.48.567h-1.015z"/>
  </g>
</svg>
