<svg xmlns="http://www.w3.org/2000/svg" width="24" height="24" viewBox="0 0 24 24">
  <g fill-rule="evenodd"><g clip-path="url(#clip0_2259_344287)">
    <path fill-rule="evenodd" clip-rule="evenodd" d="M12 7.3822L19.9997 2.76367L19.9999 12.0009L12 7.38247L4.00012 12.0009L4.00023 2.76367L12 7.3822ZM4.00012 12.0009L4 21.2385L11.9987 16.6204L4.00012 12.0009ZM19.9999 12.0009L12.0012 16.6204L20 21.2385L19.9999 12.0009Z" fill="#CCD3DB"/>
    <path fill-rule="evenodd" clip-rule="evenodd" d="M19.9998 11.9999L12 16.6199L4 11.9997L12 7.37988L19.9998 11.9999Z" fill="currentColor"/><rect x="12" y="12" width="12.0002" height="12.0002" rx="5.99971" fill="#F9FBFD"/>
    <path d="M21.9152 20.1123C20.7334 21.6888 18.2098 21.1568 16.5913 21.233C16.5913 21.233 16.3046 21.2493 16.0164 21.2967C16.0164 21.2967 16.1256 21.2502 16.2649 21.2018C17.4013 20.8083 17.9383 20.7292 18.6291 20.374C19.9263 19.7088 21.2178 18.2588 21.4806 16.7528C20.9866 18.2013 19.4845 19.448 18.1169 19.9542C17.1811 20.3002 15.488 20.6367 15.4875 20.6367C15.4645 20.6249 15.4417 20.6128 15.419 20.6003C14.2678 20.0395 14.2343 17.5423 16.3257 16.7375C17.2428 16.3847 18.1193 16.5784 19.1106 16.3421C20.1676 16.0904 21.392 15.2972 21.8894 14.26C22.4471 15.9174 23.1172 18.5095 21.9152 20.1123V20.1123ZM21.9353 13.7471C21.8016 14.0681 21.6305 14.3722 21.4255 14.653C20.98 14.1932 20.4467 13.8276 19.8574 13.5781C19.2681 13.3285 18.6347 13.2 17.9948 13.2002C15.3511 13.2002 13.2008 15.3533 13.2008 18C13.2005 18.6602 13.3366 19.3134 13.6007 19.9183C13.8647 20.5233 14.2509 21.067 14.735 21.5153L14.8403 21.6083C14.7635 21.5313 14.7205 21.4269 14.7205 21.3181C14.7206 21.2093 14.7638 21.105 14.8407 21.0281C14.9175 20.9513 15.0217 20.9081 15.1304 20.9081C15.239 20.9081 15.3432 20.9513 15.42 21.0283C15.4968 21.1052 15.54 21.2095 15.54 21.3183C15.5401 21.4271 15.4969 21.5314 15.4201 21.6084C15.3433 21.6853 15.2392 21.7286 15.1305 21.7287C15.0219 21.7287 14.9177 21.6856 14.8408 21.6087L14.9121 21.672C15.7739 22.4016 16.8663 22.8014 17.9948 22.8003C20.5213 22.8003 22.5964 20.8313 22.774 18.3466C22.9052 17.1296 22.5461 15.5843 21.9353 13.7471" fill="currentColor"/>
  </g>
  <defs><clipPath id="clip0_2259_344287"><rect width="24" height="24" fill="white"/></clipPath></defs></g></svg>
