<svg xmlns="http://www.w3.org/2000/svg" width="24" height="24" viewBox="0 0 24 24">
  <g fill-rule="evenodd">
  <path d="M20.1549 16.4001C17.6927 19.6844 12.4352 18.576 9.06349 18.7347C9.06349 18.7347 8.46614 18.7687 7.8658 18.8675C7.8658 18.8675 8.09317 18.7707 8.38337 18.6698C10.7508 17.85 11.8697 17.6853 13.3088 16.9453C16.0113 15.5593 18.7019 12.5387 19.2494 9.40127C18.2202 12.4189 15.0908 15.0161 12.2417 16.0706C10.2921 16.7915 6.76484 17.4925 6.76384 17.4925C6.71592 17.468 6.66838 17.4427 6.62124 17.4166C4.22286 16.2483 4.15305 11.0459 8.51002 9.36931C10.4207 8.63438 12.2467 9.03779 14.312 8.54551C16.5139 8.02127 19.0649 6.36867 20.101 4.2078C21.2628 7.66079 22.6589 13.061 20.1549 16.4001ZM20.1967 3.13935C19.9182 3.80813 19.5617 4.44161 19.1347 5.02661C18.2064 4.06865 17.0955 3.30712 15.8677 2.78721C14.64 2.26731 13.3204 1.99961 11.9874 2C6.47963 2 2 6.4855 2 11.9995C1.99936 13.3749 2.28299 14.7356 2.83304 15.996C3.3831 17.2563 4.18768 18.389 5.19617 19.3229L5.41557 19.5166C5.25565 19.3562 5.1659 19.1388 5.16604 18.9122C5.16618 18.6855 5.2562 18.4682 5.41631 18.308C5.57643 18.1478 5.79352 18.0579 6.01986 18.0579C6.2462 18.058 6.46325 18.148 6.6233 18.3083C6.78334 18.4685 6.87328 18.6859 6.87332 18.9125C6.87337 19.1391 6.78353 19.3565 6.62355 19.5168C6.46357 19.6772 6.24655 19.7673 6.02021 19.7675C5.79387 19.7676 5.57674 19.6777 5.41656 19.5176L5.56515 19.6494C7.3606 21.1693 9.63629 22.0023 11.9874 22C17.2509 22 21.5739 17.8979 21.9439 12.7215C22.2172 10.1861 21.4692 6.9668 20.1967 3.13935Z" fill="currentColor"/>
  </g>
</svg>
