<svg xmlns="http://www.w3.org/2000/svg" width="24" height="24" viewBox="0 0 24 24">
  <path fill="#324558" fill-rule="evenodd" d="M20.36 6C14.194 7.189 8.273 8.617 3 10.69V6h17.36zm-7.67 9.814c-3.027.907-6.29 1.52-9.69 2.028v-3.809c2.374-.168 4.644-.364 7.01-.623 1.702-.186 3.45-.381 5.3-.425.628-.015 1.273-.02 1.74.158.155.06.338.175.35.356.02.299-.326.525-.52.663-.238.169-.499.3-.75.416-.544.25-1.09.482-1.67.672-.574.188-1.17.385-1.77.564zm-8.92.416c-.207.006-.241.279-.07.336.276.093.333-.343.07-.336zm0-1.118c-.204.01-.235.28-.07.336.266.092.341-.35.07-.336zm.61 1.118c-.208.006-.24.279-.07.336.275.093.334-.343.07-.336zm0-1.118c-.2.01-.241.279-.07.336.265.09.341-.35.07-.336zM3 18.96V19h18v-4.68c-2.07.753-4.188 1.504-6.42 2.078C10.876 17.35 7.052 18.35 3 18.96zm7.37-9.448c-.783.28-1.57.601-2.25 1.03-.181.113-.506.333-.5.583.003.14.132.251.24.306.363.187 1.048.176 1.62.149 3.95-.185 7.63-.79 11.52-1V7.01c-3.798.558-7.404 1.348-10.63 2.502z"/>
</svg>
