<svg xmlns="http://www.w3.org/2000/svg" width="24" height="24" viewBox="0 0 24 24">
  <path fill="#324558" fill-rule="evenodd" d="M12 22C6.477 22 2 17.523 2 12S6.477 2 12 2s10 4.477 10 10-4.477 10-10 10zm-.58-13.333c-1.163 0-1.942.905-2.206 1.414l-1.376 2.916-1.9-3.935a.77.77 0 00-1.346.748l2.564 5.128a.773.773 0 001.343.009l2.063-4.131c.004-.006.342-.61.857-.61.623 0 .752.508.77.768v3.59a.78.78 0 00.224.545.774.774 0 001.254-.246.773.773 0 00.06-.299v-3.59a.77.77 0 011.538 0v3.59a.77.77 0 001.539 0v-3.59a.77.77 0 111.538 0v3.59a.77.77 0 001.539 0v-3.59a2.311 2.311 0 00-2.308-2.307 2.292 2.292 0 00-1.538.6 2.292 2.292 0 00-1.539-.6 2.276 2.276 0 00-1.53.595c-.365-.347-.866-.595-1.547-.595z"/>
</svg>
