<svg xmlns="http://www.w3.org/2000/svg" width="24" height="24" viewBox="0 0 24 24">
  <path fill="currentColor" d="M17.34 5.98a7.37 7.37 0 011.306 1.894 6.719 6.719 0 01.642 3.415 1.155 1.155 0 00-1.497-.237l.002-.044c.003-.067.007-.134.007-.201 0-.791-.176-1.561-.522-2.289A5.909 5.909 0 0016.23 7c-1.12-1.184-2.699-1.948-4.444-2.151a8.104 8.104 0 00-.931-.056c-.287 0-.587.018-.892.052-1.754.194-3.341.954-4.47 2.14-.436.458-.79.967-1.053 1.514a5.287 5.287 0 00-.531 2.308c0 1.028.308 2.046.892 2.943a6.1 6.1 0 00.88 1.062 6.603 6.603 0 00.62.533.643.643 0 01.224.708l-.295 1.148-.057.237c0 .058.044.105.098.105.017 0 .035-.008.067-.027h.002l1.548-.933.033-.018.018-.009a.8.8 0 01.644-.067c.388.116.79.2 1.195.256l.058.008.127.017a8.023 8.023 0 001.823-.005 7.8 7.8 0 001.51-.33 1.209 1.209 0 00.8 1.255 9.285 9.285 0 01-2.13.51 9.552 9.552 0 01-2.177.006 9.18 9.18 0 01-1.578-.311l-2.413 1.237a.367.367 0 01-.05.03.634.634 0 01-.322.09.658.658 0 01-.647-.705l.003-.022v-.013c.003-.023.005-.046.01-.068a.666.666 0 01.04-.124l.097-.402.337-1.429c-.61-.507-1.322-1.335-1.74-1.975A6.835 6.835 0 012.4 10.783c0-1.017.227-2.003.673-2.933.33-.684.771-1.32 1.313-1.89C5.76 4.52 7.68 3.596 9.79 3.36a9.67 9.67 0 011.065-.06c.36 0 .734.022 1.111.066 2.103.244 4.011 1.172 5.374 2.613z"/><path fill="currentColor" d="M20.595 14.645a.292.292 0 010 .406.277.277 0 01-.398 0 3.589 3.589 0 00-2.012-1.145 1.075 1.075 0 01-.14-.023 1.162 1.162 0 01-.568-.321 1.22 1.22 0 010-1.7 1.159 1.159 0 011.663 0 1.201 1.201 0 01.342.777 3.72 3.72 0 001.074 1.973.38.38 0 01.039.033zm-.884 3.821a.324.324 0 00.055-.06 3.59 3.59 0 011.93-1.097 1.151 1.151 0 00.76-.35 1.22 1.22 0 000-1.699 1.158 1.158 0 00-1.663 0 1.203 1.203 0 00-.337.724 3.72 3.72 0 01-1.12 2.056.292.292 0 000 .406.277.277 0 00.375.02zm-3.697-.9a.292.292 0 010-.406.277.277 0 01.398 0l.113.12c.538.55 1.203.891 1.899 1.024a1.075 1.075 0 01.14.024c.209.049.406.156.568.321a1.22 1.22 0 010 1.7 1.16 1.16 0 01-1.663 0 1.203 1.203 0 01-.342-.777 3.719 3.719 0 00-1.073-1.973.278.278 0 01-.04-.033zm.884-3.821a.3.3 0 00-.055.06 3.59 3.59 0 01-1.93 1.097 1.158 1.158 0 00-.76.35 1.22 1.22 0 000 1.699c.46.469 1.204.469 1.663 0a1.204 1.204 0 00.338-.724 3.72 3.72 0 011.12-2.056.292.292 0 000-.406.277.277 0 00-.376-.02z"/>
</svg>
