<svg xmlns="http://www.w3.org/2000/svg" width="24" height="24" viewBox="0 0 24 24">
  <g fill="none" fill-rule="evenodd">
    <path fill="#324558" d="M6.201 10h.601L8 14h-.616l-.244-.824H5.87L5.615 14H5l1.201-4zm.304 1.06l-.418 1.374h.834l-.416-1.373z"/>
    <path fill="#B6C2CD" d="M17 14v-4h.502c.292 0 .505.024.64.07a.855.855 0 01.456.354c.113.172.17.375.17.61 0 .152-.026.29-.077.414-.052.124-.135.24-.251.35.194.114.336.256.425.428.09.171.135.374.135.607 0 .225-.046.43-.14.615a1.002 1.002 0 01-.358.415c-.146.091-.348.137-.606.137H17zm.608-3.274v.843h.133c.148 0 .258-.039.33-.117a.45.45 0 00.108-.318.42.42 0 00-.102-.298c-.069-.073-.172-.11-.312-.11h-.157zm0 1.523v1.025h.152c.253 0 .423-.04.511-.12.088-.08.132-.195.132-.348a.541.541 0 00-.155-.408c-.103-.1-.274-.15-.514-.15h-.126z"/>
    <path fill="#B6C2CD" d="M18 7.558c.142-.038.287-.058.436-.058 1.416 0 2.564 1.79 2.564 4s-1.148 4-2.564 4c-.149 0-.294-.02-.436-.058 1.05-.516 1.813-2.086 1.813-3.942 0-1.856-.763-3.426-1.813-3.942z"/>
    <path fill="#324558" d="M18.264 16.05c-1.472 0-2.996-2-4.296-3.725l-.62-.825L12 13.29l.854 1.134C14.242 16.267 15.72 18 17.179 18c1.763 0 3.262-1.803 3.821-4.32-.529 1.412-1.556 2.37-2.736 2.37zm-7.117-7.472C9.76 6.735 8.28 5 6.821 5 5.058 5 3.559 6.803 3 9.32c.529-1.412 1.556-2.37 2.736-2.37 1.473 0 2.998 2.002 4.298 3.729l.618.821L12 9.71l-.853-1.132zM17.18 5c-1.459 0-2.938 1.735-4.326 3.578L12 9.711l1.348 1.789.618-.821c1.3-1.727 2.825-3.729 4.298-3.729 1.18 0 2.207.958 2.736 2.37C20.441 6.803 18.942 5 17.18 5zm-7.147 7.325c-1.3 1.726-2.824 3.725-4.296 3.725-1.18 0-2.207-.958-2.736-2.37C3.559 16.197 5.058 18 6.82 18c1.46 0 2.938-1.733 4.326-3.576L12 13.29l-1.348-1.79-.62.825z"/>
    <path fill="#B6C2CD" d="M13 11.5L12 13l-1-1.5 1-1.5zM6 7.558a1.683 1.683 0 00-.436-.058C4.148 7.5 3 9.29 3 11.5s1.148 4 2.564 4c.149 0 .294-.02.436-.058-1.05-.516-1.813-2.086-1.813-3.942 0-1.856.763-3.426 1.813-3.942z"/>
  </g>
</svg>
