<svg xmlns="http://www.w3.org/2000/svg" width="24" height="24" viewBox="0 0 24 24">
  <g fill="none" fill-rule="evenodd">
    <path fill="#324558" d="M8.938 19h6.124c.625 0 .938.287.938.862v.276c0 .575-.313.862-.938.862H8.938C8.313 21 8 20.713 8 20.138v-.276c0-.575.313-.862.938-.862zM4.125 3h15.75C20.496 3 21 3.61 21 4.364V17a1 1 0 01-1 1H4a1 1 0 01-1-1V4.364C3 3.61 3.504 3 4.125 3z"/>
    <path fill="#B6C2CD" d="M9.018 11.93h-1.68l-.32 1.003H6l1.731-4.866h.888l1.74 4.866H9.342l-.323-1.003zm-1.421-.812H8.76l-.585-1.821-.578 1.821zm6.781.194c-.036.524-.221.936-.554 1.237-.333.3-.773.451-1.318.451-.596 0-1.065-.21-1.407-.63-.341-.42-.512-.997-.512-1.73v-.297c0-.468.078-.88.236-1.237.158-.356.383-.63.676-.82.292-.19.632-.286 1.02-.286.537 0 .969.15 1.297.451.328.301.517.723.568 1.267h-.958c-.023-.314-.107-.542-.25-.684-.144-.141-.363-.212-.657-.212-.32 0-.558.12-.717.36-.159.239-.24.61-.244 1.114v.368c0 .526.076.91.228 1.153.152.243.392.364.72.364.296 0 .517-.07.663-.212.146-.142.23-.36.25-.657h.959zm1.587.816H18v.805h-2.993V8.067h.958v4.06z"/>
  </g>
</svg>
