<svg xmlns="http://www.w3.org/2000/svg" width="24" height="24" viewBox="0 0 24 24">
  <g fill="none" fill-rule="evenodd">
    <path fill="#324558" d="M12.585 20.02h6.73c.317 0 .476.163.476.49 0 .326-.159.49-.477.49h-6.729c-.318 0-.476-.163-.476-.49 0-.327.158-.49.476-.49z"/>
    <path fill="#B6C2CD" d="M16 3a2 2 0 012 2v5s-3.58-1.255-5.213 1.475c-1.343 2.173.022 4.04.188 4.251l.016.02s-1.086-.07-2.038.841c-.815.63-.815 1.96-.815 1.96v2.383h-4.75C4.067 20.93 3 19.828 3 18.47V5a2 2 0 012-2zM8.542 13h-2.72a.725.725 0 00-.714.735c0 .406.32.736.715.736l2.719-.001c.394 0 .713-.33.713-.735a.743.743 0 00-.209-.52.698.698 0 00-.504-.215zm.95-3H6.02c-.503 0-.912.329-.912.735 0 .406.409.736.912.736l3.472-.001c.503 0 .91-.33.91-.735a.669.669 0 00-.267-.52A1.025 1.025 0 009.492 10zm4.146-3H6.11c-.553 0-1.002.33-1.002.736 0 .406.449.735 1.002.735h7.528c.552 0 1-.33 1-.736 0-.406-.448-.735-1-.735z"/>
    <path fill="#324558" d="M19.247 16.937H17.07v-1.19c.857-.368 1.487-1.354 1.423-2.47-.085-1.358-1.2-2.401-2.52-2.358-1.32.043-2.369 1.157-2.37 2.518 0 1.05.545 1.89 1.428 2.311v1.19h-2.175c-.325 0-.636.133-.866.37a1.28 1.28 0 00-.357.891v.98c0 .155.122.281.273.281h8.29c.074 0 .144-.03.193-.082a.287.287 0 00.08-.2v-.98a1.28 1.28 0 00-.358-.891 1.206 1.206 0 00-.865-.37z"/>
  </g>
</svg>
