<svg xmlns="http://www.w3.org/2000/svg" width="24" height="24" viewBox="0 0 24 24">
  <g fill="none" fill-rule="evenodd">
    <path fill="#B6C2CD" d="M11.378 5.916l-.613-.843-.964.7.613.844a3.276 3.276 0 00-.501.688l-.99-.322-.37 1.134.992.322a3.297 3.297 0 000 .851l-.991.322.368 1.134.991-.322a3.3 3.3 0 00.5.688l-.612.844.964.7.613-.842c.253.12.525.21.81.262v1.042h1.192v-1.042a3.24 3.24 0 00.81-.262l.612.842.964-.7-.613-.844c.196-.206.364-.437.501-.688l.99.322.37-1.134-.992-.322a3.297 3.297 0 000-.851l.991-.322-.368-1.134-.991.322a3.276 3.276 0 00-.5-.688l.612-.843-.964-.701-.613.843a3.242 3.242 0 00-.81-.263V4.61h-1.192v1.042a3.242 3.242 0 00-.81.263zM12.33 2h.26c3.861 0 7.028 3.08 7.028 6.941 0 1.953-.78 3.775-2.169 5.12l.954 6.073L11.81 22l-.911-2.603h-2.82c-1.041 0-1.909-.824-1.909-1.866V15.19L4 14.625l1.518-4.469v-.954C5.475 5.34 8.512 2.174 12.33 2z"/>
    <path fill="#324558" d="M11.378 5.916c.253-.121.525-.21.81-.263V4.61h1.192v1.042c.284.052.556.142.81.263l.612-.843.964.7-.613.844c.196.206.364.437.501.688l.99-.322.37 1.134-.992.322a3.297 3.297 0 010 .851l.991.322-.368 1.134-.991-.322a3.276 3.276 0 01-.5.688l.612.844-.964.7-.613-.842c-.253.12-.525.21-.81.262v1.042h-1.192v-1.042a3.242 3.242 0 01-.81-.262l-.612.842-.964-.7.613-.844a3.276 3.276 0 01-.501-.688l-.99.322-.37-1.134.992-.322a3.297 3.297 0 010-.851l-.991-.322.368-1.134.991.322a3.3 3.3 0 01.5-.688l-.612-.843.964-.701.613.843zm1.406 4.828a1.88 1.88 0 100-3.759 1.88 1.88 0 000 3.759z"/>
  </g>
</svg>
