<svg xmlns="http://www.w3.org/2000/svg" width="24" height="24" viewBox="0 0 24 24">
  <g fill="none" fill-rule="evenodd">
    <path fill="#324558" fill-rule="nonzero" d="M13.829 1v2.057h-1.543v1.08c4.628.514 8.228 4.449 8.228 9.206a9.251 9.251 0 01-9.257 9.257A9.251 9.251 0 012 13.343C2 8.56 5.6 4.65 10.229 4.137v-1.08H8.686V1h5.143zm-2.572 5.343c-3.85 0-7 3.15-7 7s3.15 7 7 7 7-3.15 7-7-3.15-7-7-7zm6.634-3.337c1.44.925 2.7 2.16 3.626 3.625l-1.491 1.492A10.205 10.205 0 0016.4 4.497z"/>
    <path fill="#B6C2CD" d="M11.257 18.743c2.99 0 5.4-2.41 5.4-5.4s-2.41-5.4-5.4-5.4v5.4h-5.4c0 2.99 2.41 5.4 5.4 5.4z"/>
  </g>
</svg>
