<svg xmlns="http://www.w3.org/2000/svg" width="24" height="24" viewBox="0 0 24 24">
  <path fill-rule="evenodd" clip-rule="evenodd" d="M14.9585 4H19.5C20.0523 4 20.5 4.44771 20.5 5V21C20.5 21.5523 20.0523 22 19.5 22H4.5C3.94772 22 3.5 21.5523 3.5 21V5C3.5 4.44771 3.94772 4 4.5 4H9.0415C9.2795 2.58115 10.5135 1.5 12 1.5C13.4865 1.5 14.7205 2.58115 14.9585 4ZM13 4.5C13 5.05229 12.5523 5.5 12 5.5C11.4477 5.5 11 5.05229 11 4.5C11 3.94771 11.4477 3.5 12 3.5C12.5523 3.5 13 3.94771 13 4.5ZM18.4571 9.7071L16.1642 12H13.5V10H15.3358L17.0429 8.2929L18.4571 9.7071ZM6.5 10H11.5V12H6.5V10ZM6.5 15H11.5V17H6.5V15ZM18.4571 14.7071L16.1642 17H13.5V15H15.3358L17.0429 13.2929L18.4571 14.7071Z"/>
  <path d="M18.4571 9.70717L16.1642 12.0001H13.5V10.0001H15.3358L17.0429 8.29297L18.4571 9.70717Z" fill="currentColor"/>
  <path d="M6.5 10.0001H11.5V12.0001H6.5V10.0001Z" fill="currentColor"/>
  <path d="M6.5 15.0001H11.5V17.0001H6.5V15.0001Z" fill="currentColor"/>
  <path d="M18.4571 14.7072L16.1642 17.0001H13.5V15.0001H15.3358L17.0429 13.293L18.4571 14.7072Z" fill="currentColor"/>
</svg>
