<svg xmlns="http://www.w3.org/2000/svg" width="24" height="24" viewBox="0 0 24 24">
  <g fill="none" fill-rule="evenodd">
    <rect width="7.875" height="7.875" x="2.5" y="2.5" fill="#B6C2CD" rx="1.05"/>
    <rect width="7.875" height="7.875" x="13.522" y="2.5" fill="#B6C2CD" rx="1.05"/>
    <rect width="7.875" height="7.875" x="2.5" y="13.519" fill="#B6C2CD" rx="1.05"/>
    <path fill="#324558" fill-rule="nonzero" d="M16.447 11.915L16.2 13.19a4.03 4.03 0 00-1.134.651l-1.224-.422-1.177 2.042.979.85c-.035.214-.057.43-.057.653 0 .223.022.44.057.653l-.98.851 1.178 2.042 1.224-.422c.336.276.72.495 1.134.651l.248 1.274h2.355l.249-1.274a4.03 4.03 0 001.134-.651l1.224.422 1.177-2.042-.98-.85c.035-.214.058-.43.058-.654 0-.222-.023-.44-.057-.652l.979-.851-1.177-2.042-1.224.422a4.03 4.03 0 00-1.134-.651l-.249-1.275h-2.355zm1.178 3.03a2.02 2.02 0 110 4.04 2.02 2.02 0 010-4.04z"/>
  </g>
</svg>
