<svg xmlns="http://www.w3.org/2000/svg" width="24" height="24" viewBox="0 0 24 24">
  <g fill="none" fill-rule="evenodd">
    <path fill="#B6C2CD" d="M17.75 16.25V14h-1.5v2.25H14v1.5h2.25V20h1.5v-2.25H20v-1.5z"/>
    <path fill="#324558" d="M3 13.798c0-.496.401-.898.898-.898h6.304c.496 0 .898.401.898.898v6.304a.898.898 0 01-.898.898H3.898A.897.897 0 013 20.102v-6.304zm9.9-9.9c0-.496.401-.898.898-.898h6.304c.496 0 .898.401.898.898v6.304a.898.898 0 01-.898.898h-6.304a.897.897 0 01-.898-.898V3.898zm-9.9 0C3 3.402 3.401 3 3.898 3h6.304c.496 0 .898.401.898.898v6.304a.898.898 0 01-.898.898H3.898A.897.897 0 013 10.202V3.898z"/>
  </g>
</svg>
