<svg xmlns="http://www.w3.org/2000/svg" width="24" height="24" viewBox="0 0 24 24">
  <g fill="none" fill-rule="evenodd">
    <path fill="#B6C2CD" d="M11.957 20.914C7.013 20.914 3 16.901 3 11.957 3 7.013 7.013 3 11.957 3c4.944 0 8.957 4.013 8.957 8.957 0 4.944-4.013 8.957-8.957 8.957z"/>
    <path fill="#324558" d="M10.775 11.599l-.251 1.075h-2.15a.719.719 0 00-.716.716v.717c0 .394.322.716.716.716h7.166a.719.719 0 00.716-.716v-.717a.719.719 0 00-.716-.716h-2.15l-.25-1.075c.573-.394.967-1.04.967-1.792 0-1.182-.968-2.15-2.15-2.15s-2.15.968-2.15 2.15c0 .753.394 1.433.968 1.792zM8.016 15.54c-.215 0-.358.143-.358.358s.143.358.358.358h7.882c.215 0 .358-.143.358-.358s-.143-.358-.358-.358H8.016z"/>
  </g>
</svg>
