<svg xmlns="http://www.w3.org/2000/svg" width="24" height="24" viewBox="0 0 24 24">
  <g fill="none" fill-rule="evenodd">
    <path fill="#B6C2CD" d="M2.294 3.65v16.123h8.186c.305.525.868.882 1.52.882s1.215-.357 1.52-.882h8.186V3.65h-7.941A3.45 3.45 0 0012 4.136a3.45 3.45 0 00-1.765-.486h-7.94z"/>
    <path fill="#324558" d="M8.613 8.463a2.657 2.657 0 012.536 2.653c0 1.153-.74 2.126-1.77 2.492v1.932h-1.77v-1.932a2.647 2.647 0 01-1.718-3.023 2.66 2.66 0 012.722-2.122zm10.446 4.14v1.764h-4.412v-1.764h4.412zM4.994 12a.5.5 0 110 1 .5.5 0 010-1zm7 0a.5.5 0 110 1 .5.5 0 010-1zm7.065-2.928v1.765h-4.412V9.073h4.412zM4.994 9.001a.5.5 0 110 1 .5.5 0 010-1zm7 0a.5.5 0 110 1 .5.5 0 010-1z"/>
  </g>
</svg>
