<svg xmlns="http://www.w3.org/2000/svg" width="24" height="24" viewBox="0 0 24 24">
  <g fill="none" fill-rule="evenodd">
    <path fill="#B6C2CD" d="M21.9 13.7v5.4h-9.708v-5.4H21.9zm0-8.1V11h-6.744c.565-.87.894-1.915.894-3.037 0-.846-.187-1.648-.52-2.364l6.37.001z"/>
    <path fill="#324558" fill-rule="nonzero" d="M14.25 7.963c0-3.045-2.418-5.513-5.4-5.513s-5.4 2.468-5.4 5.513c0 2.496 1.627 4.603 3.857 5.281v2.381H4.993v3.15h2.314v1.575h3.086v-7.106c2.23-.678 3.857-2.785 3.857-5.281zM11.1 7.85a2.25 2.25 0 11-4.5 0 2.25 2.25 0 014.5 0z"/>
  </g>
</svg>
