<svg xmlns="http://www.w3.org/2000/svg" width="24" height="24" viewBox="0 0 24 24">
  <g fill="none" fill-rule="evenodd">
    <path fill="#B6C2CD" d="M9.891 18.078c0 1.042.224 2.031.627 2.922H4a1 1 0 01-1-1v-4h7.2a7.108 7.108 0 00-.309 2.078zM20 9.072v1.897h-3a7.1 7.1 0 00-5.843 3.06H3V9.072h17zM19 2c.552 0 1 .28 1 .627v4.391H3v-4.39C3 2.28 3.448 2 4 2h15z"/>
    <path fill="#324558" d="M19.37 12a1.94 1.94 0 00-1.94 1.94c0 .034.01.064.011.097l-3.043 1.528a1.91 1.91 0 00-1.237-.46 1.94 1.94 0 100 3.88c.474 0 .9-.178 1.237-.461l3.043 1.528c-.001.033-.012.063-.012.097a1.94 1.94 0 101.94-1.94c-.474 0-.9.177-1.236.46l-3.044-1.527c.002-.034.012-.064.012-.097 0-.034-.01-.064-.012-.098l3.044-1.527c.336.283.762.46 1.237.46a1.94 1.94 0 100-3.88z"/>
  </g>
</svg>
