<svg xmlns="http://www.w3.org/2000/svg" width="24" height="24" viewBox="0 0 24 24">
  <g fill="none" fill-rule="evenodd">
    <path fill="#B6C2CD" d="M9.891 18.078c0 1.042.224 2.031.627 2.922H4a1 1 0 01-1-1v-4h7.2a7.108 7.108 0 00-.309 2.078zM20 9.072v1.897h-3a7.1 7.1 0 00-5.843 3.06H3V9.072h17zM19 2c.552 0 1 .28 1 .627v4.391H3v-4.39C3 2.28 3.448 2 4 2h15z"/>
    <path fill="#324558" d="M22.22 13l-1.51 1.51.155.156a5 5 0 11-7.453.183l1.912 1.64a2.481 2.481 0 103.607-.198l-1.53 1.53V13h4.82z"/>
  </g>
</svg>
