<svg xmlns="http://www.w3.org/2000/svg" width="24" height="24" viewBox="0 0 24 24">
  <path fill="#324558" fill-rule="evenodd" d="M9.918 3c1.755.016 3.074.46 3.955 1.333.89.881 1.335 2.046 1.335 3.494a4.192 4.192 0 01-.526 2.124 3.46 3.46 0 01-.809.913c-.35.305-.783.58-1.297.827v.05c.97.255 1.706.77 2.204 1.543.465.798.698 1.667.698 2.605-.017 1.555-.498 2.786-1.445 3.691-.94.947-2.11 1.42-3.515 1.42H3V3zM9.87 13.012H5.706v5.408H9.87c1.004-.017 1.74-.292 2.204-.827a2.74 2.74 0 00.698-1.877c0-.74-.232-1.374-.698-1.901-.465-.519-1.2-.786-2.204-.803zm-.257-7.58H5.706v5.148h3.906c.988 0 1.715-.259 2.18-.778.473-.477.71-1.078.71-1.802s-.237-1.337-.71-1.84c-.465-.469-1.192-.711-2.18-.728zM21 20V4a1 1 0 00-1-1h-1.706v18H20a1 1 0 001-1z"/>
</svg>
