<svg xmlns="http://www.w3.org/2000/svg" width="24" height="24" viewBox="0 0 24 24">
  <g fill="none" fill-rule="evenodd">
    <path fill="#B6C2CD" d="M18.604 8.4v11.1l-.012.912a.61.61 0 01-.324.528.612.612 0 01-.622-.06l-2.22-1.668a.798.798 0 00-.875-.048l-2.16 1.596a.736.736 0 01-.768 0l-2.16-1.596a.825.825 0 00-.888.048l-2.208 1.656a.615.615 0 01-.624.06.613.613 0 01-.334-.54V8.399H4.2C3.54 8.4 3 7.86 3 7.2v-3C3 3.54 3.54 3 4.2 3h15.6c.66 0 1.2.54 1.2 1.2v3c0 .66-.54 1.2-1.2 1.2h-1.196zm0-1.5a.6.6 0 00.596-.6V5.1c0-.33-.27-.6-.6-.6H5.4c-.33 0-.6.27-.6.6v1.2c0 .33.27.6.6.6h.004v-.741c0-.252.204-.456.456-.456h12.276a.465.465 0 01.468.456v.74z"/>
    <path fill="#324558" d="M15.004 15.301a.61.61 0 00.6-.6c0-.334-.276-.6-.6-.6h-6c-.336 0-.6.264-.6.6 0 .324.264.6.6.6h6zm0-4.8a.61.61 0 00.6-.6c0-.336-.276-.6-.6-.6h-6c-.336 0-.6.264-.6.6 0 .324.264.6.6.6h6z"/>
  </g>
</svg>
