<svg xmlns="http://www.w3.org/2000/svg" width="24" height="24" viewBox="0 0 24 24">
  <g fill="none" fill-rule="evenodd">
    <path fill="#324558" d="M6.986 16.95h1.993v.996c0 .55.446.997.996.997h7.971c.55 0 .997-.446.997-.997V8.98h-2.99a.996.996 0 01-.996-.997v-2.99H9.975a.996.996 0 00-.996.997v4.982H6.986V4.993c0-1.1.892-1.993 1.993-1.993h7.73l4.227 4.227v11.716c0 1.1-.893 1.993-1.993 1.993H8.979a1.993 1.993 0 01-1.993-1.993V16.95z"/>
    <path fill="#B6C2CD" d="M4 10.971h9.957a1 1 0 011 1v3.979a1 1 0 01-1 1H4a1 1 0 01-1-1v-3.98a1 1 0 011-1zm1.242 3.195v-.502c-.003-.366-.077-.647-.22-.843-.144-.195-.351-.293-.622-.293-.272 0-.48.099-.623.296-.144.198-.217.487-.217.868v.502c.004.366.077.647.22.843.144.196.352.294.623.294.274 0 .483-.1.625-.3.143-.2.214-.488.214-.865zm-.56-.512v.566c-.002.186-.025.324-.068.415a.219.219 0 01-.211.135c-.099 0-.17-.047-.215-.141-.045-.094-.067-.238-.067-.432v-.579c.003-.182.026-.315.071-.4a.22.22 0 01.208-.13c.096 0 .168.046.213.136.046.09.068.233.068.43zm2.241 1.677v-2.803H6.87l-1.067.415v.452l.61-.205v2.14h.511zm2.803-1.165v-.502c-.004-.366-.077-.647-.22-.843-.144-.195-.351-.293-.623-.293-.27 0-.478.099-.622.296-.145.198-.217.487-.217.868v.502c.004.366.077.647.22.843.144.196.352.294.623.294.274 0 .483-.1.625-.3.143-.2.214-.488.214-.865zm-.56-.512v.566c-.002.186-.025.324-.068.415a.219.219 0 01-.211.135c-.099 0-.17-.047-.215-.141-.045-.094-.067-.238-.067-.432v-.579c.003-.182.026-.315.071-.4a.22.22 0 01.208-.13c.096 0 .167.046.213.136.046.09.068.233.068.43zm2.241 1.677v-2.803h-.054l-1.067.415v.452l.61-.205v2.14h.511zm2.803-1.165v-.502c-.004-.366-.077-.647-.22-.843-.144-.195-.352-.293-.623-.293-.27 0-.478.099-.623.296-.144.198-.216.487-.216.868v.502c.004.366.077.647.22.843.144.196.352.294.623.294.274 0 .483-.1.625-.3.143-.2.214-.488.214-.865zm-.56-.512v.566c-.003.186-.025.324-.068.415a.219.219 0 01-.212.135c-.098 0-.17-.047-.214-.141-.045-.094-.067-.238-.067-.432v-.579c.003-.182.026-.315.07-.4a.22.22 0 01.209-.13c.096 0 .167.046.213.136.045.09.068.233.068.43z"/>
    <path fill="#324558" d="M5.242 14.166c0 .377-.071.665-.214.865-.142.2-.35.3-.625.3-.271 0-.479-.098-.622-.294-.144-.196-.217-.477-.22-.843v-.502c0-.381.072-.67.216-.868.144-.197.351-.296.623-.296.27 0 .478.098.622.293.143.196.217.477.22.843v.502zm-.56-.512c0-.197-.023-.34-.069-.43a.225.225 0 00-.213-.135.22.22 0 00-.208.128c-.045.086-.068.22-.071.401v.579c0 .194.022.338.067.432.045.094.116.141.215.141a.219.219 0 00.21-.135c.044-.09.067-.23.068-.415v-.566zm2.241 1.677h-.51V13.19l-.61.205v-.452l1.066-.415h.054v2.803zm2.803-1.165c0 .377-.071.665-.214.865-.142.2-.35.3-.625.3-.271 0-.479-.098-.622-.294-.144-.196-.217-.477-.22-.843v-.502c0-.381.071-.67.216-.868.144-.197.351-.296.622-.296.272 0 .479.098.622.293.144.196.217.477.22.843v.502zm-.56-.512c0-.197-.023-.34-.069-.43a.225.225 0 00-.213-.135.22.22 0 00-.208.128c-.045.086-.068.22-.071.401v.579c0 .194.022.338.067.432.044.094.116.141.215.141a.219.219 0 00.21-.135c.044-.09.067-.23.068-.415v-.566zm2.241 1.677h-.51V13.19l-.61.205v-.452l1.066-.415h.054v2.803zm2.803-1.165c0 .377-.071.665-.214.865-.142.2-.35.3-.625.3-.271 0-.479-.098-.622-.294-.144-.196-.217-.477-.22-.843v-.502c0-.381.071-.67.215-.868.145-.197.352-.296.623-.296s.479.098.622.293c.144.196.217.477.22.843v.502zm-.56-.512c0-.197-.024-.34-.07-.43a.225.225 0 00-.212-.135.22.22 0 00-.208.128c-.045.086-.068.22-.071.401v.579c0 .194.022.338.067.432.044.094.116.141.214.141a.219.219 0 00.212-.135c.043-.09.065-.23.067-.415v-.566z"/>
  </g>
</svg>
