<svg xmlns="http://www.w3.org/2000/svg" width="24" height="24" viewBox="0 0 24 24">
  <path fill="#324558" fill-rule="evenodd" d="M18.18 5.127a31.16 31.16 0 00-3.461 1.672 33.052 33.052 0 00-3.88 2.537l-.226.172-.04-.048a7.874 7.874 0 01-.158-.203c-.58-.773-1.395-1.308-2.183-1.436a2.757 2.757 0 00-1.192.118c-.172.058-.188.06-1.814.179-.901.067-1.66.12-1.687.12-.103 0-.01.024.39.101 1.014.193 1.581.331 2.087.51.307.106.877.336.889.358.022.036-.125 1.143-.195 1.468-.022.103-.05.237-.065.297-.012.06-.023.273-.025.475 0 .305.009.404.047.588.148.711.508 1.327 1.123 1.918.36.346.714.608 1.595 1.17.5.321.817.507 1.41.83.236.127.49.268.564.313.555.337 1.001.72 2.236 1.915.66.642.89.854.882.814a57.648 57.648 0 00-.293-1.398c-.29-1.273-.624-2.383-.882-2.931-.055-.121-.115-.246-.13-.278l-.026-.06.545.009c.459.006 1.347-.026 1.374-.048a1.465 1.465 0 00-.06-.198 1.021 1.021 0 01-.057-.2c.006-.004.156.06.336.143l.326.148.593-.162c.326-.09.602-.166.613-.172.008-.004-.043-.068-.115-.14-.072-.072-.17-.175-.221-.227-.107-.11-.14-.119.364.085l.355.143.403-.143c.221-.079.412-.148.422-.154.01-.006-.076-.097-.195-.204l-.213-.194.363.117.364.115.957-.331 1.07-.369a.897.897 0 00.13-.047c.022-.022-.993-.454-1.897-.806-1.04-.406-2.549-.93-3.167-1.097a1.895 1.895 0 01-.252-.078c-.008-.01.215-.328.497-.713.28-.384.512-.7.512-.703a.652.652 0 00-.143-.02.508.508 0 01-.143-.025c0-.006.305-.434.677-.95.373-.514.68-.942.682-.952 0-.008-.065-.022-.147-.03a.94.94 0 01-.158-.02c-.008-.007.158-.231 1.07-1.44.273-.362.497-.663.493-.665a3.87 3.87 0 00-.344.127z"/>
</svg>
