<svg xmlns="http://www.w3.org/2000/svg" width="24" height="24" viewBox="0 0 24 24">
  <g fill="none" fill-rule="evenodd">
    <path fill="#B6C2CD" fill-rule="nonzero" d="M8.473 8.614L15 6.003a2 2 0 00.573 1.365L9 9.998v-.032c0-.521-.2-.996-.527-1.352zm0 8L15 14.003a2 2 0 00.573 1.365L9 17.998v-.032c0-.521-.2-.996-.527-1.352zM15 13.997l-6.573-2.63c.346-.352.563-.833.573-1.364l6.527 2.61A1.993 1.993 0 0015 13.998z"/>
    <circle cx="17" cy="5.966" r="2" fill="#324558"/>
    <circle cx="7" cy="9.966" r="2" fill="#324558"/>
    <circle cx="17" cy="13.966" r="2" fill="#324558"/>
    <circle cx="7" cy="17.966" r="2" fill="#324558"/>
  </g>
</svg>
