<svg xmlns="http://www.w3.org/2000/svg" width="24" height="24" viewBox="0 0 24 24">
  <g fill="none" fill-rule="evenodd">
    <path fill="#324558" d="M11.524 7.153c-.009-.01-.016-.018-.026-.025l.002-.002c-.123-.145-.396-.125-.396-.125H6.74c-.679 0-1.23.63-1.23 1.427L5.5 19.56c0 .797.551 1.439 1.23 1.439h6.54c.679 0 1.212-.644 1.212-1.441l.018-8.573c0-.26-.113-.413-.286-.617l-2.69-3.216zm2.17 4.4a.271.271 0 01-.15.045h-2.772c-.17 0-.318-.163-.318-.363V7.979c0-.004.005-.01.005-.013l.001-.001c0-.185.128-.333.285-.333a.26.26 0 01.17.066l.002.002c.02.018.038.04.053.063l2.767 3.232a.333.333 0 01.05.057l.002.002a.38.38 0 01.06.206.342.342 0 01-.156.293z"/>
    <path fill="#B6C2CD" d="M18.222 6.361l-2.694-3.218c-.01-.008-.017-.017-.026-.025l.002-.001c-.112-.13-.397-.117-.397-.117h-4.373c-.68 0-1.232.626-1.232 1.423L9.5 5.988h2.25c.298 0 .583.075.824.284l2.806 3.33c.178.21.499.598.499 1.248L15.87 17h1.406c.68 0 1.214-.649 1.214-1.444l.009-8.51c0-.265-.102-.48-.278-.685zm-.521 1.186a.277.277 0 01-.15.05h-2.776c-.171 0-.32-.172-.32-.37V3.969c0-.003.006-.009.006-.012l.001-.002c0-.184.128-.332.285-.332a.26.26 0 01.171.066l.002.002a.29.29 0 01.053.062l2.772 3.232a.333.333 0 01.05.057l.002.002c.037.056.06.13.06.208a.34.34 0 01-.156.295z"/>
  </g>
</svg>
