<svg xmlns="http://www.w3.org/2000/svg" width="24" height="24" viewBox="0 0 24 24">
  <g fill="none" fill-rule="evenodd">
    <path fill="#324558" d="M4.004 15.217H19.96v4.126c0 .913-.713 1.653-1.592 1.653H5.597c-.88 0-1.593-.74-1.593-1.653v-4.126zm13.123 4.126c.692 0 1.253-.583 1.253-1.301 0-.72-.561-1.302-1.253-1.302-.693 0-1.254.583-1.254 1.302 0 .345.132.676.367.92s.554.381.887.381zm-3.973 0c.692 0 1.253-.583 1.253-1.301 0-.72-.561-1.302-1.253-1.302-.693 0-1.254.583-1.254 1.302a1.25 1.25 0 00.343.945c.24.25.572.38.91.356z"/>
    <path fill="#B6C2CD" d="M7.025 11.091H16.9a.782.782 0 01.664.365l2.394 3.761H4.004l2.344-3.761a.794.794 0 01.677-.365zm9.024-3.084l-1.128.963c-1.269-1.6-3.544-1.832-5.089-.52a4.59 4.59 0 00-.489.507l-1.115-.963a4.962 4.962 0 013.426-1.901 4.89 4.89 0 013.705 1.211c.247.211.474.446.677.703h.013zm2.218-1.926l-1.115.91c-2.304-2.875-6.414-3.27-9.187-.884a6.884 6.884 0 00-.84.885L6.01 6.016c1.351-1.708 3.305-2.781 5.425-2.982 2.12-.2 4.228.489 5.854 1.914.378.327.726.689 1.04 1.08l-.062.053z"/>
  </g>
</svg>
