<svg xmlns="http://www.w3.org/2000/svg" width="24" height="24" viewBox="0 0 24 24">
  <path fill="#324558" fill-rule="evenodd" d="M20.406 12.443c0 .315 0 .668-.038.982H9.395c0 1.924 1.661 3.337 3.477 3.337 1.237 0 2.434-.628 3.052-1.727h4.019c-1.082 3.101-3.941 5.182-7.187 5.182a7.217 7.217 0 01-3.361-.824c-1.082.55-2.55 1.138-3.748 1.138-1.623 0-2.24-.981-2.24-2.552 0-.903.192-1.766.463-2.63.116-.55.773-1.688 1.043-2.238 1.16-2.12 2.666-4.24 4.52-5.85-1.429.628-3.052 2.238-4.056 3.416.772-3.494 3.863-6.007 7.38-6.007h.463c1.159-.55 2.82-1.139 4.134-1.139 1.507 0 2.86.59 2.86 2.356 0 .903-.349 1.924-.735 2.787.618 1.139.927 2.474.927 3.77zM19.75 6.28c0-1.1-.772-1.728-1.777-1.728-.811 0-1.7.314-2.434.667a7.535 7.535 0 013.71 3.141c.27-.628.501-1.413.501-2.08zM4.604 18.176c0 1.138.657 1.727 1.739 1.727.85 0 1.777-.353 2.511-.824a7.569 7.569 0 01-3.323-4.123c-.425.942-.927 2.199-.927 3.22zm4.79-6.871h6.878c-.038-1.845-1.7-3.18-3.438-3.18-1.778 0-3.4 1.335-3.44 3.18z"/>
</svg>
