<svg xmlns="http://www.w3.org/2000/svg" width="24" height="24" viewBox="0 0 24 24">
  <g fill="none" fill-rule="evenodd">
    <path fill="#324558" d="M21 4a2 2 0 012 2v12a2 2 0 01-2 2H3a2 2 0 01-2-2V6a2 2 0 012-2h18zm-8.426 4.633h-1.693v1.558h-.926v1.243h.926v3.345c0 .336.043.623.129.862.086.238.208.431.366.58.158.148.349.257.571.325.223.068.473.102.75.102a3.276 3.276 0 00.88-.111l.146-.04v-1.284a3.022 3.022 0 01-.498.041 1.34 1.34 0 01-.285-.026.438.438 0 01-.202-.1.444.444 0 01-.123-.202.906.906 0 01-.036-.203l-.005-.125v-3.164h1.084V10.19h-1.084V8.633zM5.988 8H3v8.531h3.264c.984 0 1.743-.21 2.276-.633.533-.421.8-1.046.8-1.875 0-.207-.027-.409-.08-.606a1.769 1.769 0 00-.69-.99 1.874 1.874 0 00-.642-.284c.21-.082.392-.187.545-.314a1.82 1.82 0 00.6-.929c.05-.18.073-.367.073-.562 0-.399-.07-.744-.213-1.037a1.91 1.91 0 00-.621-.73 2.834 2.834 0 00-.994-.43 5.366 5.366 0 00-1.038-.135L5.988 8zm12.047 2.074c-.379 0-.723.073-1.031.22a2.203 2.203 0 00-.654.473l-.137.157-.053-.733h-1.594v6.34h1.694v-4.47c.11-.188.253-.336.43-.446a1.2 1.2 0 01.642-.164c.164 0 .309.017.434.05s.23.089.316.167a.736.736 0 01.196.316c.034.1.055.22.063.359l.005.145v4.043h1.693V12.5c0-.45-.048-.828-.143-1.137a1.94 1.94 0 00-.408-.75 1.507 1.507 0 00-.633-.413 2.528 2.528 0 00-.82-.126zM6.328 12.816a1.8 1.8 0 01.574.082.96.96 0 01.39.238.94.94 0 01.22.375c.047.146.07.311.07.495 0 .16-.026.307-.08.442a.927.927 0 01-.242.352c-.11.1-.246.178-.41.234-.164.057-.36.085-.586.085H4.758v-2.303h1.57zm-.34-3.392c.485 0 .84.085 1.064.255.224.17.337.448.337.835 0 .336-.11.594-.328.776-.22.182-.553.276-1.002.284H4.758v-2.15h1.23z"/>
    <path fill="#B6C2CD" d="M6.264 16.531c.984 0 1.743-.21 2.276-.633.533-.421.8-1.046.8-1.875 0-.207-.027-.409-.08-.606a1.769 1.769 0 00-.69-.99 1.874 1.874 0 00-.642-.284c.21-.082.392-.187.545-.314a1.82 1.82 0 00.6-.929c.05-.18.073-.367.073-.562 0-.399-.07-.744-.213-1.037a1.91 1.91 0 00-.621-.73 2.834 2.834 0 00-.994-.43A5.72 5.72 0 005.988 8H3v8.531h3.264zm-.205-4.957H4.758v-2.15h1.23c.485 0 .84.085 1.064.255.224.17.337.448.337.835 0 .336-.11.594-.328.776-.22.182-.553.276-1.002.284zm.205 3.545H4.758v-2.303h1.57a1.8 1.8 0 01.574.082.96.96 0 01.39.238.94.94 0 01.22.375c.047.146.07.311.07.495 0 .16-.026.307-.08.442a.927.927 0 01-.242.352c-.11.1-.246.178-.41.234-.164.057-.36.085-.586.085zm6.433 1.53a3.276 3.276 0 001.026-.153v-1.283a3.022 3.022 0 01-.498.041 1.34 1.34 0 01-.285-.026.438.438 0 01-.202-.1.444.444 0 01-.123-.202 1.102 1.102 0 01-.04-.328v-3.164h1.083V10.19h-1.084V8.633h-1.693v1.558h-.926v1.243h.926v3.345c0 .336.043.623.129.862.086.238.208.431.366.58.158.148.349.257.571.325.223.068.473.102.75.102zm3.563-.118v-4.47c.11-.188.253-.336.43-.446a1.2 1.2 0 01.642-.164c.164 0 .309.017.434.05s.23.089.316.167a.736.736 0 01.196.316c.045.133.068.301.068.504v4.043h1.693V12.5c0-.45-.048-.828-.143-1.137a1.94 1.94 0 00-.408-.75 1.507 1.507 0 00-.633-.413 2.528 2.528 0 00-.82-.126c-.379 0-.723.073-1.031.22a2.224 2.224 0 00-.791.63l-.053-.733h-1.594v6.34h1.694z"/>
  </g>
</svg>
