<svg xmlns="http://www.w3.org/2000/svg" width="24" height="24" viewBox="0 0 24 24">
  <g fill="none" fill-rule="evenodd">
    <path fill="#324558" d="M14 4a2 2 0 012 2v3a2 2 0 01-2 2h-.5v2H20a2 2 0 012 2v3a2 2 0 01-2 2H10a2 2 0 01-2-2v-3a2 2 0 012-2h.5v-2H4a2 2 0 01-2-2V6a2 2 0 012-2h10zm6 10H10a1 1 0 00-.993.883L9 15v3a1 1 0 00.883.993L10 19h10a1 1 0 00.993-.883L21 18v-3a1 1 0 00-.883-.993L20 14zm-.086 1.172l.707.707L18.5 18l-2.121-2.121.707-.707 1.414 1.414 1.414-1.414zM12.5 11h-1v2h1v-2zM14 5H4a1 1 0 00-.993.883L3 6v3a1 1 0 00.883.993L4 10h10a1 1 0 00.993-.883L15 9V6a1 1 0 00-.883-.993L14 5zm-.086 1.172l.707.707L12.5 9l-2.121-2.121.707-.707L12.5 7.586l1.414-1.414z"/>
    <path fill="#B6C2CD" d="M20 14l.117.007a1 1 0 01.876.876L21 15v3l-.007.117a1 1 0 01-.876.876L20 19H10l-.117-.007a1 1 0 01-.876-.876L9 18v-3l.007-.117a1 1 0 01.876-.876L10 14h10zm-.086 1.172L18.5 16.586l-1.414-1.414-.707.707L18.5 18l2.121-2.121-.707-.707zM14 5l.117.007a1 1 0 01.876.876L15 6v3l-.007.117a1 1 0 01-.876.876L14 10H4l-.117-.007a1 1 0 01-.876-.876L3 9V6l.007-.117a1 1 0 01.876-.876L4 5h10zm-.086 1.172L12.5 7.586l-1.414-1.414-.707.707L12.5 9l2.121-2.121-.707-.707z"/>
  </g>
</svg>
