<svg xmlns="http://www.w3.org/2000/svg" width="24" height="24" viewBox="0 0 24 24">
  <g fill="none" fill-rule="evenodd">
    <path fill="#324558" d="M4 3h16a1 1 0 011 1v16a1 1 0 01-1 1H4a1 1 0 01-1-1V4a1 1 0 011-1zm2 2a1 1 0 00-1 1v12a1 1 0 001 1h12a1 1 0 001-1V6a1 1 0 00-1-1H6z"/>
    <path fill="#B6C2CD" d="M6 5h12a1 1 0 011 1v12a1 1 0 01-1 1H6a1 1 0 01-1-1V6a1 1 0 011-1zm2.485 2l4.257 4.298L17 15.595V7H8.485zm7.034 10l-4.26-4.266L7 8.467V17h8.52z"/>
    <path d="M8.485 7H17v8.595l-4.258-4.297z" opacity=".4"/>
    <path fill="#324558" d="M15.52 17H7V8.467l4.26 4.267z"/>
  </g>
</svg>
