<svg xmlns="http://www.w3.org/2000/svg" width="24" height="24" viewBox="0 0 24 24">
  <g fill="#324558" fill-rule="evenodd">
    <path d="M20.6 11.01l-1.767-1.757v-2.72a1.367 1.367 0 00-1.367-1.36h-2.733l-1.767-1.759a1.375 1.375 0 00-1.934 0L9.267 5.173H6.533a1.367 1.367 0 00-1.367 1.36v2.72L3.4 11.01a1.359 1.359 0 000 1.923l1.767 1.758v2.72c.002.75.613 1.358 1.367 1.36h2.734l1.766 1.758c.535.53 1.4.53 1.934 0l1.767-1.758h2.733a1.367 1.367 0 001.367-1.36v-2.72l1.767-1.758a1.359 1.359 0 000-1.923z" opacity=".4"/>
    <path d="M12 16.73L7.899 9.254h2.05l2.05 4.08 2.05-4.08h2.05z" opacity=".9"/>
  </g>
</svg>
