<svg xmlns="http://www.w3.org/2000/svg" width="24" height="24" viewBox="0 0 24 24">
  <g fill="none" fill-rule="evenodd">
    <path fill="#324558" d="M12 2.49a3.464 3.464 0 013.443 3.844l-.224 2.023a3.239 3.239 0 01-6.438 0l-.224-2.023A3.464 3.464 0 0112 2.49z"/>
    <path fill="#B6C2CD" d="M5 20.835v-3.827a3.5 3.5 0 012.393-3.32l2.857-.952h3.5l2.857.952A3.5 3.5 0 0119 17.008v3.827c-2.096.416-4.476.65-7 .65s-4.904-.234-7-.65z"/>
    <path fill="#324558" d="M21.822 16.56l-.785-.781V14.57a.608.608 0 00-.608-.604h-1.214l-.786-.782a.611.611 0 00-.86 0l-.784.782H15.57a.608.608 0 00-.607.604v1.209l-.786.781a.604.604 0 000 .855l.786.781v1.21c0 .333.272.603.607.604h1.215l.785.781a.611.611 0 00.86 0l.785-.781h1.215a.608.608 0 00.607-.605v-1.209l.786-.78a.604.604 0 000-.856z"/>
    <path fill="#FFF" d="M18 19.103l-1.823-3.324h.912l.91 1.814.912-1.814h.91z" opacity=".9"/>
  </g>
</svg>
