<svg width="40" height="40" viewBox="0 0 40 40" fill="none" xmlns="http://www.w3.org/2000/svg">
<path fill-rule="evenodd" clip-rule="evenodd" d="M31.6667 17.5C33.45 17.5 35.1327 17.9309 36.6163 18.6942C35.9503 10.0998 28.7654 3.33331 20 3.33331C10.7953 3.33331 3.33337 10.7952 3.33337 20C3.33337 29.2047 10.7953 36.6666 20 36.6666C21.4361 36.6666 22.8297 36.485 24.1592 36.1435C22.1092 34.1724 20.8334 31.4018 20.8334 28.3333C20.8334 22.3502 25.6836 17.5 31.6667 17.5ZM21.6667 10.8333H18.3334V20.9763L12.9882 26.3215L15.3452 28.6785L21.6667 22.357V10.8333Z" fill="#B6C2CD"/>
<path d="M18.3333 10.8333H21.6667V22.357L15.3452 28.6785L12.9882 26.3215L18.3333 20.9763V10.8333Z" fill="#324558"/>
<path fill-rule="evenodd" clip-rule="evenodd" d="M40 28.3333C40 32.9357 36.269 36.6666 31.6667 36.6666C27.0643 36.6666 23.3333 32.9357 23.3333 28.3333C23.3333 23.7309 27.0643 20 31.6667 20C36.269 20 40 23.7309 40 28.3333ZM27.5 27.0833H35.8333V29.5833H27.5V27.0833Z" fill="#324558"/>
</svg>
