<svg width="24" height="24" viewBox="0 0 24 24" fill="none" xmlns="http://www.w3.org/2000/svg">
<path fill-rule="evenodd" clip-rule="evenodd" d="M8.75 3C8.33579 3 8 3.33579 8 3.75V8H15C15.5523 8 16 8.44772 16 9V16H20.25C20.6642 16 21 15.6642 21 15.25V3.75C21 3.33579 20.6642 3 20.25 3H8.75Z" fill="#B6C2CD"/>
<path fill-rule="evenodd" clip-rule="evenodd" d="M4 8C3.44772 8 3 8.44772 3 9V20C3 20.5523 3.44772 21 4 21H15C15.5523 21 16 20.5523 16 20V9C16 8.44772 15.5523 8 15 8H4ZM9.49985 11.1849L13.3999 13.135L9.49985 15.085L5.59985 13.135L9.49985 11.1849ZM7.02171 15.154L5.59985 15.865L9.49985 17.815L13.3999 15.865L11.978 15.154L9.49984 16.3931L7.02171 15.154Z" fill="#324558"/>
</svg>
