<svg width="24" height="24" viewBox="0 0 24 24" fill="none" xmlns="http://www.w3.org/2000/svg">
<path fill-rule="evenodd" clip-rule="evenodd" d="M9.5 3C8.67157 3 8 3.67157 8 4.5V8H14C15.1046 8 16 8.89543 16 10V16H19.5C20.3284 16 21 15.3284 21 14.5V4.5C21 3.67157 20.3284 3 19.5 3H9.5Z" fill="#B6C2CD"/>
<path fill-rule="evenodd" clip-rule="evenodd" d="M5 8C3.89543 8 3 8.89543 3 10V19C3 20.1046 3.89543 21 5 21H14C15.1046 21 16 20.1046 16 19V10C16 8.89543 15.1046 8 14 8H5ZM9.49985 11.1849L13.3999 13.135L9.49985 15.085L5.59985 13.135L9.49985 11.1849ZM7.02171 15.154L5.59985 15.865L9.49985 17.815L13.3999 15.865L11.978 15.154L9.49984 16.3931L7.02171 15.154Z" fill="#324558"/>
</svg>
