<svg xmlns="http://www.w3.org/2000/svg" width="24" height="24" viewBox="0 0 24 24">
  <g fill="none" fill-rule="evenodd">
    <path fill="#324558" d="M21 17.02v4a1 1 0 01-1 1H5a1 1 0 01-1-1v-4h17zm-12 1.5H6v2h3v-2zm4.006 0h-3v2h3v-2z"/>
    <path fill="#B6C2CD" d="M5 3.028h15a1 1 0 011 1V17.02H4V4.028a1 1 0 011-1z"/>
    <path fill="#324558" d="M12.5 5.5a5 5 0 010 10 4.955 4.955 0 01-2.621-.76L11.5 11.5l-3.62.904A4.973 4.973 0 017.5 10.5a5 5 0 015-5zm0 4a1 1 0 10.002 2 1 1 0 00-.002-2z"/>
  </g>
</svg>
