<svg xmlns="http://www.w3.org/2000/svg" width="24" height="24" viewBox="0 0 24 24">
  <g fill="none" fill-rule="evenodd">
    <path fill="#324558" fill-rule="nonzero" d="M18.326 10.365c-.812 0-1.625.308-2.239.921l-1.342 1.343 1.493 1.492-1.546 1.546-1.493-1.492-1.334 1.334a3.182 3.182 0 000 4.478c.614.613 1.43.927 2.239.927.808 0 1.625-.314 2.239-.927l1.334-1.334-1.493-1.493 1.57-1.569-1.494-1.493 1.32-1.319a1.04 1.04 0 011.493 0 1.04 1.04 0 010 1.493l-1.312 1.31 1.493 1.493 1.311-1.31a3.182 3.182 0 000-4.479 3.158 3.158 0 00-2.239-.921zm-3.649 5.317l1.493 1.492-1.32 1.32c-.211.212-.474.31-.746.31s-.535-.098-.746-.31a1.04 1.04 0 010-1.493l1.32-1.32z"/>
    <path fill="#B6C2CD" d="M7.287 15.197c.273 1.785.744 3.308 1.371 4.383a8.484 8.484 0 01-5.278-4.383h3.907zm2.148-.001a5.242 5.242 0 00-.492 1.11c-.08-.35-.153-.721-.218-1.11h.71zM7.117 9.085a26.46 26.46 0 00-.102 2.35c0 .81.035 1.598.102 2.351H2.831a8.467 8.467 0 01-.331-2.35c0-.816.115-1.605.33-2.351h4.287zm6.268 0c.057.582.095 1.19.108 1.817l-2.884 2.884h-2.07a23.976 23.976 0 010-4.701h4.846zm2.034 0a5.29 5.29 0 00-.468.372l-.106.098a24.818 24.818 0 00-.038-.47h.612zM8.659 3.29C8.03 4.366 7.56 5.889 7.286 7.675H3.38A8.484 8.484 0 018.658 3.29zm4.607 0a8.484 8.484 0 015.279 4.384h-3.907c-.274-1.786-.745-3.309-1.372-4.384zM10.962 3c.854 0 1.775 1.9 2.237 4.675H8.725C9.187 4.899 10.108 3 10.962 3z"/>
  </g>
</svg>
