<svg xmlns="http://www.w3.org/2000/svg" width="24" height="24" viewBox="0 0 24 24">
  <path d="M5.79291 9.20718L8.8358 12.2501L5.79291 15.293L7.20712 16.7072L11.6642 12.2501L7.20712 7.79297L5.79291 9.20718Z" fill="currentColor"/>
  <path d="M18 14.5001H12V16.5001H18V14.5001Z" fill="currentColor"/>
  <path  fill-rule="evenodd" clip-rule="evenodd" d="M3 4C2.44772 4 2 4.44772 2 5V19C2 19.5523 2.44772 20 3 20H21C21.5523 20 22 19.5523 22 19V5C22 4.44772 21.5523 4 21 4H3ZM8.8358 12.25L5.79291 9.20706L7.20712 7.79285L11.6642 12.25L7.20712 16.7071L5.79291 15.2928L8.8358 12.25ZM12 14.5H18V16.5H12V14.5Z" />
</svg>
