<svg xmlns="http://www.w3.org/2000/svg" width="24" height="24" viewBox="0 0 24 24">
  <g fill="none" fill-rule="evenodd">
    <path fill="#324558" d="M9.358 5.423A7.05 7.05 0 0111 4.984V3h2v1.984c.572.08 1.123.23 1.642.44l.992-1.718 1.732 1-.992 1.718c.447.352.85.755 1.202 1.202l1.718-.992 1 1.732-1.717.992c.209.52.358 1.07.439 1.642H21v2h-1.984a7.037 7.037 0 01-.44 1.642l1.718.992-1 1.732-1.718-.992c-.352.447-.755.85-1.202 1.202l.992 1.718-1.732 1-.992-1.717a7.05 7.05 0 01-1.642.439V21h-2v-1.984a7.037 7.037 0 01-1.642-.44l-.992 1.718-1.732-1 .992-1.718a7.128 7.128 0 01-1.202-1.202l-1.718.992-1-1.732 1.717-.992A7.037 7.037 0 014.984 13H3v-2h1.984c.08-.572.23-1.123.44-1.642l-1.718-.992 1-1.732 1.718.992c.352-.447.755-.85 1.202-1.202l-.992-1.718 1.732-1 .992 1.717zM12 17a5 5 0 100-10 5 5 0 000 10z"/>
    <circle cx="12" cy="12" r="3" fill="#B6C2CD"/>
  </g>
</svg>
