<svg xmlns="http://www.w3.org/2000/svg" width="24" height="24" viewBox="0 0 24 24">
  <g fill="none" fill-rule="evenodd">
    <path fill="#B6C2CD" d="M11.324 16.412l1.531 1.278c.382 4.615-5.262 5.644-7.521 2.503 3.822.317 2.453-3.744 5.99-3.781zm9.79-10.95c.432-.363 1.041.107.85.6l-.057.111c-.29.492-3.714 6.305-4.853 8.091-.776 1.22-1.275 1.502-2.471 1.993l-.858.349-1.4-1.167.188-.908c.252-1.202.433-1.752 1.349-2.645l.386-.362c1.845-1.696 6.865-6.061 6.865-6.061z"/>
    <path fill="#324558" d="M18.323 15.36c2.289 2.934-.733 5.972-4.993 6.545l-.229.028.038-.036c.667-.724 1.42-1.957 1.402-3.823l.675-.275c1.275-.527 2.126-.978 3.107-2.44zM11.919 2c3.364-.027 5.982 1.485 6.815 3.325l-3.29 2.89a156.2 156.2 0 00-2.56 2.301c-1.617 1.51-1.761 2.52-2.123 4.26-2.25.238-3.15 1.773-3.706 2.718-.725 1.235-1.356 1.303-2.705.945A9.963 9.963 0 012 12.077C1.956 6.554 6.4 2.047 11.92 2zm-5.737 8.964c-.918.01-1.66.759-1.65 1.68a1.665 1.665 0 103.33-.025 1.667 1.667 0 00-1.68-1.655zm1.67-4.998a1.667 1.667 0 00.027 3.332 1.665 1.665 0 001.649-1.68A1.66 1.66 0 007.85 5.967zM12.847 4.3a1.661 1.661 0 00-1.653 1.679c.005.92.758 1.66 1.678 1.653a1.67 1.67 0 001.655-1.68 1.672 1.672 0 00-1.68-1.652z"/>
  </g>
</svg>
