<svg xmlns="http://www.w3.org/2000/svg" width="24" height="24" viewBox="0 0 24 24">
  <g fill="none" fill-rule="evenodd">
    <path fill="#B6C2CD" d="M2.888 5h3.554c.49 0 .888.448.888 1v12c0 .552-.398 1-.888 1H2.888C2.398 19 2 18.552 2 18V6c0-.552.398-1 .888-1z"/>
    <path fill="#324558" d="M17.558 5h3.554c.49 0 .888.448.888 1v12c0 .552-.398 1-.888 1h-3.554c-.49 0-.888-.448-.888-1V6c0-.552.398-1 .888-1z"/>
    <path fill="#B6C2CD" d="M10.223 5h3.554c.49 0 .888.448.888 1v12c0 .552-.398 1-.888 1h-3.554c-.49 0-.888-.448-.888-1V6c0-.552.398-1 .888-1z"/>
  </g>
</svg>
