<svg xmlns="http://www.w3.org/2000/svg" width="24" height="24" viewBox="0 0 24 24">
  <g fill="none" fill-rule="evenodd" transform="translate(3 3)">
    <rect width="8" height="8" x="10" y="10" fill="#B6C2CD" rx="1"/>
    <path fill="#324558" d="M8.1 9v8.094c0 .5-.401.906-.898.906H.898A.902.902 0 010 17.094V.906C0 .405.401 0 .898 0h6.304c.496 0 .898.405.898.906V9zM9.9.898c0-.496.401-.898.898-.898h6.304c.496 0 .898.401.898.898v6.304a.898.898 0 01-.898.898h-6.304a.897.897 0 01-.898-.898V.898z"/>
  </g>
</svg>
