<svg xmlns="http://www.w3.org/2000/svg" width="24" height="24" fill="none" viewBox="0 0 24 24">
  <path fill="#B6C2CD" d="M20 2H4v20h9.138A7 7 0 0120 10.661V2z"/>
  <path fill="#324558" d="M6 5h8v2H6V5zm0 4h6v2H6V9z"/>
  <path fill="#324558" fill-rule="evenodd" d="M17.063 13.762l.25-1.262h2.374l.25 1.262c.418.155.804.372 1.143.645l1.233-.418 1.187 2.022-.987.843c.035.21.058.425.058.646 0 .22-.023.436-.058.646l.987.843-1.187 2.022-1.233-.418c-.34.273-.725.49-1.143.645l-.25 1.262h-2.374l-.25-1.262a4.082 4.082 0 01-1.143-.645l-1.233.418-1.187-2.022.987-.843a3.937 3.937 0 01-.058-.646c0-.22.023-.436.058-.646l-.987-.843 1.187-2.022 1.233.418c.34-.273.725-.49 1.143-.645zm1.437 5.405a1.667 1.667 0 100-3.334 1.667 1.667 0 000 3.334z" clip-rule="evenodd"/>
</svg>
