<svg xmlns="http://www.w3.org/2000/svg" width="24" height="24" viewBox="0 0 24 24">
  <g fill="none" fill-rule="evenodd">
    <path fill="#324558" d="M5.926 16.654V8.123h-.182L2 9.418v1.5l1.945-.568v6.304h1.98zm8.525 0v-1.523h-3.357l1.101-1.272c.317-.316.602-.615.856-.896s.469-.557.644-.826c.176-.27.31-.54.405-.812.093-.271.14-.555.14-.852 0-.391-.061-.74-.184-1.046a2.002 2.002 0 00-.548-.777 2.465 2.465 0 00-.9-.483A4.195 4.195 0 0011.363 8c-.453 0-.866.075-1.239.226-.373.15-.693.356-.96.618a2.77 2.77 0 00-.622.914 2.83 2.83 0 00-.22 1.107h1.98c0-.191.025-.368.074-.53a1.41 1.41 0 01.205-.425.963.963 0 01.32-.284.853.853 0 01.415-.103c.305 0 .538.096.698.288.16.191.24.47.24.837 0 .22-.078.476-.234.77-.157.296-.416.65-.78 1.064l-2.742 2.883v1.29h5.953zm3.762.117a4.57 4.57 0 001.263-.167 3.063 3.063 0 001.01-.489c.285-.215.51-.478.671-.79.162-.313.243-.669.243-1.067 0-.492-.129-.905-.386-1.24-.258-.333-.614-.582-1.067-.747.2-.093.381-.205.545-.334.164-.128.303-.272.416-.43a1.99 1.99 0 00.264-.507 1.7 1.7 0 00.094-.563 2.36 2.36 0 00-.223-1.051 2.127 2.127 0 00-.624-.762 2.822 2.822 0 00-.964-.466A4.58 4.58 0 0018.213 8c-.383 0-.747.053-1.093.158a2.946 2.946 0 00-.917.457c-.265.2-.476.443-.633.73a2.007 2.007 0 00-.234.975h1.975a.65.65 0 01.085-.334.822.822 0 01.222-.249 1.15 1.15 0 01.665-.214c.172 0 .321.026.448.077a.846.846 0 01.498.512c.042.116.062.238.062.367 0 .335-.088.6-.264.793-.175.194-.447.29-.814.29h-.961v1.471h.96c.38 0 .677.09.892.27.214.18.322.484.322.914 0 .144-.026.28-.076.404a.941.941 0 01-.223.328 1.027 1.027 0 01-.36.22 1.386 1.386 0 01-.906.006 1.089 1.089 0 01-.348-.205c-.1-.088-.179-.19-.238-.308a.84.84 0 01-.087-.38H15.2c0 .292.042.556.126.79a2.237 2.237 0 00.847 1.11c.195.135.404.246.627.332.222.086.454.15.694.193.24.043.48.064.718.064z"/>
    <path fill="#B6C2CD" d="M16 19l-4 4-4-4h8zM12 2l4 4H8l4-4z"/>
  </g>
</svg>
