<svg xmlns="http://www.w3.org/2000/svg" width="24" height="24" viewBox="0 0 24 24">
  <g fill="none" fill-rule="evenodd">
    <path fill="#B6C2CD" d="M20.15 3L3.985 7.21h7.918l5.942-1.547c.252.371.657.61 1.105.649l.235.898h2.062L20.15 3zM2 9.205v11.97h19.95V9.205H2z"/>
    <path fill="#324558" d="M4.905 11.2h14.14c.15.425.485.76.91.91v6.16c-.425.151-.76.485-.91.91H4.905a1.496 1.496 0 00-.91-.91v-6.16c.425-.15.76-.485.91-.91z"/>
    <path fill="#B6C2CD" d="M11.975 12.198a2.993 2.993 0 100 5.985 2.993 2.993 0 000-5.985zm-4.988 1.995a.997.997 0 100 1.994.997.997 0 000-1.994zm9.975 0a.997.997 0 100 1.994.997.997 0 000-1.994z"/>
  </g>
</svg>
