<svg xmlns="http://www.w3.org/2000/svg" width="24" height="24" viewBox="0 0 24 24">
  <g fill="none" fill-rule="evenodd">
    <rect width="18" height="18" x="3" y="3" fill="#B6C2CD" rx="3"/>
    <path fill="#324558" d="M12.7 10.6v2.8h-1.4v-2.8h1.4zM12 8.5c1.233 0 2.316.637 2.94 1.6l-1.028 1.03a2.1 2.1 0 00-3.823-.001l-1.028-1.03A3.497 3.497 0 0112 8.5zm0-2.1a5.59 5.59 0 014.446 2.194l-1.002 1.002A4.195 4.195 0 0012 7.8c-1.425 0-2.685.71-3.444 1.796L7.554 8.594A5.59 5.59 0 0112 6.4zm6.3 7v2.8a1.4 1.4 0 01-1.4 1.4H7.1a1.4 1.4 0 01-1.4-1.4v-2.8h12.6zm-9.1 1.4H7.1v1.4h2.1v-1.4z"/>
    <path fill="#FFF" d="M7.1 14.8h2.1v1.4H7.1z"/>
  </g>
</svg>
