<svg xmlns="http://www.w3.org/2000/svg" width="24" height="24" viewBox="0 0 24 24">
  <g fill="#324558" fill-rule="evenodd">
    <path d="M11 10h2v4h-2z" opacity=".9"/>
    <path d="M12 7c1.761 0 3.31.91 4.2 2.286l-1.47 1.47a3 3 0 00-5.46-.001L7.8 9.286A4.996 4.996 0 0112 7zm0-3a7.987 7.987 0 016.351 3.135l-1.43 1.43A5.993 5.993 0 0012 6a5.993 5.993 0 00-4.92 2.565l-1.43-1.43A7.987 7.987 0 0112 4z" opacity=".9"/>
    <path d="M21 14v4a2 2 0 01-2 2H5a2 2 0 01-2-2v-4h18zM8 16H5v2h3v-2z" opacity=".4"/>
    <path d="M5 16h3v2H5z"/>
  </g>
</svg>
