<svg xmlns="http://www.w3.org/2000/svg" width="24" height="24" viewBox="0 0 24 24">
  <g fill="none" fill-rule="evenodd">
    <path fill="#324558" d="M3 4.012L4 3h16l1 1.012V20.01l-.957.989H4.047L3 20.011v-16zm2 1.775v12.444l.814.769h12.442l.744-.77V5.788L18.222 5H5.778L5 5.787z"/>
    <path fill="#B6C2CD" d="M5 5.787L5.778 5h12.444l.778.787v12.444l-.744.769H5.814L5 18.23V5.788zm12.5.713L17 6v1h1l-.5-.5zm-11 0L6 7h1V6l-.5.5zm0 11l.5.5v-1H6l.5.5zm11 0l.5-.5h-1v1l.5-.5zm-8.12-7.412c-.456 0-.804.148-1.044.452-.212.264-.316.612-.316 1.036 0 .432.1.776.304 1.032.232.296.588.448 1.064.448.308 0 .572-.088.792-.264.236-.188.384-.448.448-.784h-.456c-.056.216-.152.38-.288.488a.816.816 0 01-.5.148c-.312 0-.544-.1-.692-.292-.136-.18-.204-.44-.204-.776 0-.328.068-.584.208-.768.152-.208.376-.308.676-.308.2 0 .364.04.492.128.132.088.22.224.268.412h.456a1.054 1.054 0 00-.376-.688c-.216-.176-.496-.264-.832-.264zm1.688.056V13h.468v-1.096h.708c.696 0 1.044-.296 1.044-.884 0-.584-.348-.876-1.036-.876h-1.184zm.468.4h.68c.204 0 .356.036.452.112.096.072.148.192.148.364s-.048.296-.144.372c-.096.072-.248.112-.456.112h-.68v-.96zm2.152-.4v1.772c0 .372.104.656.316.856.2.188.492.284.872.284.376 0 .668-.096.876-.288.208-.196.312-.48.312-.852v-1.772h-.468v1.78c0 .248-.06.428-.172.548-.116.116-.3.176-.548.176-.252 0-.436-.06-.548-.176-.116-.12-.172-.3-.172-.548v-1.78h-.468z"/>
    <path fill="#324558" d="M9.38 10.088c.336 0 .616.088.832.264.208.168.332.4.376.688h-.456a.666.666 0 00-.268-.412c-.128-.088-.292-.128-.492-.128-.3 0-.524.1-.676.308-.14.184-.208.44-.208.768 0 .336.068.596.204.776.148.192.38.292.692.292a.816.816 0 00.5-.148c.136-.108.232-.272.288-.488h.456c-.064.336-.212.596-.448.784-.22.176-.484.264-.792.264-.476 0-.832-.152-1.064-.448-.204-.256-.304-.6-.304-1.032 0-.424.104-.772.316-1.036.24-.304.588-.452 1.044-.452zm1.688.056h1.184c.688 0 1.036.292 1.036.876 0 .588-.348.884-1.044.884h-.708V13h-.468v-2.856zm.468.4v.96h.68c.208 0 .36-.04.456-.112.096-.076.144-.2.144-.372s-.052-.292-.148-.364c-.096-.076-.248-.112-.452-.112h-.68zm2.152-.4h.468v1.78c0 .248.056.428.172.548.112.116.296.176.548.176.248 0 .432-.06.548-.176.112-.12.172-.3.172-.548v-1.78h.468v1.772c0 .372-.104.656-.312.852-.208.192-.5.288-.876.288-.38 0-.672-.096-.872-.284-.212-.2-.316-.484-.316-.856v-1.772zM6.5 6.5L7 6v1H6zm11 0L17 6v1h1zm0 11l-.5.5v-1h1zm-11 0l.5.5v-1H6z"/>
  </g>
</svg>
