<svg xmlns="http://www.w3.org/2000/svg" width="24" height="24" viewBox="0 0 24 24">
  <g fill="none" fill-rule="evenodd">
    <path fill="#B6C2CD" d="M9.5 3h10A1.5 1.5 0 0121 4.5v10a1.5 1.5 0 01-1.5 1.5h-10A1.5 1.5 0 018 14.5v-10A1.5 1.5 0 019.5 3z"/>
    <path fill="#324558" d="M5 8h9a2 2 0 012 2v9a2 2 0 01-2 2H5a2 2 0 01-2-2v-9a2 2 0 012-2zm.79 5.555l-.842-.18 1.093 1.683 1.682-1.093-.97-.206a3.042 3.042 0 11.372 2.347l-.834.521a4.025 4.025 0 10-.5-3.073zm3.384-1.172v2.135c0 .261.103.511.288.696l1.331 1.33.695-.694-1.33-1.332v-2.135h-.984z"/>
    <path fill="#FFF" fill-rule="nonzero" d="M5.79 13.555a4.025 4.025 0 11.501 3.072l.834-.52a3.042 3.042 0 10-.372-2.347l.97.205-1.682 1.093-1.093-1.682.843.179z"/>
    <path fill="#B6C2CD" d="M9.174 12.383h.983v2.135l1.331 1.332-.695.695-1.331-1.331a.983.983 0 01-.288-.696v-2.135z"/>
  </g>
</svg>
