<svg xmlns="http://www.w3.org/2000/svg" width="24" height="24" viewBox="0 0 24 24">
  <g fill="none" fill-rule="evenodd">
    <path fill="#324558" d="M6.968 16.888h1.984v.992c0 .548.444.992.992.992h7.936a.992.992 0 00.992-.992V8.952h-2.976a.992.992 0 01-.992-.992V4.984h-4.96a.992.992 0 00-.992.992v4.96H6.968V4.984C6.968 3.888 7.856 3 8.952 3h7.695l4.21 4.209v11.663a1.984 1.984 0 01-1.985 1.984h-9.92a1.984 1.984 0 01-1.984-1.984v-1.984z"/>
    <path fill="#B6C2CD" d="M13.904 10.936a1 1 0 011 1v3.952a1 1 0 01-1 1H4a1 1 0 01-1-1v-3.952a1 1 0 011-1h9.904zm-8.864.762a1.82 1.82 0 00-.738.145 1.59 1.59 0 00-.567.415c-.157.18-.278.398-.363.654a2.748 2.748 0 00-.128.866v.232c0 .32.04.608.122.865.08.257.199.475.354.654.155.178.345.316.569.411.223.096.478.144.763.144.263 0 .502-.037.715-.11.212-.073.395-.176.547-.308.153-.132.272-.29.358-.474.086-.185.134-.388.143-.611H5.793c-.008.242-.074.419-.2.53-.124.111-.305.167-.541.167a.811.811 0 01-.356-.07.544.544 0 01-.235-.224 1.18 1.18 0 01-.13-.394 3.509 3.509 0 01-.041-.58v-.238c0-.226.015-.42.045-.581a1.16 1.16 0 01.14-.394.58.58 0 01.234-.223.732.732 0 01.331-.07c.137 0 .252.015.346.047a.58.58 0 01.231.137c.06.06.105.137.133.229.029.092.045.197.049.316h1.025a1.896 1.896 0 00-.155-.612c-.084-.188-.2-.35-.349-.486a1.584 1.584 0 00-.543-.321 2.165 2.165 0 00-.737-.116zm3.896.003a2.38 2.38 0 00-.654.085 1.69 1.69 0 00-.52.24c-.147.104-.261.23-.343.377a1.004 1.004 0 00-.123.496c0 .192.04.36.121.503.082.143.19.269.324.376.135.108.29.2.463.278.174.079.355.149.542.211.16.053.29.103.388.15a.988.988 0 01.23.142.364.364 0 01.11.152.55.55 0 01.028.18c0 .057-.01.11-.03.162a.34.34 0 01-.099.133.5.5 0 01-.171.09.818.818 0 01-.25.034 1.37 1.37 0 01-.322-.033.583.583 0 01-.235-.113.492.492 0 01-.147-.207.87.87 0 01-.05-.315H7.167c0 .168.024.32.072.457a1.268 1.268 0 00.492.643c.114.078.237.142.37.192.13.051.27.089.414.113.144.025.29.037.436.037.238 0 .455-.027.65-.08a1.5 1.5 0 00.497-.23 1.048 1.048 0 00.432-.888c0-.18-.031-.341-.095-.484a1.17 1.17 0 00-.278-.384 1.883 1.883 0 00-.45-.301 4.36 4.36 0 00-.606-.24 4.343 4.343 0 01-.327-.12 1.368 1.368 0 01-.246-.128.593.593 0 01-.155-.147.297.297 0 01-.055-.174.37.37 0 01.038-.166.406.406 0 01.113-.137.546.546 0 01.186-.094.892.892 0 01.258-.034c.1 0 .186.014.26.041a.53.53 0 01.184.113c.05.048.087.106.111.173a.645.645 0 01.037.221h1.025c0-.201-.04-.383-.118-.546a1.225 1.225 0 00-.33-.418 1.513 1.513 0 00-.504-.266 2.096 2.096 0 00-.642-.094zm2.93.059h-1.14l1.424 4.265h1.125l1.436-4.265h-1.149l-.85 3.105-.846-3.105z"/>
    <path fill="#324558" d="M6.815 14.58c-.01.224-.057.427-.143.612a1.404 1.404 0 01-.358.474 1.644 1.644 0 01-.547.308c-.213.073-.452.11-.715.11-.285 0-.54-.048-.763-.144a1.55 1.55 0 01-.569-.411 1.814 1.814 0 01-.354-.654 2.87 2.87 0 01-.122-.865v-.232c0-.32.043-.609.128-.866.085-.256.206-.475.363-.654a1.59 1.59 0 01.567-.415 1.82 1.82 0 01.738-.145c.277 0 .523.039.737.116a1.475 1.475 0 01.892.807c.084.187.136.391.155.612H5.8a1.21 1.21 0 00-.049-.316.543.543 0 00-.133-.229.58.58 0 00-.231-.137 1.104 1.104 0 00-.346-.047.732.732 0 00-.331.07.58.58 0 00-.234.223 1.16 1.16 0 00-.14.394 3.2 3.2 0 00-.045.581v.238c0 .226.014.42.041.58.027.16.07.291.13.394a.55.55 0 00.235.224c.096.047.215.07.356.07.236 0 .417-.056.542-.167.125-.111.191-.288.199-.53h1.022zm2.687.311a.55.55 0 00-.028-.18.364.364 0 00-.11-.152 1.012 1.012 0 00-.23-.142 3.43 3.43 0 00-.388-.15 5.78 5.78 0 01-.542-.21 2.157 2.157 0 01-.463-.279 1.29 1.29 0 01-.324-.376 1.005 1.005 0 01-.121-.503c0-.183.04-.349.123-.496.082-.148.196-.273.343-.377a1.69 1.69 0 01.52-.24c.2-.057.418-.085.654-.085.233 0 .447.031.642.094.195.062.363.151.504.266.14.116.25.255.33.418.079.163.118.345.118.546H9.505a.645.645 0 00-.037-.221.447.447 0 00-.111-.173.53.53 0 00-.185-.113.74.74 0 00-.259-.04.892.892 0 00-.258.033.546.546 0 00-.186.094.406.406 0 00-.113.137.37.37 0 00-.038.166.29.29 0 00.055.174c.036.052.087.1.155.147.067.046.15.089.246.129.097.04.205.08.327.118.226.073.428.153.606.24.178.088.328.19.45.302.122.114.215.242.278.384.064.143.095.304.095.484a1.048 1.048 0 01-.432.888 1.485 1.485 0 01-.498.23 2.46 2.46 0 01-.649.08 2.55 2.55 0 01-.436-.037 2.143 2.143 0 01-.415-.113 1.837 1.837 0 01-.37-.192 1.268 1.268 0 01-.491-.643 1.377 1.377 0 01-.072-.457h1.031c0 .125.017.23.05.315a.492.492 0 00.147.207c.064.053.143.09.235.113.093.022.2.033.321.033a.818.818 0 00.25-.033.5.5 0 00.172-.091.34.34 0 00.098-.133.44.44 0 00.03-.162zm3.21-.026l.85-3.105h1.149l-1.436 4.265H12.15l-1.423-4.265h1.14l.846 3.105z"/>
  </g>
</svg>
