<svg xmlns="http://www.w3.org/2000/svg" width="24" height="24" viewBox="0 0 24 24">
  <g fill="none" fill-rule="evenodd">
    <path fill="#B6C2CD" d="M13.888 12H19a7 7 0 00-14 0h5.112l-.005.015a1.83 1.83 0 00-.033.105l-.002.007A2.004 2.004 0 0012 14.671a2.002 2.002 0 001.928-2.544v-.003a1.986 1.986 0 00-.036-.113L13.888 12zM12 21a9 9 0 110-18 9 9 0 010 18z"/>
    <path fill="#324558" d="M10.072 12.127l.002-.007c.01-.035.02-.07.033-.105L12 5.995l1.892 6.016c.013.037.025.075.035.113l.001.003a2.002 2.002 0 11-3.857 0z"/>
  </g>
</svg>
