<svg xmlns="http://www.w3.org/2000/svg" width="24" height="24" viewBox="0 0 24 24">
  <g fill="none" fill-rule="evenodd">
    <path fill="#B6C2CD" d="M4.382 3H19.59c.83 0 1.382.514 1.382 1.286v15.3c0 .771-.553 1.285-1.382 1.285-.277 0-.415 0-.691-.128l-6.222-3.214a1.335 1.335 0 00-1.382 0l-6.221 3.214c-.692.386-1.521.128-1.936-.514C3 20.1 3 19.843 3 19.586v-15.3C3 3.514 3.553 3 4.382 3z"/>
    <path fill="#324558" d="M7.147 7.757c0 .514.415.9 1.106.9h7.604c.553 0 1.106-.386 1.106-.9s-.553-.9-1.106-.9H8.115c-.553 0-.968.386-.968.9zM8.115 12c-.553 0-.968.386-.968.9s.415 1.029 1.106 1.029h7.604c.553 0 1.106-.386 1.106-1.029 0-.643-.553-.9-1.106-.9H8.115z"/>
  </g>
</svg>
