<svg xmlns="http://www.w3.org/2000/svg" width="24" height="24" viewBox="0 0 24 24">
  <g fill="none" fill-rule="evenodd">
    <path fill="#B6C2CD" d="M16 16v-6a2 2 0 00-2-2H8V4.5A1.5 1.5 0 019.5 3h10A1.5 1.5 0 0121 4.5v10a1.5 1.5 0 01-1.5 1.5H16z"/>
    <path fill="#324558" d="M5 8h9a2 2 0 012 2v9a2 2 0 01-2 2H5a2 2 0 01-2-2v-9a2 2 0 012-2zm1.5 3.4v4.565c0 .97.578 1.86 1.5 2.307L9.5 19v-8l-3 .4zm6 0l-3-.4v8l1.5-.728c.922-.448 1.5-1.337 1.5-2.307V11.4z"/>
    <path fill="#FFF" d="M6.5 11.4l3-.4v8L8 18.272c-.922-.448-1.5-1.337-1.5-2.307V11.4z" opacity=".9"/>
    <path fill="#B6C2CD" d="M12.5 11.4v4.565c0 .97-.578 1.86-1.5 2.307L9.5 19v-8l3 .4z"/>
  </g>
</svg>
