<svg xmlns="http://www.w3.org/2000/svg" width="24" height="24" viewBox="0 0 24 24">
  <g fill="none" fill-rule="evenodd">
    <path fill="#324558" d="M19.94 13.506a.632.632 0 01-.19.458.607.607 0 01-.448.193h-2.231c0 1.159-.223 2.142-.668 2.948l2.073 2.125c.126.128.189.28.189.457a.631.631 0 01-.19.458.587.587 0 01-.448.193.587.587 0 01-.448-.193l-1.973-2.003a1.939 1.939 0 01-.149.132c-.067.054-.206.15-.419.29a6.243 6.243 0 01-.647.37c-.22.11-.492.208-.817.296a3.692 3.692 0 01-.966.132v-9.109h-1.276v9.109a3.84 3.84 0 01-1.01-.137 4.023 4.023 0 01-.868-.336 8.132 8.132 0 01-.657-.396 3.56 3.56 0 01-.433-.33l-.15-.143-1.823 2.104a.631.631 0 01-.478.214.64.64 0 01-.428-.163.658.658 0 01-.205-.452.656.656 0 01.155-.473l2.012-2.308c-.385-.772-.578-1.7-.578-2.785H4.638a.607.607 0 01-.449-.193.632.632 0 01-.189-.458c0-.176.063-.329.19-.457a.607.607 0 01.448-.193h2.231v-2.99L5.146 8.109a.632.632 0 01-.19-.457c0-.176.064-.329.19-.458A.607.607 0 015.594 7c.173 0 .322.065.448.193l1.724 1.759h8.408l1.724-1.759A.607.607 0 0118.346 7c.173 0 .322.065.448.193.127.129.19.282.19.458a.632.632 0 01-.19.457l-1.723 1.759v2.989h2.231c.173 0 .323.064.449.193.126.128.19.281.19.457z"/>
    <path fill="#B6C2CD" d="M15.376 7.253H9c0-.901.31-1.669.932-2.303A3.042 3.042 0 0112.188 4c.883 0 1.636.317 2.257.95.62.634.931 1.402.931 2.303z"/>
  </g>
</svg>
