<svg xmlns="http://www.w3.org/2000/svg" width="24" height="24" viewBox="0 0 24 24">
  <g fill="none" fill-rule="evenodd">
    <path fill="#B6C2CD" d="M20.34 13.746c-1.025-.51-1.333-.919-1.333-1.736 0-.766.308-1.175 1.333-1.736.564-.358.615-.664.615-1.175V6.19c0-.92-.769-1.686-1.691-1.686H4.704c-.924 0-1.693.766-1.693 1.685V9.1c0 .46.052.868.616 1.175.41.204 1.333.715 1.333 1.736 0 1.123-.667 1.48-1.282 1.685h-.051c-.564.358-.616.92-.616 1.175v2.91c0 .92.77 1.686 1.692 1.686h14.56c.923 0 1.692-.766 1.692-1.685V14.87c0-.562-.205-.766-.615-1.124z"/>
    <path fill="#324558" d="M14.7 12.725c.308 0 .565.255.565.562a.568.568 0 01-.564.561h-2.154v2.145a.568.568 0 01-.564.562.568.568 0 01-.564-.562v-2.145H9.266a.568.568 0 01-.564-.561c0-.307.256-.562.564-.562h2.153v-1.328H9.112a.568.568 0 01-.564-.562c0-.306.257-.561.564-.561h1.692L9.01 8.486a.554.554 0 010-.766.56.56 0 01.769 0l2.204 2.196 2.205-2.196a.56.56 0 01.769 0 .554.554 0 010 .766l-1.794 1.788h1.64c.308 0 .564.255.564.561a.568.568 0 01-.564.562h-2.307v1.328h2.205z"/>
  </g>
</svg>
