<svg xmlns="http://www.w3.org/2000/svg" width="24" height="24" viewBox="0 0 24 24">
  <g fill="none">
    <path fill="#324558" d="M7.897 10.61c.187 0 .316.048.385.143.071.096.107.23.107.405v2.136c0 .19-.038.33-.113.42-.073.09-.2.134-.379.134h-.292V10.61h.292zm3.469-.598h-.61v4.434h.634V11.78h.013l.97 2.665h.6v-4.434h-.637v2.672h-.011l-.96-2.672zm-3.456 0h-.941v4.434h.885c.377 0 .667-.099.868-.296.2-.197.303-.504.303-.918v-2.074c0-.365-.096-.648-.285-.847-.188-.2-.466-.299-.83-.299zm7.79-.037c-.187 0-.348.032-.483.096a.946.946 0 00-.334.259c-.09.108-.16.236-.205.386a1.61 1.61 0 00-.068.473c0 .278.047.51.14.694.093.185.276.334.551.446l.454.186c.079.034.143.065.19.094a.325.325 0 01.115.112.473.473 0 01.05.18l.007.082.006.205c0 .1-.003.19-.009.27a.492.492 0 01-.06.21.352.352 0 01-.14.133.56.56 0 01-.253.047c-.161 0-.276-.047-.345-.14a.527.527 0 01-.102-.315v-.199h-.636v.236c0 .15.029.288.085.415a1.022 1.022 0 00.569.557c.133.054.277.081.43.081.204 0 .376-.033.516-.1a.9.9 0 00.344-.273c.083-.113.142-.25.18-.408.038-.16.055-.333.055-.52 0-.162-.008-.306-.023-.433a1.179 1.179 0 00-.094-.34.821.821 0 00-.205-.252 1.219 1.219 0 00-.343-.19l-.486-.193a1.014 1.014 0 01-.197-.1.333.333 0 01-.108-.118.396.396 0 01-.046-.155 2.069 2.069 0 01-.01-.218c0-.075.007-.147.019-.215a.525.525 0 01.067-.184.41.41 0 01.132-.124.396.396 0 01.21-.05c.163 0 .28.053.347.159a.67.67 0 01.103.376v.144h.634v-.312a.965.965 0 00-.285-.685 1.115 1.115 0 00-.34-.23 1.054 1.054 0 00-.432-.087zm4.462-.718c.573 0 1.037.465 1.037 1.037v4.152c0 .574-.464 1.038-1.037 1.038H3.556a1.038 1.038 0 01-1.038-1.038v-4.152c0-.572.466-1.037 1.038-1.037h16.606z"/>
    <path fill="#B6C2CD" d="M3.49 8.19a9.369 9.369 0 015.826-4.84c-.692 1.187-1.212 2.868-1.514 4.84H3.49zm16.739 0h-4.312c-.302-1.972-.822-3.653-1.515-4.84a9.366 9.366 0 015.827 4.84m-10.839 0c.51-3.065 1.527-5.16 2.47-5.16.942 0 1.96 2.095 2.468 5.16H9.39zm-5.9 8.302h4.312c.302 1.97.822 3.652 1.514 4.838a9.36 9.36 0 01-5.826-4.838m16.739 0a9.358 9.358 0 01-5.827 4.838c.693-1.186 1.213-2.867 1.515-4.838h4.312zm-10.839 0h4.938c-.508 3.064-1.526 5.16-2.469 5.16-.942 0-1.96-2.096-2.469-5.16"/>
  </g>
</svg>
