<svg xmlns="http://www.w3.org/2000/svg" width="24" height="24" viewBox="0 0 24 24">
  <path fill="#324558" fill-rule="evenodd" d="M6.014 16.28c-.569 0-1.086-.453-1.086-1.007 0-.554.466-1.007 1.086-1.007.621 0 1.087.453 1.087 1.007 0 .554-.517 1.008-1.087 1.008zm13.348-5.489c-.104-.805-.621-1.46-1.294-1.964l-.258-.201-.207.252c-.414.453-.57 1.259-.518 1.863.052.453.207.906.466 1.259-.207.1-.466.201-.673.302a4.467 4.467 0 01-1.396.202h-13.4l-.051.302a5.531 5.531 0 00.466 2.87l.207.353v.05C3.945 18.094 6.17 19 8.6 19c4.656 0 8.484-1.964 10.295-6.194 1.19.05 2.38-.252 2.949-1.36l.155-.252-.259-.15c-.672-.404-1.603-.454-2.38-.253zm-6.674-.805H10.67v1.964h2.018V9.986zm0-2.468H10.67v1.964h2.018V7.518zm0-2.518H10.67v1.964h2.018V5zm2.483 4.986h-2.017v1.964h2.017V9.986zm-7.501 0H5.652v1.964H7.67V9.986zm2.535 0H8.187v1.964h2.018V9.986zm-5.018 0H3.169v1.964h2.018V9.986zm5.018-2.468H8.187v1.964h2.018V7.518zm-2.535 0H5.652v1.964H7.67V7.518z"/>
</svg>
