<svg xmlns="http://www.w3.org/2000/svg" width="24" height="24" fill="none" viewBox="0 0 24 24">
  <path fill="#B6C2CD" fill-rule="evenodd" d="M18.906 11.945c0 .313 0 .664-.039.98H7.895c0 1.923 1.66 3.337 3.476 3.337 1.238 0 2.434-.63 3.055-1.727h3.726c-2.047 1.426-2.047 1.426-4.77 3.317.93.648 1.005.703 1.36.953a6.936 6.936 0 01-3.484.914c-1.16 0-2.32-.278-3.363-.824-1.082.546-2.551 1.136-3.747 1.136-1.625 0-2.242-.98-2.242-2.55 0-.903.192-1.77.465-2.633.113-.547.774-1.688 1.043-2.239 1.156-2.117 2.664-4.238 4.52-5.847C6.504 7.39 4.883 9 3.875 10.176c.773-3.492 3.867-6.008 7.383-6.008h.46c1.16-.547 2.821-1.137 4.137-1.137 1.504 0 2.86.59 2.86 2.356 0 .902-.348 1.926-.735 2.789.618 1.136.926 2.472.926 3.77zm-.656-6.164c0-1.101-.773-1.73-1.777-1.73-.813 0-1.7.316-2.434.668a7.529 7.529 0 013.707 3.14c.274-.629.504-1.414.504-2.078zM3.105 17.676c0 1.137.657 1.726 1.739 1.726.847 0 1.777-.351 2.511-.824a7.555 7.555 0 01-3.324-4.121c-.426.941-.926 2.2-.926 3.219zm4.79-6.871h6.878c-.039-1.844-1.703-3.18-3.441-3.18-1.777 0-3.398 1.336-3.437 3.18zm0 0"/>
  <path fill="#324558" fill-rule="evenodd" d="M18.5 18.816c.332-.003 1.184.012 1.738.278a3.471 3.471 0 011.262 1.058c.11.157.371.594.371.594s.035-.715-.168-1.508c-.207-.797-.7-1.46-1.098-1.707 0 0-.375-.343-1.058-.492-.3-.062-.805-.113-1.047-.133V15.5c-.012.008-.027.02-.04.027l-3.335 2.325 3.375 2.355zm0 0"/>
</svg>
