<svg xmlns="http://www.w3.org/2000/svg" width="48" height="48" fill="none" viewBox="0 0 48 48">
  <path fill="#324558" fill-rule="evenodd" d="M41.999 20.045a2.003 2.003 0 00-2-2.007h-32c-1.102 0-2 .9-2 2.007v8.025c0 1.11.898 2.006 2 2.006h32c1.106 0 2-.897 2-2.006v-8.025zm-25.7 5.437l1.008-4.391h1.388l-1.728 6.36h-1.172l-1.36-4.367L13.1 27.45h-1.172l-1.735-6.36h1.389l1.025 4.343 1.301-4.343h1.072l1.319 4.39zm9.718 0l1.008-4.391h1.388l-1.728 6.36h-1.172l-1.36-4.367-1.335 4.367h-1.172l-1.735-6.36H21.3l1.025 4.343 1.301-4.343h1.072l1.319 4.39zm10.726-4.391l-1.008 4.39-1.319-4.39h-1.072l-1.3 4.343-1.026-4.343h-1.389l1.735 6.36h1.171l1.337-4.367 1.359 4.367h1.172l1.728-6.36h-1.388z" clip-rule="evenodd"/>
  <path fill="#B6C2CD" fill-rule="evenodd" d="M7.871 15.975C10.11 11.459 14.175 8.016 19.1 6.62c-1.334 2.295-2.336 5.545-2.918 9.355h-8.31zm32.257 0h-8.31c-.582-3.81-1.584-7.06-2.918-9.355a18.063 18.063 0 0111.228 9.355zm-20.886 0C20.224 10.053 22.184 6 24 6c1.816 0 3.778 4.053 4.758 9.975h-9.516zM7.871 32.025h8.31c.582 3.81 1.584 7.06 2.918 9.353-4.924-1.392-8.99-4.837-11.228-9.353zm32.257 0c-2.236 4.516-6.304 7.96-11.228 9.353 1.334-2.293 2.336-5.543 2.918-9.353h8.31zm-20.886 0h9.516C27.778 37.947 25.816 42 24 42c-1.816 0-3.776-4.053-4.758-9.975z" clip-rule="evenodd"/>
</svg>
