<svg width="24" height="24" viewBox="0 0 24 24" fill="none" xmlns="http://www.w3.org/2000/svg">
<path fill-rule="evenodd" clip-rule="evenodd" d="M6.57007 9.00076L11.9701 5.99976L17.3701 9.00076V12.0327C14.3578 12.347 12.0084 14.8901 12.0001 17.9837L11.9911 17.9888L11.9811 12.8708L6.57007 9.88276V9.00076Z" fill="#B6C2CD"/>
<path fill-rule="evenodd" clip-rule="evenodd" d="M12 2L3 6.999V16.999L12 22L13.0623 21.4097C12.6842 20.8631 12.3945 20.2508 12.2138 19.5932L12 19.712L5 15.823V8.17702L12 4.28802L19 8.17702V12.083C19.7179 12.2034 20.3926 12.4513 21 12.8027V6.999L12 2ZM6.56995 14.9997L10.5009 17.1837L10.4959 13.7497L6.56995 11.5837V14.9997Z" fill="#324558"/>
<path fill-rule="evenodd" clip-rule="evenodd" d="M15.8601 18.6675V19.8503L15.3803 20.8099C14.9289 20.8372 14.5767 21.2111 14.5762 21.6633C14.5762 22.136 14.9594 22.5192 15.4321 22.5192C15.9048 22.5192 16.2881 22.136 16.2881 21.6633C16.2879 21.4956 16.2385 21.3317 16.146 21.1919L16.716 20.0525V18.6675H15.8601ZM17.5721 18.6675V20.9235C17.3078 21.0762 17.1447 21.358 17.1442 21.6633C17.1442 22.136 17.5274 22.5192 18.0001 22.5192C18.4728 22.5192 18.8561 22.136 18.8561 21.6633C18.8558 21.3577 18.6927 21.0755 18.4281 20.9227V18.6675H17.5721ZM19.284 18.6675V20.0525L19.8541 21.1927C19.7617 21.3323 19.7123 21.4959 19.712 21.6633C19.712 22.136 20.0952 22.5192 20.5679 22.5192C21.0406 22.5192 21.4239 22.136 21.4239 21.6633C21.4234 21.2111 21.0712 20.8372 20.6197 20.8099L20.1399 19.8503V18.6675H19.284Z" fill="#324558"/>
<path fill-rule="evenodd" clip-rule="evenodd" d="M18 13.5193C17.0195 13.5193 16.1001 14.0063 15.5424 14.8049C14.0561 14.8597 12.8643 16.0858 12.8643 17.585C12.8643 18.7958 13.643 19.8251 14.7249 20.2064L15.0041 19.6488V17.8116H20.9958V19.6488L21.3226 20.3017C22.3604 20.0564 23.1356 19.1249 23.1356 18.013C23.1356 16.7445 22.1269 15.7071 20.8696 15.6608C20.4989 14.3992 19.3476 13.5193 18 13.5193Z" fill="#B6C2CD"/>
</svg>
