<svg xmlns="http://www.w3.org/2000/svg" width="24" height="24" viewBox="0 0 24 24">
  <g fill="none" fill-rule="evenodd">
    <path fill="#324558" d="M7.72 13.335V15.7l-.96 1.92a1.712 1.712 0 101.532.764l1.14-2.279v-2.77H7.72zm3.424 0v4.512a1.712 1.712 0 00-.856 1.48 1.712 1.712 0 102.568-1.482v-4.51h-1.712zm3.424 0v2.77l1.14 2.28a1.712 1.712 0 101.531-.766l-.96-1.919v-2.365h-1.711z"/>
    <path fill="#B6C2CD" d="M12 3.038c-1.961 0-3.8.974-4.915 2.572a5.57 5.57 0 00-5.356 5.56c0 2.421 1.557 4.48 3.721 5.243l.558-1.115v-3.675h11.984v3.675l.653 1.305a4.711 4.711 0 003.626-4.577 4.713 4.713 0 00-4.532-4.704A5.955 5.955 0 0012 3.038z"/>
  </g>
</svg>
