<svg xmlns="http://www.w3.org/2000/svg" width="24" height="24" viewBox="0 0 24 24">
  <g fill="none" fill-rule="evenodd">
    <path fill="#B6C2CD" d="M17 13h3a1 1 0 011 1v6a1 1 0 01-1 1h-6a1 1 0 01-1-1v-3h-2v3a1 1 0 01-1 1H4a1 1 0 01-1-1v-6a1 1 0 011-1h3v-2H4a1 1 0 01-1-1V4a1 1 0 011-1h6a1 1 0 011 1v3h2V4a1 1 0 011-1h6a1 1 0 011 1v6a1 1 0 01-1 1h-3v2z"/>
    <path fill="#324558" d="M9 11a3 3 0 115.422 1.77L12 16.571 9.578 12.77A2.987 2.987 0 019 11zm3 1.286a1.286 1.286 0 100-2.572 1.286 1.286 0 000 2.572z"/>
  </g>
</svg>
