<svg xmlns="http://www.w3.org/2000/svg" width="24" height="24" viewBox="0 0 24 24">
  <g fill="none" fill-rule="evenodd">
    <path fill="#324558" d="M19 3a2 2 0 012 2v14a2 2 0 01-2 2H5a2 2 0 01-2-2V5a2 2 0 012-2h14zm-1 2H6a1 1 0 00-1 1v12a1 1 0 001 1h12a1 1 0 001-1V6a1 1 0 00-1-1z"/>
    <path fill="#B6C2CD" d="M6 5h12a1 1 0 011 1v12a1 1 0 01-1 1H6a1 1 0 01-1-1V6a1 1 0 011-1z"/>
    <path fill="#324558" d="M9 8v8H7V8h2zm4.997 0a3.003 3.003 0 010 6.007L12 14.006V16h-2v-1.994.001V8h3.997zM14 10l-2-.001v2L14 12a1 1 0 100-2z"/>
  </g>
</svg>
