<svg xmlns="http://www.w3.org/2000/svg" width="24" height="24" viewBox="0 0 24 24">
  <g fill="none" fill-rule="evenodd">
    <path fill="#324558" d="M19 13v5.5a.5.5 0 01-.5.5H13v-1h4a1 1 0 001-1v-4h1zm1 0a1 1 0 011 1v6a1 1 0 01-1 1h-6a1 1 0 01-1-1h6a1 1 0 001-1v-6zm-7-8h5.5a.5.5 0 01.5.5V11h-1V7a1 1 0 00-1-1h-4V5zm0-1a1 1 0 011-1h6a1 1 0 011 1v6a1 1 0 01-1 1V5a1 1 0 00-1-1h-6zm-2 15H5.5a.5.5 0 01-.5-.5V13h1v4a1 1 0 001 1h4v1zm0 1a1 1 0 01-1 1H4a1 1 0 01-1-1v-6a1 1 0 011-1v6a1 1 0 001 1h6zm-6-9V5.5a.5.5 0 01.5-.5H11v1H7a1 1 0 00-1 1v4H5zm-1 0a1 1 0 01-1-1V4a1 1 0 011-1h6a1 1 0 011 1H5a1 1 0 00-1 1v6z"/>
    <rect width="10" height="10" x="7" y="7" fill="#B6C2CD" rx="1"/>
    <path fill="#324558" d="M9 11a3 3 0 115.422 1.77L12 16.571 9.578 12.77A2.987 2.987 0 019 11zm3 1.286a1.286 1.286 0 100-2.572 1.286 1.286 0 000 2.572z"/>
  </g>
</svg>
