<svg xmlns="http://www.w3.org/2000/svg" width="24" height="24" viewBox="0 0 24 24">
  <g fill="none" fill-rule="evenodd">
    <path fill="#B6C2CD" d="M15.728 3L21 8.272v7.456L15.728 21H8.272L3 15.728V8.272L8.272 3h7.456zm-2.314 9l3.466-3.466-1.414-1.414L12 10.586 8.536 7.122 7.122 8.536 10.586 12 7.12 15.466l1.414 1.414L12 13.414l3.464 3.464 1.414-1.414L13.414 12z"/>
    <path fill="#324558" d="M13.414 12l3.464 3.464-1.414 1.414L12 13.414 8.534 16.88 7.12 15.466 10.586 12 7.122 8.536l1.414-1.414L12 10.586l3.466-3.466 1.414 1.414z"/>
  </g>
</svg>
