<svg xmlns="http://www.w3.org/2000/svg" width="24" height="24" viewBox="0 0 24 24">
  <g fill="none" fill-rule="evenodd">
    <path fill="#324558" d="M4.29 10.203v1.602H1.089v-1.602H4.29zm17.616 0v1.602h-3.202v-1.602h3.202zm-3.614-7.125l1.132 1.133-2.265 2.265-1.132-1.133 2.265-2.265zm-13.589 0l2.265 2.264-1.133 1.132L3.571 4.21l1.132-1.133zM12.298.594v3.203h-1.602V.595h1.602z"/>
    <path fill="#B6C2CD" d="M17.102 11.004a5.605 5.605 0 10-11.21 0v7.206H2.69v3.203h17.616V18.21h-3.203v-7.206z"/>
    <path fill="#324558" d="M12 7.053v1.543a3.915 3.915 0 00-2.82 2.193H7.511v-.012a4.755 4.755 0 014.415-3.722L12 7.053z"/>
  </g>
</svg>
