<svg xmlns="http://www.w3.org/2000/svg" width="24" height="24" viewBox="0 0 24 24">
  <g fill="none" fill-rule="evenodd">
    <path fill="#B6C2CD" d="M13.333 13.222L12 16.73l-1.334-3.511c.447.035.893.052 1.332.052.44 0 .886-.016 1.335-.049zm4.231-.851l-.188 3.835-2.538-3.156a15.194 15.194 0 002.726-.679zm3.239-1.971l1.118 3.403-3.252-1.892c.842-.407 1.575-.91 2.134-1.511zM9.18 13.038l-2.547 3.168-.19-3.878a15.14 15.14 0 002.738.71zm-3.79-1.156l-3.302 1.92L3.22 10.36c.57.6 1.315 1.108 2.17 1.523z"/>
    <path fill="#324558" d="M2.034 7.544c2.497 2.697 6.167 3.128 9.966 3.128 3.799 0 7.365-.35 9.96-3.128 0 3.969-5.372 5.727-9.962 5.727-4.591 0-9.964-1.92-9.964-5.727z"/>
  </g>
</svg>
