<svg xmlns="http://www.w3.org/2000/svg" width="24" height="24" viewBox="0 0 24 24">
  <g fill="none" fill-rule="evenodd">
    <path fill="#B6C2CD" d="M12 3a9 9 0 110 18 9 9 0 010-18zm3.536 4.05L12 10.586 8.464 7.05 7.05 8.464 10.586 12 7.05 15.536l1.414 1.414L12 13.414l3.536 3.536 1.414-1.414L13.414 12l3.536-3.536-1.414-1.414z"/>
    <path fill="#324558" d="M15.536 7.05l1.414 1.414L13.414 12l3.536 3.536-1.414 1.414L12 13.414 8.464 16.95 7.05 15.536 10.586 12 7.05 8.464 8.464 7.05 12 10.586l3.536-3.536z"/>
  </g>
</svg>
