<svg xmlns="http://www.w3.org/2000/svg" width="24" height="24" viewBox="0 0 24 24">
  <g fill="none" fill-rule="evenodd">
    <path fill="#324558" d="M15.57 5.247l-.013-.218c-.03-.006-.059-.018-.09-.018H9.802a.536.536 0 00-.534.535v2.788c0 .297.24.537.534.537h4.576c1.277-1.59 1.193-3.603 1.191-3.624z"/>
    <path fill="#324558" fill-rule="nonzero" d="M2.703 8.87h5.15a.54.54 0 00.538-.536V5.546a.538.538 0 00-.538-.535h-5.15a.536.536 0 00-.535.535v2.788c0 .297.24.537.535.537z"/>
    <path fill="#324558" d="M11.363 13.553c.215-1.48 1.27-2.793 2.223-3.82a.56.56 0 00-.2-.038H2.543a.536.536 0 00-.535.533v2.793c0 .295.241.534.535.534h8.819v-.002zm-3.51.815h-5.15a.536.536 0 00-.535.534v2.792c0 .293.24.535.535.535h5.15a.54.54 0 00.538-.535v-2.792a.538.538 0 00-.538-.534zm3.615.747a3.757 3.757 0 01-.133-.746H9.802a.538.538 0 00-.534.535v2.792c0 .293.24.534.534.534h4.065a5.343 5.343 0 01-2.4-3.115z"/>
    <path fill="#B6C2CD" d="M21.86 12.531c-.485-4.635-5.576-7.298-5.576-7.298s.146 2.518-1.617 4.357c-1.491 1.557-3.093 3.375-2.507 5.378a4.72 4.72 0 003.372 3.272c-.352-1.26-.68-2.236.45-3.582 1.25-1.493 1.682-2.96 1.682-2.96.185.018 2.376 3.397.893 6.1 1.601-.738 3.615-2.271 3.304-5.267z"/>
  </g>
</svg>
