<svg xmlns="http://www.w3.org/2000/svg" width="24" height="24" viewBox="0 0 24 24">
  <g fill="none">
    <path fill="#B6C2CD" d="M11.971 23.647c3.846 0 8.779-2.72 8.779-8.745 0-4.017-2.926-8.651-8.779-13.902C6.157 6.25 3.25 10.885 3.25 14.902c0 6.025 4.876 8.745 8.721 8.745z"/>
    <path fill="#324558" d="M9.912 8.795c.143-.84 1.28-.936 1.59-.193l.038.107 1.997 7.087 1.167-2.563a.836.836 0 01.653-.483l.107-.007H18.5v1.671h-2.498l-1.889 4.153c-.307.676-1.257.636-1.53-.016l-.035-.103-1.612-5.717-.642 3.771c-.132.771-1.137.94-1.53.31l-.051-.096-1.106-2.365H5.5v-1.67h2.64c.289 0 .554.148.706.387l.051.094.197.423.818-4.79z"/>
  </g>
</svg>
