<svg xmlns="http://www.w3.org/2000/svg" width="24" height="24" viewBox="0 0 24 24">
  <g fill="none" fill-rule="evenodd">
    <path fill="#B6C2CD" d="M11.615 16.028l2.17 2.17.14-.14C13.4 19.868 12.68 21 12 21h.012-.025c-.876-.018-1.814-1.905-2.317-4.69l-.049-.282h1.994zm-3.524 0c.29 1.9.792 3.52 1.459 4.662a9.02 9.02 0 01-5.615-4.662h4.156zm11.973 0a9.02 9.02 0 01-5.614 4.662c.668-1.143 1.168-2.763 1.46-4.662h4.154zm-12.153-6.5a28.023 28.023 0 00-.11 2.5c0 .861.038 1.698.11 2.5H3.35a9.005 9.005 0 01-.351-2.5c0-.868.123-1.706.352-2.5H7.91zm12.737 0c.225.78.348 1.603.352 2.454v.092l-.007.324a8.988 8.988 0 01-.345 2.13H16.09c.072-.802.11-1.639.11-2.5 0-.86-.038-1.698-.11-2.5h4.56zM9.55 3.365C8.882 4.51 8.382 6.13 8.09 8.028H3.936A9.027 9.027 0 019.55 3.365zm4.9 0a9.027 9.027 0 015.614 4.663H15.91c-.29-1.899-.792-3.519-1.459-4.663zM12 3.056c.88 0 1.824 1.892 2.33 4.69l.048.282h-2.773l-.998-1-.983.983c.492-2.942 1.47-4.955 2.376-4.955z"/>
    <path fill="#324558" fill-rule="nonzero" d="M10.609 7.028L8.002 9.635h1.955v4.563h1.304V9.635h1.956l-2.608-2.607zm3.83 8.563v-4.563h-1.304v4.563h-1.956l2.608 2.607 2.608-2.607h-1.956z"/>
  </g>
</svg>
