<svg xmlns="http://www.w3.org/2000/svg" width="24" height="24" viewBox="0 0 24 24">
  <g fill="none" fill-rule="evenodd">
    <path fill="#B6C2CD" d="M12 13.72c.217-.151.458-.274.718-.36l2.285-.762h2.799l2.284.762A2.799 2.799 0 0122 16.015v3.06c-1.676.332-3.58.52-5.598.52-1.552 0-3.037-.11-4.402-.314.41-.06.809-.13 1.195-.206v-3.06A2.8 2.8 0 0012 13.72zm4.402-9.315a2.77 2.77 0 012.753 3.074l-.178 1.617a2.59 2.59 0 01-5.149 0L13.65 7.48a2.77 2.77 0 012.753-3.074z"/>
    <path fill="#324558" d="M2 19.075v-3.06c0-1.205.77-2.274 1.914-2.655l2.284-.762h2.8l2.284.762a2.799 2.799 0 011.913 2.655v3.06c-1.676.332-3.58.52-5.597.52-2.018 0-3.922-.188-5.598-.52zm5.598-14.67a2.77 2.77 0 012.753 3.074l-.179 1.617a2.59 2.59 0 01-5.148 0l-.18-1.617a2.77 2.77 0 012.754-3.074z"/>
  </g>
</svg>
