<svg width="16" height="16" viewBox="0 0 16 16" fill="none" xmlns="http://www.w3.org/2000/svg">
<g id="physical/hand_up_duotone">
<g id="UnionS">
<path d="M5 4.99999H9.33333L10.1642 2.50732C10.263 2.21089 10.1427 1.88561 9.87476 1.72484L9.13335 1.27999C8.86173 1.11703 8.51295 1.16768 8.29891 1.40117L5 4.99999Z" fill="#B6C2CD"/>
<path d="M14 4.99999L5 4.99999V13.6667H12.1862C12.4731 13.6667 12.7279 13.483 12.8186 13.2108L14.6667 7.66666V5.66666C14.6667 5.29847 14.3682 4.99999 14 4.99999Z" fill="#B6C2CD"/>
</g>
<path id="Union" d="M1.33333 5.66667C1.33333 5.29848 1.63181 5 2 5H4V13.6667H2C1.63181 13.6667 1.33333 13.3682 1.33333 13V5.66667Z" fill="#324558"/>
</g>
</svg>
