<svg width="16" height="16" viewBox="0 0 16 16" fill="none" xmlns="http://www.w3.org/2000/svg">
<g clip-path="url(#clip0_4919_118304)">
<path d="M9.89729 14.6673C8.9415 13.8724 8.33301 12.6743 8.33301 11.334C8.33301 10.214 8.75789 9.19327 9.45527 8.42416C8.99675 8.36494 8.50997 8.33398 7.99967 8.33398C4.6639 8.33398 2.33301 9.65678 2.33301 11.5508V14.6673H9.89729Z" fill="#B6C2CD"/>
<path d="M10.3337 3.70904C10.3337 2.39733 9.28904 1.33398 8.00043 1.33398C7.91481 1.33398 7.82927 1.33878 7.74417 1.34835C6.46336 1.49242 5.53978 2.66612 5.68131 3.96989L5.83189 5.35705C5.95404 6.48235 6.88822 7.33398 8.00043 7.33398C9.11263 7.33398 10.0468 6.48235 10.169 5.35705L10.3195 3.96989C10.3289 3.88327 10.3337 3.79619 10.3337 3.70904Z" fill="#324558"/>
<path d="M11.3458 9.4105C11.7214 9.15198 12.1765 9.00065 12.667 9.00065C13.9557 9.00065 15.0003 10.0453 15.0003 11.334H14.0003L15.2584 13.4308C15.7224 12.858 16.0003 12.1285 16.0003 11.334C16.0003 9.49304 14.5079 8.00065 12.667 8.00065C11.9884 8.00065 11.3571 8.20345 10.8305 8.55174L11.3458 9.4105Z" fill="#324558"/>
<path d="M10.0756 9.2372C9.61162 9.80992 9.33366 10.5395 9.33366 11.334C9.33367 13.1749 10.826 14.6673 12.667 14.6673C13.3456 14.6673 13.9769 14.4645 14.5035 14.1162L13.9882 13.2575C13.6126 13.516 13.1575 13.6673 12.667 13.6673C11.3783 13.6673 10.3337 12.6227 10.3337 11.334H11.3337L10.0756 9.2372Z" fill="#324558"/>
</g>
<defs>
<clipPath id="clip0_4919_118304">
<rect width="16" height="16" fill="white"/>
</clipPath>
</defs>
</svg>
