<svg xmlns="http://www.w3.org/2000/svg" width="24" height="24" viewBox="0 0 24 24">
  <g fill="none" fill-rule="evenodd">
    <path fill="#B6C2CD" d="M19 4.5a1 1 0 011 1v14a1 1 0 01-1 1H5a1 1 0 01-1-1v-14a1 1 0 011-1h2v2h10v-2h2z"/>
    <path fill="#324558" fill-rule="nonzero" d="M9 3.5h6a1 1 0 011 1v1H8v-1a1 1 0 011-1zm3 10.297c2.339 0 3.973.876 3.973 2.13v1.843H8.027v-1.843c0-1.254 1.634-2.13 3.973-2.13zM12 8.5c1.114 0 1.986.873 1.986 1.986A1.965 1.965 0 0112 12.473a1.965 1.965 0 01-1.986-1.987c0-1.113.872-1.986 1.986-1.986z"/>
  </g>
</svg>
