<svg xmlns="http://www.w3.org/2000/svg" width="24" height="24" viewBox="0 0 24 24">
  <g fill="none" fill-rule="evenodd">
    <path fill="#B6C2CD" d="M19 12.07h-5.468c-.27 0-.49.24-.49.535V17H3a1 1 0 01-1-1V6a1 1 0 011-1h15a1 1 0 011 1v6.07z"/>
    <path fill="#324558" d="M13.532 12.07h6.875c.272 0 .492.24.492.535v5.357H13.04v-5.357c0-.296.22-.536.491-.536z"/>
    <path fill="#B6C2CD" d="M12.06 17.962h9.82l-.152.61a.491.491 0 01-.476.372h-8.564a.491.491 0 01-.476-.372l-.153-.61z"/>
  </g>
</svg>
