<svg xmlns="http://www.w3.org/2000/svg" width="24" height="24" viewBox="0 0 24 24">
  <g fill="none" fill-rule="evenodd">
    <path fill="#324558" d="M8.938 19h6.124c.625 0 .938.287.938.862v.276c0 .575-.313.862-.938.862H8.938C8.313 21 8 20.713 8 20.138v-.276c0-.575.313-.862.938-.862zM4.125 3h15.75C20.496 3 21 3.61 21 4.364V17a1 1 0 01-1 1H4a1 1 0 01-1-1V4.364C3 3.61 3.504 3 4.125 3z"/>
    <path fill="#B6C2CD" d="M9.984 13.688H9V8h.984v5.688zm2.204-2.114v2.114h-.989V8h2.176c.635 0 1.14.165 1.514.496.373.33.56.768.56 1.313 0 .557-.183.99-.549 1.3-.365.31-.878.465-1.537.465h-1.175zm0-.793h1.187c.352 0 .62-.082.805-.248.185-.165.277-.404.277-.717 0-.307-.094-.552-.281-.736-.188-.184-.446-.278-.774-.283h-1.214v1.984z"/>
  </g>
</svg>
