<svg xmlns="http://www.w3.org/2000/svg" width="24" height="24" viewBox="0 0 24 24">
  <g fill="none" fill-rule="evenodd">
    <path fill="#B6C2CD" d="M19.004 10.325A3.912 3.912 0 0017 9.777c-.836 0-1.612.261-2.249.706a24.648 24.648 0 00-.091-1.69h4.06a7.91 7.91 0 01.284 1.532zm-5.61 1.819c-.15.345-.252.715-.297 1.103H8.722a22.714 22.714 0 010-4.454h4.59a22.714 22.714 0 01.081 3.35zm1.658 5.805a7.97 7.97 0 01-1.853.787c.36-.615.664-1.386.907-2.272l.946 1.485zM3.313 8.793h4.061c-.064.714-.097 1.46-.097 2.227 0 .767.033 1.513.097 2.227h-4.06A8.02 8.02 0 013 11.02c0-.773.11-1.52.313-2.227zm.52-1.336a8.037 8.037 0 015.001-4.153c-.594 1.019-1.04 2.461-1.3 4.153h-3.7zm14.367 0h-3.7c-.26-1.692-.705-3.134-1.3-4.153a8.037 8.037 0 015 4.153zm-9.302 0c.437-2.63 1.31-4.429 2.119-4.429.81 0 1.682 1.8 2.12 4.429h-4.24zm-5.065 7.126h3.702c.26 1.691.705 3.134 1.3 4.153a8.037 8.037 0 01-5.002-4.153zm5.065 0h4.238c-.437 2.63-1.31 4.429-2.12 4.429-.808 0-1.68-1.8-2.118-4.429z"/>
    <path fill="#324558" d="M13.07 13.707a3.93 3.93 0 117.104 2.32L17 21.006l-3.173-4.98a3.913 3.913 0 01-.757-2.32zm3.886 1.685a1.685 1.685 0 100-3.37 1.685 1.685 0 000 3.37z"/>
  </g>
</svg>
