<svg xmlns="http://www.w3.org/2000/svg" width="24" height="24" viewBox="0 0 24 24">
  <g fill="none" fill-rule="evenodd">
    <path fill="#B6C2CD" d="M18.982 2.5l4 4h-.015l.033.028H1.227V4.52l17.755-.001V2.5zM5.244 20.528l-4-4h.016l-.033-.028H23v2.007H5.245v2.02z"/>
    <path fill="#324558" fill-rule="nonzero" d="M2.853 15.5V7.583H1.209V15.5h1.644zm3.222 0v-2.847h1.681c.878 0 1.553-.193 2.025-.58.473-.386.71-1.047.71-1.982 0-.855-.237-1.487-.71-1.896-.472-.408-1.106-.612-1.901-.612H4.432V15.5h1.643zm1.542-4.21H6.075V8.957h1.542c.39 0 .693.088.91.263.217.176.325.47.325.881 0 .412-.108.713-.325.902-.217.19-.52.285-.91.285zm7.133 4.21l2.11-5.854h-1.643l-1.246 4.318-1.22-4.318h-1.718l2.1 5.854h1.617zm7.132 0v-1.676h.881v-1.198h-.88V7.76h-1.72l-2.862 4.727v1.337h3.083V15.5h1.498zm-1.498-2.874h-1.95l1.95-3.362v3.362z"/>
  </g>
</svg>
