<svg xmlns="http://www.w3.org/2000/svg" width="24" height="24" viewBox="0 0 24 24">
  <g fill="none" fill-rule="evenodd">
    <path fill="#B6C2CD" d="M20.905 10.124c-.028.028-.028.083-.028.139-.027.028-.027.056-.055.084-.112.194-.307.362-.474.5-.306.224-.64.39-.974.558a.211.211 0 01-.112.055c-.111.056-.25.112-.362.167-.055.028-.083.028-.139.056a5.45 5.45 0 01-.947.334c-.39.112-.78.195-1.197.307-.223.055-.473.083-.696.139-.056 0-.14.028-.195.028-.223.055-.474.083-.724.111-.14.028-.306.028-.446.056l-.835.083c-.111.028-.223 0-.306.028h-.056c-.084 0-.195 0-.279.028h-.529c-.139.028-.334 0-.5 0-.168 0-.363.028-.502 0h-.53c-.222 0-.473-.028-.695-.056-.112-.028-.251-.028-.362-.028H9.85c-.111-.027-.25-.027-.362-.027-.306-.056-.585-.056-.89-.14-.224-.055-.474-.083-.697-.139-.111-.028-.25-.056-.362-.083-.056 0-.084 0-.14-.028-.166-.056-.333-.084-.473-.112-.083-.027-.139-.027-.195-.055a4.569 4.569 0 00-.306-.084c-.195-.056-.39-.14-.557-.195-.807-.25-1.56-.585-2.2-1.058-.222-.167-.473-.39-.529-.724h-.028v5.625c0 .084 0 .111.028.167.028.084.056.195.112.279.083.195.222.334.334.5l.083.084c.167.195.418.362.613.53.14.11.306.194.473.278.084.056.167.083.251.14.083.027.167.083.25.11.223.112.474.195.725.307.195.083.39.111.612.195.53.195 1.114.278 1.699.417.223.028.445.084.668.112.084 0 .167.028.25.028.251.055.558.055.808.083h.195c.223.028.501.028.724.056h.557c.167.028.362 0 .53 0 .166 0 .361.028.528 0h.53c.11-.028.25 0 .361-.028.084 0 .195 0 .279-.028.167-.028.39-.028.557-.055h.111c.279-.028.53-.084.808-.112.473-.083.947-.167 1.42-.278.39-.084.78-.223 1.142-.334.222-.084.417-.14.612-.223.14-.056.279-.14.418-.195l.167-.084c.39-.167.724-.39 1.03-.64.084-.056.167-.14.251-.223l.084-.083a1.95 1.95 0 00.222-.279c.028-.028.056-.083.084-.111.111-.195.223-.39.278-.64.028-.14.028-.307.028-.474v-4.595c0-.14.028-.334-.028-.473z"/>
    <path fill="#324558" d="M8.903 16.807h-.556v-2.395h.556zm2.2-1.281a.516.516 0 01-.195.223 1.03 1.03 0 01-.306.139c-.111.028-.223.028-.362.028h-.278v.89h-.585v-2.394h.863c.14 0 .25 0 .362.028a.998.998 0 01.306.111c.084.056.14.14.195.223a.77.77 0 01.084.362.89.89 0 01-.084.39zm1.643 1.281h-.584l-.892-2.395h.64l.558 1.67.557-1.67h.64zm2.784-.446a1 1 0 01-.194.279.664.664 0 01-.306.167c-.112.028-.223.056-.362.056-.14 0-.25-.028-.362-.056a.664.664 0 01-.307-.167 1 1 0 01-.195-.279.77.77 0 01-.083-.362.89.89 0 01.083-.39c.056-.11.112-.222.195-.361l.585-.864h.668l-.584.808v.028c.028 0 .055-.028.083-.028h.084c.111 0 .195.028.306.056a.658.658 0 01.25.167c.084.083.14.139.168.25.028.112.055.223.055.334a.77.77 0 01-.083.362z"/>
    <path fill="#B6C2CD" d="M11.967 12.296c4.956 0 8.966-1.643 8.966-3.648S16.923 5 11.967 5C7.01 5 3 6.643 3 8.648c0 2.033 4.01 3.648 8.967 3.648z"/>
    <path fill="#324558" d="M11.967 11.46l-2.45-1.615h1.391V8.342h2.228V9.9h1.17zm3.202-3.787l3.063-.055.306.668h-3.202l.14.501-2.48-.752 2.006-.752.167.39zm-3.202-1.698l1.364.668h-.473v.863H11.13v-.919h-.557zM5.701 7.562l3.119.111.111-.39 2.061.697-2.534.696.111-.362H5.311z"/>
    <path fill="#B6C2CD" d="M10.602 15.025l-.083-.084c-.028-.028-.084-.028-.14-.028h-.39v.557h.418c.056 0 .084-.028.14-.055l.083-.084c.028-.028 0-.111 0-.167 0-.056 0-.111-.028-.14zm4.066.612a.358.358 0 00-.279.112.358.358 0 00-.111.278c0 .112.028.195.111.25.056.084.167.112.279.112a.358.358 0 00.278-.111c.084-.084.112-.14.112-.25a.358.358 0 00-.112-.28c-.056-.083-.167-.11-.278-.11z"/>
  </g>
</svg>
