<svg xmlns="http://www.w3.org/2000/svg" width="24" height="24" viewBox="0 0 24 24">
  <g fill="none" fill-rule="evenodd">
    <path fill="#B6C2CD" d="M18.982 2.5l4 4h-.015l.033.028H1.227V4.52l17.755-.001V2.5zM5.244 20.528l-4-4h.016l-.033-.028H23v2.007H5.245v2.02z"/>
    <path fill="#324558" fill-rule="nonzero" d="M2.853 15.5V7.583H1.209V15.5h1.644zm3.222 0v-2.847h1.681c.878 0 1.553-.193 2.025-.58.473-.386.71-1.047.71-1.982 0-.855-.237-1.487-.71-1.896-.472-.408-1.106-.612-1.901-.612H4.432V15.5h1.643zm1.542-4.21H6.075V8.957h1.542c.39 0 .693.088.91.263.217.176.325.47.325.881 0 .412-.108.713-.325.902-.217.19-.52.285-.91.285zm7.133 4.21l2.11-5.854h-1.643l-1.246 4.318-1.22-4.318h-1.718l2.1 5.854h1.617zm5.317.204c.913 0 1.586-.277 2.02-.832.433-.555.65-1.196.65-1.923 0-.73-.222-1.33-.664-1.8-.442-.469-1.009-.703-1.7-.703a2.23 2.23 0 00-.86.156 1.71 1.71 0 00-.66.494c.043-.602.122-1.057.236-1.365.212-.558.566-.837 1.064-.837.333 0 .582.121.746.365a.78.78 0 01.145.413h1.526c-.054-.616-.296-1.109-.725-1.48-.43-.37-1.006-.555-1.73-.555-.501 0-.932.114-1.292.343-.36.23-.65.532-.872.908-.258.44-.432.992-.521 1.654-.05.373-.076.856-.076 1.45 0 1.014.181 1.841.543 2.482.465.82 1.189 1.23 2.17 1.23zm.021-1.246a1.08 1.08 0 01-.859-.397c-.226-.265-.338-.607-.338-1.026 0-.52.15-.896.45-1.128.201-.158.432-.237.694-.237.322 0 .594.121.816.363.222.242.333.59.333 1.045 0 .408-.097.74-.293.996-.195.256-.462.384-.803.384z"/>
  </g>
</svg>
