<svg xmlns="http://www.w3.org/2000/svg" width="24" height="24" viewBox="0 0 24 24">
  <g fill-rule="evenodd">
    <path fill="#324558" d="M20 8.972a1 1 0 011 1v4a1 1 0 01-1 1H4a1 1 0 01-1-1v-4c0-.552.449-1 1-1h16zM8.285 10.36c-.385 0-.7.085-.95.26-.27.18-.4.43-.4.745s.135.555.41.72c.105.06.38.16.82.3.395.12.625.2.695.235.22.11.335.26.335.45 0 .15-.08.265-.23.355-.15.085-.36.13-.62.13-.295 0-.51-.055-.65-.155-.155-.115-.25-.31-.29-.58h-.58c.025.455.19.785.49.995.245.17.59.255 1.03.255.455 0 .81-.095 1.06-.275a.896.896 0 00.375-.76c0-.33-.155-.585-.465-.77-.14-.08-.45-.2-.935-.35a5.024 5.024 0 01-.61-.22c-.17-.09-.25-.215-.25-.365 0-.17.07-.295.22-.37.12-.065.29-.095.515-.095.26 0 .46.045.59.145.13.095.225.255.275.475h.58c-.035-.39-.18-.68-.43-.865-.235-.175-.565-.26-.985-.26zm3.845 0c-.57 0-1.005.185-1.305.565-.265.33-.395.765-.395 1.295 0 .54.125.97.38 1.29.29.37.735.56 1.33.56.385 0 .715-.11.99-.33.295-.235.48-.56.56-.98h-.57c-.07.27-.19.475-.36.61-.16.12-.37.185-.625.185-.39 0-.68-.125-.865-.365-.17-.225-.255-.55-.255-.97 0-.41.085-.73.26-.96.19-.26.47-.385.845-.385.25 0 .455.05.615.16.165.11.275.28.335.515h.57c-.055-.36-.21-.65-.47-.86-.27-.22-.62-.33-1.04-.33zm3.67 0c-.385 0-.7.085-.95.26-.27.18-.4.43-.4.745s.135.555.41.72c.105.06.38.16.82.3.395.12.625.2.695.235.22.11.335.26.335.45 0 .15-.08.265-.23.355-.15.085-.36.13-.62.13-.295 0-.51-.055-.65-.155-.155-.115-.25-.31-.29-.58h-.58c.025.455.19.785.49.995.245.17.59.255 1.03.255.455 0 .81-.095 1.06-.275a.896.896 0 00.375-.76c0-.33-.155-.585-.465-.77-.14-.08-.45-.2-.935-.35a5.024 5.024 0 01-.61-.22c-.17-.09-.25-.215-.25-.365 0-.17.07-.295.22-.37.12-.065.29-.095.515-.095.26 0 .46.045.59.145.13.095.225.255.275.475h.58c-.035-.39-.18-.68-.43-.865-.235-.175-.565-.26-.985-.26zm-9.83 1.055H5.4V14h.57v-2.585zm12.71-.985h-.585V14h.585v-3.57zm-12.995-.07c-.11 0-.2.035-.275.105a.35.35 0 00-.11.27c0 .11.035.2.11.275.075.07.165.105.275.105.11 0 .2-.035.275-.105a.366.366 0 00.115-.275c0-.11-.04-.2-.11-.27a.397.397 0 00-.28-.105z"/>
    <path fill="#B6C2CD" d="M3.935 7.972A9.03 9.03 0 019.55 3.309c-.668 1.144-1.169 2.764-1.46 4.663H3.935zm16.129 0H15.91c-.29-1.899-.792-3.519-1.459-4.663a9.025 9.025 0 015.614 4.663m-10.445 0C10.113 5.02 11.093 3 12 3c.908 0 1.889 2.02 2.379 4.972H9.62zm-5.685 8H8.09c.291 1.899.792 3.519 1.46 4.662a9.019 9.019 0 01-5.615-4.662m16.129 0a9.017 9.017 0 01-5.614 4.662c.667-1.143 1.168-2.763 1.46-4.662h4.154zm-10.444 0h4.759c-.49 2.952-1.471 4.972-2.38 4.972-.907 0-1.887-2.02-2.378-4.972"/>
  </g>
</svg>
