<svg xmlns="http://www.w3.org/2000/svg" width="24" height="24" viewBox="0 0 24 24">
  <g fill="none" fill-rule="evenodd">
    <path fill="#B6C2CD" d="M9 3h11a1 1 0 011 1v16a1 1 0 01-1 1H9a1 1 0 01-1-1V4a1 1 0 011-1zm2 2a1 1 0 00-1 1v5a1 1 0 001 1h7a1 1 0 001-1V6a1 1 0 00-1-1h-7zm0 9a1 1 0 000 2h6a1 1 0 000-2h-6zm0 3a1 1 0 000 2h4a1 1 0 000-2h-4z"/>
    <path fill="#324558" d="M13.317 9.39l-1.445-1.445-.872.872 2.252 2.252L18 7l-.802-.936zM4 3h2a1 1 0 011 1v16a1 1 0 01-1 1H4a1 1 0 01-1-1V4a1 1 0 011-1z"/>
  </g>
</svg>
