<svg xmlns="http://www.w3.org/2000/svg" width="24" height="24" viewBox="0 0 24 24">
  <g fill="none" fill-rule="evenodd">
    <path fill="#324558" d="M6.968 16.888h1.984v.992c0 .548.444.992.992.992h7.936a.992.992 0 00.992-.992V8.952h-2.976a.992.992 0 01-.992-.992V4.984h-4.96a.992.992 0 00-.992.992v4.96H6.968V4.984C6.968 3.888 7.856 3 8.952 3h7.695l4.21 4.209v11.663a1.984 1.984 0 01-1.985 1.984h-9.92a1.984 1.984 0 01-1.984-1.984v-1.984z"/>
    <path fill="#B6C2CD" d="M4 10.936h9.904a1 1 0 011 1v3.952a1 1 0 01-1 1H4a1 1 0 01-1-1v-3.952a1 1 0 011-1zm1.464.992v2.93c0 .21-.05.373-.149.488a.5.5 0 01-.398.171c-.188 0-.325-.05-.413-.148-.087-.099-.13-.252-.13-.46h-.878c0 .417.125.74.375.967.25.228.599.342 1.046.342.273 0 .518-.057.735-.169.217-.112.386-.272.505-.478a1.4 1.4 0 00.178-.713v-2.93h-.871zm3.943 3.36l.294.872h.927l-1.584-4.232h-.808L6.661 16.16h.927l.29-.872h1.53zm-1.293-.707l.526-1.583.532 1.583H8.114zm4.476.03l.793 1.549h.936v-.041l-.916-1.73c.254-.114.444-.267.569-.46.125-.193.187-.434.187-.722 0-.407-.136-.722-.407-.945-.271-.223-.657-.334-1.157-.334h-1.572v4.232h.872v-1.55h.695zm-.695-.707v-1.27h.7c.235 0 .409.057.522.172.114.114.17.271.17.47 0 .196-.06.35-.18.461-.12.112-.29.167-.509.167h-.703z"/>
    <path fill="#324558" d="M5.464 11.928h.871v2.93c0 .269-.06.507-.178.713a1.22 1.22 0 01-.505.478 1.575 1.575 0 01-.735.169c-.447 0-.796-.114-1.046-.342-.25-.227-.375-.55-.375-.966h.878c0 .207.043.36.13.459.088.099.225.148.413.148a.5.5 0 00.398-.171c.1-.115.149-.277.149-.488v-2.93zm3.943 3.36H7.88l-.291.872h-.927l1.575-4.232h.808l1.584 4.232h-.927l-.294-.872zm-1.293-.707h1.058l-.532-1.583-.526 1.583zm4.476.03h-.695v1.549h-.872v-4.232h1.572c.5 0 .886.111 1.157.334.271.223.407.538.407.945 0 .288-.062.53-.187.722a1.278 1.278 0 01-.569.46l.916 1.73v.04h-.936l-.793-1.548zm-.695-.707h.703c.22 0 .389-.055.509-.167.12-.111.18-.265.18-.46 0-.2-.056-.357-.17-.471-.113-.115-.287-.172-.522-.172h-.7v1.27z"/>
  </g>
</svg>
