<svg xmlns="http://www.w3.org/2000/svg" width="24" height="24" viewBox="0 0 24 24">
  <g fill="none" fill-rule="evenodd">
    <path fill="#B6C2CD" d="M16 16v-6a2 2 0 00-2-2H8V4.5A1.5 1.5 0 019.5 3h10A1.5 1.5 0 0121 4.5v10a1.5 1.5 0 01-1.5 1.5H16z"/>
    <path fill="#324558" d="M5 8h9a2 2 0 012 2v9a2 2 0 01-2 2H5a2 2 0 01-2-2v-9a2 2 0 012-2zm7.65 4v-1h-.9v1h-4.5v-1h-.9v1H5v2h9v-2h-1.35zM5 14v4c0 .552.403 1 .9 1h7.2c.497 0 .9-.448.9-1v-4H5z"/>
    <path fill="#B6C2CD" d="M5 14h9v4c0 .552-.403 1-.9 1H5.9c-.497 0-.9-.448-.9-1v-4z"/>
    <path fill="#FFF" d="M12.65 12H14v2H5v-2h1.35v-1h.9v1h4.5v-1h.9z"/>
  </g>
</svg>
