<svg xmlns="http://www.w3.org/2000/svg" width="24" height="24" viewBox="0 0 24 24">
  <g fill="none" fill-rule="evenodd">
    <path fill="#324558" d="M6.968 16.888h1.984v.992c0 .548.444.992.992.992h7.936a.992.992 0 00.992-.992V8.952h-2.976a.992.992 0 01-.992-.992V4.984h-4.96a.992.992 0 00-.992.992v4.96H6.968V4.984C6.968 3.888 7.856 3 8.952 3h7.695l4.21 4.209v11.663a1.984 1.984 0 01-1.985 1.984h-9.92a1.984 1.984 0 01-1.984-1.984v-1.984z"/>
    <path fill="#B6C2CD" d="M17 10.936a1 1 0 011 1v3.952a1 1 0 01-1 1H4a1 1 0 01-1-1v-3.952a1 1 0 011-1h13zm-10.642.798H5.48v2.954c0 .212-.05.376-.149.492a.504.504 0 01-.401.173c-.19 0-.329-.05-.416-.15-.088-.1-.132-.254-.132-.463h-.885c0 .42.126.745.378.974.252.23.603.345 1.055.345.275 0 .522-.057.74-.17a1.23 1.23 0 00.51-.482c.12-.208.18-.448.18-.72v-2.953zm1.98-.058c-.303 0-.576.05-.82.152a1.27 1.27 0 00-.559.423 1.03 1.03 0 00-.195.617c0 .444.243.796.727 1.058.178.095.419.193.724.291.304.099.515.193.632.282a.451.451 0 01.176.382.415.415 0 01-.176.356c-.117.085-.28.127-.489.127-.562 0-.844-.235-.844-.706h-.881c0 .276.07.518.212.727.142.209.347.373.617.493s.568.18.896.18c.473 0 .849-.104 1.128-.314.28-.21.419-.5.419-.869 0-.332-.114-.61-.343-.832-.228-.223-.593-.41-1.093-.56a2.367 2.367 0 01-.616-.263c-.14-.094-.21-.21-.21-.349a.43.43 0 01.179-.359c.12-.09.286-.136.501-.136.223 0 .395.054.519.163.123.108.184.26.184.455h.879a1.22 1.22 0 00-.198-.685 1.297 1.297 0 00-.555-.468 1.917 1.917 0 00-.814-.165zm3.55 0c-.356 0-.672.085-.949.256a1.69 1.69 0 00-.641.735 2.56 2.56 0 00-.227 1.11v.21c.002.41.079.773.231 1.089.153.315.367.558.645.728.277.17.593.255.946.255.357 0 .674-.086.95-.258a1.67 1.67 0 00.638-.733c.148-.316.223-.684.223-1.104v-.19c0-.419-.076-.787-.227-1.107a1.69 1.69 0 00-.642-.735 1.765 1.765 0 00-.948-.256zm3.033.058h-.879V16h.88v-2.807L16.631 16h.879v-4.266h-.876v2.813l-1.714-2.813zm-3.034.668c.297 0 .526.117.686.349.16.232.24.572.24 1.02v.208c-.002.443-.082.78-.24 1.012a.774.774 0 01-.68.347.78.78 0 01-.691-.36c-.16-.24-.24-.579-.24-1.014v-.208c.001-.444.082-.78.243-1.01a.783.783 0 01.682-.344z"/>
    <path fill="#324558" d="M4.929 16.059c.275 0 .522-.057.74-.17a1.23 1.23 0 00.51-.482c.12-.208.18-.448.18-.72v-2.953h-.88v2.954c0 .212-.05.376-.149.492a.504.504 0 01-.401.173c-.19 0-.329-.05-.416-.15-.088-.1-.132-.254-.132-.463h-.885c0 .42.126.745.378.974.252.23.603.345 1.055.345zm3.43 0c.472 0 .848-.105 1.127-.315.28-.21.419-.5.419-.869 0-.332-.114-.61-.343-.832-.228-.223-.593-.41-1.093-.56a2.367 2.367 0 01-.616-.263c-.14-.094-.21-.21-.21-.349a.43.43 0 01.179-.359c.12-.09.286-.136.501-.136.223 0 .395.054.519.163.123.108.184.26.184.455h.879a1.22 1.22 0 00-.198-.685 1.297 1.297 0 00-.555-.468 1.917 1.917 0 00-.814-.165c-.303 0-.576.05-.82.152a1.27 1.27 0 00-.559.423 1.03 1.03 0 00-.195.617c0 .444.243.796.727 1.058.178.095.419.193.724.291.304.099.515.193.632.282a.451.451 0 01.176.382.415.415 0 01-.176.356c-.117.085-.28.127-.489.127-.562 0-.844-.235-.844-.706h-.881c0 .276.07.518.212.727.142.209.347.373.617.493s.568.18.896.18zm3.534 0c.357 0 .674-.086.95-.258a1.67 1.67 0 00.638-.733c.148-.316.223-.684.223-1.104v-.19c0-.419-.076-.787-.227-1.107a1.69 1.69 0 00-.642-.735 1.765 1.765 0 00-.948-.256c-.355 0-.671.085-.948.256a1.69 1.69 0 00-.641.735 2.56 2.56 0 00-.227 1.11v.21c.002.41.079.773.231 1.089.153.315.367.558.645.728.277.17.593.255.946.255zm0-.721a.78.78 0 01-.691-.36c-.16-.24-.24-.579-.24-1.014v-.208c.001-.444.082-.78.243-1.01a.783.783 0 01.682-.344c.297 0 .526.117.686.349.16.232.24.572.24 1.02v.208c-.002.443-.082.78-.24 1.012a.774.774 0 01-.68.347zm3.028.662v-2.807L16.632 16h.879v-4.266h-.876v2.813l-1.714-2.813h-.879V16h.88z"/>
  </g>
</svg>
