<svg xmlns="http://www.w3.org/2000/svg" width="24" height="24" viewBox="0 0 24 24">
  <g fill="none" fill-rule="evenodd">
    <path fill="#324558" d="M7 21.333v-9.166c-3.363 0-5 2.262-5 4.583 0 2.34 1.663 4.583 5 4.583zm15-4.583c0-2.32-1.637-4.583-5-4.583v9.166c3.337 0 5-2.244 5-4.583z"/>
    <path fill="#B6C2CD" d="M12 5.482c-3.232-.007-5.718 1.957-6.452 5.162a7.287 7.287 0 00-1.801.597C4.27 6.657 7.346 3 12 3c4.657 0 7.742 3.657 8.263 8.247a7.27 7.27 0 00-1.807-.601C17.722 7.437 15.233 5.475 12 5.482zm-.96 13.926l.656-3.99.669 2.872a.307.307 0 00.586.044l.606-1.548.565 1.318c.094.219.39.253.53.06l.516-.7h.999v-.614h-1.16a.308.308 0 00-.248.126l-.285.39-.649-1.51a.308.308 0 00-.57.009l-.513 1.313-.791-3.506c-.075-.332-.55-.313-.604.018l-.656 4.05-.671-2.494c-.075-.298-.496-.314-.59-.02l-.5 1.624H7.834v.614h1.34c.11 0 .231-.09.262-.196l.248-.84.755 3.006c.083.324.55.303.603-.026z"/>
  </g>
</svg>
