<svg xmlns="http://www.w3.org/2000/svg" width="24" height="24" viewBox="0 0 24 24">
  <g fill="none" fill-rule="evenodd">
    <path fill="#B6C2CD" d="M14 3l6 6h-6z"/>
    <path fill="#324558" d="M5 3h15v18H5V3zm8.75 0v6.429H20V3h-6.25zm-5 10.286v1.285h7.5v-1.285h-7.5zm0-2.572V12h7.5v-1.286h-7.5zm0 5.143v1.286h5v-1.286h-5z"/>
    <path fill="#B6C2CD" d="M14 3l6 6h-6z"/>
    <path fill="#324558" d="M5 3h15v18H5V3zm8.75 0v6.429H20V3h-6.25zm-5 10.286v1.285h7.5v-1.285h-7.5zm0-2.572V12h7.5v-1.286h-7.5zm0 5.143v1.286h5v-1.286h-5z"/>
  </g>
</svg>
