<svg xmlns="http://www.w3.org/2000/svg" width="24" height="24" viewBox="0 0 24 24">
  <g fill="none" fill-rule="evenodd">
    <path fill="#324558" d="M5 3h14a2 2 0 012 2v14a2 2 0 01-2 2H5a2 2 0 01-2-2V5a2 2 0 012-2zm1 2a1 1 0 00-1 1v12a1 1 0 001 1h12a1 1 0 001-1V6a1 1 0 00-1-1H6z"/>
    <path fill="#B6C2CD" d="M6 5h12a1 1 0 011 1v12a1 1 0 01-1 1H6a1 1 0 01-1-1V6a1 1 0 011-1z"/>
    <path fill="#324558" d="M16.154 15.366a1.234 1.234 0 01-1.553-.774 1.212 1.212 0 01.784-1.533c.646-.21 1.34.139 1.553.774a1.208 1.208 0 01-.784 1.533zm-3.549-6.294a1.24 1.24 0 01-1.738 0 1.2 1.2 0 010-1.716 1.238 1.238 0 011.738 0 1.2 1.2 0 010 1.716zm-3.17 6.116a1.228 1.228 0 01-1.453.944 1.213 1.213 0 01-.956-1.434 1.228 1.228 0 011.452-.944c.664.134 1.092.776.957 1.434zm-2.106-2.104a4.401 4.401 0 01.661-2.905 4.497 4.497 0 011.805-1.61l.757 1.502a2.754 2.754 0 00-1.538 2.815l-1.685.198zM11.8 17c-.821 0-1.627-.22-2.329-.64l.88-1.434c.435.26.936.398 1.45.398a2.8 2.8 0 001.72-.581l1.04 1.323a4.482 4.482 0 01-2.76.934zm2.8-4.682a2.78 2.78 0 00-1.638-2.292l.702-1.525a4.458 4.458 0 012.63 3.676l-1.694.14z"/>
  </g>
</svg>
