<svg xmlns="http://www.w3.org/2000/svg" width="24" height="24" viewBox="0 0 24 24">
  <g fill="none" fill-rule="evenodd">
    <path fill="#324558" d="M2.707 15.182L15.435 2.454a1 1 0 011.414 0l4.243 4.243L6.95 20.839l-4.243-4.243a1 1 0 010-1.414zm.707.707l3.536 3.536 2.121-2.122-3.535-3.535-2.122 2.121zm3.536-3.535l3.535 3.535 2.122-2.121-3.536-3.536-2.121 2.122zm3.535-3.536l3.536 3.536 2.121-2.122-3.535-3.535-2.122 2.121zm3.536-3.536l3.535 3.536 2.122-2.121-3.536-3.536-2.121 2.121z"/>
    <path fill="#B6C2CD" d="M19.678 8.11l.707-.706.707.707a1 1 0 010 1.414L9.778 20.84a1 1 0 01-1.414 0l-.707-.707.707-.707.707.707.707-.707-.707-.707.707-.708.707.708.707-.708-.707-.707.707-.707.707.707.708-.707-.708-.707 1.415-1.414.707.707.707-.707-.707-.707.707-.707.707.707.707-.707-.707-.707.707-.708.707.708.707-.708-.707-.707.707-.707.707.707.708-.707-.708-.707.708-.707.707.707.707-.707-.707-.707z"/>
    <path fill="#324558" d="M8.364 19.425l.707-.707.707.707-.707.707zm1.414-1.415l.707-.707.707.707-.707.708zm1.414-1.414l.707-.707.708.707-.708.707zm2.122-2.121l.707-.707.707.707-.707.707zm1.414-1.415l.707-.706.707.707-.707.707zm1.414-1.414l.707-.707.707.707-.707.708zm1.414-1.414l.707-.707.708.707-.708.707zm1.414-1.414l.708-.707.707.707-.707.707z"/>
    <path fill="#B6C2CD" d="M3.414 15.89l2.122-2.122 3.535 3.535-2.121 2.122zm3.536-3.536l2.121-2.122 3.536 3.536-2.122 2.121zm3.535-3.536l2.122-2.121 3.535 3.535-2.121 2.122zm3.535-3.536l2.122-2.12 3.536 3.535-2.122 2.121z"/>
  </g>
</svg>
