<svg width="16" height="16" viewBox="0 0 16 16" fill="none" xmlns="http://www.w3.org/2000/svg">
<g id="notification/message_circle_duotone">
<g id="UnionS">
<path fill-rule="evenodd" clip-rule="evenodd" d="M14.6667 7.99998C14.6667 11.6819 11.6819 14.6666 8 14.6666H2.13804C1.84107 14.6666 1.69235 14.3076 1.90234 14.0976L3.28594 12.714C2.07952 11.5076 1.33333 9.84092 1.33333 7.99998C1.33333 4.31808 4.3181 1.33331 8 1.33331C11.6819 1.33331 14.6667 4.31808 14.6667 7.99998ZM4.66667 6.99998H6V8.99998H4.66667V6.99998ZM10 6.99998H11.3333V8.99998H10V6.99998ZM7.33333 6.99998H8.66667V8.99998H7.33333V6.99998Z" fill="#B6C2CD"/>
</g>
<g id="Union">
<path d="M4.66667 7H6V9H4.66667V7Z" fill="#324558"/>
<path d="M7.33333 7H8.66667V9H7.33333V7Z" fill="#324558"/>
<path d="M11.3333 7H10V9H11.3333V7Z" fill="#324558"/>
</g>
</g>
</svg>
