<svg xmlns="http://www.w3.org/2000/svg" width="24" height="24" viewBox="0 0 24 24">
  <g fill="none" fill-rule="evenodd">
    <path fill="#324558" d="M21 13v5.252c0 .413-.36.748-.82.748H3.82c-.451 0-.817-.335-.82-.748V13h1a1 1 0 100-2H3V5.748C3 5.335 3.36 5 3.82 5h16.36c.452 0 .82.34.82.748V11h-1a1 1 0 000 2h1zm-9.705-4.768a3.833 3.833 0 00-.957.31l-.724-.996-1.14.828.725.997c-.231.244-.43.517-.592.814l-1.172-.38L7 11.144l1.172.38a3.897 3.897 0 000 1.006L7 12.912l.435 1.34 1.172-.38c.161.297.36.57.592.813l-.725.997 1.14.829.724-.997c.3.143.621.25.957.311v1.232h1.41v-1.232c.336-.062.657-.168.957-.31l.724.996 1.14-.829-.725-.997c.231-.243.43-.516.592-.813l1.172.38.435-1.34-1.172-.38a3.897 3.897 0 000-1.007l1.172-.38-.435-1.34-1.172.38a3.873 3.873 0 00-.592-.814l.725-.997-1.14-.828-.724.996a3.843 3.843 0 00-.957-.31V7h-1.41v1.232zM12 14.25a2.222 2.222 0 110-4.443 2.222 2.222 0 010 4.443z"/>
    <path fill="#B6C2CD" d="M11 3h2v2h-2zm0 16h2v2h-2z"/>
  </g>
</svg>
