<svg xmlns="http://www.w3.org/2000/svg" width="24" height="24" viewBox="0 0 24 24">
  <g fill="none" fill-rule="evenodd">
    <path fill="#B6C2CD" d="M5.319 3.817l-.743.742A10.428 10.428 0 001.5 11.983a10.43 10.43 0 003.076 7.424l.743.742 4.454-4.454-.743-.742a4.176 4.176 0 01-1.23-2.97 4.18 4.18 0 011.23-2.97l.743-.742-4.454-4.454zm13.362 0L14.227 8.27l.743.742a4.176 4.176 0 011.23 2.97 4.176 4.176 0 01-1.23 2.97l-.743.742 4.454 4.454.743-.742a10.428 10.428 0 003.076-7.424 10.43 10.43 0 00-3.076-7.424l-.743-.742z"/>
    <path fill="#324558" fill-rule="nonzero" d="M12 9.883a2.1 2.1 0 100 4.2 2.1 2.1 0 000-4.2z"/>
  </g>
</svg>
