<svg xmlns="http://www.w3.org/2000/svg" width="24" height="24" viewBox="0 0 24 24">
  <g fill="none" fill-rule="evenodd">
    <path fill="#324558" d="M11.86 4.725h.281v-1.36h-.28zm0 1.785h.281V5.148h-.28zm0 1.791h.281v-1.36h-.28zm0 1.785h.281v-1.36h-.28zm0 1.872h.281v-1.36h-.28zm0 1.785h.281V12.38h-.28zm0 1.791h.281v-1.361h-.28zm0 1.785h.281v-1.362h-.28zm0 1.745h.281v-1.362h-.28zm0 1.789h.281V19.49h-.28zM5 21V3l5.6 2.625v12.75L5 21zm1.19-2.25h.28V5.25h-.28v13.5z"/>
    <path fill="#B6C2CD" d="M13.4 5.625L19 3v18l-5.6-2.625V5.625zM18.44 19.5V4.497l-4.479 1.877v11.252l4.48 1.874z"/>
    <path fill="#B6C2CD" d="M17.81 5.25h-.28v13.5h.28z"/>
  </g>
</svg>
