<svg xmlns="http://www.w3.org/2000/svg" width="24" height="24" viewBox="0 0 24 24">
  <g fill="none" fill-rule="evenodd">
    <path fill="#324558" d="M21 20.113a2 2 0 01-2 2H4.999a2 2 0 01-2-2V4.05a2 2 0 012-2h9.94l2.079 2.08H5.016v10.858h13.97v-8.89L21 8.111v12.002z"/>
    <path fill="#324558" d="M14.938 2.05L21 8.11h-5.062a1 1 0 01-1-1V2.049z"/>
    <path fill="#B6C2CD" d="M11.338 6.34v2.7H8.127v1.8h3.211v2.7l3.6-3.6z"/>
    <path fill="#B6C2CD" fill-rule="nonzero" d="M5.4 19.536v-.664l-.066-1.362.69 2.026h.453l.687-2.024-.066 1.36v.664h.687v-2.844h-.902L6.25 18.67l-.635-1.978h-.9v2.844H5.4zm3.729.039c.312 0 .56-.097.743-.29.183-.194.274-.455.274-.785v-.023c0-.337-.09-.604-.273-.8-.182-.196-.432-.294-.748-.294-.207 0-.387.045-.541.133a.88.88 0 00-.354.38 1.247 1.247 0 00-.123.563l.002.112c.015.308.113.553.295.733.183.18.424.27.725.27zm0-.508a.306.306 0 01-.272-.137c-.06-.091-.091-.234-.091-.43l.002-.119c.018-.326.137-.49.357-.49.242 0 .363.19.363.568v.067c-.005.36-.125.54-.36.54zm2.043.508c.208 0 .38-.089.515-.266l.034.227h.591v-3h-.66v1.07a.607.607 0 00-.476-.223.714.714 0 00-.606.29c-.144.192-.216.456-.216.79 0 .356.073.63.22.823a.715.715 0 00.598.289zm.168-.508c-.219 0-.328-.188-.328-.563l.002-.12c.017-.329.127-.493.33-.493.146 0 .248.063.308.188v.804c-.062.123-.166.184-.312.184zm2.488.508c.26 0 .462-.093.606-.28.143-.186.214-.452.214-.798v-.034c0-.342-.071-.608-.214-.796-.144-.19-.347-.284-.61-.284a.603.603 0 00-.474.21v-1.057h-.659v3h.59l.028-.217c.131.17.304.256.52.256zm-.166-.506c-.152 0-.256-.056-.312-.168v-.84c.057-.113.16-.17.308-.17.112 0 .195.043.25.13.053.087.08.231.08.435 0 .183-.01.312-.031.386-.042.151-.14.227-.295.227zm1.97.506a.68.68 0 00.565-.268l.02.229h.617v-2.114h-.662v1.483c-.064.108-.171.162-.322.162-.176 0-.264-.09-.264-.272v-1.373h-.658v1.37c0 .252.06.446.178.58.12.135.295.203.527.203zm2.382 0c.272 0 .493-.06.665-.182a.553.553 0 00.257-.47c0-.283-.16-.48-.477-.589a2.371 2.371 0 00-.331-.084.812.812 0 01-.274-.09c-.058-.036-.086-.083-.086-.142 0-.057.023-.105.07-.143a.265.265 0 01.174-.058c.178 0 .267.085.267.254h.66a.592.592 0 00-.253-.498c-.17-.127-.394-.19-.672-.19-.26 0-.47.063-.63.189a.584.584 0 00-.155.77.68.68 0 00.244.216c.106.06.242.107.406.144.164.036.275.071.334.105.058.034.088.079.088.135a.175.175 0 01-.068.142c-.045.037-.112.055-.202.055a.402.402 0 01-.24-.067c-.062-.045-.095-.116-.098-.214h-.615c0 .124.04.241.12.353.079.112.19.2.331.266.142.065.304.098.485.098z"/>
  </g>
</svg>
