<svg xmlns="http://www.w3.org/2000/svg" width="24" height="24" viewBox="0 0 24 24">
  <g fill="none" fill-rule="evenodd">
    <path fill="#B6C2CD" d="M4 5h16a2 2 0 012 2v10a2 2 0 01-2 2H4a2 2 0 01-2-2V7a2 2 0 012-2zm15.007 8.538a1.038 1.038 0 100-2.076 1.038 1.038 0 000 2.076z"/>
    <path fill="#324558" fill-rule="nonzero" d="M18.172 11.882a1.034 1.034 0 00.06 1.31 1.65 1.65 0 01-1.565-1.198l-.513-1.803-.35 2.043a1.37 1.37 0 01-2.584.364l-.325 3.26a1.266 1.266 0 01-2.524-.045L9.896 8.31l-.453 5.19a1.18 1.18 0 01-2.328.157l-.405-1.803-.367.58a1.65 1.65 0 01-1.394.767H4v-1.3h.949a.35.35 0 00.296-.163l.455-.72a1.23 1.23 0 012.241.388l.274 1.217.386-4.429a1.3 1.3 0 012.592.03l.45 7.09.317-3.186a1.227 1.227 0 012.426-.112.07.07 0 00.136-.001l.371-2.161a1.273 1.273 0 012.479-.134l.546 1.918a.35.35 0 00.254.244z"/>
  </g>
</svg>
