<svg xmlns="http://www.w3.org/2000/svg" width="24" height="24" viewBox="0 0 24 24">
  <g fill="none" fill-rule="evenodd">
    <path fill="#B6C2CD" d="M2 7h20v11a2 2 0 01-2 2H4a2 2 0 01-2-2V7z"/>
    <path fill="#324558" d="M2 4h6l1 1h13v2H2z"/>
    <path fill="#324558" fill-rule="nonzero" d="M6.2 13.5l.027.001.168.001.82.003h.363l.207.001c.26.15.45.33.568.537.099.174.164.41.194.711l.015.188.065.71c.027.117.09.205.189.265.088.053.512.078.855.083h.125v1.5H8.568c-.468 0-.83-.05-1.084-.151a1.006 1.006 0 01-.552-.498c-.114-.23-.171-.602-.171-1.115 0-.566-.02-.928-.062-1.086a1.045 1.045 0 00-.237-.435c-.1-.113-.276-.182-.53-.206L5.8 14v-.5h.4zm12.1 0v.5l-.133.009c-.253.024-.429.093-.53.206a1.045 1.045 0 00-.236.435c-.041.158-.062.52-.062 1.086 0 .513-.057.885-.17 1.115-.115.23-.299.397-.553.498-.255.101-.616.152-1.084.152h-1.228V16h.126c.343-.005.767-.03.855-.083.1-.06.162-.148.189-.265l.065-.71.015-.188c.03-.3.095-.537.194-.71.118-.209.308-.388.568-.538h.207l.363-.001.82-.003h.168l.028-.001h.399zm-8.504-4V11H9.67c-.343.006-.767.031-.855.084a.39.39 0 00-.162.182l-.027.082-.065.71-.015.189c-.03.3-.095.537-.194.71a1.375 1.375 0 01-.42.444l-.148.094h-.57l-.724.003h-.096l-.138.002H5.8V13l.133-.008c.253-.024.429-.093.53-.206.116-.132.195-.277.236-.435.041-.158.062-.52.062-1.086 0-.514.057-.885.17-1.116a1.01 1.01 0 01.553-.497c.218-.087.515-.136.89-.149l.194-.003h1.228zm5.736 0l.194.003c.375.013.672.062.89.149.254.101.438.267.552.497.114.23.171.602.171 1.116 0 .566.02.928.062 1.086.04.158.12.303.237.435.1.113.276.182.53.206l.132.009v.499h-.457l-.138-.001h-.096c-.173-.002-.403-.002-.724-.003l-.363-.001h-.207l-.148-.094a1.375 1.375 0 01-.42-.443c-.099-.174-.164-.41-.194-.711l-.015-.188-.065-.71-.027-.083a.39.39 0 00-.162-.182c-.088-.053-.512-.078-.855-.083L14.304 11V9.5h1.228z"/>
  </g>
</svg>
