<svg xmlns="http://www.w3.org/2000/svg" width="24" height="24" viewBox="0 0 24 24">
  <g fill="#324558" fill-rule="evenodd">
    <path d="M20 8.972a1 1 0 011 1v4a1 1 0 01-1 1H4a1 1 0 01-1-1v-4c0-.552.449-1 1-1h16zm-11.917 1H7.5v4h.606v-2.404h.012l.928 2.404h.57v-4H9.01v2.41h-.012l-.915-2.41zm4.363 0h-.505l-.946 4h.607l.178-.86h.826l.179.86h.606l-.945-4zm4.054 0h-2.01v.54h.702v3.46h.607v-3.46h.701v-.54zm-4.304 1.152l.297 1.45h-.606l.297-1.45h.012z" opacity=".9"/>
    <path d="M3.935 7.972A9.027 9.027 0 019.55 3.309c-.668 1.144-1.169 2.764-1.46 4.663H3.935zm16.129 0H15.91c-.29-1.899-.792-3.519-1.459-4.663a9.025 9.025 0 015.614 4.663m-10.445 0C10.113 5.02 11.093 3 12 3c.908 0 1.889 2.02 2.379 4.972H9.62zm-5.685 8H8.09c.291 1.899.792 3.519 1.46 4.662a9.02 9.02 0 01-5.615-4.662m16.129 0a9.017 9.017 0 01-5.614 4.662c.667-1.143 1.168-2.763 1.46-4.662h4.154zm-10.444 0h4.759c-.49 2.952-1.471 4.972-2.38 4.972-.907 0-1.887-2.02-2.378-4.972" opacity=".4"/>
  </g>
</svg>
