<svg xmlns="http://www.w3.org/2000/svg" width="24" height="24" viewBox="0 0 24 24">
  <g fill="none" fill-rule="evenodd">
    <path fill="#B6C2CD" d="M18.867 17.714c0 1.26-1.037 2.286-2.311 2.286-1.275 0-2.312-1.025-2.312-2.286 0-.844.466-1.582 1.156-1.978v-1.887l-3.467-1.714-3.466 1.714v1.887a2.282 2.282 0 011.155 1.978c0 1.26-1.037 2.286-2.31 2.286C6.036 20 5 18.975 5 17.714a2.28 2.28 0 011.156-1.978v-3.3l4.622-2.285V8.264a2.282 2.282 0 01-1.156-1.978C9.622 5.026 10.66 4 11.933 4c1.275 0 2.311 1.025 2.311 2.286 0 .844-.465 1.582-1.155 1.978v1.887l4.622 2.286v3.299a2.282 2.282 0 011.156 1.978zM7.31 18.857a1.15 1.15 0 001.156-1.143 1.15 1.15 0 00-1.156-1.143 1.15 1.15 0 00-1.155 1.143 1.15 1.15 0 001.155 1.143zm4.622-13.714a1.15 1.15 0 00-1.155 1.143 1.15 1.15 0 001.155 1.143 1.15 1.15 0 001.156-1.143 1.15 1.15 0 00-1.156-1.143zm4.623 11.428a1.15 1.15 0 00-1.156 1.143 1.15 1.15 0 001.156 1.143 1.15 1.15 0 001.155-1.143 1.15 1.15 0 00-1.155-1.143z"/>
    <path fill="#324558" d="M11.933 5.133a1.15 1.15 0 00-1.155 1.142 1.15 1.15 0 001.155 1.143 1.15 1.15 0 001.156-1.143 1.15 1.15 0 00-1.156-1.142zM7.316 16.582a1.15 1.15 0 00-1.156 1.143 1.15 1.15 0 001.156 1.143 1.15 1.15 0 001.155-1.143 1.15 1.15 0 00-1.155-1.143zm9.24-.007a1.15 1.15 0 00-1.156 1.143 1.15 1.15 0 001.156 1.143 1.15 1.15 0 001.155-1.143 1.15 1.15 0 00-1.155-1.143z"/>
  </g>
</svg>
