<svg width="16" height="16" viewBox="0 0 16 16" fill="none" xmlns="http://www.w3.org/2000/svg">
<g id="file/note_pencil_2_duotone" clip-path="url(#clip0_10924_1218)">
<path id="UnionS" fill-rule="evenodd" clip-rule="evenodd" d="M2.66667 1.99998C2.66667 1.63179 2.96514 1.33331 3.33333 1.33331H12.6667C13.0349 1.33331 13.3333 1.63179 13.3333 1.99998V7.71401L8.33333 12.714V14.6666H3.33333C2.96514 14.6666 2.66667 14.3682 2.66667 14V1.99998ZM9.33333 3.33331H4.66667V4.66665H9.33333V3.33331ZM7.33333 5.99998H4.66667V7.33331H7.33333V5.99998Z" fill="#B6C2CD"/>
<g id="Union">
<path d="M4.66667 3.33331H9.33333V4.66665H4.66667V3.33331Z" fill="#324558"/>
<path d="M4.66667 5.99998H7.33333V7.33331H4.66667V5.99998Z" fill="#324558"/>
<path d="M14.4615 7.99998L16 9.5384L14.9744 10.564L13.4359 9.02559L14.4615 7.99998Z" fill="#324558"/>
<path d="M12.9231 9.53859L14.4615 11.077L10.8718 14.6666H9.33333V13.1282L12.9231 9.53859Z" fill="#324558"/>
</g>
</g>
<defs>
<clipPath id="clip0_10924_1218">
<rect width="16" height="16" fill="white"/>
</clipPath>
</defs>
</svg>
