<svg xmlns="http://www.w3.org/2000/svg" width="24" height="24" viewBox="0 0 24 24">
  <g fill="none" fill-rule="evenodd">
    <path fill="#324558" d="M14.938 2.05l2.08 2.08-.001-.002 1.97 1.97L21 8.11v12.002a2 2 0 01-2 2H4.999a2 2 0 01-2-2V4.05a2 2 0 012-2h9.94zm0 2.078l-9.922.001v10.858h13.97V8.11l-4.048.001V4.128z"/>
    <path fill="#B6C2CD" fill-rule="nonzero" d="M5.883 19.575c.242 0 .458-.058.647-.173.19-.115.336-.28.439-.493a1.68 1.68 0 00.154-.737v-.13a1.636 1.636 0 00-.16-.728 1.158 1.158 0 00-1.084-.661c-.244 0-.46.058-.651.174-.191.116-.338.28-.44.493a1.684 1.684 0 00-.153.737v.16c.005.269.06.506.165.713.105.207.25.366.438.478.188.111.403.167.645.167zm0-.535a.454.454 0 01-.412-.225c-.093-.15-.139-.364-.139-.643l.002-.209c.02-.515.201-.773.545-.773.176 0 .31.073.405.22.095.146.142.36.142.643v.131c-.002.276-.049.488-.143.635a.448.448 0 01-.4.22zm2.28.496v-.965H8.6c.346 0 .618-.083.817-.25a.823.823 0 00.298-.664.905.905 0 00-.526-.845c-.168-.08-.36-.12-.578-.12H7.477v2.844h.685zm.448-1.494h-.449v-.82h.457a.38.38 0 01.293.12c.072.08.108.186.108.319a.37.37 0 01-.105.28c-.07.067-.17.1-.304.1zm2.594 1.533a1.4 1.4 0 00.605-.125.967.967 0 00.41-.353c.098-.152.152-.326.16-.524h-.68c-.006.161-.05.28-.134.353-.083.074-.203.112-.36.112-.187 0-.318-.066-.394-.196-.077-.13-.115-.347-.115-.65v-.201c.004-.28.046-.484.125-.612.08-.127.205-.191.375-.191.168 0 .293.038.375.113.082.076.126.2.131.373h.684c-.029-.319-.148-.569-.358-.75-.21-.182-.487-.273-.832-.273-.24 0-.45.057-.633.17a1.103 1.103 0 00-.418.485 1.721 1.721 0 00-.146.732v.14c0 .444.107.788.322 1.031.215.244.51.366.883.366z"/>
    <path fill="#B6C2CD" d="M11.338 6.34v2.7H8.127v1.8h3.211v2.7l3.6-3.6z"/>
  </g>
</svg>
