<svg xmlns="http://www.w3.org/2000/svg" width="212" height="197" fill="none" viewBox="0 0 212 197">
  <path fill="#324558" d="M96.02 16.09v180l32-15.06V.46l-32 15.63z"/>
  <path fill="#AEB0B3" d="M206.84 68.89l4.42 45.87-61.88-13.47"/>
  <path fill="#AEB0B3" d="M133.64 59.67v20.32c13.4 2.32 25.39 6.73 34.95 12.64l22.63-13.98c-15.42-9.54-35.33-16.29-57.58-18.98zM32.02 127.59c0-22.67 24.71-41.77 58.38-47.6V59.66C38.89 65.89.02 93.93.02 127.58c0 34.87 41.73 63.71 96 68.51v-20.06c-36.51-4.58-64-24.53-64-48.44z"/>
  <path fill="#324558" d="M96.02 16.09v180l32-15.06V.46l-32 15.63z"/>
  <path fill="#AEB0B3" d="M206.84 68.89l4.42 45.87-61.88-13.47"/>
  <path fill="#AEB0B3" d="M133.64 59.67v20.32c13.4 2.32 25.39 6.73 34.95 12.64l22.63-13.98c-15.42-9.54-35.33-16.29-57.58-18.98zM32.02 127.59c0-22.67 24.71-41.77 58.38-47.6V59.66C38.89 65.89.02 93.93.02 127.58c0 34.87 41.73 63.71 96 68.51v-20.06c-36.51-4.58-64-24.53-64-48.44z"/>
</svg>
