<svg xmlns="http://www.w3.org/2000/svg" width="24" height="24" viewBox="0 0 24 24">
  <g fill="none" fill-rule="evenodd">
    <path fill="#B6C2CD" d="M12 22C6.477 22 2 17.523 2 12S6.477 2 12 2s10 4.477 10 10-4.477 10-10 10zm0-2a8 8 0 100-16 8 8 0 000 16z"/>
    <path fill="#324558" d="M12 20a8 8 0 110-16 8 8 0 010 16zm-6-7.771v.128c0 .461.067.888.202 1.28.135.393.327.733.577 1.02.25.287.553.512.909.674.355.162.755.243 1.2.243.446 0 .846-.08 1.202-.243.355-.162.658-.387.908-.674.25-.287.441-.627.574-1.02.133-.392.2-.819.2-1.28v-.128c0-.461-.067-.888-.2-1.28a3.026 3.026 0 00-.574-1.023 2.65 2.65 0 00-.911-.68A2.868 2.868 0 008.877 9c-.441 0-.84.082-1.195.246-.356.164-.658.39-.906.68-.248.289-.44.63-.574 1.022-.135.393-.202.82-.202 1.28zm1.09.128v-.128c0-.313.037-.61.111-.894.074-.283.187-.531.337-.744.15-.213.337-.383.56-.51.222-.127.482-.19.779-.19a1.591 1.591 0 011.356.7c.15.213.264.46.34.744.076.283.114.581.114.894v.128c0 .317-.038.616-.114.897a2.364 2.364 0 01-.337.741 1.647 1.647 0 01-.562.507 1.599 1.599 0 01-.785.187c-.301 0-.564-.062-.788-.187a1.684 1.684 0 01-.563-.507 2.28 2.28 0 01-.337-.741 3.501 3.501 0 01-.111-.897zm9.732 1.418a.75.75 0 01-.088.36.832.832 0 01-.26.29 1.355 1.355 0 01-.425.194 2.19 2.19 0 01-.586.07 2.32 2.32 0 01-.516-.058 1.459 1.459 0 01-.474-.2 1.194 1.194 0 01-.36-.366 1.137 1.137 0 01-.162-.56h-1.084c0 .263.057.517.17.766.113.248.28.468.498.662a2.5 2.5 0 00.812.465c.322.118.694.176 1.116.176.367 0 .701-.046 1.002-.137.3-.092.558-.22.773-.384a1.69 1.69 0 00.495-.592 1.68 1.68 0 00.173-.762c0-.258-.046-.484-.137-.68a1.46 1.46 0 00-.42-.518 2.751 2.751 0 00-.708-.396 7.11 7.11 0 00-1.008-.304 7.122 7.122 0 01-.736-.197 1.82 1.82 0 01-.448-.21.6.6 0 01-.222-.255.875.875 0 01.012-.66.81.81 0 01.222-.298c.102-.088.231-.159.39-.211.158-.053.35-.08.577-.08.215 0 .404.033.568.097.164.065.303.149.416.252.113.104.2.221.258.352.059.13.088.26.088.39h1.09a1.818 1.818 0 00-.642-1.4 2.317 2.317 0 00-.762-.426A3.096 3.096 0 0015.428 9c-.356 0-.678.05-.967.15-.29.099-.535.234-.738.404-.203.17-.36.367-.472.592a1.582 1.582 0 00-.167.711c0 .262.053.49.158.686.106.195.257.364.454.507.198.142.437.264.718.366.281.102.598.19.95.264.312.066.564.138.755.216.192.079.339.164.443.255.103.092.172.19.208.293.035.104.052.214.052.331z"/>
  </g>
</svg>
