<svg xmlns="http://www.w3.org/2000/svg" width="20" height="20" viewBox="0 0 20 20">
  <path fill="#B6C2CD" d="M6.069 10.712c-1.315 1.314-1.42 3.295-.295 4.419 1.124 1.124 3.105 1.02 4.42-.295l4.714-4.714 1.178 1.179-4.714 4.714c-1.94 1.94-4.972 2.1-6.776.295-1.805-1.805-1.645-4.837.294-6.777l5.893-5.892a3.333 3.333 0 014.829 4.593l-.115.12-5.552 5.552c-.832.833-2.172.867-2.992.047-.788-.788-.788-2.054-.05-2.891l.096-.102 4.353-4.353 1.178 1.179-4.352 4.352c-.195.195-.203.48-.047.636.14.14.385.148.575.006l.06-.052 5.552-5.552a1.666 1.666 0 00-2.266-2.442l-.09.085-5.893 5.893z"/>
</svg>
