<svg xmlns="http://www.w3.org/2000/svg" width="24" height="24" viewBox="0 0 24 24">
  <g fill="none" fill-rule="evenodd">
    <path fill="#B6C2CD" d="M5 2h12a2 2 0 012 2v16a2 2 0 01-2 2H5V2zm3 14v2h8v-2H8zm4-3a4 4 0 100-8 4 4 0 000 8zM9.041 9.5h1.275c.046.858.206 1.632.445 2.233A3.004 3.004 0 019.04 9.5zm0-1a3.004 3.004 0 011.72-2.233c-.239.6-.4 1.375-.445 2.233H9.041zm5.918 0h-1.275c-.046-.858-.206-1.632-.445-2.233A3.004 3.004 0 0114.96 8.5zm0 1a3.004 3.004 0 01-1.72 2.233c.239-.6.4-1.375.445-2.233h1.275zm-3.64 0h1.362c-.09 1.457-.546 2.5-.681 2.5s-.592-1.043-.681-2.5zm0-1c.09-1.457.546-2.5.681-2.5s.592 1.043.681 2.5H11.32z"/>
    <path fill="#324558" d="M8 16h8v2H8z"/>
    <path fill="#324558" d="M8 16h8v2H8z"/>
  </g>
</svg>
