<svg xmlns="http://www.w3.org/2000/svg" width="24" height="24" viewBox="0 0 24 24">
  <g fill="none" fill-rule="evenodd">
    <path fill="#324558" d="M6.968 16.888h1.984v.992c0 .548.444.992.992.992h7.936a.992.992 0 00.992-.992V8.952h-2.976a.992.992 0 01-.992-.992V4.984h-4.96a.992.992 0 00-.992.992v4.96H6.968V4.984C6.968 3.888 7.856 3 8.952 3h7.695l4.21 4.209v11.663a1.984 1.984 0 01-1.985 1.984h-9.92a1.984 1.984 0 01-1.984-1.984v-1.984z"/>
    <path fill="#B6C2CD" d="M13.904 10.936a1 1 0 011 1v3.952a1 1 0 01-1 1H4a1 1 0 01-1-1v-3.952a1 1 0 011-1h9.904zm-8.43.93h-1.7v4.266H4.8v-1.448h.674c.256 0 .486-.032.691-.098.205-.065.38-.158.522-.278.142-.12.252-.264.328-.432.076-.168.114-.356.114-.563 0-.209-.038-.401-.114-.578a1.31 1.31 0 00-.328-.459 1.52 1.52 0 00-.522-.301 2.071 2.071 0 00-.691-.109zm3.578 0H7.678v4.266h1.386c.285 0 .548-.05.788-.15a1.842 1.842 0 001.031-1.063 2.26 2.26 0 00.147-.83v-.178c0-.3-.05-.577-.147-.828a1.92 1.92 0 00-.409-.647 1.825 1.825 0 00-.625-.42c-.242-.1-.508-.15-.797-.15zm5.358 0h-2.853v4.266h1.028v-1.7h1.658v-.79h-1.658v-.982h1.825v-.794zm-5.358.794c.303 0 .533.105.691.314.159.209.238.52.238.931v.185c0 .414-.08.726-.238.936-.158.21-.384.315-.68.315h-.357v-2.68zm-3.577 0c.107 0 .2.018.277.054a.537.537 0 01.3.355.888.888 0 01.035.25.718.718 0 01-.035.229.466.466 0 01-.3.3.805.805 0 01-.277.043H4.8v-1.23z"/>
    <path fill="#324558" d="M4.801 14.684v1.448H3.773v-4.266h1.702c.256 0 .486.036.691.109.205.072.38.172.522.301.142.13.252.282.328.459.076.177.114.37.114.578 0 .207-.038.395-.114.563a1.215 1.215 0 01-.328.432c-.143.12-.317.213-.522.278a2.27 2.27 0 01-.691.098H4.8zm0-.793h.674c.107 0 .2-.015.277-.043a.466.466 0 00.3-.3.718.718 0 00.035-.229.877.877 0 00-.035-.25.537.537 0 00-.3-.354.648.648 0 00-.277-.055H4.8v1.23zm2.877 2.24v-4.265h1.374c.29 0 .555.05.797.15.242.1.45.24.625.42s.311.396.41.647c.097.251.146.527.146.828v.179c0 .302-.05.579-.147.829a1.842 1.842 0 01-1.031 1.063c-.24.1-.503.15-.788.15H7.678zm1.028-3.47v2.68h.358c.295 0 .521-.105.68-.315.158-.21.237-.522.237-.936v-.185c0-.412-.08-.722-.238-.931-.158-.21-.388-.314-.691-.314h-.346zm5.537 1.772h-1.658v1.699h-1.028v-4.266h2.853v.794h-1.825v.982h1.658v.79z"/>
  </g>
</svg>
