<svg xmlns="http://www.w3.org/2000/svg" width="24" height="24" viewBox="0 0 24 24">
  <g fill="none" fill-rule="evenodd">
    <path fill="#B6C2CD" d="M20.638 18.896L14.31 7.936 9.833 15.69l-2.31-4.001-4.16 7.207A2 2 0 012 17V7a2 2 0 012-2h16a2 2 0 012 2v10a2 2 0 01-1.362 1.896zM5.46 9.923A1.461 1.461 0 105.46 7a1.461 1.461 0 000 2.923z"/>
    <path fill="#324558" d="M20.638 18.896c-.2.067-.415.104-.638.104H4c-.223 0-.438-.037-.638-.104l4.161-7.207 2.31 4 4.477-7.753 6.328 10.96z"/>
  </g>
</svg>
