<svg xmlns="http://www.w3.org/2000/svg" width="24" height="24" viewBox="0 0 24 24">
  <g fill="none" fill-rule="evenodd">
    <path fill="#324558" d="M4.5 3h15a2 2 0 012 2v3h-19V5a2 2 0 012-2z"/>
    <path fill="#B6C2CD" d="M7.5 10v11h-3a2 2 0 01-2-2v-9h5zm7 0v1.889a7.106 7.106 0 00-3.609 6.19c0 1.04.224 2.03.627 2.921H9.5V10h5zm7 0v1.89a7.137 7.137 0 00-5-.762V10h5z"/>
    <path fill="#324558" d="M18 13.5c2.481 0 4.5 2.019 4.5 4.5s-2.019 4.5-4.5 4.5a4.505 4.505 0 01-4.5-4.5c0-2.481 2.019-4.5 4.5-4.5zm1.821 3l-2.541 2.607-1.101-1.13-.679.697 1.78 1.826 3.22-3.304-.679-.696z"/>
  </g>
</svg>
