<svg width="24" height="24" viewBox="0 0 24 24" fill="none" xmlns="http://www.w3.org/2000/svg">
<path fill-rule="evenodd" clip-rule="evenodd" d="M12 22C17.5228 22 22 17.5228 22 12C22 6.47715 17.5228 2 12 2C6.47715 2 2 6.47715 2 12C2 17.5228 6.47715 22 12 22ZM11 7H9V10H7.5V12C7.5 14.0398 9.02684 15.723 11 15.9691V18H13V15.9691C14.9732 15.723 16.5 14.0398 16.5 12V10H15V7H13V10H11V7Z" fill="#CCD3DB"/>
<path d="M9 7H11V10H13V7H15V10H16.5V12C16.5 14.0398 14.9732 15.723 13 15.9691V18H11V15.9691C9.02684 15.723 7.5 14.0398 7.5 12V10H9V7Z" fill="#36435C"/>
</svg>
