<svg xmlns="http://www.w3.org/2000/svg" width="24" height="24" viewBox="0 0 24 24">
  <g fill="none" fill-rule="evenodd">
    <path fill="#324558" d="M19.903 3c.536 0 .97.49.96 1.108v15.648c0 .606-.424 1.107-.96 1.107H3.96c-.526 0-.96-.49-.96-1.107V4.108C3 3.5 3.424 3 3.96 3h15.943zm-.955 10.92V6.264c0-.158-.111-.287-.253-.287h-1.131V8.47h-1.728V5.977h-1.485V8.47h-1.728V5.977h-1.435V8.47H9.461V5.977H8.036V8.47H6.308V5.977h-1.07c-.142 0-.253.129-.253.287v7.656c0 .158.111.287.252.287h2.334v1.464h2.516v2.215h3.759v-2.215h2.475v-1.464h2.374c.142 0 .253-.129.253-.287z"/>
    <path fill="#B6C2CD" d="M18.948 13.92c0 .158-.111.287-.253.287h-2.374v1.464h-2.475v2.215h-3.759v-2.215H7.571v-1.464H5.237c-.141 0-.252-.129-.252-.287V6.264c0-.158.111-.287.252-.287h1.071V8.47h1.728V5.977h1.425V8.47h1.727V5.977h1.435V8.47h1.728V5.977h1.485V8.47h1.728V5.977h1.131c.142 0 .253.129.253.287v7.656z"/>
  </g>
</svg>
