<svg xmlns="http://www.w3.org/2000/svg" width="24" height="24" viewBox="0 0 24 24">
  <g fill="none" fill-rule="evenodd">
    <path fill="#B6C2CD" d="M3.064 9.504l3.134-6.168a.545.545 0 01.55-.316l6.968.394a.54.54 0 01.41.264l6.794 11.648a.53.53 0 01-.2.73l-10.107 5.778a.542.542 0 01-.737-.195L3.089 9.987a.527.527 0 01-.024-.483h-.001zm5.268-1.119a1.446 1.446 0 001.764-1.008c.1-.364.048-.753-.143-1.08a1.446 1.446 0 00-2.636.35 1.416 1.416 0 001.015 1.739v-.001z"/>
    <path fill="#324558" d="M8.474 11.307c.004.08.027.172.069.28.082.141.21.251.363.311l2.119 1.175-1.052.587a.49.49 0 00-.22.29.533.533 0 00.042.36c.079.12.18.2.3.244a.48.48 0 00.378-.023l1.37-.754.245.434-1.373.765a.462.462 0 00-.214.306.607.607 0 00.05.374.6.6 0 00.297.241.472.472 0 00.37-.024l1.37-.772.426.754c.246.393.58.47 1.006.234.21-.117.345-.258.405-.422.06-.165.039-.352-.066-.561l-.417-.74 1.38-.77a.431.431 0 00.207-.326.793.793 0 00-.057-.393.59.59 0 00-.29-.222.49.49 0 00-.368.037l-1.381.77-.252-.448 1.376-.776a.469.469 0 00.22-.302.636.636 0 00-.046-.376.59.59 0 00-.29-.222.49.49 0 00-.368.038l-1.03.574.012-2.214c.016-.084.02-.181.014-.293a.671.671 0 00-.105-.32.769.769 0 00-.325-.244c-.12-.043-.282-.022-.491.063a.657.657 0 00-.242.289 1.209 1.209 0 00-.095.348l.026 2.584-2.316-1.327a.997.997 0 00-.342-.09.79.79 0 00-.372.057c-.07.045-.13.09-.18.14a.493.493 0 00-.118.158.443.443 0 00-.034.206h-.001z"/>
  </g>
</svg>
