<svg xmlns="http://www.w3.org/2000/svg" width="24" height="24" viewBox="0 0 24 24">
  <g fill="none" fill-rule="evenodd">
    <path fill="#B6C2CD" d="M12 21a9 9 0 110-18 9 9 0 010 18zm.002-2.744a1.312 1.312 0 100-2.623 1.312 1.312 0 000 2.623zM10.6 9.078c.153-.752.688-1.184 1.47-1.184.683 0 1.234.402 1.33 1.141.073.56-.054.82-.61 1.386l-.294.296C11.477 11.752 11 12.657 11 14.142h2c0-.878.237-1.327.921-2.021l.295-.297c.944-.96 1.335-1.761 1.167-3.047-.237-1.82-1.693-2.883-3.313-2.883-1.73 0-3.086 1.098-3.43 2.784l1.96.4z"/>
    <circle cx="12.002" cy="16.945" r="1.312" fill="#324558"/>
    <path fill="#324558" fill-rule="nonzero" d="M10.6 9.078l-1.96-.4c.344-1.686 1.7-2.784 3.43-2.784 1.62 0 3.076 1.064 3.313 2.883.168 1.286-.223 2.086-1.167 3.047-.053.053-.25.25-.295.297-.684.694-.921 1.143-.921 2.021h-2c0-1.486.477-2.39 1.496-3.425l.294-.296c.556-.565.683-.826.61-1.386-.096-.739-.647-1.141-1.33-1.141-.782 0-1.317.432-1.47 1.184z"/>
  </g>
</svg>
