<svg xmlns="http://www.w3.org/2000/svg" width="24" height="24" viewBox="0 0 24 24">
  <g fill="none" fill-rule="evenodd">
    <path fill="#B6C2CD" d="M20.182 4H3.818C2.818 4 2 4.824 2 5.83v11.895a1.83 1.83 0 001.818 1.83h16.364c1 0 1.818-.823 1.818-1.83V5.83A1.83 1.83 0 0020.182 4zm0 13.725H12V5.83h8.182v11.895z"/>
    <path fill="#324558" d="M13.11 11.32h5.963c.11 0 .2.09.2.2v.973a.2.2 0 01-.2.2h-5.964a.2.2 0 01-.2-.2v-.973c0-.11.09-.2.2-.2zm0-2.287h5.963c.11 0 .2.09.2.2v.972a.2.2 0 01-.2.2h-5.964a.2.2 0 01-.2-.2v-.972c0-.11.09-.2.2-.2zm0 4.575h5.963c.11 0 .2.09.2.2v.972a.2.2 0 01-.2.2h-5.964a.2.2 0 01-.2-.2v-.972c0-.11.09-.2.2-.2z"/>
  </g>
</svg>
