<svg xmlns="http://www.w3.org/2000/svg" width="24" height="24" viewBox="0 0 24 24">
  <g fill="none" fill-rule="evenodd">
    <path fill="#B6C2CD" d="M18 3a3 3 0 013 3v12a3 3 0 01-3 3H6a3 3 0 01-3-3V6a3 3 0 013-3h12zm-5.3 2h-1.4v1.434C7.769 6.787 5 9.778 5 13.4h1.4c0-.782.618-1.4 1.4-1.4.782 0 1.4.618 1.4 1.4h1.4c0-.782.618-1.4 1.4-1.4.782 0 1.4.618 1.4 1.4h1.4c0-.782.618-1.4 1.4-1.4.782 0 1.4.618 1.4 1.4H19c0-3.622-2.769-6.613-6.3-6.966V5z"/>
    <path fill="#324558" fill-rule="nonzero" d="M12 5v7c-.782 0-1.4.618-1.4 1.4H9.2c0-.782-.618-1.4-1.4-1.4-.782 0-1.4.618-1.4 1.4H5c0-3.622 2.769-6.613 6.3-6.966V5h.7zm-.7 8.4v3.5c0 .396-.304.7-.7.7a.689.689 0 01-.7-.7H8.5c0 1.151.949 2.1 2.1 2.1a2.11 2.11 0 002.1-2.1v-3.5h-1.4z"/>
  </g>
</svg>
