<svg xmlns="http://www.w3.org/2000/svg" width="24" height="24" viewBox="0 0 24 24">
  <path fill-rule="evenodd" clip-rule="evenodd" d="M17.6942 14.007C15.2073 16.4939 13.374 17.4565 11.9628 17.6171L8.83258 17.9189L6.00415 15.0905C6.00415 15.0905 6.05608 13.1043 6.37933 11.8869C7.04801 9.36838 7.50654 8.63832 9.91601 6.22886C13.4433 2.70155 21.1283 1.93046 21.5605 2.36258C21.9926 2.79471 21.2215 10.4797 17.6942 14.007ZM14.8429 9.08004C15.4287 9.66582 16.3784 9.66582 16.9642 9.08004C17.55 8.49425 17.55 7.5445 16.9642 6.95872C16.3784 6.37293 15.4287 6.37293 14.8429 6.95872C14.2571 7.5445 14.2571 8.49425 14.8429 9.08004Z" />
  <path d="M8.40497 5.62109C5.74707 5.73069 2.7155 7.33015 1.80249 11.5099L4.81591 11.9949C4.84976 11.8253 4.88747 11.6592 4.92954 11.5008C5.27452 10.2015 5.60201 9.21356 6.22309 8.22049C6.74524 7.38561 7.44191 6.60159 8.40497 5.62109Z" fill="currentColor"/>
  <path d="M11.8288 19.1359L12.1196 19.1078L12.1324 19.1064C13.9028 18.9049 15.8572 17.8221 18.1635 15.6419C17.9671 18.2377 16.3398 21.1121 12.2892 21.9969L11.8288 19.1359Z" fill="currentColor"/>
  <path d="M5.47314 16.0669C4.11719 15.7839 2.7742 16.5957 2.58508 18.0501L2.07349 21.9845L6.00788 21.4729C7.52504 21.2757 8.34298 19.8228 7.94834 18.4093C7.26913 18.8574 6.34645 18.7825 5.74865 18.1847C5.17456 17.6106 5.08272 16.7369 5.47314 16.0669Z" fill="currentColor"/>
  <path d="M14.8429 9.07891C15.4287 9.6647 16.3784 9.6647 16.9642 9.07891C17.55 8.49312 17.55 7.54338 16.9642 6.95759C16.3784 6.3718 15.4287 6.3718 14.8429 6.95759C14.2571 7.54338 14.2571 8.49312 14.8429 9.07891Z" fill="currentColor"/>
</svg>
