<svg xmlns="http://www.w3.org/2000/svg" width="24" height="24" viewBox="0 0 24 24">
  <g fill="none" fill-rule="evenodd">
    <path fill="#B6C2CD" d="M8.496 2.855L10.5 4l5.206-1.602A1 1 0 0117 3.354V8.6H7V3.723a1 1 0 011.496-.868zM2 10h20v2H2z"/>
    <path fill="#324558" fill-rule="nonzero" d="M13.032 16.51c-.288-.18-.625-.267-1.032-.267-.406 0-.742.087-1.03.265a3.999 3.999 0 11-.743-1.872A3.974 3.974 0 0112 14.243c.647 0 1.242.132 1.774.394a3.999 3.999 0 11-.742 1.873zm3.97 2.488a1.999 1.999 0 100-3.998 1.999 1.999 0 000 3.998zm-10 0a1.999 1.999 0 100-3.998 1.999 1.999 0 000 3.998z"/>
  </g>
</svg>
