<svg xmlns="http://www.w3.org/2000/svg" width="48" height="48" fill="none" viewBox="0 0 48 48">
  <path fill="#B6C2CD" fill-rule="evenodd" d="M24 44c11.046 0 20-8.954 20-20S35.046 4 24 4 4 12.954 4 24s8.954 20 20 20zm0-4c8.837 0 16-7.163 16-16S32.837 8 24 8 8 15.163 8 24s7.163 16 16 16z" clip-rule="evenodd"/>
  <circle cx="24" cy="24" r="16" fill="#324558"/>
  <path fill="#fff" d="M16.292 25.673h-1.46v3.207H13v-8.76h3.304c1.05 0 1.861.23 2.431.692.57.461.855 1.113.855 1.955 0 .598-.132 1.097-.397 1.498-.26.397-.658.714-1.19.95l1.923 3.58v.085h-1.967l-1.667-3.207zm-1.46-1.462h1.478c.46 0 .817-.114 1.07-.343.252-.232.378-.551.378-.956 0-.413-.12-.738-.36-.975-.237-.236-.601-.355-1.094-.355h-1.472v2.63zm12.67-2.629h-2.724v7.298h-1.832v-7.298h-2.687V20.12h7.243v1.462zm7.986 4.38c-.07.942-.424 1.684-1.063 2.226-.635.541-1.474.812-2.516.812-1.14 0-2.038-.377-2.694-1.131-.651-.758-.977-1.797-.977-3.116v-.536c0-.842.15-1.584.452-2.226.301-.641.73-1.133 1.289-1.474.562-.345 1.213-.517 1.954-.517 1.026 0 1.853.27 2.48.812s.99 1.302 1.087 2.28h-1.832c-.045-.565-.206-.974-.483-1.227-.273-.257-.69-.385-1.252-.385-.61 0-1.069.216-1.374.65-.301.429-.456 1.097-.464 2.003v.662c0 .946.144 1.638.433 2.075.294.438.754.656 1.38.656.567 0 .988-.126 1.265-.379.281-.257.442-.652.483-1.185h1.832z"/>
</svg>
