<svg xmlns="http://www.w3.org/2000/svg" width="24" height="24" viewBox="0 0 24 24">
  <g fill="none" fill-rule="evenodd" transform="translate(3 3)">
    <rect width="18" height="18" fill="#B6C2CD" rx="3"/>
    <path fill="#324558" fill-rule="nonzero" d="M7.195 14.137c1.103 0 1.98-.245 2.632-.735.651-.49.977-1.166.977-2.027 0-.775-.266-1.422-.8-1.941-.533-.52-1.383-.955-2.55-1.306-.633-.191-1.113-.397-1.438-.615-.326-.22-.49-.49-.49-.814 0-.346.14-.625.418-.837.278-.212.667-.318 1.169-.318.52 0 .923.126 1.21.38.287.252.43.607.43 1.062h2.051a2.86 2.86 0 00-.461-1.6c-.308-.469-.74-.832-1.296-1.09-.556-.257-1.19-.386-1.9-.386-.706 0-1.343.119-1.91.356-.568.237-1.003.566-1.306.987a2.403 2.403 0 00-.455 1.44c0 1.034.565 1.856 1.695 2.467.415.223.978.45 1.689.68.71.23 1.203.45 1.476.657.274.207.41.504.41.892 0 .355-.136.632-.41.83-.273.198-.654.298-1.141.298-1.313 0-1.969-.55-1.969-1.648H3.168c0 .643.166 1.208.496 1.695.33.488.81.872 1.439 1.152.629.28 1.326.42 2.092.42z"/>
    <circle cx="13.5" cy="12.5" r="1.5" fill="#FFF"/>
  </g>
</svg>
