<svg width="24" height="24" viewBox="0 0 24 24" fill="none"
     xmlns="http://www.w3.org/2000/svg">
  <path fill-rule="evenodd" clip-rule="evenodd"
        d="M12 22C17.5228 22 22 17.5228 22 12C22 6.47715 17.5228 2 12 2C6.47715 2 2 6.47715 2 12C2 17.5228 6.47715 22 12 22ZM18.3287 4.25708C18.8458 4.68024 19.3198 5.15419 19.7429 5.67129L14.7076 10.7066C14.8951 11.0982 15 11.5369 15 12C15 13.6569 13.6569 15 12 15C10.3431 15 9 13.6569 9 12C9 10.3431 10.3431 9 12 9C12.4632 9 12.9018 9.10496 13.2934 9.29238L18.3287 4.25708Z"
        fill="#CCD3DB"/>
  <path
    d="M19.7429 5.67203C19.3198 5.15492 18.8458 4.68098 18.3287 4.25781L13.2934 9.29311C12.9018 9.10569 12.4632 9.00073 12 9.00073C10.3431 9.00073 9 10.3439 9 12.0007C9 13.6576 10.3431 15.0007 12 15.0007C13.6569 15.0007 15 13.6576 15 12.0007C15 11.5376 14.8951 11.099 14.7076 10.7073L19.7429 5.67203Z"
    fill="#36435C"/>
</svg>
