<svg xmlns="http://www.w3.org/2000/svg" width="24" height="24" viewBox="0 0 24 24">
  <g fill="none" fill-rule="evenodd">
    <path fill="#324558" d="M14.964 16.871A4.98 4.98 0 0111.8 18a4.98 4.98 0 01-3.258-1.207l-.748.748a1.5 1.5 0 11-.768-.646l.826-.826A5 5 0 0111.3 8.025v-1.11a1.5 1.5 0 111 0v1.11a5 5 0 013.371 8.14l.782.781a1.5 1.5 0 11-.707.707l-.782-.782zm-6.432-4.688l-.732-.156.95 1.463 1.462-.95-.843-.18a2.644 2.644 0 11.323 2.041l-.725.453a3.5 3.5 0 10-.435-2.671z"/>
    <path fill="#B6C2CD" d="M8.532 12.183a3.5 3.5 0 11.435 2.671l.725-.453a2.644 2.644 0 10-.323-2.04l.843.18-1.462.949-.95-1.463.732.156z"/>
  </g>
</svg>
