<svg xmlns="http://www.w3.org/2000/svg" width="24" height="24" viewBox="0 0 24 24">
  <g fill="none" fill-rule="evenodd">
    <path fill="#B6C2CD" d="M12.855 11.711l-1.624 1.624-1.652 6.168a3 3 0 01-2.297 2.163l-.374.076 1.495-5.579-4.084 4.084-.12-.362a3 3 0 01.724-3.07L9.438 12.3l.594-2.218a3.002 3.002 0 002.608-2.003l-.373 1.392 1.019-1.019a3.002 3.002 0 00-.431 3.26z"/>
    <path fill="#324558" fill-rule="nonzero" d="M10.584 4.191a1 1 0 00-1.225.708L8.841 6.83a1 1 0 001.932.518l.518-1.932a1 1 0 00-.707-1.225zm.518-1.931a3 3 0 012.12 3.674l-.517 1.932A3 3 0 116.91 6.313l.517-1.932a3 3 0 013.675-2.121zm7.992 4.614a3 3 0 010 4.243l-1.414 1.414a3 3 0 11-4.242-4.242l1.414-1.415a3 3 0 014.242 0zM17.68 8.29a1 1 0 00-1.414 0l-1.414 1.414a1 1 0 101.414 1.414l1.414-1.414a1 1 0 000-1.414z"/>
  </g>
</svg>
