<svg xmlns="http://www.w3.org/2000/svg" width="24" height="24" viewBox="0 0 24 24">
  <g fill="none" fill-rule="evenodd">
    <path fill="#B6C2CD" d="M3 4.5v15a2 2 0 002 2h14a2 2 0 002-2v-15a2 2 0 00-2-2H5a2 2 0 00-2 2z"/>
    <path fill="#324558" d="M12.352 5.833a8.004 8.004 0 01-2.2-.824c-.364-.191-.627-.33-.918-.33-.291 0-.554.139-.919.33a7.958 7.958 0 01-2.2.824L6 5.858v.118c0 4.478 3.14 5.98 3.172 5.994l.065.03.063-.032c.032-.017 3.168-1.663 3.168-5.992v-.118l-.116-.025z"/>
    <path fill="#324558" fill-rule="nonzero" d="M6 13.527h12.004v1.841H6zm0 3.587h12.004v1.84H6z"/>
  </g>
</svg>
