<svg xmlns="http://www.w3.org/2000/svg" width="24" height="24" viewBox="0 0 24 24">
  <g fill="none" fill-rule="evenodd">
    <path fill="#324558" d="M5 3h14a2 2 0 012 2v14a2 2 0 01-2 2H5a2 2 0 01-2-2V5a2 2 0 012-2zm1 2a1 1 0 00-1 1v12a1 1 0 001 1h12a1 1 0 001-1V6a1 1 0 00-1-1H6zm3.343 4.5l2.829 2.828L15 9.5l1.414 1.414-4.242 4.243-4.243-4.243L9.343 9.5z"/>
    <path fill="#B6C2CD" d="M6 5h12a1 1 0 011 1v12a1 1 0 01-1 1H6a1 1 0 01-1-1V6a1 1 0 011-1zm3.343 4.5L7.93 10.914l4.243 4.243 4.242-4.243L15 9.5l-2.828 2.828L9.343 9.5z"/>
  </g>
</svg>
