<svg xmlns="http://www.w3.org/2000/svg" width="24" height="24" viewBox="0 0 24 24">
  <g fill="none" fill-rule="evenodd">
    <path fill="#B6C2CD" d="M11.732 11H20a1 1 0 010 2h-8.268A1.99 1.99 0 0012 12a1.99 1.99 0 00-.268-1zm-5.464 0A1.99 1.99 0 006 12c0 .364.097.706.268 1H4a1 1 0 010-2h2.268zm6 6A1.99 1.99 0 0012 18c0 .364.097.706.268 1H4a1 1 0 010-2h8.268zm5.464 0H20a1 1 0 010 2h-2.268A1.99 1.99 0 0018 18a1.99 1.99 0 00-.268-1zM12.268 5A1.99 1.99 0 0012 6c0 .364.097.706.268 1H4a1 1 0 110-2h8.268zm5.464 0H20a1 1 0 010 2h-2.268A1.99 1.99 0 0018 6a1.99 1.99 0 00-.268-1z"/>
    <path fill="#324558" d="M15 8a2 2 0 110-4 2 2 0 010 4zm-6 6a2 2 0 110-4 2 2 0 010 4zm6 6a2 2 0 110-4 2 2 0 010 4z"/>
  </g>
</svg>
