<svg xmlns="http://www.w3.org/2000/svg" width="24" height="24" viewBox="0 0 24 24">
  <g fill="none" fill-rule="evenodd">
    <path fill="#B6C2CD" d="M22.219 4.825V8.35a6.02 6.02 0 00-2.563-.569 6.04 6.04 0 00-5.263 3.072H1.781v-6.03H22.22zM6.233 6.852H4.259v1.975h1.974V6.852zm3.429 0H7.688v1.975h1.974V6.852z"/>
    <path fill="#324558" d="M18.707 9.506l-.197 1.01a3.193 3.193 0 00-.898.516l-.97-.335-.933 1.618.776.674c-.027.169-.045.34-.045.517s.018.348.045.517l-.776.674.933 1.618.97-.335c.266.22.57.393.898.517l.197 1.01h1.866l.196-1.01c.329-.124.632-.298.899-.517l.97.335.932-1.618-.776-.674c.028-.169.046-.34.046-.517 0-.176-.018-.348-.046-.517l.776-.674-.933-1.618-.97.335a3.193 3.193 0 00-.898-.517l-.196-1.009h-1.866zm.933 2.4a1.6 1.6 0 110 3.2 1.6 1.6 0 010-3.2zm-6.026 1.958l-.7-.001v4.734c.519.299.855.83.908 1.42l.007.162a1.829 1.829 0 01-3.658 0 1.829 1.829 0 01.778-1.493l.137-.087v-4.736h-1.83v3.573h-2.99a1.829 1.829 0 01-1.581.914 1.829 1.829 0 111.495-2.88l.087.137h1.16v-1.744H1.781v-2.012l12.177-.001a6.033 6.033 0 00-.344 2.014z"/>
  </g>
</svg>
