<svg xmlns="http://www.w3.org/2000/svg" width="24" height="24" viewBox="0 0 24 24">
  <g fill="none" fill-rule="evenodd">
    <path fill="#B6C2CD" d="M7.682 2.5v1.727h1.727V2.5H7.682zm3.454 0v1.727h1.728V2.5h-1.728zm3.455 0v1.727h1.727V2.5h-1.727zm-9.5 2.59v13.82h13.818V5.091H5.091zM2.5 7.683V9.41h1.727V7.682H2.5zm17.273 0V9.41H21.5V7.682h-1.727zM2.5 11.136v1.728h1.727v-1.728H2.5zm17.273 0v1.728H21.5v-1.728h-1.727zM2.5 14.591v1.727h1.727v-1.727H2.5zm17.273 0v1.727H21.5v-1.727h-1.727zM7.682 19.773V21.5h1.727v-1.727H7.682zm3.454 0V21.5h1.728v-1.727h-1.728zm3.455 0V21.5h1.727v-1.727h-1.727z"/>
    <path fill="#324558" d="M7.682 2.5v1.727h1.727V2.5H7.682zm3.454 0v1.727h1.728V2.5h-1.728zm3.455 0v1.727h1.727V2.5h-1.727zM2.5 7.682v1.727h1.727V7.682H2.5zm17.273 0v1.727H21.5V7.682h-1.727zM2.5 11.136v1.728h1.727v-1.728H2.5zm17.273 0v1.728H21.5v-1.728h-1.727zM2.5 14.591v1.727h1.727v-1.727H2.5zm17.273 0v1.727H21.5v-1.727h-1.727zM7.682 19.773V21.5h1.727v-1.727H7.682zm3.454 0V21.5h1.728v-1.727h-1.728zm3.455 0V21.5h1.727v-1.727h-1.727zM12.12 8.503a2.657 2.657 0 012.535 2.653 2.648 2.648 0 01-1.77 2.492v1.932h-1.77v-1.932a2.647 2.647 0 01-1.718-3.023 2.66 2.66 0 012.722-2.122zM8.5 12.04a.5.5 0 110 1 .5.5 0 010-1zm7 0a.5.5 0 110 1 .5.5 0 010-1zm-7-3a.5.5 0 110 1 .5.5 0 010-1zm7 0a.5.5 0 110 1 .5.5 0 010-1z"/>
  </g>
</svg>
