<svg xmlns="http://www.w3.org/2000/svg" width="24" height="24" viewBox="0 0 24 24">
  <g fill="none" fill-rule="evenodd">
    <path fill="#B6C2CD" d="M22 4.825v6H2v-6h20zM6.451 6.842H4.477v1.965h1.974V6.842zm3.43 0H7.906v1.965h1.975V6.842z"/>
    <path fill="#324558" d="M22 11.81v2.014h-5.349l.001 1.743h1.163a1.829 1.829 0 011.58-.914 1.829 1.829 0 11-1.495 2.88l-.087-.137h-2.99v-3.572h-1.829v4.733c.519.299.855.83.907 1.42l.008.162a1.829 1.829 0 01-3.658 0 1.829 1.829 0 01.778-1.493l.136-.087v-4.735H9.336v3.572h-2.99a1.829 1.829 0 01-1.581.914 1.829 1.829 0 111.495-2.88l.087.137h1.16v-1.743H2V11.81h20z"/>
  </g>
</svg>
