<svg xmlns="http://www.w3.org/2000/svg" width="24" height="24" viewBox="0 0 24 24">
  <g fill="none" fill-rule="evenodd">
    <path fill="#B6C2CD" d="M12.704 3a9.502 9.502 0 00-4.93 1.367l.856 1.325c3.199-1.908 7.355-1.29 9.816 1.457a7.24 7.24 0 01.096 9.612c-2.406 2.794-6.548 3.489-9.785 1.642-3.236-1.848-4.613-5.693-3.251-9.082l2.293.828-1.512-4.633L2 8.032l2.025.732c-1.465 3.68-.285 7.854 2.912 10.298 3.197 2.445 7.665 2.59 11.024.36 3.36-2.232 4.828-6.32 3.622-10.086C20.377 5.569 16.778 3.001 12.704 3z"/>
    <path fill="#324558" d="M15.422 8.509A6.75 6.75 0 0012.71 8C10.586 8 9 8.791 9 9.493c0 .703 1.58 1.487 3.698 1.487a6.757 6.757 0 002.724-.513c.605-.283.987-.65.987-.98 0-.336-.37-.714-.987-.98zm1.029 6.355v-1.57a3.254 3.254 0 01-.793.496c-.93.399-1.937.6-2.954.59a5.982 5.982 0 01-3.692-1.015v1.582c.073.69 1.634 1.446 3.717 1.446 2.082 0 3.631-.762 3.722-1.458v-.07z"/>
    <path fill="#B6C2CD" d="M16.45 12.144v-1.6a3.26 3.26 0 01-.792.496c-.93.4-1.937.6-2.954.59a5.982 5.982 0 01-3.692-1.014v1.581c.073.69 1.634 1.446 3.717 1.446 2.082 0 3.631-.762 3.722-1.458v-.07.029z"/>
  </g>
</svg>
