<svg xmlns="http://www.w3.org/2000/svg" width="24" height="24" viewBox="0 0 24 24">
  <g fill="none" fill-rule="evenodd">
    <path fill="#324558" d="M2.79 5h18.367c.527 0 .79.263.79.79v12.837c0 .527-.263.79-.79.79H2.79c-.527 0-.79-.263-.79-.79V5.79c0-.527.263-.79.79-.79z"/>
    <path fill="#FFF" fill-rule="nonzero" d="M2.79 13.237V5.79h10.543A7.505 7.505 0 012.79 13.237z"/>
    <path fill="#B6C2CD" d="M3.876 7.172a.296.296 0 110-.592.296.296 0 010 .592zm-.296.593h.592v.592H3.58v-.592zm0 .987h.592v.593H3.58v-.593zm0 .988h.592v.592H3.58V9.74zm0 .987h.592v.593H3.58v-.593zm0 .988h.592v.592H3.58v-.592zm1.382-4.543h5.135v.79H4.962v-.79zm0 1.185h3.753v.79H4.962v-.79zm0 1.185h4.543v.79H4.962v-.79zm0 1.185H6.74v.79H4.962v-.79z"/>
    <path fill="#FFF" fill-rule="nonzero" d="M3.876 18.232a.296.296 0 110-.592.296.296 0 010 .592zM20.27 6.975a.296.296 0 110-.593.296.296 0 010 .593zm0 11.257a.296.296 0 110-.592.296.296 0 010 .592zm-7.703-2.114c-.49-.85-.008-2.048 1.079-2.675 1.086-.627 2.364-.446 2.855.404.491.85.008 2.048-1.078 2.675-1.086.627-2.365.446-2.856-.404zm.342-.197c.382.66 1.42.777 2.316.259.898-.518 1.316-1.474.934-2.136-.382-.66-1.419-.777-2.316-.259-.897.518-1.315 1.474-.934 2.136zm6.869-1.444v-6.12h2.17v.593h-1.763v5.2l1.147 1.712h.616v.592h-.811v.001h-.002v-.003l-1.359-1.974.002-.001zm.788-5.132h1.382v.592h-1.382v-.592zm0 .987h1.382v.593h-1.382v-.593zm0 .988h1.382v.592h-1.382v-.592zm0 .987h1.382v.593h-1.382v-.593zm.395 1.58h.987v.593h-.987v-.593zm.197.988h.79v.592h-.79v-.592z"/>
  </g>
</svg>
