<svg xmlns="http://www.w3.org/2000/svg" width="24" height="24" viewBox="0 0 24 24">
  <g fill="none" fill-rule="evenodd">
    <path fill="#B6C2CD" d="M10.422 11.922A4.482 4.482 0 007.5 10.845a4.482 4.482 0 00-2.922 1.077A4.5 4.5 0 1111.626 6.7H19.2L21 8.5l-1.8 1.8h-1.677l-.03-.044a2.467 2.467 0 00-4.1.044h-1.767a4.513 4.513 0 01-1.204 1.622zM9.12 8.5a1.62 1.62 0 10-3.24 0 1.62 1.62 0 003.24 0z"/>
    <path fill="#324558" d="M11.626 13.545H19.2l1.8 1.8-1.8 1.8h-1.677l-.03-.044a2.467 2.467 0 00-4.1.044h-1.767a4.501 4.501 0 110-3.6zm-2.506 1.8a1.62 1.62 0 10-3.24 0 1.62 1.62 0 003.24 0z"/>
  </g>
</svg>
