<svg xmlns="http://www.w3.org/2000/svg" width="24" height="24" viewBox="0 0 24 24">
  <g fill="none" fill-rule="evenodd">
    <path fill="#B6C2CD" d="M2 7.3h19.8v12.1a1.1 1.1 0 01-1.1 1.1H3.1A1.1 1.1 0 012 19.4V7.3z"/>
    <path fill="#324558" d="M20.7 4a1.1 1.1 0 011.1 1.1v2.2H2V5.1A1.1 1.1 0 013.1 4h17.6zm-4.95 1.1a.55.55 0 10.09.007l-.09-.007zm2.2 0a.55.55 0 100 1.1.55.55 0 000-1.1zm2.2 0a.55.55 0 10.09.007l-.09-.007z"/>
    <path fill="#324558" fill-rule="nonzero" d="M9.608 10.6a3.208 3.208 0 103.074 4.125h1.968V16.1h1.833v-1.375h.917v-1.833h-4.718A3.209 3.209 0 009.608 10.6zm0 1.833a1.375 1.375 0 110 2.75 1.375 1.375 0 010-2.75z"/>
  </g>
</svg>
