<svg xmlns="http://www.w3.org/2000/svg" width="24" height="24" viewBox="0 0 24 24">
  <g fill="none" fill-rule="evenodd">
    <path fill="#B6C2CD" d="M2 7.3h19.8v12.1a1.1 1.1 0 01-1.1 1.1H3.1A1.1 1.1 0 012 19.4V7.3z"/>
    <path fill="#324558" d="M20.7 4a1.1 1.1 0 011.1 1.1v2.2H2V5.1A1.1 1.1 0 013.1 4h17.6zm-4.95 1.1a.55.55 0 10.09.007l-.09-.007zm2.2 0a.55.55 0 100 1.1.55.55 0 000-1.1zm2.2 0a.55.55 0 10.09.007l-.09-.007zm-4.786 3.3a2.134 2.134 0 00-2.135 2.134c0 .037.012.07.014.107l-3.348 1.68a2.1 2.1 0 00-1.36-.506 2.134 2.134 0 100 4.268 2.1 2.1 0 001.36-.507l3.348 1.681c-.002.037-.014.07-.014.107a2.134 2.134 0 102.135-2.135 2.1 2.1 0 00-1.36.507l-3.349-1.68c.002-.037.013-.07.013-.107 0-.037-.011-.07-.013-.107l3.348-1.68a2.1 2.1 0 001.36.506 2.134 2.134 0 100-4.268z"/>
  </g>
</svg>
