<svg xmlns="http://www.w3.org/2000/svg" width="24" height="24" viewBox="0 0 24 24">
  <g fill="none" fill-rule="evenodd">
    <path fill="#B6C2CD" d="M6.467 17.221c2.258 0 3.86.817 3.967 2.002l.006.128v1.843H2.494v-1.843c0-1.254 1.634-2.13 3.973-2.13zm11.265 0c2.258 0 3.86.817 3.967 2.002l.006.128v1.843h-7.946v-1.843c0-1.254 1.634-2.13 3.973-2.13zM6.467 11.924c1.114 0 1.986.873 1.986 1.986a1.965 1.965 0 01-1.986 1.987A1.965 1.965 0 014.48 13.91c0-1.113.872-1.986 1.987-1.986zm11.265 0c1.114 0 1.986.873 1.986 1.986a1.965 1.965 0 01-1.986 1.987 1.965 1.965 0 01-1.987-1.987c0-1.113.872-1.986 1.987-1.986zm-5.74-4.43c2.34 0 3.974.877 3.974 2.13v1.844H8.02V9.625c0-1.254 1.634-2.13 3.973-2.13zm0-5.297c1.115 0 1.987.873 1.987 1.987a1.965 1.965 0 01-1.986 1.986 1.965 1.965 0 01-1.987-1.986c0-1.114.872-1.987 1.987-1.987z"/>
    <path fill="#324558" d="M12.798 12.433v2.512l1.473 1.473-1.14 1.139-1.14-1.14-1.137 1.14-1.14-1.14 1.473-1.473v-2.51h1.611z"/>
  </g>
</svg>
