<svg xmlns="http://www.w3.org/2000/svg" width="24" height="24" viewBox="0 0 24 24">
  <g fill="none" fill-rule="evenodd">
    <path fill="#324558" d="M19.32 11.19a7.397 7.397 0 00-6.51-6.51V3h-1.65v1.68c-3.39.39-6.09 3.09-6.48 6.51H3v1.65h1.68a7.397 7.397 0 006.51 6.51V21h1.65v-1.68a7.397 7.397 0 006.51-6.51H21v-1.65h-1.68v.03zM12 17.73A5.71 5.71 0 016.27 12 5.71 5.71 0 0112 6.27 5.71 5.71 0 0117.73 12 5.71 5.71 0 0112 17.73z"/>
    <path fill="#B6C2CD" d="M12 8.73c-1.8 0-3.27 1.47-3.27 3.27s1.47 3.27 3.27 3.27 3.27-1.47 3.27-3.27S13.8 8.73 12 8.73z"/>
  </g>
</svg>
