<svg width="40" height="40" viewBox="0 0 40 40" fill="none" xmlns="http://www.w3.org/2000/svg">
<path fill-rule="evenodd" clip-rule="evenodd" d="M4.99998 10C4.07951 10 3.33331 10.7462 3.33331 11.6667V35C3.33331 35.9205 4.07951 36.6667 4.99998 36.6667H28.3333C29.2538 36.6667 30 35.9205 30 35V11.6667C30 10.7462 29.2538 10 28.3333 10H4.99998ZM14.8697 29.8406L25.3367 19.5201L22.9964 17.1466L14.8697 25.1594L11.1701 21.5116L8.82973 23.8852L14.8697 29.8406Z" fill="#C1C9D1"/>
<path d="M16.6667 6.66634V9.99967H13.3334V4.99968C13.3334 4.0792 14.0795 3.33301 15 3.33301H35C35.9205 3.33301 36.6667 4.0792 36.6667 4.99967V24.9997C36.6667 25.9201 35.9205 26.6663 35 26.6663H30V23.333H33.3334V6.66634H16.6667Z" fill="#36435C"/>
<path d="M14.8697 29.8403L25.3368 19.5198L22.9964 17.1462L14.8697 25.1591L11.1701 21.5113L8.82977 23.8849L14.8697 29.8403Z" fill="#36435C"/>
</svg>
