<svg xmlns="http://www.w3.org/2000/svg" width="24" height="24" viewBox="0 0 24 24">
  <path fill="#324558" fill-rule="evenodd" d="M17.258 8.766c.49 0 .943.062 1.36.187.416.125.775.311 1.077.559.302.247.538.557.707.93.17.372.254.805.254 1.3v3.578l.003.232a7.084 7.084 0 00.083.928 2.448 2.448 0 00.25.762v.133h-2.281l-.06-.128a2.74 2.74 0 01-.167-.63 2.952 2.952 0 01-.863.649c-.346.177-.77.265-1.27.265-.406 0-.785-.062-1.136-.187a2.815 2.815 0 01-.914-.524 2.364 2.364 0 01-.824-1.82c0-.443.082-.836.246-1.18.164-.343.41-.635.738-.875s.736-.422 1.223-.547c.487-.125 1.053-.187 1.699-.187h1.008v-.484l-.007-.163c-.024-.316-.122-.574-.294-.775-.2-.234-.517-.351-.95-.351-.38 0-.678.09-.894.273-.216.182-.324.432-.324.75h-2.258l.01-.217a2.24 2.24 0 01.244-.822c.17-.328.41-.615.723-.86a3.63 3.63 0 011.132-.582 4.807 4.807 0 011.485-.214zM9.406 6l4.258 11.375h-2.492l-.79-2.344H6.274l-.78 2.344H3L7.234 6h2.172zm8.985 7.531h-.93l-.215.006a2.467 2.467 0 00-.558.092 1.5 1.5 0 00-.54.273c-.14.118-.244.256-.312.414a1.311 1.311 0 00-.102.52c0 .281.1.513.297.695.198.183.469.274.813.274a1.942 1.942 0 00.976-.254 1.57 1.57 0 00.34-.262c.097-.099.173-.2.23-.305v-1.453zM8.32 8.875l-1.415 4.258H9.75L8.32 8.875z"/>
</svg>
