<svg xmlns="http://www.w3.org/2000/svg" width="24" height="24" viewBox="0 0 24 24">
  <g fill="none" fill-rule="evenodd">
    <path fill="#B6C2CD" d="M3.33 16.813l8.503-14.728 2.946 1.7a1.7 1.7 0 102.945 1.702l2.946 1.7-8.503 14.728-2.946-1.7a1.7 1.7 0 00-2.945-1.702l-2.946-1.7zm12.936-8.004L12.63 6.71a1 1 0 00-1.366.366l-3.896 6.749a1 1 0 00.366 1.366l3.636 2.099a1 1 0 001.366-.366l3.896-6.749a1 1 0 00-.366-1.366z"/>
    <path fill="#324558" fill-rule="nonzero" d="M16.266 8.81a1 1 0 01.366 1.365l-3.896 6.749a1 1 0 01-1.366.366l-3.636-2.1a1 1 0 01-.366-1.365l3.896-6.749a1 1 0 011.366-.366l3.636 2.1zM9.6 13.957l1.904 1.1 2.896-5.016-1.904-1.1L9.6 13.958z"/>
  </g>
</svg>
