<svg width="20" height="20" viewBox="0 0 20 20" fill="none"
     xmlns="http://www.w3.org/2000/svg">
  <path d="M9.35187 9.16773H11.0185L10.6482 10.8344H8.9815L9.35187 9.16773Z"
        fill="#CCD3DB"/>
  <path fill-rule="evenodd" clip-rule="evenodd"
        d="M18.3334 10.0011C18.3334 14.6034 14.6024 18.3344 10 18.3344H2.67257C2.30136 18.3344 2.11545 17.8856 2.37794 17.6231L4.10744 15.8936C2.59942 14.3856 1.66669 12.3022 1.66669 10.0011C1.66669 5.39868 5.39765 1.66772 10 1.66772C14.6024 1.66772 18.3334 5.39868 18.3334 10.0011ZM10 6.25106H8.75002L8.37965 7.91773H7.08335V9.16773H8.10187L7.7315 10.8344H6.25002V12.0844H7.45372L7.08335 13.7511H8.33335L8.70372 12.0844H10.3704L10 13.7511H11.25L11.6204 12.0844H12.9167V10.8344H11.8982L12.2685 9.16773H13.75V7.91773H12.5463L12.9167 6.25106H11.6667L11.2963 7.91773H9.62965L10 6.25106Z"
        fill="#CCD3DB"/>
  <path fill-rule="evenodd" clip-rule="evenodd"
        d="M8.75 6.25098H10L9.62963 7.91764H11.2963L11.6667 6.25098H12.9167L12.5463 7.91764H13.75V9.16764H12.2685L11.8981 10.8343H12.9167V12.0843H11.6204L11.25 13.751H10L10.3704 12.0843H8.7037L8.33333 13.751H7.08333L7.4537 12.0843H6.25V10.8343H7.73148L8.10185 9.16764H7.08333V7.91764H8.37963L8.75 6.25098ZM10.6481 10.8343L11.0185 9.16764H9.35185L8.98148 10.8343H10.6481Z"
        fill="#36435C"/>
</svg>
