<svg width="24" height="24" viewBox="0 0 24 24" fill="none"
     xmlns="http://www.w3.org/2000/svg">
  <path d="M11.2222 11H13.2222L12.7778 13H10.7778L11.2222 11Z" fill="#B6C2CD"/>
  <path fill-rule="evenodd" clip-rule="evenodd"
        d="M22 12C22 17.5228 17.5228 22 12 22H3.20706C2.7616 22 2.53852 21.4614 2.8535 21.1464L4.92891 19.071C3.11928 17.2614 2 14.7614 2 12C2 6.47715 6.47715 2 12 2C17.5228 2 22 6.47715 22 12ZM12 7.5H10.5L10.0556 9.5H8.5V11H9.72222L9.27778 13H7.5V14.5H8.94444L8.5 16.5H10L10.4444 14.5H12.4444L12 16.5H13.5L13.9444 14.5H15.5V13H14.2778L14.7222 11H16.5V9.5H15.0556L15.5 7.5H14L13.5556 9.5H11.5556L12 7.5Z"
        fill="#B6C2CD"/>
  <path fill-rule="evenodd" clip-rule="evenodd"
        d="M10.5 7.5H12L11.5556 9.5H13.5556L14 7.5H15.5L15.0556 9.5H16.5V11H14.7222L14.2778 13H15.5V14.5H13.9444L13.5 16.5H12L12.4444 14.5H10.4444L10 16.5H8.5L8.94444 14.5H7.5V13H9.27778L9.72222 11H8.5V9.5H10.0556L10.5 7.5ZM12.7778 13L13.2222 11H11.2222L10.7778 13H12.7778Z"
        fill="#324558"/>
</svg>
