<svg xmlns="http://www.w3.org/2000/svg" width="24" height="24" viewBox="0 0 24 24">
  <path fill="#324558" fill-rule="evenodd" d="M18.51 9.959c-1.25 0-2.285.937-2.462 2.156h-2.117a2.765 2.765 0 00-.564-1.552L14.415 9.5a.924.924 0 00.401.094.93.93 0 00.923-.936.93.93 0 00-.923-.935.93.93 0 00-.923.935.93.93 0 00.135.486l-1.02 1.033a2.69 2.69 0 00-1.543-.673V7.018a1.509 1.509 0 001.304-1.503A1.505 1.505 0 0011.275 4c-.825 0-1.493.68-1.493 1.515a1.51 1.51 0 001.164 1.477v2.511a2.697 2.697 0 00-1.588.73l-.535-.543A1.69 1.69 0 009.2 8.627c0-.926-.742-1.678-1.655-1.678S5.889 7.7 5.889 8.627a1.67 1.67 0 001.656 1.678c.327 0 .63-.096.887-.263l.581.59c-.3.421-.487.93-.511 1.483H5.974a1.501 1.501 0 00-1.477-1.282c-.827 0-1.497.68-1.497 1.515 0 .836.67 1.516 1.495 1.516.726 0 1.33-.525 1.467-1.22h2.564c.076.54.309 1.03.648 1.421l-1.05 1.064a.898.898 0 00-.429-.108.93.93 0 00-.923.935.93.93 0 00.923.936.93.93 0 00.923-.936.933.933 0 00-.12-.46l1.055-1.069a2.7 2.7 0 001.39.561v3.02a1.511 1.511 0 00-1.163 1.477c0 .836.67 1.515 1.495 1.515.824 0 1.494-.68 1.494-1.515 0-.77-.567-1.407-1.304-1.503V14.99c.5-.046.96-.23 1.343-.51l1.015 1.029c-.12.2-.19.433-.19.683 0 .724.58 1.312 1.293 1.312.715 0 1.295-.588 1.295-1.312 0-.724-.578-1.312-1.293-1.312-.278 0-.535.09-.746.243l-.98-.993c.372-.4.625-.915.707-1.487h2.121c.082 1.316 1.164 2.36 2.482 2.36 1.372 0 2.488-1.131 2.488-2.522 0-1.391-1.118-2.522-2.49-2.522zM7.5 9.5c-.55 0-1-.45-1-1s.45-1 1-1 1 .45 1 1-.45 1-1 1zm7 6a.5.5 0 11-.002 1.002.5.5 0 01.002-1.002zm4-1.5a1.501 1.501 0 010-3 1.501 1.501 0 010 3z"/>
</svg>
