<svg xmlns="http://www.w3.org/2000/svg" width="48" height="48" fill="none" viewBox="0 0 48 48">
  <path fill="#B6C2CD" d="M40.626 19.599C38.214 9.547 28.142 3.3 18.048 5.63 7.9 7.972 1.573 18.096 3.916 28.241 6.26 38.386 16.384 44.712 26.532 42.37a18.798 18.798 0 0011.75-8.38l-3.908-2.44a14.205 14.205 0 01-8.879 6.332c-7.668 1.77-15.32-3.01-17.09-10.677-1.77-7.667 3.01-15.317 10.68-17.087 7.588-1.751 15.16 2.912 17.032 10.439l-4.542.965 7.88 5.116 5.117-7.878-3.946.839z"/>
  <path fill="#324558" fill-rule="evenodd" d="M29.829 24l-11.877 6.857V17.143L29.829 24z" clip-rule="evenodd"/>
</svg>
