<svg xmlns="http://www.w3.org/2000/svg" width="24" height="24" viewBox="0 0 24 24">
  <g fill="none" fill-rule="evenodd">
    <path fill="#B6C2CD" d="M14.115 19h-6.99C4.847 19 3 17.084 3 14.722c0-2.101 1.463-3.846 3.39-4.206C6.55 7.443 8.997 5 12 5c2.981 0 5.409 2.406 5.602 5.445-2.677.013-4.852 2.275-4.852 5.055 0 1.359.522 2.59 1.365 3.5z"/>
    <path fill="#324558" d="M21 15.5c0 1.933-1.513 3.5-3.375 3.5s-3.375-1.567-3.375-3.5 1.513-3.5 3.375-3.5S21 13.567 21 15.5zm-1.5-.389H18v-1.555h-.75v1.555h-1.5v.778h1.5v1.555H18V15.89h1.5v-.778z"/>
  </g>
</svg>
