<svg xmlns="http://www.w3.org/2000/svg" width="24" height="24" viewBox="0 0 24 24">
  <g fill="none" fill-rule="evenodd">
    <path fill="#B6C2CD" d="M5.6 19.08h2.958v2.664h9.468V19.08h2.344a1 1 0 001-1V5.13a1 1 0 00-1-1H5.602L5.6 19.082z"/>
    <path fill="#324558" d="M17.109 18.207v2.701h-.858v-2.7h.858zm-1.716 0v2.701h-.858v-2.7h.858zm-1.704 0v2.701h-.858v-2.7h.858zm-1.702 0v2.701h-.858v-2.7h.858zm-1.716 0v2.701h-.858v-2.7h.858zM3.6 3h2v18.744h-2a1 1 0 01-1-1V4a1 1 0 011-1zm15.093 11.147h-5.8a.17.17 0 01-.166-.174v-2.527h-2.433c-.257 1.25-1.764 1.86-2.875.829a.519.519 0 01-.076-.09c-.947-1.424.03-2.98 1.324-2.98.768 0 1.448.54 1.627 1.35h2.433V8.027a.17.17 0 01.166-.174h5.8v6.294z"/>
  </g>
</svg>
