<svg xmlns="http://www.w3.org/2000/svg" width="24" height="24" viewBox="0 0 24 24">
  <g fill="none">
    <path fill="#B6C2CD" d="M3.352 9.472h4.56c-.073.802-.11 1.639-.11 2.5s.037 1.699.11 2.5h-4.56a9 9 0 01-.352-2.5c0-.867.123-1.706.352-2.5m.584-1.5A9.023 9.023 0 019.55 3.31c-.667 1.144-1.168 2.763-1.46 4.662H3.937zm16.713 1.5a9.01 9.01 0 01.352 2.5 9 9 0 01-.352 2.5h-4.56c.073-.801.11-1.639.11-2.5s-.037-1.698-.11-2.5h4.56zm-.584-1.5H15.91c-.291-1.899-.792-3.518-1.46-4.662a9.02 9.02 0 015.615 4.662m-10.641 1.5h5.153a25.909 25.909 0 01.001 5H9.423a25.576 25.576 0 010-5m.198-1.5C10.113 5.02 11.092 3 12.002 3c.908 0 1.889 2.02 2.379 4.972H9.62zm-5.685 8.001H8.09c.29 1.897.792 3.518 1.459 4.661a9.023 9.023 0 01-5.614-4.662m5.686.001h4.758c-.49 2.95-1.47 4.972-2.378 4.972-.909 0-1.888-2.021-2.38-4.973m5.753 2.414c-.256.865-.563 1.63-.924 2.249a8.983 8.983 0 003.61-2.023h-2.182a.682.682 0 01-.504-.226"/>
    <path fill="#324558" d="M18.45 10a1.92 1.92 0 011.917 1.917v1.916l.103.007c.375.05.664.373.664.76v3.833a.767.767 0 01-.768.765h-4.598a.767.767 0 01-.767-.765V14.6c0-.424.344-.768.767-.768v-1.916A1.92 1.92 0 0117.685 10h.765zm-.383 5.366a.766.766 0 00-.37 1.438.382.382 0 00-.013.096v.765a.384.384 0 10.767 0V16.9a.382.382 0 00-.013-.096.768.768 0 00-.37-1.438zm.383-4.599h-.765a1.15 1.15 0 00-1.15 1.15v1.916H19.6v-1.916a1.152 1.152 0 00-1.15-1.15z"/>
  </g>
</svg>
