<svg xmlns="http://www.w3.org/2000/svg" width="24" height="24" viewBox="0 0 24 24">
  <g fill="none" fill-rule="evenodd">
    <path fill="#B6C2CD" d="M18.696 17.111C16.878 20.49 13.593 22.181 12 22.5c-1.593-.32-4.878-2.01-6.696-5.389zm-7.102-13.93a1 1 0 01.812 0l7.571 3.364V9H4.022V6.545z"/>
    <path fill="#324558" d="M20 10.028a1 1 0 011 1v4a1 1 0 01-1 1H4a1 1 0 01-1-1v-4a1 1 0 011-1h16zM7.371 11.401h-.799L7.593 15h.699l.435-2.104.127-.696.126.696L9.415 15h.718l1.013-3.599h-.764L9.9 13.484l-.11.552-.11-.574-.427-2.06H8.46l-.405 2.072-.105.562-.102-.574-.476-2.06zm6.108 0h-.85L11.346 15h.786l.25-.74h1.325l.232.74h.815l-1.274-3.599zm4.282.005H15.21V15h.747v-1.509h1.58v-.625h-1.58v-.827h1.804v-.633zm-4.714.818l.45 1.416h-.914l.464-1.416z"/>
  </g>
</svg>
