<svg xmlns="http://www.w3.org/2000/svg" width="24" height="24" viewBox="0 0 24 24">
  <g fill="none" fill-rule="evenodd">
    <path fill="#324558" d="M14.938 2.05l2.079 2.078 1.97 1.97L21 8.11v12.002a2 2 0 01-2 2H4.999a2 2 0 01-2-2V4.05a2 2 0 012-2h9.94zM5.54 16.695H4.9l.817 2.879h.558l.348-1.684.102-.557.101.557.348 1.684h.574l.81-2.88h-.61l-.386 1.667-.087.441-.088-.459-.342-1.648H6.41l-.324 1.658-.084.45-.082-.46-.38-1.648zm4.887 0h-.68l-1.027 2.88h.629l.199-.592h1.06l.186.592h.652l-1.02-2.88zm3.426.004H11.81v2.875h.597v-1.207h1.264v-.5h-1.264v-.662h1.444V16.7zm-3.772.654l.36 1.133H9.71l.371-1.133zm4.858-13.226l-9.922.001v10.858h13.97V8.11l-4.048.001V4.128z"/>
    <path fill="#B6C2CD" d="M14.938 4.129v3.982h4.049v6.89H5.016V4.128h9.922z"/>
    <path fill="#324558" fill-rule="nonzero" d="M7 6.562h6.004v1.841H7zm0 3.679h10.004v1.84H7z"/>
  </g>
</svg>
