<svg xmlns="http://www.w3.org/2000/svg" width="24" height="24" viewBox="0 0 24 24">
  <g fill="none" fill-rule="evenodd">
    <path fill="#324558" d="M6.988 16.957h1.994v.997c0 .55.446.997.996.997h7.976c.55 0 .997-.447.997-.997V8.982H15.96a.997.997 0 01-.997-.997V4.994H9.978a.997.997 0 00-.996.997v4.984H6.988V4.994C6.988 3.893 7.88 3 8.982 3h7.733l4.23 4.23v11.72a1.994 1.994 0 01-1.994 1.995H8.98a1.994 1.994 0 01-1.993-1.994v-1.994z"/>
    <path fill="#B6C2CD" d="M4 10.975h9.963a1 1 0 011 1v3.982a1 1 0 01-1 1H4a1 1 0 01-1-1v-3.982a1 1 0 011-1zm2.7 3.644l-.564-2.447h-.6l-.567 2.442-.465-2.442h-.706l.763 3.439h.713l.56-2.3.56 2.3h.713l.763-3.44h-.706L6.7 14.62zm3.393.283l.238.709h.754l-1.287-3.44H9.14l-1.28 3.44h.753l.236-.709h1.243zm-1.051-.574l.427-1.287.432 1.287h-.86zm3.637.024l.645 1.259h.76v-.033l-.743-1.406a1.04 1.04 0 00.462-.374c.101-.157.152-.352.152-.587 0-.33-.11-.587-.33-.768-.221-.18-.535-.271-.94-.271h-1.279v3.439h.709v-1.259h.564zm-.564-.574v-1.032h.57c.19 0 .331.046.423.139a.52.52 0 01.138.383.482.482 0 01-.146.374c-.098.09-.236.136-.414.136h-.571z"/>
    <path fill="#324558" d="M6.7 14.619l.464-2.447h.706l-.763 3.439h-.713l-.56-2.3-.56 2.3H4.56l-.763-3.44h.706l.465 2.443.567-2.442h.6l.565 2.447zm3.393.283H8.85l-.236.709h-.753l1.28-3.44h.657l1.287 3.44h-.754l-.238-.709zm-1.051-.574h.86l-.433-1.287-.427 1.287zm3.637.024h-.564v1.259h-.709v-3.44h1.278c.406 0 .72.091.94.272.22.181.331.437.331.768 0 .235-.05.43-.152.587a1.04 1.04 0 01-.462.374l.744 1.406v.033h-.76l-.646-1.259zm-.564-.574h.571c.178 0 .316-.045.414-.136a.485.485 0 00.146-.374.52.52 0 00-.138-.383c-.092-.093-.233-.14-.424-.14h-.57v1.033z"/>
  </g>
</svg>
