<svg xmlns="http://www.w3.org/2000/svg" width="24" height="24" viewBox="0 0 24 24">
  <g fill="none" fill-rule="evenodd">
    <path fill="#B6C2CD" d="M2 7.3h19.8v12.1a1.1 1.1 0 01-1.1 1.1H3.1A1.1 1.1 0 012 19.4V7.3z"/>
    <path fill="#324558" d="M20.7 4a1.1 1.1 0 011.1 1.1v2.2H2V5.1A1.1 1.1 0 013.1 4h17.6zm-4.95 1.1a.55.55 0 10.09.007l-.09-.007zm2.2 0a.55.55 0 100 1.1.55.55 0 000-1.1zm2.2 0a.55.55 0 10.09.007l-.09-.007zm-4.293 6.318c-1.346-.294-2.14-.71-2.72-1.013C12.684 10.17 12.36 10 12 10s-.685.17-1.136.405c-.58.304-1.375.72-2.721 1.013L8 11.45v.146c0 5.504 3.884 7.35 3.924 7.368l.08.037.078-.04c.04-.02 3.918-2.044 3.918-7.365v-.146l-.143-.03z"/>
  </g>
</svg>
