<svg xmlns="http://www.w3.org/2000/svg" width="24" height="24" viewBox="0 0 24 24">
  <path fill="currentColor" d="M11.4 10.56c-1.854-.93-2.532-2.163-2.084-3.672.395-1.33 1.726-2.202 3.081-1.997.676.102 1.27.379 1.734.907.701.8.86 1.734.646 2.774l1.6.434c.682-1.87-.118-4.056-1.864-5.177a4.583 4.583 0 00-5.718.6c-.807.794-1.248 1.764-1.35 2.885-.145 1.588.51 2.868 1.612 3.964l-1.752 2.937a9.08 9.08 0 01-.15.01 2.586 2.586 0 00-.207.018c-1.152.163-1.962 1.187-1.768 2.232.218 1.18 1.292 1.904 2.395 1.615 1.168-.306 1.79-1.434 1.35-2.593-.16-.42-.061-.688.138-1.018.564-.93 1.118-1.866 1.683-2.819l.654-1.1z"/>
  <path fill="currentColor" d="M15.367 11.966l-1.694-2.988.082-.2c.055-.134.106-.257.148-.383.224-.663.089-1.268-.337-1.806a1.946 1.946 0 00-2.203-.601 1.955 1.955 0 00-1.247 1.914c.034.859.61 1.625 1.502 1.78.534.092.796.345 1.033.782.504.93 1.026 1.85 1.548 2.77v.001l.619 1.091c1.75-1.166 3.197-1.129 4.277.086a2.86 2.86 0 01.046 3.731c-1.067 1.26-2.504 1.31-4.147.247l-1.306 1.092c1.664 1.66 4.039 1.882 5.917.589 1.83-1.26 2.466-3.678 1.535-5.719-.771-1.69-2.921-3.268-5.773-2.386z"/>
  <path fill="currentColor" d="M11.58 17.063h3.432c.048.064.093.127.137.189.091.128.178.25.279.358a1.942 1.942 0 002.731.095 1.945 1.945 0 00.081-2.785c-.745-.764-2.017-.836-2.709-.028-.42.492-.85.55-1.408.54a173.179 173.179 0 00-3.058-.009 418 418 0 01-1.226.003c.092 2.008-.667 3.26-2.173 3.557-1.475.291-2.833-.462-3.311-1.834-.543-1.56.128-2.808 2.07-3.798-.147-.529-.294-1.064-.44-1.595-2.116.461-3.703 2.513-3.539 4.822.145 2.038 1.789 3.848 3.8 4.172a4.578 4.578 0 003.07-.546c1.224-.695 1.935-1.788 2.264-3.141z"/>
</svg>
