<svg width="40" height="40" viewBox="0 0 40 40" fill="none" xmlns="http://www.w3.org/2000/svg">
<path fill-rule="evenodd" clip-rule="evenodd" d="M16.6667 6.66668H20V36.6667H16.6667V28.3333H11.6667V36.6667H8.33334V6.66668H11.6667V3.33334H16.6667V6.66668Z" fill="#B6C2CD"/>
<path fill-rule="evenodd" clip-rule="evenodd" d="M31.6667 25.8333C31.6667 22.6117 29.055 20 25.8333 20C22.6117 20 20 22.6117 20 25.8333V36.6667H31.6667V25.8333ZM28.3333 25.8333C28.3333 27.214 27.214 28.3333 25.8333 28.3333C24.4526 28.3333 23.3333 27.214 23.3333 25.8333C23.3333 24.4526 24.4526 23.3333 25.8333 23.3333C27.214 23.3333 28.3333 24.4526 28.3333 25.8333ZM16.6667 28.3333H11.6667V36.6667H16.6667V28.3333Z" fill="#324558"/>
</svg>
