<svg xmlns="http://www.w3.org/2000/svg" width="24" height="24" viewBox="0 0 24 24">
  <g fill="none" fill-rule="evenodd">
    <path fill="#B6C2CD" d="M12 1.5a2.84 2.84 0 012.675 1.9h5.875v18.1H3.45V3.4h5.875A2.84 2.84 0 0112 1.5zm0 1.85a1 1 0 100 2 1 1 0 000-2z"/>
    <path fill="#324558" d="M12 1.5c1.174 0 2.172.714 2.608 1.728l.067.172h5.875V7H3.45V3.4h5.875A2.84 2.84 0 0112 1.5zm0 1.85a1 1 0 100 2 1 1 0 000-2zm0 13.1v1.9H6.3v-1.9H12zm5.307-1.9l1.343 1.343-2.457 2.457H13.9v-1.9h1.507l1.9-1.9zM12 10.75v1.9H6.3v-1.9H12zm5.307-1.9l1.343 1.343-2.457 2.457H13.9v-1.9h1.507l1.9-1.9z"/>
  </g>
</svg>
