<svg xmlns="http://www.w3.org/2000/svg" width="24" height="24" viewBox="0 0 24 24">
  <g fill="none" fill-rule="evenodd">
    <path fill="#324558" d="M6.968 16.888h1.984v.992c0 .548.444.992.992.992h7.936a.992.992 0 00.992-.992V8.952h-2.976a.992.992 0 01-.992-.992V4.984h-4.96a.992.992 0 00-.992.992v4.96H6.968V4.984C6.968 3.888 7.856 3 8.952 3h7.695l4.21 4.209v11.663a1.984 1.984 0 01-1.985 1.984h-9.92a1.984 1.984 0 01-1.984-1.984v-1.984z"/>
    <path fill="#B6C2CD" d="M13.904 10.936a1 1 0 011 1v3.952a1 1 0 01-1 1H4a1 1 0 01-1-1v-3.952a1 1 0 011-1h9.904zm-1.386.862a2.42 2.42 0 00-.655.085 1.69 1.69 0 00-.52.24c-.147.104-.261.23-.343.377a1.004 1.004 0 00-.123.497c0 .191.04.358.122.502.08.144.188.27.323.376.135.108.29.2.463.279.174.078.355.148.542.21.16.053.29.103.388.15a.988.988 0 01.23.142.364.364 0 01.11.153.55.55 0 01.028.18.43.43 0 01-.03.16.34.34 0 01-.099.134.5.5 0 01-.171.091.818.818 0 01-.25.034 1.37 1.37 0 01-.322-.034.583.583 0 01-.235-.113.492.492 0 01-.147-.206.87.87 0 01-.05-.315h-1.031c0 .168.024.32.072.457a1.268 1.268 0 00.492.643c.114.077.237.141.37.192.131.05.27.088.414.113.144.024.29.036.436.036.239 0 .455-.026.65-.079.193-.053.36-.13.497-.231a1.048 1.048 0 00.432-.888c0-.18-.031-.34-.095-.483a1.17 1.17 0 00-.278-.384 1.883 1.883 0 00-.45-.302 4.36 4.36 0 00-.606-.24l-.226-.079-.101-.04a1.368 1.368 0 01-.246-.129.593.593 0 01-.155-.146.297.297 0 01-.055-.175.37.37 0 01.039-.165.406.406 0 01.112-.138.546.546 0 01.186-.094.892.892 0 01.258-.033c.1 0 .186.013.26.04a.53.53 0 01.184.114c.05.047.087.105.111.172a.645.645 0 01.037.222h1.025c0-.202-.04-.384-.118-.547a1.225 1.225 0 00-.33-.417 1.513 1.513 0 00-.504-.267 2.096 2.096 0 00-.641-.094zm-7.823.059H3.523l1.19 2.115-1.222 2.15h1.184l.718-1.444.717 1.445h1.187l-1.225-2.15 1.193-2.116H6.09l-.697 1.418-.698-1.418zm3.964 0H7.631v4.266h2.818v-.791H8.66v-3.475z"/>
    <path fill="#324558" d="M5.393 13.275l.697-1.418h1.175l-1.193 2.115 1.225 2.15H6.11l-.717-1.444-.718 1.445H3.49l1.222-2.15-1.19-2.116h1.172l.698 1.418zm3.266 2.057h1.79v.79H7.631v-4.265h1.028v3.475zm4.424-.343a.55.55 0 00-.028-.18.364.364 0 00-.11-.153 1.012 1.012 0 00-.23-.142 3.43 3.43 0 00-.388-.15 5.78 5.78 0 01-.542-.21 2.157 2.157 0 01-.463-.279A1.29 1.29 0 0111 13.5a1.005 1.005 0 01-.122-.502c0-.184.041-.35.123-.497.082-.147.196-.273.343-.376a1.69 1.69 0 01.52-.24c.2-.057.418-.086.655-.086.232 0 .446.032.641.094.195.063.363.151.504.267.14.115.25.254.33.417.079.163.118.345.118.547h-1.025a.645.645 0 00-.037-.222.447.447 0 00-.111-.172.53.53 0 00-.185-.113.74.74 0 00-.259-.041.892.892 0 00-.258.033.546.546 0 00-.186.094.406.406 0 00-.113.138.37.37 0 00-.038.165c0 .065.018.123.055.175.036.051.088.1.155.146.067.046.15.089.246.13l.1.039.227.079c.226.072.428.152.606.24s.328.188.45.302c.122.113.215.24.278.384.064.142.095.303.095.483a1.048 1.048 0 01-.432.888 1.485 1.485 0 01-.498.231 2.655 2.655 0 01-1.085.043 2.143 2.143 0 01-.415-.113 1.837 1.837 0 01-.369-.192 1.268 1.268 0 01-.492-.643 1.377 1.377 0 01-.072-.457h1.031c0 .125.017.23.05.315a.492.492 0 00.147.206c.064.053.143.09.235.113.093.022.2.034.321.034a.818.818 0 00.25-.034.5.5 0 00.172-.09.34.34 0 00.098-.134.435.435 0 00.031-.161z"/>
  </g>
</svg>
