<svg width="48" height="48" viewBox="0 0 48 48" fill="none" xmlns="http://www.w3.org/2000/svg">
<path fill-rule="evenodd" clip-rule="evenodd" d="M8 6C6.89543 6 6 6.89543 6 8V40C6 41.1046 6.89543 42 8 42H40C41.1046 42 42 41.1046 42 40V8C42 6.89543 41.1046 6 40 6H8ZM21.375 32.815L35.9074 18.421L33.0925 15.579L21.375 27.185L15.9074 21.7695L13.0925 24.6114L21.375 32.815Z" fill="#B6C2CD"/>
<path fill-rule="evenodd" clip-rule="evenodd" d="M35.9076 18.421L21.3752 32.8151L13.0928 24.6115L15.9076 21.7696L21.3752 27.1851L33.0928 15.5791L35.9076 18.421Z" fill="#324558"/>
</svg>
