<svg width="48" height="48" viewBox="0 0 48 48" fill="none" xmlns="http://www.w3.org/2000/svg">
<path fill-rule="evenodd" clip-rule="evenodd" d="M6 13C4.89543 13 4 13.8954 4 15V33C4 34.1046 4.89543 35 6 35H42C43.1046 35 44 34.1046 44 33V15C44 13.8954 43.1046 13 42 13H6ZM27.4691 29.9814H18.5394V28.0479L22.6527 23.7236C23.6664 22.5693 24.1732 21.6523 24.1732 20.9727C24.1732 20.4219 24.0531 20.0029 23.8129 19.7158C23.5726 19.4287 23.224 19.2852 22.767 19.2852C22.3158 19.2852 21.9496 19.4785 21.6683 19.8652C21.3871 20.2461 21.2465 20.7236 21.2465 21.2979H18.2758C18.2758 20.5127 18.472 19.7891 18.8646 19.127C19.2572 18.459 19.8021 17.9375 20.4994 17.5625C21.1967 17.1875 21.976 17 22.8373 17C24.2201 17 25.2836 17.3193 26.0277 17.958C26.7777 18.5967 27.1527 19.5137 27.1527 20.709C27.1527 21.2129 27.059 21.7051 26.8715 22.1855C26.684 22.6602 26.391 23.1611 25.9926 23.6885C25.6 24.21 24.9642 24.9102 24.0853 25.7891L22.433 27.6963H27.4691V29.9814ZM33.7878 22.3438H32.3903V24.5498H33.8317C34.4001 24.5498 34.8454 24.6846 35.1676 24.9541C35.4899 25.2236 35.651 25.6807 35.651 26.3252C35.651 26.7764 35.4958 27.1484 35.1852 27.4414C34.8747 27.7285 34.4586 27.8721 33.9372 27.8721C33.4743 27.8721 33.0846 27.7285 32.7682 27.4414C32.4518 27.1543 32.2936 26.8145 32.2936 26.4219H29.3141C29.3141 27.1426 29.4987 27.7871 29.8678 28.3555C30.237 28.918 30.779 29.3604 31.4938 29.6826C32.2145 29.999 32.9938 30.1572 33.8317 30.1572C35.2614 30.1572 36.4157 29.8145 37.2946 29.1289C38.1735 28.4434 38.6129 27.5293 38.6129 26.3867C38.6129 25.6484 38.4196 25.0303 38.0329 24.5322C37.6461 24.0283 37.1129 23.6533 36.4333 23.4072C37.0778 23.1025 37.567 22.707 37.901 22.2207C38.2409 21.7285 38.4108 21.207 38.4108 20.6562C38.4108 19.5195 38.0036 18.626 37.1891 17.9756C36.3747 17.3252 35.2555 17 33.8317 17C33.0348 17 32.3024 17.1494 31.6344 17.4482C30.9723 17.7412 30.4538 18.1514 30.0788 18.6787C29.7038 19.2061 29.5163 19.8066 29.5163 20.4805H32.4782C32.4782 20.1406 32.6217 19.8564 32.9088 19.6279C33.2018 19.3994 33.5446 19.2852 33.9372 19.2852C34.4176 19.2852 34.7897 19.4199 35.0534 19.6895C35.317 19.9531 35.4489 20.2959 35.4489 20.7178C35.4489 21.8018 34.8952 22.3438 33.7878 22.3438ZM15.8887 29.9814H12.918V20.5244L10 21.377V19.127L15.6162 17.1846H15.8887V29.9814Z" fill="#B6C2CD"/>
<path d="M24.7071 2.70696C24.3166 2.31643 23.6834 2.31643 23.2929 2.70696L16 9.99985H32L24.7071 2.70696Z" fill="#324558"/>
<path d="M32 37.9998H16L23.2929 45.2927C23.6834 45.6833 24.3166 45.6833 24.7071 45.2927L32 37.9998Z" fill="#324558"/>
<path d="M18.5394 29.9813H27.4691V27.6962H22.433L24.0853 25.7889C24.9642 24.91 25.6 24.2098 25.9926 23.6884C26.391 23.161 26.684 22.66 26.8715 22.1854C27.059 21.705 27.1527 21.2128 27.1527 20.7089C27.1527 19.5135 26.7777 18.5966 26.0277 17.9579C25.2836 17.3192 24.2201 16.9999 22.8373 16.9999C21.976 16.9999 21.1967 17.1874 20.4994 17.5624C19.8021 17.9374 19.2572 18.4589 18.8646 19.1268C18.472 19.7889 18.2758 20.5126 18.2758 21.2977H21.2465C21.2465 20.7235 21.3871 20.246 21.6683 19.8651C21.9496 19.4784 22.3158 19.285 22.767 19.285C23.224 19.285 23.5726 19.4286 23.8129 19.7157C24.0531 20.0028 24.1732 20.4218 24.1732 20.9725C24.1732 21.6522 23.6664 22.5692 22.6527 23.7235L18.5394 28.0477V29.9813Z" fill="#324558"/>
<path d="M33.7878 22.3436H32.3903V24.5497H33.8317C34.4001 24.5497 34.8454 24.6844 35.1676 24.954C35.4899 25.2235 35.651 25.6805 35.651 26.3251C35.651 26.7762 35.4958 27.1483 35.1852 27.4413C34.8747 27.7284 34.4586 27.8719 33.9372 27.8719C33.4743 27.8719 33.0846 27.7284 32.7682 27.4413C32.4518 27.1542 32.2936 26.8143 32.2936 26.4218H29.3141C29.3141 27.1425 29.4987 27.787 29.8678 28.3553C30.237 28.9178 30.779 29.3602 31.4938 29.6825C32.2145 29.9989 32.9938 30.1571 33.8317 30.1571C35.2614 30.1571 36.4157 29.8143 37.2946 29.1288C38.1735 28.4432 38.6129 27.5292 38.6129 26.3866C38.6129 25.6483 38.4196 25.0302 38.0329 24.5321C37.6461 24.0282 37.1129 23.6532 36.4333 23.4071C37.0778 23.1024 37.567 22.7069 37.901 22.2206C38.2409 21.7284 38.4108 21.2069 38.4108 20.6561C38.4108 19.5194 38.0036 18.6259 37.1891 17.9755C36.3747 17.3251 35.2555 16.9999 33.8317 16.9999C33.0348 16.9999 32.3024 17.1493 31.6344 17.4481C30.9723 17.7411 30.4538 18.1512 30.0788 18.6786C29.7038 19.2059 29.5163 19.8065 29.5163 20.4803H32.4782C32.4782 20.1405 32.6217 19.8563 32.9088 19.6278C33.2018 19.3993 33.5446 19.285 33.9372 19.285C34.4176 19.285 34.7897 19.4198 35.0534 19.6893C35.317 19.953 35.4489 20.2958 35.4489 20.7177C35.4489 21.8016 34.8952 22.3436 33.7878 22.3436Z" fill="#324558"/>
<path d="M12.918 29.9813H15.8887V17.1844H15.6162L10 19.1268V21.3768L12.918 20.5243V29.9813Z" fill="#324558"/>
</svg>
