<svg width="48" height="48" viewBox="0 0 48 48" fill="none" xmlns="http://www.w3.org/2000/svg">
<path fill-rule="evenodd" clip-rule="evenodd" d="M8 6C6.89543 6 6 6.89543 6 8V40C6 41.1046 6.89543 42 8 42H40C41.1046 42 42 41.1046 42 40V8C42 6.89543 41.1046 6 40 6H8ZM16.8285 19.0715L14.0001 21.8999L23.8996 31.7994L33.7995 21.8995L30.971 19.0711L23.8996 26.1425L16.8285 19.0715Z" fill="#B6C2CD"/>
<path d="M14 21.8998L16.8284 19.0714L23.8995 26.1425L30.9709 19.071L33.7993 21.8995L23.8995 31.7993L14 21.8998Z" fill="#324558"/>
</svg>
