<svg width="48" height="48" viewBox="0 0 48 48" fill="none" xmlns="http://www.w3.org/2000/svg">
<path fill-rule="evenodd" clip-rule="evenodd" d="M5.95136 11.366C5.22526 10.8578 4.24579 11.4754 4.3915 12.3497L7.72136 32.3288C7.88209 33.2932 8.71647 34 9.69415 34H38.3056C39.2833 34 40.1177 33.2932 40.2784 32.3288L43.6083 12.3497C43.754 11.4754 42.7745 10.8578 42.0484 11.366L33.9999 17L24.7925 5.03043C24.3922 4.51004 23.6076 4.51004 23.2073 5.03043L13.9999 17L5.95136 11.366ZM24 28C26.2091 28 28 26.2091 28 24C28 21.7909 26.2091 20 24 20C21.7909 20 20 21.7909 20 24C20 26.2091 21.7909 28 24 28Z" fill="#B6C2CD"/>
<path d="M24 28C26.2091 28 28 26.2091 28 24C28 21.7909 26.2091 20 24 20C21.7909 20 20 21.7909 20 24C20 26.2091 21.7909 28 24 28Z" fill="#324558"/>
<path d="M39 41V37H9V41H39Z" fill="#324558"/>
</svg>
