<svg width="48" height="48" viewBox="0 0 48 48" fill="none" xmlns="http://www.w3.org/2000/svg">
<path fill-rule="evenodd" clip-rule="evenodd" d="M11 42.2104C11 42.9928 11.8578 43.4721 12.5241 43.0621L16.4518 40.645C17.0946 40.2495 17.9054 40.2495 18.5482 40.645L22.9518 43.355C23.5946 43.7505 24.4054 43.7505 25.0482 43.355L29.4518 40.645C30.0946 40.2495 30.9054 40.2495 31.5482 40.645L35.4759 43.0621C36.1422 43.4721 37 42.9928 37 42.2104V11H11V42.2104ZM18 18H30V22H18V18ZM18 26H30V30H18V26Z" fill="#B6C2CD"/>
<path d="M6 4C4.89543 4 4 4.89543 4 6V14C4 15.1046 4.89543 16 6 16H11V11H37V16H42C43.1046 16 44 15.1046 44 14V6C44 4.89543 43.1046 4 42 4H6Z" fill="#324558"/>
<path d="M18 18H30V22H18V18Z" fill="#324558"/>
<path d="M30 26H18V30H30V26Z" fill="#324558"/>
</svg>
