<svg width="48" height="48" viewBox="0 0 48 48" fill="none" xmlns="http://www.w3.org/2000/svg">
<path fill-rule="evenodd" clip-rule="evenodd" d="M40.1668 32L43.8061 10.1644C43.9077 9.55487 43.4376 9 42.8197 9H11.449L14.4894 30.2828C14.6301 31.2681 15.474 32 16.4693 32H40.1668ZM34.0001 21L27.0001 13L20.0001 21H25.0001V27H29.0001V21H34.0001Z" fill="#B6C2CD"/>
<path d="M4 8H7.26541L10.5295 30.8485C10.9518 33.8044 13.4833 36 16.4692 36H42V32H16.4692C15.4739 32 14.63 31.2681 14.4893 30.2828L11.1026 6.57574C10.8914 5.09779 9.62566 4 8.1327 4H4V8Z" fill="#324558"/>
<path d="M27 13L34 21H29V27H25V21H20L27 13Z" fill="#324558"/>
<path d="M19 41C19 42.6569 17.6569 44 16 44C14.3431 44 13 42.6569 13 41C13 39.3431 14.3431 38 16 38C17.6569 38 19 39.3431 19 41Z" fill="#324558"/>
<path d="M38 44C39.6569 44 41 42.6569 41 41C41 39.3431 39.6569 38 38 38C36.3431 38 35 39.3431 35 41C35 42.6569 36.3431 44 38 44Z" fill="#324558"/>
</svg>
