<svg width="48" height="48" viewBox="0 0 48 48" fill="none" xmlns="http://www.w3.org/2000/svg">
<path fill-rule="evenodd" clip-rule="evenodd" d="M43.8058 10.1644L40.1665 32H16.469C15.4737 32 14.6299 31.2681 14.4891 30.2828L11.4487 9H42.8194C43.4373 9 43.9074 9.55487 43.8058 10.1644ZM24.9999 20V14H28.9999V20H33.9999L26.9999 28L19.9999 20H24.9999Z" fill="#B6C2CD"/>
<path d="M4 8H7.26541L10.5295 30.8485C10.9518 33.8044 13.4833 36 16.4692 36H42V32H16.4692C15.4739 32 14.63 31.2681 14.4893 30.2828L11.1026 6.57574C10.8914 5.09779 9.62566 4 8.1327 4H4V8Z" fill="#324558"/>
<path d="M25 20V14H29V20H34L27 28L20 20H25Z" fill="#324558"/>
<path d="M19 41C19 42.6569 17.6569 44 16 44C14.3431 44 13 42.6569 13 41C13 39.3431 14.3431 38 16 38C17.6569 38 19 39.3431 19 41Z" fill="#324558"/>
<path d="M38 44C39.6569 44 41 42.6569 41 41C41 39.3431 39.6569 38 38 38C36.3431 38 35 39.3431 35 41C35 42.6569 36.3431 44 38 44Z" fill="#324558"/>
</svg>
