<svg width="48" height="48" viewBox="0 0 48 48" fill="none" xmlns="http://www.w3.org/2000/svg">
<path fill-rule="evenodd" clip-rule="evenodd" d="M6 8C4.89543 8 4 8.89543 4 10V18C7.31371 18 10 20.6863 10 24C10 27.3137 7.31371 30 4 30V38C4 39.1046 4.89543 40 6 40H42C43.1046 40 44 39.1046 44 38V30C40.6863 30 38 27.3137 38 24C38 20.6863 40.6863 18 44 18V10C44 8.89543 43.1046 8 42 8H6ZM18 18H22V30H18V18ZM26 18H30V30H26V18Z" fill="#B6C2CD"/>
<path d="M22 18H18V30H22V18Z" fill="#324558"/>
<path d="M30 18H26V30H30V18Z" fill="#324558"/>
</svg>
