<svg width="48" height="48" viewBox="0 0 48 48" fill="none" xmlns="http://www.w3.org/2000/svg">
<path fill-rule="evenodd" clip-rule="evenodd" d="M6 8C4.89543 8 4 8.89543 4 10V18C7.31371 18 10 20.6863 10 24C10 27.3137 7.31371 30 4 30V38C4 39.1046 4.89543 40 6 40H42C43.1046 40 44 39.1046 44 38V30C40.6863 30 38 27.3137 38 24C38 20.6863 40.6863 18 44 18V10C44 8.89543 43.1046 8 42 8H6ZM26.1981 15.4688L24.0067 21.5508L21.8153 15.4688H17.62L21.2177 23.8359H18.3583V26.0625H21.9091V27.2344H18.3583V29.4492H21.9091V32.5312H26.0106V29.4492H29.1981V27.2344H26.0106V26.0625H29.1981V23.8359H26.7958L30.3817 15.4688H26.1981Z" fill="#B6C2CD"/>
<path d="M24.0068 21.5508L26.1982 15.4688H30.3818L26.7959 23.8359H29.1982V26.0625H26.0107V27.2344H29.1982V29.4492H26.0107V32.5312H21.9092V29.4492H18.3584V27.2344H21.9092V26.0625H18.3584V23.8359H21.2178L17.6201 15.4688H21.8154L24.0068 21.5508Z" fill="#324558"/>
</svg>
