<svg width="48" height="48" viewBox="0 0 48 48" fill="none" xmlns="http://www.w3.org/2000/svg">
<g clip-path="url(#clip0_3155_5563)">
<path fill-rule="evenodd" clip-rule="evenodd" d="M6 8C4.89543 8 4 8.89543 4 10V18C7.31371 18 10 20.6863 10 24C10 27.3137 7.31371 30 4 30V38C4 39.1046 4.89543 40 6 40H26.4644C25.5289 38.205 25 36.1643 25 34C25 26.8203 30.8203 21 38 21C40.1643 21 42.205 21.5289 44 22.4644V10C44 8.89543 43.1046 8 42 8H6ZM14 14H17V34H14V14Z" fill="#B6C2CD"/>
<path d="M17 14H14V34H17V14Z" fill="#324558"/>
<path fill-rule="evenodd" clip-rule="evenodd" d="M35.6267 24L35.1258 26.5234C34.2905 26.8338 33.5182 27.2674 32.84 27.8145L30.3733 26.9785L28 31.0215L29.9738 32.707C29.9038 33.129 29.8585 33.5586 29.8585 34C29.8585 34.4414 29.9038 34.871 29.9738 35.293L28 36.9785L30.3733 41.0215L32.84 40.1856C33.5182 40.7326 34.2905 41.1662 35.1258 41.4766L35.6267 44H40.3733L40.8742 41.4766C41.7095 41.1662 42.4818 40.7326 43.16 40.1856L45.6267 41.0215L48 36.9785L46.0262 35.293C46.0962 34.871 46.1415 34.4414 46.1415 34C46.1415 33.5586 46.0962 33.129 46.0262 32.707L48 31.0215L45.6267 26.9785L43.16 27.8145C42.4818 27.2674 41.7095 26.8338 40.8742 26.5234L40.3733 24H35.6267ZM41.3332 33.9998C41.3332 35.8408 39.8408 37.3332 37.9998 37.3332C36.1589 37.3332 34.6665 35.8408 34.6665 33.9998C34.6665 32.1589 36.1589 30.6665 37.9998 30.6665C39.8408 30.6665 41.3332 32.1589 41.3332 33.9998Z" fill="#324558"/>
</g>
<defs>
<clipPath id="clip0_3155_5563">
<rect width="48" height="48" fill="white"/>
</clipPath>
</defs>
</svg>
