<svg width="48" height="48" viewBox="0 0 48 48" fill="none" xmlns="http://www.w3.org/2000/svg">
<path fill-rule="evenodd" clip-rule="evenodd" d="M6 8C4.89543 8 4 8.89543 4 10V18C7.31371 18 10 20.6863 10 24C10 27.3137 7.31371 30 4 30V38C4 39.1046 4.89543 40 6 40H42C43.1046 40 44 39.1046 44 38V30C40.6863 30 38 27.3137 38 24C38 20.6863 40.6863 18 44 18V10C44 8.89543 43.1046 8 42 8H6ZM27.0902 20.7544L24 14.5L20.9098 20.7544L14 21.7574L19 26.6257L17.8197 33.5L24 30.2544L30.1803 33.5L29 26.6257L34 21.7574L27.0902 20.7544Z" fill="#B6C2CD"/>
<path d="M24 14.5L27.0902 20.7544L34 21.7574L29 26.6257L30.1803 33.5L24 30.2544L17.8197 33.5L19 26.6257L14 21.7574L20.9098 20.7544L24 14.5Z" fill="#324558"/>
</svg>
