<svg width="48" height="48" viewBox="0 0 48 48" fill="none" xmlns="http://www.w3.org/2000/svg">
<path fill-rule="evenodd" clip-rule="evenodd" d="M6 8C4.89543 8 4 8.89543 4 10V18C7.31371 18 10 20.6863 10 24C10 27.3137 7.31371 30 4 30V38C4 39.1046 4.89543 40 6 40H26.4644C25.5289 38.205 25 36.1643 25 34C25 26.8203 30.8203 21 38 21C40.1643 21 42.205 21.5289 44 22.4644V10C44 8.89543 43.1046 8 42 8H6ZM14 14H17V34H14V14Z" fill="#B6C2CD"/>
<path d="M17 14H14V34H17V14Z" fill="#324558"/>
<path fill-rule="evenodd" clip-rule="evenodd" d="M48 34C48 39.5228 43.5228 44 38 44C32.4772 44 28 39.5228 28 34C28 28.4772 32.4772 24 38 24C43.5228 24 48 28.4772 48 34ZM32 35.5H37V40L44 34L37 28V32.5H32V35.5Z" fill="#324558"/>
</svg>
