<svg width="48" height="48" viewBox="0 0 48 48" fill="none" xmlns="http://www.w3.org/2000/svg">
<path d="M4 10C4 8.89543 4.89543 8 6 8H42C43.1046 8 44 8.89543 44 10V13H4V10Z" fill="#B6C2CD"/>
<path fill-rule="evenodd" clip-rule="evenodd" d="M44 17H4V38C4 39.1046 4.89543 40 6 40H42C43.1046 40 44 39.1046 44 38V17ZM32 32C32 34.2091 30.2091 36 28 36C25.7909 36 24 34.2091 24 32C24 29.7909 25.7909 28 28 28C30.2091 28 32 29.7909 32 32ZM35 32C35 33.2682 34.5279 34.4261 33.7498 35.3075C34.3909 35.7445 35.1656 36 36 36C38.2091 36 40 34.2091 40 32C40 29.7909 38.2091 28 36 28C35.1656 28 34.3909 28.2555 33.7498 28.6925C34.5279 29.5739 35 30.7318 35 32Z" fill="#B6C2CD"/>
<path d="M44 13H4V17H44V13Z" fill="#324558"/>
<path d="M32 32C32 34.2091 30.2091 36 28 36C25.7909 36 24 34.2091 24 32C24 29.7909 25.7909 28 28 28C30.2091 28 32 29.7909 32 32Z" fill="#324558"/>
<path d="M33.7498 35.3075C34.5279 34.4261 35 33.2682 35 32C35 30.7318 34.5279 29.5739 33.7498 28.6925C34.3909 28.2555 35.1656 28 36 28C38.2091 28 40 29.7909 40 32C40 34.2091 38.2091 36 36 36C35.1656 36 34.3909 35.7445 33.7498 35.3075Z" fill="#324558"/>
</svg>
