<svg width="48" height="48" viewBox="0 0 48 48" fill="none" xmlns="http://www.w3.org/2000/svg">
<path fill-rule="evenodd" clip-rule="evenodd" d="M10 5C8.89543 5 8 5.89543 8 7V43.557C8 44.2552 8.69737 44.7385 9.35112 44.4933L23.2978 39.2633C23.7505 39.0936 24.2495 39.0936 24.7022 39.2633L38.6489 44.4933C39.3026 44.7385 40 44.2552 40 43.557V7C40 5.89543 39.1046 5 38 5H10ZM16 13H32V17H16V13ZM16 21H32V25H16V21Z" fill="#B6C2CD"/>
<path d="M32 13H16V17H32V13Z" fill="#324558"/>
<path d="M32 21H16V25H32V21Z" fill="#324558"/>
</svg>
