<svg width="48" height="48" viewBox="0 0 48 48" fill="none" xmlns="http://www.w3.org/2000/svg">
<path fill-rule="evenodd" clip-rule="evenodd" d="M33.0802 6C33.664 6 34.2187 6.25513 34.5987 6.69842L44.8213 18.6248C45.4903 19.4054 45.4587 20.566 44.7481 21.3089L24.7227 42.2445C24.3289 42.6562 23.6712 42.6562 23.2774 42.2445L3.25199 21.3089C2.54139 20.566 2.50973 19.4054 3.17876 18.6248L13.4014 6.69842C13.7814 6.25513 14.3361 6 14.9199 6H33.0802ZM24 30L14.5371 20H20.0441L24 24.1804L27.9559 20H33.4629L24 30Z" fill="#B6C2CD"/>
<path d="M14.5371 20L24 30L33.4629 20H27.9559L24 24.1804L20.0441 20H14.5371Z" fill="#324558"/>
</svg>
