<svg width="48" height="48" viewBox="0 0 48 48" fill="none" xmlns="http://www.w3.org/2000/svg">
<path fill-rule="evenodd" clip-rule="evenodd" d="M24 44C35.0457 44 44 35.0457 44 24C44 12.9543 35.0457 4 24 4C12.9543 4 4 12.9543 4 24C4 35.0457 12.9543 44 24 44ZM25.4766 26.6195C25.7812 26.9711 25.9336 27.4554 25.9336 28.0726C25.9336 28.6273 25.7812 29.0648 25.4766 29.3851C25.1719 29.6976 24.7539 29.8539 24.2227 29.8539C23.4961 29.8539 22.9336 29.6234 22.5352 29.1625C22.1445 28.6937 21.9492 28.014 21.9492 27.1234H18C18 28.7406 18.4531 30.0453 19.3594 31.0375C20.2734 32.0219 21.582 32.6039 23.2852 32.7836V35.1508H25.1484V32.7953C26.6094 32.6547 27.7617 32.1625 28.6055 31.3187C29.457 30.475 29.8828 29.3851 29.8828 28.0492C29.8828 27.2601 29.75 26.5844 29.4844 26.0219C29.2188 25.4594 28.8516 24.9672 28.3828 24.5453C27.9141 24.1234 27.3555 23.7484 26.707 23.4203C26.0664 23.0844 25.3828 22.764 24.6562 22.4594C23.9297 22.1469 23.4023 21.8226 23.0742 21.4867C22.7461 21.1429 22.582 20.682 22.582 20.1039C22.582 19.5336 22.7227 19.0883 23.0039 18.7679C23.293 18.4398 23.6953 18.2758 24.2109 18.2758C24.7891 18.2758 25.2344 18.4945 25.5469 18.932C25.8594 19.3695 26.0156 19.9945 26.0156 20.807H29.9766C29.9766 19.3226 29.5664 18.1 28.7461 17.139C27.9336 16.1703 26.8125 15.5804 25.3828 15.3695V12.85H23.5195V15.3226C22.0352 15.4633 20.8477 15.9633 19.957 16.8226C19.0664 17.6742 18.6211 18.7601 18.6211 20.0804C18.6211 20.8695 18.7461 21.5414 18.9961 22.0961C19.2461 22.6508 19.6055 23.139 20.0742 23.5609C20.543 23.9828 21.1016 24.3539 21.75 24.6742C22.3984 24.9945 23.1055 25.3109 23.8711 25.6234C24.6367 25.9359 25.1719 26.2679 25.4766 26.6195Z" fill="#B6C2CD"/>
<path d="M25.9336 28.0728C25.9336 27.4556 25.7812 26.9712 25.4766 26.6196C25.1719 26.2681 24.6367 25.936 23.8711 25.6235C23.1055 25.311 22.3984 24.9946 21.75 24.6743C21.1016 24.354 20.543 23.9829 20.0742 23.561C19.6055 23.1392 19.2461 22.6509 18.9961 22.0962C18.7461 21.5415 18.6211 20.8696 18.6211 20.0806C18.6211 18.7603 19.0664 17.6743 19.957 16.8228C20.8477 15.9634 22.0352 15.4634 23.5195 15.3228V12.8501H25.3828V15.3696C26.8125 15.5806 27.9336 16.1704 28.7461 17.1392C29.5664 18.1001 29.9766 19.3228 29.9766 20.8071H26.0156C26.0156 19.9946 25.8594 19.3696 25.5469 18.9321C25.2344 18.4946 24.7891 18.2759 24.2109 18.2759C23.6953 18.2759 23.293 18.4399 23.0039 18.7681C22.7227 19.0884 22.582 19.5337 22.582 20.104C22.582 20.6821 22.7461 21.1431 23.0742 21.4868C23.4023 21.8228 23.9297 22.147 24.6562 22.4595C25.3828 22.7642 26.0664 23.0845 26.707 23.4204C27.3555 23.7485 27.9141 24.1235 28.3828 24.5454C28.8516 24.9673 29.2188 25.4595 29.4844 26.022C29.75 26.5845 29.8828 27.2603 29.8828 28.0493C29.8828 29.3853 29.457 30.4751 28.6055 31.3188C27.7617 32.1626 26.6094 32.6548 25.1484 32.7954V35.1509H23.2852V32.7837C21.582 32.604 20.2734 32.022 19.3594 31.0376C18.4531 30.0454 18 28.7407 18 27.1235H21.9492C21.9492 28.0142 22.1445 28.6938 22.5352 29.1626C22.9336 29.6235 23.4961 29.854 24.2227 29.854C24.7539 29.854 25.1719 29.6978 25.4766 29.3853C25.7812 29.0649 25.9336 28.6274 25.9336 28.0728Z" fill="#324558"/>
</svg>
