<svg width="48" height="48" viewBox="0 0 48 48" fill="none" xmlns="http://www.w3.org/2000/svg">
<path fill-rule="evenodd" clip-rule="evenodd" d="M24.6999 2.68525C24.3111 2.30446 23.6892 2.30446 23.3004 2.68525L17.8048 8.06801C17.6204 8.24856 17.3734 8.35087 17.1154 8.35355L9.42319 8.43338C8.87903 8.43903 8.43927 8.87878 8.43363 9.42295L8.35379 17.1152C8.35112 17.3732 8.24881 17.6202 8.06826 17.8045L2.6855 23.3002C2.3047 23.6889 2.3047 24.3109 2.6855 24.6996L8.06825 30.1953C8.24881 30.3796 8.35112 30.6266 8.35379 30.8846L8.43363 38.5768C8.43927 39.121 8.87903 39.5608 9.42319 39.5664L17.1154 39.6462C17.3734 39.6489 17.6204 39.7512 17.8048 39.9318L23.3004 45.3145C23.6892 45.6953 24.3111 45.6953 24.6999 45.3145L30.1955 39.9318C30.3799 39.7512 30.6269 39.6489 30.8849 39.6462L38.5771 39.5664C39.1213 39.5608 39.561 39.121 39.5667 38.5768L39.6465 30.8846C39.6492 30.6266 39.7515 30.3796 39.932 30.1953L45.3148 24.6996C45.6956 24.3109 45.6956 23.6889 45.3148 23.3002L39.932 17.8045C39.7515 17.6202 39.6492 17.3732 39.6465 17.1152L39.5667 9.42295C39.561 8.87878 39.1213 8.43903 38.5771 8.43338L30.8849 8.35355C30.6269 8.35087 30.3799 8.24856 30.1955 8.06801L24.6999 2.68525ZM25.4767 26.6196C25.7814 26.9712 25.9337 27.4556 25.9337 28.0728C25.9337 28.6274 25.7814 29.0649 25.4767 29.3853C25.172 29.6978 24.754 29.854 24.2228 29.854C23.4962 29.854 22.9337 29.6235 22.5353 29.1626C22.1447 28.6938 21.9493 28.0142 21.9493 27.1235H18.0001C18.0001 28.7407 18.4532 30.0454 19.3595 31.0376C20.2736 32.022 21.5822 32.604 23.2853 32.7837V35.1509H25.1486V32.7954C26.6095 32.6548 27.7618 32.1626 28.6056 31.3188C29.4572 30.4751 29.8829 29.3853 29.8829 28.0493C29.8829 27.2603 29.7501 26.5845 29.4845 26.022C29.2189 25.4595 28.8517 24.9673 28.3829 24.5454C27.9142 24.1235 27.3556 23.7485 26.7072 23.4204C26.0665 23.0845 25.3829 22.7642 24.6564 22.4595C23.9298 22.147 23.4025 21.8228 23.0743 21.4868C22.7462 21.1431 22.5822 20.6821 22.5822 20.104C22.5822 19.5337 22.7228 19.0884 23.004 18.7681C23.2931 18.4399 23.6954 18.2759 24.2111 18.2759C24.7892 18.2759 25.2345 18.4946 25.547 18.9321C25.8595 19.3696 26.0157 19.9946 26.0157 20.8071H29.9767C29.9767 19.3228 29.5665 18.1001 28.7462 17.1392C27.9337 16.1704 26.8126 15.5806 25.3829 15.3696V12.8501H23.5197V15.3228C22.0353 15.4634 20.8478 15.9634 19.9572 16.8228C19.0665 17.6743 18.6212 18.7603 18.6212 20.0806C18.6212 20.8696 18.7462 21.5415 18.9962 22.0962C19.2462 22.6509 19.6056 23.1392 20.0743 23.561C20.5431 23.9829 21.1017 24.354 21.7501 24.6743C22.3986 24.9946 23.1056 25.311 23.8712 25.6235C24.6368 25.936 25.172 26.2681 25.4767 26.6196Z" fill="#B6C2CD"/>
<path d="M25.9336 28.0728C25.9336 27.4556 25.7812 26.9712 25.4766 26.6196C25.1719 26.2681 24.6367 25.936 23.8711 25.6235C23.1055 25.311 22.3984 24.9946 21.75 24.6743C21.1016 24.354 20.543 23.9829 20.0742 23.561C19.6055 23.1392 19.2461 22.6509 18.9961 22.0962C18.7461 21.5415 18.6211 20.8696 18.6211 20.0806C18.6211 18.7603 19.0664 17.6743 19.957 16.8228C20.8477 15.9634 22.0352 15.4634 23.5195 15.3228V12.8501H25.3828V15.3696C26.8125 15.5806 27.9336 16.1704 28.7461 17.1392C29.5664 18.1001 29.9766 19.3228 29.9766 20.8071H26.0156C26.0156 19.9946 25.8594 19.3696 25.5469 18.9321C25.2344 18.4946 24.7891 18.2759 24.2109 18.2759C23.6953 18.2759 23.293 18.4399 23.0039 18.7681C22.7227 19.0884 22.582 19.5337 22.582 20.104C22.582 20.6821 22.7461 21.1431 23.0742 21.4868C23.4023 21.8228 23.9297 22.147 24.6562 22.4595C25.3828 22.7642 26.0664 23.0845 26.707 23.4204C27.3555 23.7485 27.9141 24.1235 28.3828 24.5454C28.8516 24.9673 29.2188 25.4595 29.4844 26.022C29.75 26.5845 29.8828 27.2603 29.8828 28.0493C29.8828 29.3853 29.457 30.4751 28.6055 31.3188C27.7617 32.1626 26.6094 32.6548 25.1484 32.7954V35.1509H23.2852V32.7837C21.582 32.604 20.2734 32.022 19.3594 31.0376C18.4531 30.0454 18 28.7407 18 27.1235H21.9492C21.9492 28.0142 22.1445 28.6938 22.5352 29.1626C22.9336 29.6235 23.4961 29.854 24.2227 29.854C24.7539 29.854 25.1719 29.6978 25.4766 29.3853C25.7812 29.0649 25.9336 28.6274 25.9336 28.0728Z" fill="#324558"/>
</svg>
