<svg width="48" height="48" viewBox="0 0 48 48" fill="none" xmlns="http://www.w3.org/2000/svg">
<path fill-rule="evenodd" clip-rule="evenodd" d="M23.2032 3.34599C23.7115 3.12523 24.2885 3.12523 24.7968 3.34599L40.7968 10.2955C41.5274 10.6128 42 11.3322 42 12.1287V22.5454C42 37.4849 29.7282 44.6502 24.3789 45.9176C24.1268 45.9774 23.8732 45.9774 23.6211 45.9176C18.2718 44.6502 6 37.4849 6 22.5454V12.1287C6 11.3322 6.47264 10.6128 7.20323 10.2955L23.2032 3.34599ZM32.8881 22.618C29.4781 20.726 25.7821 17.558 23.8901 14.83C22.0861 17.514 18.6981 20.594 15.0461 22.662C14.6941 22.046 13.9461 21.078 13.3521 20.528C17.1801 18.548 20.7441 15.05 22.3941 12.212H25.1441C27.5201 15.732 31.1281 18.724 34.6701 20.264C34.0101 20.946 33.3941 21.826 32.8881 22.618ZM25.5181 23.234V18.504H22.7021V30.01H19.6001V22.31H17.0041V30.01H14.6061V32.386H33.4161V30.01H25.5181V25.588H31.4141V23.234H25.5181Z" fill="#B6C2CD"/>
<path d="M23.8901 14.8299C25.7821 17.5579 29.4781 20.7259 32.8881 22.6179C33.3941 21.8259 34.0101 20.9459 34.6701 20.2639C31.1281 18.7239 27.5201 15.7319 25.1441 12.2119H22.3941C20.7441 15.0499 17.1801 18.5479 13.3521 20.5279C13.9461 21.0779 14.6941 22.0459 15.0461 22.6619C18.6981 20.5939 22.0861 17.5139 23.8901 14.8299ZM24.0221 23.2339V25.5879H31.4141V23.2339H24.0221ZM14.6061 30.0099V32.3859H33.4161V30.0099H14.6061ZM22.7021 18.5039V31.2859H25.5181V18.5039H22.7021ZM17.0041 22.3099V31.2199H19.6001V22.3099H17.0041Z" fill="#324558"/>
</svg>
