<svg width="48" height="48" viewBox="0 0 48 48" fill="none" xmlns="http://www.w3.org/2000/svg">
<path fill-rule="evenodd" clip-rule="evenodd" d="M24 44C35.0457 44 44 35.0457 44 24C44 12.9543 35.0457 4 24 4C12.9543 4 4 12.9543 4 24C4 35.0457 12.9543 44 24 44ZM23.0477 27.0924H27.3009V24.8434H23.0477V23.1285H27.3009V20.8936H23.0886C23.2068 19.666 23.5975 18.7617 24.261 18.1807C24.9244 17.5904 25.8832 17.2952 27.1373 17.2952C27.9461 17.2952 28.705 17.4404 29.4138 17.7309L30 13.9357C28.8549 13.6452 27.8007 13.5 26.8374 13.5C24.3473 13.5 22.3434 14.1513 20.8257 15.4538C19.308 16.7564 18.4628 18.5696 18.2902 20.8936H16V23.1285H18.2493V24.8434H16V27.0924H18.2493C18.322 29.407 19.0854 31.2202 20.5394 32.5321C22.0026 33.844 23.9611 34.5 26.4148 34.5C27.5962 34.5 28.7913 34.3594 30 34.0783L29.4138 30.2972C28.7141 30.5783 27.9143 30.7189 27.0146 30.7189C25.6241 30.7189 24.6245 30.4237 24.0156 29.8333C23.4158 29.243 23.0932 28.3293 23.0477 27.0924Z" fill="#B6C2CD"/>
<path d="M27.3009 27.0924H23.0477C23.0932 28.3293 23.4158 29.243 24.0156 29.8333C24.6245 30.4237 25.6241 30.7189 27.0146 30.7189C27.9143 30.7189 28.7141 30.5783 29.4138 30.2972L30 34.0783C28.7913 34.3594 27.5962 34.5 26.4148 34.5C23.9611 34.5 22.0026 33.844 20.5394 32.5321C19.0854 31.2202 18.322 29.407 18.2493 27.0924H16V24.8434H18.2493V23.1285H16V20.8936H18.2902C18.4628 18.5696 19.308 16.7564 20.8257 15.4538C22.3434 14.1513 24.3473 13.5 26.8374 13.5C27.8007 13.5 28.8549 13.6452 30 13.9357L29.4138 17.7309C28.705 17.4404 27.9461 17.2952 27.1373 17.2952C25.8831 17.2952 24.9244 17.5904 24.261 18.1807C23.5975 18.7617 23.2068 19.666 23.0886 20.8936H27.3009V23.1285H23.0477V24.8434H27.3009V27.0924Z" fill="#324558"/>
</svg>
