<svg width="48" height="48" viewBox="0 0 48 48" fill="none" xmlns="http://www.w3.org/2000/svg">
<path fill-rule="evenodd" clip-rule="evenodd" d="M24.6999 2.68525C24.3111 2.30446 23.6892 2.30446 23.3004 2.68525L17.8048 8.06801C17.6204 8.24856 17.3734 8.35087 17.1154 8.35355L9.42319 8.43338C8.87903 8.43903 8.43927 8.87878 8.43363 9.42295L8.35379 17.1152C8.35112 17.3732 8.24881 17.6202 8.06826 17.8045L2.6855 23.3002C2.3047 23.6889 2.3047 24.3109 2.6855 24.6996L8.06825 30.1953C8.24881 30.3796 8.35112 30.6266 8.35379 30.8846L8.43363 38.5768C8.43927 39.121 8.87903 39.5608 9.42319 39.5664L17.1154 39.6462C17.3734 39.6489 17.6204 39.7512 17.8048 39.9318L23.3004 45.3145C23.6892 45.6953 24.3111 45.6953 24.6999 45.3145L30.1955 39.9318C30.3799 39.7512 30.6269 39.6489 30.8849 39.6462L38.5771 39.5664C39.1213 39.5608 39.561 39.121 39.5667 38.5768L39.6465 30.8846C39.6492 30.6266 39.7515 30.3796 39.932 30.1953L45.3148 24.6996C45.6956 24.3109 45.6956 23.6889 45.3148 23.3002L39.932 17.8045C39.7515 17.6202 39.6492 17.3732 39.6465 17.1152L39.5667 9.42295C39.561 8.87878 39.1213 8.43903 38.5771 8.43338L30.8849 8.35355C30.6269 8.35087 30.3799 8.24856 30.1955 8.06801L24.6999 2.68525ZM23.0478 26.9451H27.301V24.8032H23.0478V23.17H27.301V21.0415H23.0887C23.2069 19.8724 23.5977 19.0112 24.2611 18.4578C24.9245 17.8956 25.8833 17.6145 27.1374 17.6145C27.9462 17.6145 28.7051 17.7528 29.4139 18.0294L30.0001 14.415C28.855 14.1383 27.8008 14 26.8375 14C24.3474 14 22.3435 14.6203 20.8258 15.8608C19.3081 17.1013 18.463 18.8282 18.2903 21.0415H16.0001V23.17H18.2494V24.8032H16.0001V26.9451H18.2494C18.3221 29.1495 19.0855 30.8764 20.5396 32.1258C22.0027 33.3752 23.9612 34 26.4149 34C27.5963 34 28.7914 33.8661 30.0001 33.5984L29.4139 29.9973C28.7142 30.265 27.9144 30.399 27.0147 30.399C25.6243 30.399 24.6246 30.1178 24.0157 29.5555C23.4159 28.9933 23.0933 28.1231 23.0478 26.9451Z" fill="#B6C2CD"/>
<path d="M27.3009 26.9451H23.0477C23.0932 28.1231 23.4158 28.9933 24.0156 29.5555C24.6245 30.1178 25.6241 30.399 27.0146 30.399C27.9143 30.399 28.7141 30.265 29.4138 29.9973L30 33.5984C28.7913 33.8661 27.5962 34 26.4148 34C23.9611 34 22.0026 33.3752 20.5394 32.1258C19.0854 30.8764 18.322 29.1495 18.2493 26.9451H16V24.8032H18.2493V23.17H16V21.0415H18.2902C18.4628 18.8282 19.308 17.1013 20.8257 15.8608C22.3434 14.6203 24.3473 14 26.8374 14C27.8007 14 28.8549 14.1383 30 14.415L29.4138 18.0294C28.705 17.7528 27.9461 17.6145 27.1373 17.6145C25.8831 17.6145 24.9244 17.8956 24.261 18.4578C23.5975 19.0112 23.2068 19.8724 23.0886 21.0415H27.3009V23.17H23.0477V24.8032H27.3009V26.9451Z" fill="#324558"/>
</svg>
