<svg width="48" height="48" viewBox="0 0 48 48" fill="none" xmlns="http://www.w3.org/2000/svg">
<path fill-rule="evenodd" clip-rule="evenodd" d="M6 8C6 6.89543 6.89543 6 8 6H40C41.1046 6 42 6.89543 42 8V40C42 41.1046 41.1046 42 40 42H8C6.89543 42 6 41.1046 6 40V8ZM23.0477 26.9451H27.3009V24.8032H23.0477V23.17H27.3009V21.0415H23.0886C23.2068 19.8724 23.5975 19.0112 24.261 18.4578C24.9244 17.8956 25.8832 17.6145 27.1373 17.6145C27.9461 17.6145 28.705 17.7528 29.4138 18.0294L30 14.415C28.8549 14.1383 27.8007 14 26.8374 14C24.3473 14 22.3434 14.6203 20.8257 15.8608C19.308 17.1013 18.4628 18.8282 18.2902 21.0415H16V23.17H18.2493V24.8032H16V26.9451H18.2493C18.322 29.1495 19.0854 30.8764 20.5394 32.1258C22.0026 33.3752 23.9611 34 26.4148 34C27.5962 34 28.7913 33.8661 30 33.5984L29.4138 29.9973C28.7141 30.265 27.9143 30.399 27.0146 30.399C25.6241 30.399 24.6245 30.1178 24.0156 29.5555C23.4158 28.9933 23.0931 28.1231 23.0477 26.9451Z" fill="#B6C2CD"/>
<path d="M27.3009 26.9451H23.0477C23.0932 28.1231 23.4158 28.9933 24.0156 29.5555C24.6245 30.1178 25.6241 30.399 27.0146 30.399C27.9143 30.399 28.7141 30.265 29.4138 29.9973L30 33.5984C28.7913 33.8661 27.5962 34 26.4148 34C23.9611 34 22.0026 33.3752 20.5394 32.1258C19.0854 30.8764 18.322 29.1495 18.2493 26.9451H16V24.8032H18.2493V23.17H16V21.0415H18.2902C18.4628 18.8282 19.308 17.1013 20.8257 15.8608C22.3434 14.6203 24.3473 14 26.8374 14C27.8007 14 28.8549 14.1383 30 14.415L29.4138 18.0294C28.705 17.7528 27.9461 17.6145 27.1373 17.6145C25.8831 17.6145 24.9244 17.8956 24.261 18.4578C23.5975 19.0112 23.2068 19.8724 23.0886 21.0415H27.3009V23.17H23.0477V24.8032H27.3009V26.9451Z" fill="#324558"/>
</svg>
