<svg width="48" height="48" viewBox="0 0 48 48" fill="none" xmlns="http://www.w3.org/2000/svg">
<path d="M24 20C32.8366 20 40 16.4183 40 12C40 7.58172 32.8366 4 24 4C15.1634 4 8 7.58172 8 12C8 16.4183 15.1634 20 24 20Z" fill="#B6C2CD"/>
<path d="M36.5162 32.6982C33.1594 34.1668 28.732 35 24 35C19.268 35 14.8406 34.1668 11.4838 32.6982L11.424 32.6719C9.27949 33.863 8 35.3661 8 37C8 40.866 15.1634 44 24 44C32.8366 44 40 40.866 40 37C40 35.3661 38.7205 33.863 36.576 32.6719L36.5162 32.6982Z" fill="#B6C2CD"/>
<path d="M11.7096 20.5178C9.39358 21.7321 8 23.2948 8 25C8 28.866 15.1634 32 24 32C32.8366 32 40 28.866 40 25C40 23.2948 38.6064 21.7321 36.2904 20.5178C32.9437 22.1041 28.6135 23 24 23C19.3865 23 15.0563 22.1041 11.7096 20.5178Z" fill="#324558"/>
</svg>
