<svg width="48" height="48" viewBox="0 0 48 48" fill="none" xmlns="http://www.w3.org/2000/svg">
<path fill-rule="evenodd" clip-rule="evenodd" d="M24.6996 2.6855C24.3109 2.3047 23.6889 2.3047 23.3002 2.6855L17.8045 8.06825C17.6202 8.24881 17.3732 8.35112 17.1152 8.35379L9.42295 8.43363C8.87878 8.43927 8.43903 8.87903 8.43338 9.42319L8.35355 17.1154C8.35087 17.3734 8.24856 17.6204 8.06801 17.8048L2.68525 23.3004C2.30446 23.6892 2.30446 24.3111 2.68525 24.6999L8.06801 30.1955C8.24856 30.3799 8.35087 30.6269 8.35355 30.8849L8.43338 38.5771C8.43903 39.1213 8.87878 39.561 9.42295 39.5667L17.1152 39.6465C17.3732 39.6492 17.6202 39.7515 17.8045 39.932L23.3002 45.3148C23.6889 45.6956 24.3109 45.6956 24.6996 45.3148L30.1953 39.932C30.3796 39.7515 30.6266 39.6492 30.8846 39.6465L38.5768 39.5667C39.121 39.561 39.5608 39.1213 39.5664 38.5771L39.6462 30.8849C39.6489 30.6269 39.7512 30.3799 39.9318 30.1955L45.3145 24.6999C45.6953 24.3111 45.6953 23.6892 45.3145 23.3004L39.9318 17.8048C39.7512 17.6204 39.6489 17.3734 39.6462 17.1154L39.5664 9.42319C39.5608 8.87903 39.121 8.43927 38.5768 8.43363L30.8846 8.35379C30.6266 8.35112 30.3796 8.24881 30.1953 8.06826L24.6996 2.6855ZM18.0608 32.0608L32.0608 18.0608L29.9395 15.9395L15.9395 29.9395L18.0608 32.0608ZM22.0001 19.0001C22.0001 20.657 20.657 22.0001 19.0001 22.0001C17.3433 22.0001 16.0001 20.657 16.0001 19.0001C16.0001 17.3433 17.3433 16.0001 19.0001 16.0001C20.657 16.0001 22.0001 17.3433 22.0001 19.0001ZM29.0001 32.0001C30.657 32.0001 32.0001 30.657 32.0001 29.0001C32.0001 27.3433 30.657 26.0001 29.0001 26.0001C27.3433 26.0001 26.0001 27.3433 26.0001 29.0001C26.0001 30.657 27.3433 32.0001 29.0001 32.0001Z" fill="#B6C2CD"/>
<path d="M18.0608 32.0608L32.0608 18.0608L29.9395 15.9395L15.9395 29.9395L18.0608 32.0608Z" fill="#324558"/>
<path d="M22.0001 19.0001C22.0001 20.657 20.657 22.0001 19.0001 22.0001C17.3433 22.0001 16.0001 20.657 16.0001 19.0001C16.0001 17.3433 17.3433 16.0001 19.0001 16.0001C20.657 16.0001 22.0001 17.3433 22.0001 19.0001Z" fill="#324558"/>
<path d="M32.0001 29.0001C32.0001 30.657 30.657 32.0001 29.0001 32.0001C27.3433 32.0001 26.0001 30.657 26.0001 29.0001C26.0001 27.3433 27.3433 26.0001 29.0001 26.0001C30.657 26.0001 32.0001 27.3433 32.0001 29.0001Z" fill="#324558"/>
</svg>
