<svg width="48" height="48" viewBox="0 0 48 48" fill="none" xmlns="http://www.w3.org/2000/svg">
<path fill-rule="evenodd" clip-rule="evenodd" d="M24.6999 2.68525C24.3111 2.30446 23.6892 2.30446 23.3004 2.68525L17.8048 8.06801C17.6204 8.24856 17.3734 8.35087 17.1154 8.35355L9.42319 8.43338C8.87903 8.43903 8.43927 8.87878 8.43363 9.42295L8.35379 17.1152C8.35112 17.3732 8.24881 17.6202 8.06826 17.8045L2.6855 23.3002C2.3047 23.6889 2.3047 24.3109 2.6855 24.6996L8.06825 30.1953C8.24881 30.3796 8.35112 30.6266 8.35379 30.8846L8.43363 38.5768C8.43927 39.121 8.87903 39.5608 9.42319 39.5664L17.1154 39.6462C17.3734 39.6489 17.6204 39.7512 17.8048 39.9318L23.3004 45.3145C23.6892 45.6953 24.3111 45.6953 24.6999 45.3145L30.1955 39.9318C30.3799 39.7512 30.6269 39.6489 30.8849 39.6462L38.5771 39.5664C39.1213 39.5608 39.561 39.121 39.5667 38.5768L39.6465 30.8846C39.6492 30.6266 39.7515 30.3796 39.932 30.1953L45.3148 24.6996C45.6956 24.3109 45.6956 23.6889 45.3148 23.3002L39.932 17.8045C39.7515 17.6202 39.6492 17.3732 39.6465 17.1152L39.5667 9.42295C39.561 8.87878 39.1213 8.43903 38.5771 8.43338L30.8849 8.35355C30.6269 8.35087 30.3799 8.24856 30.1955 8.06801L24.6999 2.68525ZM23.7986 27.5207L23.7336 26.1539H27.5813V22.9688H23.5907L23.4737 20.3207C23.4737 19.6292 23.608 19.1207 23.8766 18.7953C24.1453 18.4617 24.5006 18.2949 24.9426 18.2949C26.1211 18.2949 26.7104 18.9336 26.7104 20.2108H31.0001C31.0001 18.6081 30.4541 17.339 29.3622 16.4034C28.279 15.4678 26.7668 15 24.8256 15C23.0144 15 21.5758 15.4719 20.5099 16.4156C19.4526 17.3512 18.924 18.6529 18.924 20.3207L19.002 22.9688H17.0001V26.1539H19.106L19.171 27.8013L19.158 28.4482C19.132 29.1641 18.872 29.583 18.378 29.7051H17.0391V33H30.9351V29.7051H23.0317C23.543 29.1762 23.7986 28.4482 23.7986 27.5207Z" fill="#B6C2CD"/>
<path d="M23.7335 26.1539L23.7985 27.5207C23.7985 28.4482 23.5429 29.1762 23.0316 29.7051H30.935V33H17.039V29.7051H18.3779C18.8719 29.583 19.1319 29.1641 19.1579 28.4482L19.1709 27.8013L19.1058 26.1539H17V22.9688H19.0019L18.9239 20.3207C18.9239 18.6529 19.4525 17.3512 20.5097 16.4156C21.5757 15.4719 23.0142 15 24.8254 15C26.7666 15 28.2789 15.4678 29.3621 16.4034C30.454 17.339 31 18.6081 31 20.2108H26.7103C26.7103 18.9336 26.121 18.2949 24.9424 18.2949C24.5005 18.2949 24.1452 18.4617 23.8765 18.7953C23.6079 19.1207 23.4735 19.6292 23.4735 20.3207L23.5905 22.9688H27.5812V26.1539H23.7335Z" fill="#324558"/>
</svg>
