<svg width="48" height="48" viewBox="0 0 48 48" fill="none" xmlns="http://www.w3.org/2000/svg">
<path fill-rule="evenodd" clip-rule="evenodd" d="M6 8C6 6.89543 6.89543 6 8 6H40C41.1046 6 42 6.89543 42 8V40C42 41.1046 41.1046 42 40 42H8C6.89543 42 6 41.1046 6 40V8ZM23.7985 27.5207L23.7335 26.1539H27.5812V22.9688H23.5905L23.4735 20.3207C23.4735 19.6292 23.6079 19.1207 23.8765 18.7953C24.1452 18.4617 24.5005 18.2949 24.9424 18.2949C26.121 18.2949 26.7103 18.9336 26.7103 20.2108H31C31 18.6081 30.454 17.339 29.3621 16.4034C28.2789 15.4678 26.7666 15 24.8254 15C23.0142 15 21.5757 15.4719 20.5098 16.4156C19.4525 17.3512 18.9239 18.6529 18.9239 20.3207L19.0019 22.9688H17V26.1539H19.1059L19.1709 27.8013L19.1579 28.4482C19.1318 29.1641 18.8719 29.583 18.3779 29.7051H17.039V33H30.935V29.7051H23.0316C23.5429 29.1762 23.7985 28.4482 23.7985 27.5207Z" fill="#B6C2CD"/>
<path d="M23.7335 26.1539L23.7985 27.5207C23.7985 28.4482 23.5429 29.1762 23.0316 29.7051H30.935V33H17.039V29.7051H18.3779C18.8719 29.583 19.1319 29.1641 19.1579 28.4482L19.1709 27.8013L19.1058 26.1539H17V22.9688H19.0019L18.9239 20.3207C18.9239 18.6529 19.4525 17.3512 20.5097 16.4156C21.5757 15.4719 23.0142 15 24.8254 15C26.7666 15 28.2789 15.4678 29.3621 16.4034C30.454 17.339 31 18.6081 31 20.2108H26.7103C26.7103 18.9336 26.121 18.2949 24.9424 18.2949C24.5005 18.2949 24.1452 18.4617 23.8765 18.7953C23.6079 19.1207 23.4735 19.6292 23.4735 20.3207L23.5905 22.9688H27.5812V26.1539H23.7335Z" fill="#324558"/>
</svg>
