<svg width="48" height="48" viewBox="0 0 48 48" fill="none" xmlns="http://www.w3.org/2000/svg">
<path d="M10 4C8.89543 4 8 4.89543 8 6V13.3817C10.8845 15.2039 14.1012 16.5479 17.5387 17.3024C18.5949 14.7756 21.0901 13 24 13C26.9099 13 29.4051 14.7756 30.4613 17.3024C33.8988 16.5479 37.1155 15.2039 40 13.3817V6C40 4.89543 39.1046 4 38 4H10Z" fill="#B6C2CD"/>
<path d="M40 18.0076C37.1742 19.5174 34.1101 20.6398 30.8788 21.3037C30.2679 24.5467 27.4205 27 24 27C20.5795 27 17.7321 24.5467 17.1212 21.3037C13.8899 20.6398 10.8258 19.5174 8 18.0076V42C8 43.1046 8.89543 44 10 44H38C39.1046 44 40 43.1046 40 42V18.0076Z" fill="#B6C2CD"/>
<path d="M24 16L20 20L24 24L28 20L24 16Z" fill="#B6C2CD"/>
<path fill-rule="evenodd" clip-rule="evenodd" d="M40 13.3817C37.1155 15.2039 33.8988 16.5479 30.4613 17.3024C29.4051 14.7756 26.9099 13 24 13C21.0901 13 18.5949 14.7756 17.5387 17.3024C14.1012 16.5479 10.8845 15.2039 8 13.3817V18.0076C10.8258 19.5174 13.8899 20.6398 17.1212 21.3037C17.7321 24.5467 20.5795 27 24 27C27.4205 27 30.2679 24.5467 30.8788 21.3037C34.1101 20.6398 37.1742 19.5174 40 18.0076V13.3817ZM24 16L20 20L24 24L28 20L24 16Z" fill="#324558"/>
</svg>
