<svg width="48" height="48" viewBox="0 0 48 48" fill="none" xmlns="http://www.w3.org/2000/svg">
<path d="M13.0164 12.3655C15.8821 9.65917 19.7473 8 24 8C32.8366 8 40 15.1634 40 24H36.7662C35.9927 24 35.5135 24.8397 35.9029 25.5047L41.1637 34.2728C42.9646 31.2702 44 27.756 44 24C44 12.9543 35.0457 4 24 4C18.9986 4 14.426 5.8358 10.9193 8.87032L13.0164 12.3655Z" fill="#B6C2CD"/>
<path d="M6.8363 13.7273C6.83524 13.729 6.83419 13.7308 6.83313 13.7326C6.68839 13.9741 6.54859 14.2188 6.41389 14.4668C4.87444 17.3007 4 20.5482 4 24C4 35.0457 12.9543 44 24 44C29.0014 44 33.574 42.1642 37.0807 39.1297L34.9836 35.6345C32.1179 38.3408 28.2527 40 24 40C15.1634 40 8 32.8366 8 24L11.2338 24C12.0074 24 12.4867 23.16 12.0969 22.495L6.8363 13.7273Z" fill="#B6C2CD"/>
<path d="M29.2031 24.3047V26.5312H18.3633V24.3047H29.2031ZM29.2031 27.7031V29.918H18.3633V27.7031H29.2031ZM23.1445 24.457L26.1914 15.9375H30.3867L25.793 26.6719H23.6133L23.1445 24.457ZM21.8086 15.9375L24.9258 24.5625L24.4219 26.6719H22.2305L17.625 15.9375H21.8086ZM26.0156 24.1875V33H21.9141V24.1875H26.0156Z" fill="#324558"/>
</svg>
