<svg width="48" height="48" viewBox="0 0 48 48" fill="none" xmlns="http://www.w3.org/2000/svg">
<path fill-rule="evenodd" clip-rule="evenodd" d="M24 44C35.0457 44 44 35.0457 44 24C44 12.9543 35.0457 4 24 4C12.9543 4 4 12.9543 4 24C4 35.0457 12.9543 44 24 44ZM26.1981 15.47L24.0067 21.552L21.8153 15.47H17.62L21.2177 23.8372H18.3583V26.0637H21.9091V27.2356H18.3583V29.4504H21.9091V32.5325H26.0106V29.4504H29.1981V27.2356H26.0106V26.0637H29.1981V23.8372H26.7958L30.3817 15.47H26.1981Z" fill="#B6C2CD"/>
<path d="M24.0068 21.552L26.1982 15.47H30.3818L26.7959 23.8372H29.1982V26.0637H26.0107V27.2356H29.1982V29.4504H26.0107V32.5325H21.9092V29.4504H18.3584V27.2356H21.9092V26.0637H18.3584V23.8372H21.2178L17.6201 15.47H21.8154L24.0068 21.552Z" fill="#324558"/>
</svg>
