<svg width="48" height="48" viewBox="0 0 48 48" fill="none" xmlns="http://www.w3.org/2000/svg">
<path fill-rule="evenodd" clip-rule="evenodd" d="M27.4142 4.58579C27.7892 4.21071 28.2979 4 28.8284 4H42.9999C43.5522 4 43.9999 4.44772 43.9999 5V19.1716C43.9999 19.702 43.7892 20.2107 43.4142 20.5858L42.2792 21.7207C40.9391 21.2538 39.4992 21 37.9999 21C30.8202 21 24.9999 26.8203 24.9999 34C24.9999 35.4992 25.2537 36.9392 25.7207 38.2793L21.4142 42.5858C20.6331 43.3668 19.3668 43.3668 18.5857 42.5858L5.41415 29.4142C4.63311 28.6332 4.63311 27.3668 5.41416 26.5858L27.4142 4.58579ZM40 12C40 14.2091 38.2091 16 36 16C33.7909 16 32 14.2091 32 12C32 9.79086 33.7909 8 36 8C38.2091 8 40 9.79086 40 12Z" fill="#B6C2CD"/>
<path d="M36 16C38.2091 16 40 14.2091 40 12C40 9.79086 38.2091 8 36 8C33.7909 8 32 9.79086 32 12C32 14.2091 33.7909 16 36 16Z" fill="#324558"/>
<path fill-rule="evenodd" clip-rule="evenodd" d="M48 34C48 39.5228 43.5228 44 38 44C32.4772 44 28 39.5228 28 34C28 28.4772 32.4772 24 38 24C43.5228 24 48 28.4772 48 34ZM36.5 29V32.5H33V35.5H36.5V39H39.5V35.5H43V32.5H39.5V29H36.5Z" fill="#324558"/>
</svg>
