<svg width="48" height="48" viewBox="0 0 48 48" fill="none" xmlns="http://www.w3.org/2000/svg">
<path fill-rule="evenodd" clip-rule="evenodd" d="M28.8284 4C28.2979 4 27.7892 4.21071 27.4142 4.58579L5.41416 26.5858C4.63311 27.3668 4.63311 28.6332 5.41415 29.4142L18.5857 42.5858C19.3668 43.3668 20.6331 43.3668 21.4142 42.5858L43.4142 20.5858C43.7892 20.2107 43.9999 19.702 43.9999 19.1716V5C43.9999 4.44772 43.5522 4 42.9999 4H28.8284ZM39.9999 12C39.9999 14.2091 38.2091 16 35.9999 16C33.7908 16 31.9999 14.2091 31.9999 12C31.9999 9.79086 33.7908 8 35.9999 8C38.2091 8 39.9999 9.79086 39.9999 12Z" fill="#B6C2CD"/>
<path d="M35.9999 16C38.2091 16 39.9999 14.2091 39.9999 12C39.9999 9.79086 38.2091 8 35.9999 8C33.7908 8 31.9999 9.79086 31.9999 12C31.9999 14.2091 33.7908 16 35.9999 16Z" fill="#324558"/>
<path d="M33.5229 42.0783L24.3733 39.6267L40.5977 23.4022L35.9724 40.6641C35.6866 41.731 34.5899 42.3642 33.5229 42.0783Z" fill="#324558"/>
</svg>
