<svg width="48" height="48" viewBox="0 0 48 48" fill="none" xmlns="http://www.w3.org/2000/svg">
<path fill-rule="evenodd" clip-rule="evenodd" d="M24.6999 2.6855C24.3111 2.3047 23.6892 2.3047 23.3004 2.6855L17.8048 8.06825C17.6204 8.24881 17.3734 8.35112 17.1154 8.35379L9.42319 8.43363C8.87903 8.43927 8.43927 8.87903 8.43363 9.42319L8.35379 17.1154C8.35112 17.3734 8.24881 17.6204 8.06826 17.8048L2.6855 23.3004C2.3047 23.6892 2.3047 24.3111 2.6855 24.6999L8.06825 30.1955C8.24881 30.3799 8.35112 30.6269 8.35379 30.8849L8.43363 38.5771C8.43927 39.1213 8.87903 39.561 9.42319 39.5667L17.1154 39.6465C17.3734 39.6492 17.6204 39.7515 17.8048 39.932L23.3004 45.3148C23.6892 45.6956 24.3111 45.6956 24.6999 45.3148L30.1955 39.932C30.3799 39.7515 30.6269 39.6492 30.8849 39.6465L38.5771 39.5667C39.1213 39.561 39.561 39.1213 39.5667 38.5771L39.6465 30.8849C39.6492 30.6269 39.7515 30.3799 39.932 30.1955L45.3148 24.6999C45.6956 24.3111 45.6956 23.6892 45.3148 23.3004L39.932 17.8048C39.7515 17.6204 39.6492 17.3734 39.6465 17.1154L39.5667 9.42319C39.561 8.87903 39.1213 8.43927 38.5771 8.43363L30.8849 8.35379C30.6269 8.35112 30.3799 8.24881 30.1955 8.06826L24.6999 2.6855ZM21.3751 32.8151L35.9075 18.421L33.0927 15.5791L21.3751 27.1851L15.9075 21.7696L13.0927 24.6115L21.3751 32.8151Z" fill="#B6C2CD"/>
<path fill-rule="evenodd" clip-rule="evenodd" d="M35.9074 18.421L21.375 32.8151L13.0925 24.6115L15.9074 21.7696L21.375 27.1851L33.0925 15.5791L35.9074 18.421Z" fill="#324558"/>
</svg>
