<svg width="48" height="48" viewBox="0 0 48 48" fill="none" xmlns="http://www.w3.org/2000/svg">
<path fill-rule="evenodd" clip-rule="evenodd" d="M4.04063 12.4031C4.01399 12.2729 4 12.1381 4 12V38C4 39.1045 4.89543 40 6 40H42C43.1046 40 44 39.1045 44 38V14L6 14C5.0335 14 4.22713 13.3144 4.04063 12.4031ZM38 25C38 26.6569 36.6569 28 35 28C33.3431 28 32 26.6569 32 25C32 23.3431 33.3431 22 35 22C36.6569 22 38 23.3431 38 25Z" fill="#B6C2CD"/>
<path d="M4 11.9999C4 13.1045 4.89543 13.9999 6 13.9999H36V7.13981C36 6.53582 35.4687 6.06968 34.8698 6.14832L5.7396 9.97362C4.74423 10.1043 4 10.9527 4 11.9566V11.9999Z" fill="#324558"/>
<path d="M35 27.9999C36.6569 27.9999 38 26.6568 38 24.9999C38 23.3431 36.6569 21.9999 35 21.9999C33.3431 21.9999 32 23.3431 32 24.9999C32 26.6568 33.3431 27.9999 35 27.9999Z" fill="#324558"/>
</svg>
