<svg width="48" height="48" viewBox="0 0 48 48" fill="none" xmlns="http://www.w3.org/2000/svg">
<path d="M40.7606 5.19612C40.8843 4.57733 40.411 4 39.78 4L8.21958 4C7.58853 4 7.11524 4.57732 7.239 5.19612L9.99978 19L37.9998 19L40.7606 5.19612Z" fill="#B6C2CD"/>
<path fill-rule="evenodd" clip-rule="evenodd" d="M40.7606 42.8039L37.9998 29L9.99977 29L7.239 42.8039C7.11524 43.4227 7.58853 44 8.21958 44H39.78C40.411 44 40.8843 43.4227 40.7606 42.8039ZM11.879 40H36.1206L34.7206 33L13.279 33L11.879 40Z" fill="#B6C2CD"/>
<path d="M45 22V26L3 26L3 22L45 22Z" fill="#324558"/>
</svg>
