<svg width="48" height="48" viewBox="0 0 48 48" fill="none" xmlns="http://www.w3.org/2000/svg">
<path d="M8 6C6.89543 6 6 6.89543 6 8V16H16V6H8Z" fill="#B6C2CD"/>
<path d="M29 6H19V16H29V6Z" fill="#B6C2CD"/>
<path d="M32 6H40C41.1046 6 42 6.89543 42 8V16H32V6Z" fill="#B6C2CD"/>
<path d="M16 32H6V40C6 41.1046 6.89543 42 8 42H16V32Z" fill="#B6C2CD"/>
<path d="M19 32H29V42H19V32Z" fill="#B6C2CD"/>
<path d="M42 32H32V42H40C41.1046 42 42 41.1046 42 40V32Z" fill="#B6C2CD"/>
<path d="M6 19H16V29H6V19Z" fill="#324558"/>
<path d="M19 19H29V29H19V19Z" fill="#324558"/>
<path d="M42 19H32V29H42V19Z" fill="#324558"/>
</svg>
