<svg width="48" height="48" viewBox="0 0 48 48" fill="none" xmlns="http://www.w3.org/2000/svg">
<path d="M8 6C6.89543 6 6 6.89543 6 8V14C6 15.1046 6.89543 16 8 16H18C19.1046 16 20 15.1046 20 14V8C20 6.89543 19.1046 6 18 6H8Z" fill="#B6C2CD"/>
<path d="M42 9H24V13H42V9Z" fill="#B6C2CD"/>
<path d="M6 34C6 32.8954 6.89543 32 8 32H18C19.1046 32 20 32.8954 20 34V40C20 41.1046 19.1046 42 18 42H8C6.89543 42 6 41.1046 6 40V34Z" fill="#B6C2CD"/>
<path d="M42 35H24V39H42V35Z" fill="#B6C2CD"/>
<path d="M8 19C6.89543 19 6 19.8954 6 21V27C6 28.1046 6.89543 29 8 29H18C19.1046 29 20 28.1046 20 27V21C20 19.8954 19.1046 19 18 19H8Z" fill="#324558"/>
<path d="M42 22H24V26H42V22Z" fill="#324558"/>
</svg>
