<svg width="48" height="48" viewBox="0 0 48 48" fill="none" xmlns="http://www.w3.org/2000/svg">
<path d="M20.0003 4C23.8661 4 27 7.19005 27 11.1252C27 11.3866 26.9859 11.6479 26.9577 11.9077L26.5059 16.0692C26.1395 19.4451 23.3369 22 20.0003 22C16.6637 22 13.8612 19.4451 13.4947 16.0692L13.043 11.9077C12.6184 7.99641 15.3891 4.4753 19.2315 4.0431C19.4868 4.01439 19.7435 4 20.0003 4Z" fill="#324558"/>
<path d="M6 35.1865C6 29.1889 11 25 20 25C29 25 34 29.1889 34 35.1865V44H6V35.1865Z" fill="#324558"/>
<path d="M32 10H46V14H32V10Z" fill="#324558"/>
<path d="M34 22H46V26H34V22Z" fill="#324558"/>
<path d="M38 34H46V38H38V34Z" fill="#324558"/>
</svg>
