<svg width="48" height="48" viewBox="0 0 48 48" fill="none" xmlns="http://www.w3.org/2000/svg">
<path d="M24.0003 5C27.8661 5 31 8.03054 31 11.7689C31 12.0173 30.9859 12.2655 30.9577 12.5123L30.5059 16.4657C30.1395 19.6728 27.3369 22.1 24.0003 22.1C20.6637 22.1 17.8612 19.6728 17.4947 16.4657L17.043 12.5123C16.6184 8.79658 19.3891 5.45153 23.2315 5.04095C23.4868 5.01367 23.7435 5 24.0003 5Z" fill="#324558"/>
<path d="M10 34.6272C10 28.9294 15 24.95 24 24.95C33 24.95 38 28.9294 38 34.6272V43H10V34.6272Z" fill="#324558"/>
<path d="M14.0624 12.8529C13.9553 11.916 13.9863 10.9999 14.1385 10.1221C13.7717 10.0421 13.3909 10 13.0002 10C12.8046 10 12.6092 10.0108 12.4147 10.0323C9.48858 10.3565 7.37857 12.9973 7.7019 15.9308L8.04592 19.0519C8.32499 21.5839 10.4592 23.5 13.0002 23.5C14.4746 23.5 15.8121 22.8548 16.7296 21.8185C15.5375 20.4535 14.7345 18.7354 14.5141 16.8063L14.0624 12.8529Z" fill="#324558"/>
<path d="M46 40H41V34.6272C41 31.1264 39.5571 28.0581 36.9178 25.8324C42.7781 26.3552 46 29.3162 46 33.3899V40Z" fill="#324558"/>
<path d="M31.2709 21.8187C32.463 20.4536 33.2661 18.7355 33.4865 16.8063L33.9383 12.8529C33.9794 12.493 34 12.1311 34 11.7689C34 11.2066 33.952 10.6569 33.86 10.1232C34.0413 10.0837 34.2263 10.0532 34.4147 10.0323C34.6092 10.0108 34.8046 10 35.0002 10C37.9442 10 40.3307 12.3925 40.3307 15.3439C40.3307 15.54 40.32 15.7359 40.2985 15.9308L39.9545 19.0519C39.6754 21.5839 37.5412 23.5 35.0002 23.5C33.5258 23.5 32.1884 22.8549 31.2709 21.8187Z" fill="#324558"/>
<path d="M7 34.6272C7 31.1264 8.44285 28.0581 11.0822 25.8324C5.22191 26.3552 2 29.3162 2 33.3899V40H7V34.6272Z" fill="#324558"/>
</svg>
