<svg width="48" height="48" viewBox="0 0 48 48" fill="none" xmlns="http://www.w3.org/2000/svg">
<path fill-rule="evenodd" clip-rule="evenodd" d="M24 44C35.0457 44 44 35.0457 44 24C44 12.9543 35.0457 4 24 4C12.9543 4 4 12.9543 4 24C4 35.0457 12.9543 44 24 44ZM23.994 31.5921C19.3759 31.5921 15.5124 28.3614 14.5403 24.0369H33.4478C32.4756 28.3614 28.6121 31.5921 23.994 31.5921ZM15 16C15 14.8954 15.8954 14 17 14C18.1046 14 19 14.8954 19 16V18C19 19.1046 18.1046 20 17 20C15.8954 20 15 19.1046 15 18V16ZM31 14C29.8954 14 29 14.8954 29 16V18C29 19.1046 29.8954 20 31 20C32.1046 20 33 19.1046 33 18V16C33 14.8954 32.1046 14 31 14Z" fill="#324558"/>
</svg>
