<svg width="48" height="48" viewBox="0 0 48 48" fill="none" xmlns="http://www.w3.org/2000/svg">
<path fill-rule="evenodd" clip-rule="evenodd" d="M24.0001 4C34.6079 4 43.2869 12.2585 43.9583 22.6967C43.2826 22.4927 42.5838 22.316 41.9243 22.1663C40.93 21.9404 39.9933 21.7686 39.3072 21.6534C38.9633 21.5956 38.6803 21.5518 38.482 21.5221C38.3829 21.5073 38.3048 21.4961 38.2507 21.4884L38.188 21.4796L38.1708 21.4773L38.1634 21.4763L36.2136 21.2134L36.4775 23.1706L36.4798 23.1878L36.4886 23.2505C36.4963 23.3046 36.5075 23.3827 36.5223 23.4818C36.5519 23.6801 36.5958 23.9631 36.6536 24.307C36.6923 24.5379 36.7375 24.7972 36.789 25.0775C35.9709 24.7487 31.2763 23 23.9684 23C16.9965 23 12.406 24.2938 11.2887 24.6448C11.3094 24.5266 11.3287 24.4138 11.3466 24.307C11.4044 23.9631 11.4483 23.6801 11.4779 23.4818C11.4927 23.3827 11.5039 23.3046 11.5116 23.2505L11.5204 23.1878L11.5227 23.1706L11.7866 21.2134L9.82942 21.4773L9.81224 21.4796L9.7495 21.4884C9.69544 21.4961 9.61734 21.5073 9.51817 21.5221C9.31991 21.5518 9.03694 21.5956 8.69304 21.6534C8.00693 21.7686 7.07022 21.9404 6.07593 22.1663C5.41642 22.316 4.71756 22.4927 4.04187 22.6967C4.71329 12.2585 13.3923 4 24.0001 4ZM13.938 11.7352C13.2395 11.2898 12.3122 11.4949 11.8668 12.1934C11.4213 12.8919 11.6265 13.8192 12.325 14.2647L15.4863 16.2806L12.1897 17.6086C11.4213 17.9181 11.0493 18.792 11.3588 19.5604C11.6683 20.3288 12.5422 20.7008 13.3106 20.3913L19.3106 17.9743C19.8318 17.7644 20.1919 17.2808 20.2438 16.7213C20.2956 16.1619 20.0304 15.6204 19.5567 15.3183L13.938 11.7352ZM36.1335 12.1934C35.688 11.4949 34.7607 11.2898 34.0622 11.7352L28.4436 15.3183C27.9698 15.6204 27.7047 16.1619 27.7565 16.7213C27.8083 17.2808 28.1685 17.7644 28.6896 17.9743L34.6896 20.3913C35.458 20.7008 36.3319 20.3288 36.6414 19.5604C36.951 18.792 36.579 17.9181 35.8106 17.6086L32.514 16.2806L35.6753 14.2647C36.3738 13.8192 36.5789 12.8919 36.1335 12.1934Z" fill="#324558"/>
<path d="M23.9715 37.9104C30.8789 37.9104 36.5238 32.5045 36.9061 25.6926C36.9828 26.0824 37.0697 26.498 37.1664 26.9241C37.3909 27.9124 37.6758 28.9892 38.0224 29.9439C38.3476 30.8397 38.8024 31.8492 39.4619 32.5088C40.0434 33.0902 40.7194 33.5195 41.4405 33.7967C38.0122 39.8867 31.4865 44 24.0001 44C16.5137 44 9.98795 39.8867 6.55971 33.7967C7.28078 33.5196 7.95678 33.0902 8.53825 32.5088C9.19778 31.8492 9.65257 30.8397 9.9778 29.9439C10.3244 28.9892 10.6093 27.9124 10.8338 26.9241C10.9128 26.5762 10.9852 26.2353 11.0509 25.9097C11.5395 32.619 17.1375 37.9104 23.9715 37.9104Z" fill="#324558"/>
<path d="M6.74045 25.0918C7.25626 24.9746 7.7581 24.8725 8.21382 24.7863C8.12754 25.242 8.02548 25.7438 7.90832 26.2596C7.69745 27.188 7.44468 28.1303 7.15796 28.9201C6.84987 29.7687 6.57562 30.2288 6.41699 30.3875C5.36644 31.438 3.66317 31.438 2.61262 30.3875C1.56207 29.3369 1.56207 27.6336 2.61262 26.5831C2.77125 26.4244 3.23141 26.1502 4.08001 25.8421C4.86973 25.5554 5.81204 25.3026 6.74045 25.0918Z" fill="#324558"/>
<path d="M41.2599 25.0918C40.7441 24.9746 40.2422 24.8725 39.7865 24.7863C39.8728 25.242 39.9748 25.7438 40.092 26.2596C40.3029 27.188 40.5556 28.1303 40.8424 28.9201C41.1505 29.7687 41.4247 30.2288 41.5833 30.3875C42.6339 31.438 44.3372 31.438 45.3877 30.3875C46.4382 29.3369 46.4382 27.6336 45.3877 26.5831C45.2291 26.4244 44.7689 26.1502 43.9203 25.8421C43.1306 25.5554 42.1883 25.3026 41.2599 25.0918Z" fill="#324558"/>
</svg>
