<svg width="48" height="48" viewBox="0 0 48 48" fill="none" xmlns="http://www.w3.org/2000/svg">
<path fill-rule="evenodd" clip-rule="evenodd" d="M24 44C35.0457 44 44 35.0457 44 24C44 12.9543 35.0457 4 24 4C12.9543 4 4 12.9543 4 24C4 35.0457 12.9543 44 24 44ZM18.9146 31.1402C18.2478 31.6318 18.1058 32.5708 18.5973 33.2376C19.0889 33.9045 20.028 34.0465 20.6948 33.5549C21.5781 32.9037 22.7255 32.5 23.9974 32.5C25.2693 32.5 26.4167 32.9037 27.3 33.5549C27.9668 34.0465 28.9059 33.9045 29.3975 33.2376C29.889 32.5708 29.747 31.6318 29.0802 31.1402C27.6782 30.1067 25.9063 29.5 23.9974 29.5C22.0885 29.5 20.3166 30.1067 18.9146 31.1402ZM25.6084 24.6982C26.5027 27.8451 29.7613 29.7014 32.9323 28.8518C36.1032 28.0021 37.997 24.7652 37.1982 21.5928L34.2997 22.3694C34.6705 23.9412 33.7265 25.5334 32.1559 25.9542C30.5853 26.3751 28.9717 25.4682 28.5069 23.9216L25.6084 24.6982ZM15.0677 28.852C11.8967 28.0023 10.0028 24.7652 10.8019 21.5928L13.7003 22.3694C13.3295 23.9412 14.2735 25.5334 15.8441 25.9542C17.4147 26.3751 19.0283 25.4682 19.4931 23.9216L22.3916 24.6982C21.4974 27.8452 18.2388 29.7017 15.0677 28.852Z" fill="#324558"/>
</svg>
