<svg width="48" height="48" viewBox="0 0 48 48" fill="none" xmlns="http://www.w3.org/2000/svg">
<path fill-rule="evenodd" clip-rule="evenodd" d="M24 44C35.0457 44 44 35.0457 44 24C44 12.9543 35.0457 4 24 4C12.9543 4 4 12.9543 4 24C4 35.0457 12.9543 44 24 44ZM15.4017 32.853C16.8031 31.9623 19.8363 30.5928 23.6485 30.5928C26.6697 30.5928 29.3146 31.2238 30.9204 31.6678C31.7063 31.8851 32.4931 31.4288 32.6891 30.6373C32.8674 29.9173 32.4894 29.1751 31.7798 28.9594C29.8241 28.3648 26.6368 27.7236 23.6485 28.1253C18.7293 28.7865 16.3305 30.9356 15.0277 32.451C14.9867 32.4986 14.9651 32.5588 14.9651 32.6216C14.9651 32.8402 15.2172 32.9703 15.4017 32.853ZM15 18C15 16.8954 15.8954 16 17 16C18.1046 16 19 16.8954 19 18V20C19 21.1046 18.1046 22 17 22C15.8954 22 15 21.1046 15 20V18ZM31 16C29.8954 16 29 16.8954 29 18V20C29 21.1046 29.8954 22 31 22C32.1046 22 33 21.1046 33 20V18C33 16.8954 32.1046 16 31 16Z" fill="#324558"/>
</svg>
