<svg width="48" height="48" viewBox="0 0 48 48" fill="none" xmlns="http://www.w3.org/2000/svg">
<path fill-rule="evenodd" clip-rule="evenodd" d="M24 44C35.0457 44 44 35.0457 44 24C44 12.9543 35.0457 4 24 4C12.9543 4 4 12.9543 4 24C4 35.0457 12.9543 44 24 44ZM17 14C15.8954 14 15 14.8954 15 16V18C15 19.1046 15.8954 20 17 20C18.1046 20 19 19.1046 19 18V16C19 14.8954 18.1046 14 17 14ZM29 16C29 14.8954 29.8954 14 31 14C32.1046 14 33 14.8954 33 16V18C33 19.1046 32.1046 20 31 20C29.8954 20 29 19.1046 29 18V16ZM32.0369 32.2129C32.2186 33.0211 33.0212 33.529 33.8294 33.3472C34.6377 33.1655 35.1455 32.3629 34.9638 31.5547C33.8931 26.7935 29.3033 23.3838 24.0003 23.3838C18.6973 23.3838 14.1076 26.7935 13.0369 31.5547C12.8551 32.3629 13.363 33.1655 14.1712 33.3472C14.9795 33.529 15.782 33.0211 15.9638 32.2129C16.6894 28.9862 19.9237 26.3838 24.0003 26.3838C28.077 26.3838 31.3112 28.9862 32.0369 32.2129Z" fill="#324558"/>
</svg>
