<svg width="48" height="48" viewBox="0 0 48 48" fill="none" xmlns="http://www.w3.org/2000/svg">
<path fill-rule="evenodd" clip-rule="evenodd" d="M24 44C35.0457 44 44 35.0457 44 24C44 12.9543 35.0457 4 24 4C12.9543 4 4 12.9543 4 24C4 35.0457 12.9543 44 24 44ZM13.4293 7.07056L12.4046 12.7978L7.28369 15.0443L12.2085 17.969L12.7946 23.805L16.8631 19.8854L22.3462 21.2457L19.9359 15.8985L22.7385 10.9032L17.1804 11.5181L13.4293 7.07056ZM34.5706 7.07056L35.5954 12.7978L40.7163 15.0443L35.7915 17.969L35.2053 23.805L31.1369 19.8854L25.6537 21.2457L28.0641 15.8985L25.2615 10.9032L30.8196 11.5181L34.5706 7.07056ZM11.9693 26.8996L11.947 26.7614C11.947 26.7614 16.4776 25.1531 23.9684 25.1531C31.4593 25.1531 35.9935 27.1316 35.9935 27.1316L35.9778 27.214L36 27.2069C35.8732 33.7416 30.5363 38.9999 23.9713 38.9999C17.3267 38.9999 11.9402 33.6134 11.9402 26.9688L11.9404 26.8892L11.9693 26.8996Z" fill="#324558"/>
</svg>
