<svg width="48" height="48" viewBox="0 0 48 48" fill="none" xmlns="http://www.w3.org/2000/svg">
<path fill-rule="evenodd" clip-rule="evenodd" d="M24 44C35.0457 44 44 35.0457 44 24C44 12.9543 35.0457 4 24 4C12.9543 4 4 12.9543 4 24C4 35.0457 12.9543 44 24 44ZM31.0001 28C34.4292 28 37.1898 28.875 38.7106 30.3033C36.264 36.0058 30.5985 40 24.0001 40C23.3227 40 22.6552 39.9579 22.0001 39.8762V33.0792C22.0001 30.0886 25.7021 28 31.0001 28ZM19.0001 33.0792V39.2032C14.5813 37.7509 11.0122 34.4257 9.23169 30.1667C11.0588 28.216 14.7847 27 19.5001 27C20.5317 27 21.5159 27.0582 22.4433 27.1696C20.5282 28.4358 19.0001 30.4251 19.0001 33.0792ZM24.0001 19C24.0001 16.2458 21.7543 14 19.0001 14C16.2246 14 14.0001 16.2246 14.0001 19C14.0001 21.7542 16.2458 24 19.0001 24C21.7543 24 24.0001 21.7542 24.0001 19ZM35.0001 21.9999C35.0001 19.7823 33.2177 18 31.0001 18C28.7826 18 26.9795 19.7823 27.0002 21.9999C27.0002 24.2175 28.7826 25.9998 31.0001 25.9998C33.2177 25.9998 35.0001 24.2175 35.0001 21.9999Z" fill="#324558"/>
</svg>
