<svg width="48" height="48" viewBox="0 0 48 48" fill="none" xmlns="http://www.w3.org/2000/svg">
<path d="M20.0003 4C23.8661 4 27 7.19005 27 11.1252C27 11.3866 26.9859 11.6479 26.9577 11.9077L26.5059 16.0692C26.1395 19.4451 23.3369 22 20.0003 22C16.6637 22 13.8612 19.4451 13.4947 16.0692L13.043 11.9077C12.6184 7.99641 15.3891 4.4753 19.2315 4.0431C19.4868 4.01439 19.7435 4 20.0003 4Z" fill="#324558"/>
<path d="M6 35.1865C6 29.1889 11 25 20 25C29 25 34 29.1889 34 35.1865V44H6V35.1865Z" fill="#324558"/>
<path d="M34.8554 18.8623C34.5641 21.5456 32.5627 23.6526 30.0304 24.1083C28.8592 23.5112 27.5717 23.0417 26.1838 22.6988C27.9881 21.1433 29.2144 18.9175 29.4885 16.3929L29.9402 12.2315C29.9801 11.8641 30.0001 11.4947 30.0001 11.1251C30.0001 10.0453 29.832 9.00178 29.52 8.02148C32.7562 8.29046 35.3001 11.0491 35.3001 14.4126C35.3001 14.6479 35.2874 14.8831 35.262 15.1169L34.8554 18.8623Z" fill="#324558"/>
<path d="M42.0001 43.9999H37.0001V35.1865C37.0001 32.2866 36.0831 29.6513 34.3376 27.5153C39.3094 28.7926 42.0001 31.9585 42.0001 36.0678V43.9999Z" fill="#324558"/>
</svg>
