<svg width="48" height="48" viewBox="0 0 48 48" fill="none" xmlns="http://www.w3.org/2000/svg">
<path d="M31 11.1252C31 7.19005 27.8661 4 24.0003 4C23.7435 4 23.4868 4.01439 23.2315 4.0431C19.3891 4.4753 16.6184 7.99641 17.043 11.9077L17.4947 16.0692C17.8612 19.4451 20.6637 22 24.0003 22C27.3369 22 30.1395 19.4451 30.5059 16.0692L30.9577 11.9077C30.9859 11.6479 31 11.3866 31 11.1252Z" fill="#324558"/>
<path d="M24 25C13.9927 25 7 28.9684 7 34.6504V44H29.6929C26.8255 41.6154 25 38.0209 25 34C25 30.6401 26.2747 27.5779 28.3668 25.2705C26.9912 25.0929 25.5309 25 24 25Z" fill="#324558"/>
<path d="M34.0363 28.2295C35.1632 27.454 36.5286 27 38 27C41.866 27 45 30.134 45 34H42L45.7742 40.2903C47.1661 38.5722 48 36.3835 48 34C48 28.4772 43.5228 24 38 24C35.9641 24 34.0703 24.6084 32.4905 25.6533L34.0363 28.2295Z" fill="#324558"/>
<path d="M30.2258 27.7097C28.8339 29.4278 28 31.6165 28 34C28 39.5228 32.4772 44 38 44C40.0359 44 41.9297 43.3916 43.5095 42.3467L41.9637 39.7704C40.8368 40.546 39.4714 41 38 41C34.134 41 31 37.866 31 34.0001H34L30.2258 27.7097Z" fill="#324558"/>
</svg>
