<svg width="48" height="48" viewBox="0 0 48 48" fill="none" xmlns="http://www.w3.org/2000/svg">
<path d="M31 11.1252C31 7.19005 27.8661 4 24.0003 4C23.7435 4 23.4868 4.01439 23.2315 4.0431C19.3891 4.4753 16.6184 7.99641 17.043 11.9077L17.4947 16.0692C17.8612 19.4451 20.6637 22 24.0003 22C27.3369 22 30.1395 19.4451 30.5059 16.0692L30.9577 11.9077C30.9859 11.6479 31 11.3866 31 11.1252Z" fill="#324558"/>
<path d="M24 25C13.9927 25 7 28.9684 7 34.6504V44H27V37C27 34.2386 29.2386 32 32 32H33.279C33.2133 31.6271 33.1172 31.2128 32.9993 30.7047C32.9715 30.5849 32.9424 30.4598 32.9123 30.3287C32.7431 29.5932 32.5 28.5184 32.5 27.5C32.5 27.0446 32.5468 26.6001 32.636 26.1711C30.1632 25.4159 27.2396 25 24 25Z" fill="#324558"/>
<path d="M34.5012 35H32C30.8954 35 30 35.8954 30 37V40.5H48V37C48 35.8954 47.1046 35 46 35H43.4988C41.0026 34.6425 41.5602 32.2491 42.0845 29.9992C42.2949 29.096 42.5 28.216 42.5 27.5C42.5 25.567 40.933 24 39 24C37.067 24 35.5 25.567 35.5 27.5C35.5 28.216 35.7051 29.096 35.9155 29.9992C36.4398 32.2491 36.9974 34.6425 34.5012 35Z" fill="#324558"/>
<path d="M31 44V42H47V44H31Z" fill="#324558"/>
</svg>
