<svg width="48" height="48" viewBox="0 0 48 48" fill="none" xmlns="http://www.w3.org/2000/svg">
<path d="M31 11.1252C31 7.19005 27.8661 4 24.0003 4C23.7435 4 23.4868 4.01439 23.2315 4.0431C19.3891 4.4753 16.6184 7.99641 17.043 11.9077L17.4947 16.0692C17.8612 19.4451 20.6637 22 24.0003 22C27.3369 22 30.1395 19.4451 30.5059 16.0692L30.9577 11.9077C30.9859 11.6479 31 11.3866 31 11.1252Z" fill="#324558"/>
<path d="M24 25C13.9927 25 7 28.9684 7 34.6504V44H29.6929C26.8255 41.6154 25 38.0209 25 34C25 30.6401 26.2747 27.5779 28.3668 25.2705C26.9912 25.0929 25.5309 25 24 25Z" fill="#324558"/>
<path fill-rule="evenodd" clip-rule="evenodd" d="M38 44C43.5229 44 48 39.5229 48 34C48 28.4772 43.5229 24 38 24C32.4772 24 28 28.4772 28 34C28 39.5229 32.4772 44 38 44ZM38 41C41.866 41 45 37.866 45 34C45 32.6099 44.5948 31.3145 43.8961 30.2253L34.2253 39.8961C35.3145 40.5948 36.6099 41 38 41ZM41.7748 28.104L32.104 37.7748C31.4052 36.6856 31 35.3901 31 34C31 30.134 34.134 27 38 27C39.3901 27 40.6856 27.4052 41.7748 28.104Z" fill="#324558"/>
</svg>
