<svg width="48" height="48" viewBox="0 0 48 48" fill="none" xmlns="http://www.w3.org/2000/svg">
<path d="M32.4737 24C30.0029 24 28 26.0029 28 28.4737C28 30.9444 30.0029 32.9474 32.4737 32.9474H36.9474V28.4737C36.9474 26.0029 34.9444 24 32.4737 24Z" fill="#324558"/>
<path d="M32.4737 44C30.0029 44 28 41.9971 28 39.5263C28 37.0556 30.0029 35.0526 32.4737 35.0526H36.9474V39.5263C36.9474 41.9971 34.9444 44 32.4737 44Z" fill="#324558"/>
<path d="M48 28.4737C48 26.0029 45.9971 24 43.5263 24C41.0556 24 39.0526 26.0029 39.0526 28.4737V32.9474H43.5263C45.9971 32.9474 48 30.9444 48 28.4737Z" fill="#324558"/>
<path d="M43.5263 44C45.9971 44 48 41.9971 48 39.5263C48 37.0556 45.9971 35.0526 43.5263 35.0526H39.0526V39.5263C39.0526 41.9971 41.0556 44 43.5263 44Z" fill="#324558"/>
<path d="M24.0003 4C27.8661 4 31 7.19005 31 11.1252C31 11.3866 30.9859 11.6479 30.9577 11.9077L30.5059 16.0692C30.1395 19.4451 27.3369 22 24.0003 22C20.6637 22 17.8612 19.4451 17.4947 16.0692L17.043 11.9077C16.6184 7.99641 19.3891 4.4753 23.2315 4.0431C23.4868 4.01439 23.7435 4 24.0003 4Z" fill="#324558"/>
<path d="M7 34.6504C7 28.9684 13.9927 25 24 25C24.6223 25 25.2329 25.0153 25.8309 25.0455C25.2999 26.0723 25 27.238 25 28.4737C25 30.6634 25.9417 32.6331 27.4421 34C25.9417 35.3669 25 37.3366 25 39.5263C25 41.2041 25.5528 42.7527 26.4863 44H7V34.6504Z" fill="#324558"/>
</svg>
