<svg width="48" height="48" viewBox="0 0 48 48" fill="none" xmlns="http://www.w3.org/2000/svg">
<path d="M31 11.1252C31 7.19005 27.8661 4 24.0003 4C23.7435 4 23.4868 4.01439 23.2315 4.0431C19.3891 4.4753 16.6184 7.99641 17.043 11.9077L17.4947 16.0692C17.8612 19.4451 20.6637 22 24.0003 22C27.3369 22 30.1395 19.4451 30.5059 16.0692L30.9577 11.9077C30.9859 11.6479 31 11.3866 31 11.1252Z" fill="#324558"/>
<path d="M24 25C13.9927 25 7 28.9684 7 34.6504V44H29V29H32C32 27.9916 32.1866 27.0268 32.5271 26.1381C30.0775 25.4038 27.1921 25 24 25Z" fill="#324558"/>
<path fill-rule="evenodd" clip-rule="evenodd" d="M32 32H35V29C35 26.2386 37.2386 24 40 24C42.7614 24 45 26.2386 45 29V32H48V44H32V32ZM42 29V32H38V29C38 27.8954 38.8954 27 40 27C41.1046 27 42 27.8954 42 29Z" fill="#324558"/>
</svg>
