<svg width="48" height="48" viewBox="0 0 48 48" fill="none" xmlns="http://www.w3.org/2000/svg">
<path d="M31 11.1252C31 7.19005 27.8661 4 24.0003 4C23.7435 4 23.4868 4.01439 23.2315 4.0431C19.3891 4.4753 16.6184 7.99641 17.043 11.9077L17.4947 16.0692C17.8612 19.4451 20.6637 22 24.0003 22C27.3369 22 30.1395 19.4451 30.5059 16.0692L30.9577 11.9077C30.9859 11.6479 31 11.3866 31 11.1252Z" fill="#324558"/>
<path d="M24 25C13.9927 25 7 28.9684 7 34.6504V44H33.1506C32.8439 43.7449 32.5418 43.4737 32.2475 43.1864C29.9525 40.9463 28 37.5954 28 33.091V25.6568L28.7736 25.3259C27.2802 25.1122 25.6827 25 24 25Z" fill="#324558"/>
<path fill-rule="evenodd" clip-rule="evenodd" d="M39.5 24L31 27.6364V33.0909C31 40.2091 37.0813 43.5327 39.5 44C41.9187 43.5327 48 40.2091 48 33.0909V27.6364L39.5 24ZM46.0939 31.0259L38.4371 39.1932L33.9053 34.3593L36.0939 32.3075L38.4371 34.8069L43.9053 28.9741L46.0939 31.0259Z" fill="#324558"/>
</svg>
