<svg width="48" height="48" viewBox="0 0 48 48" fill="none" xmlns="http://www.w3.org/2000/svg">
<path d="M8 8V16H4V6C4 4.89543 4.89543 4 6 4H16V8H8Z" fill="#324558"/>
<path d="M4 42V32H8V40H16V44H6C4.89543 44 4 43.1046 4 42Z" fill="#324558"/>
<path d="M32 44H42C43.1046 44 44 43.1046 44 42V32H40V40H32V44Z" fill="#324558"/>
<path d="M44 16H40V8H32V4H42C43.1046 4 44 4.89543 44 6V16Z" fill="#324558"/>
<path d="M24.0001 11C26.3196 11 28.1999 12.914 28.1999 15.2751C28.1999 15.432 28.1914 15.5887 28.1745 15.7446L27.9035 18.2415C27.6836 20.2671 26.0021 21.8 24.0001 21.8C21.9981 21.8 20.3166 20.2671 20.0967 18.2415L19.8257 15.7446C19.5709 13.3978 21.2334 11.2852 23.5388 11.0259C23.692 11.0086 23.846 11 24.0001 11Z" fill="#324558"/>
<path d="M13.7998 29.3903C13.7998 25.9811 17.9954 23.6 23.9998 23.6C30.0042 23.6 34.1998 25.9811 34.1998 29.3903V35H13.7998V29.3903Z" fill="#324558"/>
</svg>
