<svg width="48" height="48" viewBox="0 0 48 48" fill="none" xmlns="http://www.w3.org/2000/svg">
<path fill-rule="evenodd" clip-rule="evenodd" d="M4 10C4 8.89543 4.89543 8 6 8H42C43.1046 8 44 8.89543 44 10V38C44 39.1046 43.1046 40 42 40H6C4.89543 40 4 39.1046 4 38V10ZM30 16H38V19H30V16ZM38 23H30V26H38V23ZM10 30C10 27.7909 11.7909 26 14 26H22C24.2091 26 26 27.7909 26 30V33H10V30ZM18 23C20.2091 23 22 21.2091 22 19C22 16.7909 20.2091 15 18 15C15.7909 15 14 16.7909 14 19C14 21.2091 15.7909 23 18 23Z" fill="#324558"/>
</svg>
