<svg width="48" height="48" viewBox="0 0 48 48" fill="none" xmlns="http://www.w3.org/2000/svg">
<path d="M11 6.77495C11 5.40984 12.3374 4.4459 13.6325 4.87759L20 7.0001L34.5419 3.57847C35.7973 3.28308 37 4.23561 37 5.52531V18.0001L42 18.0001C43.1046 18.0001 44 18.8956 44 20.0001V24.0001H4V20.0001C4 19.9311 4.0035 19.8629 4.01033 19.7956C4.05855 19.3208 4.27288 18.8951 4.59429 18.5775C4.95553 18.2205 5.45202 18.0001 6 18.0001H11V6.77495Z" fill="#324558"/>
<path fill-rule="evenodd" clip-rule="evenodd" d="M4 35.5001C4 40.1945 7.80558 44.0001 12.5 44.0001C17.1944 44.0001 21 40.1945 21 35.5001C21 34.8719 20.9319 34.2596 20.8025 33.6702C21.7919 33.2367 22.871 33.0001 24.0001 33.0001C25.129 33.0001 26.2081 33.2367 27.1975 33.6702C27.0682 34.2596 27 34.8719 27 35.5001C27 40.1945 30.8056 44.0001 35.5 44.0001C40.1944 44.0001 44 40.1945 44 35.5001C44 30.8057 40.1944 27.0001 35.5 27.0001C32.8679 27.0001 30.5153 28.1965 28.9561 30.075C27.4391 29.385 25.763 29.0001 24.0001 29.0001C22.2371 29.0001 20.561 29.385 19.0439 30.0751C17.4848 28.1965 15.1321 27.0001 12.5 27.0001C7.80558 27.0001 4 30.8057 4 35.5001ZM12.5 40.0001C14.9853 40.0001 17 37.9854 17 35.5001C17 33.0148 14.9853 31.0001 12.5 31.0001C10.0147 31.0001 8 33.0148 8 35.5001C8 37.9854 10.0147 40.0001 12.5 40.0001ZM35.5 40.0001C37.9853 40.0001 40 37.9854 40 35.5001C40 33.0148 37.9853 31.0001 35.5 31.0001C33.0147 31.0001 31 33.0148 31 35.5001C31 37.9854 33.0147 40.0001 35.5 40.0001Z" fill="#324558"/>
</svg>
