<svg width="160" height="32" viewBox="0 0 160 32" fill="none" xmlns="http://www.w3.org/2000/svg">
<path fill-rule="evenodd" clip-rule="evenodd" d="M14.6425 0L0.766357 8.006V24.06L14.6425 32V19.886L7.96516 16.034L14.6425 12.182V0ZM18.1432 1.97823L25.2361 6.07023L18.1432 10.1622V1.97823ZM25.2365 25.9966L18.1436 30.0906V21.9066L25.2365 25.9966ZM28.55 24.0302L14.6918 16.0342L28.55 8.04022V24.0302Z" fill="#15A675"/>
<path d="M42.7516 17.4459L40.5318 19.9306V23.832H37.932V8.57514H40.5318V16.3998L47.4513 8.57514H50.371L44.4915 15.3972L50.731 23.832H47.6912L42.7516 17.4459Z" fill="#324458"/>
<path d="M61.5489 12.1932V23.832H59.1691V22.3499C58.7691 22.873 58.2692 23.2799 57.6692 23.5705C57.0693 23.8466 56.4227 23.9846 55.7294 23.9846C54.3028 23.9846 53.1762 23.556 52.3496 22.6987C51.5364 21.8269 51.1297 20.5409 51.1297 18.8409V12.1932H53.6295V18.4703C53.6295 19.5165 53.8429 20.3012 54.2695 20.8243C54.7095 21.3328 55.3294 21.5871 56.1293 21.5871C57.0226 21.5871 57.7292 21.2892 58.2492 20.6935C58.7825 20.0832 59.0491 19.2114 59.0491 18.078V12.1932H61.5489Z" fill="#324458"/>
<path d="M70.0415 12.0624C71.0815 12.0624 72.0081 12.3095 72.8213 12.8035C73.6479 13.2975 74.2946 13.995 74.7612 14.8959C75.2278 15.7967 75.4611 16.8357 75.4611 18.0126C75.4611 19.1896 75.2278 20.2358 74.7612 21.1512C74.2946 22.0521 73.6479 22.7495 72.8213 23.2436C72.0081 23.7376 71.0815 23.9846 70.0415 23.9846C69.3083 23.9846 68.635 23.8466 68.0217 23.5705C67.4217 23.2944 66.9151 22.8803 66.5018 22.3282V23.832H64.122V7.65973H66.6218V13.6099C67.0484 13.1014 67.5484 12.7163 68.1217 12.4548C68.7083 12.1932 69.3483 12.0624 70.0415 12.0624ZM69.7616 21.6525C70.6815 21.6525 71.4348 21.3183 72.0214 20.6499C72.6213 19.9815 72.9213 19.1024 72.9213 18.0126C72.9213 16.9228 72.6213 16.0438 72.0214 15.3754C71.4348 14.707 70.6815 14.3728 69.7616 14.3728C69.1616 14.3728 68.6217 14.5253 68.1417 14.8305C67.6617 15.1211 67.2818 15.5425 67.0018 16.0946C66.7218 16.6468 66.5818 17.2861 66.5818 18.0126C66.5818 18.7391 66.7218 19.3785 67.0018 19.9306C67.2818 20.4828 67.6617 20.9114 68.1417 21.2166C68.6217 21.5072 69.1616 21.6525 69.7616 21.6525Z" fill="#324458"/>
<path d="M87.1712 18.078C87.1712 18.2669 87.1578 18.5357 87.1312 18.8844H78.7518C78.8985 19.7417 79.2784 20.4247 79.8917 20.9332C80.5183 21.4273 81.2916 21.6743 82.2115 21.6743C83.3848 21.6743 84.3514 21.2529 85.1113 20.4101L86.4512 22.0884C85.9712 22.7132 85.3646 23.1854 84.6313 23.5051C83.8981 23.8248 83.0715 23.9846 82.1515 23.9846C80.9783 23.9846 79.945 23.7303 79.0518 23.2218C78.1585 22.7132 77.4652 22.0085 76.9719 21.1076C76.492 20.1922 76.252 19.1605 76.252 18.0126C76.252 16.8793 76.4853 15.8621 76.952 14.9612C77.4319 14.0458 78.0919 13.3338 78.9318 12.8253C79.7717 12.3167 80.7183 12.0624 81.7716 12.0624C82.8115 12.0624 83.7381 12.3167 84.5514 12.8253C85.378 13.3193 86.0179 14.024 86.4712 14.9394C86.9378 15.8403 87.1712 16.8865 87.1712 18.078ZM81.7716 14.242C80.9716 14.242 80.2917 14.5035 79.7317 15.0266C79.1851 15.5352 78.8518 16.2181 78.7318 17.0754H84.7913C84.6847 16.2327 84.358 15.5497 83.8114 15.0266C83.2648 14.5035 82.5848 14.242 81.7716 14.242Z" fill="#324458"/>
<path d="M93.5331 8.57514H99.6526C101.146 8.57514 102.472 8.89481 103.632 9.53415C104.792 10.159 105.692 11.0526 106.332 12.215C106.972 13.3629 107.292 14.6924 107.292 16.2036C107.292 17.7148 106.972 19.0515 106.332 20.214C105.692 21.3619 104.792 22.2555 103.632 22.8948C102.472 23.5196 101.146 23.832 99.6526 23.832H93.5331V8.57514ZM99.5326 21.4345C100.559 21.4345 101.459 21.2238 102.232 20.8025C103.019 20.3665 103.619 19.7563 104.032 18.9716C104.459 18.1725 104.672 17.2498 104.672 16.2036C104.672 15.1574 104.459 14.242 104.032 13.4574C103.619 12.6582 103.019 12.0479 102.232 11.6265C101.459 11.1906 100.559 10.9727 99.5326 10.9727H96.1329V21.4345H99.5326Z" fill="#324458"/>
<path d="M119.155 18.078C119.155 18.2669 119.141 18.5357 119.115 18.8844H110.735C110.882 19.7417 111.262 20.4247 111.875 20.9332C112.502 21.4273 113.275 21.6743 114.195 21.6743C115.368 21.6743 116.335 21.2529 117.095 20.4101L118.435 22.0884C117.955 22.7132 117.348 23.1854 116.615 23.5051C115.881 23.8248 115.055 23.9846 114.135 23.9846C112.962 23.9846 111.928 23.7303 111.035 23.2218C110.142 22.7132 109.449 22.0085 108.955 21.1076C108.475 20.1922 108.235 19.1605 108.235 18.0126C108.235 16.8793 108.469 15.8621 108.935 14.9612C109.415 14.0458 110.075 13.3338 110.915 12.8253C111.755 12.3167 112.702 12.0624 113.755 12.0624C114.795 12.0624 115.721 12.3167 116.535 12.8253C117.361 13.3193 118.001 14.024 118.455 14.9394C118.921 15.8403 119.155 16.8865 119.155 18.078ZM113.755 14.242C112.955 14.242 112.275 14.5035 111.715 15.0266C111.168 15.5352 110.835 16.2181 110.715 17.0754H116.775C116.668 16.2327 116.341 15.5497 115.795 15.0266C115.248 14.5035 114.568 14.242 113.755 14.242Z" fill="#324458"/>
<path d="M124.156 23.9846C123.289 23.9846 122.442 23.8611 121.616 23.6141C120.789 23.3671 120.129 23.0547 119.636 22.6769L120.596 20.6063C121.076 20.955 121.649 21.2384 122.316 21.4563C122.996 21.6598 123.662 21.7615 124.316 21.7615C125.809 21.7615 126.555 21.3328 126.555 20.4755C126.555 20.0687 126.362 19.7853 125.975 19.6255C125.602 19.4657 124.995 19.3131 124.156 19.1678C123.276 19.0225 122.556 18.8554 121.996 18.6665C121.449 18.4776 120.969 18.1507 120.556 17.6857C120.156 17.2062 119.956 16.5451 119.956 15.7023C119.956 14.598 120.376 13.7189 121.216 13.065C122.069 12.3966 123.216 12.0624 124.656 12.0624C125.389 12.0624 126.122 12.1569 126.855 12.3458C127.589 12.5201 128.189 12.7599 128.655 13.065L127.695 15.1356C126.789 14.5544 125.769 14.2638 124.636 14.2638C123.902 14.2638 123.342 14.3873 122.956 14.6343C122.582 14.8668 122.396 15.1792 122.396 15.5715C122.396 16.0074 122.596 16.3198 122.996 16.5087C123.409 16.6831 124.042 16.8502 124.895 17.01C125.749 17.1553 126.449 17.3224 126.995 17.5113C127.542 17.7002 128.009 18.0199 128.395 18.4703C128.795 18.9208 128.995 19.5601 128.995 20.3883C128.995 21.4781 128.562 22.3499 127.695 23.0038C126.829 23.6577 125.649 23.9846 124.156 23.9846Z" fill="#324458"/>
<path d="M130.448 12.1932H132.948V23.832H130.448V12.1932ZM131.708 10.2752C131.255 10.2752 130.875 10.1226 130.568 9.81749C130.261 9.49782 130.108 9.1055 130.108 8.64053C130.108 8.17556 130.261 7.7905 130.568 7.48536C130.875 7.16569 131.255 7.00586 131.708 7.00586C132.161 7.00586 132.541 7.15843 132.848 7.46357C133.154 7.75417 133.308 8.1247 133.308 8.57514C133.308 9.05464 133.154 9.46149 132.848 9.79569C132.555 10.1154 132.175 10.2752 131.708 10.2752Z" fill="#324458"/>
<path d="M146.128 12.1932V22.0666C146.128 26.1642 144.208 28.213 140.369 28.213C139.342 28.213 138.369 28.0677 137.449 27.777C136.529 27.501 135.769 27.0941 135.169 26.5565L136.289 24.5077C136.755 24.9291 137.342 25.2633 138.049 25.5103C138.769 25.7719 139.495 25.9026 140.229 25.9026C141.402 25.9026 142.262 25.612 142.808 25.0308C143.355 24.4496 143.628 23.5632 143.628 22.3717V21.7615C143.202 22.27 142.682 22.6551 142.068 22.9166C141.455 23.1782 140.782 23.309 140.049 23.309C139.035 23.309 138.115 23.0765 137.289 22.6115C136.475 22.132 135.829 21.4636 135.349 20.6063C134.882 19.749 134.649 18.7682 134.649 17.6639C134.649 16.5596 134.882 15.5861 135.349 14.7433C135.829 13.886 136.475 13.2249 137.289 12.7599C138.115 12.2949 139.035 12.0624 140.049 12.0624C140.822 12.0624 141.522 12.2005 142.148 12.4765C142.788 12.7526 143.322 13.174 143.748 13.7407V12.1932H146.128ZM140.429 20.9986C141.375 20.9986 142.148 20.6935 142.748 20.0832C143.362 19.4584 143.668 18.652 143.668 17.6639C143.668 16.6904 143.362 15.8985 142.748 15.2882C142.148 14.6779 141.375 14.3728 140.429 14.3728C139.469 14.3728 138.682 14.6779 138.069 15.2882C137.469 15.8985 137.169 16.6904 137.169 17.6639C137.169 18.652 137.469 19.4584 138.069 20.0832C138.682 20.6935 139.469 20.9986 140.429 20.9986Z" fill="#324458"/>
<path d="M154.774 12.0624C156.121 12.0624 157.201 12.4911 158.014 13.3484C158.827 14.2057 159.234 15.4771 159.234 17.1626V23.832H156.734V17.5113C156.734 16.4942 156.514 15.7314 156.074 15.2228C155.634 14.6997 155.007 14.4382 154.194 14.4382C153.274 14.4382 152.548 14.7433 152.014 15.3536C151.481 15.9493 151.214 16.8139 151.214 17.9472V23.832H148.715V12.1932H151.094V13.6971C151.508 13.1595 152.028 12.7526 152.654 12.4765C153.281 12.2005 153.988 12.0624 154.774 12.0624Z" fill="#324458"/>
</svg>
