<svg width="48" height="48" viewBox="0 0 48 48" fill="none" xmlns="http://www.w3.org/2000/svg">
<path fill-rule="evenodd" clip-rule="evenodd" d="M24 44C35.0457 44 44 35.0457 44 24C44 12.9543 35.0457 4 24 4C12.9543 4 4 12.9543 4 24C4 35.0457 12.9543 44 24 44ZM14.5858 30.5857L21.1715 24L14.5858 17.4143L17.4142 14.5859L23.9999 21.1716L30.5858 14.5857L33.4142 17.4141L26.8284 24L33.4142 30.5859L30.5858 33.4143L23.9999 26.8284L17.4142 33.4141L14.5858 30.5857Z" fill="#B6C2CD"/>
<path d="M21.1715 24L14.5858 30.5857L17.4142 33.4141L23.9999 26.8284L30.5858 33.4143L33.4142 30.5859L26.8284 24L33.4142 17.4141L30.5858 14.5857L23.9999 21.1716L17.4142 14.5859L14.5858 17.4143L21.1715 24Z" fill="#324558"/>
</svg>
