<svg width="48" height="48" viewBox="0 0 48 48" fill="none" xmlns="http://www.w3.org/2000/svg">
<path fill-rule="evenodd" clip-rule="evenodd" d="M8 6C6.89543 6 6 6.89543 6 8V40C6 41.1046 6.89543 42 8 42H40C41.1046 42 42 41.1046 42 40V8C42 6.89543 41.1046 6 40 6H8ZM14.5859 17.4142L21.1718 24.0001L14.5859 30.5859L17.4144 33.4143L24.0002 26.8285L30.5859 33.4142L33.4144 30.5858L26.8286 24.0001L33.4144 17.4143L30.5859 14.5859L24.0002 21.1716L17.4144 14.5858L14.5859 17.4142Z" fill="#B6C2CD"/>
<path d="M21.1718 24.0001L14.5859 17.4142L17.4144 14.5858L24.0002 21.1716L30.5859 14.5859L33.4144 17.4143L26.8286 24.0001L33.4144 30.5858L30.5859 33.4142L24.0002 26.8285L17.4144 33.4143L14.5859 30.5859L21.1718 24.0001Z" fill="#324558"/>
</svg>
