<svg width="48" height="48" viewBox="0 0 48 48" fill="none" xmlns="http://www.w3.org/2000/svg">
<path fill-rule="evenodd" clip-rule="evenodd" d="M19 13C17.8954 13 17 13.8954 17 15V42C17 43.1046 17.8954 44 19 44H40C41.1046 44 42 43.1046 42 42V15C42 13.8954 41.1046 13 40 13H19ZM31.5 30H27.5L27 20H32L31.5 30ZM27.5 33H31.5V37H27.5V33Z" fill="#B6C2CD"/>
<path d="M6 6C6 4.89543 6.89543 4 8 4H26C27.1046 4 28 4.89543 28 6V13H19C17.8954 13 17 13.8954 17 15V34H8C6.89543 34 6 33.1046 6 32V6Z" fill="#324558"/>
<path d="M31.5 30H27.5L27 20H32L31.5 30Z" fill="#324558"/>
<path d="M27.5 33H31.5V37H27.5V33Z" fill="#324558"/>
</svg>
