<svg width="48" height="48" viewBox="0 0 48 48" fill="none" xmlns="http://www.w3.org/2000/svg">
<path fill-rule="evenodd" clip-rule="evenodd" d="M19 13C17.8954 13 17 13.8954 17 15V42C17 43.1046 17.8954 44 19 44H40C41.1046 44 42 43.1046 42 42V15C42 13.8954 41.1046 13 40 13H19ZM22.5853 32.8995L26.8277 28.657L22.585 24.4143L25.4134 21.5858L29.6562 25.8286L33.899 21.5858L36.7274 24.4142L32.4846 28.657L36.7271 32.8995L33.8987 35.728L29.6562 31.4855L25.4137 35.728L22.5853 32.8995Z" fill="#B6C2CD"/>
<path d="M6 6C6 4.89543 6.89543 4 8 4H26C27.1046 4 28 4.89543 28 6V13H19C17.8954 13 17 13.8954 17 15V34H8C6.89543 34 6 33.1046 6 32V6Z" fill="#324558"/>
<path d="M22.5853 32.8995L26.8277 28.657L22.585 24.4143L25.4134 21.5858L29.6562 25.8286L33.899 21.5858L36.7274 24.4142L32.4846 28.657L36.7271 32.8995L33.8987 35.728L29.6562 31.4855L25.4137 35.728L22.5853 32.8995Z" fill="#324558"/>
</svg>
