<svg width="48" height="48" viewBox="0 0 48 48" fill="none" xmlns="http://www.w3.org/2000/svg">
<path fill-rule="evenodd" clip-rule="evenodd" d="M19 13C17.8954 13 17 13.8954 17 15V42C17 43.1046 17.8954 44 19 44H40C41.1046 44 42 43.1046 42 42V15C42 13.8954 41.1046 13 40 13H19ZM27.8126 35.7997L38.3997 25.4287L35.6006 22.5713L27.8126 30.2003L24.3997 26.857L21.6006 29.7144L27.8126 35.7997Z" fill="#B6C2CD"/>
<path d="M6 6C6 4.89543 6.89543 4 8 4H26C27.1046 4 28 4.89543 28 6V13H19C17.8954 13 17 13.8954 17 15V34H8C6.89543 34 6 33.1046 6 32V6Z" fill="#324558"/>
<path d="M27.8126 35.7997L38.3997 25.4287L35.6006 22.5713L27.8126 30.2003L24.3997 26.857L21.6006 29.7144L27.8126 35.7997Z" fill="#324558"/>
</svg>
