<svg width="48" height="48" viewBox="0 0 48 48" fill="none" xmlns="http://www.w3.org/2000/svg">
<path d="M26.5351 8H6V12H26.5351C26.1948 11.4117 26 10.7286 26 10C26 9.27143 26.1948 8.58835 26.5351 8Z" fill="#B6C2CD"/>
<path d="M33.4649 12C33.8052 11.4117 34 10.7286 34 10C34 9.27143 33.8052 8.58835 33.4649 8H42V12H33.4649Z" fill="#B6C2CD"/>
<path d="M14.5351 22H6V26H14.5351C14.1948 25.4117 14 24.7286 14 24C14 23.2714 14.1948 22.5883 14.5351 22Z" fill="#B6C2CD"/>
<path d="M21.4649 26C21.8052 25.4117 22 24.7286 22 24C22 23.2714 21.8052 22.5883 21.4649 22H42V26H21.4649Z" fill="#B6C2CD"/>
<path d="M26.5351 36H6V40H26.5351C26.1948 39.4117 26 38.7286 26 38C26 37.2714 26.1948 36.5883 26.5351 36Z" fill="#B6C2CD"/>
<path d="M33.4649 40C33.8052 39.4117 34 38.7286 34 38C34 37.2714 33.8052 36.5883 33.4649 36H42V40H33.4649Z" fill="#B6C2CD"/>
<path d="M26 10C26 7.79086 27.7909 6 30 6C32.2091 6 34 7.79086 34 10C34 12.2091 32.2091 14 30 14C27.7909 14 26 12.2091 26 10Z" fill="#324558"/>
<path d="M14 24C14 21.7909 15.7909 20 18 20C20.2091 20 22 21.7909 22 24C22 26.2091 20.2091 28 18 28C15.7909 28 14 26.2091 14 24Z" fill="#324558"/>
<path d="M30 34C27.7909 34 26 35.7909 26 38C26 40.2091 27.7909 42 30 42C32.2091 42 34 40.2091 34 38C34 35.7909 32.2091 34 30 34Z" fill="#324558"/>
</svg>
