<svg width="48" height="48" viewBox="0 0 48 48" fill="none" xmlns="http://www.w3.org/2000/svg">
<path d="M22 18V28H26V18H40C41.1046 18 42 18.8954 42 20V42C42 43.1046 41.1046 44 40 44H8C6.89543 44 6 43.1046 6 42V20C6 18.8954 6.89543 18 8 18H22Z" fill="#B6C2CD"/>
<path d="M24.7433 2.82591C24.3461 2.38453 23.654 2.38453 23.2567 2.82591L16.5021 10.3311C15.9229 10.9746 16.3796 12 17.2454 12L22 12V28H26V12L30.7546 12C31.6204 12 32.0771 10.9746 31.4979 10.3311L24.7433 2.82591Z" fill="#324558"/>
</svg>
