<svg width="48" height="48" viewBox="0 0 48 48" fill="none" xmlns="http://www.w3.org/2000/svg">
<path d="M22.7576 15H13.9351L21 22.5556V37.5128C21 38.223 21.7196 38.7068 22.3773 38.4389L26.3773 36.8092C26.7538 36.6558 27 36.2897 27 35.8832V22.5556L28.601 20.8434L22.7576 15Z" fill="#B6C2CD"/>
<path d="M34.0649 15L32.7012 16.4585L31.2427 15H34.0649Z" fill="#B6C2CD"/>
<path d="M16.0003 8.24255L18.1215 6.12134L35.0921 23.0918L32.9708 25.2131L22.7576 14.9999H13.9351L13.2696 14.2882C13.0964 14.103 13 13.8588 13 13.6052V11.9999C13 11.4476 13.4477 10.9999 14 10.9999H18.7576L16.0003 8.24255Z" fill="#324558"/>
<path d="M34.0649 15H31.2427L27.2427 11H34C34.5523 11 35 11.4477 35 12V13.6053C35 13.8589 34.9036 14.1031 34.7304 14.2883L34.0649 15Z" fill="#324558"/>
</svg>
