<svg width="48" height="48" viewBox="0 0 48 48" fill="none" xmlns="http://www.w3.org/2000/svg">
<path d="M8 12L20 24V44.382C20 45.1253 20.7823 45.6088 21.4472 45.2764L26.8944 42.5528C27.572 42.214 28 41.5215 28 40.7639V24L30.5252 21.4748L21.0504 12H8Z" fill="#B6C2CD"/>
<path d="M40 12H30.9497L35.4749 16.5251L40 12Z" fill="#B6C2CD"/>
<path d="M14.8285 0.119995L12.0002 2.94832L15.0504 5.99856H7C6.44772 5.99856 6 6.44627 6 6.99856V9.17013C6 9.70056 6.21071 10.2093 6.58579 10.5844L8 11.9986H21.0504L37.456 28.4042L40.2845 25.5758L14.8285 0.119995Z" fill="#324558"/>
<path d="M30.9497 11.9987H40L41.4142 10.5845C41.7893 10.2094 42 9.70066 42 9.17023V6.99866C42 6.44637 41.5523 5.99866 41 5.99866H24.9497L30.9497 11.9987Z" fill="#324558"/>
</svg>
