<svg width="48" height="48" viewBox="0 0 48 48" fill="none" xmlns="http://www.w3.org/2000/svg">
<path fill-rule="evenodd" clip-rule="evenodd" d="M8 6C6.89543 6 6 6.89543 6 8V40C6 41.1046 6.89543 42 8 42H40C41.1046 42 42 41.1046 42 40V8C42 6.89543 41.1046 6 40 6H8ZM22.55 33.1332L24 34.5L25.45 33.1436L25.4895 33.1065C30.6174 28.2815 34 25.0987 34 21.1948C34 18.0057 31.58 15.5 28.5 15.5C26.76 15.5 25.09 16.3387 24 17.664C22.91 16.3387 21.24 15.5 19.5 15.5C16.42 15.5 14 18.0057 14 21.1948C14 25.1055 17.3944 28.2926 22.5373 33.1213L22.55 33.1332Z" fill="#B6C2CD"/>
<path d="M24 34.5L22.55 33.1332C17.4 28.2978 14 25.1087 14 21.1948C14 18.0057 16.42 15.5 19.5 15.5C21.24 15.5 22.91 16.3387 24 17.664C25.09 16.3387 26.76 15.5 28.5 15.5C31.58 15.5 34 18.0057 34 21.1948C34 25.1087 30.6 28.2978 25.45 33.1436L24 34.5Z" fill="#324558"/>
</svg>
