<svg width="48" height="48" viewBox="0 0 48 48" fill="none" xmlns="http://www.w3.org/2000/svg">
<path fill-rule="evenodd" clip-rule="evenodd" d="M24 44C35.0457 44 44 35.0457 44 24C44 12.9543 35.0457 4 24 4C12.9543 4 4 12.9543 4 24C4 35.0457 12.9543 44 24 44ZM22.55 32.6332L24 34L25.45 32.6436L25.4895 32.6065C30.6174 27.7815 34 24.5987 34 20.6948C34 17.5057 31.58 15 28.5 15C26.76 15 25.09 15.8387 24 17.164C22.91 15.8387 21.24 15 19.5 15C16.42 15 14 17.5057 14 20.6948C14 24.6055 17.3944 27.7926 22.5373 32.6213L22.55 32.6332Z" fill="#B6C2CD"/>
<path d="M24 34L22.55 32.6332C17.4 27.7978 14 24.6087 14 20.6948C14 17.5057 16.42 15 19.5 15C21.24 15 22.91 15.8387 24 17.164C25.09 15.8387 26.76 15 28.5 15C31.58 15 34 17.5057 34 20.6948C34 24.6087 30.6 27.7978 25.45 32.6436L24 34Z" fill="#324558"/>
</svg>
