<svg width="48" height="48" viewBox="0 0 48 48" fill="none" xmlns="http://www.w3.org/2000/svg">
<path fill-rule="evenodd" clip-rule="evenodd" d="M8 6C6.89543 6 6 6.89543 6 8V40C6 41.1046 6.89543 42 8 42H40C41.1046 42 42 41.1046 42 40V8C42 6.89543 41.1046 6 40 6H8ZM17 24C17 25.6569 15.6569 27 14 27C12.3431 27 11 25.6569 11 24C11 22.3431 12.3431 21 14 21C15.6569 21 17 22.3431 17 24ZM27 24C27 25.6569 25.6569 27 24 27C22.3431 27 21 25.6569 21 24C21 22.3431 22.3431 21 24 21C25.6569 21 27 22.3431 27 24ZM37 24C37 25.6569 35.6569 27 34 27C32.3431 27 31 25.6569 31 24C31 22.3431 32.3431 21 34 21C35.6569 21 37 22.3431 37 24Z" fill="#B6C2CD"/>
<path d="M17 24C17 25.6569 15.6569 27 14 27C12.3431 27 11 25.6569 11 24C11 22.3431 12.3431 21 14 21C15.6569 21 17 22.3431 17 24Z" fill="#324558"/>
<path d="M27 24C27 25.6569 25.6569 27 24 27C22.3431 27 21 25.6569 21 24C21 22.3431 22.3431 21 24 21C25.6569 21 27 22.3431 27 24Z" fill="#324558"/>
<path d="M34 27C35.6569 27 37 25.6569 37 24C37 22.3431 35.6569 21 34 21C32.3431 21 31 22.3431 31 24C31 25.6569 32.3431 27 34 27Z" fill="#324558"/>
</svg>
