<svg width="48" height="48" viewBox="0 0 48 48" fill="none" xmlns="http://www.w3.org/2000/svg">
<path d="M12.9811 7.30655L15.0417 10.741C17.5978 9.01065 20.6809 8 24 8C32.8366 8 40 15.1634 40 24H44C44 12.9543 35.0457 4 24 4C19.9282 4 16.1407 5.21678 12.9811 7.30655Z" fill="#B6C2CD"/>
<path d="M4 24C4 19.233 5.66774 14.8556 8.45159 11.4193L10.6797 15.1329C10.6797 15.1329 10.6798 15.1329 10.6797 15.1329L8.45159 11.4193C5.66774 14.8556 4 19.233 4 24C4 24 4 24 4 24Z" fill="#B6C2CD"/>
<path d="M8 24.0001C8.00006 32.8366 15.1635 40 24 40C27.3191 40 30.4022 38.9893 32.9583 37.259L35.0189 40.6934C31.8593 42.7832 28.0718 44 24 44C12.9543 44 4.00006 35.0456 4 24L8 24.0001Z" fill="#B6C2CD"/>
<path d="M15.0913 22.4856L8.45159 11.4194C5.66774 14.8557 4 19.2332 4 24.0001H14.2338C15.0111 24.0001 15.4912 23.1521 15.0913 22.4856Z" fill="#324558"/>
<path d="M44 24C44 28.767 42.3323 33.1444 39.5484 36.5807L32.9087 25.5145C32.5088 24.848 32.9889 24 33.7662 24H44Z" fill="#324558"/>
</svg>
