<svg width="48" height="48" viewBox="0 0 48 48" fill="none" xmlns="http://www.w3.org/2000/svg">
<path fill-rule="evenodd" clip-rule="evenodd" d="M8 6C6.89543 6 6 6.89543 6 8V40C6 41.1046 6.89543 42 8 42H40C41.1046 42 42 41.1046 42 40V8C42 6.89543 41.1046 6 40 6H8ZM31 16L24 22V18C20.134 18 17 21.134 17 25C17 28.866 20.134 32 24 32C27.866 32 31 28.866 31 25H35C35 31.0751 30.0751 36 24 36C17.9249 36 13 31.0751 13 25C13 18.9249 17.9249 14 24 14V10L31 16Z" fill="#B6C2CD"/>
<path d="M24 22L31 16L24 10V14C17.9249 14 13 18.9249 13 25C13 31.0751 17.9249 36 24 36C30.0751 36 35 31.0751 35 25H31C31 28.866 27.866 32 24 32C20.134 32 17 28.866 17 25C17 21.134 20.134 18 24 18V22Z" fill="#324558"/>
</svg>
