<svg width="48" height="48" viewBox="0 0 48 48" fill="none" xmlns="http://www.w3.org/2000/svg">
<path fill-rule="evenodd" clip-rule="evenodd" d="M24 44C35.0457 44 44 35.0457 44 24C44 12.9543 35.0457 4 24 4C12.9543 4 4 12.9543 4 24C4 35.0457 12.9543 44 24 44ZM36.6575 8.51416C37.6917 9.36049 38.6396 10.3084 39.4859 11.3426L29.4153 21.4132C29.7901 22.1965 30 23.0737 30 24C30 27.3137 27.3137 30 24 30C20.6863 30 18 27.3137 18 24C18 20.6863 20.6863 18 24 18C24.9263 18 25.8036 18.2099 26.5869 18.5848L36.6575 8.51416Z" fill="#B6C2CD"/>
<path d="M39.4859 11.3426C38.6396 10.3084 37.6917 9.36049 36.6575 8.51416L26.5869 18.5848C25.8036 18.2099 24.9263 18 24 18C20.6863 18 18 20.6863 18 24C18 27.3137 20.6863 30 24 30C27.3137 30 30 27.3137 30 24C30 23.0737 29.7901 22.1965 29.4153 21.4132L39.4859 11.3426Z" fill="#324558"/>
</svg>
