<svg width="48" height="48" viewBox="0 0 48 48" fill="none" xmlns="http://www.w3.org/2000/svg">
<path d="M44 12C44 16.4183 40.4183 20 36 20C31.5817 20 28 16.4183 28 12C28 7.58172 31.5817 4 36 4C40.4183 4 44 7.58172 44 12Z" fill="#B6C2CD"/>
<path d="M44 36C44 40.4183 40.4183 44 36 44C31.5817 44 28 40.4183 28 36C28 31.5817 31.5817 28 36 28C40.4183 28 44 31.5817 44 36Z" fill="#B6C2CD"/>
<path d="M12 32C16.4183 32 20 28.4183 20 24C20 19.5817 16.4183 16 12 16C7.58172 16 4 19.5817 4 24C4 28.4183 7.58172 32 12 32Z" fill="#B6C2CD"/>
<path d="M18.0339 18.747C18.9083 19.7505 19.5364 20.9743 19.8242 22.324L29.9661 17.253C29.0917 16.2495 28.4636 15.0258 28.1759 13.676L18.0339 18.747Z" fill="#324558"/>
<path d="M19.8242 25.676C19.5364 27.0258 18.9083 28.2495 18.0339 29.253L28.1758 34.324C28.4636 32.9743 29.0917 31.7505 29.9661 30.747L19.8242 25.676Z" fill="#324558"/>
</svg>
