<svg width="48" height="48" viewBox="0 0 48 48" fill="none" xmlns="http://www.w3.org/2000/svg">
<path fill-rule="evenodd" clip-rule="evenodd" d="M8 6C6.89543 6 6 6.89543 6 8V40C6 41.1046 6.89543 42 8 42H40C41.1046 42 42 41.1046 42 40V8C42 6.89543 41.1046 6 40 6H8ZM22 11H26V25H22V11ZM19 14.0881C14.8689 15.9841 12 20.1571 12 25C12 31.6275 17.3726 37 24 37C30.6274 37 36 31.6275 36 25C36 20.1571 33.1311 15.9841 29 14.0881V18.7547C30.8289 20.2208 32 22.4737 32 25C32 29.4183 28.4183 33 24 33C19.5817 33 16 29.4183 16 25C16 22.4737 17.1711 20.2208 19 18.7547V14.0881Z" fill="#B6C2CD"/>
<path d="M26 11H22V25H26V11Z" fill="#324558"/>
<path d="M12 25.0001C12 20.1571 14.8689 15.9841 19 14.0881V18.7547C17.1711 20.2208 16 22.4737 16 25.0001C16 29.4183 19.5817 33 24 33C28.4183 33 32 29.4183 32 25.0001C32 22.4737 30.8289 20.2208 29 18.7547V14.0881C33.1311 15.9841 36 20.1571 36 25.0001C36 31.6275 30.6274 37 24 37C17.3726 37 12 31.6275 12 25.0001Z" fill="#324558"/>
</svg>
