<svg width="48" height="48" viewBox="0 0 48 48" fill="none" xmlns="http://www.w3.org/2000/svg">
<path fill-rule="evenodd" clip-rule="evenodd" d="M24 44C35.0457 44 44 35.0457 44 24C44 12.9543 35.0457 4 24 4C12.9543 4 4 12.9543 4 24C4 35.0457 12.9543 44 24 44ZM22 24V10H26V24H22ZM19 13.0881C14.8689 14.9841 12 19.1571 12 24C12 30.6275 17.3726 36 24 36C30.6274 36 36 30.6275 36 24C36 19.1571 33.1311 14.9841 29 13.0881V17.7547C30.8289 19.2208 32 21.4737 32 24C32 28.4183 28.4183 32 24 32C19.5817 32 16 28.4183 16 24C16 21.4737 17.1711 19.2208 19 17.7547V13.0881Z" fill="#B6C2CD"/>
<path d="M26 10H22V24H26V10Z" fill="#324558"/>
<path d="M12 24.0001C12 19.1571 14.8689 14.9841 19 13.0881V17.7547C17.1711 19.2208 16 21.4737 16 24.0001C16 28.4183 19.5817 32 24 32C28.4183 32 32 28.4183 32 24.0001C32 21.4737 30.8289 19.2208 29 17.7547V13.0881C33.1311 14.9841 36 19.1571 36 24.0001C36 30.6275 30.6274 36 24 36C17.3726 36 12 30.6275 12 24.0001Z" fill="#324558"/>
</svg>
