<svg width="48" height="48" viewBox="0 0 48 48" fill="none" xmlns="http://www.w3.org/2000/svg">
<path fill-rule="evenodd" clip-rule="evenodd" d="M8 6C6.89543 6 6 6.89543 6 8V40C6 41.1046 6.89543 42 8 42H40C41.1046 42 42 41.1046 42 40V8C42 6.89543 41.1046 6 40 6H8ZM27.3992 19.9128L24 13L20.6008 19.9128L13 21.0213L18.5 26.4021L17.2016 34L24 30.4128L30.7984 34L29.5 26.4021L35 21.0213L27.3992 19.9128Z" fill="#B6C2CD"/>
<path d="M24 13L27.3992 19.9128L35 21.0213L29.5 26.4021L30.7984 34L24 30.4128L17.2016 34L18.5 26.4021L13 21.0213L20.6008 19.9128L24 13Z" fill="#324558"/>
</svg>
