<svg width="48" height="48" viewBox="0 0 48 48" fill="none" xmlns="http://www.w3.org/2000/svg">
<path fill-rule="evenodd" clip-rule="evenodd" d="M8 6C6.89543 6 6 6.89543 6 8V40C6 41.1046 6.89543 42 8 42H40C41.1046 42 42 41.1046 42 40V8C42 6.89543 41.1046 6 40 6H8ZM19.0716 16.8281L21.9001 13.9996L31.7992 23.8995L21.8997 33.799L19.0713 30.9705L26.1427 23.8991L19.0716 16.8281Z" fill="#B6C2CD"/>
<path d="M21.9001 13.9996L19.0716 16.8281L26.1427 23.8991L19.0713 30.9705L21.8997 33.799L31.7992 23.8995L21.9001 13.9996Z" fill="#324558"/>
</svg>
