<svg width="48" height="48" viewBox="0 0 48 48" fill="none" xmlns="http://www.w3.org/2000/svg">
<path fill-rule="evenodd" clip-rule="evenodd" d="M8 6C6.89543 6 6 6.89543 6 8V40C6 41.1046 6.89543 42 8 42H40C41.1046 42 42 41.1046 42 40V8C42 6.89543 41.1046 6 40 6H8ZM16.8284 28.7284L14 25.9L23.8998 16.0009L33.7993 25.9003L30.9709 28.7288L23.8995 21.6574L16.8284 28.7284Z" fill="#B6C2CD"/>
<path d="M14 25.9L16.8284 28.7284L23.8995 21.6574L30.9709 28.7288L33.7993 25.9003L23.8998 16.0009L14 25.9Z" fill="#324558"/>
</svg>
