<svg width="48" height="48" viewBox="0 0 48 48" fill="none" xmlns="http://www.w3.org/2000/svg">
<path d="M14 10C8.47715 10 4 14.4772 4 20V28H8V20C8 16.6863 10.6863 14 14 14H26V10H14Z" fill="#B6C2CD"/>
<path d="M34 38C39.5228 38 44 33.5228 44 28V20H40V28C40 31.3137 37.3137 34 34 34H22V38H34Z" fill="#B6C2CD"/>
<path d="M36.9333 11.2C37.4667 11.6 37.4667 12.4 36.9333 12.8L27.6 19.8C26.9408 20.2944 26 19.824 26 19V4.99998C26 4.17594 26.9408 3.70556 27.6 4.19998L36.9333 11.2Z" fill="#324558"/>
<path d="M11.067 35.2C10.5337 35.6 10.5337 36.4 11.067 36.8L20.4003 43.8C21.0596 44.2944 22.0003 43.824 22.0003 43L22.0003 29C22.0003 28.1759 21.0596 27.7056 20.4003 28.2L11.067 35.2Z" fill="#324558"/>
</svg>
