<svg width="28" height="28" viewBox="0 0 28 28" fill="none" xmlns="http://www.w3.org/2000/svg">
<path fill-rule="evenodd" clip-rule="evenodd" d="M11.1673 6.5C10.7071 6.5 10.334 6.8731 10.334 7.33333V20.6667C10.334 21.1269 10.7071 21.5 11.1673 21.5L20.6667 21.5C21.1269 21.5 21.5 21.1269 21.5 20.6667V7.33335C21.5 6.87312 21.1269 6.50002 20.6667 6.50002L11.1673 6.5ZM19.8334 8.16669H12.0103V19.8334H19.8334V8.16669Z" fill="#B6C2CD"/>
<path fill-rule="evenodd" clip-rule="evenodd" d="M14.7672 11.0114C14.9622 10.8178 15.2769 10.8178 15.4718 11.0114L17.7593 13.2827C18.1579 13.6785 18.1579 14.3215 17.7593 14.7173L15.4718 16.9886C15.2769 17.1822 14.9622 17.1822 14.7672 16.9886L14.2805 16.5053C14.186 16.4114 14.1328 16.2837 14.1328 16.1505C14.1328 16.0173 14.186 15.8896 14.2805 15.7957L16.089 14L14.2805 12.2043C14.186 12.1104 14.1328 11.9827 14.1328 11.8495C14.1328 11.7163 14.186 11.5886 14.2805 11.4947L14.7672 11.0114Z" fill="#324558"/>
<rect x="6.57617" y="6.70215" width="2.02734" height="14.5957" rx="0.5" fill="#B6C2CD"/>
</svg>
