<svg width="20" height="20" viewBox="0 0 20 20" fill="none" xmlns="http://www.w3.org/2000/svg">
<path fill-rule="evenodd" clip-rule="evenodd" d="M3.33333 2.5C2.8731 2.5 2.5 2.8731 2.5 3.33333V16.6667C2.5 17.1269 2.8731 17.5 3.33333 17.5H16.6667C17.1269 17.5 17.5 17.1269 17.5 16.6667V3.33333C17.5 2.8731 17.1269 2.5 16.6667 2.5H3.33333ZM15.8333 4.16667H8.01029V15.8333H15.8333V4.16667Z" fill="#B6C2CD"/>
<path fill-rule="evenodd" clip-rule="evenodd" d="M13.4242 7.01238C13.2292 6.81879 12.9145 6.81879 12.7196 7.01238L10.4321 9.28371C10.0335 9.67944 10.0335 10.3225 10.4321 10.7182L12.7196 12.9896C12.9145 13.1832 13.2292 13.1832 13.4242 12.9896L13.9109 12.5063C14.0054 12.4124 14.0586 12.2847 14.0586 12.1515C14.0586 12.0183 14.0054 11.8905 13.9109 11.7967L12.1024 10.001L13.9109 8.20528C14.0054 8.11141 14.0586 7.9837 14.0586 7.85047C14.0586 7.71725 14.0054 7.58954 13.9109 7.49567L13.4242 7.01238Z" fill="#324558"/>
</svg>
