<svg width="24" height="24" viewBox="0 0 24 24" fill="none" xmlns="http://www.w3.org/2000/svg">
<path d="M21.3442 4.65027H14.3442V6.65027H21.3442V4.65027Z" fill="#B6C2CD"/>
<path d="M21.3442 10.9996H12.3442V12.9996H21.3442V10.9996Z" fill="#B6C2CD"/>
<path d="M14.3442 17.3152H21.3442V19.3152H14.3442V17.3152Z" fill="#B6C2CD"/>
<path fill-rule="evenodd" clip-rule="evenodd" d="M6.1027 9.86726C6.51679 10.3105 7.19537 10.3105 7.60946 9.86726L11.3845 5.8265L10.2854 4.65002L6.85608 8.32071L3.42676 4.65002L2.32764 5.8265L6.1027 9.86726Z" fill="#324558"/>
<path fill-rule="evenodd" clip-rule="evenodd" d="M6.1027 14.0976C6.51679 13.6543 7.19537 13.6543 7.60946 14.0976L11.3845 18.1383L10.2854 19.3148L6.85608 15.6441L3.42676 19.3148L2.32764 18.1383L6.1027 14.0976Z" fill="#324558"/>
</svg>
