<svg width="28" height="28" viewBox="0 0 28 28" fill="none" xmlns="http://www.w3.org/2000/svg">
<path fill-rule="evenodd" clip-rule="evenodd" d="M7.33333 6.5C6.8731 6.5 6.5 6.8731 6.5 7.33333V20.6667C6.5 21.1269 6.8731 21.5 7.33333 21.5H20.6667C21.1269 21.5 21.5 21.1269 21.5 20.6667V7.33333C21.5 6.8731 21.1269 6.5 20.6667 6.5H7.33333ZM19.8333 8.16667H12.0103V19.8333H19.8333V8.16667Z" fill="#B6C2CD"/>
<path fill-rule="evenodd" clip-rule="evenodd" d="M17.4242 11.0114C17.2292 10.8178 16.9145 10.8178 16.7196 11.0114L14.4321 13.2827C14.0335 13.6785 14.0335 14.3215 14.4321 14.7173L16.7196 16.9886C16.9145 17.1822 17.2292 17.1822 17.4242 16.9886L17.9109 16.5053C18.0054 16.4114 18.0586 16.2837 18.0586 16.1505C18.0586 16.0173 18.0054 15.8896 17.9109 15.7957L16.1024 14L17.9109 12.2043C18.0054 12.1104 18.0586 11.9827 18.0586 11.8495C18.0586 11.7163 18.0054 11.5886 17.9109 11.4947L17.4242 11.0114Z" fill="#324558"/>
</svg>
