<svg width="20" height="20" viewBox="0 0 20 20" fill="none" xmlns="http://www.w3.org/2000/svg">
<path fill-rule="evenodd" clip-rule="evenodd" d="M7.16732 2.5C6.70708 2.5 6.33398 2.8731 6.33398 3.33333V16.6667C6.33398 17.1269 6.70708 17.5 7.16732 17.5L16.6667 17.5C17.1269 17.5 17.5 17.1269 17.5 16.6667V3.33335C17.5 2.87312 17.1269 2.50002 16.6667 2.50002L7.16732 2.5ZM15.8334 4.16669H8.01034V15.8334H15.8334V4.16669Z" fill="#B6C2CD"/>
<path fill-rule="evenodd" clip-rule="evenodd" d="M10.7672 7.01238C10.9622 6.81879 11.2769 6.81879 11.4718 7.01238L13.7593 9.28371C14.1579 9.67944 14.1579 10.3225 13.7593 10.7182L11.4718 12.9896C11.2769 13.1832 10.9622 13.1832 10.7672 12.9896L10.2805 12.5063C10.186 12.4124 10.1328 12.2847 10.1328 12.1515C10.1328 12.0183 10.186 11.8905 10.2805 11.7967L12.089 10.001L10.2805 8.20528C10.186 8.11141 10.1328 7.9837 10.1328 7.85047C10.1328 7.71725 10.186 7.58954 10.2805 7.49567L10.7672 7.01238Z" fill="#324558"/>
<rect x="2.57617" y="2.70312" width="2.02734" height="14.5957" rx="0.5" fill="#B6C2CD"/>
</svg>
