<svg width="48" height="48" viewBox="0 0 48 48" fill="none" xmlns="http://www.w3.org/2000/svg">
<path d="M10.5859 13.4141L13.4144 10.5857L21.4144 18.5858L18.586 21.4142L10.5859 13.4141Z" fill="#B6C2CD"/>
<path d="M34.586 10.586L26.5863 18.5858L29.4147 21.4142L37.4145 13.4145L34.586 10.586Z" fill="#B6C2CD"/>
<path d="M34.586 37.4139L26.5863 29.4142L29.4147 26.5858L37.4145 34.5855L34.586 37.4139Z" fill="#B6C2CD"/>
<path d="M13.4144 37.4143L21.4144 29.4142L18.586 26.5858L10.5859 34.5858L13.4144 37.4143Z" fill="#B6C2CD"/>
<path d="M15.5858 6H7C6.44771 6 6 6.44772 6 7V15.5858C6 16.4767 7.07714 16.9229 7.70711 16.2929L16.2929 7.70711C16.9229 7.07714 16.4767 6 15.5858 6Z" fill="#324558"/>
<path d="M32.4141 6H40.9999C41.5522 6 41.9999 6.44772 41.9999 7V15.5858C41.9999 16.4767 40.9228 16.9229 40.2928 16.2929L31.707 7.70711C31.077 7.07714 31.5232 6 32.4141 6Z" fill="#324558"/>
<path d="M40.9999 42H32.4141C31.5232 42 31.077 40.9229 31.707 40.2929L40.2928 31.7071C40.9228 31.0771 41.9999 31.5233 41.9999 32.4142V41C41.9999 41.5523 41.5522 42 40.9999 42Z" fill="#324558"/>
<path d="M15.5858 42H7C6.44771 42 6 41.5523 6 41V32.4142C6 31.5233 7.07714 31.0771 7.70711 31.7071L16.2929 40.2929C16.9229 40.9229 16.4767 42 15.5858 42Z" fill="#324558"/>
</svg>
