<svg width="48" height="48" viewBox="0 0 48 48" fill="none" xmlns="http://www.w3.org/2000/svg">
<path d="M12.5858 15.4141L15.4142 12.5857L6.41436 3.58582L3.58594 6.41424L12.5858 15.4141Z" fill="#B6C2CD"/>
<path d="M32.586 12.586L35.4144 15.4145L44.4147 6.41424L41.5862 3.58582L32.586 12.586Z" fill="#B6C2CD"/>
<path d="M35.4145 32.5855L32.586 35.414L41.5862 44.4142L44.4147 41.5858L35.4145 32.5855Z" fill="#B6C2CD"/>
<path d="M12.5858 32.5859L3.58594 41.5858L6.41436 44.4142L15.4142 35.4143L12.5858 32.5859Z" fill="#B6C2CD"/>
<path d="M18.9999 20H10.4141C9.52321 20 9.07704 18.9229 9.70701 18.2929L18.2928 9.70713C18.9228 9.07716 19.9999 9.52333 19.9999 10.4142V19C19.9999 19.5523 19.5522 20 18.9999 20Z" fill="#324558"/>
<path d="M10.4141 28H18.9999C19.5522 28 19.9999 28.4477 19.9999 29V37.5858C19.9999 38.4767 18.9228 38.9229 18.2928 38.2929L9.70701 29.7071C9.07704 29.0771 9.52321 28 10.4141 28Z" fill="#324558"/>
<path d="M37.5858 28H29C28.4477 28 28 28.4477 28 29V37.5858C28 38.4767 29.0771 38.9229 29.7071 38.2929L38.2929 29.7071C38.9229 29.0771 38.4767 28 37.5858 28Z" fill="#324558"/>
<path d="M37.5858 20H29C28.4477 20 28 19.5523 28 19V10.4142C28 9.52333 29.0771 9.07716 29.7071 9.70713L38.2929 18.2929C38.9229 18.9229 38.4767 20 37.5858 20Z" fill="#324558"/>
</svg>
