<svg width="24" height="24" viewBox="0 0 24 24" fill="none" xmlns="http://www.w3.org/2000/svg">
<path d="M21.3442 4.65027H14.3442V6.65027H21.3442V4.65027Z" fill="#B6C2CD"/>
<path d="M21.3442 10.9996H12.3442V12.9996H21.3442V10.9996Z" fill="#B6C2CD"/>
<path d="M14.3442 17.3152H21.3442V19.3152H14.3442V17.3152Z" fill="#B6C2CD"/>
<path fill-rule="evenodd" clip-rule="evenodd" d="M6.1027 4.98296C6.51679 4.53972 7.19537 4.53972 7.60946 4.98296L11.3845 9.02372L10.2854 10.2002L6.85608 6.52951L3.42676 10.2002L2.32764 9.02372L6.1027 4.98296Z" fill="#324558"/>
<path fill-rule="evenodd" clip-rule="evenodd" d="M6.1027 18.983C6.51679 19.4262 7.19537 19.4262 7.60946 18.983L11.3845 14.9422L10.2854 13.7658L6.85608 17.4365L3.42676 13.7658L2.32764 14.9422L6.1027 18.983Z" fill="#324558"/>
</svg>
