<svg width="48" height="48" viewBox="0 0 48 48" fill="none" xmlns="http://www.w3.org/2000/svg">
<path d="M42.9333 14.2C43.4667 14.6 43.4667 15.4 42.9333 15.8L33.6 22.8C32.9408 23.2944 32 22.824 32 22V17H6V13H32V7.99998C32 7.17594 32.9408 6.70556 33.6 7.19998L42.9333 14.2Z" fill="#B6C2CD"/>
<path d="M5.06699 32.2C4.53366 32.6 4.53366 33.4 5.06699 33.8L14.4003 40.8C15.0596 41.2944 16.0003 40.824 16.0003 40V35H42V31H16.0003V26C16.0003 25.1759 15.0596 24.7056 14.4003 25.2L5.06699 32.2Z" fill="#324558"/>
</svg>
