<svg width="48" height="48" viewBox="0 0 48 48" fill="none" xmlns="http://www.w3.org/2000/svg">
<path d="M10 6H14V42H10V36H6V32H10V26H6V22H10V16H6V12H10V6Z" fill="#324558"/>
<path d="M29.5 25.2732C30.9782 25.2732 32.1765 24.0623 32.1765 22.5687C32.1765 21.075 30.9782 19.8641 29.5 19.8641C28.0219 19.8641 26.8236 21.075 26.8236 22.5687C26.8236 24.0623 28.0219 25.2732 29.5 25.2732Z" fill="#324558"/>
<path fill-rule="evenodd" clip-rule="evenodd" d="M17 6H40C41.1046 6 42 6.89543 42 8V40C42 41.1046 41.1046 42 40 42H17V6ZM29.5 33C29.6806 33 36 26.7174 36 22.6522C36 18.9783 33.0899 16 29.5 16C25.9101 16 23 18.9783 23 22.6522C23 26.7174 29.3194 33 29.5 33Z" fill="#324558"/>
</svg>
