<svg width="48" height="48" viewBox="0 0 48 48" fill="none" xmlns="http://www.w3.org/2000/svg">
<path d="M21.3137 26.1053C21.3137 24.5994 22.5164 23.3786 24 23.3786C25.4836 23.3786 26.6863 24.5994 26.6863 26.1053C26.6863 27.6112 25.4836 28.832 24 28.832C22.5164 28.832 21.3137 27.6112 21.3137 26.1053Z" fill="#324558"/>
<path fill-rule="evenodd" clip-rule="evenodd" d="M12.1085 6C11.4189 6 10.778 6.35524 10.4125 6.94L6 14V40C6 41.1046 6.89543 42 8 42H40C41.1046 42 42 41.1046 42 40V14L37.5875 6.94C37.222 6.35524 36.5811 6 35.8915 6H12.1085ZM37.5 14H10.5L13 10H35L37.5 14ZM31 26.1053C31 22.1811 27.866 19 24 19C20.134 19 17 22.1811 17 26.1053C17 28.113 18.3743 30.7187 21.1228 33.9226L21.6376 34.5117C22.1677 35.1074 22.7431 35.7229 23.364 36.3582L24 37L24.636 36.3582C25.2569 35.7229 25.8323 35.1074 26.3624 34.5117L26.8772 33.9226C29.6257 30.7187 31 28.113 31 26.1053Z" fill="#324558"/>
</svg>
