<svg width="48" height="48" viewBox="0 0 48 48" fill="none" xmlns="http://www.w3.org/2000/svg">
<path d="M17.3318 42.8556C17.0004 42.7384 16.6718 42.6124 16.3463 42.4776C13.9198 41.4725 11.715 39.9993 9.85786 38.1421C8.00069 36.285 6.5275 34.0802 5.52241 31.6537C4.51732 29.2272 4 26.6264 4 24C4 23.8461 4.00178 23.6923 4.00532 23.5386L4.00556 23.5284C4.06372 21.0626 4.57752 18.6275 5.52241 16.3463C6.5275 13.9198 8.00069 11.715 9.85786 9.85786C11.4443 8.27148 13.2843 6.96527 15.2995 5.99165C15.6434 5.82546 15.9925 5.66896 16.3463 5.52241C18.7728 4.51732 21.3736 4 24 4C26.6264 4 29.2272 4.51732 31.6537 5.52241C34.0802 6.5275 36.285 8.00069 38.1421 9.85786C39.9993 11.715 41.4725 13.9198 42.4776 16.3463C42.6346 16.7255 42.7798 17.1089 42.9129 17.496L42.9232 17.5259C43.0322 17.8445 43.133 18.1655 43.2256 18.4886C43.3328 18.8626 43.4291 19.2395 43.5142 19.6187L43.5153 19.6234C43.6716 20.3207 43.7906 21.0261 43.8715 21.7366C42.183 20.6397 40.1751 20 38 20C35.204 20 32.6844 21.057 30.7643 22.7833C25.685 20.7902 23.9165 15.782 23.9165 15.782C23.8013 15.7602 23.7325 15.3302 23.6403 14.754C23.4469 13.545 23.1504 11.6921 22.1059 11.6147C21.5011 11.5689 21.0053 11.6294 20.4902 11.6922C19.6918 11.7896 18.8467 11.8927 17.4767 11.6147C16.4517 11.4067 15.9908 10.985 15.7595 10.2852C14.6436 10.9558 13.6111 11.7615 12.6863 12.6863C11.2006 14.172 10.022 15.9359 9.21793 17.8771C8.41385 19.8183 8 21.8988 8 24C8 25.6721 8.2621 27.3312 8.77438 28.9174C9.4153 29.1412 10.5639 28.1541 11.6937 27.1831C12.8575 26.1829 14.0014 25.1999 14.55 25.575C14.9721 25.8642 15.8549 26.0414 16.7782 26.2267C18.2385 26.5198 19.8 26.8332 19.8 27.6423C19.8 28.2077 19.5034 29.2844 19.2069 30.3605C18.8109 31.7983 18.415 33.2351 18.7273 33.45C19.1193 33.718 18.6707 35.3978 18.3864 36.4624C18.2747 36.8807 18.1883 37.204 18.1883 37.3093C18.1883 37.4339 18.273 37.7262 18.3779 38.0877C18.465 38.3884 18.566 38.7369 18.6438 39.0768C20.3616 39.6871 22.173 40 24 40C25.9881 40 27.9578 39.6295 29.8085 38.9084C30.0269 39.2467 30.2498 39.5773 30.4737 39.8984C31.0473 40.7204 31.647 41.5066 32.2292 42.2286C32.0388 42.3145 31.8469 42.3975 31.6537 42.4776C29.2272 43.4827 26.6264 44 24 44C21.7258 44 19.471 43.6122 17.3318 42.8556Z" fill="#324558"/>
<path d="M26.2743 27.4152C26.7704 27.375 27.2677 27.3347 27.7236 27.261C27.2553 28.5172 27 29.8759 27 31.2864C27 31.9743 27.0911 32.6553 27.2427 33.3154C26.1778 32.9321 25.3078 32.5251 25.05 32.4C24.3384 32.057 22.712 30.8483 22.95 28.9023C23.1002 27.6724 24.6807 27.5444 26.2743 27.4152Z" fill="#324558"/>
<path fill-rule="evenodd" clip-rule="evenodd" d="M46 31.2864C46 35.441 40.6153 41.4547 38.6813 43.4806C38.3059 43.8739 37.6941 43.8739 37.3187 43.4806C35.3847 41.4547 30 35.441 30 31.2864C30 26.71 33.5817 23 38 23C42.4183 23 46 26.71 46 31.2864ZM41.294 31.0002C41.294 32.8195 39.8192 34.2943 37.9999 34.2943C36.1806 34.2943 34.7058 32.8195 34.7058 31.0002C34.7058 29.1809 36.1806 27.7061 37.9999 27.7061C39.8192 27.7061 41.294 29.1809 41.294 31.0002Z" fill="#324558"/>
</svg>
