<svg width="48" height="48" viewBox="0 0 48 48" fill="none" xmlns="http://www.w3.org/2000/svg">
<path fill-rule="evenodd" clip-rule="evenodd" d="M17.3318 42.8556C17.0004 42.7384 16.6718 42.6124 16.3463 42.4776C13.9198 41.4725 11.715 39.9993 9.85786 38.1421C8.00069 36.285 6.5275 34.0802 5.52241 31.6537C4.51732 29.2272 4 26.6264 4 24C4 23.8461 4.00178 23.6923 4.00532 23.5386C4.0054 23.5352 4.00548 23.5318 4.00556 23.5284C4.06372 21.0626 4.57752 18.6275 5.52241 16.3463C6.5275 13.9198 8.00069 11.715 9.85786 9.85786C11.4443 8.27148 13.2843 6.96527 15.2995 5.99165C15.6434 5.82546 15.9925 5.66896 16.3463 5.52241C18.7728 4.51732 21.3736 4 24 4C26.6264 4 29.2272 4.51732 31.6537 5.52241C34.0802 6.5275 36.285 8.00069 38.1421 9.85786C39.9993 11.715 41.4725 13.9198 42.4776 16.3463C42.6346 16.7255 42.7798 17.1089 42.9129 17.496C42.9163 17.5059 42.9198 17.5159 42.9232 17.5259C43.0322 17.8445 43.133 18.1655 43.2256 18.4886C43.3328 18.8626 43.4291 19.2395 43.5142 19.6187C43.5146 19.6203 43.5149 19.6219 43.5153 19.6234C43.8367 21.0566 44 22.5242 44 24C44 26.6264 43.4827 29.2272 42.4776 31.6537C41.4725 34.0802 39.9993 36.285 38.1421 38.1421C36.285 39.9993 34.0802 41.4725 31.6537 42.4776C29.2272 43.4827 26.6264 44 24 44C21.7258 44 19.471 43.6122 17.3318 42.8556ZM8.77438 28.9174C8.2621 27.3312 8 25.6721 8 24C8 21.8988 8.41385 19.8183 9.21793 17.8771C10.022 15.9359 11.2006 14.172 12.6863 12.6863C13.6111 11.7615 14.6436 10.9558 15.7595 10.2852C15.9908 10.985 16.4517 11.4067 17.4767 11.6147C18.8467 11.8927 19.6918 11.7896 20.4902 11.6922C21.0053 11.6294 21.5011 11.5689 22.1059 11.6147C23.1504 11.6921 23.4469 13.545 23.6403 14.754C23.7325 15.3302 23.8013 15.7602 23.9165 15.782C23.9165 15.782 25.9418 21.5173 31.8823 23.1553C33.1446 23.503 30.5757 26.1677 28.7977 26.968C28.1404 27.264 27.2051 27.3398 26.2743 27.4152C24.6807 27.5444 23.1002 27.6724 22.95 28.9023C22.712 30.8483 24.3384 32.057 25.05 32.4C25.7616 32.7453 31.14 35.2397 32.4 33.45C32.9251 32.7038 34.0089 32.1207 35.0592 31.5556C36.5246 30.7673 37.9245 30.0141 37.65 28.9023C37.1968 27.061 38.5039 25.4189 39.9998 23.9195C39.9999 23.9464 40 23.9732 40 24C40 26.1011 39.5861 28.1817 38.7821 30.1229C37.978 32.0641 36.7994 33.828 35.3137 35.3137C33.828 36.7994 32.0641 37.978 30.1229 38.7821C28.1817 39.5861 26.1012 40 24 40C22.173 40 20.3616 39.6871 18.6438 39.0768C18.566 38.7369 18.465 38.3884 18.3779 38.0877C18.273 37.7262 18.1883 37.4339 18.1883 37.3093C18.1883 37.204 18.2747 36.8807 18.3864 36.4624C18.6707 35.3978 19.1193 33.718 18.7273 33.45C18.415 33.2351 18.8109 31.7983 19.2069 30.3605C19.5034 29.2844 19.8 28.2077 19.8 27.6423C19.8 26.8332 18.2385 26.5198 16.7782 26.2267C15.8549 26.0414 14.9721 25.8642 14.55 25.575C14.0014 25.1999 12.8575 26.1829 11.6937 27.1831C10.5639 28.1541 9.4153 29.1412 8.77438 28.9174Z" fill="#324558"/>
</svg>
