<svg width="48" height="48" viewBox="0 0 48 48" fill="none" xmlns="http://www.w3.org/2000/svg">
<path d="M22.9512 4C22.4183 4 21.979 4.41785 21.9524 4.95006L21.7999 8H8.99988C7.89531 8 6.99987 8.89544 6.99988 10L6.9999 16C6.99991 17.1046 7.89534 18 8.9999 18H21.2999L20.9999 24H10.8283C10.2978 24 9.78914 24.2107 9.41407 24.5858L5.70696 28.2929C5.31643 28.6834 5.31643 29.3166 5.70695 29.7071L9.41403 33.4142C9.7891 33.7893 10.2978 34 10.8282 34H20.4999L20.0524 42.9501C20.0239 43.5212 20.4793 44 21.0512 44H26.9487C27.5206 44 27.976 43.5212 27.9474 42.9501L27.4999 34H38.9998C40.1044 34 40.9998 33.1046 40.9998 32L40.9998 26C40.9998 24.8954 40.1044 24 38.9998 24H26.9999L26.6999 18H37.1714C37.7019 18 38.2106 17.7893 38.5857 17.4142L42.2928 13.7071C42.6833 13.3166 42.6833 12.6834 42.2928 12.2929L38.5856 8.58578C38.2105 8.21071 37.7018 8 37.1714 8H26.1999L26.0474 4.95006C26.0208 4.41785 25.5815 4 25.0487 4H22.9512Z" fill="#324558"/>
</svg>
