<svg width="48" height="48" viewBox="0 0 48 48" fill="none" xmlns="http://www.w3.org/2000/svg">
<path d="M29 17C29 19.7614 26.7614 22 24 22C21.2386 22 19 19.7614 19 17C19 14.2386 21.2386 12 24 12C26.7614 12 29 14.2386 29 17Z" fill="#324558"/>
<path fill-rule="evenodd" clip-rule="evenodd" d="M24.1861 46.5837C24.3685 46.5471 24.5428 46.4561 24.6851 46.3108C27.8613 43.0654 41 29.0689 41 19.6087C41 9.88368 33.3888 2 24 2C14.6112 2 7 9.88368 7 19.6087C7 23.5391 9.26791 28.2525 12.147 32.6527C12.147 32.6527 12.1471 32.6526 12.147 32.6527C16.1977 38.8432 21.4581 44.4138 23.3147 46.3108C23.5049 46.5051 23.7525 46.6023 24 46.6022C24.0624 46.6022 24.1247 46.5961 24.1861 46.5837ZM35.2854 25.597C36.4508 23.1476 37 21.123 37 19.6087C37 11.959 31.0482 6 24 6C16.9518 6 11 11.959 11 19.6087C11 21.123 11.5492 23.1476 12.7146 25.597C13.2498 26.7219 13.8846 27.874 14.5893 29.031C16.957 26.5475 20.2977 25 23.9998 25C27.7021 25 31.0429 26.5476 33.4105 29.0312C34.1153 27.8741 34.7502 26.7219 35.2854 25.597Z" fill="#324558"/>
</svg>
