<svg width="48" height="48" viewBox="0 0 48 48" fill="none" xmlns="http://www.w3.org/2000/svg">
<path fill-rule="evenodd" clip-rule="evenodd" d="M36 15.5217C36 22.0641 27.2283 31.6576 24.684 34.3026C24.305 34.6965 23.695 34.6965 23.316 34.3026C20.7717 31.6576 12 22.0641 12 15.5217C12 8.60617 17.3726 3 24 3C30.6274 3 36 8.60617 36 15.5217ZM29 15C29 17.7614 26.7614 20 24 20C21.2386 20 19 17.7614 19 15C19 12.2386 21.2386 10 24 10C26.7614 10 29 12.2386 29 15Z" fill="#324558"/>
<path d="M26.8461 36.3823C27.9431 35.2419 30.1691 32.8441 32.4051 29.9239C38.1117 31.2656 42 33.931 42 37C42 41.4183 33.9411 45 24 45C14.0589 45 6 41.4183 6 37C6 33.931 9.8883 31.2656 15.5949 29.9239C17.8309 32.8441 20.0569 35.2419 21.1539 36.3823C22.7131 38.0033 25.2869 38.0033 26.8461 36.3823Z" fill="#324558"/>
</svg>
