<svg width="48" height="48" viewBox="0 0 48 48" fill="none" xmlns="http://www.w3.org/2000/svg">
<path fill-rule="evenodd" clip-rule="evenodd" d="M22 1H26V5.10401C34.8961 6.03464 41.9654 13.1039 42.896 22H47V26H42.896C41.9654 34.8961 34.8961 41.9654 26 42.896V47H22V42.896C13.1039 41.9654 6.03464 34.8961 5.10401 26H1V22H5.10401C6.03464 13.1039 13.1039 6.03464 22 5.10401V1ZM24 30C27.3137 30 30 27.3137 30 24C30 20.6863 27.3137 18 24 18C20.6863 18 18 20.6863 18 24C18 27.3137 20.6863 30 24 30Z" fill="#324558"/>
</svg>
