<svg width="48" height="48" viewBox="0 0 48 48" fill="none" xmlns="http://www.w3.org/2000/svg">
<path d="M37.364 2.15088V10.6362H45.8493L35.9498 20.5357H30.2929L26.8285 24.0001H32C32 28.4184 28.4183 32.0001 24 32.0001C19.5817 32.0001 16 28.4184 16 24.0001C16 19.5818 19.5817 16.0001 24 16.0001V21.1717L27.4645 17.7072V12.0504L37.364 2.15088Z" fill="#324558"/>
<path d="M38 24.0001C38 23.5892 37.9823 23.1824 37.9476 22.7805L42.9976 17.7305C43.648 19.7025 44 21.8102 44 24.0001C44 35.0458 35.0457 44.0001 24 44.0001C12.9543 44.0001 4 35.0458 4 24.0001C4 12.9544 12.9543 4.00012 24 4.00012C26.1899 4.00012 28.2977 4.35209 30.2697 5.00255L25.2197 10.0525C24.8178 10.0178 24.411 10.0001 24 10.0001C16.268 10.0001 10 16.2681 10 24.0001C10 31.7321 16.268 38.0001 24 38.0001C31.732 38.0001 38 31.7321 38 24.0001Z" fill="#324558"/>
</svg>
