<svg width="48" height="48" viewBox="0 0 48 48" fill="none" xmlns="http://www.w3.org/2000/svg">
<path d="M24.0015 33.9354C21.8213 31.2485 20.5402 28.8941 20.1131 26.8785C19.6893 25.2524 19.8553 23.9525 20.5821 22.9756C21.3507 21.8514 22.4965 21.3036 23.9999 21.3036C25.5034 21.3036 26.6475 21.8498 27.4162 22.9867C28.1349 23.9525 28.3154 25.254 27.8771 26.8896C27.4081 28.9447 26.1287 31.2992 23.9903 33.9481L24.0015 33.9354ZM39.473 35.7404C39.1749 37.7132 37.8068 39.3504 35.9278 40.1468C32.2973 41.6985 28.7037 39.2237 25.6275 35.8655C30.7148 29.6097 31.6543 24.7378 29.4708 21.587C28.1897 19.782 26.3559 18.9032 24.0015 18.9032C19.2575 18.9032 16.6485 22.8457 17.6734 27.4247C18.2696 29.9027 19.8521 32.7178 22.374 35.8671C20.7948 37.585 19.2961 38.8057 17.9715 39.561C16.9466 40.1057 15.9653 40.4445 15.0258 40.5252C10.7088 41.157 7.32633 37.0419 8.86204 32.7986C9.07475 32.2523 9.49856 31.2469 10.2237 29.6937L10.264 29.6097C12.6231 24.5779 15.4883 18.8589 18.7805 12.5177L18.8659 12.3087L19.8005 10.5417C20.5257 9.24017 20.8238 8.6575 21.9776 7.94025C22.5351 7.60775 23.2184 7.4415 23.9854 7.4415C25.5228 7.4415 26.7217 8.325 27.2341 9.03592C27.4887 9.41433 27.7901 9.91783 28.172 10.5448L29.0711 12.2691L29.2001 12.5208C32.489 18.8605 35.3574 24.5668 37.7069 29.6113L37.7488 29.6509L38.6077 31.5826L39.1201 32.7922C39.5117 33.7628 39.5939 34.7271 39.4633 35.7341L39.473 35.7404ZM41.439 31.9562C41.1392 31.0332 40.6252 29.9438 39.9887 28.6407V28.5932C36.9447 22.2504 34.1198 16.5472 31.4367 11.4236L31.2579 11.1655C29.3451 7.31325 27.977 5 24.0015 5C20.0696 5 18.4002 7.68375 16.6937 11.1718L16.5631 11.4252C13.8736 16.5488 11.0504 22.2599 8.01764 28.5996V28.6835L7.11685 30.6152C6.77844 31.4132 6.60602 31.8312 6.5609 31.9562C4.38545 37.8383 8.8701 43 14.299 43C14.3426 43 14.5118 43 14.7261 42.9572H15.3255C18.1456 42.62 21.0526 40.8593 24.0015 37.7053C26.9489 40.8546 29.8591 42.62 32.6743 42.9572H33.2738C33.4881 43 33.6589 43 33.7008 43C39.1314 43.0047 43.6144 37.8367 41.439 31.9562Z" fill="#324558"/>
</svg>
