<svg width="48" height="48" viewBox="0 0 48 48" fill="none" xmlns="http://www.w3.org/2000/svg">
<path d="M17.0071 20.8095H17.0527C17.1119 21.0809 17.1876 21.3659 17.2797 21.6685L18.5411 25.1066H15.6536L16.782 21.7142C16.8851 21.4204 16.9605 21.1174 17.0071 20.8095Z" fill="#324558"/>
<path fill-rule="evenodd" clip-rule="evenodd" d="M40 24C40 32.8366 32.8366 40 24 40C15.1634 40 8 32.8366 8 24C8 15.1634 15.1634 8 24 8C32.8366 8 40 15.1634 40 24ZM18.9479 26.8257L19.6698 28.9971H22.1478L18.4036 19H15.6995L12 28.9971H14.4363L15.1582 26.8257H18.9479ZM22.8726 28.9971H25.174V19H22.8726V28.9971ZM33.2047 28.9971H36L32.3451 24.0209L35.6381 19H32.9767L31.3525 21.9857C31.1721 22.3483 31.0217 22.6346 30.9014 22.8447C30.8186 22.7136 30.7434 22.5779 30.6763 22.4381C30.5547 22.2565 30.4644 22.1206 30.4056 22.0305L28.7358 19H26.0288L29.3674 24.0209L25.8473 29H28.467L30.4521 25.8334C30.5123 25.7413 30.6326 25.5143 30.8131 25.1523C30.8535 25.2304 30.8989 25.3058 30.9489 25.3781C31.0682 25.5901 31.1585 25.74 31.2196 25.8304L33.2047 28.9971Z" fill="#324558"/>
<path fill-rule="evenodd" clip-rule="evenodd" d="M44 24C44 35.0457 35.0457 44 24 44C12.9543 44 4 35.0457 4 24C4 12.9543 12.9543 4 24 4C35.0457 4 44 12.9543 44 24ZM6 24C6 33.9411 14.0589 42 24 42C33.9411 42 42 33.9411 42 24C42 14.0589 33.9411 6 24 6C14.0589 6 6 14.0589 6 24Z" fill="#324558"/>
</svg>
