<svg width="48" height="48" viewBox="0 0 48 48" fill="none" xmlns="http://www.w3.org/2000/svg">
<path fill-rule="evenodd" clip-rule="evenodd" d="M11.625 6C8.5184 6 6 8.5184 6 11.625V36.375C6 39.4816 8.5184 42 11.625 42H36.375C39.4816 42 42 39.4816 42 36.375V11.625C42 8.5184 39.4816 6 36.375 6H11.625ZM27.6115 27.2326C26.9077 28.2014 26.7852 28.8301 27.989 28.7751C32.3589 28.4888 36.3213 26.9602 40 25.3777C37.5125 27.0814 24.649 33.5112 24.5953 29.1313C24.609 28.5701 24.8653 27.9851 25.284 27.3564C25.6902 26.7289 26.259 26.0727 26.8402 25.404C26.9285 25.3025 27.03 25.1867 27.1418 25.0593C28.1421 23.9183 29.9698 21.8336 30.6264 20.5317C30.741 20.2882 30.8258 20.0318 30.8789 19.7679C30.9689 18.4355 29.3252 17.9143 26.8127 17.2043L26.3265 17.5043L27.259 18.2843C23.094 19.0067 20.5378 19.8254 17.4941 20.8904L17.9141 21.9829L16.4017 23.4828C17.3933 23.7936 18.4472 23.8498 19.4662 23.6462C20.4853 23.4426 21.4367 22.9858 22.2328 22.3178C21.9653 21.9066 21.5716 21.7354 21.5716 21.7354C21.5716 21.7354 22.2991 21.7241 22.7153 22.3853C22.7153 22.3853 22.9903 22.7753 22.9303 23.2678H22.4665C22.4815 23.0566 22.4578 22.8716 22.4116 22.7091C21.1971 23.7322 19.6596 24.2923 18.0716 24.2903C17.2357 24.2911 16.4069 24.136 15.6279 23.8328V25.749C14.5992 26.1177 12.7592 27.2639 12.7742 28.3701C12.8405 28.8938 13.1042 29.0863 13.3455 29.2238L13.3555 29.2263C15.6954 30.5638 22.0653 28.7476 22.0528 28.7476C19.7528 29.9225 17.5479 30.8638 14.1529 31C9.73052 30.9038 9.04053 27.9426 11.1367 24.8452C13.1117 21.7204 16.2504 18.8942 21.2416 17.133C22.6878 16.6156 24.8115 16.0281 26.8677 16.0006C29.8152 15.9731 32.6826 16.9018 32.4939 19.7554C32.413 21.3965 30.6262 23.5477 29.0431 25.4536C28.5209 26.0823 28.0208 26.6844 27.6115 27.2326Z" fill="#324558"/>
</svg>
