<svg width="48" height="48" viewBox="0 0 48 48" fill="none" xmlns="http://www.w3.org/2000/svg">
<path d="M42.844 30.716C35.184 28.41 30.734 27.036 29.488 26.592C30.6837 24.5176 31.5729 22.2811 32.128 19.952H25.6V17.744H33.6V16.384H25.6V12.688H22.528C21.968 12.688 21.904 13.184 21.904 13.184V16.368H14.4V17.728H21.904V19.936H15.76V21.168H28.208C27.7735 22.6781 27.1781 24.1371 26.432 25.52C23.616 24.592 22.048 23.952 18.608 23.632C12.096 23.008 10.592 26.592 10.352 28.784C10 32.128 12.96 34.848 17.376 34.848C21.792 34.848 24.736 32.8 27.536 29.408C29.87 30.524 34.212 32.458 40.564 35.212C38.7327 37.9202 36.2649 40.1376 33.3769 41.6698C30.489 43.202 27.2692 44.0021 24 44C12.954 44 4 35.046 4 24C4 12.954 12.954 4 24 4C35.046 4 44 12.954 44 24C44.0024 26.2884 43.6114 28.5601 42.844 30.716ZM16.864 32.736C12.192 32.736 11.456 29.776 11.696 28.544C11.936 27.312 13.296 25.712 15.904 25.712C18.896 25.712 21.568 26.48 24.784 28.032C22.512 30.992 19.744 32.736 16.864 32.736Z" fill="#324558"/>
</svg>
