<svg width="48" height="48" viewBox="0 0 48 48" fill="none" xmlns="http://www.w3.org/2000/svg">
<path d="M14.5024 10.2678C16.3606 9.99322 17.5993 8.48312 17.3929 6.69846C17.1864 5.11972 15.5347 3.81555 13.8142 4.02147C11.9561 4.22739 10.8549 5.66885 11.0614 7.65943C11.2679 9.16953 12.9195 10.4737 14.5024 10.2678Z" fill="#324558"/>
<path d="M35.3552 5.39429C37.0757 5.257 38.7274 6.62982 38.8651 8.34584C39.0027 9.99322 37.6263 11.572 35.9746 11.7092C34.1853 11.8465 32.6024 10.5423 32.4648 8.82632C32.3271 7.1103 33.5659 5.53157 35.3552 5.39429Z" fill="#324558"/>
<path d="M12.0937 10.5423C12.2314 10.5423 12.5755 10.611 12.9196 10.6796C15.4659 11.1601 17.0488 10.2678 17.8746 7.86535C18.4252 6.28661 19.5951 5.80613 21.1092 6.62982C21.1436 6.62982 21.1608 6.64698 21.178 6.66414C21.1952 6.6813 21.2124 6.69846 21.2468 6.69846C22.8297 7.59079 22.8297 7.72807 21.8662 9.10088C21.0404 10.1991 20.6274 11.4347 20.421 12.7388C20.2833 13.4939 20.0081 13.6312 19.3199 13.3566C18.2187 12.9448 17.0488 12.9448 15.8788 13.3566C14.5713 13.7685 14.0207 14.9353 14.4336 16.2395C14.9037 17.7048 16.0764 18.4695 17.2231 19.2172C17.4193 19.3451 17.6148 19.4726 17.8058 19.6029C18.7865 20.2722 19.8833 20.7098 20.9802 21.1473C21.3457 21.2932 21.7114 21.4391 22.0727 21.5935C22.1113 21.6063 22.1547 21.6168 22.1993 21.6275C22.3934 21.6741 22.6104 21.7263 22.5544 22.0053C22.4856 22.2113 22.2103 22.2113 21.935 22.2113C18.8381 22.3486 15.8788 21.8681 13.4701 19.8088C11.1991 17.9555 9.54736 15.6904 9.82264 12.5329C10.0291 11.5033 10.7861 10.7483 12.0937 10.5423Z" fill="#324558"/>
<path d="M24.7569 21.7308C24.4816 21.8681 24.344 21.6621 24.2751 21.4562C21.7288 16.72 22.4858 10.7483 26.9591 7.17894C28.1291 6.21797 30.3313 6.01205 31.2948 6.97302C31.7077 7.31622 31.7766 7.72807 31.8454 8.20855C31.983 9.23816 32.1895 10.2678 32.8777 11.0915C33.6347 11.9838 34.5982 12.327 35.6993 12.2584C35.796 12.2584 35.8927 12.257 35.9891 12.2556C36.8527 12.2432 37.6885 12.2313 38.2457 13.2193C38.5898 13.8371 38.4521 16.2395 37.9016 16.72C37.6694 16.8937 37.4862 16.8232 37.3106 16.7557C37.278 16.7432 37.2457 16.7308 37.2134 16.72C35.6305 16.1022 33.9788 16.1022 32.3271 16.3768C31.7766 16.4454 31.5013 16.3082 31.5013 15.6904C31.4325 14.6608 31.226 13.6998 30.6754 12.8075C29.6431 10.9542 27.7162 10.8855 26.4774 12.6016C25.4451 13.9744 25.1698 15.6218 24.8945 17.2691C24.6192 18.7106 24.6881 20.2207 24.7569 21.7308Z" fill="#324558"/>
<path d="M44.9901 29.9677C44.8524 28.183 43.4072 27.0161 41.6179 27.1534C39.7597 27.3593 38.5209 28.7321 38.6586 30.5854C38.7962 32.3015 40.3103 33.6056 42.0308 33.4684C43.8201 33.3311 45.1277 31.821 44.9901 29.9677Z" fill="#324558"/>
<path d="M22.8985 38.6164C21.2468 38.6164 19.8704 39.9892 19.8704 41.7739C19.8704 43.7645 21.178 45 23.1738 45C24.7567 44.9314 26.1331 43.4899 26.1331 41.8425C26.1331 40.1265 24.5502 38.6164 22.8985 38.6164Z" fill="#324558"/>
<path d="M26.6149 22.2113C26.4084 22.3486 26.3396 22.5545 26.4773 22.7604C27.8537 22.3486 29.2989 21.9367 30.813 21.8681C32.3958 21.7308 34.0475 21.5935 35.6304 22.2799C37.6262 23.1036 37.9703 24.9569 36.4562 26.3984C35.768 27.0848 34.8734 27.5653 33.9099 27.8398C33.3593 27.9771 33.2905 28.2517 33.497 28.8008C34.1163 30.3109 34.5293 31.8896 34.3228 33.6056L34.3129 33.6448C34.2481 33.9 34.1984 34.096 34.4604 34.292C35.0798 34.7039 37.4197 34.292 37.9015 33.8116C38.7146 33.063 38.5045 32.201 38.3044 31.3802C38.2843 31.2978 38.2644 31.2159 38.2456 31.1346C37.9703 30.0363 38.1079 29.0067 38.7273 28.1144C39.3467 27.222 40.2413 26.8102 41.2048 26.3984C41.6178 26.2611 41.9619 26.0552 42.2371 25.5747C42.8565 24.4078 42.0995 22.4172 40.9296 21.4562C36.3874 17.9555 30.5377 18.642 26.6149 22.2113Z" fill="#324558"/>
<path d="M25.5827 24.5451C25.7892 24.3391 25.9268 24.4078 26.1333 24.5451C30.6755 27.2907 33.0153 32.7133 30.9507 37.9986C30.4002 39.3715 28.6108 40.7443 27.3033 40.4011C26.7527 40.2638 26.4774 39.9892 26.2021 39.646C25.5827 38.8223 24.8945 38.0673 23.8622 37.7241C22.7611 37.3809 21.7976 37.5868 20.8341 38.1359C20.7584 38.18 20.6826 38.2252 20.6067 38.2705C19.8551 38.7193 19.0877 39.1775 18.1501 38.6164C17.5308 38.2732 16.4984 36.1453 16.7049 35.4589C16.8425 35.1844 17.1178 35.1844 17.3931 35.1844C19.1136 34.9098 20.49 34.0861 21.7976 32.9879C22.2105 32.6447 22.5546 32.6447 22.8987 33.1252C23.4493 33.9488 24.1375 34.6352 25.0322 35.1157C26.8215 36.1453 28.542 35.253 28.7485 33.1938C28.9403 31.5995 28.4193 30.1829 27.9029 28.7789C27.8634 28.6718 27.824 28.5647 27.785 28.4576C27.1656 27.0848 26.4086 25.7806 25.5827 24.5451Z" fill="#324558"/>
<path d="M21.6599 28.8008C22.4857 27.6339 23.1051 26.3297 23.3804 24.9569C23.1908 24.9096 23.0991 24.96 22.9929 25.0184C22.945 25.0448 22.8941 25.0728 22.8298 25.0942C21.2469 26.7416 19.5952 28.3203 17.4618 29.4186C16.636 29.8304 15.7413 30.1736 14.7778 30.1736C13.2638 30.1736 12.3691 29.2126 12.5067 27.7025C12.5756 26.467 13.0573 25.3687 13.8831 24.4764C14.2961 23.9959 14.2961 23.7214 13.8143 23.3095C12.4379 22.3486 11.1992 21.1817 10.5798 19.6029C10.4421 19.1224 10.098 19.1224 9.6851 19.3284C9.40982 19.4656 9.13454 19.6029 8.92808 19.7402C7.13875 20.8385 6.93229 22.2113 8.44634 23.7214C9.54746 24.8196 10.098 26.0552 9.6851 27.5653C9.47864 28.3203 9.06572 28.8694 8.58398 29.4872C8.23987 29.899 8.10223 30.3109 8.17105 30.86C8.3087 32.1642 9.61628 33.4684 11.1992 33.6056C15.6037 34.0175 19.1823 32.5074 21.6599 28.8008Z" fill="#324558"/>
<path d="M3.00951 26.9475C3.14715 28.6635 4.79884 30.0363 6.45053 29.8304C8.44632 29.6931 9.47863 27.7712 9.40981 26.1924C9.27217 24.5451 7.62048 23.3095 5.83115 23.5154C4.24828 23.6527 2.87187 25.3001 3.00951 26.9475Z" fill="#324558"/>
</svg>
