<svg width="48" height="48" viewBox="0 0 48 48" fill="none" xmlns="http://www.w3.org/2000/svg">
<path d="M13.4965 6L3 24L13.4965 42H34.5035L45 24L34.5035 6H13.4965ZM20.4388 15.5482L25.155 20.3629L27.9515 23.1254L27.955 23.1219L32.1725 27.2145C31.8225 27.4569 31.497 27.6509 31.1873 27.8103C30.9074 27.956 30.6173 28.0816 30.3193 28.1861C30.077 28.27 29.8283 28.3343 29.5755 28.3783C29.3463 28.4182 29.138 28.4372 28.949 28.4372C28.7215 28.4372 28.5255 28.413 28.3575 28.3783C28.2138 28.3501 28.0732 28.3083 27.9375 28.2536C27.8133 28.2026 27.6957 28.1369 27.5875 28.0579L25.729 26.1667L20.4108 20.8998L18.4858 22.7236L13.1132 28.0441C13.0046 28.1215 12.8871 28.1861 12.7633 28.2363C12.6295 28.2917 12.4906 28.334 12.3485 28.3627C12.1805 28.3974 11.9827 28.4199 11.757 28.4199C11.568 28.4199 11.3597 28.4043 11.1305 28.3662C10.8776 28.3205 10.6288 28.2545 10.3868 28.1688C10.0886 28.0644 9.79855 27.9388 9.51875 27.7929C9.17803 27.6156 8.84896 27.4172 8.5335 27.1989L20.4388 15.5482ZM28.6988 16.9077L36.712 24.8712L39.1305 27.2145C38.8145 27.4334 38.4848 27.6324 38.1435 27.8103C37.8649 27.956 37.576 28.0816 37.279 28.1861C37.0362 28.2702 36.7869 28.3345 36.5335 28.3783C36.306 28.4182 36.0942 28.4372 35.9035 28.4372C35.6777 28.4372 35.4818 28.413 35.3138 28.3783C35.0769 28.3304 34.8494 28.2451 34.64 28.1255C34.5822 28.0908 34.5525 28.0631 34.5473 28.0562L32.3913 25.9467L28.697 22.2906L28.1125 22.869L25.3825 20.1897L28.7005 16.9043L28.6988 16.9077ZM18.2582 24.0433V28.4234C18.0492 28.4205 17.8408 28.4002 17.6353 28.3627C17.3841 28.3152 17.1372 28.248 16.8967 28.1618C16.6035 28.0587 16.3181 27.9349 16.0428 27.7912C15.7069 27.6151 15.3826 27.4184 15.0715 27.2023L18.2565 24.0416L18.2582 24.0433Z" fill="#324558"/>
</svg>
