<svg width="48" height="48" viewBox="0 0 48 48" fill="none" xmlns="http://www.w3.org/2000/svg">
<path d="M3.74493 22.2075L22.2199 3.74766C23.2094 2.75904 24.8142 2.75118 25.8115 3.72213C27.9234 5.83119 29.4141 7.32012 30.2836 8.18894L30.2766 8.1835L33.557 11.4612C34.4465 12.35 34.4465 13.791 33.557 14.6798C32.6675 15.5686 31.2253 15.5686 30.3357 14.6798L24.4633 8.81224C24.238 8.58709 23.9063 8.56716 23.6621 8.75247C23.6388 8.77307 23.616 8.79301 23.5937 8.81224L8.84008 23.5537C8.59286 23.8007 8.59286 24.1756 8.84008 24.4226L23.5937 39.1641C23.8409 39.4111 24.2161 39.4111 24.4633 39.1641L30.3357 33.2965C31.2253 32.4077 32.6675 32.4077 33.557 33.2965C34.4465 34.1853 34.4465 35.6263 33.557 36.5151L25.8107 44.2551C24.8174 45.2475 23.2132 45.2475 22.2199 44.2551L3.74493 25.7953C2.75169 24.8028 2.75169 23.1999 3.74493 22.2075Z" fill="#324558"/>
<path d="M35.3452 31.5799C36.2347 32.4687 37.6769 32.4687 38.5664 31.5799L44.2805 25.8705C45.2737 24.8781 45.2737 23.2751 44.2806 22.2828L38.5167 16.5441C37.6251 15.6564 36.1824 15.6577 35.2924 16.547C34.4029 17.4358 34.4029 18.8768 35.2924 19.7656L39.1853 23.6553C39.4325 23.9023 39.4325 24.2772 39.1853 24.5243L35.3452 28.3613C34.4557 29.25 34.4557 30.6911 35.3452 31.5799Z" fill="#324558"/>
<path d="M29.0959 24.0938C29.0959 26.8464 26.8626 29.0779 24.1077 29.0779C21.3528 29.0779 19.1194 26.8464 19.1194 24.0938C19.1194 21.3411 21.3528 19.1096 24.1077 19.1096C26.8626 19.1096 29.0959 21.3411 29.0959 24.0938Z" fill="#324558"/>
</svg>
