<svg width="48" height="48" viewBox="0 0 48 48" fill="none" xmlns="http://www.w3.org/2000/svg">
<g clip-path="url(#clip0_2937_3755)">
<path d="M28.8961 6.39392C28.4881 7.01392 28.0481 7.71392 27.5761 8.51392L27.4961 8.63792C26.608 10.1394 25.7643 11.6668 24.9661 13.2179C24.5921 13.9379 24.2061 14.7019 23.8121 15.5099L28.3461 15.0099C29.6661 14.4059 30.2561 13.8539 30.8301 13.0579C30.9864 12.832 31.1398 12.604 31.2901 12.3739C31.7501 11.6479 32.2101 10.8479 32.6161 10.0539C33.0101 9.28192 33.3561 8.51992 33.6261 7.83392C33.7921 7.39392 33.9261 6.98992 34.0221 6.63392C34.1061 6.31792 34.1701 6.01992 34.2221 5.73392C32.4541 6.03392 30.2921 6.32392 28.8861 6.39392H28.8961ZM23.7881 15.5599L23.6341 15.8799C23.4781 16.1999 23.3201 16.5199 23.1621 16.8559C22.9901 17.2159 22.8181 17.5839 22.6421 17.9599L22.3781 18.5339C21.3743 20.7109 20.4227 22.9115 19.5241 25.1339C19.1981 25.9279 18.8701 26.7479 18.5381 27.5939C18.2381 28.3539 17.9441 29.1239 17.6381 29.9219L17.5981 30.0419C17.2981 30.8339 16.9981 31.6459 16.6921 32.4819L16.6721 32.5359L18.1121 32.3759C18.0837 32.3747 18.0556 32.3707 18.0281 32.3639C19.7541 32.1519 22.0481 30.8639 23.5281 29.2699C24.2121 28.5359 24.8321 27.6699 25.4081 26.6579C25.8341 25.9039 26.2341 25.0679 26.6161 24.1419C26.9521 23.3319 27.2721 22.4559 27.5761 21.5059C27.1841 21.7159 26.7301 21.8659 26.2301 21.9759C26.0502 22.0181 25.8678 22.0488 25.6841 22.0679C27.2961 21.4479 28.3121 20.2579 29.0501 18.7879C28.4646 19.1931 27.8077 19.4835 27.1141 19.6439C26.9941 19.6679 26.8821 19.6879 26.7661 19.7039L26.6801 19.7159H26.6841C27.2401 19.4799 27.7121 19.2199 28.1201 18.9099C28.6273 18.5273 29.0593 18.054 29.3941 17.5139L29.5201 17.3059L29.6741 16.9979C29.9509 16.4457 30.196 15.8781 30.4081 15.2979L30.4681 15.1219C30.5743 14.8202 30.6565 14.5106 30.7141 14.1959C30.6549 14.2441 30.592 14.2875 30.5261 14.3259C30.0401 14.6159 29.2061 14.8799 28.5341 15.0059L29.8601 14.8579L28.5321 15.0039H28.4981L28.2981 15.0379C28.3101 15.0319 28.3181 15.0259 28.3321 15.0219L23.8021 15.5219L23.7761 15.5659L23.7881 15.5599ZM16.5401 32.8999C16.3061 33.5459 16.0681 34.2079 15.8301 34.8839L15.8201 34.9139C15.7881 35.0059 15.7561 35.1019 15.7201 35.1979C15.5601 35.6519 15.4201 36.0619 15.1001 36.9979C15.6281 37.2379 16.0501 37.8679 16.4501 38.5839C16.412 37.827 16.0771 37.1156 15.5181 36.6039C18.1041 36.7239 20.3381 36.0639 21.4981 34.1699C21.5981 34.0019 21.6901 33.8239 21.7781 33.6339C21.2581 34.2999 20.5981 34.5819 19.3781 34.5139C19.3781 34.5139 19.3701 34.5139 19.3681 34.5179L19.3761 34.5139C21.1761 33.7059 22.0841 32.9339 22.8841 31.6479C23.0721 31.3419 23.2561 31.0079 23.4441 30.6419C21.8681 32.2619 20.0401 32.7219 18.1161 32.3719L16.6761 32.5279C16.6295 32.6492 16.5849 32.7713 16.5421 32.8939L16.5401 32.8999ZM30.8401 0.223924C30.0881 0.667924 28.8401 1.92392 27.3441 3.74992L28.7161 6.33792C29.6761 4.96392 30.6561 3.72392 31.6401 2.66592L31.7561 2.54192C31.7161 2.58192 31.6761 2.62192 31.6421 2.66592C31.3221 3.01792 30.3541 4.14592 28.8921 6.39192C30.2981 6.32192 32.4601 6.03192 34.2241 5.73192C34.7481 2.79192 33.7081 1.44792 33.7081 1.44792C33.7081 1.44792 32.3881 -0.692076 30.8361 0.227924L30.8401 0.223924ZM24.6721 13.0279C25.4936 11.4934 26.3648 9.98596 27.2841 8.50792L27.3641 8.37992C27.8121 7.67592 28.2641 6.99392 28.7181 6.33992L27.3481 3.75392L27.0341 4.13792C26.6401 4.62792 26.2281 5.15792 25.8081 5.71792C24.3755 7.63636 23.0302 9.61837 21.7761 11.6579L21.7321 11.7339L23.5181 15.2599C23.8981 14.5039 24.2781 13.7559 24.6681 13.0239L24.6721 13.0279ZM17.2121 29.6679C17.5281 28.8559 17.8501 28.0479 18.1781 27.2179C18.4901 26.4299 18.8181 25.6379 19.1461 24.8379C20.1606 22.4125 21.2275 20.0092 22.3461 17.6299L22.7561 16.7819C22.9961 16.2959 23.2301 15.8119 23.4761 15.3339C23.4845 15.3051 23.498 15.278 23.5161 15.2539L21.7261 11.7279L21.6381 11.8679C21.2241 12.5479 20.8101 13.2419 20.4041 13.9519C19.6349 15.2895 18.9065 16.6501 18.2201 18.0319L18.0321 18.4179C17.0546 20.4166 16.214 22.4793 15.5161 24.5919C15.0953 25.9029 14.7481 27.2363 14.4761 28.5859L16.2681 32.1259C16.5021 31.4919 16.7481 30.8499 16.9961 30.1999L17.2121 29.6679ZM14.4601 28.7159C14.2321 29.8328 14.0758 30.9631 13.9921 32.0999C13.9921 32.1399 13.9841 32.1799 13.9821 32.2199C13.4221 31.3199 11.9221 30.4439 11.9301 30.4519C13.0041 32.0079 13.8181 33.5519 13.9401 35.0719C13.3601 35.1879 12.5721 35.0179 11.6601 34.6819C12.6101 35.5539 13.3201 35.7939 13.6001 35.8579C12.7321 35.9179 11.8201 36.5139 10.9081 37.1979C12.2441 36.6579 13.3281 36.4379 14.1001 36.6179C12.8801 40.0979 11.6401 43.9279 10.4141 47.9979C10.5843 47.949 10.7398 47.8587 10.8668 47.7352C10.9938 47.6117 11.0884 47.4587 11.1421 47.2899C11.3621 46.5539 12.8221 41.7179 15.0981 35.3599L15.3481 34.6639C15.5881 33.9999 15.8401 33.3199 16.0961 32.6239L16.2761 32.1499V32.1419L14.4801 28.5999C14.4741 28.6399 14.4601 28.6799 14.4561 28.7199L14.4601 28.7159Z" fill="#324558"/>
</g>
<defs>
<clipPath id="clip0_2937_3755">
<rect width="48" height="48" fill="white"/>
</clipPath>
</defs>
</svg>
