<svg width="48" height="48" viewBox="0 0 48 48" fill="none" xmlns="http://www.w3.org/2000/svg">
<path d="M41.991 15.1845C42.0025 14.0789 41.8817 12.9759 41.631 11.899C41.1555 9.93366 40.038 8.43341 38.361 7.33372C37.5056 6.78438 36.5478 6.41388 35.5455 6.24454C34.7702 6.11101 33.986 6.03579 33.1995 6.0195C33.1395 6.015 33.075 6.0045 33.0135 6H14.979C14.751 6.015 14.5245 6.0255 14.2965 6.03901C13.176 6.10352 12.0615 6.22354 11.007 6.63911C9.003 7.43424 7.557 8.81747 6.7095 10.8098C6.4215 11.4819 6.2715 12.1975 6.165 12.9222C6.081 13.5103 6.033 14.0999 6.015 14.6924C6.015 14.7405 6.0045 14.7855 6 14.832V33.1695C6.015 33.3796 6.0255 33.5941 6.0405 33.8056C6.1155 35.0283 6.2715 36.242 6.786 37.3657C7.761 39.4961 9.393 40.8958 11.637 41.5679C12.267 41.7585 12.921 41.8485 13.5765 41.91C14.409 41.9895 15.2415 42 16.077 42H32.622C33.4093 41.9995 34.1959 41.9494 34.977 41.85C36.21 41.6909 37.371 41.3249 38.4195 40.6348C39.6631 39.8307 40.6435 38.6795 41.2395 37.3237C41.5185 36.6936 41.679 36.0185 41.7945 35.3374C41.964 34.3247 42.0015 33.3001 42 32.2769C41.997 26.5759 42 20.8825 41.9955 15.1845H41.991ZM32.3565 21.1705V29.74C32.3565 30.3656 32.2695 30.9807 31.9905 31.5493C31.5555 32.4344 30.8505 32.9925 29.9085 33.2595C29.3835 33.4096 28.8495 33.4951 28.3035 33.5191C26.8785 33.5866 25.644 32.6189 25.389 31.2147C25.2819 30.6084 25.3761 29.9837 25.6572 29.436C25.9384 28.8882 26.391 28.4476 26.946 28.1812C27.4305 27.9412 27.951 27.8061 28.473 27.6951C29.04 27.5721 29.61 27.4656 30.174 27.3351C30.585 27.2405 30.8595 26.99 30.939 26.5609C30.9593 26.4658 30.9694 26.3687 30.969 26.2714C30.969 23.5484 30.969 20.8255 30.966 18.1055C30.965 18.0117 30.9519 17.9184 30.927 17.828C30.867 17.6029 30.702 17.4634 30.471 17.4769C30.231 17.4919 29.994 17.5294 29.7585 17.5759C28.6185 17.801 27.4785 18.0305 26.3385 18.26L20.79 19.3822C20.766 19.3867 20.742 19.3972 20.718 19.4017C20.3025 19.5173 20.1525 19.7063 20.133 20.1369C20.13 20.1999 20.133 20.2659 20.133 20.3319C20.13 24.2355 20.133 28.1392 20.1285 32.0413C20.1285 32.6714 20.058 33.2955 19.806 33.8821C19.389 34.8423 18.651 35.4424 17.655 35.732C17.13 35.882 16.59 35.972 16.0425 35.99C14.6025 36.044 13.41 35.0898 13.1625 33.6736C12.9525 32.4554 13.5075 31.1457 14.8935 30.5606C15.429 30.3356 15.9885 30.2125 16.5555 30.0955C16.986 30.0055 17.418 29.9215 17.8455 29.83C18.42 29.7055 18.72 29.3454 18.7455 28.7588V28.5338C18.7455 24.093 18.7455 19.6493 18.7485 15.2085C18.7485 15.024 18.768 14.8335 18.8115 14.6534C18.9165 14.2259 19.221 13.9813 19.6305 13.8763C20.013 13.7773 20.403 13.7083 20.7915 13.6288C21.891 13.4037 22.9905 13.1847 24.0915 12.9627L27.4965 12.2725C28.5015 12.0715 29.5065 11.8675 30.5115 11.6679C30.8415 11.6034 31.1745 11.5359 31.506 11.5089C31.971 11.4714 32.2905 11.764 32.337 12.232C32.349 12.3416 32.355 12.4541 32.355 12.5666C32.358 15.4321 32.358 18.3006 32.355 21.166L32.3565 21.1705Z" fill="#324558"/>
</svg>
