<svg width="48" height="48" viewBox="0 0 48 48" fill="none" xmlns="http://www.w3.org/2000/svg">
<path d="M24.2648 15.0676C22.6161 15.0676 20.064 13.1813 17.3765 13.2495C13.8307 13.2949 10.5785 15.3176 8.74914 18.5219C5.06784 24.9534 7.80058 34.453 11.3915 39.68C13.1531 42.2253 15.2309 45.0888 17.9863 44.9979C20.6287 44.8843 21.6224 43.2707 24.8294 43.2707C28.0138 43.2707 28.9172 44.9979 31.7177 44.9297C34.5634 44.8843 36.3701 42.3389 38.1092 39.7709C40.1192 36.8165 40.9548 33.953 41 33.7939C40.9322 33.7712 35.4668 31.6577 35.399 25.2943C35.3538 19.9764 39.7127 17.4311 39.9159 17.3175C37.4316 13.6586 33.6148 13.2495 32.2823 13.1586C28.8043 12.8859 25.8909 15.0676 24.2648 15.0676ZM30.1368 9.70421C31.6048 7.93157 32.5759 5.45442 32.3049 3C30.2045 3.0909 27.6751 4.40902 26.1619 6.18166C24.8068 7.74976 23.6324 10.2724 23.9486 12.6813C26.2748 12.8631 28.6688 11.4768 30.1368 9.70421Z" fill="#324558"/>
</svg>
