<svg width="48" height="48" viewBox="0 0 48 48" fill="none" xmlns="http://www.w3.org/2000/svg">
<path d="M24 4C35.046 4 44 12.954 44 24C44 35.046 35.046 44 24 44C12.954 44 4 35.046 4 24C4 12.954 12.954 4 24 4ZM17.646 30.686C16.856 29.732 15.874 29.392 14.688 29.668L14.388 29.75L13.208 31.782C12.9855 32.1443 12.9117 32.5787 13.0023 32.9941C13.0929 33.4095 13.3407 33.7738 13.6938 34.0106C14.0469 34.2474 14.478 34.3384 14.8967 34.2644C15.3154 34.1905 15.6893 33.9574 15.94 33.614L16.064 33.428L17.644 30.686H17.646ZM26.42 17.32C25.444 18.128 24.46 20.514 25.84 22.894L31.92 33.426C32.1305 33.7838 32.4684 34.049 32.8659 34.1685C33.2635 34.288 33.6916 34.253 34.0645 34.0706C34.4374 33.8882 34.7277 33.5717 34.8775 33.1845C35.0272 32.7973 35.0252 32.3678 34.872 31.982L34.774 31.782L33.17 28.998H35.55C35.7662 28.9985 35.9804 28.9563 36.1802 28.8737C36.38 28.7912 36.5616 28.6699 36.7144 28.517C36.8672 28.364 36.9882 28.1823 37.0705 27.9824C37.1528 27.7824 37.1948 27.5682 37.194 27.352C37.195 26.951 37.0491 26.5634 36.7837 26.2627C36.5184 25.962 36.1521 25.7689 35.754 25.72L35.548 25.708H31.268L26.88 18.114L26.42 17.322V17.32ZM26.976 11.232C26.6306 11.0336 26.2251 10.9669 25.8344 11.0441C25.4436 11.1212 25.094 11.3372 24.85 11.652L24.726 11.836L23.992 13.102L23.274 11.836C23.0635 11.4782 22.7256 11.213 22.3281 11.0935C21.9305 10.974 21.5024 11.009 21.1295 11.1914C20.7566 11.3738 20.4663 11.6903 20.3165 12.0775C20.1668 12.4647 20.1688 12.8942 20.322 13.28L20.42 13.48L22.096 16.394L16.726 25.7H12.532C12.316 25.6995 12.1019 25.7416 11.9022 25.8241C11.7025 25.9065 11.5211 26.0276 11.3683 26.1803C11.2156 26.3331 11.0945 26.5145 11.0121 26.7142C10.9296 26.9139 10.8875 27.128 10.888 27.344C10.888 28.186 11.512 28.876 12.326 28.978L12.532 28.99H27.492C28.172 27.71 27.372 25.892 25.872 25.714L25.63 25.7H20.524L27.58 13.48C27.798 13.1018 27.8568 12.6525 27.7436 12.2309C27.6303 11.8093 27.3542 11.45 26.976 11.232Z" fill="#324558"/>
</svg>
