<svg width="48" height="48" viewBox="0 0 48 48" fill="none" xmlns="http://www.w3.org/2000/svg">
<path d="M4 33.7542L7.37833 39.7281H7.38C7.71662 40.411 8.23202 40.9851 8.86881 41.3862C9.50559 41.7873 10.2388 41.9998 10.9867 42H33.415L28.7617 33.7542H4ZM44 33.7968C44 32.9719 43.7617 32.2032 43.3533 31.5572L30.2133 8.19695C29.8696 7.53362 29.3556 6.97861 28.7266 6.59153C28.0977 6.20446 27.3774 5.99996 26.6433 6H19.6983L39.9967 41.9642L43.1967 36.2971C43.8267 35.2114 44 34.7308 44 33.7968ZM25.4517 27.8962L16.38 11.8273L7.30667 27.8962H25.4517Z" fill="#324558"/>
</svg>
