<svg width="48" height="48" viewBox="0 0 48 48" fill="none" xmlns="http://www.w3.org/2000/svg">
<path d="M32.8234 16.3069C33.0604 16.4484 33.3312 16.523 33.6071 16.523C33.8831 16.523 34.1539 16.4484 34.3908 16.3069L40.7564 12.6603L37.3337 10.6771L24.0268 3L21.7876 4.27951C21.7236 4.3115 21.6677 4.34349 21.6117 4.37548C21.5557 4.40746 21.4997 4.43945 21.4358 4.47144L7.13721 12.6923L13.4708 16.3709C13.7077 16.5123 13.9785 16.587 14.2545 16.587C14.5304 16.587 14.8013 16.5123 15.0382 16.3709L18.237 14.5476L22.3954 12.1485C22.8694 11.866 23.411 11.7168 23.9628 11.7168C24.5146 11.7168 25.0562 11.866 25.5302 12.1485L28.793 14.0358L32.8234 16.3069Z" fill="#324558"/>
<path d="M35.5424 20.9132V29.326C35.5422 29.8768 35.3973 30.4178 35.1222 30.895C34.8471 31.3722 34.4515 31.7687 33.975 32.045L26.5219 36.3313C26.2888 36.4699 26.0956 36.6665 25.9611 36.902C25.8265 37.1374 25.7553 37.4037 25.7542 37.6748V45L40.1487 36.7152C40.1647 36.7152 40.1727 36.7072 40.1807 36.6992C40.1887 36.6912 40.1966 36.6832 40.2126 36.6832L42.7077 35.2437V15.8911L36.3741 19.5377C36.1205 19.666 35.9081 19.863 35.761 20.1062C35.6139 20.3494 35.5382 20.629 35.5424 20.9132Z" fill="#324558"/>
<path d="M13.9507 32.0769L21.1799 36.2353C21.4151 36.3744 21.6115 36.5703 21.7512 36.805C21.8909 37.0397 21.9695 37.3058 21.9796 37.5788V44.904L7.80903 36.7471C7.69827 36.6903 7.59141 36.6262 7.48915 36.5552L5.25 35.2757V15.923L11.6156 19.5696C11.8512 19.7053 12.0466 19.9013 12.1815 20.1374C12.3164 20.3735 12.386 20.6412 12.3833 20.9131V29.3579C12.3889 29.9076 12.5361 30.4466 12.8106 30.9228C13.0852 31.3991 13.4778 31.7966 13.9507 32.0769Z" fill="#324558"/>
</svg>
