<svg width="48" height="48" viewBox="0 0 48 48" fill="none" xmlns="http://www.w3.org/2000/svg">
<path d="M11.4491 25.0784C15.7134 24.1443 15.1326 18.9448 15.0044 17.8084C14.7957 16.0583 12.7762 12.9968 10.0332 13.2393C6.58122 13.5556 6.07893 18.6391 6.07893 18.6391C5.61177 20.99 7.19513 26.0124 11.4491 25.0784ZM15.976 34.1195C15.8519 34.4842 15.5729 35.4183 15.8147 36.2322C16.2901 38.0581 17.8446 38.1403 17.8446 38.1403H20.077V32.574H17.6854C16.6105 32.8987 16.0938 33.7526 15.976 34.1195ZM19.3618 16.362C21.7182 16.362 23.6199 13.5956 23.6199 10.1778C23.6199 6.76209 21.7182 4 19.3618 4C17.0116 4 15.1037 6.76209 15.1037 10.1778C15.1037 13.5956 17.0116 16.362 19.3618 16.362ZM29.5069 16.7689C32.6529 17.1864 34.6766 13.7601 35.0796 11.1625C35.491 8.56905 33.4591 5.55816 31.2308 5.03948C28.9984 4.51657 26.2099 8.16633 25.9557 10.5426C25.6518 13.4523 26.3629 16.3577 29.5069 16.7689ZM29.5069 24.0389C25.6518 17.9138 20.1783 20.406 18.3448 23.5223C16.5237 26.6365 13.6815 28.6037 13.2785 29.1266C12.8692 29.6411 7.39564 32.6541 8.61106 38.1593C9.82442 43.6603 14.0929 43.557 14.0929 43.557C14.0929 43.557 17.2369 43.8733 20.8852 43.0383C24.5356 42.2139 27.6775 43.2449 27.6775 43.2449C27.6775 43.2449 36.2041 46.1546 38.5357 40.5503C40.8674 34.9418 37.219 32.0363 37.219 32.0363C37.219 32.0363 32.3491 28.1926 29.5048 24.0389H29.5069ZM17.088 40.3795C14.6944 39.8925 13.7415 38.2268 13.6216 37.9421C13.5038 37.6533 12.8237 36.3144 13.1834 34.0351C14.2169 30.6215 17.1666 30.3769 17.1666 30.3769H20.1183V26.6766L22.6298 26.7188V40.3795H17.088ZM26.5758 40.3395C24.1036 39.6901 23.9899 37.8979 23.9899 37.8979V30.7038L26.5758 30.6616V37.1262C26.735 37.8177 27.5742 37.9421 27.5742 37.9421H30.2014V30.7038H32.9547V40.3395H26.5758ZM41.9836 21.1313C41.9836 19.8873 40.9707 16.1469 37.219 16.1469C33.4591 16.1469 32.9568 19.6786 32.9568 22.175C32.9568 24.5576 33.1531 27.8826 37.8226 27.7772C42.4941 27.6718 41.9836 22.3795 41.9836 21.1313Z" fill="#324558"/>
</svg>
