<svg width="48" height="48" viewBox="0 0 48 48" fill="none" xmlns="http://www.w3.org/2000/svg">
<path d="M33.6883 11.6174H35.1117C37.6283 11.7084 39.7267 12.5916 41.4 14.2702C43.0733 15.9472 43.94 18.0607 44 20.6073V33.0118C43.94 35.5567 43.0733 37.6787 41.4 39.3708C39.7267 41.0629 37.63 41.9393 35.1117 42H12.8883C10.3717 41.9393 8.27333 41.0629 6.6 39.3708C4.92667 37.6787 4.06 35.5584 4 33.0118V20.6073C4.06 18.0607 4.92667 15.9472 6.6 14.2702C8.27333 12.5916 10.37 11.7084 12.8883 11.6174H14.1783L12.2217 9.72977C12.0204 9.53166 11.8615 9.29397 11.7545 9.03136C11.6476 8.76874 11.595 8.48677 11.6 8.20281C11.6 7.60281 11.8067 7.09382 12.2217 6.67416L12.2667 6.62865C12.7117 6.20899 13.2217 6 13.8 6C14.3783 6 14.8883 6.20899 15.3333 6.62865L20.0883 11.2584C20.2067 11.3781 20.3117 11.4978 20.4 11.6174H27.5117C27.581 11.4841 27.671 11.3629 27.7783 11.2584L32.5333 6.62865C32.9783 6.20899 33.4883 6 34.0667 6C34.645 6 35.17 6.25449 35.615 6.67416C36.06 7.09382 36.2667 7.60281 36.2667 8.20281C36.2667 8.80112 36.06 9.31011 35.645 9.72977L33.6883 11.6174ZM12.8883 15.9775C11.645 16.0079 10.6 16.4427 9.755 17.2803C8.91167 18.1197 8.47333 19.1848 8.445 20.4725V33.1466C8.47333 34.4343 8.91167 35.4978 9.755 36.3371C10.6 37.1764 11.645 37.6112 12.8883 37.6399H35.1117C36.355 37.6112 37.4 37.1764 38.245 36.3371C39.0883 35.4978 39.5267 34.4343 39.555 33.1466V20.4725C39.5267 19.1831 39.0883 18.1197 38.245 17.2803C37.4 16.4427 36.355 16.0079 35.1117 15.9775H12.8883ZM17.3333 22.4949C17.955 22.4949 18.4733 22.7039 18.8883 23.1236C19.305 23.5433 19.5267 24.0826 19.555 24.7416V26.7185C19.5267 27.3775 19.305 27.9169 18.8883 28.3365C18.4733 28.7579 17.955 28.9669 17.3333 28.9669C16.7117 28.9669 16.1933 28.7562 15.7783 28.3365C15.3617 27.9169 15.14 27.3775 15.1117 26.7185V24.7416C15.1117 24.1129 15.3267 23.5803 15.755 23.1455C16.185 22.7124 16.7117 22.4949 17.3333 22.4949ZM30.6667 22.4949C31.2883 22.4949 31.8067 22.7039 32.2217 23.1236C32.6383 23.5433 32.86 24.0826 32.8883 24.7416V26.7185C32.86 27.3775 32.6383 27.9169 32.2217 28.3365C31.8067 28.7579 31.2883 28.9669 30.6667 28.9669C30.045 28.9669 29.5267 28.7562 29.1117 28.3365C28.695 27.9169 28.4733 27.3775 28.445 26.7185V24.7416C28.4733 24.0826 28.695 23.5433 29.1117 23.1236C29.5267 22.7039 30.045 22.4949 30.6667 22.4949Z" fill="#324558"/>
</svg>
