<svg width="48" height="48" viewBox="0 0 48 48" fill="none" xmlns="http://www.w3.org/2000/svg">
<path d="M31.5341 19.327C31.5341 19.327 30.9533 13.8303 25.5834 13.677C20.2117 13.527 17.4536 17.8003 17.4536 23.9103C17.4536 30.0188 20.502 34.9057 25.7309 34.9057C30.9548 34.9057 31.5357 28.7973 31.5357 28.7973L41.5505 29.4057C41.5505 29.4057 42.1411 34.9223 37.9476 39.1323C33.7606 43.3392 28.6121 44.0275 25.0254 43.9992C21.4324 43.9708 16.4512 44.0558 11.6373 39.0492C6.81705 34.0323 6 29.1655 6 24.3822C6 19.5987 6.91221 13.2652 12.6397 8.46517C16.5252 5.2 20.4709 4 24.4167 4C40.8926 4 42 19.4337 42 19.4337L31.5341 19.327Z" fill="#324558"/>
</svg>
