<svg width="48" height="48" viewBox="0 0 48 48" fill="none" xmlns="http://www.w3.org/2000/svg">
<path d="M33.0418 8.99994H39.0003V14.9584L33.0418 8.99994Z" fill="#324558"/>
<path d="M45.2135 24L35.314 14.1006L25.4146 24.0001L35.314 33.8996L45.2135 24Z" fill="#324558"/>
<path d="M33.8998 12.6864L24.0003 2.78687L14.1008 12.6864L24.0003 22.5858L33.8998 12.6864Z" fill="#324558"/>
<path d="M12.6866 14.1006L2.78711 24.0001L12.6866 33.8996L22.586 24L12.6866 14.1006Z" fill="#324558"/>
<path d="M24.0003 25.4143L14.1008 35.3138L24.0003 45.2132L33.8998 35.3138L24.0003 25.4143Z" fill="#324558"/>
<path d="M33.0421 38.9999L39.0003 33.0417V38.9999H33.0421Z" fill="#324558"/>
<path d="M14.9585 38.9999L9.00031 33.0417V38.9999H14.9585Z" fill="#324558"/>
<path d="M9.00031 14.9585L14.9588 8.99994H9.00031V14.9585Z" fill="#324558"/>
</svg>
