<svg width="48" height="48" viewBox="0 0 48 48" fill="none" xmlns="http://www.w3.org/2000/svg">
<path d="M42.0028 32.7838C42.6524 31.4458 43.1499 30.0392 43.4862 28.5904C43.8306 27.0934 44.0029 25.5621 43.9997 24.026C44.0035 21.3999 43.4899 18.7988 42.4884 16.3711C41.4869 13.9435 40.0171 11.7369 38.1628 9.87731C36.3085 8.01773 34.1061 6.54158 31.6813 5.53315C29.2565 4.52472 26.6569 4.00376 24.0308 4.00002H23.8881C21.261 3.99626 18.6589 4.51095 16.231 5.51459C13.8031 6.51823 11.5971 7.99109 9.7394 9.84877C7.88171 11.7065 6.40885 13.9125 5.40521 16.3404C4.40158 18.7683 3.88689 21.3703 3.89065 23.9975C3.88941 27.033 4.58221 30.0286 5.91607 32.7553C7.22666 35.3494 9.05137 37.6497 11.2792 39.5162C12.7055 38.7175 13.5328 37.8617 13.704 36.9203C13.8751 35.9789 13.4757 35.066 12.4773 33.8964C10.5753 31.7043 9.34303 29.0121 8.92711 26.1398C8.51119 23.2676 8.92912 20.3363 10.1312 17.6948C11.3333 15.0533 13.2688 12.8126 15.7077 11.2395C18.1465 9.66636 20.9859 8.82694 23.8881 8.8211H24.0308C26.9328 8.8197 29.7739 9.65352 32.2149 11.223C34.6559 12.7925 36.5937 15.0313 37.7968 17.6722C39 20.3131 39.4176 23.2444 39 26.1163C38.5824 28.9881 37.3471 31.6791 35.4416 33.8679C34.4431 35.0375 34.0438 36.0359 34.2149 36.9203C34.3861 37.8046 35.2134 38.7175 36.6397 39.4592C38.8607 37.6199 40.6852 35.3489 42.0028 32.7838Z" fill="#324558"/>
<path d="M32.3893 32.4699L32.7031 32.1276C33.005 31.8095 33.2906 31.4762 33.5589 31.1292C34.8848 29.3591 35.691 27.2544 35.887 25.0515C36.083 22.8486 35.661 20.6346 34.6683 18.6583C33.6757 16.6819 32.1518 15.0214 30.2677 13.8632C28.3836 12.705 26.2139 12.095 24.0023 12.1016H23.8597C23.2968 12.1045 22.7347 12.1426 22.1766 12.2157C20.1281 12.5021 18.1896 13.3177 16.5526 14.582C14.9155 15.8463 13.6364 17.5156 12.8415 19.4252C12.0465 21.3347 11.7632 23.4186 12.0196 25.4711C12.2759 27.5236 13.0629 29.4737 14.3031 31.1292C14.5714 31.4762 14.857 31.8094 15.1589 32.1276L15.4727 32.4699L15.5298 32.527C16.5853 33.7537 17.1273 35.0944 17.1273 36.4637C17.125 37.4853 16.8484 38.4874 16.3265 39.3656C15.8047 40.2437 15.0566 40.9657 14.1605 41.456C15.2262 42.0419 16.3435 42.5288 17.4981 42.9109L18.6677 43.2532C19.3661 42.7624 19.9742 42.1544 20.4649 41.456C21.52 40.0083 22.0711 38.2547 22.0339 36.4637C21.9956 35.1034 21.7155 33.7607 21.2066 32.4985C20.6937 31.2459 19.9593 30.0959 19.0386 29.1038L18.8389 28.8755C18.4672 28.4691 18.133 28.0299 17.8405 27.5633C17.4867 26.9697 17.2269 26.325 17.0702 25.652C16.7236 24.2137 16.8404 22.7027 17.404 21.3347C17.9676 19.9668 18.949 18.812 20.2082 18.0352C21.0318 17.5166 21.955 17.1765 22.9183 17.0368L23.9167 16.9797H24.0594L25.0578 17.0368C26.021 17.1765 26.9443 17.5166 27.7679 18.0352C28.5724 18.5341 29.2677 19.1906 29.8118 19.9652C30.356 20.7398 30.7379 21.6165 30.9344 22.5425C31.1477 23.5607 31.1282 24.6139 30.8773 25.6235C30.7189 26.2959 30.4592 26.9404 30.1071 27.5348C29.8145 28.0014 29.4804 28.4406 29.1086 28.847L28.909 29.0752C27.9882 30.0674 27.2538 31.2173 26.7409 32.4699C26.2217 33.729 25.9411 35.0736 25.9136 36.4352C25.8764 38.2261 26.4276 39.9798 27.4826 41.4275C27.972 42.127 28.5803 42.7352 29.2798 43.2247L30.4494 42.8823C31.6041 42.5003 32.7213 42.0133 33.7871 41.4275C32.8856 40.9409 32.1318 40.2206 31.6047 39.3421C31.0777 38.4637 30.7969 37.4596 30.7917 36.4352C30.7917 35.0659 31.3052 33.7822 32.3893 32.4985C32.3607 32.4699 32.3893 32.4699 32.3893 32.4699Z" fill="#324558"/>
<path d="M27.2468 22.0101C27.6793 22.6575 27.9102 23.4186 27.9102 24.1972C27.9102 25.2413 27.4955 26.2426 26.7572 26.9809C26.0189 27.7192 25.0176 28.134 23.9735 28.134C23.1949 28.134 22.4337 27.9031 21.7863 27.4705C21.139 27.0379 20.6344 26.4231 20.3364 25.7038C20.0384 24.9844 19.9605 24.1929 20.1124 23.4292C20.2643 22.6656 20.6392 21.9641 21.1898 21.4135C21.7404 20.863 22.4418 20.488 23.2055 20.3361C23.9691 20.1842 24.7607 20.2622 25.48 20.5602C26.1993 20.8581 26.8142 21.3627 27.2468 22.0101Z" fill="#324558"/>
</svg>
