<svg width="48" height="48" viewBox="0 0 48 48" fill="none" xmlns="http://www.w3.org/2000/svg">
<path d="M19.654 43.526C10.7 41.542 4 33.554 4 24C4 20.356 4.974 16.94 6.678 13.996L15.244 28.834C16.2064 30.5783 17.6679 31.9952 19.4411 32.9032C21.2142 33.8112 23.2182 34.1687 25.196 33.93L19.656 43.526H19.654ZM24 44L32.574 29.15C33.5099 27.5954 34.003 25.8146 34 24C34.0032 21.8358 33.3011 19.7295 32 18H43.084C43.68 19.894 44 21.91 44 24C44 35.046 35.046 44 24 44ZM29.144 27.09C28.6066 27.9859 27.8445 28.7259 26.9332 29.2367C26.0219 29.7475 24.9929 30.0114 23.9483 30.0023C22.9036 29.9932 21.8794 29.7114 20.9771 29.1848C20.0748 28.6582 19.3257 27.9051 18.804 27L18.746 26.9C18.2395 25.9822 17.9824 24.9478 18.0001 23.8997C18.0178 22.8516 18.3098 21.8264 18.847 20.9263C19.3842 20.0262 20.1478 19.2825 21.0619 18.7693C21.9759 18.2561 23.0084 17.9913 24.0566 18.0014C25.1048 18.0114 26.1321 18.2959 27.0362 18.8265C27.9402 19.357 28.6895 20.1152 29.2094 21.0255C29.7292 21.9357 30.0015 22.9663 29.9992 24.0145C29.9969 25.0628 29.7199 26.0921 29.196 27L29.144 27.09ZM9.264 10.478C11.1355 8.43379 13.4124 6.80198 15.9496 5.68663C18.4867 4.57128 21.2285 3.99686 24 4.00001C27.5115 3.99859 30.9614 4.92208 34.0026 6.67756C37.0438 8.43304 39.569 10.9586 41.324 14H24C22.0409 13.9998 20.1248 14.5749 18.4896 15.654C16.8544 16.7331 15.5722 18.2686 14.802 20.07L9.264 10.478Z" fill="#324558"/>
</svg>
