<svg width="48" height="48" viewBox="0 0 48 48" fill="none" xmlns="http://www.w3.org/2000/svg">
<path d="M23.3721 0.105784L23.4951 0L23.6405 0.299727L39.9039 12.0535L14.4911 7.74625L23.2998 0.16796L23.2257 0L23.3721 0.105784Z" fill="#324558"/>
<path d="M25.5243 31.3716L14.4706 9.26416L21.9164 10.5262L25.5243 31.3716Z" fill="#324558"/>
<path d="M31.1753 42.6736L31.1988 42.7206L36.9999 29.9256L29.0686 11.7384L23.4847 10.792L27.7219 35.2735L31.1753 42.6736Z" fill="#324558"/>
<path d="M30.3291 44.3354L30.35 44.3249L24.9055 48L10.1113 41.3033L26.3928 36.4628L30.3291 44.3354Z" fill="#324558"/>
<path d="M13.8056 11.2884L25.7117 35.1004L10.1954 39.7134L13.8056 11.2884Z" fill="#324558"/>
</svg>
