<svg width="48" height="48" viewBox="0 0 48 48" fill="none" xmlns="http://www.w3.org/2000/svg">
<path d="M34.8978 34.9573C38.2217 34.9575 41.8331 32.7512 42.645 29.4769C43.577 25.7171 41.3925 21.8424 37.7276 20.7601C37.0264 20.5531 36.3063 20.4857 35.5781 20.4869C34.8244 20.4881 34.0708 20.4878 33.307 20.4876L32.338 20.4874C32.4128 17.7312 31.4479 15.4563 29.2852 13.7625C27.9062 12.6824 26.3186 12.177 24.581 12.2334C22.6126 12.2972 20.9128 13.0469 19.5165 14.4588C18.1239 15.8667 17.397 17.5894 17.2653 19.5328L14.2532 18.4844C14.5214 15.1303 17.2103 10.4974 22.4224 9.28135C28.3677 7.89404 33.8775 11.8058 35.1705 17.3081C35.326 17.3081 35.4834 17.3033 35.6418 17.2984C35.987 17.2878 36.3369 17.277 36.6812 17.316C40.7171 17.7723 43.5795 19.9103 45.175 23.6689C47.1464 28.3132 45.4716 33.7831 41.3548 36.5036C39.6436 37.6346 36.9419 38.1879 34.9057 38.1925L34.8978 34.9573Z" fill="#324558"/>
<path d="M32.5092 38.1737C32.5092 38.1737 27.6258 38.2101 23.6067 38.1819C19.3799 38.1523 15.9696 35.418 14.9164 31.7009C14.0017 28.4731 14.7357 25.5816 16.9332 23.0674C18.3314 21.4678 20.0659 20.4423 22.1641 20.0778C25.7019 19.463 29.2627 21.0555 31.1683 24.1138C32.3985 26.0881 32.8595 28.2348 32.5295 30.5479C32.5089 30.6926 32.4753 30.7694 32.3051 30.769C30.1639 30.7654 28.0229 30.7652 25.8818 30.765L23.742 30.7647C23.7158 30.7647 23.6896 30.761 23.6575 30.7564C23.6404 30.7539 23.6216 30.7512 23.6002 30.7487C23.5986 30.7214 23.5967 30.6948 23.5948 30.6685C23.5907 30.6115 23.5867 30.5563 23.5866 30.5011C23.5858 29.6145 23.5856 28.7277 23.5864 27.841C23.5866 27.4811 23.6257 27.4435 23.9894 27.4435H29.1455C29.1303 27.3958 29.1171 27.3508 29.1045 27.3079C29.0794 27.2227 29.0568 27.1456 29.0259 27.0723C28.1809 25.0695 26.6942 23.8244 24.5668 23.4676C22.4341 23.1095 20.5716 23.7459 19.1705 25.4245C17.0159 28.0063 17.6905 32.1179 20.5185 33.9757C21.4925 34.6157 22.5574 34.9335 23.7229 34.9323C27.7007 34.9283 32.5014 34.9314 32.5014 34.9314L32.5092 38.1737Z" fill="#324558"/>
<path d="M15.0819 36.737L13.1099 34.2226C10.6778 35.314 8.09506 34.5512 6.55184 32.7734C4.92843 30.9032 4.65636 28.2186 5.87223 26.0527C6.45952 25.0067 7.28798 24.2129 8.36062 23.7004C9.95625 22.9381 11.5695 22.961 13.11 23.6343L15.0885 21.1172C11.9728 19.2104 7.15226 19.4763 4.11886 23.0929C1.12761 26.6592 1.32887 31.9597 4.56167 35.2616C7.7642 38.5325 12.3572 38.4654 15.0819 36.737Z" fill="#324558"/>
</svg>
