<svg width="48" height="48" viewBox="0 0 48 48" fill="none" xmlns="http://www.w3.org/2000/svg">
<path d="M24 20.4041L18.606 24.0001L24 27.5961L29.394 24.0001L24 20.4041ZM33 21.5961L38.394 18.0001L26 9.73815V16.9301L33 21.5961ZM40 21.7361L36.606 24.0001L40 26.2621V21.7361ZM33 26.4041L26 31.0701V38.2621L38.394 30.0001L33 26.4041ZM22 16.9301V9.73815L9.606 18.0001L15 21.5961L22 16.9301ZM9.606 30.0001L22 38.2621V31.0701L15 26.4041L9.606 30.0001ZM11.394 24.0001L8 21.7381V26.2621L11.394 24.0001ZM4 18.0001C3.99995 17.671 4.08116 17.3469 4.23641 17.0566C4.39166 16.7663 4.61617 16.5188 4.89 16.3361L22.89 4.33615C23.2187 4.11687 23.6049 3.99985 24 3.99985C24.3951 3.99985 24.7813 4.11687 25.11 4.33615L43.11 16.3361C43.3838 16.5188 43.6083 16.7663 43.7636 17.0566C43.9188 17.3469 44 17.671 44 18.0001V30.0001C44 30.3293 43.9188 30.6534 43.7636 30.9437C43.6083 31.234 43.3838 31.4814 43.11 31.6641L25.11 43.6641C24.7813 43.8834 24.3951 44.0004 24 44.0004C23.6049 44.0004 23.2187 43.8834 22.89 43.6641L4.89 31.6641C4.61617 31.4814 4.39166 31.234 4.23641 30.9437C4.08116 30.6534 3.99995 30.3293 4 30.0001V18.0001Z" fill="#324558"/>
</svg>
