<svg width="48" height="48" viewBox="0 0 48 48" fill="none" xmlns="http://www.w3.org/2000/svg">
<path d="M43.8141 12.0166C43.4516 12.6211 42.9684 13.4069 42.5454 14.0718C35.2965 25.859 25.8124 26.1613 14.637 20.8419C11.6165 19.3307 8.17325 17.6987 6.42142 16.9129C5.81734 16.6106 5.51531 15.8248 5.81734 15.2203L9.74388 6.33459C10.0459 5.73011 10.7708 5.42788 11.4353 5.73011L19.6508 9.59873C25.5709 12.4398 28.8932 13.0442 32.1553 7.66443C32.6385 6.87862 33.0615 6.15324 33.3635 5.60921C33.7258 5.00475 34.5112 4.8234 35.1153 5.18608L43.3913 10.2637C43.9952 10.6263 44.1766 11.4122 43.8141 12.0166Z" fill="#324558"/>
<path d="M4.18596 36.3167C4.54841 35.7122 5.03169 34.9264 5.45454 34.2614C12.7035 22.4743 22.1875 22.1117 33.3631 27.4914C36.3834 29.0026 39.8267 30.6346 41.5785 31.4204C42.1827 31.7227 42.4847 32.5086 42.1827 33.1129L38.2561 41.9987C37.9541 42.6032 37.2292 42.9055 36.5647 42.6032L28.3491 38.7345C22.4292 35.8936 19.1067 35.2891 15.8447 40.6688C15.3614 41.4547 14.9386 42.18 14.6366 42.724C14.2741 43.3285 13.4888 43.5098 12.8847 43.1472L4.60883 38.0697C4.00475 37.707 3.82352 36.9212 4.18596 36.3167Z" fill="#324558"/>
</svg>
