<svg width="48" height="48" viewBox="0 0 48 48" fill="none" xmlns="http://www.w3.org/2000/svg">
<path d="M15.8264 26.1344L25.3911 16.5697C26.3516 15.6092 27.9088 15.6092 28.8692 16.5697L31.043 18.7435C32.0035 19.7039 32.0035 21.2611 31.043 22.2216L21.4783 31.7863C20.5178 32.7467 18.9606 32.7467 18.0002 31.7863L15.8264 29.6125C14.8659 28.652 14.8659 27.0949 15.8264 26.1344Z" fill="#324558"/>
<path fill-rule="evenodd" clip-rule="evenodd" d="M12.5223 35.3516L11.0441 36.8299C9.65143 38.2225 7.39351 38.2225 6.00086 36.8299L3.04449 33.8735C1.65184 32.4808 1.65184 30.2229 3.04449 28.8303L4.62436 27.2504C3.37066 25.2128 3.62662 22.5092 5.39223 20.7436L20.0871 6.04872C22.1521 3.98376 25.5001 3.98376 27.565 6.04872L34.6946 13.1783L36.9559 10.917C38.3485 9.5244 40.6065 9.5244 41.9991 10.917L44.9555 13.8734C46.3481 15.2661 46.3481 17.524 44.9555 18.9166L42.3909 21.4813C43.1481 23.3842 42.7566 25.638 41.2165 27.1781L26.5216 41.873C24.4566 43.938 21.1087 43.938 19.0437 41.873L12.5223 35.3516ZM14.4352 31.0037C12.7063 29.2749 12.7063 26.472 14.4352 24.7432L23.9999 15.1784C25.7287 13.4496 28.5316 13.4496 30.2604 15.1784L32.4342 17.3522C34.163 19.081 34.163 21.884 32.4342 23.6128L22.8695 33.1775C21.1407 34.9063 18.3378 34.9063 16.609 33.1775L14.4352 31.0037Z" fill="#324558"/>
</svg>
