<svg width="48" height="48" viewBox="0 0 48 48" fill="none" xmlns="http://www.w3.org/2000/svg">
<path d="M24 4C12.954 4 4 12.954 4 24C4 35.046 12.954 44 24 44C35.046 44 44 35.046 44 24C44 12.954 35.046 4 24 4ZM32.98 22.08L32.968 22.108C32.128 23.904 29.936 27.428 29.936 27.428L29.926 27.404L29.286 28.52H32.372L26.476 36.358L27.816 31.026H25.386L26.23 27.5C25.548 27.664 24.74 27.89 23.784 28.198C23.784 28.198 22.492 28.954 20.06 26.74C20.06 26.74 18.42 25.296 19.372 24.936C19.776 24.782 21.334 24.586 22.56 24.422C24.22 24.198 25.238 24.078 25.238 24.078C25.238 24.078 20.128 24.154 18.916 23.964C17.704 23.774 16.166 21.75 15.838 19.972C15.838 19.972 15.332 18.996 16.928 19.458C18.524 19.92 25.13 21.258 25.13 21.258C25.13 21.258 16.54 18.624 15.966 17.98C15.394 17.34 14.284 14.472 14.428 12.712C14.428 12.712 14.49 12.272 14.942 12.392C14.942 12.392 21.294 15.292 25.636 16.882C29.98 18.472 33.756 19.28 33.268 21.338C33.228 21.512 33.124 21.77 32.98 22.078V22.08Z" fill="#324558"/>
</svg>
