<svg width="48" height="48" viewBox="0 0 48 48" fill="none" xmlns="http://www.w3.org/2000/svg">
<path d="M24 4C35.046 4 44 12.954 44 24C44 35.046 35.046 44 24 44C18.94 44 14.32 42.12 10.798 39.024L3 40L5.848 32.406C4.66 29.85 4 27.002 4 24C4 12.954 12.954 4 24 4ZM16 14V34H23.466L23.992 33.992C30.742 33.786 34.666 29.57 34.666 23.942V23.888L34.66 23.458C34.46 17.912 30.42 14 23.58 14H16ZM23.662 18.916C26.918 18.916 29.08 20.772 29.08 23.974V24.03L29.07 24.396C28.912 27.396 26.794 29.086 23.662 29.086H21.446V18.916H23.662Z" fill="#324558"/>
</svg>
