<svg width="48" height="48" viewBox="0 0 48 48" fill="none" xmlns="http://www.w3.org/2000/svg">
<g clip-path="url(#clip0_2937_3814)">
<path d="M9.64125 34.191C8.27306 34.191 7.03239 33.0549 7.03239 31.677C7.03239 30.2991 8.15304 29.1569 9.64275 29.1569C11.1385 29.1569 12.2636 30.293 12.2636 31.6755C12.2636 33.058 11.0199 34.1895 9.64125 34.1925V34.191ZM41.6691 20.4773C41.3991 18.4651 40.1689 16.8271 38.5487 15.5694L37.9186 15.0629L37.41 15.691C36.4214 16.8271 36.0299 18.8408 36.1499 20.3449C36.2699 21.4841 36.6299 22.6156 37.2585 23.4962C36.75 23.7593 36.1229 24.0027 35.6383 24.2612C34.4981 24.6399 33.3895 24.7677 32.2778 24.7677H0.192955L0.0729387 25.5174C-0.175157 27.9687 0.212161 30.4431 1.19659 32.696L1.68416 33.5781V33.6998C4.68457 38.7354 10.0253 41 15.8416 41C27.0316 41 36.2084 36.0921 40.559 25.522C43.4094 25.6482 46.2883 24.8939 47.6399 22.1228L48 21.4947L47.3999 21.116C45.7797 20.1138 43.5594 19.9799 41.6991 20.4879L41.6691 20.4773ZM25.6514 18.4651H20.7953V23.373H25.6559V18.4621L25.6514 18.4651ZM25.6514 12.2949H20.7953V17.2028H25.6559V12.301L25.6514 12.2949ZM20.7953 6V10.9079H25.6559V6H20.7953ZM31.5923 18.4651H26.7631V23.373H31.6043V18.4621L31.5923 18.4651ZM13.5928 18.4651H8.76663V23.373H13.6108V18.4621L13.5928 18.4651ZM19.6536 18.4651H14.853V23.373H19.6821V18.4621L19.6536 18.4651ZM7.59197 18.4651H2.79881V23.373H7.65498V18.4621L7.59197 18.4651ZM19.6536 12.2949H14.853V17.2028H19.6821V12.301L19.6536 12.2949ZM13.5628 12.2949H8.77413V17.2028H13.6003V12.301L13.5628 12.2949Z" fill="#324558"/>
</g>
<defs>
<clipPath id="clip0_2937_3814">
<rect width="48" height="48" fill="white"/>
</clipPath>
</defs>
</svg>
