<svg width="48" height="48" viewBox="0 0 48 48" fill="none" xmlns="http://www.w3.org/2000/svg">
<path fill-rule="evenodd" clip-rule="evenodd" d="M24 44C35.0457 44 44 35.0457 44 24C44 12.9543 35.0457 4 24 4C12.9543 4 4 12.9543 4 24C4 35.0457 12.9543 44 24 44ZM30.3667 12.0783C28.4567 10.9883 26.2667 10.4616 24.0667 10.4299V10.4333C21.8705 10.4029 19.6947 10.8582 17.695 11.7666C12.8433 13.9999 10.8667 18.2883 10.375 19.4366C11.4001 18.5886 12.5971 17.9733 13.8833 17.6333C12.6605 19.0432 11.7804 20.7168 11.3117 22.5233C10.11 27.2033 12.2267 30.9766 12.5933 31.6099C13.3986 32.9777 14.4724 34.1682 15.75 35.1099C17.1624 36.1587 18.7639 36.9249 20.4667 37.3666C21.2865 37.5864 22.1262 37.7243 22.9733 37.7783C23.0955 37.787 23.2177 37.7942 23.34 37.7999C25.5571 37.9117 27.7654 37.4478 29.75 36.4533C31.4589 35.5878 32.9552 34.355 34.1317 32.8433C32.965 32.2385 31.9108 31.438 31.015 30.4766C29.4827 28.8094 28.4677 26.7331 28.0933 24.4999C28.081 24.3888 28.0678 24.277 28.0547 24.1655C28.0147 23.8255 27.9751 23.4887 27.96 23.1849C27.9594 23.0677 27.9581 22.9489 27.9567 22.8324C27.9542 22.6112 27.9517 22.3985 27.955 22.2216C27.9885 21.3164 28.1295 20.4185 28.375 19.5466C28.475 19.2266 28.58 18.9116 28.68 18.6366C29.4346 16.6319 30.7333 14.8773 32.43 13.5699C31.9617 13.1483 31.2817 12.5949 30.3667 12.0783ZM34.7967 15.5633C34.3433 15.1249 33.9067 14.8199 33.57 14.6099C32.6826 15.2642 31.9046 16.0552 31.265 16.9533C30.6781 17.7909 30.2249 18.7147 29.9217 19.6916C29.6598 20.5367 29.5102 21.4125 29.4767 22.2966C30.0396 22.0142 30.6249 21.7789 31.2267 21.5933C32.0675 21.3328 32.9343 21.1652 33.8117 21.0933C35.113 21.8099 36.2685 22.7642 37.2183 23.9066C37.4808 22.6404 37.4734 21.3331 37.1967 20.0699L37.1951 20.0627C37.0763 19.5224 36.8486 18.4864 36.1633 17.3199C35.5933 16.3433 34.9767 15.7349 34.7967 15.5633Z" fill="#324558"/>
</svg>
