<svg width="48" height="48" viewBox="0 0 48 48" fill="none" xmlns="http://www.w3.org/2000/svg">
<path d="M30.5909 21.809C31.0301 22.0801 31.3066 22.5311 31.3178 22.9863L31.5333 32.1507L31.387 32.214L28.7031 30.5508L28.5353 23.4398L21.5177 19.0922L21.4551 16.4345L21.7286 16.3164L30.5909 21.809Z" fill="#324558"/>
<path fill-rule="evenodd" clip-rule="evenodd" d="M31.4919 8.28451L43.8656 15.9541C44.3669 16.2646 44.6845 16.7769 44.6968 17.2983L44.999 30.1682C45.0112 30.6898 44.7183 31.1411 44.2295 31.352L32.1591 36.5544C32.1131 36.5742 32.0661 36.5915 32.0203 36.606C31.5577 36.7521 31.0134 36.6755 30.5585 36.3938L18.1858 28.7266C17.6845 28.4159 17.3668 27.9038 17.3548 27.3824L17.0513 14.5101C17.039 13.9887 17.333 13.5396 17.8219 13.3287L29.8912 8.12403C29.9352 8.10527 29.9801 8.08864 30.0258 8.07419C30.4912 7.9271 31.0353 8.00167 31.4919 8.28451ZM20.5359 26.8615L31.2899 33.5256L41.7788 29.002L41.5143 17.8168L30.7614 11.1551L20.2715 15.6763L20.5359 26.8615Z" fill="#324558"/>
<path d="M12.4714 30.3659L20.7047 35.4686L24.3314 33.9051L27.1662 35.6616L21.4655 38.119C21.4266 38.1365 21.3865 38.1517 21.3452 38.1647C20.942 38.2921 20.4637 38.2254 20.0662 37.9794L10.4158 31.997C9.97658 31.7257 9.69876 31.2779 9.68983 30.8219L9.45274 20.7812C9.44158 20.3262 9.69913 19.932 10.1263 19.7458L15.9506 17.235L16.0201 20.1851L12.269 21.8008L12.4714 30.3659Z" fill="#324558"/>
<path d="M11.6507 36.9722L5.56404 33.2006L5.41601 26.871L8.40005 25.5842L8.34017 23.0562L3.57784 25.1093C3.21151 25.2687 2.99134 25.6047 3.00026 25.9967L3.17896 33.5902C3.18789 33.982 3.42591 34.3656 3.8021 34.6005L11.1016 39.124C11.4417 39.3344 11.8519 39.392 12.1978 39.2827C12.2323 39.2718 12.2638 39.2595 12.2951 39.2472L12.301 39.2449L16.7803 37.3139L14.3508 35.8077L11.6507 36.9722Z" fill="#324558"/>
<path d="M19.963 33.6385L19.9048 31.1625L17.5718 29.7169C17.5517 29.7044 17.533 29.6907 17.5143 29.6769C17.5007 29.667 17.487 29.6569 17.4728 29.6474L17.5318 32.1317L19.963 33.6385Z" fill="#324558"/>
<path d="M13.5257 25.6594L13.4658 23.1313L16.1282 24.7802L16.1878 27.3092L13.5257 25.6594Z" fill="#324558"/>
</svg>
