<svg width="48" height="48" viewBox="0 0 48 48" fill="none" xmlns="http://www.w3.org/2000/svg">
<path d="M16.8636 14.0032C16.4062 14.4241 15.7074 14.4576 15.2902 14.4576H10.8219C9.53015 14.4576 8.75932 14.4576 8.23838 14.5267C7.95461 14.5623 7.60731 14.7026 7.43154 14.7717C7.36166 14.8053 7.36166 14.7717 7.39554 14.7382L17.5942 4.39267C17.6302 4.35707 17.6641 4.35707 17.6302 4.42827C17.5175 4.6847 17.4351 4.95314 17.3846 5.22827C17.3147 5.74974 17.3147 6.51623 17.3147 7.80419V12.4367C17.3147 12.8555 17.2787 13.5529 16.8615 14.0032H16.8636ZM26.7786 43.7079C25.5927 42.9414 24.9637 41.932 24.7181 41.3058C24.4671 40.6973 24.3369 40.0467 24.3348 39.3896C24.3365 37.997 24.8961 36.6619 25.8912 35.6767C26.8863 34.6914 28.2357 34.1363 29.6438 34.133C30.5163 34.133 31.2151 34.8283 31.2151 35.6995C31.2168 35.9764 31.1429 36.2486 31.0013 36.4874C30.8597 36.7262 30.6555 36.9229 30.4104 37.0566C30.2251 37.1569 30.025 37.2275 29.8174 37.266C29.6438 37.3016 28.9788 37.3707 28.6675 37.6493C28.479 37.7948 28.3248 37.9792 28.2158 38.1897C28.1069 38.4003 28.0456 38.6318 28.0365 38.8681C28.0343 39.3764 28.2352 39.8649 28.5955 40.2273C29.2245 40.8534 30.0631 41.2011 30.9715 41.2011C31.5379 41.1989 32.0983 41.0864 32.6207 40.8699C33.1431 40.6535 33.6173 40.3374 34.0161 39.9397C34.4149 39.5419 34.7306 39.0704 34.9451 38.552C35.1596 38.0336 35.2687 37.4785 35.2662 36.9184C35.2662 34.7948 33.8346 32.9121 31.9478 32.0786C31.6683 31.9383 31.2151 31.8335 30.7958 31.7288C30.4487 31.658 30.099 31.6 29.7475 31.555C28.28 31.3791 24.6143 30.2314 24.3687 26.9937C24.3687 26.9937 23.2886 31.8691 21.1202 33.1927C20.9126 33.2974 20.6331 33.4021 20.3176 33.4712C20.0041 33.5403 19.6568 33.576 19.5488 33.576C16.0229 33.7854 12.2852 32.6691 9.70169 30.0241C9.70169 30.0241 7.95461 28.5958 7.04825 24.5917C6.8386 23.6157 6.4193 21.8733 6.17577 20.2356C6.06988 19.6471 6.03388 19.1927 6 18.7738C6 17.0691 7.04825 15.9194 8.37391 15.7477H15.4999C16.7196 15.7477 17.4206 15.4335 17.8738 15.0147C18.4667 14.4576 18.6086 13.6555 18.6086 12.7152V5.36859C18.778 4.08063 19.9364 3 21.6453 3H22.4839C22.8334 3 23.2526 3.0356 23.6359 3.06911C23.9155 3.10471 24.159 3.17382 24.5783 3.27853C26.7087 3.80209 27.1619 5.95917 27.1619 5.95917L33.2057 7.00629C35.1264 7.35393 39.8763 7.66807 40.7827 12.4388C42.9131 23.7896 41.6213 34.7948 41.5175 34.7948C40.014 45.5194 31.0753 44.9959 31.0753 44.9959C29.5414 45.0266 28.0371 44.5757 26.7786 43.7079ZM32.3311 22.1183C32.2612 22.2943 32.1913 22.5016 32.2252 22.6063C32.2633 22.711 32.3332 22.7445 32.4031 22.7801C32.8224 22.9896 33.5191 23.0943 34.5335 23.199C35.5457 23.3037 36.2445 23.3728 36.6977 23.3037C36.7676 23.3037 36.8396 23.2681 36.9095 23.1634C36.9794 23.0587 36.9434 22.8492 36.9434 22.6754C36.8375 21.7351 35.965 21.0398 34.813 20.8995C33.6589 20.7948 32.6826 21.2492 32.3311 22.1183Z" fill="#324558"/>
</svg>
