<svg width="48" height="48" viewBox="0 0 48 48" fill="none" xmlns="http://www.w3.org/2000/svg">
<path d="M27.4099 5.4499C26.9646 4.99084 26.4331 4.62615 25.8466 4.37719C25.2602 4.12823 24.6304 4 23.9943 4C23.3582 4 22.7285 4.12823 22.142 4.37719C21.5555 4.62615 21.0241 4.99084 20.5788 5.4499L3.40737 23.1231C2.50466 24.0661 2 25.3269 2 26.639C2 27.9512 2.50466 29.2119 3.40737 30.1549L15.6616 42.7697C16.5398 43.5611 17.6751 43.9989 18.8517 44H29.1425C29.7823 43.9994 30.4156 43.8695 31.0051 43.6178C31.5945 43.3661 32.1281 42.9977 32.5745 42.5344L44.5905 30.1661C45.4945 29.2237 46 27.9627 46 26.6501C46 25.3376 45.4945 24.0766 44.5905 23.1342L27.4118 5.4499H27.4099ZM26.9332 37.7316L25.219 39.4918C25.1554 39.5586 25.0791 39.6118 24.9947 39.6481C24.9102 39.6844 24.8194 39.7031 24.7277 39.7031H23.261C23.0937 39.7013 22.9327 39.6381 22.8081 39.5252L21.0591 37.7279C20.9303 37.5931 20.8583 37.4131 20.8583 37.2257C20.8583 37.0384 20.9303 36.8583 21.0591 36.7236L23.5103 34.2036C23.5736 34.1378 23.6492 34.0854 23.7328 34.0497C23.8164 34.0139 23.9063 33.9955 23.9971 33.9955C24.0879 33.9955 24.1777 34.0139 24.2613 34.0497C24.3449 34.0854 24.4206 34.1378 24.4838 34.2036L26.9351 36.7254C27.0649 36.86 27.1375 37.0405 27.1375 37.2285C27.1375 37.4164 27.0649 37.597 26.9351 37.7315L26.9332 37.7316ZM26.9332 27.1495L20.0819 34.2054C20.0177 34.2711 19.9411 34.3231 19.8568 34.3584C19.7724 34.3937 19.6819 34.4116 19.5906 34.4111H18.1257C17.9572 34.4122 17.7942 34.3509 17.6674 34.2388L15.9238 32.4415C15.7943 32.3063 15.7219 32.1256 15.7219 31.9375C15.7219 31.7493 15.7943 31.5686 15.9238 31.4335L23.5122 23.6252C23.5756 23.5599 23.6514 23.5079 23.735 23.4725C23.8185 23.437 23.9083 23.4188 23.9989 23.4188C24.0896 23.4188 24.1793 23.437 24.2629 23.4725C24.3464 23.5079 24.4222 23.5599 24.4857 23.6252L26.9369 26.1489C27.0663 26.2826 27.1388 26.4622 27.1388 26.6492C27.1388 26.8362 27.0663 27.0158 26.9369 27.1495L26.9332 27.1495ZM26.9332 16.5749L14.943 28.9153C14.8792 28.9818 14.8028 29.0346 14.7184 29.0706C14.634 29.1065 14.5432 29.1249 14.4516 29.1247H12.9849C12.8167 29.1254 12.6542 29.0634 12.5284 28.9505L10.7812 27.1495C10.6526 27.0154 10.5807 26.836 10.5807 26.6492C10.5807 26.4625 10.6526 26.283 10.7812 26.1489L23.5103 13.0487C23.5738 12.9833 23.6495 12.9314 23.7331 12.896C23.8167 12.8605 23.9064 12.8422 23.9971 12.8422C24.0877 12.8422 24.1774 12.8605 24.261 12.896C24.3446 12.9314 24.4203 12.9833 24.4838 13.0487L26.9351 15.5687C27.0648 15.7033 27.1375 15.8838 27.1375 16.0718C27.1375 16.2597 27.0648 16.4402 26.9351 16.5748L26.9332 16.5749Z" fill="#324558"/>
</svg>
