<svg width="48" height="48" viewBox="0 0 48 48" fill="none" xmlns="http://www.w3.org/2000/svg">
<path d="M27.6223 18.6505C27.6925 19.0818 27.9012 19.4784 28.217 19.7803L22.4594 25.538L28.2197 19.7826C28.522 20.0977 28.9186 20.3057 29.3497 20.3753C29.7807 20.4448 30.2227 20.3721 30.6087 20.1681C30.9947 19.9641 31.3038 19.6399 31.4891 19.2446C31.6745 18.8493 31.7261 18.4044 31.6361 17.9771C31.6259 17.926 31.628 17.8732 31.6422 17.823C31.6565 17.7729 31.6825 17.7268 31.7181 17.6887L42 6.5791L20.8313 38.7965L20.0248 27.9726L9.20362 27.1594L0 17.9634L41.4198 6.00053L30.3086 16.2796C30.2705 16.3152 30.2245 16.3412 30.1743 16.3555C30.1242 16.3697 30.0713 16.3718 30.0202 16.3616C29.5927 16.2715 29.1474 16.3232 28.7519 16.5089C28.3564 16.6945 28.0322 17.004 27.8283 17.3905C27.6245 17.7769 27.5522 18.2193 27.6223 18.6505Z" fill="#324558"/>
<path d="M42 6.5791L30.0346 47.9952L20.8336 38.7965L42 6.5791Z" fill="#324558"/>
</svg>
