<svg width="48" height="48" viewBox="0 0 48 48" fill="none" xmlns="http://www.w3.org/2000/svg">
<path fill-rule="evenodd" clip-rule="evenodd" d="M30.5 32C28.6081 32 26.8696 31.3433 25.5 30.2454V37C25.5 41.4183 21.9183 45 17.5 45C13.0817 45 9.5 41.4183 9.5 37C9.5 34.3224 10.8154 31.9521 12.8353 30.5C10.8154 29.0479 9.5 26.6776 9.5 24C9.5 21.3224 10.8154 18.9521 12.8353 17.5C10.8154 16.0479 9.5 13.6776 9.5 11C9.5 6.58172 13.0817 3 17.5 3H30.5C34.9183 3 38.5 6.58172 38.5 11C38.5 13.6776 37.1846 16.0479 35.1647 17.5C37.1846 18.9521 38.5 21.3224 38.5 24C38.5 28.4183 34.9183 32 30.5 32ZM30.5 16C33.2614 16 35.5 13.7614 35.5 11C35.5 8.23858 33.2614 6 30.5 6H25.5V16H30.5ZM17.5 29H22.5V19H17.5C14.7386 19 12.5 21.2386 12.5 24C12.5 26.7614 14.7386 29 17.5 29ZM22.5 32H17.5C14.7386 32 12.5 34.2386 12.5 37C12.5 39.7614 14.7386 42 17.5 42C20.2614 42 22.5 39.7614 22.5 37V32ZM22.5 16V6H17.5C14.7386 6 12.5 8.23858 12.5 11C12.5 13.7614 14.7386 16 17.5 16H22.5ZM30.5 19C27.7386 19 25.5 21.2386 25.5 24C25.5 26.7614 27.7386 29 30.5 29C33.2614 29 35.5 26.7614 35.5 24C35.5 21.2386 33.2614 19 30.5 19Z" fill="#324558"/>
</svg>
