<svg width="48" height="48" viewBox="0 0 48 48" fill="none" xmlns="http://www.w3.org/2000/svg">
<path d="M6.20251 7.00011C5.23826 6.99317 4.4 7.31566 3.74375 8.08375C2.24925 9.82277 3.0525 13.8314 6.12726 18.6549L6.16226 18.7034C6.27413 18.877 6.38907 19.0487 6.50701 19.2183C9.53977 23.6899 13.9428 27.3274 13.0573 32.3711C12.8915 33.3346 12.5353 34.2561 12.009 35.0828C9.32627 39.2527 3.00525 39.6861 3.00525 39.6861L3.07875 39.6878L3 39.6965C3 39.6965 10.6213 42.0268 17.9328 40.4559C18.9793 40.2305 20.0188 39.9271 21.0286 39.5249C21.042 39.5191 21.0554 39.5133 21.0688 39.5075C21.6691 39.2683 22.2361 39.0151 22.7751 38.7498C22.9406 38.6681 23.1052 38.5843 23.2686 38.4984C23.7673 38.2384 24.2416 37.9679 24.6931 37.6888C24.7821 37.6345 24.8708 37.5796 24.9591 37.524C25.5121 37.1703 26.0266 36.8028 26.5131 36.4231C26.5987 36.3567 26.6839 36.2896 26.7686 36.2219C27.0556 35.9896 27.3338 35.7538 27.6016 35.5163C27.6737 35.4561 27.7455 35.3954 27.8168 35.3342L27.8798 35.2649C27.8938 35.251 27.9061 35.2371 27.9218 35.225C28.4481 34.736 28.9504 34.2222 29.4268 33.6854C29.5143 33.5883 29.6018 33.4912 29.6858 33.3923C29.7891 33.2744 29.8923 33.1583 29.9921 33.0404L30.1671 32.8271C30.3893 32.5601 30.6046 32.2896 30.8181 32.0209L30.8741 31.9481C32.0623 30.4223 33.1141 28.8636 34.2568 27.3725L34.6348 26.8905C35.1493 26.2421 35.6848 25.6075 36.2658 24.9989L36.3183 24.9452C36.5073 24.7475 36.7033 24.5533 36.9028 24.3609L37.0253 24.2447C37.177 24.1018 37.331 23.9613 37.4873 23.8234C37.5503 23.7679 37.6133 23.7107 37.6781 23.6569C37.888 23.4774 38.1064 23.3079 38.3326 23.1489C38.3536 23.1316 38.3764 23.1177 38.3991 23.1021C38.8664 22.7773 39.3646 22.4986 39.8866 22.2699L39.7729 22.3219L39.8114 22.3046L39.9164 22.2577C40.8257 21.8793 41.7873 21.6385 42.7689 21.5434H42.7706C43.0806 21.5138 43.3919 21.4987 43.7034 21.4983H43.8259C43.893 21.4988 43.96 21.5 44.0271 21.5018L44.7761 21.4966C44.8289 21.4987 44.8815 21.4893 44.9301 21.4689C45.0386 21.4168 45.0124 21.292 44.9091 21.1464C44.7217 20.9071 44.4901 20.7053 44.2266 20.5517C44.169 20.5225 44.1118 20.4924 44.0551 20.4615C44.034 20.4489 44.013 20.4362 43.9921 20.4234C43.839 20.3364 43.6895 20.2433 43.5441 20.1442C43.4677 20.0903 43.3924 20.0348 43.3184 19.9778C43.2029 19.8948 43.0903 19.8081 42.9806 19.7177C42.6219 19.3709 42.2246 18.4468 42.0654 18.1781C41.9449 17.974 41.8042 17.7823 41.6454 17.6059C41.1694 17.0753 40.4816 16.6818 39.3669 16.5396C37.8076 16.3402 36.3446 16.6644 34.8781 17.117L35.0531 17.0563C33.0091 17.67 30.9686 18.5647 28.6568 18.6861H28.5868C28.1972 18.7035 27.8068 18.6977 27.4178 18.6687L27.3128 18.6618C26.6234 18.6002 25.9428 18.4648 25.2828 18.2578C22.9868 17.5435 19.7633 14.9982 16.4505 12.5085C16.0718 12.2239 15.6921 11.9407 15.3113 11.6589C14.8543 11.3194 14.394 10.9841 13.9305 10.6533L13.542 10.3845L13.129 10.0967L12.9785 9.99269C12.0702 9.36676 11.1285 8.78972 10.1575 8.26407L10.1243 8.24673C9.91243 8.13489 9.6983 8.02737 9.48202 7.92424C9.41377 7.89129 9.34552 7.86355 9.27727 7.83234C8.96288 7.68729 8.64297 7.55427 8.31826 7.43356L8.23076 7.40409C8.04843 7.3397 7.86399 7.2813 7.67776 7.22897L7.63226 7.21684C7.16835 7.08092 6.68796 7.00801 6.20426 7.00011H6.20251ZM39.0501 18.1763C39.1661 18.1761 39.281 18.1984 39.3882 18.2418C39.4954 18.2853 39.5928 18.3491 39.6749 18.4296C39.757 18.5101 39.8221 18.6058 39.8665 18.7111C39.911 18.8164 39.9339 18.9292 39.9339 19.0432C39.9339 19.1572 39.911 19.2701 39.8665 19.3754C39.8221 19.4807 39.757 19.5763 39.6749 19.6568C39.5928 19.7374 39.4954 19.8012 39.3882 19.8446C39.281 19.8881 39.1661 19.9104 39.0501 19.9101C38.8162 19.9101 38.5918 19.8188 38.4264 19.6562C38.261 19.4937 38.1681 19.2732 38.1681 19.0432C38.1681 18.8133 38.261 18.5928 38.4264 18.4302C38.5918 18.2677 38.8162 18.1763 39.0501 18.1763Z" fill="#324558"/>
</svg>
