<svg width="48" height="48" viewBox="0 0 48 48" fill="none" xmlns="http://www.w3.org/2000/svg">
<path d="M9.8565 6C8.83381 6.0004 7.85313 6.40683 7.12998 7.12998C6.40683 7.85313 6.0004 8.83381 6 9.8565V38.145C6.00079 39.1674 6.40741 40.1477 7.13051 40.8705C7.85362 41.5934 8.83407 41.9996 9.8565 42H38.145C39.1674 41.9992 40.1477 41.5926 40.8705 40.8695C41.5934 40.1464 41.9996 39.1659 42 38.1435V9.855C41.9992 8.83257 41.5926 7.85227 40.8695 7.12945C40.1464 6.40663 39.1659 6.0004 38.1435 6H9.8565ZM16.3425 12C17.832 12 19.032 13.2 19.032 14.6865C19.0395 15.0978 18.9474 15.5049 18.7635 15.8729C18.5797 16.241 18.3095 16.559 17.976 16.8V18.2895C18.168 18.225 20.73 16.944 23.352 16.944C26.412 16.944 27.9315 18.2415 29.304 18.2415C31.1295 18.2415 33.144 16.944 33.624 16.944C34.0095 16.944 34.344 17.232 34.344 17.568V28.8495C34.344 29.1855 34.0575 29.3295 33.7215 29.4735C32.3775 30.0495 30.936 30.5775 29.4015 30.5775C27.2415 30.5775 26.232 29.2335 23.64 29.2335C21.768 29.2335 19.8 29.9055 18.216 30.627C18.12 30.675 18.0225 30.675 17.9265 30.723V34.371C17.9265 35.3745 17.172 36.003 16.3425 36.003C16.1277 36.0046 15.9148 35.9635 15.7161 35.882C15.5174 35.8006 15.3368 35.6804 15.1849 35.5286C15.0331 35.3767 14.9129 35.1961 14.8315 34.9974C14.75 34.7987 14.7089 34.5858 14.7105 34.371V16.7985C14.3851 16.5503 14.1207 16.231 13.9377 15.8649C13.7547 15.4988 13.6578 15.0958 13.6545 14.6865C13.6545 13.2 14.8545 12 16.3425 12Z" fill="#324558"/>
</svg>
