<svg width="48" height="48" viewBox="0 0 48 48" fill="none" xmlns="http://www.w3.org/2000/svg">
<path d="M45.9177 27.0156C45.9779 27.2007 46.0049 27.3947 45.999 27.5869C45.9986 27.6004 45.998 27.614 45.9972 27.6276C45.9965 27.6404 45.9956 27.6532 45.9946 27.6661C45.9844 27.7969 45.9588 27.9268 45.9178 28.0531C45.8085 28.39 45.5953 28.6837 45.3088 28.892L23.9999 44.3736L23.998 44.3715L23.9959 44.3699L23.9999 44.3736L2.69092 28.892C2.40444 28.6837 2.19126 28.3901 2.08193 28.0532C2.02768 27.886 2.00038 27.7125 2.00001 27.5389C1.99956 27.3626 2.02692 27.1862 2.08207 27.0165L9.42299 4.42137C9.54858 4.03495 9.88482 3.84176 10.2209 3.8418C10.557 3.84176 10.8933 4.03495 11.0189 4.42137L15.8984 19.4392H32.1007L36.9801 4.42137C37.2313 3.64861 38.324 3.64861 38.5751 4.42137L45.9177 27.0156Z" fill="#324558"/>
</svg>
