<svg width="48" height="48" viewBox="0 0 48 48" fill="none" xmlns="http://www.w3.org/2000/svg">
<path d="M39.2223 24.1025C39.2166 24.0283 39.2126 23.9591 39.2087 23.8934C39.1994 23.7343 39.1914 23.5958 39.1637 23.4574C38.8118 21.5222 37.033 20.4275 35.1759 20.8576C33.3579 21.2681 32.1851 22.4214 31.755 24.2589C31.4031 25.7836 32.146 27.3279 33.5534 27.9535C34.6286 28.4226 35.7037 28.364 36.7397 27.8362C38.284 27.0347 39.1246 25.7836 39.2223 24.1025Z" fill="#324558"/>
<path fill-rule="evenodd" clip-rule="evenodd" d="M24 44C35.0457 44 44 35.0457 44 24C44 12.9543 35.0457 4 24 4C13.4192 4 4.75745 12.2164 4.04707 22.6169H12.559C12.6371 22.6169 12.6762 22.6756 12.6567 22.7342L12.5003 23.2034C12.4808 23.2816 12.4026 23.3207 12.3244 23.3207L4.01074 23.3382C4.0036 23.558 4 23.7786 4 24C4 35.0457 12.9543 44 24 44ZM26.2746 21.6666L26.2758 21.6663C26.8501 21.5138 27.4145 21.364 28.0995 21.19C28.3341 21.1313 28.4123 21.0336 28.295 20.8577C27.8063 19.7239 27.0635 18.7856 26.0274 18.1014C24.4441 17.0263 22.6847 16.8112 20.8472 17.1435C18.5992 17.5541 16.7617 18.7074 15.3738 20.5253C14.0836 22.2065 13.4581 24.1222 13.7122 26.2529C13.9272 28.0513 14.7483 29.4979 16.1948 30.5925C17.7586 31.7654 19.5375 32.1368 21.4532 31.8827C23.7794 31.5699 25.6169 30.4166 27.0244 28.5596C27.3435 28.1389 27.6168 27.6968 27.8455 27.2351C28.1749 28.4254 28.8378 29.4478 29.8002 30.2797C31.1686 31.4526 32.791 31.9608 34.5699 31.9999C34.7442 31.9798 34.9208 31.9643 35.0989 31.9486C35.4401 31.9187 35.787 31.8882 36.1337 31.824C37.9517 31.4526 39.5351 30.6315 40.8253 29.3218C42.6432 27.4843 43.4056 25.334 43.0733 22.6951C42.8191 20.8185 41.8613 19.3915 40.317 18.3359C38.6163 17.1825 36.7397 16.9871 34.7458 17.3389C32.4196 17.7494 30.6994 18.7268 29.2724 20.6034C28.6609 21.4038 28.2025 22.2496 27.9199 23.1448H21.6291C21.3359 23.1448 21.1991 23.3403 21.1404 23.4575C20.8668 23.9658 20.3976 24.9823 20.1435 25.5883C20.0067 25.9206 20.1044 26.1747 20.5149 26.1747H24.2877C24.2372 26.2454 24.1893 26.3135 24.143 26.3794C24.0101 26.5683 23.8903 26.7385 23.7599 26.898C22.8802 27.8949 21.766 28.3641 20.4367 28.1881C18.8924 27.9731 17.8173 26.683 17.7977 25.1191C17.7782 23.5357 18.4624 22.2651 19.7916 21.405C20.9059 20.6817 22.0983 20.5058 23.3298 21.1118C23.7403 21.3073 23.9554 21.5223 24.2486 21.8546C24.493 22.1367 24.5204 22.1293 24.7832 22.0587L24.8155 22.0501C25.3525 21.9115 25.817 21.7881 26.2746 21.6666ZM5.97121 21.4441C5.93211 21.5028 5.95166 21.5419 6.02985 21.5419L13.1062 21.5614C13.1649 21.5614 13.2626 21.5028 13.3017 21.4441L13.634 20.9359C13.6731 20.8772 13.6536 20.8186 13.5754 20.8186H6.59674C6.51855 20.8186 6.42081 20.8577 6.38172 20.9163L5.97121 21.4441ZM7.80878 25.1388C7.73059 25.1388 7.71104 25.0802 7.75014 25.0215L8.02381 24.5328C8.06291 24.4742 8.1411 24.4155 8.21929 24.4155H12.1289C12.2071 24.4155 12.2462 24.4742 12.2462 24.5524L12.2071 25.0215C12.2071 25.0997 12.1289 25.1584 12.0702 25.1584L7.80878 25.1388Z" fill="#324558"/>
</svg>
