<svg width="48" height="48" viewBox="0 0 48 48" fill="none" xmlns="http://www.w3.org/2000/svg">
<path d="M34.5424 30.1283L41.3608 26.2637C43.5464 25.0225 43.5464 22.9974 41.3608 21.7692L34.5215 17.8928L28.4142 24.0001L34.5424 30.1283Z" fill="#324558"/>
<path d="M27 25.4143L8.55128 43.863C8.79539 43.9452 9.05193 43.9915 9.31289 43.9989C9.89338 44.0155 10.4629 43.8389 10.9318 43.4969L32.7231 31.1374L27 25.4143Z" fill="#324558"/>
<path d="M25.5857 24.0001L7.17012 42.4157C7.04003 42.0358 6.98276 41.6312 7.00536 41.2233V6.80888C6.98089 6.39194 7.04059 5.97833 7.17684 5.59118L25.5857 24.0001Z" fill="#324558"/>
<path d="M27 22.5859L32.7162 16.8696L10.9318 4.52253C10.4679 4.1665 9.89463 3.98228 9.30981 4.00134C9.051 4.00978 8.79702 4.05778 8.55617 4.14208L27 22.5859Z" fill="#324558"/>
</svg>
