<svg width="48" height="48" viewBox="0 0 48 48" fill="none" xmlns="http://www.w3.org/2000/svg">
<path d="M42.9179 21.6458C42.8574 20.9744 42.7407 20.1997 42.516 19.3432C42.2913 18.4911 41.9585 17.5571 41.4789 16.5845C40.9905 15.6204 40.3553 14.6133 39.5342 13.6406C39.2144 13.2576 38.8644 12.8832 38.4841 12.513C39.0502 10.275 37.797 8.33828 37.797 8.33828C35.6363 8.20486 34.2621 9.00538 33.7522 9.37551C33.6657 9.34108 33.5836 9.30235 33.4972 9.26791C33.1299 9.11728 32.7496 8.97956 32.3607 8.85905C31.9717 8.73854 31.5742 8.62664 31.168 8.52765C30.7617 8.43297 30.3469 8.35119 29.9277 8.28664C29.8542 8.27372 29.7808 8.26512 29.7073 8.25651C28.7652 5.25242 26.0557 4 26.0557 4C23.0394 5.90661 22.4646 8.57499 22.4646 8.57499C22.4646 8.57499 22.4516 8.63525 22.4344 8.73424C22.2658 8.78158 22.1016 8.82892 21.9331 8.88057C21.6997 8.94943 21.475 9.03551 21.2416 9.11728C21.0126 9.20766 20.7836 9.29374 20.5545 9.39273C20.1008 9.5864 19.647 9.8059 19.2063 10.0512C18.7784 10.2922 18.3593 10.5548 17.9487 10.8388C17.8882 10.813 17.845 10.7915 17.845 10.7915C13.6662 9.20336 9.9541 11.1143 9.9541 11.1143C9.61703 15.5429 11.6222 18.3318 12.0197 18.8354C11.9203 19.1108 11.8296 19.3863 11.7432 19.666C11.432 20.6688 11.203 21.6974 11.0604 22.7648C11.0388 22.9154 11.0215 23.0704 11.0042 23.2253C7.14518 25.1233 6 29.0183 6 29.0183C9.22378 32.711 12.9791 32.9391 12.9791 32.9391C12.9834 32.9348 12.9877 32.9348 12.9877 32.9305C13.4674 33.7784 14.0206 34.5875 14.6385 35.3406C14.8978 35.6548 15.1744 35.9604 15.4553 36.2531C14.2798 39.5972 15.6195 42.3861 15.6195 42.3861C19.2063 42.5195 21.5658 40.8238 22.0584 40.4321C22.4171 40.5526 22.7758 40.6602 23.1431 40.7549C24.245 41.0389 25.3729 41.2025 26.5008 41.2541C26.7817 41.2671 27.0626 41.2714 27.3478 41.2714H27.4861L27.5769 41.2671L27.754 41.2627L27.9312 41.2541L27.9355 41.2584C29.6252 43.66 32.5983 44 32.5983 44C34.7115 41.7792 34.8325 39.5799 34.8325 39.1022C34.8325 39.1022 34.8325 39.085 34.8325 39.0721C34.8325 39.0334 34.8325 39.0032 34.8325 39.0032C34.8325 38.9688 34.8282 38.9387 34.8282 38.8999C35.2733 38.5901 35.6968 38.2587 36.0944 37.9014C36.9414 37.1397 37.6803 36.2703 38.294 35.3363C38.3502 35.2503 38.4063 35.1599 38.4625 35.0695C40.8566 35.2072 42.5419 33.5933 42.5419 33.5933C42.1444 31.11 40.7226 29.9006 40.4288 29.6682C40.4288 29.6682 40.4158 29.6596 40.3985 29.6467C40.3812 29.6337 40.3726 29.6251 40.3726 29.6251C40.3553 29.6165 40.338 29.6036 40.3207 29.5907C40.3337 29.4401 40.3466 29.2937 40.3553 29.1431C40.3726 28.8763 40.3812 28.6094 40.3812 28.3426V27.994C40.3812 27.9251 40.3812 27.9509 40.3812 27.9251L40.3726 27.7573L40.3596 27.5335C40.3553 27.456 40.351 27.3871 40.3423 27.3183C40.338 27.2494 40.3294 27.1805 40.3207 27.1117L40.2948 26.9051L40.2645 26.6985C40.2256 26.4274 40.1695 26.1562 40.109 25.8851C39.8583 24.8134 39.4391 23.7977 38.886 22.8853C38.3329 21.9729 37.6414 21.1638 36.8679 20.4838C36.09 19.7994 35.2214 19.2529 34.3096 18.844C33.3978 18.4351 32.4384 18.1726 31.4834 18.0521C31.0081 17.9918 30.5284 17.966 30.0573 17.9703L29.8802 17.9746H29.837C29.824 17.9746 29.7721 17.9746 29.7765 17.9746L29.703 17.9789L29.5301 17.9918C29.4653 17.9961 29.3962 18.0004 29.3357 18.009C29.0937 18.0306 28.8517 18.065 28.6183 18.1123C27.6719 18.2888 26.7774 18.6288 25.9866 19.0979C25.2001 19.567 24.513 20.1567 23.9555 20.8195C23.398 21.4865 22.9659 22.2225 22.6677 22.9843C22.3695 23.7461 22.2053 24.5337 22.1578 25.2998C22.1448 25.4891 22.1405 25.6828 22.1448 25.8679C22.1448 25.9152 22.1448 25.9626 22.1491 26.0099L22.1535 26.1648C22.1621 26.2552 22.1664 26.3499 22.1751 26.4403C22.214 26.8276 22.2831 27.1978 22.3868 27.5593C22.5943 28.2737 22.927 28.9236 23.3419 29.4745C23.7524 30.0254 24.245 30.4816 24.7679 30.8388C25.2908 31.196 25.8483 31.45 26.4014 31.6092C26.9546 31.7728 27.5034 31.8416 28.022 31.8416C28.0868 31.8416 28.1516 31.8416 28.2164 31.8373C28.251 31.8373 28.2856 31.833 28.3201 31.833C28.3547 31.833 28.3893 31.8287 28.4238 31.8287C28.48 31.8244 28.5319 31.8158 28.5881 31.8115C28.601 31.8115 28.6183 31.8072 28.6356 31.8072L28.6875 31.7986C28.722 31.7943 28.7523 31.79 28.7868 31.7857C28.856 31.7771 28.9122 31.7641 28.977 31.7512C29.0375 31.7383 29.098 31.7297 29.1585 31.7125C29.2795 31.6867 29.3918 31.6522 29.5042 31.6135C29.7289 31.5403 29.9407 31.45 30.1395 31.351C30.3382 31.2477 30.5197 31.1358 30.6883 31.0196C30.7358 30.9851 30.7833 30.9507 30.8309 30.912C31.0124 30.77 31.0426 30.5074 30.8957 30.331C30.7704 30.176 30.55 30.1373 30.3771 30.232C30.3339 30.2535 30.2907 30.2793 30.2475 30.3008C30.0962 30.374 29.9407 30.4386 29.7721 30.4945C29.6036 30.5462 29.4307 30.5892 29.2492 30.6236C29.1585 30.6365 29.0677 30.6494 28.9727 30.6581C28.9251 30.6624 28.8776 30.6667 28.8344 30.6667C28.7868 30.6667 28.7393 30.671 28.6961 30.671C28.6529 30.671 28.6053 30.671 28.5621 30.6667C28.506 30.6624 28.4498 30.6624 28.3936 30.6581C28.3936 30.6581 28.3633 30.6581 28.3893 30.6581H28.372L28.3331 30.6538C28.3072 30.6495 28.2812 30.6495 28.2596 30.6451C28.2078 30.6408 28.1602 30.6322 28.1084 30.6279C27.7022 30.572 27.2916 30.4558 26.8984 30.275C26.5008 30.0986 26.1205 29.8489 25.7791 29.5434C25.4377 29.2378 25.1396 28.8677 24.9062 28.4502C24.6729 28.0327 24.5086 27.5722 24.4309 27.0859C24.392 26.8448 24.3747 26.5909 24.3833 26.3456C24.3876 26.2767 24.3876 26.2122 24.392 26.1433C24.392 26.1605 24.392 26.1347 24.392 26.1304V26.1046L24.3963 26.0529C24.4006 26.0185 24.4006 25.9884 24.4049 25.9539C24.4179 25.8205 24.4395 25.6871 24.4611 25.5537C24.6469 24.4949 25.1785 23.462 26.0039 22.6787C26.2113 22.485 26.4317 22.3 26.6694 22.1407C26.907 21.9772 27.1577 21.8352 27.417 21.7147C27.6806 21.5941 27.9528 21.4952 28.2337 21.422C28.5146 21.3488 28.8041 21.2972 29.0937 21.2714C29.2406 21.2584 29.3875 21.2541 29.5345 21.2541C29.5733 21.2541 29.6036 21.2541 29.6338 21.2541L29.7548 21.2584L29.8283 21.2627C29.8586 21.2627 29.8283 21.2627 29.8413 21.2627H29.8715L29.9925 21.2714C30.308 21.2972 30.6235 21.3402 30.9346 21.4134C31.5569 21.5511 32.1619 21.7792 32.728 22.0891C33.8559 22.7131 34.8196 23.6858 35.4073 24.8608C35.7054 25.4461 35.9129 26.0745 36.0166 26.7243C36.0425 26.8879 36.0598 27.0514 36.0728 27.215L36.0814 27.3398L36.0857 27.4646C36.09 27.5076 36.09 27.5464 36.09 27.5894C36.09 27.6325 36.0944 27.6755 36.09 27.7056V27.8132L36.0857 27.9337C36.0814 28.0155 36.0771 28.1446 36.0728 28.2264C36.0598 28.4071 36.0425 28.5836 36.0209 28.7644C35.9993 28.9408 35.969 29.1173 35.9388 29.2937C35.9042 29.4702 35.8653 29.6423 35.8221 29.8145C35.7357 30.1588 35.6233 30.5031 35.4894 30.8345C35.2258 31.5016 34.8714 32.1343 34.4479 32.7196C33.5966 33.8859 32.4341 34.8371 31.1118 35.4396C30.4506 35.7366 29.7505 35.9561 29.0375 36.0723C28.6788 36.1326 28.3158 36.167 27.9528 36.1799L27.8837 36.1842H27.4429C27.4904 36.1842 27.4342 36.1842 27.4386 36.1842H27.404C27.2095 36.1799 27.0151 36.1713 26.8206 36.1541C26.0427 36.0981 25.2779 35.9604 24.5346 35.7452C23.7913 35.53 23.0696 35.2417 22.3868 34.8801C21.0213 34.1528 19.8026 33.1586 18.8476 31.9578C18.3679 31.3596 17.9487 30.7183 17.603 30.0426C17.2573 29.3669 16.9851 28.6568 16.7819 27.9337C16.5832 27.2064 16.4578 26.4661 16.4103 25.7172L16.4017 25.5752L16.3973 25.5408V25.4504L16.393 25.3256V25.1663L16.3887 24.9942V24.9598C16.3887 24.9641 16.3887 24.9641 16.3887 24.9468V24.878C16.3887 24.7876 16.393 24.6972 16.393 24.6025C16.406 24.2324 16.4362 23.8537 16.4881 23.4749C16.5356 23.0962 16.6004 22.7131 16.6782 22.3344C16.756 21.9557 16.8511 21.5812 16.9548 21.2154C17.1665 20.4794 17.4302 19.765 17.7456 19.0893C18.3722 17.7379 19.1933 16.5457 20.1829 15.5903C20.4292 15.3493 20.6842 15.1212 20.9521 14.9103C21.2157 14.6994 21.4923 14.5014 21.7775 14.3163C22.0584 14.1313 22.3523 13.9591 22.6548 13.8042C22.8017 13.7224 22.9573 13.6535 23.1085 13.5804C23.1863 13.5459 23.2641 13.5115 23.3419 13.4771C23.4196 13.4427 23.4974 13.4082 23.5752 13.3781C23.8864 13.2447 24.2105 13.1371 24.5346 13.0338C24.6167 13.008 24.6988 12.9864 24.7809 12.9606C24.863 12.9348 24.9451 12.9176 25.0272 12.8918C25.1914 12.8444 25.36 12.8057 25.5242 12.7669C25.6063 12.7454 25.6927 12.7282 25.7748 12.711C25.8569 12.6938 25.9434 12.6766 26.0255 12.6594C26.1119 12.6421 26.194 12.6292 26.2804 12.612L26.4057 12.5905L26.5311 12.5733C26.6175 12.5604 26.6996 12.5474 26.786 12.5345C26.8811 12.5173 26.9762 12.513 27.0712 12.4958C27.149 12.4872 27.2787 12.47 27.3565 12.4614C27.417 12.4571 27.4775 12.4485 27.538 12.4442L27.659 12.4312L27.7195 12.4269L27.7886 12.4226C27.8837 12.4183 27.9787 12.4097 28.0781 12.4054L28.2207 12.3968C28.2207 12.3968 28.2726 12.3968 28.2294 12.3968H28.2596L28.3201 12.3925C28.4022 12.3882 28.4844 12.3839 28.5665 12.3796C28.8906 12.371 29.2147 12.371 29.5388 12.3796C30.1827 12.4054 30.8136 12.4743 31.4272 12.5905C32.6545 12.8186 33.8083 13.2102 34.8541 13.7267C35.8999 14.2346 36.8377 14.8629 37.6501 15.5429C37.7019 15.586 37.7495 15.629 37.8013 15.672C37.8489 15.7151 37.9007 15.7581 37.9483 15.8012C38.0477 15.8872 38.1427 15.9776 38.2378 16.0637C38.3329 16.1498 38.4236 16.2402 38.5144 16.3305C38.6051 16.4209 38.6959 16.5113 38.778 16.6017C39.1237 16.9675 39.4435 17.3333 39.7287 17.7035C40.3078 18.4437 40.7701 19.1926 41.1375 19.8984C41.1591 19.9415 41.185 19.9845 41.2066 20.0318C41.2282 20.0749 41.2498 20.1179 41.2714 20.1653C41.3146 20.2513 41.3579 20.3374 41.3968 20.4235C41.4356 20.5096 41.4789 20.5957 41.5134 20.6774C41.5523 20.7635 41.5869 20.8453 41.6215 20.927C41.7598 21.2584 41.8851 21.5726 41.9845 21.8696C42.153 22.3473 42.2783 22.782 42.3734 23.1607C42.4123 23.3114 42.5549 23.4104 42.7105 23.3975C42.8704 23.3845 42.9957 23.2511 43 23.0919C42.9741 22.6615 42.9654 22.1881 42.9179 21.6458Z" fill="#324558"/>
</svg>
