<svg width="48" height="48" viewBox="0 0 48 48" fill="none" xmlns="http://www.w3.org/2000/svg">
<path d="M8.83822 18.2516L4.58659 14L0 18.5866L4.58659 23.1732L9.05683 18.7029L4.03167 18.7205L5.91527 20.4806L4.11895 20.4868L1.99585 18.5016L4.10333 16.5015L5.8995 16.4951L4.02995 18.2684L8.83822 18.2516Z" fill="#324558"/>
<path d="M10.855 18.6967L13.3329 18.6881L12.5176 19.4611L13.4159 19.458L14.4697 18.4579L13.408 17.4654L12.5099 17.4684L13.3311 18.2359L10.8958 18.2444L13.4718 15.6685L16.2943 18.491L13.4718 21.3135L10.855 18.6967Z" fill="#324558"/>
<path fill-rule="evenodd" clip-rule="evenodd" d="M7.90332 32.8943C7.38694 32.6405 6.93766 32.2685 6.59194 31.8086L5.74076 32.7118C6.22541 33.2418 6.81762 33.6623 7.4778 33.9451C8.16773 34.2214 8.90587 34.3572 9.64896 34.3445C10.5636 34.3444 11.3047 34.2055 11.8723 33.9277C12.3904 33.6887 12.8454 33.3318 13.201 32.8855C13.5136 32.481 13.733 32.0125 13.8437 31.5134C13.9495 31.0518 14.0048 30.5801 14.0088 30.1065V22.0471H12.8623V23.4019H12.8277C12.4315 22.8526 11.8943 22.4205 11.2729 22.1513C11.0112 22.0387 10.7372 21.9571 10.4566 21.908C10.2014 21.8633 9.94287 21.8401 9.68378 21.8385C9.11478 21.8321 8.55041 21.9415 8.02499 22.16C7.53394 22.3656 7.09048 22.67 6.72222 23.0545C6.35388 23.4421 6.06216 23.8959 5.86244 24.3919C5.65115 24.9162 5.5449 25.4769 5.54972 26.0421C5.54492 26.609 5.65729 27.1707 5.87978 27.6922C6.08885 28.186 6.39615 28.6321 6.78299 29.0035C7.17288 29.3732 7.6298 29.6651 8.12919 29.8633C8.65663 30.074 9.22001 30.1802 9.78798 30.1759C10.3676 30.1782 10.9413 30.0599 11.4727 29.8285C12.03 29.5756 12.5011 29.1651 12.8277 28.6475H12.8623V30.1065C12.865 30.5261 12.8095 30.944 12.6974 31.3483C12.5945 31.7224 12.4107 32.0694 12.1588 32.3645C11.8904 32.6675 11.5542 32.9025 11.1775 33.0505C10.7065 33.23 10.205 33.3155 9.70113 33.3023C9.07798 33.3107 8.46177 33.1709 7.90332 32.8943ZM7.03494 27.2143C6.87724 26.8316 6.79748 26.4212 6.80033 26.0073C6.79753 25.5933 6.87728 25.1829 7.03494 24.8001C7.18542 24.4329 7.40334 24.097 7.67745 23.81C7.95024 23.5259 8.27442 23.2961 8.63282 23.1327C9.00634 22.963 9.41244 22.8771 9.82267 22.8809C10.264 22.8743 10.7018 22.9601 11.108 23.1327C11.4749 23.29 11.8058 23.5205 12.0807 23.81C12.3481 24.0957 12.5549 24.4324 12.6886 24.8001C12.8294 25.1869 12.9 25.5957 12.897 26.0073C12.9147 26.4461 12.8408 26.8839 12.6799 27.2926C12.5307 27.6643 12.3025 27.9991 12.0112 28.274C11.418 28.8292 10.6351 29.1367 9.82267 29.1338C9.41243 29.1377 9.00631 29.0518 8.63282 28.882C8.27431 28.7188 7.95009 28.4889 7.67745 28.2045C7.4032 27.9176 7.18525 27.5817 7.03494 27.2143Z" fill="#324558"/>
<path fill-rule="evenodd" clip-rule="evenodd" d="M18.6809 30.1759H17.4304V17.8783H21.2169C22.4675 17.8783 23.4546 18.1504 24.1784 18.6947C24.902 19.2392 25.2638 20.0614 25.264 21.1612C25.2861 21.9596 24.9964 22.7353 24.4564 23.3237C23.9178 23.9086 23.1391 24.2473 22.1201 24.3398L25.6634 30.1759H24.1349L20.7652 24.4614H18.6809V30.1759ZM18.6809 23.315H20.9042C21.3819 23.3251 21.8587 23.2666 22.3198 23.1413C22.657 23.0511 22.9729 22.8947 23.2491 22.6811C23.4719 22.5018 23.6453 22.2686 23.7528 22.0036C23.8585 21.7354 23.9115 21.4494 23.9091 21.1612C23.9104 20.8787 23.8574 20.5987 23.7528 20.3362C23.644 20.0695 23.471 19.8338 23.2491 19.65C22.9755 19.4322 22.6587 19.2753 22.3197 19.1898C21.8575 19.0708 21.3813 19.0152 20.9042 19.0247H18.6809V23.315Z" fill="#324558"/>
<path fill-rule="evenodd" clip-rule="evenodd" d="M31.3953 17.8783H27.817V30.1759H29.0677V24.4614H31.3953C32.6457 24.4614 33.6328 24.1864 34.3566 23.6363C35.0803 23.0865 35.4422 22.2614 35.4422 21.1612C35.442 20.0614 35.0802 19.2392 34.3566 18.6947C33.6328 18.1504 32.6457 17.8783 31.3953 17.8783ZM31.0825 23.315H29.0677V19.0247H31.0825C31.5597 19.0152 32.0359 19.0708 32.4981 19.1898C32.8371 19.2754 33.1539 19.4323 33.4274 19.65C33.6493 19.8338 33.8223 20.0695 33.9312 20.3362C34.0357 20.5986 34.0888 20.8787 34.0874 21.1612C34.0898 21.4494 34.0367 21.7355 33.931 22.0036C33.8235 22.2686 33.6503 22.5018 33.4275 22.6811C33.1513 22.8947 32.8354 23.0511 32.4981 23.1413C32.037 23.2666 31.5603 23.3251 31.0825 23.315Z" fill="#324558"/>
<path d="M48 28.2306C47.7799 28.5566 47.5203 28.8541 47.2272 29.1163C46.9098 29.4015 46.5565 29.6439 46.1762 29.8372C45.7702 30.0445 45.342 30.2048 44.8997 30.3149C44.4253 30.4327 43.9381 30.491 43.4493 30.4886C42.5772 30.4968 41.7122 30.3315 40.9046 30.0023C40.1424 29.6943 39.4503 29.2355 38.8698 28.6535C38.2893 28.0715 37.8323 27.3782 37.5263 26.6152C36.8779 24.9508 36.8779 23.1036 37.5263 21.4391C37.8323 20.6761 38.2893 19.9828 38.8698 19.4008C39.4504 18.8188 40.1425 18.3601 40.9047 18.0521C41.7123 17.7229 42.5772 17.5576 43.4493 17.5657C44.2352 17.57 45.0131 17.7232 45.742 18.0173C46.5194 18.3284 47.1978 18.8447 47.7047 19.5111L46.6105 20.3275C46.4635 20.1086 46.2883 19.91 46.0894 19.737C45.8595 19.5335 45.6058 19.3585 45.3339 19.2159C45.0435 19.0629 44.7378 18.9407 44.422 18.8512C44.1058 18.7597 43.7784 18.7129 43.4493 18.7121C42.7197 18.7002 41.9963 18.8484 41.3303 19.1464C40.7259 19.4206 40.1848 19.8168 39.741 20.3102C39.3017 20.8048 38.9625 21.3799 38.7421 22.0036C38.2789 23.3129 38.2789 24.7414 38.7421 26.0507C38.9624 26.6744 39.3017 27.2495 39.741 27.7441C40.1847 28.2375 40.7258 28.6338 41.3303 28.9078C41.9963 29.206 42.7197 29.3542 43.4493 29.3421C43.7725 29.3423 44.0951 29.3133 44.4131 29.2555C44.7368 29.196 45.0519 29.0968 45.3513 28.9602C45.6668 28.8155 45.9594 28.6253 46.2198 28.3956C46.5123 28.1343 46.7666 27.8332 46.9752 27.5011L48 28.2306Z" fill="#324558"/>
</svg>
