<svg width="48" height="48" viewBox="0 0 48 48" fill="none" xmlns="http://www.w3.org/2000/svg">
<path d="M20.6615 7.00167C20.6615 7.00167 16.9894 6.83263 14.6477 9.89376C12.305 12.9548 14.0643 17.6304 15.1751 20.0423C16.2857 22.4542 22.1465 31.9185 22.3618 32.1267C22.5754 32.3355 22.8328 32.2476 22.8469 32.0603C22.861 31.8746 23.5163 18.3085 22.9889 14.9635C22.4616 11.6184 20.9002 7.36862 20.6615 7.00167ZM7.97022 13.3083C7.5505 13.3537 4.53821 16.3921 4.26672 19.3628C3.99391 22.3332 5.25102 24.3101 8.76101 26.6752C12.2943 29.2092 20.6914 33.8712 20.8456 33.4695C21 33.069 17.5917 26.9437 14.8025 22.4887C12.0135 18.0338 8.3881 13.263 7.97022 13.3083ZM9.09953 40.7095C11.6408 41.8587 15.5996 39.2778 16.6948 38.5272C17.7132 37.7402 19.5945 36.2935 19.5945 36.2935L5.1951 36.6833C5.1951 36.6833 6.55825 39.5602 9.09953 40.7095ZM9.46128 28.9402C6.88414 27.6355 1.58211 24.638 1.37465 24.6954C1.16724 24.7526 0.368498 28.4814 2.02663 31.2917C3.68477 34.1021 6.91389 34.9616 8.39578 35.1912C10.0619 35.4313 19.8582 35.324 19.7925 35.1248C19.7348 34.9509 12.0399 30.2438 9.46128 28.9402ZM33.3516 9.89381C31.0102 6.83268 27.3379 7.00173 27.3379 7.00173C27.0995 7.36857 25.5378 11.6183 25.0105 14.9635C24.4831 18.3086 25.14 31.8746 25.154 32.0605C25.1682 32.2476 25.4239 32.3354 25.6389 32.1268C25.8526 31.9186 31.715 22.4542 32.8258 20.0423C33.9348 17.6304 35.6944 12.9549 33.3516 9.89381ZM46.6246 24.6953C46.4173 24.6379 41.1153 27.6355 38.5382 28.9402C35.961 30.2437 28.2648 34.9508 28.2084 35.1247C28.1413 35.3239 37.9376 35.4313 39.6037 35.1912C41.0855 34.9615 44.3146 34.1021 45.9729 31.2917C47.6325 28.4814 46.8321 24.7525 46.6246 24.6953ZM31.3049 38.5272C32.3999 39.2778 36.3603 41.8587 38.9017 40.7095C41.4429 39.5601 42.8063 36.6833 42.8063 36.6833L28.4068 36.2935C28.4068 36.2935 30.2879 37.7404 31.3049 38.5272ZM43.7344 19.3627C43.4614 16.3921 40.4492 13.3537 40.031 13.3082C39.6116 13.2629 35.9861 18.0337 33.1971 22.4887C30.4077 26.9437 26.9997 33.0691 27.1541 33.4695C27.3085 33.8711 35.7068 29.2092 39.2388 26.6752C42.7485 24.3101 44.0074 22.3332 43.7344 19.3627Z" fill="#324558"/>
</svg>
