<svg width="48" height="48" viewBox="0 0 48 48" fill="none" xmlns="http://www.w3.org/2000/svg">
<path d="M34.7652 15.3925L34.302 14H26.6669V15.3925H34.7652ZM35.651 18.0482L35.1877 16.6579H26.6669V18.0504L35.651 18.0482ZM41.3343 33.9978H47.9979V32.6052H41.3322L41.3343 33.9978ZM41.3343 31.3376H47.9979V29.9473H41.3322L41.3343 31.3376ZM41.3343 28.682H45.332V27.2894H41.3322L41.3343 28.682ZM41.3343 26.0241H45.332V24.6316H41.3322L41.3343 26.0241ZM41.3343 23.3662H45.332V21.9737H37.7077L37.3324 23.0984L36.9571 21.9737H29.3327V23.3662H33.3326V22.0852L33.7615 23.3662H40.9033L41.3322 22.0852L41.3343 23.3662ZM45.332 19.3158H38.5934L38.1281 20.7083H45.332V19.3158ZM29.3327 26.0241H33.3326V24.6316H29.3327V26.0241ZM29.3327 28.6798H33.3326V27.2894H29.3327V28.6798ZM26.6669 31.3376H33.3326V29.9473H26.6669V31.3376ZM26.6669 33.9978H33.3326V32.6052H26.6669V33.9978ZM40.3628 14L39.8996 15.3925H47.9979V14H40.3628ZM39.0138 18.0504H48V16.6579H39.4771L39.0138 18.0504ZM29.3327 20.7061H36.5367L36.0735 19.3158H29.3327V20.7061ZM34.6558 26.0241H40.0089L40.4765 24.6316H34.1883L34.6558 26.0241ZM35.5502 28.6798H39.1146L39.5821 27.2894H35.0826L35.5502 28.6798ZM36.4423 31.3376H38.2224L38.69 29.9473H35.9748L36.4423 31.3376ZM37.3302 33.9978L37.7956 32.6052H36.8691L37.3302 33.9978ZM10.6655 33.9844L20.4838 33.9978C21.8178 33.9978 23.0145 33.4689 23.9196 32.6052H10.6655V33.9844ZM21.0886 27.2894V28.682H25.5753C25.5753 28.2 25.5109 27.7335 25.3973 27.2894H21.0886ZM13.3335 28.682H17.3333V27.2894H13.3335V28.682ZM21.0907 20.7083H25.3973C25.5109 20.2642 25.5753 19.7978 25.5753 19.3158H21.0907V20.7083ZM13.3335 20.7083H17.3333V19.3158H13.3335V20.7083ZM10.6655 14.0022V15.3948H23.9196C22.9833 14.4976 21.7566 14.0004 20.4838 14.0022H10.6655ZM10.6655 16.6601V18.0527H25.4294C25.3149 17.5644 25.1343 17.0956 24.8933 16.6601H10.6655ZM13.3313 21.9759V23.3684H23.7759C24.2198 22.9757 24.5951 22.5048 24.889 21.9759H13.3313ZM23.7759 24.6338H13.3313V26.0263H24.889C24.597 25.4995 24.2205 25.0285 23.7759 24.6338ZM10.6633 31.3421H24.8911C25.127 30.9114 25.3115 30.445 25.4273 29.9496H10.6655L10.6633 31.3421ZM0 15.3925H9.33363V14H0V15.3925ZM0 18.0504H9.33363V16.6579H0V18.0504ZM2.66583 20.7083H6.66565V19.3158H2.66583V20.7083ZM2.66583 23.3662H6.66565V21.9737H2.66583V23.3662ZM2.66583 26.0219H6.66565V24.6316H2.66583V26.0219ZM2.66583 28.682H6.66565V27.2894H2.66583V28.682ZM0 31.3399H9.33363V29.9496H0V31.3399ZM0 34H9.33363V32.6075H0V34Z" fill="#324558"/>
</svg>
