<svg width="48" height="48" viewBox="0 0 48 48" fill="none" xmlns="http://www.w3.org/2000/svg">
<path d="M24.0019 4C11.1847 8.57667 2.00535 22.8533 4.37316 37.2717C4.37316 37.2717 12.0331 44 24.0019 44C35.9689 44 43.6272 37.2717 43.6272 37.2717C45.9933 22.8533 36.8191 8.57667 24.0019 4ZM24.0019 7.07667C24.0019 7.07667 27.4708 8.28667 30.7365 11.2233C30.8612 11.335 30.9585 11.495 30.9568 11.685C30.9551 11.965 30.7383 12.1633 30.4429 12.1633C30.3632 12.1592 30.2844 12.144 30.209 12.1183C28.9432 11.6647 27.6036 11.4389 26.2553 11.4517C23.8538 11.4484 21.5136 12.1915 19.5735 13.5733L19.5701 13.5767C21.4831 12.9339 23.5188 12.7152 25.5291 12.9367C27.5395 13.1581 29.4741 13.814 31.1924 14.8567C38.4784 19.1833 42.0925 27.6317 40.906 35.6667C40.906 35.6667 38.096 37.9933 33.8572 39.2867C33.7728 39.3157 33.683 39.3269 33.5938 39.3194C33.5046 39.312 33.4181 39.286 33.3399 39.2433C33.0941 39.1033 33.0241 38.8183 33.1692 38.57C33.2141 38.5056 33.2681 38.4478 33.3297 38.3983C34.3646 37.5525 35.2344 36.5311 35.8972 35.3833C37.1013 33.3541 37.6131 31.0036 37.3585 28.6717L37.3551 28.6683C36.9864 30.5352 36.2103 32.3027 35.0798 33.8507C33.9493 35.3988 32.4907 36.6911 30.8031 37.64C23.2576 41.8933 13.7488 40.7767 7.09946 35.6667C7.09946 35.6667 6.43709 32.1267 7.41016 27.8967C7.42725 27.8104 7.46287 27.7287 7.51465 27.6569C7.56644 27.5851 7.63323 27.5248 7.71062 27.48C7.95815 27.34 8.23983 27.425 8.38665 27.675C8.42353 27.7429 8.44944 27.816 8.46347 27.8917C8.67857 29.1617 9.15486 30.3917 9.85308 31.5717C11.051 33.6045 12.8798 35.2131 15.0752 36.165C13.9378 35.198 12.9731 34.0529 12.2209 32.7767C10.9587 30.6512 10.3285 28.2242 10.4011 25.7683C10.5633 17.4117 16.2583 10.0983 24.0019 7.07667ZM24.0019 19.7817C19.3482 19.7817 15.2664 21.3317 12.9345 23.6683C12.8252 24.2017 12.7638 24.7517 12.7638 25.3083C12.7638 30.5517 17.7947 34.8 24.0019 34.8C30.2073 34.8 35.2417 30.5517 35.2417 25.3083C35.2417 24.7517 35.1768 24.2017 35.0676 23.6683C32.7356 21.3333 28.6521 19.7817 24.0019 19.7817ZM24.0019 20.9367C25.3907 20.971 26.7108 21.5338 27.6807 22.5049C28.6505 23.476 29.1933 24.7787 29.1933 26.135C29.1933 27.4913 28.6505 28.794 27.6807 29.7651C26.7108 30.7362 25.3907 31.299 24.0019 31.3333C23.1224 31.3338 22.2565 31.1215 21.4816 30.7155C20.7067 30.3094 20.0469 29.7222 19.5612 29.0063C19.0755 28.2905 18.7791 27.4683 18.6985 26.6133C18.6178 25.7583 18.7554 24.8971 19.099 24.1067C19.2229 24.4527 19.4348 24.7624 19.7147 25.0067C19.9946 25.251 20.3334 25.422 20.6995 25.5037C21.0655 25.5853 21.4468 25.575 21.8076 25.4736C22.1685 25.3722 22.4971 25.1831 22.7626 24.924C23.0282 24.6648 23.2221 24.3442 23.3262 23.9919C23.4303 23.6397 23.4411 23.2675 23.3577 22.9101C23.2742 22.5527 23.0993 22.2218 22.8492 21.9483C22.5991 21.6749 22.2821 21.4679 21.9277 21.3467C22.5839 21.0754 23.2893 20.936 24.0019 20.9367Z" fill="#324558"/>
</svg>
