<svg width="48" height="48" viewBox="0 0 48 48" fill="none" xmlns="http://www.w3.org/2000/svg">
<path d="M17.5795 41.3245C11.9543 44.3541 7.09787 44.9824 4.41442 42.3208C1.65921 39.5961 3.12701 32.4572 7.10607 25.2958C9.12749 21.6531 11.6255 18.2913 14.5353 15.298C14.9186 14.9178 16.8415 13.0125 16.9686 13.0125C16.9686 13.0125 15.9436 13.649 15.8165 13.649C11.819 15.8754 8.30737 19.9116 7.54067 20.8164C8.51045 16.5246 11.0056 12.7225 14.5696 10.1056C18.1337 7.48861 22.5285 6.23176 26.9501 6.56489C33.2949 3.71417 39.1968 3.05538 41.6937 5.52789C44 7.81131 43.8708 11.6177 41.95 16.1865C41.9295 16.2292 41.9131 16.274 41.8946 16.3167C43.2819 18.9374 44.0046 21.8539 44 24.8139C44 25.5866 43.9528 26.345 43.8585 27.0912H42.2103C42.1133 27.0949 42.0163 27.097 41.9192 27.0973H17.7374V27.4776C17.8645 31.5381 21.452 35.0903 25.8082 35.0903C28.8833 35.0903 31.8291 33.4413 33.1104 31.0298H42.9094C42.0335 33.436 40.6589 35.6334 38.8743 37.4803C37.0896 39.3272 34.9344 40.7826 32.5478 41.7525C30.1612 42.7225 27.5961 43.1856 25.0179 43.1119C22.4398 43.0381 19.9058 42.4292 17.5795 41.3245ZM16.3352 40.6718C12.5612 38.5088 9.67766 35.0944 8.19257 31.0298C5.81252 35.6698 5.19957 39.5494 7.23112 41.5624C8.89777 43.2134 12.229 42.8311 16.329 40.6758L16.3352 40.6718ZM41.2776 15.2411C41.2878 15.218 41.298 15.1949 41.3083 15.1719C42.8458 11.8739 42.975 9.08417 41.5646 7.43311C39.7831 5.66819 36.3576 5.90812 32.2945 7.77471C36.0249 9.23306 39.1773 11.8531 41.2776 15.2411ZM33.8791 22.1523C33.6229 17.9637 30.2916 14.7917 26.1916 14.7917C21.8353 14.7917 18.1228 18.2178 17.8665 22.1523V22.2784H33.8791V22.1523Z" fill="#324558"/>
</svg>
