<svg width="48" height="48" viewBox="0 0 48 48" fill="none" xmlns="http://www.w3.org/2000/svg">
<path d="M37.5 6H10.5C8.0145 6 6 8.0145 6 10.5V37.5C6 39.987 8.0145 42 10.5 42H37.5C39.987 42 42 39.987 42 37.5V10.5C42 8.0145 39.987 6 37.5 6ZM28.7985 12.5985C28.7985 11.9385 29.3385 11.3985 30.0015 11.3985C30.6615 11.3985 31.2015 11.9385 31.2015 12.5985V28.6305C31.2015 29.2935 30.6615 29.832 30.0015 29.832C29.337 29.832 28.7985 29.2935 28.7985 28.6305V12.5985ZM22.8 11.991C22.8 11.331 23.3355 10.7925 24 10.7925C24.6645 10.7925 25.2 11.331 25.2 11.991V29.394C25.2 30.054 24.6645 30.594 24 30.594C23.3355 30.594 22.8 30.054 22.8 29.394V11.991ZM16.8 12.5985C16.8 11.9385 17.3385 11.3985 17.9985 11.3985C18.663 11.3985 19.2015 11.9385 19.2015 12.5985V28.6305C19.2015 29.2935 18.6615 29.832 17.9985 29.832C17.3385 29.832 16.8 29.2935 16.8 28.6305V12.5985ZM10.7985 15C10.7985 14.337 11.3385 13.8 12.0015 13.8C12.6615 13.8 13.2 14.337 13.2 15V25.7925C13.2 26.454 12.6615 26.9925 12.0015 26.9925C11.337 26.9925 10.7985 26.4525 10.7985 25.7925V15ZM36.78 33.303C36.5955 33.4605 32.151 37.1925 24 37.1925C15.8505 37.1925 11.4045 33.4635 11.2185 33.303C10.716 32.871 10.656 32.115 11.0895 31.611C11.517 31.11 12.2745 31.0485 12.777 31.476C12.8475 31.5375 16.8165 34.7925 23.9985 34.7925C31.2705 34.7925 35.1825 31.5135 35.217 31.482C35.718 31.0485 36.4755 31.107 36.909 31.611C37.3425 32.115 37.284 32.871 36.78 33.303ZM37.2015 25.7925C37.2015 26.454 36.6615 26.9925 36 26.9925C35.3385 26.9925 34.7985 26.4525 34.7985 25.7925V15C34.7985 14.337 35.34 13.8 36 13.8C36.6615 13.8 37.2015 14.3355 37.2015 15V25.7925Z" fill="#324558"/>
</svg>
