<svg width="48" height="48" viewBox="0 0 48 48" fill="none" xmlns="http://www.w3.org/2000/svg">
<path d="M39.5814 11.2338C34.3709 9.08717 29.2879 9.71361 24.2646 13.3331C21.3909 15.403 19.6399 17.483 17.9907 19.4421C17.0978 20.5028 16.2347 21.5281 15.2394 22.4971C11.8507 25.797 9.30919 26.9075 7.29374 27.6542C6.3298 28.0117 5.18939 28.3166 4.02649 28.5293C3.93771 28.0847 3.89272 27.6327 3.89214 27.1796C3.89214 25.324 4.64409 23.5443 5.98258 22.2321C7.32106 20.92 9.13644 20.1828 11.0293 20.1828C12.3653 20.1817 13.6745 20.5495 14.8069 21.2443C15.5751 20.4417 16.2682 19.6166 16.9684 18.7831L16.9689 18.7825C17.0966 18.6305 17.2246 18.4781 17.3533 18.3256C15.7011 17.1901 13.7627 16.5208 11.7493 16.3907C9.73587 16.2607 7.72467 16.6749 5.9348 17.5881C4.14493 18.5013 2.64504 19.8786 1.59856 21.5699C0.552085 23.2611 -0.000850747 25.2015 9.82503e-07 27.1796C0.000128059 27.7363 0.043825 28.2921 0.130707 28.8422L0.13196 28.8437C0.342233 30.1621 0.799151 31.431 1.47973 32.5867L1.4858 32.5866C1.48337 32.5887 1.48134 32.5909 1.47971 32.593C2.44733 34.2366 3.83926 35.6016 5.51557 36.5508C7.19188 37.4999 9.09352 37.9997 11.0293 38C18.3795 38 22.2475 34.2936 22.2475 34.2936C21.063 33.4836 19.5204 31.329 19.5204 31.329C15.4185 34.5071 11.0293 34.1765 11.0293 34.1765C10.078 34.1775 9.13606 33.9914 8.25937 33.6292C7.38267 33.267 6.589 32.736 5.92533 32.0678C5.91784 32.0674 5.91013 32.067 5.90221 32.0666C9.19011 31.3337 11.6871 29.9708 13.4821 28.8976C15.6912 27.5767 19.0153 24.2499 20.7597 22.0953C23.5626 18.6372 27.2143 15.3294 30.553 14.2917C35.2164 12.8442 39.7508 14.8691 41.9486 17.7292C41.9528 17.7345 41.9586 17.7403 41.9662 17.7467C41.0042 17.5478 40.0195 17.4424 39.0263 17.435C35.3778 17.435 31.7245 18.8286 29.1539 21.3107C27.9599 22.462 27.1573 23.4747 26.1933 24.6909C25.6474 25.3797 25.0498 26.1337 24.3001 27.0151C25.0801 28.1786 26.006 29.2416 27.0562 30.179C27.3241 29.7961 28.8312 27.7048 29.9608 26.2352C31.4131 24.3654 32.8879 22.8705 35.1245 22.0051C37.3938 21.1105 39.9119 21.0274 42.2375 21.7705C42.725 21.9263 43.1974 22.1162 43.6517 22.338C43.9073 22.9203 44.0669 23.7179 44.0399 24.9729C43.5203 30.6251 38.6261 34.1939 33.7528 34.1939C28.4794 34.1939 24.7664 30.4732 22.5331 26.3159C22.0832 25.4782 21.7388 24.5577 21.424 23.7163C21.3696 23.5709 21.3162 23.4279 21.2632 23.2881C20.558 24.2278 19.0718 25.7607 18.315 26.4741C18.7731 27.7399 19.3716 28.9526 20.0997 30.0904C20.6951 31 22.1975 33.0581 24.3452 34.6875C26.2978 36.1634 28.1712 37.0698 30.2899 37.5871C33.8686 38.4302 37.6403 37.9088 40.8416 36.1286C44.6197 34.0062 47.2984 30.1219 47.8421 26.0672C47.8425 26.0679 47.8429 26.0685 47.8433 26.0691C48.1235 24.2184 48.027 22.333 47.5611 20.5217C47.5616 20.5221 47.562 20.5225 47.5625 20.5229C47.0865 18.5423 44.8403 13.4011 39.5814 11.2338Z" fill="#324558"/>
</svg>
