<svg width="48" height="48" viewBox="0 0 48 48" fill="none" xmlns="http://www.w3.org/2000/svg">
<path d="M24.0072 2C19.756 6.39083 19.7289 13.3392 24.2478 17.7392L30.4202 23.9963L24.6368 29.8593C26.2662 31.5187 27.3774 33.6276 27.8317 35.9229C28.2859 38.2182 28.0631 40.5982 27.1911 42.766L44.4962 25.2283C44.6559 25.0666 44.7826 24.8745 44.8691 24.6631C44.9555 24.4517 45 24.2252 45 23.9963C45 23.7675 44.9555 23.5409 44.8691 23.3295C44.7826 23.1181 44.6559 22.9261 44.4962 22.7643L24.0072 2ZM20.8451 5.19L3.50381 22.7662C3.34409 22.9279 3.21739 23.12 3.13094 23.3314C3.04449 23.5428 3 23.7693 3 23.9982C3 24.227 3.04449 24.4536 3.13094 24.665C3.21739 24.8764 3.34409 25.0684 3.50381 25.2302C10.3419 32.14 17.1619 39.114 24 46C28.1517 41.787 28.3326 34.824 23.8553 30.3562L17.578 23.9963L23.3668 18.1297C19.8971 14.5455 19.0921 9.46717 20.8451 5.19183V5.19Z" fill="#324558"/>
</svg>
