<svg width="48" height="48" viewBox="0 0 48 48" fill="none" xmlns="http://www.w3.org/2000/svg">
<path d="M5.66898 13.3938C1.94851 18.6781 2.4105 25.5509 5.25424 31.1623C5.31899 31.299 5.39074 31.4287 5.46074 31.5585C5.50099 31.6485 5.54649 31.7315 5.59549 31.8181C5.61824 31.8648 5.64973 31.9149 5.67773 31.9599C5.72323 32.0499 5.77223 32.1364 5.81948 32.2229L6.09423 32.6832C6.14673 32.768 6.19398 32.851 6.25173 32.9358C6.34973 33.0985 6.46173 33.2594 6.56323 33.422C6.60873 33.4913 6.65073 33.557 6.70148 33.6245C6.87117 33.8887 7.05217 34.1455 7.24398 34.3945C7.38048 34.5796 7.51697 34.7596 7.66397 34.9395C7.71122 35.0053 7.76547 35.071 7.81447 35.1385L8.19947 35.604C8.24847 35.6559 8.29572 35.7199 8.34647 35.7753C8.51797 35.9794 8.69997 36.1784 8.88197 36.3809L8.89072 36.3912C9.11293 36.6684 9.36203 36.9234 9.63446 37.1526C9.77446 37.2962 9.91446 37.4381 10.0632 37.5765L10.24 37.7443C10.4342 37.926 10.6302 38.106 10.835 38.279C10.8385 38.279 10.8402 38.2825 10.8437 38.2842L10.9435 38.3707C11.122 38.5247 11.3022 38.6787 11.486 38.8206L11.7047 39.0023C11.8534 39.1199 12.0092 39.2324 12.1597 39.3483L12.3994 39.53C12.5622 39.6511 12.7354 39.7705 12.9017 39.8882C12.9629 39.9314 13.0242 39.9747 13.0872 40.0145L13.1397 40.0543L13.6297 40.3744L13.8397 40.5128C14.0987 40.6755 14.3542 40.8312 14.6097 40.9835C14.6814 41.0181 14.7567 41.0596 14.8249 41.1011C15.0139 41.2084 15.2099 41.3174 15.4007 41.4178C15.5057 41.4766 15.6142 41.5268 15.7227 41.5804C15.8539 41.6531 15.9904 41.724 16.1322 41.7967C16.166 41.8069 16.1988 41.8202 16.2302 41.8365C16.2879 41.8625 16.3422 41.8901 16.3982 41.9178C16.6082 42.0216 16.8269 42.122 17.0544 42.2206C17.0964 42.2379 17.1419 42.2552 17.1874 42.2795C17.4394 42.3885 17.6932 42.4923 17.9539 42.5944C18.0134 42.6117 18.0764 42.6411 18.1377 42.6636C18.3739 42.7518 18.6172 42.8418 18.8569 42.9266L18.9444 42.9577C19.2139 43.0477 19.4782 43.1342 19.7494 43.2173C19.8124 43.2346 19.8772 43.2571 19.9437 43.2744C20.2236 43.3574 20.4931 43.4561 20.7731 43.5114C38.7508 46.7506 43.9745 32.8234 43.9745 32.8234C39.5855 38.4745 31.7981 39.9643 24.4201 38.3067C24.1471 38.2444 23.8741 38.1579 23.5976 38.0783C23.2646 37.9805 22.9338 37.8755 22.6054 37.7634L22.4969 37.7218C22.2589 37.6423 22.0296 37.554 21.7969 37.4658C21.7336 37.4404 21.6694 37.4173 21.6044 37.3965C21.3454 37.2927 21.0969 37.1872 20.8466 37.0782C20.7924 37.0609 20.7469 37.0366 20.6926 37.0159C20.4806 36.9196 20.2695 36.8216 20.0591 36.7217C19.9961 36.6942 19.9343 36.6642 19.8737 36.6318C19.7092 36.5556 19.5447 36.4674 19.3837 36.3843C19.2731 36.3318 19.164 36.2764 19.0564 36.2182C18.8569 36.1144 18.6592 36.0019 18.4614 35.8946C18.4019 35.8531 18.3337 35.8185 18.2654 35.7804C18.0068 35.6288 17.7507 35.4731 17.4972 35.3133C17.4268 35.2706 17.358 35.2256 17.2907 35.1783C17.1049 35.0645 16.9229 34.9451 16.7447 34.8201C16.6834 34.7803 16.6274 34.7371 16.5644 34.6938C16.39 34.5748 16.2179 34.4525 16.0482 34.327C15.9747 34.2682 15.8959 34.2128 15.8172 34.154C15.6632 34.0328 15.5074 33.9204 15.3534 33.7941L15.1469 33.6297C14.9482 33.4722 14.7527 33.3107 14.5607 33.1452C14.5408 33.1254 14.5192 33.1074 14.4959 33.0916L13.8887 32.5448L13.7137 32.3821C13.5702 32.2368 13.4232 32.0984 13.2762 31.9565L13.1047 31.7834C12.9198 31.6016 12.7395 31.4152 12.5639 31.2246L12.5377 31.1969C12.3522 30.9962 12.1702 30.7903 11.9899 30.5826C11.9427 30.5307 11.8972 30.4719 11.8499 30.4148L11.4527 29.9355C11.2509 29.6791 11.0526 29.4201 10.8577 29.1586C6.76623 23.6372 5.28574 16.0135 8.55997 9.7619L5.66898 13.3938ZM17.2102 8.94347C14.5152 12.7692 14.6657 17.8874 16.7657 21.9346C17.1127 22.6156 17.5092 23.2708 17.9522 23.895C18.3547 24.466 18.7992 25.1426 19.3399 25.6045C19.5272 25.8156 19.7302 26.0198 19.9419 26.2274L20.0994 26.3832C20.2989 26.5735 20.5054 26.7587 20.7119 26.9455L20.7399 26.968C20.9759 27.1717 21.2175 27.3691 21.4644 27.5598C21.5239 27.5996 21.5746 27.6463 21.6324 27.6861C21.8774 27.873 22.1259 28.0529 22.3814 28.2329L22.4076 28.2484C22.5161 28.3263 22.6316 28.3972 22.7541 28.4734C22.8031 28.5045 22.8591 28.5461 22.9116 28.5772C23.0971 28.6949 23.2791 28.8056 23.4681 28.9181C23.4979 28.9302 23.5241 28.9458 23.5521 28.9579C23.7096 29.053 23.8811 29.1447 24.0456 29.2295C24.1034 29.2641 24.1594 29.2901 24.2206 29.323C24.3361 29.3801 24.4516 29.4406 24.5654 29.4995L24.6214 29.5237C24.8576 29.6396 25.0991 29.7469 25.3354 29.8524C25.3949 29.8767 25.4456 29.8957 25.4964 29.9199C25.6906 30.003 25.8884 30.0826 26.0844 30.157C26.1719 30.1864 26.2541 30.221 26.3364 30.2469C26.5149 30.3127 26.7039 30.3733 26.8789 30.4338L27.1239 30.5117C27.3811 30.5895 27.6401 30.6916 27.9096 30.7366C41.787 33.0085 45 22.4398 45 22.4398C42.1073 26.5579 36.5091 28.5184 30.5433 26.9871C30.2793 26.9196 30.0172 26.8446 29.7576 26.7621C29.6736 26.7379 29.6001 26.7119 29.5196 26.6877C29.3376 26.6254 29.1503 26.5666 28.9736 26.4991L28.7216 26.4057C28.5238 26.3278 28.3244 26.2551 28.1336 26.1721C28.0741 26.1461 28.0199 26.1288 27.9744 26.1029C27.7294 25.9939 27.4826 25.8866 27.2429 25.7707L26.8824 25.5855L26.6741 25.4817C26.5172 25.3993 26.3626 25.3127 26.2104 25.2221C26.1731 25.204 26.1368 25.1838 26.1019 25.1616C25.9164 25.0474 25.7221 24.9366 25.5454 24.819C25.4859 24.7861 25.4316 24.7463 25.3756 24.7117L25.0116 24.4764C24.7596 24.3034 24.5129 24.1165 24.2626 23.9348C24.2066 23.8846 24.1524 23.8431 24.0981 23.7981C21.4749 21.7598 19.4064 18.9706 18.4247 15.8162C17.3922 12.5338 17.6197 8.85523 19.4047 5.867L17.2102 8.94347ZM26.9156 5.61264C25.3249 7.92086 25.1726 10.7862 26.2681 13.3298C27.4319 16.0342 29.8101 18.1573 32.5821 19.1609C32.6958 19.2042 32.8061 19.2405 32.9251 19.282L33.0791 19.3287C33.2401 19.3806 33.4028 19.4377 33.5691 19.4741C41.2358 20.9362 43.3113 15.5809 43.8695 14.7953C42.0443 17.3873 38.9835 18.0085 35.2281 17.1053C34.9221 17.0297 34.6206 16.9373 34.3251 16.8285C33.957 16.7008 33.596 16.5541 33.2436 16.389C32.5765 16.0699 31.9423 15.6874 31.3501 15.247C27.9866 12.7259 25.9024 7.9174 28.0969 4" fill="#324558"/>
</svg>
