<svg width="48" height="48" viewBox="0 0 48 48" fill="none" xmlns="http://www.w3.org/2000/svg">
<path fill-rule="evenodd" clip-rule="evenodd" d="M6.38172 14.5263C4.86227 17.3461 4 20.5723 4 24C4 25.5642 4.17958 27.0865 4.51924 28.5474C6.59736 30.7402 9.92397 32.2568 14.569 32.1968C17.7588 32.2047 20.9122 32.4797 23.4058 32.837C30.5517 33.8611 34.9582 36.1266 37.6726 38.5967C37.387 38.8642 37.0937 39.1235 36.7928 39.3741C34.4303 37.4022 31.0095 35.6336 26.0656 34.7886C29.6747 36.1029 32.3065 38.456 34.1868 41.2149C40.0616 37.731 44 31.3254 44 24C44 12.9543 35.0457 4 24 4C17.96 4 12.5453 6.67746 8.87813 10.9102C8.95004 10.9207 9.02291 10.9293 9.09673 10.936C15.8022 10.9658 19.8377 13.0222 19.8377 13.0222C19.8377 13.0222 19.403 12.4202 19.8377 11.4194C20.2337 13.6489 22.7091 14.3244 22.7091 14.3244C22.7091 14.3244 22.2852 13.6625 22.7091 12.6214C23.4212 14.4518 24.3242 15.1925 25.3754 15.6268C25.1345 15.0423 25.2342 14.6715 25.3134 14.3768C25.3478 14.2485 25.3784 14.1346 25.3754 14.0239C26.0703 16.1088 28.0864 17.0759 28.0864 17.0759C28.0864 17.0759 29.3973 16.8469 29.6958 16.9406C29.7716 16.99 29.7942 17.0328 29.8161 17.0742C29.8219 17.0852 29.8277 17.0962 29.8344 17.1071L29.8554 17.1418C30.0322 17.4343 31.2327 19.4196 31.4223 19.6049C31.6248 19.8026 32.0832 20.3439 31.8808 20.5103C31.6142 20.5623 31.6355 20.6768 31.6675 20.7497C31.6995 20.8225 33.0529 22.0819 34.1935 22.4982C35.3339 22.9144 35.8241 22.904 35.8241 22.904C35.8241 22.904 33.7778 24.2048 33.5328 24.6525C32.4029 23.2162 30.5591 22.0713 29.9836 21.7487C29.8076 21.6501 29.5172 21.5233 29.1853 21.3784C28.4314 21.0493 27.4634 20.6267 27.1379 20.2293C26.6688 19.6568 26.6393 19.0372 26.6607 18.3399C20.9123 15.7256 15.0322 13.1312 10.1079 13.528C8.68583 13.6366 7.44222 13.9895 6.38172 14.5263ZM29.3493 16.3188L28.4525 16.376C24.7171 12.368 19.9052 9.45975 14.3771 7.26514C24.2114 10.2307 29.3493 16.3188 29.3493 16.3188Z" fill="#324558"/>
<path d="M32.997 41.8669C32.9813 41.8748 32.9656 41.8827 32.9499 41.8906C31.5337 39.9686 29.9184 38.4313 28.2035 37.5053C23.0019 34.8716 18.6499 34.6536 12.6814 34.3547L12.6775 34.3545C12.2536 34.3333 11.8216 34.3116 11.3805 34.2887C9.51993 34.2424 7.75502 33.8104 6.1755 33.0806C9.484 39.562 16.2237 44 24 44C27.236 44 30.2926 43.2314 32.997 41.8669Z" fill="#324558"/>
<path d="M29.9202 18.9055C30.009 18.7551 30.2254 19.1066 30.4586 19.4852C30.5872 19.694 30.721 19.9113 30.8411 20.0569L30.8442 20.0738C30.8577 20.1453 30.8653 20.1858 30.6832 20.1492C30.6667 20.0652 30.6383 20.0408 30.6383 20.0408C30.6383 20.0408 30.1653 19.7659 30.0202 19.5709C29.8751 19.3759 29.8494 19.0349 29.9202 18.9055Z" fill="#324558"/>
</svg>
