<svg width="48" height="48" viewBox="0 0 48 48" fill="none" xmlns="http://www.w3.org/2000/svg">
<path fill-rule="evenodd" clip-rule="evenodd" d="M19.8602 3.89149L14.7623 9.36368L9.66437 12.388L7.39862 17.486L4 22.9582L7.20644 30.3219L8.15724 36.1784L9.47218 39.2028L5.15409 44.2758L5.13281 44.3006L11.1715 44.3007L11.5559 39.0107L14.0037 35.2378L17.9789 35.9963L22.3182 34.2869L25.5245 32.4056L28.7304 34.6638L28.7211 34.6962L24.9581 39.3949L24.9553 39.3976L24.9478 39.3848L21.1851 42.9756L27.0418 42.9756V40.5278L31.4172 37.0317L33.4454 38.8205L33.4501 38.8351L28.5489 45.9999L34.5876 46L35.1498 41.8733L38.9372 38.2621L36.6713 33.9127L36.4791 28.0563L40.8284 25.4163L43.4685 25.7904L46.867 24.2834L47.8078 17.6782L42.5278 19.3775L39.1292 24.2832L33.6469 27.1154L25.909 23.909L20.2446 19.7517L24.0175 14.6538L23.9802 14.5137L24.0171 14.4619L22.5103 8.98943L24.7761 2L19.486 7.66437L17.7867 7.29011L19.8602 3.89149Z" fill="#324558"/>
</svg>
