<svg width="48" height="48" viewBox="0 0 48 48" fill="none" xmlns="http://www.w3.org/2000/svg">
<path d="M37.326 21.6798C37.3255 21.9585 37.2144 22.2255 37.0172 22.4224C36.8199 22.6192 36.5527 22.7298 36.274 22.7298H33.35V24.6058H36.274C36.4156 24.5996 36.557 24.6222 36.6897 24.6721C36.8223 24.722 36.9435 24.7983 37.0459 24.8963C37.1483 24.9943 37.2298 25.1121 37.2854 25.2424C37.3411 25.3728 37.3698 25.5131 37.3698 25.6548C37.3698 25.7965 37.3411 25.9368 37.2854 26.0672C37.2298 26.1975 37.1483 26.3153 37.0459 26.4133C36.9435 26.5113 36.8223 26.5876 36.6897 26.6375C36.557 26.6874 36.4156 26.71 36.274 26.7038H32.3C32.0231 26.7017 31.7581 26.5905 31.5627 26.3943C31.3672 26.1981 31.257 25.9327 31.256 25.6558V17.7038C31.256 17.1298 31.726 16.6538 32.306 16.6538H36.282C36.5605 16.6546 36.8272 16.766 37.0236 16.9635C37.2199 17.1609 37.3298 17.4283 37.329 17.7068C37.3282 17.9853 37.2168 18.252 37.0193 18.4484C36.8219 18.6447 36.5545 18.7546 36.276 18.7538H33.352V20.6298H36.276C36.858 20.6298 37.328 21.1038 37.328 21.6798H37.326ZM29.13 26.6498C29.0226 26.6837 28.9106 26.7006 28.798 26.6998C28.6334 26.7034 28.4703 26.6676 28.3224 26.5952C28.1745 26.5228 28.0461 26.416 27.948 26.2838L23.876 20.7558V25.6558C23.856 25.9198 23.737 26.1665 23.5429 26.3465C23.3487 26.5265 23.0937 26.6265 22.829 26.6265C22.5643 26.6265 22.3093 26.5265 22.1151 26.3465C21.921 26.1665 21.802 25.9198 21.782 25.6558V17.7038C21.7815 17.4273 21.8907 17.1618 22.0857 16.9657C22.2806 16.7696 22.5455 16.6589 22.822 16.6578C23.146 16.6578 23.446 16.8298 23.646 17.0798L27.75 22.6298V17.7038C27.75 17.1298 28.22 16.6538 28.8 16.6538C29.374 16.6538 29.85 17.1298 29.85 17.7038V25.6558C29.8497 25.8761 29.78 26.0908 29.6507 26.2692C29.5215 26.4477 29.3393 26.5808 29.13 26.6498ZM19.23 26.7038C18.9527 26.7022 18.6873 26.5912 18.4914 26.395C18.2955 26.1987 18.1851 25.9331 18.184 25.6558V17.7038C18.184 17.1298 18.656 16.6538 19.234 16.6538C19.812 16.6538 20.282 17.1298 20.282 17.7038V25.6558C20.2804 25.934 20.1689 26.2002 19.9719 26.3965C19.7748 26.5928 19.5082 26.7033 19.23 26.7038ZM12.196 26.7038C11.9184 26.7022 11.6525 26.5914 11.456 26.3952C11.2595 26.1991 11.1481 25.9334 11.146 25.6558V17.7038C11.1689 17.4411 11.2895 17.1966 11.4839 17.0185C11.6783 16.8404 11.9323 16.7415 12.196 16.7415C12.4597 16.7415 12.7137 16.8404 12.9081 17.0185C13.1025 17.1966 13.2231 17.4411 13.246 17.7038V24.6038H16.174C16.4525 24.6038 16.7195 24.7144 16.9165 24.9113C17.1134 25.1082 17.224 25.3753 17.224 25.6538C17.224 25.9323 17.1134 26.1993 16.9165 26.3963C16.7195 26.5932 16.4525 26.7038 16.174 26.7038H12.196ZM24 5.1438C12.974 5.1438 4 12.4298 4 21.3798C4 29.3998 11.116 36.1178 20.726 37.3938C21.376 37.5298 22.264 37.8238 22.488 38.3778C22.688 38.8778 22.62 39.6538 22.552 40.1778L22.278 41.8778C22.204 42.3778 21.878 43.8538 24.026 42.9518C26.178 42.0538 35.554 36.1558 39.754 31.3278C42.626 28.1778 44 24.9538 44 21.3798C44 12.4298 35.024 5.1438 24 5.1438Z" fill="#324558"/>
</svg>
