<svg width="48" height="48" viewBox="0 0 48 48" fill="none" xmlns="http://www.w3.org/2000/svg">
<path d="M36.67 36.678H31.34V28.324C31.34 26.332 31.3 23.768 28.56 23.768C25.782 23.768 25.358 25.936 25.358 28.178V36.678H20.026V19.5H25.146V21.84H25.216C25.932 20.492 27.672 19.066 30.272 19.066C35.672 19.066 36.672 22.622 36.672 27.248V36.678H36.67ZM14.006 17.15C13.5991 17.1505 13.1961 17.0707 12.8201 16.9152C12.4441 16.7597 12.1025 16.5315 11.8149 16.2437C11.5273 15.9559 11.2993 15.6141 11.144 15.238C10.9887 14.8619 10.9092 14.4589 10.91 14.052C10.9104 13.4397 11.0924 12.8412 11.4329 12.3323C11.7734 11.8234 12.2572 11.4269 12.8231 11.1929C13.3889 10.9589 14.0115 10.898 14.612 11.0179C15.2124 11.1377 15.7639 11.433 16.1966 11.8662C16.6293 12.2995 16.9238 12.8513 17.0429 13.452C17.162 14.0526 17.1003 14.6751 16.8656 15.2406C16.6309 15.8062 16.2337 16.2895 15.7244 16.6293C15.215 16.9692 14.6163 17.1504 14.004 17.15H14.006ZM16.678 36.678H11.332V19.5H16.68V36.678H16.678ZM39.34 6H8.658C7.186 6 6 7.16 6 8.594V39.406C6 40.84 7.188 42 8.656 42H39.332C40.8 42 42 40.84 42 39.406V8.594C42 7.16 40.8 6 39.332 6H39.338H39.34Z" fill="#324558"/>
</svg>
