<svg width="48" height="48" viewBox="0 0 48 48" fill="none" xmlns="http://www.w3.org/2000/svg">
<path d="M23.9992 4C12.9537 4 4 12.9567 4 24.0017C4 24.2583 4.005 24.5133 4.015 24.7683C10.4019 20.26 21.2957 12.83 23.9942 12.635C24.8892 11.5017 27.9443 10.6017 28.501 10.62L26.906 12.6167C26.906 12.6167 26.8559 14.6567 26.2593 15.0533C31.8262 18.775 34.4996 32.1567 35.6363 40.2633C38.2249 38.4149 40.3345 35.9748 41.7893 33.1462C43.2441 30.3176 44.002 27.1824 44 24.0017C44 12.9567 35.048 4 23.9992 4ZM23.0108 22.07C21.5124 22.115 18.4389 26.59 14.9688 31.3833C13.3004 33.6867 11.577 36.0883 9.98858 38.2733C13.7242 41.9499 18.7577 44.0072 23.9992 44C27.911 44 31.5611 42.88 34.6429 40.9383C32.2712 33.6883 27.7627 22.1067 23.1475 22.08C23.1024 22.0719 23.0566 22.0686 23.0108 22.07ZM11.797 23.9C10.4253 23.8883 7.03013 25.0683 4.11834 26.1917C4.41502 28.9117 5.25339 31.4683 6.53011 33.75C7.11346 32.8667 7.72349 31.955 8.33018 31.0667C10.6403 27.67 12.8787 24.67 12.352 24.05C12.2587 23.9467 12.067 23.9 11.797 23.9ZM15.4055 25.6083C14.2988 25.775 10.2986 30.7583 7.1218 34.7383C7.63848 35.55 8.21018 36.3183 8.8352 37.045C12.102 31.695 15.7572 25.8667 15.5605 25.6267C15.5118 25.6052 15.4578 25.5988 15.4055 25.6083Z" fill="#324558"/>
</svg>
