<svg width="48" height="48" viewBox="0 0 48 48" fill="none" xmlns="http://www.w3.org/2000/svg">
<path d="M15 10C17.6894 10 20.2017 10.7583 22.3347 12.0729C19.0606 15.0026 17 19.2607 17 24C17 28.7393 19.0606 32.9974 22.3347 35.9271C20.2017 37.2417 17.6894 38 15 38C7.26801 38 1 31.732 1 24C1 16.268 7.26801 10 15 10Z" fill="#324558"/>
<path d="M19 24C19 19.695 20.9431 15.8439 24 13.2758C24.3821 13.5968 24.7468 13.9379 25.0925 14.2973C27.5123 16.8138 29 20.2332 29 24C29 28.305 27.0569 32.1561 24 34.7242C20.9431 32.1561 19 28.305 19 24Z" fill="#324558"/>
<path d="M31 24C31 28.7393 28.9394 32.9974 25.6653 35.9271C27.7983 37.2417 30.3106 38 33 38C40.732 38 47 31.732 47 24C47 16.268 40.732 10 33 10C30.3106 10 27.7983 10.7583 25.6653 12.0729C28.9394 15.0026 31 19.2607 31 24Z" fill="#324558"/>
</svg>
