<svg width="48" height="48" viewBox="0 0 48 48" fill="none" xmlns="http://www.w3.org/2000/svg">
<path d="M24 4C35.268 4 44 12.254 44 23.4C44 34.546 35.268 42.8 24 42.8C22.0443 42.805 20.0968 42.5467 18.21 42.032C17.8556 41.9346 17.4785 41.9621 17.142 42.11L13.174 43.862C12.9343 43.968 12.6722 44.0134 12.4107 43.9943C12.1493 43.9752 11.8966 43.8922 11.6748 43.7526C11.453 43.6129 11.2689 43.4209 11.1387 43.1934C11.0084 42.966 10.9361 42.71 10.928 42.448L10.818 38.888C10.8108 38.6715 10.7595 38.4588 10.6674 38.2628C10.5752 38.0668 10.4441 37.8916 10.282 37.748C6.39 34.27 4 29.234 4 23.4C4 12.254 12.734 4 24 4ZM11.99 29.074C11.426 29.968 12.526 30.976 13.368 30.336L19.678 25.548C19.8863 25.3908 20.1401 25.3057 20.401 25.3057C20.6619 25.3057 20.9157 25.3908 21.124 25.548L25.798 29.048C26.1295 29.2967 26.509 29.474 26.9125 29.5687C27.316 29.6635 27.7347 29.6736 28.1423 29.5984C28.5498 29.5232 28.9374 29.3644 29.2806 29.132C29.6237 28.8996 29.915 28.5986 30.136 28.248L36.01 18.928C36.574 18.032 35.474 17.024 34.632 17.662L28.322 22.454C28.1137 22.6112 27.8599 22.6963 27.599 22.6963C27.3381 22.6963 27.0843 22.6112 26.876 22.454L22.202 18.954C21.8705 18.7053 21.491 18.528 21.0875 18.4333C20.684 18.3385 20.2653 18.3284 19.8577 18.4036C19.4502 18.4788 19.0626 18.6376 18.7194 18.87C18.3763 19.1024 18.085 19.4034 17.864 19.754L11.99 29.074Z" fill="#324558"/>
</svg>
