<svg width="48" height="48" viewBox="0 0 48 48" fill="none" xmlns="http://www.w3.org/2000/svg">
<path fill-rule="evenodd" clip-rule="evenodd" d="M11.625 6C8.5184 6 6 8.5184 6 11.625V36.375C6 39.4816 8.5184 42 11.625 42H36.375C39.4816 42 42 39.4816 42 36.375V11.625C42 8.5184 39.4816 6 36.375 6H11.625ZM26.9472 10.5H30.8985L38.1424 15L30.8985 37.5H26.9472L30.2399 16.9285L22.9961 37.5H19.0448L22.6668 18.2143L15.0936 37.5H11.1424L15.0936 19.5L11.1424 10.5H15.0936L22.6668 17.5715L19.0448 10.5H22.9961L30.2399 16.2857L26.9472 10.5Z" fill="#324558"/>
</svg>
