<svg width="48" height="48" viewBox="0 0 48 48" fill="none" xmlns="http://www.w3.org/2000/svg">
<path d="M22.6977 8.42722L26.4008 19.434L27.1249 21.5864L27.1378 12.3096L27.1561 3.01736H34.9839L34.9986 23.9663C35.0041 35.4997 34.9931 44.9693 34.9711 44.9886C34.9491 45.006 34.588 44.9886 34.1718 44.9365C32.3588 44.7089 29.9738 44.4814 28.0489 44.3926C27.6598 44.3772 27.271 44.3527 26.8829 44.3194C26.8774 44.3116 26.3825 42.8497 25.4604 40.1072V40.0995L21.53 28.4099L20.9067 26.57L20.892 35.4148C20.881 43.8333 20.8737 44.3059 20.7875 44.3059C20.4887 44.3059 17.9094 44.4794 17.0477 44.5682C16.4831 44.6202 15.3502 44.7417 14.5362 44.8478C13.7186 44.9462 13.0403 45.0117 13.0275 44.9982C13.011 44.9867 13 35.5305 13 23.9895V3.00386H13.0092V3H20.87L20.9213 3.15429C20.9342 3.18515 21.0405 3.49373 21.2091 3.99711L22.3842 7.42625L22.7014 8.38286L22.6995 8.42722H22.6977Z" fill="#324558"/>
</svg>
