<svg width="48" height="48" viewBox="0 0 48 48" fill="none" xmlns="http://www.w3.org/2000/svg">
<path d="M24 3L6 13.5V34.5L24 45L42 34.5V13.5L24 3ZM34.3896 32.0325C34.3896 33.2663 33.271 34.29 31.742 34.29C30.6494 34.29 29.4026 33.8438 28.6234 32.8725L18.2338 20.3757V32.0308C18.2338 33.2925 17.2468 34.2882 16.0277 34.2882H15.8961C14.6476 34.2882 13.6623 33.2383 13.6623 32.0308V15.9675C13.6623 14.7337 14.7532 13.71 16.2597 13.71C17.3784 13.71 18.6493 14.1562 19.4286 15.1275L29.7662 27.6243V15.9675C29.7662 14.7057 30.8052 13.71 32 13.71H32.1299C33.3766 13.71 34.3636 14.76 34.3636 15.9675V32.0325H34.3896Z" fill="#324558"/>
</svg>
