<svg width="48" height="48" viewBox="0 0 48 48" fill="none" xmlns="http://www.w3.org/2000/svg">
<path d="M21.97 6.04323L26.6723 6H26.674L29.404 10.7038L32.1515 6.02594H34.4895L35.6847 8.07004L31.7648 14.7281L34.5472 19.5097L32.2005 23.5564L21.97 6.04323Z" fill="#324558"/>
<path d="M14.788 17.2443L19.506 17.2304L9.2755 34.7384L6.88675 30.735L9.643 26.0484L4.1655 26.0346L3 24.0337L4.1935 21.9896L11.9862 22.0173L14.788 17.2443Z" fill="#324558"/>
<path d="M22.6595 35.2607L20.29 31.2278H40.751L38.441 35.2745L32.9512 35.2607L35.676 39.9524L34.507 41.9516L32.1217 41.955L28.2455 35.2711L22.6595 35.2607Z" fill="#324558"/>
<path d="M13.479 6.00346L15.8642 6L19.7387 12.684L25.3247 12.6943L27.6925 16.7272H7.23499L9.54498 12.6805L15.0347 12.6943L12.31 8.00259L13.479 6.00346Z" fill="#324558"/>
<path d="M38.7236 13.2561L38.7245 13.2546H38.7227L38.7236 13.2561Z" fill="#324558"/>
<path d="M38.7236 13.2561L28.494 30.7644L33.212 30.7505L36.0137 25.9775L43.8065 26.0052L45 23.9594L43.8345 21.9585L38.357 21.9447L41.1115 17.2546L38.7236 13.2561Z" fill="#324558"/>
<path d="M15.817 24.4488L15.8275 24.4315L26.0545 41.9447H26.037L26.044 41.955L21.34 42L18.6135 37.2962L15.8712 41.9619H15.8695L15.8625 41.9723H13.5245L12.3275 39.9282L16.2475 33.2702L13.465 28.4885L15.8135 24.4418L15.817 24.4488Z" fill="#324558"/>
</svg>
