<svg width="48" height="48" viewBox="0 0 48 48" fill="none" xmlns="http://www.w3.org/2000/svg">
<path d="M24.0437 3.00008C22.814 2.99439 21.6051 3.3116 20.5423 3.91882L5.01961 12.7126V14.3751H33.282C34.558 14.3736 35.809 14.0275 36.8979 13.3747C37.9869 12.7218 38.8718 11.7874 39.4558 10.6738L27.4256 3.88907C26.395 3.31208 25.2301 3.00588 24.0437 3.00008ZM41.5327 11.8761L27.4042 35.9018C26.7676 36.9871 26.4476 38.2234 26.479 39.4753C26.5105 40.7272 26.8922 41.9466 27.5825 42.9998L39.5877 36.1608C40.6298 35.5626 41.4935 34.7062 42.0924 33.6774C42.6912 32.6485 43.0042 31.4832 43 30.2983V12.7126L41.5345 11.8778L41.5327 11.8761ZM5.20859 16.734C5.13903 16.7354 5.06949 16.7377 5 16.741L5.03031 30.3683C5.0374 31.5538 5.3616 32.7168 5.97045 33.7407C6.5793 34.7647 7.45144 35.6137 8.4996 36.2028L24.0133 45L25.4824 44.1688L11.352 20.1413C10.7309 19.0869 9.83364 18.2149 8.75336 17.6158C7.67309 17.0167 6.44916 16.7122 5.20859 16.734ZM23.9848 18.925C22.7604 18.9324 21.5888 19.4151 20.7256 20.2676C19.8625 21.1201 19.3781 22.2731 19.3781 23.475C19.3786 24.6815 19.8672 25.8383 20.7364 26.6912C21.6056 27.5441 22.7843 28.0233 24.0133 28.0233C25.2427 28.0233 26.4217 27.5439 27.2909 26.6906C28.1602 25.8373 28.6486 24.68 28.6486 23.4733C28.6486 22.2666 28.1602 21.1092 27.2909 20.256C26.4217 19.4027 25.2427 18.9233 24.0133 18.9233C24.0038 18.9233 23.9943 18.9233 23.9848 18.9233V18.925Z" fill="#324558"/>
</svg>
