<svg width="48" height="48" viewBox="0 0 48 48" fill="none" xmlns="http://www.w3.org/2000/svg">
<path d="M11.4815 39.4349C11.6694 39.4349 11.8408 39.3625 11.9691 39.2451L28.8552 24.5469C29.0088 24.4142 29.1059 24.218 29.1059 23.9993C29.1059 23.7811 29.0094 23.5862 28.8564 23.4542L11.9703 8.75579C11.8421 8.63736 11.67 8.56494 11.4815 8.56494H2.53044C2.13182 8.56494 1.80859 8.88875 1.80859 9.28753C1.80859 9.50873 1.90765 9.70618 2.06444 9.83823L17.7302 23.4695C17.8725 23.6013 17.962 23.7895 17.962 23.9993C17.962 24.2212 17.8624 24.4196 17.7049 24.552L2.01998 38.2026C1.88917 38.3327 1.80859 38.513 1.80859 38.7123C1.80859 39.1111 2.13182 39.4349 2.53044 39.4349H11.4815Z" fill="#324558"/>
<path d="M36.3383 8.56494C36.1415 8.56494 35.9624 8.64428 35.8323 8.77229L27.148 16.3321C26.9899 16.4651 26.8901 16.6636 26.8901 16.8854C26.8901 17.0721 26.9613 17.2422 27.0774 17.3706L31.5472 21.2612C31.6793 21.4063 31.8698 21.4974 32.0819 21.4974C32.2812 21.4974 32.4615 21.4168 32.5923 21.2863L45.7153 9.86182C45.888 9.73002 45.9998 9.52176 45.9998 9.28753C45.9998 8.88875 45.6765 8.56494 45.2778 8.56494H36.3383Z" fill="#324558"/>
<path d="M36.3383 39.4348C36.1415 39.4348 35.9624 39.3554 35.8323 39.2272L27.148 31.668C26.9899 31.5346 26.8901 31.3365 26.8901 31.1143C26.8901 30.9276 26.9613 30.7575 27.0774 30.6292L31.5472 26.7384C31.6793 26.5938 31.8698 26.5023 32.0819 26.5023C32.2812 26.5023 32.4615 26.583 32.5923 26.7131L45.7153 38.1377C45.888 38.2697 45.9998 38.478 45.9998 38.7122C45.9998 39.111 45.6765 39.4348 45.2778 39.4348H36.3383Z" fill="#324558"/>
</svg>
