<svg width="48" height="48" viewBox="0 0 48 48" fill="none" xmlns="http://www.w3.org/2000/svg">
<path fill-rule="evenodd" clip-rule="evenodd" d="M9.5851 23.8246H9.54535V23.8346C9.0783 23.2834 4.63638 17.8518 5.02393 15.1159C5.51085 11.6285 12.5364 3 12.5364 3C12.5364 3 10.2111 10.8869 10.3801 13.2319C10.4894 14.665 12.8147 16.4889 13.401 16.9298C16.1337 13.9936 19.86 12.2403 23.8845 12.2402V12.1997C27.8892 12.1997 31.6057 13.9434 34.3384 16.8497C34.3403 16.8516 34.3421 16.8536 34.344 16.8556C35.0548 16.3099 37.161 14.6014 37.2602 13.2319C37.4291 10.8869 35.1038 3 35.1038 3C35.1038 3 42.1294 11.6285 42.6163 15.1159C42.9836 17.7286 38.9685 22.7809 38.187 23.7312C38.1901 23.7398 38.1921 23.7496 38.194 23.7595C38.1965 23.772 38.199 23.7845 38.204 23.7945L38.1742 23.8046V33.7659C38.1742 33.7659 32.3907 36.0508 30.0058 37.8947C27.9687 39.4681 24.1925 44.9799 24.1925 44.9799H23.8548L23.8548 44.9904H23.8747V45.0004H23.5169C23.5169 45.0004 19.701 39.5788 17.7235 38.0455C15.3386 36.2015 9.55518 33.9167 9.55518 33.9167V23.825L9.5851 23.8246ZM38.1744 23.6946V23.6843C38.1743 23.684 38.1745 23.6846 38.1744 23.6843V23.6946C38.1745 23.6946 38.1743 23.6945 38.1744 23.6946ZM23.8944 21.5197H23.8846V21.5301H23.8747C22.8809 21.5301 22.076 22.3419 22.076 23.344C22.076 23.5144 22.1058 23.6747 22.1456 23.825C22.3543 24.5866 23.0399 25.1478 23.8646 25.1579V25.1474H23.8944C24.7689 25.1374 25.4844 24.5061 25.6434 23.6743C25.6632 23.564 25.6732 23.4538 25.6732 23.3335C25.6732 22.3414 24.8782 21.5297 23.8944 21.5197Z" fill="#324558"/>
</svg>
