<svg width="48" height="48" viewBox="0 0 48 48" fill="none" xmlns="http://www.w3.org/2000/svg">
<path d="M21.9404 44.8934L28.7714 41.6789V3.10645L21.9404 6.44694V40.5974C18.024 40.0964 14.772 38.8829 12.186 36.9584C9.6 35.0324 8.307 32.7974 8.307 30.2534C8.307 27.8579 9.474 25.7234 11.8095 23.8484C14.145 21.9734 17.1285 20.7179 20.7615 20.0819V15.7634C17.1285 16.1984 13.8525 17.1029 10.9305 18.4754C8.0085 19.8479 5.7075 21.5684 4.0245 23.6354C2.3415 25.7039 1.5 27.9089 1.5 30.2534C1.5 32.6969 2.3955 34.9769 4.1865 37.0949C5.9775 39.2129 8.43 40.9574 11.544 42.3299C14.6595 43.7024 18.1245 44.5559 21.9404 44.8919V44.8934Z" fill="#324558"/>
<path d="M45.5715 17.7224L46.5 27.5159L33.3165 24.6539L37.008 22.5689C35.0145 21.3959 32.6715 20.5679 29.976 20.0819V15.7634C34.614 16.3154 38.64 17.6294 42.0555 19.7054L45.5715 17.7224Z" fill="#324558"/>
</svg>
