<svg width="48" height="48" viewBox="0 0 48 48" fill="none" xmlns="http://www.w3.org/2000/svg">
<path fill-rule="evenodd" clip-rule="evenodd" d="M21.2919 6C22.959 6 24.4286 6.28231 25.7025 6.84815C26.9758 7.41398 28.0376 8.19899 28.8866 9.20377C29.7357 10.2098 30.3793 11.3876 30.82 12.7378C31.2612 14.0887 31.4812 15.5342 31.4812 17.0733C31.4812 18.5808 31.2758 20.0184 30.868 21.3844C30.4589 22.7511 29.8299 23.9447 28.9808 24.9658C28.1324 25.9864 27.0706 26.8036 25.7967 27.4162C24.5228 28.0282 23.0216 28.3347 21.2919 28.3347H13.1786V42.0781H7V6H21.2919ZM13.1784 22.5392H21.2916C22.0471 22.5392 22.7065 22.3971 23.273 22.1148C23.8394 21.8325 24.3032 21.4476 24.6642 20.9607C25.0258 20.4738 25.2932 19.917 25.4665 19.2875C25.6391 18.6597 25.726 18.0155 25.726 17.3556C25.726 16.6653 25.6391 16.0054 25.4665 15.377C25.2932 14.7486 25.0258 14.1992 24.6642 13.728C24.3032 13.2569 23.8394 12.8793 23.273 12.597C22.7065 12.3135 22.0471 12.1726 21.2916 12.1726H13.1784V22.5392Z" fill="#324558"/>
<path d="M34.8213 27.1071V6H40.9999V30.1415L34.8213 27.1071Z" fill="#324558"/>
<path d="M40.9999 42.0783V36.4734L34.8213 33.4402V42.0771L40.9999 42.0783Z" fill="#324558"/>
</svg>
