<svg width="48" height="48" viewBox="0 0 48 48" fill="none" xmlns="http://www.w3.org/2000/svg">
<path d="M22.7073 43.9768C12.2933 43.4794 4 34.7261 4 24C4 12.9543 12.7944 4 23.6427 4C23.6558 4 23.6689 4.00024 23.6819 4.00048C23.6936 4.0007 23.7052 4.00091 23.717 4.00095C28.5228 4.01243 33.1565 5.8243 36.7345 9.09112C34.432 7.53577 31.7395 6.64101 28.8618 6.64101C24.1842 6.64101 19.9952 9.00357 17.1771 12.7295C15.0055 15.3396 13.5988 19.1987 13.5032 23.529C13.5029 23.5402 13.5029 24.46 13.5032 24.4712C13.5988 28.8017 15.0056 32.6609 17.1772 35.2711C19.9952 38.9968 24.1842 41.3593 28.8618 41.3593C31.7391 41.3593 34.431 40.4649 36.7331 38.91C33.1363 42.1937 28.4737 44.0067 23.6427 44C23.3291 44 23.0174 43.9916 22.7073 43.9768Z" fill="#324558"/>
<path d="M30.5 8C33.7775 8 36.7822 9.38426 39.1206 11.6864C41.7299 15.0811 43.2854 19.3556 43.2854 24.0004C43.2854 28.644 41.7306 32.9174 39.1227 36.3116C36.784 38.6149 33.7785 40 30.5 40C28.5627 40 26.7208 39.5164 25.0554 38.6455C30.2061 37.7958 34.2047 31.563 34.2047 24.0005C34.2047 16.4373 30.2052 10.204 25.0538 9.35536C26.7196 8.48392 28.5621 8 30.5 8Z" fill="#324558"/>
</svg>
