<svg width="48" height="48" viewBox="0 0 48 48" fill="none" xmlns="http://www.w3.org/2000/svg">
<path d="M17 19H31C33.7614 19 36 21.2386 36 24C36 26.7614 33.7614 29 31 29H17C14.2386 29 12 26.7614 12 24C12 21.2386 14.2386 19 17 19Z" fill="#324558"/>
<path fill-rule="evenodd" clip-rule="evenodd" d="M6 8C4.89543 8 4 8.89543 4 10V38C4 39.1046 4.89543 40 6 40H42C43.1046 40 44 39.1046 44 38V10C44 8.89543 43.1046 8 42 8H6ZM8 24C8 19.0294 12.0294 15 17 15H31C35.9706 15 40 19.0294 40 24C40 28.9706 35.9706 33 31 33H17C12.0294 33 8 28.9706 8 24Z" fill="#324558"/>
</svg>
