<svg width="48" height="48" viewBox="0 0 48 48" fill="none" xmlns="http://www.w3.org/2000/svg">
<path d="M26.7935 4H14.7997C13.3346 4 12.5942 4.61559 12.3842 5.90436L7.06828 38.1045C6.85348 39.4005 7.14388 40.0005 7.96226 40.0005H15.3505C15.8905 39.9573 16.1845 39.5709 16.2925 38.9193L17.9437 28.8815C18.2257 27.1523 18.894 26.5164 19.8996 26.5164H25.8107C33.1546 26.5164 38.6301 21.6145 39.3692 12.8606C39.584 10.2783 38.6445 7.87352 36.8565 6.36395C34.177 4.1032 30.1726 4 26.7935 4Z" fill="#324558"/>
<path d="M14.8258 44C14.2649 44 13.9933 43.681 13.9996 43.0005H15.4703L15.5898 42.9909C16.6037 42.9098 17.5728 42.4581 18.2782 41.6206C18.9079 40.8728 19.1495 40.0291 19.2521 39.4099L20.8796 29.5164H25.8107C30.1734 29.5164 34.1591 28.046 37.161 25.1192C38.7715 23.549 40.0334 21.6244 40.9205 19.4092C41.0101 20.0428 41.0225 20.72 40.9628 21.4342C40.3524 28.7288 35.6169 32.765 29.3365 32.765H26.1669C25.3076 32.765 24.7277 33.2958 24.4918 34.7346L23.1312 43.0977C23.0444 43.64 22.738 43.9619 22.2766 44H14.8258Z" fill="#324558"/>
</svg>
