<svg width="48" height="48" viewBox="0 0 48 48" fill="none" xmlns="http://www.w3.org/2000/svg">
<path d="M11.2445 25.3531L12.057 20.647H14.1693C15.3068 20.647 16.1191 21.1176 16.1191 22.0587C15.9568 24.7256 14.6568 25.1962 13.1944 25.3531H11.2445Z" fill="#324558"/>
<path d="M33.0182 25.3531L33.8307 20.647H35.9432C37.0807 20.647 37.893 21.1176 37.893 22.0587C37.7307 24.7256 36.4307 25.1962 34.9683 25.3531H33.0182Z" fill="#324558"/>
<path fill-rule="evenodd" clip-rule="evenodd" d="M24 40C36.7025 40 47 32.8366 47 24C47 15.1634 36.7025 8 24 8C11.2975 8 1 15.1634 1 24C1 32.8366 11.2975 40 24 40ZM18.7648 27.7059L21.3646 15H24.452L23.802 18.294H26.7267C29.3267 18.4509 30.3016 19.7057 29.9767 21.2745L28.8392 27.7059H25.5895L26.7269 21.902C26.8893 21.1176 26.8893 20.647 25.752 20.647H23.3146L21.8522 27.7059H18.7648ZM6.85718 31.0001L9.45714 18.2941H15.4691C18.0688 18.451 19.3688 19.7058 19.3688 21.9021C19.3688 25.6668 16.2816 27.8629 13.5191 27.706H10.5946L9.94459 31.0001H6.85718ZM28.6312 31.0001L31.231 18.2941H37.243C39.843 18.451 41.143 19.7058 41.143 21.9021C41.143 25.6668 38.0556 27.8629 35.2933 27.706H32.3684L31.7184 31.0001H28.6312Z" fill="#324558"/>
</svg>
