<svg width="48" height="48" viewBox="0 0 48 48" fill="none" xmlns="http://www.w3.org/2000/svg">
<path d="M26.5458 4.16469C15.5919 2.75967 5.56979 10.4998 4.16472 21.455C2.75966 32.4085 10.4984 42.4286 21.4539 43.8353C32.4094 45.2403 42.4332 37.5002 43.8349 26.545C45.2416 15.5915 37.5029 5.57138 26.5458 4.16469ZM30.6643 16.6399C30.2931 16.6448 29.9385 16.7943 29.6759 17.0566L22.2539 24.4783L21.7422 23.9667L20.6705 22.895C27.9858 15.6015 29.3042 15.5315 30.6643 16.6399ZM22.5589 24.7417L29.9593 17.3416C30.0563 17.2398 30.173 17.159 30.3023 17.1039C30.4316 17.0488 30.5708 17.0207 30.7114 17.0213C30.8519 17.0219 30.9909 17.0511 31.1198 17.1072C31.2486 17.1634 31.3647 17.2452 31.4609 17.3477C31.557 17.4502 31.6313 17.5713 31.679 17.7035C31.7268 17.8357 31.7471 17.9762 31.7387 18.1165C31.7303 18.2568 31.6933 18.3939 31.6301 18.5194C31.5669 18.645 31.4787 18.7563 31.371 18.8466L23.539 25.7217L22.5589 24.7417ZM23.1089 25.8984L21.2755 26.295C21.2536 26.3 21.2307 26.2974 21.2104 26.2877C21.1902 26.278 21.1738 26.2618 21.1639 26.2417C21.1527 26.2225 21.1483 26.2 21.1513 26.178C21.1543 26.156 21.1646 26.1356 21.1805 26.12L22.2556 25.045L23.1089 25.8984ZM18.4371 25.1334L20.3905 23.18L21.8556 24.6433L18.5571 25.3534C18.5296 25.3605 18.5005 25.3579 18.4747 25.3461C18.4488 25.3342 18.4279 25.3138 18.4154 25.2884C18.3999 25.2642 18.3935 25.2353 18.3975 25.2068C18.4015 25.1784 18.4155 25.1523 18.4371 25.1334ZM12.3601 35.2302C12.3434 35.2287 12.3272 35.224 12.3124 35.2162C12.2976 35.2084 12.2845 35.1978 12.2738 35.185C12.2631 35.1721 12.2551 35.1573 12.2501 35.1413C12.2452 35.1253 12.2435 35.1085 12.2451 35.0918C12.2483 35.0629 12.2612 35.0358 12.2818 35.0152H12.2851L13.8618 33.4385L15.8986 35.4752L12.3601 35.2302ZM16.402 33.1368C16.3264 33.1758 16.2661 33.2391 16.2308 33.3165C16.1954 33.3938 16.187 33.4808 16.207 33.5635L16.5453 35.0052C16.5562 35.0496 16.5522 35.0964 16.5339 35.1383C16.5156 35.1802 16.484 35.215 16.444 35.2371C16.404 35.2593 16.3578 35.2677 16.3126 35.261C16.2673 35.2544 16.2255 35.233 16.1936 35.2002H16.1886L14.6319 33.6435L14.1419 33.1518L20.4122 26.8884L23.4456 26.2334L24.9024 27.6901C22.8106 29.5268 19.9505 31.3584 16.402 33.1368ZM25.2007 27.4234H25.1974L23.799 26.025L31.631 19.1499C31.7034 19.0856 31.7698 19.0147 31.8294 18.9383C31.5827 21.18 28.4475 24.3467 25.2007 27.4234ZM31.296 16.6566L31.291 16.6532C30.7399 16.0995 30.4234 15.3548 30.4073 14.5738C30.3911 13.7928 30.6766 13.0357 31.2043 12.4597C31.732 11.8837 32.4614 11.5332 33.2408 11.4811C34.0203 11.429 34.7898 11.6792 35.3895 12.1798L32.7061 14.8682C32.6875 14.8866 32.6727 14.9086 32.6626 14.9327C32.6526 14.9569 32.6474 14.9828 32.6474 15.009C32.6474 15.0352 32.6526 15.0611 32.6626 15.0853C32.6727 15.1095 32.6875 15.1314 32.7061 15.1499L34.7845 17.2282C34.2164 17.5102 33.5741 17.6067 32.9482 17.5042C32.3223 17.4016 31.7444 17.1051 31.296 16.6566ZM35.5929 16.6566C35.455 16.7927 35.3037 16.9144 35.1412 17.0199H35.1395L33.1277 15.0082L35.6829 12.4532C36.7846 13.6532 36.7446 15.5065 35.5929 16.6566ZM35.4262 14.0832C35.3861 14.1122 35.3561 14.153 35.3403 14.1999C35.3244 14.2468 35.3236 14.2975 35.3378 14.3448C35.3972 14.465 35.4204 14.5998 35.4048 14.7329C35.3891 14.866 35.3352 14.9918 35.2495 15.0949C35.2304 15.1189 35.2163 15.1465 35.2079 15.176C35.1994 15.2056 35.1969 15.2365 35.2005 15.267C35.2041 15.2975 35.2136 15.327 35.2286 15.3538C35.2436 15.3806 35.2637 15.4042 35.2878 15.4232C35.3279 15.4546 35.377 15.4721 35.4279 15.4732C35.4616 15.4729 35.4948 15.4653 35.5253 15.4509C35.5558 15.4365 35.5828 15.4157 35.6045 15.3899C35.7477 15.2179 35.8376 15.0079 35.8634 14.7856C35.8892 14.5633 35.8496 14.3383 35.7495 14.1382C35.7321 14.1131 35.7098 14.0918 35.684 14.0755C35.6583 14.0591 35.6295 14.048 35.5994 14.0429C35.5693 14.0378 35.5385 14.0387 35.5087 14.0456C35.479 14.0525 35.4509 14.0653 35.4262 14.0832Z" fill="#324558"/>
</svg>
