<svg width="48" height="48" viewBox="0 0 48 48" fill="none" xmlns="http://www.w3.org/2000/svg">
<path fill-rule="evenodd" clip-rule="evenodd" d="M9.55339 7.31862C8.94921 7.60709 8.41035 7.97321 7.96304 8.57991C10.857 9.10283 13.5183 8.53052 16.1928 7.48604C14.2888 6.49646 11.3914 6.44124 9.55339 7.31862ZM22.9474 28.1777C19.9391 30.0657 17.0277 32.0779 14.6055 34.6916C13.1429 36.2696 11.8833 37.9845 11.1725 40.0357C11.0858 40.2861 11.0319 40.5476 10.9464 40.8641C11.4492 40.7729 11.8591 40.7135 12.2619 40.6229C14.5441 40.1102 16.4496 38.9305 18.1075 37.3441C20.2465 35.2975 21.6654 32.8076 22.6077 30.0415C22.8192 29.4207 22.9686 28.7793 23.1613 28.0956C23.0425 28.1404 22.9898 28.1511 22.9474 28.1777ZM27.9388 18.7428C29.1942 18.0127 30.4193 17.3214 31.6229 16.5956C33.4277 15.5072 35.2324 14.413 36.7613 12.9479C37.7749 11.9766 38.5998 10.8858 38.7017 9.43039C38.8018 8.00072 38.4533 6.89559 36.8597 6.3121C36.2177 6.0771 35.5068 5.95325 34.8207 5.92237C33.1682 5.848 31.5605 6.18794 29.9755 6.61781C27.9373 7.17042 25.9912 7.95467 24.0673 8.92079C26.2454 11.8732 27.3606 15.1772 27.9388 18.7428ZM16.6638 12.4632C15.1739 13.0681 13.6169 13.4328 12.0014 13.4553C10.8445 13.4714 9.69711 13.3479 8.59478 12.9484C8.00736 12.7355 7.59963 12.3479 7.42527 11.7719C6.94995 10.2019 6.48006 8.6293 6.05987 7.04443C5.84196 6.22235 6.24272 5.57383 6.87621 5.06C7.99659 4.15134 9.32419 3.67646 10.7202 3.42853C14.1638 2.81695 17.365 3.47481 20.2943 5.36763C20.5222 5.51493 20.6977 5.4957 20.922 5.39659C22.8995 4.52304 24.9272 3.79584 27.0606 3.38384C29.767 2.86124 32.4595 2.75559 35.0681 3.81746C37.094 4.6421 38.8147 5.88616 39.9274 7.78847C41.4902 10.4605 41.2614 13.1394 39.7836 15.7705C38.7743 17.5678 37.2776 18.9303 35.5966 20.0852C33.2883 21.671 30.9342 23.1923 28.5939 24.7327C28.3969 24.8624 28.3087 24.9899 28.294 25.233C28.1149 28.1793 27.5784 31.0499 26.4151 33.7888C24.8738 37.4178 22.4836 40.3814 19.2516 42.6801C17.9643 43.5958 16.6386 44.4514 15.0473 44.7925C14.0368 45.0091 13.0149 45.1147 12.0212 44.8131C11.554 44.6711 11.0776 44.3874 10.7379 44.0413C9.73678 43.0214 8.77829 41.958 7.84749 40.8745C6.81639 39.6742 6.67142 38.2706 7.03916 36.7888C7.683 34.1942 9.06233 32.0112 10.9154 30.0959C12.9953 27.9463 15.4038 26.1969 17.9172 24.5879C19.6218 23.4969 21.3755 22.4793 23.1207 21.4512C23.4521 21.256 23.5976 21.1075 23.5454 20.6698C23.335 18.9076 23.0046 17.1743 22.4696 15.481C21.9918 13.9691 21.3089 12.5504 20.4126 11.234C20.3385 11.1252 20.255 11.0225 20.1854 10.9297C18.9747 11.4595 17.8309 11.9893 16.6638 12.4632Z" fill="#324558"/>
</svg>
