<svg width="48" height="48" viewBox="0 0 48 48" fill="none" xmlns="http://www.w3.org/2000/svg">
<path d="M45.4299 7C46.5186 7 47.199 7.87204 46.9479 8.94937L39.9349 39.0506C39.6857 40.128 38.599 41 37.5104 41H2.57009C1.48144 41 0.801039 40.128 1.05212 39.0506L8.06509 8.94937C8.31425 7.87204 9.40098 7 10.4896 7H45.4299ZM29.3781 24.6027C29.8592 23.8606 29.8132 22.8982 29.2056 22.2616L18.4839 11.0513C17.7556 10.2904 16.4964 10.2847 15.6741 11.0456C14.8519 11.8028 14.7771 13.0346 15.5055 13.7955L24.4408 23.1374V23.3446L10.2194 33.4662C9.3569 34.0821 9.19782 35.3063 9.86098 36.2029C10.5241 37.0994 11.7604 37.3273 12.6209 36.7114L28.3929 25.5802C28.9296 25.2111 29.2324 24.8928 29.3781 24.6008V24.6027ZM24.0192 32.888C23.7854 32.8865 23.5537 32.9303 23.3372 33.0169C23.1207 33.1035 22.9237 33.2311 22.7574 33.3926C22.5912 33.554 22.4589 33.7461 22.3683 33.9578C22.2776 34.1695 22.2303 34.3967 22.229 34.6264C22.229 35.587 23.0302 36.3648 24.0192 36.3648H32.5156C32.7493 36.3663 32.9811 36.3225 33.1976 36.2359C33.4141 36.1494 33.6111 36.0217 33.7774 35.8602C33.9436 35.6988 34.0759 35.5067 34.1665 35.295C34.2572 35.0833 34.3045 34.8561 34.3058 34.6264C34.3045 34.3967 34.2572 34.1695 34.1665 33.9578C34.0759 33.7461 33.9436 33.554 33.7774 33.3926C33.6111 33.2311 33.4141 33.1035 33.1976 33.0169C32.9811 32.9303 32.7493 32.8865 32.5156 32.888H24.0192Z" fill="#324558"/>
</svg>
