<svg width="48" height="48" viewBox="0 0 48 48" fill="none" xmlns="http://www.w3.org/2000/svg">
<path d="M24 44C12.954 44 4 35.046 4 24C4 12.954 12.954 4 24 4C35.046 4 44 12.954 44 24C44 35.046 35.046 44 24 44ZM26.668 24H21V18H26.668C27.4636 18 28.2267 18.3161 28.7893 18.8787C29.3519 19.4413 29.668 20.2044 29.668 21C29.668 21.7956 29.3519 22.5587 28.7893 23.1213C28.2267 23.6839 27.4636 24 26.668 24ZM26.668 14H17V34H21V28H26.668C28.5245 28 30.305 27.2625 31.6177 25.9497C32.9305 24.637 33.668 22.8565 33.668 21C33.668 19.1435 32.9305 17.363 31.6177 16.0503C30.305 14.7375 28.5245 14 26.668 14Z" fill="#324558"/>
</svg>
