<svg width="48" height="48" viewBox="0 0 48 48" fill="none" xmlns="http://www.w3.org/2000/svg">
<path d="M24 32.9633C24.0074 32.9633 24.0146 32.9618 24.0214 32.959L36.9557 25.486C36.9584 25.4803 36.9598 25.474 36.9598 25.4677C36.9598 25.4614 36.9584 25.4551 36.9557 25.4494V10.5156C36.9589 10.5101 36.9606 10.5038 36.9606 10.4974C36.9606 10.4909 36.9589 10.4846 36.9557 10.4791L24.0214 3H23.9787L11.0444 10.4791C11.0405 10.4844 11.0383 10.4908 11.0383 10.4974C11.0383 10.5039 11.0405 10.5104 11.0444 10.5156V25.4494C11.0412 25.455 11.0395 25.4613 11.0395 25.4677C11.0395 25.4741 11.0412 25.4804 11.0444 25.486L23.9787 32.959C23.9855 32.9618 23.9927 32.9633 24 32.9633Z" fill="#324558"/>
<path d="M3 36.5952H45V45H3V36.5952Z" fill="#324558"/>
</svg>
