<svg width="48" height="48" viewBox="0 0 48 48" fill="none" xmlns="http://www.w3.org/2000/svg">
<path fill-rule="evenodd" clip-rule="evenodd" d="M24 44C35.0457 44 44 35.0457 44 24C44 12.9543 35.0457 4 24 4C12.9543 4 4 12.9543 4 24C4 35.0457 12.9543 44 24 44ZM36.9156 15.2682C37.1395 15.0972 37.5294 14.8963 38 15.0617C35.8798 20.8393 30.4128 24.9542 24 24.9542C22.5881 24.9542 21.222 24.7542 19.9266 24.3813C20.6945 27.2056 21.4569 29.9888 21.6101 30.4654C21.8468 31.2047 22.6257 31.2925 22.6257 31.2925H26.0917C26.0917 31.2925 26.8706 31.2037 27.1073 30.4654C27.153 30.3229 27.1806 30.216 27.2335 30.0113C27.3145 29.6977 27.4549 29.1547 27.8101 27.9028C28.1596 26.6738 29.2633 25.429 31.0174 25.5738L30.3642 31.0673C30.3642 31.0673 29.9486 34 27.2477 34H21.4697C18.7679 34 18.3532 31.0673 18.3532 31.0673L17.4239 23.4019C13.9972 21.6864 11.342 18.7039 10 15.0626C10.4725 14.8972 10.8624 15.0982 11.0844 15.2673C12.6992 17.2124 14.7162 18.7697 16.9908 19.8281L16.6514 17.029C17.8303 16.8439 18.1789 17.9243 18.1789 17.9243L18.8945 20.5757C20.5055 21.0944 22.2202 21.3748 24 21.3748C26.4596 21.3774 28.8901 20.8322 31.1211 19.7773C33.3521 18.7225 35.3298 17.1835 36.9156 15.2682Z" fill="#324558"/>
</svg>
