<svg width="48" height="48" viewBox="0 0 48 48" fill="none" xmlns="http://www.w3.org/2000/svg">
<path fill-rule="evenodd" clip-rule="evenodd" d="M24.0019 2L5 12.9991V35.0009L24.0019 46L28.6273 43.3234L24.0019 40.3959V40.3883L9.84525 32.1951V15.8049L24.0019 7.6117L38.1548 15.8049V31.8149L38.1396 31.8225L43 34.6208V12.9991L24.0019 2ZM24.002 11.562L33.0632 16.8125L24.002 22.1771L14.937 16.8125L24.002 11.562ZM22.2957 35.4497L13.2573 30.2182V19.7932L22.2957 25.1426V35.4497ZM34.7426 19.7932V30.2182L31.1674 32.2826L39.6068 36.9021L32.7826 40.704L25.708 36.5522V25.1426L34.7426 19.7932Z" fill="#324558"/>
</svg>
