<svg width="48" height="48" viewBox="0 0 48 48" fill="none" xmlns="http://www.w3.org/2000/svg">
<path d="M45.9759 18.8759C45.9172 18.6946 45.743 18.4676 45.3635 18.4035C44.984 18.3376 31.8848 15.8288 31.8848 15.8288C31.8848 15.8288 31.6923 15.7885 31.5218 15.7006C31.3532 15.6146 31.289 15.3949 31.289 15.3949C31.289 15.3949 24.8199 3.77646 24.64 3.43574C24.4585 3.09337 24.1909 3 24.0002 3C23.8095 3 23.54 3.09337 23.3604 3.43574C23.1807 3.77646 16.7116 15.3951 16.7116 15.3951C16.7116 15.3951 16.6474 15.6148 16.4769 15.7008C16.3082 15.7869 16.1157 15.829 16.1157 15.829C16.1157 15.829 3.01671 18.3374 2.63538 18.4015C2.25404 18.4674 2.08171 18.6944 2.02487 18.8739C1.98944 19.019 1.9919 19.1709 2.03202 19.3148C2.07215 19.4588 2.14859 19.5901 2.25404 19.6961L12.0857 29.7489C12.0857 29.7489 12.2177 29.8954 12.3039 30.0638C12.3332 30.2543 12.313 30.4483 12.313 30.4483C12.313 30.4483 10.133 43.7092 10.0762 44.09C10.0193 44.4708 10.2137 44.7656 10.3677 44.8775C10.5198 44.991 10.7948 45.0715 11.1395 44.9013C11.486 44.731 23.63 38.9301 23.63 38.9301C23.63 38.9301 23.8097 38.8496 23.9985 38.8184C24.1874 38.7873 24.367 38.9301 24.367 38.9301C24.367 38.9301 36.5111 44.731 36.8576 44.9013C37.2023 45.0734 37.4772 44.991 37.6294 44.8775C37.7423 44.7828 37.8285 44.6604 37.8796 44.5224C37.9307 44.3843 37.9449 44.2354 37.9209 44.0902C37.8824 43.8339 36.2159 33.695 36.2159 33.695C37.8219 32.7061 38.8286 31.7924 39.6061 30.4959C34.8497 32.2704 28.5934 33.6401 22.3429 33.9129C20.665 33.9879 17.9238 34.0904 15.9748 33.8854C14.7316 33.7554 13.8294 33.6217 13.6955 33.0835C13.5984 32.6897 13.7945 32.2411 14.6949 31.5617C16.4426 30.2451 18.1913 28.9298 19.9408 27.6156C22.297 25.8432 26.4666 23.0929 26.4666 22.6148C26.4666 22.093 22.5354 21.1849 19.0643 21.1849C15.4981 21.1849 14.8929 21.4266 13.91 21.4925C13.0154 21.5548 12.5002 21.5017 12.436 21.2399C12.326 20.7856 12.7715 20.5275 13.514 20.1996C14.8141 19.6247 16.9246 19.1121 17.1519 19.0535C17.5076 18.9583 22.803 17.5794 27.4531 18.0738C29.8696 18.3301 33.4012 19.2968 33.4012 20.4103C33.4012 21.0365 30.2456 23.146 27.4879 25.1656C25.3811 26.7092 23.4229 28.0239 23.4229 28.2566C23.4229 28.8828 29.9008 30.5289 35.6877 30.1058L35.6932 30.0655C35.7812 29.8971 35.9114 29.7506 35.9114 29.7506L45.743 19.6979C45.8491 19.5923 45.9262 19.4612 45.967 19.3173C46.0078 19.1733 46.0108 19.0213 45.9759 18.8759Z" fill="#324558"/>
</svg>
