<svg width="48" height="48" viewBox="0 0 48 48" fill="none" xmlns="http://www.w3.org/2000/svg">
<path d="M20.0819 13.1577C20.5495 13.1135 21.0829 13.063 21.7251 13.063C22.4388 12.9304 23.1641 13.2274 23.5797 13.8225C23.6145 14.12 23.4911 14.4017 22.2822 14.4887C19.7424 14.6723 19.4765 14.9476 19.0018 15.454C18.3308 16.1693 17.4479 14.5267 17.4479 14.5267C17.1055 14.4076 16.8247 14.157 16.6676 13.8304C16.5105 13.5037 16.49 13.1279 16.6108 12.7861L16.6218 12.7576C16.6717 12.5046 16.8617 12.3025 17.1111 12.2371C17.3605 12.1717 17.6253 12.2546 17.7928 12.4506C18.1269 12.9092 18.6503 13.1925 19.217 13.2212C19.4844 13.2142 19.7684 13.1874 20.0819 13.1577Z" fill="#324558"/>
<path d="M27.8363 9.56714H27.7113C27.4739 9.56714 27.2271 9.58296 26.9755 9.60828C26.2581 9.66449 25.5571 9.85167 24.9072 10.1605C24.8834 10.1711 24.8679 10.1946 24.8677 10.2207C24.8694 10.2585 24.901 10.288 24.9389 10.2871H24.95C25.0908 10.265 25.2364 10.246 25.3788 10.2286C26.7413 10.0925 27.8917 10.3188 27.9471 10.735C27.6707 11.2642 27.1199 11.5928 26.5229 11.5847C26.4797 11.5946 26.449 11.633 26.449 11.6773C26.449 11.7216 26.4797 11.76 26.5229 11.7699C26.9311 11.8842 27.3523 11.9459 27.7762 11.9534C29.1845 11.9851 30.346 11.4787 30.3571 10.8172C30.3682 10.1558 29.2446 9.59879 27.8363 9.56714Z" fill="#324558"/>
<path fill-rule="evenodd" clip-rule="evenodd" d="M35.9636 7.54016C28.1096 2.44752 17.8928 2.88359 10.5012 8.62693C3.10964 14.3703 0.162745 24.1625 3.1569 33.0314H4.68077C5.96034 33.0321 7.22143 32.7261 8.35831 32.1389C8.63373 31.9943 8.93976 31.9178 9.2508 31.9158C9.91751 31.8935 10.5436 32.2354 10.8854 32.8082C11.1094 33.2443 11.4419 33.6154 11.8507 33.8859C12.2483 34.1394 12.7177 34.2566 13.1879 34.2198C13.5189 34.2587 13.8452 34.1166 14.0424 33.8479C14.1039 33.6852 14.0896 33.5036 14.0032 33.3526C13.9169 33.2016 13.7676 33.0971 13.5961 33.0678C13.0981 32.8422 12.7104 32.4277 12.5185 31.9158C11.9698 31.3927 11.5849 30.7214 11.4108 29.9836C11.3259 29.3787 11.5594 28.7729 12.0282 28.3814C12.497 27.9898 13.1347 27.8681 13.7148 28.0594C14.691 28.5039 15.469 29.2926 15.9001 30.2748C16.0049 30.4436 16.1726 30.5639 16.3661 30.609C16.5597 30.6541 16.7632 30.6204 16.9319 30.5153C16.9583 30.4984 16.9837 30.4799 17.0078 30.4599C17.1382 30.2676 17.3635 30.1623 17.5947 30.1854C17.8258 30.2085 18.0258 30.3564 18.1155 30.5707C18.3861 30.99 20.3578 33.6232 22.5004 33.6912C23.9331 33.623 25.3602 33.4645 26.7729 33.2165C27.2485 33.3059 27.7106 33.4558 28.1481 33.6627C28.488 33.7167 28.7817 33.5816 29.086 33.4416C29.3794 33.3066 29.6827 33.167 30.047 33.188C30.3253 33.2013 30.6113 33.2994 30.9053 33.4002C31.2414 33.5154 31.588 33.6343 31.9459 33.6343C32.2565 33.6343 32.7297 33.4595 33.1464 33.3057C33.6296 33.1272 34.0369 32.9768 34.0267 33.1595C33.8778 33.8783 33.679 34.5857 33.4318 35.2768C33.3997 35.8758 33.3251 36.4718 33.2086 37.0602C32.9729 37.6744 32.6476 38.2503 32.2434 38.7692C31.7556 39.3715 31.3089 40.0059 30.9062 40.6681C30.4681 41.4216 29.9578 42.1307 29.3823 42.7854C29.1133 43.1446 30.9015 42.7569 31.5376 42.1524C32.2718 41.0849 33.306 40.2589 34.5094 39.7788C35.519 39.5573 35.7468 39.1712 35.6171 38.8135C35.5953 38.7668 35.5829 38.7163 35.5807 38.6648C35.5769 38.5374 35.6498 38.4201 35.7658 38.3673C37.0463 37.8783 38.4084 37.6387 39.7788 37.6615C40.6791 37.6607 41.5766 37.7604 42.4547 37.959C45.6323 33.0657 46.7336 27.1098 45.516 21.4038C44.2984 15.6978 40.8618 10.7101 35.9636 7.54016ZM41.8739 25.5669C40.8153 31.3554 31.3508 33.3018 22.1427 30.5136C13.3682 27.8488 5.66182 22.5619 6.55272 19.462C7.06859 17.6564 9.93436 16.8858 13.7496 17.2988C13.172 18.4793 13.2084 19.8702 15.7403 21.4131C18.7481 23.0774 22.0536 24.1344 25.469 24.5241C25.9943 24.4687 26.4691 24.2076 25.9943 23.8912C25.364 23.3751 24.9511 22.6407 24.8376 21.834L24.8323 21.8122C24.6845 21.1968 24.4822 20.3549 21.2075 19.7294C14.0866 18.3701 14.3667 16.362 14.5772 15.2053C14.5772 15.2053 15.2101 12.3569 15.4712 11.3631C15.7323 10.3694 16.4049 8.06854 20.9939 9.10028C22.5918 9.48849 24.2708 9.37184 25.7997 8.76639C27.6611 8.18667 29.6896 8.59655 31.1799 9.85351C32.9379 12.3471 34.225 15.1412 34.9777 18.0979C35.3319 18.9736 35.3671 19.9459 35.0774 20.845C34.8622 21.3481 34.6082 21.8338 34.3179 22.2977C34.2245 22.4559 34.302 22.6236 34.5014 22.5208C35.4695 22.0685 36.1715 21.1909 36.4003 20.1472C40.1412 20.9953 42.3566 22.9401 41.8739 25.5669Z" fill="#324558"/>
<path d="M28.144 38.0239C28.4 37.5439 28.192 37.1599 28.08 37.0479C28.0751 37.0479 28.0703 37.0464 28.065 37.0448C28.0528 37.0411 28.0383 37.0367 28.016 37.0479C28 37.0479 27.984 37.0479 27.968 37.0639C27.664 37.3999 27.552 37.5119 27.328 37.6879C26.8698 38.0601 26.3476 37.7277 25.9791 37.4932C25.9358 37.4656 25.8947 37.4394 25.856 37.4159C25.024 36.9199 24.352 37.2239 24.192 37.6079C24.032 37.9919 24.224 38.4559 24.672 38.3919C25.2118 38.3227 25.3086 38.3852 25.6253 38.5898C25.6746 38.6217 25.7294 38.657 25.792 38.6959C26.64 39.2239 27.264 38.9359 27.584 38.6799C27.824 38.5039 28.016 38.2799 28.144 38.0239Z" fill="#324558"/>
</svg>
