<svg width="48" height="48" viewBox="0 0 48 48" fill="none" xmlns="http://www.w3.org/2000/svg">
<path d="M36.234 6.01509C40.7835 6.80745 42.0735 9.93611 41.9775 13.2142L42 13.1674L39.9525 40.1648L13.335 42H13.359C11.1495 41.9064 6.225 41.7027 6 34.7752L8.4675 30.2475L12.696 40.1874L13.4505 41.9562L17.658 28.1557L17.613 28.1663L17.637 28.121L31.5195 32.5823L29.4255 24.3856L27.9405 18.4996L41.1705 17.6408L40.248 16.8711L30.75 9.08037L36.2385 6L36.234 6.01509ZM6 34.6998V34.739V34.6953V34.6998ZM13.695 13.5462C19.0365 8.21406 25.9305 5.06276 28.578 7.75072C31.221 10.4327 28.4205 16.9647 23.0685 22.2938C17.724 27.6245 10.914 30.9478 8.2725 28.2659C5.6235 25.584 8.34 18.8829 13.6905 13.5507L13.695 13.5462Z" fill="#324558"/>
</svg>
