<svg width="48" height="48" viewBox="0 0 48 48" fill="none" xmlns="http://www.w3.org/2000/svg">
<path d="M16.0509 25.8139C16.4969 25.9814 17.0119 26.0775 17.5639 26.0775C18.101 26.0775 18.6062 25.9839 19.0472 25.8262L17.5762 21.0878H17.5491L16.0509 25.8139Z" fill="#324558"/>
<path d="M27.7232 23.3621H28.763C30.1503 23.3621 31.2591 22.9013 31.2591 21.4328C31.2591 20.0159 30.1503 19.5551 28.763 19.5551H27.7232V23.3621Z" fill="#324558"/>
<path fill-rule="evenodd" clip-rule="evenodd" d="M24.2587 35.7462H0V12H48L24.2587 35.7462ZM23.7585 16.4627L28.4846 16.4652C33.0012 16.4652 35.1228 18.0742 35.1203 21.5831C35.1203 24.7321 32.9372 26.6122 29.246 26.6122H27.7207V31.1486H20.7203L20.0255 28.9802C19.2862 29.2217 18.4509 29.3572 17.5639 29.3572C16.6522 29.3572 15.7947 29.2167 15.0407 28.958L14.3212 31.1486H10.0287L10.5019 29.882C10.4452 29.9338 10.391 29.9831 10.3294 30.0323C9.25996 30.8923 7.92197 31.3654 6.26365 31.395L6.01725 31.3974C4.11252 31.3974 2.24477 30.8701 0.667763 29.9732L2.12649 27.0755C3.70842 28.0093 4.70144 28.2188 6.03942 28.1917C6.73429 28.1769 7.23696 28.0512 7.56222 27.7137C7.75934 27.5067 7.86283 27.2504 7.87269 26.9769C7.88501 26.2229 6.81314 25.8705 5.50226 25.464C4.43778 25.1362 3.23285 24.6878 2.28912 23.9954C1.17289 23.1749 0.640659 22.1449 0.667763 20.696C0.685012 19.6414 1.07433 18.6878 1.79877 17.9387C2.8386 16.8644 4.51417 16.2139 6.52484 16.2139H6.5347C8.25955 16.2163 10.3639 16.7042 11.8867 17.4804L10.2456 20.3387C8.57741 19.5354 7.73963 19.4566 6.7885 19.4073C5.37413 19.3309 4.65955 19.8385 4.64969 20.3831C4.63737 21.0484 5.98768 21.6496 7.2616 22.0586C9.1885 22.6697 11.6402 23.4878 12.0148 25.8582L15.5384 16.4627H19.6312L23.7585 27.6964V16.4627Z" fill="#324558"/>
</svg>
