<svg width="48" height="48" viewBox="0 0 48 48" fill="none" xmlns="http://www.w3.org/2000/svg">
<path d="M26.6203 40.8002C23.9757 41.2133 21.2709 40.9961 18.7262 40.1662C16.1814 39.3364 13.8685 37.9174 11.9758 36.0247C10.0831 34.132 8.66411 31.8191 7.83427 29.2743C7.00442 26.7296 6.78721 24.0248 7.20031 21.3802C6.15778 19.3972 5.77683 17.1328 6.11313 14.9178C6.44944 12.7029 7.48538 10.6536 9.06953 9.06941C10.6537 7.48526 12.703 6.44932 14.9179 6.11301C17.1329 5.7767 19.3973 6.15766 21.3803 7.20019C24.0249 6.78709 26.7297 7.0043 29.2745 7.83414C31.8193 8.66399 34.1321 10.083 36.0248 11.9757C37.9175 13.8684 39.3365 16.1813 40.1664 18.726C40.9962 21.2708 41.2134 23.9756 40.8003 26.6202C41.8428 28.6032 42.2238 30.8676 41.8875 33.0826C41.5512 35.2975 40.5153 37.3468 38.9311 38.931C37.3469 40.5151 35.2976 41.5511 33.0827 41.8874C30.8677 42.2237 28.6033 41.8427 26.6203 40.8002ZM24.1043 34.3122H24.0243C29.7683 34.3122 32.6303 31.5402 32.6303 27.8262C32.6303 25.4302 31.5283 22.8842 27.1783 21.9102L23.2123 21.0302C21.7023 20.6862 19.9683 20.2302 19.9683 18.8002C19.9683 17.3702 21.2083 16.3742 23.4163 16.3742C27.8763 16.3742 27.4703 19.4302 29.6783 19.4302C30.8303 19.4302 31.8643 18.7462 31.8643 17.5702C31.8643 14.8302 27.4703 12.7702 23.7523 12.7702C19.7103 12.7702 15.4063 14.4882 15.4063 19.0582C15.4063 21.2542 16.1943 23.5982 20.5263 24.6842L25.9043 26.0262C27.5363 26.4302 27.9403 27.3442 27.9403 28.1702C27.9403 29.5442 26.5723 30.8862 24.1043 30.8862C19.2703 30.8862 19.9483 27.1722 17.3563 27.1722C16.1963 27.1722 15.3503 27.9682 15.3503 29.1142C15.3503 31.3422 18.0543 34.3102 24.1043 34.3102V34.3122Z" fill="#324558"/>
</svg>
