<svg width="48" height="48" viewBox="0 0 48 48" fill="none" xmlns="http://www.w3.org/2000/svg">
<path d="M12.3635 29.3436C12.3596 30.4513 11.9177 31.5124 11.1343 32.2955C10.3508 33.0785 9.28944 33.5199 8.18177 33.5232C7.07373 33.5199 6.01203 33.0782 5.22853 32.2947C4.44502 31.5112 4.00336 30.4495 4 29.3415C4 27.0391 5.87935 25.1576 8.18177 25.1576H12.3657V29.3415L12.3635 29.3436ZM14.4725 29.3436C14.4725 27.0412 16.3518 25.1597 18.6543 25.1597C20.9567 25.1597 22.8382 27.0412 22.8382 29.3436V39.8182C22.8348 40.9266 22.3928 41.9887 21.6089 42.7722C20.8249 43.5558 19.7627 43.9972 18.6543 44C17.5462 43.9966 16.4845 43.555 15.701 42.7715C14.9175 41.988 14.4759 40.9263 14.4725 39.8182V29.3436ZM18.6543 12.3635C17.5466 12.3596 16.4854 11.9177 15.7024 11.1343C14.9193 10.3508 14.478 9.28944 14.4746 8.18177C14.4746 5.87935 16.354 4 18.6564 4C20.9588 4 22.8403 5.87935 22.8403 8.18177V12.3657H18.6543V12.3635ZM18.6543 14.4725C20.9567 14.4725 22.8382 16.3518 22.8382 18.6543C22.8354 19.763 22.3937 20.8256 21.6096 21.6096C20.8256 22.3937 19.763 22.8354 18.6543 22.8382H8.18177C7.07336 22.8348 6.01135 22.3928 5.22778 21.6089C4.44421 20.8249 4.0028 19.7627 4 18.6543C4 16.3518 5.87935 14.4725 8.18177 14.4725H18.6564H18.6543ZM35.6343 18.6543C35.6343 16.3518 37.5158 14.4725 39.8182 14.4725C42.1206 14.4725 44 16.3518 44 18.6543C43.9972 19.7627 43.5558 20.8249 42.7722 21.6089C41.9887 22.3928 40.9266 22.8348 39.8182 22.8382H35.6343V18.6543ZM33.5254 18.6543C33.5226 19.7627 33.0812 20.8249 32.2976 21.6089C31.514 22.3928 30.452 22.8348 29.3436 22.8382C28.2348 22.8354 27.1723 22.3937 26.3882 21.6096C25.6042 20.8256 25.1625 19.763 25.1597 18.6543V8.18177C25.1597 5.87935 27.0412 4 29.3436 4C31.646 4 33.5254 5.87935 33.5254 8.18177V18.6564V18.6543ZM29.3436 35.6343C31.646 35.6343 33.5254 37.5158 33.5254 39.8182C33.522 40.9263 33.0804 41.988 32.2968 42.7715C31.5133 43.555 30.4516 43.9966 29.3436 44C28.2352 43.9972 27.173 43.5558 26.389 42.7722C25.605 41.9887 25.1631 40.9266 25.1597 39.8182V35.6343H29.3436ZM29.3436 33.5254C28.2352 33.5226 27.173 33.0812 26.389 32.2976C25.605 31.514 25.1631 30.452 25.1597 29.3436C25.1597 27.0412 27.0412 25.1597 29.3436 25.1597H39.8182C42.1206 25.1597 44 27.0412 44 29.3436C43.9966 30.4516 43.555 31.5133 42.7715 32.2968C41.988 33.0804 40.9263 33.522 39.8182 33.5254H29.3436Z" fill="#324558"/>
</svg>
