<svg width="48" height="48" viewBox="0 0 48 48" fill="none" xmlns="http://www.w3.org/2000/svg">
<path fill-rule="evenodd" clip-rule="evenodd" d="M14 6C9.58172 6 6 9.58172 6 14V34C6 38.4183 9.58172 42 14 42H34C38.4183 42 42 38.4183 42 34V14C42 9.58172 38.4183 6 34 6H14ZM36.9054 30.0224C36.7251 29.5232 36.3822 29.2575 35.9898 29.0349C35.9155 28.9918 35.8484 28.9558 35.7918 28.9271C35.6752 28.8661 35.555 28.805 35.4348 28.744C34.2118 28.0868 33.2608 27.2572 32.5998 26.2733C32.377 25.9428 32.2215 25.6413 32.1119 25.397C32.0554 25.2318 32.0589 25.1385 32.0978 25.0559C32.1296 24.9912 32.2109 24.923 32.2533 24.8906C32.3758 24.8083 32.502 24.7248 32.6147 24.6503C32.6938 24.5979 32.7662 24.55 32.826 24.51L32.9096 24.455C33.1321 24.3084 33.3104 24.1909 33.427 24.1078C33.9289 23.7522 34.2788 23.3752 34.498 22.9514C34.8056 22.3553 34.8445 21.6765 34.6076 21.0337C34.2754 20.1467 33.4516 19.5937 32.4477 19.5937C32.2392 19.5937 32.0306 19.6188 31.8185 19.6619C31.762 19.6727 31.709 19.687 31.6559 19.7014C31.6665 19.098 31.6525 18.4517 31.5994 17.8232C31.412 15.6039 30.6485 14.4439 29.8496 13.5174C29.5173 13.1296 28.9376 12.5657 28.0715 12.0594C26.8625 11.3555 25.491 11 23.9957 11C22.5039 11 21.1359 11.3555 19.9234 12.0594C19.0503 12.5657 18.4741 13.1331 18.1418 13.5174C17.3429 14.4439 16.5794 15.6075 16.3919 17.8232C16.3389 18.4553 16.3248 19.098 16.3354 19.7014C16.3087 19.6942 16.2811 19.6878 16.2535 19.6815C16.2263 19.6753 16.1991 19.669 16.1728 19.6619C15.9642 19.6152 15.7521 19.5937 15.5436 19.5937C14.5432 19.5937 13.716 20.1467 13.3837 21.0337C13.1468 21.6729 13.1858 22.3553 13.4933 22.9514C13.7125 23.3752 14.0624 23.7522 14.5644 24.1078C14.6988 24.2011 14.9038 24.3376 15.1654 24.51L15.2502 24.566C15.3836 24.6538 15.5526 24.7651 15.7168 24.8762C15.7486 24.8978 15.8582 24.9804 15.8935 25.0559C15.9359 25.1456 15.9359 25.239 15.8759 25.415C15.7698 25.6555 15.6143 25.9501 15.3986 26.2733C14.7518 27.2357 13.8256 28.0509 12.6449 28.7009C12.5533 28.7503 12.4612 28.7973 12.3698 28.844C11.8369 29.1161 11.3284 29.3757 11.093 30.0224C10.8845 30.597 11.0223 31.247 11.5491 31.7964C11.7223 31.9868 11.9415 32.1519 12.2136 32.3064C12.857 32.6692 13.4085 32.845 13.8397 32.9672C13.914 32.9887 14.0907 33.0462 14.1685 33.1144C14.2658 33.2004 14.3062 33.3098 14.3565 33.4464C14.405 33.5776 14.4627 33.734 14.5892 33.9188C14.7447 34.1523 14.9214 34.3138 15.0699 34.4144C15.6042 34.7894 16.2014 34.8128 16.8372 34.8378L16.848 34.8382C17.4242 34.8597 18.0782 34.8848 18.8276 35.1362C19.1386 35.2404 19.4603 35.4415 19.8315 35.6749L19.835 35.6771C20.7326 36.2371 21.9552 37 24.0028 37C26.0531 37 27.2868 36.2315 28.1846 35.6713L28.2332 35.6412C28.5836 35.424 28.8871 35.236 29.1744 35.1398C29.9202 34.8885 30.5742 34.8633 31.154 34.8417L31.1647 34.8413C31.8005 34.8164 32.3978 34.793 32.9321 34.418C33.1017 34.2995 33.3103 34.1056 33.4799 33.8111C33.5588 33.6755 33.6032 33.5565 33.6418 33.4528C33.6933 33.3148 33.7346 33.2041 33.8335 33.118C33.9042 33.0569 34.0597 32.9995 34.141 32.9743C34.5758 32.8523 35.1308 32.6763 35.7882 32.3064C36.0781 32.1448 36.3079 31.9652 36.4847 31.7606L36.4917 31.7534C36.9866 31.2146 37.1104 30.579 36.9054 30.0224Z" fill="#324558"/>
</svg>
