<svg width="48" height="48" viewBox="0 0 48 48" fill="none" xmlns="http://www.w3.org/2000/svg">
<path d="M20.928 17.1919C21.458 17.1919 21.888 21.4039 21.888 26.5999L21.886 27.3019C21.848 32.1699 21.434 36.0079 20.928 36.0079C20.416 36.0079 19.998 32.0779 19.968 27.1279V26.4239C19.978 21.3079 20.404 17.1919 20.928 17.1919ZM17.6 19.1119C18.118 19.1119 18.54 22.7119 18.56 27.2199V27.8999C18.54 32.4079 18.118 36.0079 17.6 36.0079C17.09 36.0079 16.672 32.4979 16.64 28.0679V27.3879L16.644 26.7079C16.694 22.4419 17.104 19.1119 17.6 19.1119ZM14.272 19.1119C14.782 19.1119 15.2 22.6219 15.232 27.0519V27.7319L15.228 28.4119C15.178 32.6779 14.768 36.0079 14.272 36.0079C13.754 36.0079 13.332 32.4079 13.312 27.8999V27.2199C13.332 22.7119 13.754 19.1119 14.272 19.1119ZM10.944 20.2639C11.474 20.2639 11.904 23.7879 11.904 28.1359L11.9 28.8059C11.86 32.8399 11.446 36.0079 10.944 36.0079C10.42 36.0079 9.996 32.5739 9.984 28.3039V27.9679C9.996 23.6979 10.42 20.2639 10.944 20.2639ZM7.616 23.7199C8.146 23.7199 8.576 26.4699 8.576 29.8639V30.1799C8.55 33.4259 8.13 36.0079 7.616 36.0079C7.086 36.0079 6.656 33.2579 6.656 29.8639V29.5479C6.682 26.3019 7.102 23.7199 7.616 23.7199ZM29.184 14.1199C34.344 14.1199 38.624 17.8919 39.42 22.8279C40.3389 22.5642 41.3035 22.4996 42.2493 22.6384C43.1952 22.7772 44.1005 23.1162 44.9049 23.6328C45.7093 24.1494 46.3942 24.8317 46.9139 25.634C47.4336 26.4364 47.7761 27.3405 47.9185 28.2858C48.061 29.2311 48.0001 30.1959 47.74 31.1158C47.4799 32.0357 47.0265 32.8895 46.4101 33.6202C45.7936 34.3509 45.0284 34.9417 44.1655 35.3531C43.3026 35.7645 42.3618 35.987 41.406 36.0059L41.28 36.0079H24.96C24.5526 36.0079 24.1619 35.8461 23.8739 35.558C23.5858 35.2699 23.424 34.8793 23.424 34.4719V15.8659C25.1279 14.7245 27.1332 14.1166 29.184 14.1199ZM4.288 23.3359C4.818 23.3359 5.248 25.9999 5.248 29.2879V29.5999C5.22 32.7399 4.802 35.2399 4.288 35.2399C3.768 35.2399 3.342 32.6599 3.328 29.4439V29.2879C3.328 25.9999 3.758 23.3359 4.288 23.3359ZM0.96 25.2559C1.49 25.2559 1.92 27.1479 1.92 29.4799V29.7419C1.888 31.9519 1.47 33.7039 0.96 33.7039C0.43 33.7039 0 31.8119 0 29.4799V29.2179C0.032 27.0079 0.45 25.2559 0.96 25.2559Z" fill="#324558"/>
</svg>
