<svg width="48" height="48" viewBox="0 0 48 48" fill="none" xmlns="http://www.w3.org/2000/svg">
<path fill-rule="evenodd" clip-rule="evenodd" d="M44 24C44 6.49995 42.48 4.18595 26.4 4.01195H26.398L22.776 4.00195C6.392 4.08195 4.182 5.90195 4.012 21.602L4 23.382L4.012 26.398C4.178 41.716 6.284 43.822 21.6 43.988L24 44C41.5 44 43.814 42.4799 43.988 26.4L44 24ZM15.334 14H16.5L17.016 14.008C21.5659 14.1422 25.8845 16.044 29.0553 19.3097C32.2262 22.5754 33.9999 26.9481 34 31.5V32.666L33.986 32.864C33.9386 33.1801 33.7792 33.4686 33.5369 33.6771C33.2947 33.8856 32.9856 34.0002 32.666 34H25.334L25.136 33.986C24.494 33.89 24 33.336 24 32.666V31.5L23.99 31.1C23.8876 29.1827 23.0538 27.3778 21.6604 26.0569C20.2669 24.736 18.42 23.9998 16.5 24H15.334L15.136 23.986C14.494 23.89 14 23.336 14 22.666V15.334L14.014 15.136C14.0614 14.8199 14.2208 14.5314 14.4631 14.3229C14.7053 14.1144 15.0144 13.9998 15.334 14Z" fill="#324558"/>
</svg>
