<svg width="48" height="48" viewBox="0 0 48 48" fill="none" xmlns="http://www.w3.org/2000/svg">
<path d="M24.0081 4C13.5081 4 4.89608 12.1 4.08008 22.394L14.8001 26.826C15.7081 26.206 16.8041 25.842 17.9861 25.842C18.0921 25.842 18.1941 25.848 18.3001 25.852L23.0681 18.948V18.85C23.0681 14.69 26.4481 11.31 30.6081 11.31C34.7661 11.31 38.1481 14.694 38.1481 18.854C38.1481 23.014 34.7641 26.396 30.6081 26.396H30.4341L23.6401 31.248C23.6401 31.334 23.6461 31.424 23.6461 31.514C23.6461 34.638 21.1221 37.174 17.9961 37.174C15.2721 37.174 12.9701 35.218 12.4461 32.628L4.77008 29.45C7.14608 37.844 14.8541 44 24.0101 44C35.0541 44 44.0061 35.046 44.0061 24C44.0061 12.956 35.0521 4 24.0081 4ZM14.1561 33.334C14.5921 34.238 15.3461 34.998 16.3441 35.416C18.5061 36.316 21.0001 35.29 21.8981 33.126C22.3381 32.076 22.3381 30.926 21.9061 29.876C21.4761 28.826 20.6561 28.008 19.6121 27.572C18.5721 27.138 17.4621 27.156 16.4821 27.522L19.0201 28.572C20.6141 29.238 21.3681 31.072 20.7001 32.664C20.0401 34.258 18.2061 35.014 16.6121 34.35L14.1561 33.334ZM35.6361 18.844C35.6361 16.074 33.3801 13.82 30.6101 13.82C27.8361 13.82 25.5861 16.074 25.5861 18.844C25.5861 21.62 27.8361 23.87 30.6101 23.87C33.3821 23.87 35.6341 21.62 35.6341 18.844H35.6361ZM30.6201 15.06C32.7001 15.06 34.3961 16.75 34.3961 18.836C34.3961 20.922 32.7021 22.612 30.6201 22.612C28.5321 22.612 26.8441 20.922 26.8441 18.836C26.8441 16.75 28.5341 15.06 30.6201 15.06Z" fill="#324558"/>
</svg>
