<svg width="48" height="48" viewBox="0 0 48 48" fill="none" xmlns="http://www.w3.org/2000/svg">
<path d="M42.3026 32.1417C42.4052 31.932 42.4052 31.7223 42.5079 31.5126C44.9756 21.6408 39.1144 10.0912 29.0383 4C33.4603 10.0912 35.2075 17.3359 33.6656 23.8466C33.563 24.3709 33.3576 25.0019 33.1523 25.5262C32.8687 25.366 32.5933 25.191 32.3273 25.0019C32.3273 25.0019 22.3557 18.701 11.6654 7.67571C11.3556 7.36113 17.4221 16.4952 24.2074 23.7417C21.021 21.8505 11.9734 15.2369 6.31754 9.87964C6.93538 11.035 7.86122 12.1903 8.78523 13.3456C13.5153 19.5417 19.6845 27.101 27.0876 32.8758C21.8442 36.1339 14.5438 36.3418 7.14072 32.8758C5.28903 32.0369 3.74902 30.9864 2 29.7262C5.0837 34.6621 9.91641 39.1786 15.675 41.5922C22.5629 44.6388 29.5534 44.4291 34.5915 41.5922H34.696C34.9013 41.4874 35.1067 41.3825 35.312 41.1728C37.7797 39.9126 42.6124 38.5476 45.2854 43.798C46.0041 45.2679 47.3406 38.4427 42.3044 32.1417H42.3026Z" fill="#324558"/>
</svg>
