<svg width="48" height="48" viewBox="0 0 48 48" fill="none" xmlns="http://www.w3.org/2000/svg">
<path d="M27.238 42C27.068 42 26.956 41.886 26.984 41.746V6.254C26.984 6.142 27.068 6.028 27.21 6.028H32.78C35.2253 6.028 37.5704 6.99939 39.2995 8.72848C41.0286 10.4576 42 12.8027 42 15.248V32.78C42 35.2253 41.0286 37.5704 39.2995 39.2995C37.5704 41.0286 35.2253 42 32.78 42H27.24H27.238ZM34.082 22.148C32.074 22.148 30.434 23.788 30.434 25.796C30.434 27.804 32.074 29.444 34.082 29.444C36.09 29.444 37.73 27.804 37.73 25.796C37.73 23.788 36.09 22.148 34.082 22.148ZM11.6 16.8C11.6 14.934 13.126 13.408 14.992 13.408C16.86 13.408 18.386 14.934 18.386 16.8C18.386 18.668 16.86 20.194 14.992 20.194C14.0934 20.1908 13.2324 19.8325 12.597 19.197C11.9615 18.5616 11.6032 17.7006 11.6 16.802V16.8ZM23.08 6C23.25 6 23.364 6.114 23.336 6.254V41.72C23.336 41.86 23.222 41.974 23.08 41.974H15.22C14.009 41.974 12.8099 41.7355 11.6912 41.272C10.5724 40.8085 9.55595 40.1292 8.69977 39.2728C7.84359 38.4164 7.16449 37.3998 6.70126 36.281C6.23803 35.1621 5.99974 33.963 6 32.752V15.22C6 12.7747 6.97139 10.4296 8.70048 8.70048C10.4296 6.97139 12.7747 6 15.22 6H23.08ZM20.45 39.088V8.884H15.22C13.522 8.884 11.94 9.564 10.75 10.75C10.1538 11.3309 9.68115 12.0263 9.36049 12.7944C9.03982 13.5626 8.87775 14.3876 8.884 15.22V32.752C8.884 34.45 9.564 36.032 10.75 37.22C11.3307 37.8166 12.026 38.2896 12.7942 38.6106C13.5624 38.9316 14.3875 39.094 15.22 39.088H20.45Z" fill="#324558"/>
</svg>
