<svg width="48" height="48" viewBox="0 0 48 48" fill="none" xmlns="http://www.w3.org/2000/svg">
<path d="M39.8913 42H8.10874C7.54995 41.9984 7.01451 41.7757 6.61938 41.3805C6.22426 40.9854 6.00158 40.4499 6 39.891V8.109C6.00158 7.55015 6.22426 7.01463 6.61938 6.61946C7.01451 6.22429 7.54995 6.00158 8.10874 6H39.8913C40.45 6.00158 40.9855 6.22429 41.3806 6.61946C41.7757 7.01463 41.9984 7.55015 42 8.109V39.891C41.9984 40.4499 41.7757 40.9854 41.3806 41.3805C40.9855 41.7757 40.45 41.9984 39.8913 42ZM23.8643 9.1635C15.7578 9.234 9.2216 15.8865 9.1631 23.9985C9.10311 32.259 15.7338 38.826 23.9963 38.8335C32.1177 38.838 38.6884 32.0835 38.8294 23.9985C38.9749 15.6405 32.2212 9.09 23.8643 9.1635ZM20.4732 18.9495L19.1399 22.188H28.9471L27.6138 18.9495L37.5756 23.997L27.6138 29.0445L28.9471 25.806H19.1399L20.4627 29.0445L10.4754 23.997L20.4732 18.9495Z" fill="#324558"/>
</svg>
