<svg width="48" height="48" viewBox="0 0 48 48" fill="none" xmlns="http://www.w3.org/2000/svg">
<path fill-rule="evenodd" clip-rule="evenodd" d="M24 44C35.0457 44 44 35.0457 44 24C44 12.9543 35.0457 4 24 4C12.9543 4 4 12.9543 4 24C4 35.0457 12.9543 44 24 44ZM29.4125 33.682L32.9522 15.6075V15.6092C32.9522 15.6092 33.0001 15.3725 33.0001 15.1366C33.0001 14.782 32.685 14.6641 32.4087 14.6641C31.9601 14.6624 31.3449 14.8851 31.3449 14.8851L11.202 22.8873C11.202 22.8873 10.3196 23.1685 10.3196 23.759C10.3196 24.4683 11.1773 24.7157 11.1773 24.7157L15.9911 25.9965L15.9966 25.9992L15.9902 26.0031C15.9902 26.0031 17.9803 31.5707 18.2829 32.5348C18.5881 33.4997 18.8314 33.522 18.8314 33.522L18.8323 33.5212C18.897 33.5502 18.9676 33.564 19.0385 33.5616C19.2273 33.5575 19.3675 33.4486 19.3675 33.4486L22.6041 30.2607L27.411 34.2486C27.411 34.2486 27.6914 34.5075 28.2357 34.5075C29.2608 34.5075 29.4125 33.682 29.4125 33.682Z" fill="#324558"/>
</svg>
