<svg width="48" height="48" viewBox="0 0 48 48" fill="none" xmlns="http://www.w3.org/2000/svg">
<path d="M12.54 15.26C15.1139 14.7046 17.4198 13.2842 19.0737 11.2354C20.7277 9.18664 21.6299 6.63308 21.63 4H27.69V14.304H34.964V21.576H27.692V32.484C27.692 33.514 28.086 34.898 29.51 35.818C30.458 36.432 32.478 36.734 35.57 36.728V44H27.086C25.8922 44.0003 24.7099 43.7653 23.6068 43.3086C22.5038 42.8519 21.5014 42.1824 20.6571 41.3383C19.8128 40.4942 19.1431 39.492 18.6862 38.3891C18.2292 37.2861 17.994 36.1039 17.994 34.91V21.576H12.54V15.26Z" fill="#324558"/>
</svg>
