<svg width="48" height="48" viewBox="0 0 48 48" fill="none" xmlns="http://www.w3.org/2000/svg">
<path d="M44.9979 11.0362C43.4249 11.7289 41.7568 12.1839 40.0488 12.386C41.8491 11.314 43.1965 9.62684 43.84 7.63893C42.1504 8.64005 40.2981 9.34165 38.3674 9.72118C37.0706 8.33967 35.3517 7.42345 33.4779 7.11495C31.6042 6.80646 29.6805 7.12297 28.006 8.01528C26.3316 8.90759 25.0001 10.3257 24.2186 12.0492C23.4372 13.7726 23.2495 15.7049 23.6848 17.5455C20.2585 17.3745 16.9066 16.488 13.8467 14.9435C10.7869 13.3991 8.08749 11.2312 5.92376 8.58056C5.15788 9.89032 4.7554 11.3792 4.75755 12.8948C4.75755 15.8694 6.27816 18.4974 8.58997 20.036C7.22186 19.9931 5.88386 19.6252 4.6875 18.9631V19.0697C4.68791 21.0508 5.37645 22.9709 6.63636 24.5042C7.89628 26.0376 9.65003 27.0899 11.6003 27.4828C10.3303 27.8255 8.99857 27.876 7.70604 27.6305C8.25591 29.3358 9.32762 30.8271 10.7711 31.8958C12.2147 32.9644 13.9577 33.5568 15.7562 33.5901C13.9687 34.9878 11.9221 36.021 9.73327 36.6307C7.54447 37.2404 5.25644 37.4145 3 37.1432C6.93894 39.6654 11.5242 41.0043 16.2074 41C32.0584 41 40.7267 27.926 40.7267 16.5875C40.7267 16.2182 40.7163 15.8448 40.6999 15.4797C42.3871 14.2655 43.8433 12.7615 45 11.0382L44.9979 11.0362Z" fill="#324558"/>
</svg>
