<svg width="48" height="48" viewBox="0 0 48 48" fill="none" xmlns="http://www.w3.org/2000/svg">
<path d="M8.7795 12.7601H10.9852V14.9676H8.7795V12.7601Z" fill="#324558"/>
<path d="M12.1379 9.361H14.3436V11.5684H12.138L12.1379 9.361Z" fill="#324558"/>
<path d="M15.5322 5.83639H17.7383V8.04375H15.5324L15.5322 5.83639Z" fill="#324558"/>
<path d="M12.3474 6.25302H14.2625V8.16929H12.3474V6.25302Z" fill="#324558"/>
<path d="M8.96039 9.6811H10.8755V11.5977H8.96039V9.6811Z" fill="#324558"/>
<path d="M6 9.8945H7.53348V11.429H6V9.8945Z" fill="#324558"/>
<path d="M9.3799 6.38907H10.9134V7.92355H9.3799V6.38907Z" fill="#324558"/>
<path d="M14.2744 3V4.53448H12.7409L12.7409 3H14.2744Z" fill="#324558"/>
<path d="M38.9957 5.69731L39 32.5157C39.0008 36.9425 36.7331 39.262 35.2769 40.6873C32.4946 43.4103 28.5176 44.9992 23.7771 45C19.0569 45.0007 14.6953 42.8088 12.8396 41.0949C11.1804 39.5628 8.64934 36.9815 8.64835 32.1571L8.64572 16.0881L12.012 16.0874L12.0042 12.6238L15.3993 12.6378L15.3988 9.25977L18.7974 9.23142L18.8012 32.1271C18.8015 34.4919 22.0028 35.6742 23.8216 35.6739C25.5789 35.6736 28.8583 34.3755 28.8772 32.2457L28.8541 5.69881L38.9957 5.69731Z" fill="#324558"/>
<path d="M7.34746 6.62214H6.15193L6.15209 7.81851H7.34746V6.62214Z" fill="#324558"/>
<path d="M10.7662 3.17505H9.57031V4.37143H10.7662V3.17505Z" fill="#324558"/>
<path d="M7.12233 3.3306H6.34252V4.11085H7.12233V3.3306Z" fill="#324558"/>
</svg>
