<svg width="48" height="48" viewBox="0 0 48 48" fill="none" xmlns="http://www.w3.org/2000/svg">
<g clip-path="url(#clip0_2937_3656)">
<path d="M31.3914 20.0229L31.669 18.8245C31.7237 18.6079 31.7676 18.4311 31.8035 18.2868C31.9494 17.6992 31.9615 17.6508 32.0223 17.6508C32.038 17.6508 32.1513 17.6605 32.3075 17.6738C32.4025 17.6819 32.5133 17.6913 32.6277 17.7008C34.5203 17.8506 33.7128 20.0729 31.7699 20.0229H31.3914Z" fill="#324558"/>
<path d="M21.0716 22.7943C20.693 22.5197 21.1471 20.722 21.6264 20.5222C22.1816 20.3224 22.2827 20.8718 21.9547 22.0204C21.7528 22.6445 21.349 23.0191 21.0716 22.7943Z" fill="#324558"/>
<path d="M36.1602 22.8692C35.782 22.6695 36.1602 20.8968 36.6651 20.647C37.0434 20.4722 37.3211 20.697 37.3211 21.1713C37.3211 22.1952 36.6651 23.1438 36.1602 22.8692Z" fill="#324558"/>
<path d="M26.345 27.0389L26.4711 26.5895C26.4964 26.5395 28.6664 26.5395 28.6412 26.5646C28.6412 26.5895 28.6159 26.7143 28.5151 27.0138L27.8841 27.0389C27.1524 27.0639 27.001 27.1138 26.4964 27.3634C26.3198 27.4634 26.1937 27.5132 26.1937 27.4882C26.2093 27.4729 26.2344 27.3909 26.2692 27.2776C26.2908 27.2073 26.316 27.1249 26.345 27.0389Z" fill="#324558"/>
<path d="M25.9412 28.437L26.0424 28.0375C26.0424 28.0125 26.5216 28.0125 28.2374 28.0125L28.1113 28.412L25.9412 28.437Z" fill="#324558"/>
<path d="M32.7541 27.7129C32.7288 27.7129 32.8044 27.4634 32.9054 27.1386L33.082 26.5895H33.6372C33.9399 26.5895 34.1924 26.6143 34.1924 26.6143C34.1924 26.6393 33.9399 27.4133 33.9399 27.4133C33.9244 27.4133 33.8708 27.4228 33.7967 27.4359C33.7502 27.4441 33.6956 27.4538 33.6372 27.4634C33.4858 27.4882 33.2082 27.5631 33.0568 27.6132L32.7541 27.7129Z" fill="#324558"/>
<path d="M32.4682 28.5187C32.4885 28.4594 32.5017 28.4211 32.5017 28.412C32.5017 28.3871 32.7793 28.3871 33.082 28.3871H33.6372L33.5361 28.6868C33.5142 28.752 33.4923 28.8266 33.4725 28.8942C33.4467 28.982 33.4244 29.058 33.4101 29.0862C33.3847 29.2112 33.3595 29.2359 33.0315 29.286C32.8802 29.3109 32.6277 29.3859 32.4511 29.4607C32.2745 29.5357 32.1484 29.5855 32.1484 29.5607C32.1484 29.5607 32.2242 29.2859 32.325 28.9863C32.3735 28.7949 32.4321 28.6238 32.4682 28.5187Z" fill="#324558"/>
<path d="M32.7288 31.3085L31.6185 31.2834L31.9213 30.2348L33.0315 30.2846C33.0315 30.3095 32.9559 30.5594 32.7288 31.3085Z" fill="#324558"/>
<path fill-rule="evenodd" clip-rule="evenodd" d="M21.8905 9.05687C22.8423 9.0014 31.9024 9.02469 35.2268 9.06176V9.03714H33.9651C34.5455 8.96209 46.0514 9.01211 46.3036 9.08689C47.3887 9.41143 48.0699 10.3353 47.9944 11.4589C47.9944 11.8585 42.3927 35.6777 42.216 36.1521C41.7619 37.4005 40.5255 38.4241 39.2134 38.6739C38.8145 38.7616 30.8586 38.7723 28.6414 38.7059C26.2075 38.7617 18.2695 38.7631 15.5788 38.71C12.4304 38.7718 2.18808 38.7598 1.81908 38.6739C0.658443 38.4492 -0.0480052 37.5503 0.00254288 36.3269C0.027524 35.9023 5.45268 12.5325 5.75538 11.7085C6.20968 10.3853 7.59738 9.23663 8.98514 9.06193C9.44449 9.00275 18.1517 9.02172 21.8905 9.05687ZM8.48061 16.9768C8.53089 16.8269 8.55624 16.6772 8.55624 16.6521C8.55624 16.6021 6.53778 16.5524 6.53778 16.6272C6.15923 17.8008 5.32644 22.1202 5.40218 22.4947C5.70488 24.2175 9.59069 24.2675 10.7515 22.5695C11.1047 22.0452 11.1803 21.7706 11.8618 19.124C12.1645 17.8756 12.4419 16.8269 12.4672 16.7522C12.4925 16.6772 12.4925 16.6022 12.4925 16.6022C12.4925 16.5775 10.7767 16.5524 10.7767 16.5775C10.7767 16.9019 9.69174 21.4711 9.54036 21.7456C9.03578 22.7693 7.59748 22.8442 7.39561 21.8704C7.31981 21.5459 7.90024 18.9242 8.48061 16.9768ZM35.3276 19.199C35.8575 17.8256 35.5043 16.9019 34.3437 16.6521C34.1453 16.6085 33.8123 16.603 32.7733 16.5858C32.6225 16.5833 32.4568 16.5806 32.2745 16.5775H30.4579L30.4327 16.6521C30.4327 16.7022 30.3066 17.2515 28.7925 23.6681C28.7672 23.7929 30.5587 23.7929 30.5841 23.6681C30.5841 23.6318 30.6242 23.4499 30.6752 23.2188C30.6943 23.1324 30.7148 23.0392 30.7354 22.9441C30.9907 21.6811 31.0508 21.3154 31.2487 21.2111C31.3443 21.1607 31.4719 21.1713 31.6691 21.1713C33.6625 21.1713 34.7978 20.5722 35.3276 19.199ZM19.2042 19.5486C19.2042 19.3738 19.0276 19.174 18.7754 19.124C17.9426 18.9243 16.9839 19.6484 17.438 20.1227C17.9173 20.5972 19.2042 20.1727 19.2042 19.5486ZM14.2985 19.6894C14.3041 19.6535 14.3092 19.6208 14.3092 19.5983C14.3092 19.4735 14.2587 19.4485 14.0065 19.5236C13.9086 19.5478 13.5974 19.5953 13.2797 19.6438L13.2495 19.6484C12.9034 19.6973 12.745 19.7043 12.6586 19.7868C12.5686 19.8726 12.5568 20.0403 12.4925 20.4224C12.3916 21.1216 12.2401 21.8954 11.9626 22.994C11.8637 23.4096 11.7952 23.6038 11.8634 23.6908C11.9346 23.7816 12.1544 23.7559 12.6438 23.7431L13.4261 23.6932L13.4765 23.4684C13.5017 23.2686 13.956 21.0965 14.0065 20.9217C14.0315 20.8468 14.3092 20.722 14.5111 20.722C14.8644 20.722 14.8391 20.9718 14.4354 22.7443C14.3897 22.9593 14.3439 23.159 14.3076 23.3176C14.2637 23.509 14.2335 23.6408 14.2335 23.6681C14.2082 23.7431 14.2082 23.7431 14.9905 23.7431C15.5218 23.7431 15.7164 23.7517 15.8067 23.6588C15.8707 23.5929 15.8822 23.4759 15.9241 23.2686C15.9494 23.0441 16.0502 22.5945 16.126 22.2699C16.5296 20.4225 16.5548 20.2477 16.4035 19.9479C16.1511 19.4485 15.3689 19.3738 14.5615 19.7731L14.2587 19.9231L14.284 19.8231C14.284 19.782 14.2916 19.7333 14.2985 19.6894ZM26.2838 19.6641C26.2894 19.6284 26.2945 19.5959 26.2945 19.5736C26.2945 19.4736 26.2189 19.4485 25.9666 19.5736C25.9075 19.5852 25.7986 19.6023 25.6709 19.6224C25.5261 19.6452 25.3571 19.6718 25.2095 19.6983C24.8972 19.7478 24.7581 19.7544 24.6849 19.8272C24.6104 19.9015 24.6044 20.0447 24.5535 20.3724C24.4274 21.0465 24.2508 21.9703 23.9983 22.969C23.8853 23.429 23.8097 23.6352 23.8807 23.7232C23.9523 23.812 24.173 23.7806 24.6543 23.7682L25.4366 23.7431L25.4871 23.4684C25.5375 23.1438 25.916 21.3461 25.9918 21.0715C26.0423 20.8468 26.1937 20.747 26.4964 20.747C26.8749 20.747 26.8749 20.9718 26.4458 22.7943C26.4069 22.9681 26.3678 23.1345 26.3346 23.276C26.2819 23.5004 26.2439 23.6625 26.2439 23.6931C26.2189 23.7682 27.7075 23.7929 27.8086 23.6931C27.8336 23.6681 27.9094 23.3936 27.9599 23.069C28.0036 22.8959 28.0642 22.6061 28.127 22.3056C28.1729 22.086 28.2201 21.8606 28.2626 21.6708C28.7167 19.6233 28.1113 18.9743 26.5469 19.7731L26.2439 19.9231L26.2693 19.7982C26.2693 19.7569 26.2769 19.708 26.2838 19.6641ZM41.7367 21.5459C41.7367 21.5208 41.7114 21.0715 41.6106 19.5486C41.5853 19.4986 41.5348 19.4986 41.0555 19.6484C40.9768 19.6595 40.868 19.6806 40.7537 19.7027C40.6116 19.7302 40.4609 19.7594 40.349 19.7732C40.1025 19.8003 39.9898 19.8127 39.9462 19.8741C39.9095 19.926 39.9221 20.0127 39.9452 20.1727C40.021 20.5472 40.1723 21.8206 40.2984 22.8943L40.3995 23.8179L39.9957 24.517C39.8211 24.8625 39.6087 25.2081 39.5056 25.3759C39.4895 25.4021 39.476 25.424 39.4658 25.4409C39.4217 25.5497 39.3202 25.7156 39.2447 25.8389C39.2336 25.857 39.2231 25.8742 39.2134 25.8902C39.0115 26.2397 38.9612 26.2898 38.734 26.2898H38.5322L38.4565 26.5646C38.4402 26.6619 38.4024 26.7803 38.3711 26.8787C38.3542 26.9317 38.3391 26.9789 38.3303 27.0138L38.28 27.1887L38.936 27.1636C40.021 27.1386 40.021 27.1386 41.3077 24.8168L41.3991 24.6572C41.8872 23.8049 42.9775 21.9011 43.7804 20.5222C44.1584 19.8641 44.3099 19.6181 44.2513 19.5482C44.2121 19.5014 44.0788 19.5335 43.8562 19.5736C43.629 19.6233 43.3263 19.6734 43.1749 19.6983C42.9615 19.7271 42.845 19.73 42.7538 19.7795C42.6078 19.8588 42.5266 20.0573 42.2161 20.672C41.9638 21.1713 41.7367 21.5709 41.7367 21.5459ZM21.7275 23.7431C23.847 23.2686 24.5283 19.9231 22.5854 19.5736C20.7686 19.2488 19.3303 20.4972 19.3053 22.4197C19.3053 23.5184 20.2892 24.0677 21.7275 23.7431ZM37.4472 19.8981C37.3716 19.8231 37.22 19.7233 37.1192 19.6734C35.6557 18.9992 33.6625 21.9454 34.5959 23.3436C34.9744 23.8929 36.3369 24.0677 36.6145 23.6182C36.6651 23.5433 36.7154 23.5934 36.7154 23.6931V23.7929H37.5482C38.0511 23.8057 38.264 23.8381 38.3756 23.7467C38.4823 23.6593 38.4963 23.4586 38.5827 23.0191C38.7088 22.4197 38.9865 21.1963 39.3145 19.7982C39.3312 19.7234 39.3452 19.6735 39.3266 19.6448C39.2892 19.5874 39.1211 19.6151 38.5827 19.6983C37.5988 19.8443 37.5979 19.848 37.5751 19.9405C37.5745 19.9429 37.5739 19.9453 37.5732 19.9479C37.5732 19.9768 37.5732 19.9946 37.566 19.9983C37.5545 20.0043 37.5246 19.9747 37.4472 19.8981ZM18.9771 20.6222C19.0023 20.5222 19.0023 20.3975 19.0023 20.3975C18.9771 20.3725 18.851 20.3724 18.6491 20.4225C18.5885 20.4425 18.3489 20.4785 18.0872 20.5178C18.0228 20.5275 17.957 20.5373 17.8923 20.5472C17.5127 20.599 17.3571 20.597 17.2812 20.6738C17.2109 20.745 17.209 20.884 17.1605 21.1963C17.0595 21.9454 16.8828 22.6445 16.7062 23.2189C16.6173 23.4828 16.5578 23.6208 16.6031 23.6904C16.6608 23.7789 16.8875 23.7571 17.438 23.7431L18.2706 23.7182L18.3463 23.3436C18.3754 23.2288 18.4453 22.9194 18.5317 22.5365C18.6708 21.9208 18.8527 21.1148 18.9771 20.6222ZM23.2919 25.8155C23.3677 25.6907 23.418 25.5907 23.418 25.5656C23.418 25.5406 23.1406 25.5159 21.8283 25.5407L21.5761 26.0152C21.2732 26.5395 21.1976 26.6143 20.8444 26.6143H20.6426L20.3651 27.5132C20.3651 27.7129 21.8283 27.3884 22.1061 27.1386L22.2321 27.0389H24.4021L24.6796 26.14C24.7046 26.0658 24.6554 26.065 23.2143 26.041L23.1658 26.0402C23.1658 26.0402 23.2413 25.9402 23.2919 25.8155ZM26.6477 25.8655C26.6983 25.7154 26.7236 25.5907 26.7236 25.5656C26.7236 25.5158 25.4366 25.5159 25.4114 25.5407C25.3861 25.5907 23.5696 31.533 23.4938 31.8576C23.3424 32.5069 23.5443 32.6067 25.1339 32.5816H25.8657L26.0171 32.0823C26.1063 31.7798 26.1569 31.6427 26.1103 31.5876C26.0647 31.5335 25.9258 31.5582 25.6385 31.583C25.3453 31.613 25.1696 31.6511 25.0967 31.5815C24.9878 31.4774 25.109 31.1324 25.4114 30.1598L25.6638 29.3109L28.5401 29.2609L28.7926 29.1611C29.0699 29.0364 29.2466 28.8616 29.4232 28.5368C29.5496 28.2872 30.3822 25.5907 30.3568 25.5407C30.3316 25.5159 29.8523 25.5159 29.2971 25.5159C27.8841 25.5159 27.4048 25.5907 26.8496 25.9653C26.6983 26.0899 26.5722 26.14 26.5722 26.14C26.5722 26.115 26.5972 25.9902 26.6477 25.8655ZM33.3368 25.6625C33.35 25.6152 33.3595 25.581 33.3595 25.5656C33.3595 25.5407 33.0315 25.5159 32.5775 25.5159H31.871L31.7699 25.8405C31.7302 25.9781 31.4868 26.7824 30.8051 29.035C30.6217 29.6412 30.4065 30.3522 30.155 31.1835C30.1265 31.2825 30.1141 31.3254 30.0858 31.344C30.0641 31.3582 30.0331 31.3582 29.9784 31.3582C29.933 31.3582 29.9035 31.3582 29.8803 31.3704C29.8263 31.3987 29.8069 31.4931 29.701 31.8078L29.5748 32.2571C29.5496 32.3321 29.6251 32.3321 30.9624 32.3321C32.0445 32.3321 32.3036 32.3198 32.3357 32.3991C32.3492 32.4326 32.3223 32.4825 32.2997 32.5566L32.2745 32.6316H33.6875L33.7128 32.4819C33.7633 32.3321 33.7633 32.3321 33.9652 32.3321C34.1671 32.3321 34.1671 32.3321 34.1418 32.4319C34.107 32.5007 34.0842 32.5457 34.097 32.5753C34.1215 32.6316 34.2754 32.6316 34.7222 32.6316C35.782 32.6316 35.8322 32.6066 36.6651 31.4832L36.9678 31.0836L37.0433 31.633C37.195 32.4819 37.3463 32.6066 38.1789 32.6066H38.6582L38.8099 32.1073C38.9177 31.7416 38.9597 31.6177 38.9187 31.5766C38.8925 31.5504 38.8325 31.558 38.734 31.558C38.4061 31.558 38.4061 31.558 38.305 30.8839L38.2042 30.2846H37.5482L37.8004 29.985H39.4658L39.5919 29.5855C39.669 29.3675 39.7221 29.2542 39.6861 29.1958C39.6396 29.1203 39.4447 29.1361 38.9612 29.1361H38.2295L38.2547 29.0364C38.2694 29.0072 38.2927 28.9355 38.3346 28.8064C38.3646 28.7143 38.404 28.593 38.4565 28.437L39.9705 28.3871L40.0966 27.9628C40.1723 27.738 40.2228 27.5382 40.2228 27.5132C40.2228 27.4882 39.1883 27.4882 37.952 27.4882H35.6809L35.4287 28.387H36.2361C36.6901 28.387 37.0434 28.387 37.0434 28.412C37.0434 28.4261 37.0274 28.4797 36.9866 28.6172C36.9548 28.7242 36.9079 28.8818 36.8418 29.1111H35.1763L35.0502 29.5107C34.9828 29.7332 34.9303 29.8467 34.9666 29.904C35.0117 29.9754 35.194 29.96 35.6556 29.96H36.3369L36.0089 30.4346C35.2306 31.5176 35.2026 31.5333 35.0433 31.6226C35.0374 31.626 35.0313 31.6294 35.0249 31.633C34.8989 31.7077 34.7978 31.7328 34.6212 31.7328C34.4927 31.7328 34.4297 31.7328 34.4087 31.7031C34.3886 31.6745 34.4074 31.6183 34.4445 31.5079C34.4817 31.4101 34.5007 31.3602 34.4835 31.3348C34.4656 31.3085 34.4089 31.3085 34.2932 31.3085C34.1418 31.3085 34.1165 31.2835 34.1418 31.2334C34.3185 30.6591 35.5548 26.5896 35.5548 26.5896C35.5548 26.5646 35.6809 26.5646 35.807 26.5646H36.0594L36.1352 26.3148L36.2107 26.09V26.4148C36.2361 27.0888 36.4127 27.2136 37.5732 27.1886H38.0276L38.28 26.2898L38.0528 26.2648C37.7501 26.2149 37.7248 26.19 37.7248 25.8405V25.5407H37.0686C34.9997 25.5407 33.9904 25.6157 33.5614 25.8405C33.3818 25.9361 33.3006 25.9794 33.2762 25.958C33.2561 25.9403 33.2749 25.8784 33.3092 25.7654C33.3189 25.7269 33.3285 25.6921 33.3368 25.6625ZM24.1245 28.5868L24.4021 27.7129C24.4274 27.6629 20.6172 27.6382 20.5666 27.6879C20.5416 27.763 20.3145 28.4871 20.3145 28.5368C20.3145 28.5868 20.4153 28.5868 20.7183 28.5868H21.1218L20.9199 29.361H20.4911C20.1126 29.361 20.062 29.3859 20.0368 29.4357C20.0368 29.4612 20.017 29.526 19.9741 29.6666C19.9331 29.8009 19.8709 30.0046 19.7846 30.3095C19.7846 30.3345 19.9865 30.3345 20.2134 30.3345C20.4658 30.3345 20.6425 30.3596 20.6425 30.3596C20.6425 30.3596 20.5164 30.7341 20.39 31.1835C19.936 32.6066 19.9612 32.6566 21.6264 32.6566H22.6864L22.8377 32.1573C22.9354 31.8258 22.9868 31.693 22.9449 31.6489C22.911 31.6133 22.8163 31.6356 22.6358 31.658C21.677 31.7827 21.6517 31.7578 21.9041 30.9089L22.0807 30.3095H23.6451L23.7462 29.985C23.7965 29.7853 23.847 29.5855 23.8722 29.5357C23.8819 29.507 23.8916 29.482 23.8998 29.4606C23.9132 29.4262 23.9228 29.4013 23.9228 29.386C23.9228 29.386 23.5696 29.361 23.1406 29.361C22.4088 29.361 22.3582 29.361 22.3835 29.2859C22.4088 29.2359 22.4593 29.0862 22.6107 28.5868H24.1245ZM29.263 29.6665C29.2813 29.5979 29.2971 29.5387 29.2971 29.5107C29.3211 29.4633 29.2768 29.4608 28.8844 29.4393C28.8632 29.4382 28.841 29.437 28.8178 29.4357H28.3131L28.2374 29.6354C28.1113 29.985 28.086 30.01 27.8086 30.01H27.5561V29.4857H26.2693L26.2439 30.8589C26.225 32.0522 26.2204 32.3258 26.3515 32.4321C26.3932 32.4659 26.4486 32.4827 26.5216 32.5069C26.7236 32.5816 28.2626 32.6067 28.3131 32.5566C28.3384 32.5318 28.6159 31.658 28.6159 31.608C28.6159 31.608 28.3888 31.608 28.1113 31.633L27.6067 31.658L27.5309 31.558C27.4804 31.4582 27.4804 30.8589 27.5309 30.7841C27.5309 30.7841 27.7833 30.7591 28.0608 30.7341C28.8683 30.6842 29.0699 30.5344 29.2215 29.8353C29.2326 29.7803 29.2486 29.7205 29.263 29.6665Z" fill="#324558"/>
</g>
<defs>
<clipPath id="clip0_2937_3656">
<rect width="48" height="48" fill="white"/>
</clipPath>
</defs>
</svg>
