<svg width="48" height="48" viewBox="0 0 48 48" fill="none" xmlns="http://www.w3.org/2000/svg">
<path d="M36.0138 8.0697C35.2623 7.53249 34.5108 6.99528 33.6519 6.56551C33.1151 6.24319 32.3636 6.35063 31.9342 6.88784L26.8883 13.5493L26.5662 13.979C26.0294 14.7311 25.1705 15.0535 24.3116 15.0535H23.3454C20.8761 15.1609 18.4068 16.4502 16.7964 18.599C15.5081 20.3181 14.864 22.3595 14.9713 24.4009C14.9713 24.7233 15.186 25.0456 15.5081 25.2605C16.1523 25.5828 16.6891 26.2275 16.9038 26.9796C17.1185 28.1614 16.367 29.2358 15.2934 29.5582C14.0051 29.9879 12.6094 29.1284 12.2873 27.8391C12.0726 27.087 12.2873 26.4423 12.7168 25.9051C12.9315 25.5828 13.0389 25.2605 13.0389 24.8307C12.8241 22.2521 13.4683 19.566 15.186 17.3097C17.3332 14.5162 20.554 13.0121 23.8822 13.0121C24.5263 13.0121 25.0631 12.6897 25.4926 12.1525L30.109 6.0283C30.4311 5.59853 30.2164 4.84644 29.6796 4.73899C21.9497 2.59015 13.3609 5.16876 8.10031 11.9376C1.44401 20.6405 3.0544 33.2112 11.7505 39.9801C12.6094 40.6247 13.3609 41.1619 14.3272 41.6992C14.864 42.0215 15.6155 41.914 16.0449 41.3768L21.0908 34.7154L21.4129 34.2856C21.9497 33.5335 22.8086 33.2112 23.6675 33.2112H24.6337C27.103 33.1038 29.5722 31.8145 31.1826 29.6656C32.471 27.9465 33.1151 25.9051 33.0078 23.8637C33.0078 23.5414 32.793 23.2191 32.471 23.0042C31.8268 22.6819 31.29 22.0372 31.0753 21.2851C30.8606 20.1032 31.6121 19.0288 32.6857 18.7065C33.974 18.2767 35.3697 19.1363 35.6918 20.4256C35.9065 21.1777 35.6918 21.8223 35.2623 22.3595C35.0476 22.6819 34.9402 23.0042 34.9402 23.434C35.155 26.0126 34.5108 28.6986 32.793 30.9549C30.6458 33.7484 27.4251 35.2526 24.0969 35.2526C23.4527 35.2526 22.9159 35.5749 22.4865 36.1121L17.9774 41.914C17.6553 42.3438 17.87 43.0959 18.4068 43.2033C26.1367 45.4596 34.8329 42.881 39.9861 36.0047C46.6424 27.3019 44.8173 14.7311 36.0138 8.0697Z" fill="#324558"/>
</svg>
