<svg width="48" height="48" viewBox="0 0 48 48" fill="none" xmlns="http://www.w3.org/2000/svg">
<path d="M2.34606 16.479C1.78407 15.6625 1.84207 15.6625 3.00206 14.6563C5.46604 12.5172 7.79003 10.1765 10.474 8.30636C12.904 6.62201 16.126 5.5347 18.328 8.21345C20.356 10.6826 20.404 14.425 20.9179 17.4062C21.4319 20.4981 21.9239 23.6612 23.0199 26.6187C23.3239 27.451 23.9059 29.0247 24.9559 29.1571C26.3119 29.341 27.6919 26.9904 28.3219 26.1126C29.9559 23.7798 32.1719 20.6385 31.8919 17.6395C31.6159 14.4527 28.1359 15.0517 25.9599 15.8128C26.3099 12.2365 29.6759 8.21542 32.9199 6.85727C36.3599 5.44574 41.4718 5.46946 43.1998 9.30274C45.0458 13.4583 43.3858 18.284 41.3758 22.05C39.1818 26.1383 36.3579 29.9222 33.3399 33.457C30.6779 36.5963 27.5279 40.0402 23.5599 41.5407C19.026 43.2487 16.34 39.9196 14.796 36.0645C13.11 31.8675 12.272 27.1565 11.056 22.7854C10.544 20.939 9.93602 18.8375 8.72202 17.3133C7.13803 15.3462 5.33805 17.1947 3.77406 18.2563C3.23606 17.7284 2.79206 17.0563 2.34606 16.479Z" fill="#324558"/>
</svg>
