<svg width="48" height="48" viewBox="0 0 48 48" fill="none" xmlns="http://www.w3.org/2000/svg">
<path d="M41.6542 9.01877L33.8326 5.23548C33.3906 5.0215 32.8933 4.95097 32.4097 5.03367C31.926 5.11637 31.4799 5.3482 31.1331 5.69705L16.155 19.4328L9.63173 14.4542C9.33743 14.2298 8.97428 14.116 8.60527 14.1326C8.23626 14.1491 7.88465 14.295 7.61142 14.5449L5.51829 16.458C5.35518 16.6071 5.22482 16.7887 5.13557 16.9913C5.04633 17.194 5.00015 17.4131 5 17.6347C4.99985 17.8563 5.04573 18.0754 5.13471 18.2782C5.22368 18.4809 5.35379 18.6628 5.5167 18.812L11.1739 24.0007L5.5167 29.1894C5.35379 29.3387 5.22368 29.5205 5.13471 29.7233C5.04573 29.926 4.99985 30.1452 5 30.3668C5.00015 30.5884 5.04633 30.8075 5.13557 31.0101C5.22482 31.2127 5.35518 31.3944 5.51829 31.5434L7.61301 33.455C7.88623 33.7048 8.23784 33.8507 8.60685 33.8673C8.97587 33.8839 9.33901 33.7701 9.63331 33.5457L16.1566 28.5671L31.1347 42.3028C31.4811 42.6517 31.9269 42.8836 32.4104 42.9663C32.8938 43.049 33.3909 42.9785 33.8326 42.7644L41.6574 38.9811C42.0599 38.7858 42.3995 38.4802 42.637 38.0995C42.8745 37.7189 43.0003 37.2786 43 36.8292V11.1706C43 10.721 42.8737 10.2804 42.6357 9.8997C42.3976 9.519 42.0573 9.21363 41.6542 9.01877ZM33.5065 32.6719L22.1415 24.0007L33.5065 15.3296V32.6719Z" fill="#324558"/>
</svg>
