<svg width="48" height="48" viewBox="0 0 48 48" fill="none" xmlns="http://www.w3.org/2000/svg">
<path d="M47.284 11.204L45.422 14.92C45.422 14.92 44.622 13.444 43.832 12.768C43.078 12.124 42.104 11.528 40.872 11.656C39.678 11.78 38.332 12.83 37.428 14.576C36.402 16.564 36.052 18.578 36.044 20.8C36.034 23.912 37.184 26.036 37.184 26.036C37.184 26.036 36.92 25.048 36.964 23.376C36.992 22.336 36.998 21.198 37.784 18.854C38.444 16.894 39.952 15.304 41.284 15.03C42.318 14.816 42.978 14.97 43.996 15.688C45.202 16.538 45.928 18.074 45.928 18.074L47.82 14.454L47.284 11.204ZM0 11.348L7.54 36.794H7.852L12.564 21.022L17.278 36.794H17.592L24.048 15.004L24.352 14.488H29.662L25.262 22.092V23.6H26.52C28.132 23.6 29.316 24.092 30.07 25.076C30.718 25.916 31.044 27.098 31.044 28.628C31.044 30.01 30.74 31.194 30.134 32.178C29.526 33.162 28.782 33.654 27.902 33.654C27.064 33.654 26.336 33.378 25.718 32.822C25.102 32.268 24.604 31.508 24.226 30.544L21.65 31.612C22.172 33.204 22.98 34.466 24.07 35.398C25.158 36.33 26.436 36.796 27.902 36.796C29.85 36.796 31.436 36.01 32.662 34.44C33.888 32.87 34.5 30.932 34.5 28.628C34.5 26.764 34.08 25.142 33.244 23.758C32.404 22.378 31.17 21.424 29.536 20.898L34.188 12.886V11.346H21.834L17.28 26.838L12.724 11.348H9.424L10.932 16.406L7.852 26.836L3.3 11.348H0ZM34.88 29.108C34.88 29.108 35.346 30.618 35.638 31.26C35.806 31.63 36.322 32.76 37.054 33.74C37.736 34.66 39.062 36.236 41.076 36.592C43.092 36.948 44.476 36.044 44.818 35.824C45.162 35.604 45.884 35 46.34 34.51C46.818 34 47.27 33.35 47.52 32.96C47.702 32.674 48 32.096 48 32.096L47.518 29.586C47.518 29.586 46.682 31.082 46.162 31.658C45.64 32.234 44.708 33.246 43.558 33.754C42.406 34.26 41.804 34.358 40.666 34.248C39.528 34.14 38.472 33.482 38.102 33.208C37.732 32.932 36.786 32.124 36.252 31.368C35.716 30.616 34.88 29.108 34.88 29.108Z" fill="#324558"/>
</svg>
