<svg width="48" height="48" viewBox="0 0 48 48" fill="none" xmlns="http://www.w3.org/2000/svg">
<path d="M37.856 28.358C37.428 28.538 37.002 28.628 36.57 28.628C35.886 28.628 35.27 28.51 34.724 28.272C34.198 28.049 33.7271 27.7139 33.344 27.29C32.97 26.872 32.68 26.384 32.48 25.82C32.28 25.256 32.182 24.648 32.182 23.998C32.182 23.328 32.282 22.712 32.48 22.138C32.68 21.564 32.964 21.066 33.338 20.644C33.7189 20.2128 34.19 19.8707 34.718 19.642C35.3007 19.3913 35.9297 19.2665 36.564 19.276C37.024 19.276 37.466 19.348 37.892 19.484C38.32 19.622 38.708 19.826 39.054 20.092C39.4 20.358 39.686 20.69 39.908 21.084C40.1385 21.5009 40.2789 21.9615 40.32 22.436H38.45C38.332 21.938 38.108 21.562 37.776 21.312C37.4246 21.0551 36.9971 20.9234 36.562 20.938C36.12 20.938 35.746 21.024 35.438 21.194C35.13 21.364 34.878 21.592 34.688 21.882C34.498 22.172 34.356 22.498 34.27 22.864C34.184 23.23 34.138 23.608 34.138 24.002C34.138 24.376 34.18 24.742 34.27 25.098C34.356 25.454 34.498 25.772 34.688 26.056C34.878 26.34 35.13 26.568 35.438 26.74C35.746 26.912 36.122 26.996 36.562 26.996C37.212 26.996 37.716 26.83 38.07 26.502C38.426 26.174 38.63 25.7 38.692 25.074H36.718V23.6H40.462V28.426H39.214L39.014 27.416C38.7172 27.8261 38.3179 28.1509 37.856 28.358ZM43.648 19.5V26.764H48V28.42H41.69V19.5H43.648ZM5.57 23.998C5.57 22.58 6.256 21.246 7.466 20.074L9.684 28.516H11.212L13.362 20.886L15.482 28.516H17.014L19.656 18.804H17.936L16.214 26.254L14.136 18.802H12.56L10.482 26.252L8.802 18.988C11.78 16.938 16.538 15.608 21.898 15.608C26.922 15.608 31.426 16.666 34.42 18.498C31.156 15.428 25.29 13.274 18.59 13.27C8.322 13.27 0 18.072 0 23.998C0 29.924 8.322 34.732 18.586 34.732C25.262 34.732 31.108 32.582 34.386 29.532C31.392 31.354 26.904 32.388 21.898 32.388C12.878 32.386 5.57 28.634 5.57 23.998ZM23.958 22.892C23.7312 22.5655 23.4258 22.3014 23.07 22.124C22.6821 21.9382 22.2561 21.8457 21.826 21.854C21.304 21.854 20.834 21.948 20.426 22.134C20.0426 22.3097 19.7071 22.5752 19.448 22.908C18.96 23.53 18.704 24.408 18.704 25.446C18.704 25.906 18.77 26.342 18.898 26.732C19.0181 27.1096 19.2118 27.4597 19.468 27.762C19.99 28.37 20.734 28.692 21.622 28.692C22.088 28.692 22.466 28.644 22.784 28.544C23.06 28.458 23.244 28.344 23.396 28.246C23.768 27.9981 24.0731 27.6622 24.284 27.268C24.464 26.936 24.554 26.622 24.574 26.462L24.588 26.352H23.322L23.318 26.442C23.284 26.854 22.744 27.59 21.78 27.59C20.404 27.59 20.076 26.594 20.052 25.716H24.664V25.616C24.6703 25.1003 24.6132 24.5858 24.494 24.084C24.3879 23.6579 24.2064 23.2542 23.958 22.892ZM21.68 22.992C22.7 22.992 23.246 23.542 23.346 24.672H20.044C20.094 23.756 20.82 22.992 21.68 22.992ZM31.036 23.822C30.9227 23.4484 30.7409 23.0992 30.5 22.792C30.2645 22.4985 29.9657 22.262 29.626 22.1C29.2589 21.9299 28.8585 21.8438 28.454 21.848C28.0845 21.8461 27.7201 21.934 27.392 22.104C27.1256 22.2416 26.8901 22.4321 26.7 22.664V19.684H25.438V28.51H26.638V27.908C26.7567 28.0662 26.899 28.2051 27.06 28.32C27.402 28.566 27.824 28.69 28.312 28.69C28.838 28.69 29.314 28.572 29.712 28.338C30.068 28.13 30.372 27.83 30.608 27.45C30.8275 27.089 30.9863 26.6945 31.078 26.282C31.1699 25.8866 31.2162 25.482 31.216 25.076C31.2235 24.6511 31.1627 24.2277 31.036 23.822ZM29.902 25.256C29.902 25.948 29.764 26.528 29.498 26.936C29.3718 27.1417 29.1934 27.3102 28.9808 27.4244C28.7682 27.5386 28.5292 27.5944 28.288 27.586C27.534 27.586 26.65 27.06 26.65 25.57C26.65 24.858 26.74 24.308 26.92 23.89C27.18 23.288 27.622 22.998 28.262 22.998C28.946 22.998 29.406 23.264 29.662 23.818C29.874 24.272 29.902 24.828 29.902 25.256Z" fill="#324558"/>
</svg>
