<svg width="48" height="48" viewBox="0 0 48 48" fill="none" xmlns="http://www.w3.org/2000/svg">
<path d="M37.148 27.422C37.6224 27.4158 38.0756 27.2246 38.4111 26.8891C38.7466 26.5536 38.9378 26.1004 38.944 25.626C38.944 24.63 38.146 23.83 37.148 23.83C36.15 23.83 35.352 24.63 35.352 25.626C35.352 26.626 36.152 27.422 37.148 27.422ZM28.298 27.422C28.7724 27.4158 29.2256 27.2246 29.5611 26.8891C29.8966 26.5536 30.0878 26.1004 30.094 25.626C30.094 24.63 29.294 23.83 28.298 23.83C27.298 23.83 26.502 24.63 26.502 25.626C26.502 26.626 27.3 27.422 28.298 27.422ZM41.432 37.502C41.3039 37.5732 41.2015 37.6832 41.1397 37.8161C41.0779 37.949 41.0598 38.0981 41.088 38.242C41.088 38.338 41.088 38.436 41.138 38.536C41.334 39.37 41.726 40.698 41.726 40.748C41.726 40.894 41.776 40.992 41.776 41.092C41.776 41.1499 41.7646 41.2073 41.7423 41.2608C41.7201 41.3144 41.6875 41.3629 41.6464 41.4038C41.6054 41.4447 41.5566 41.4771 41.503 41.4991C41.4494 41.5211 41.3919 41.5323 41.334 41.532C41.234 41.532 41.186 41.484 41.088 41.436L38.19 39.764C37.9784 39.6475 37.7432 39.5805 37.502 39.568C37.356 39.568 37.208 39.568 37.11 39.616C35.734 40.01 34.31 40.206 32.788 40.206C25.468 40.206 19.574 35.292 19.574 29.196C19.574 23.102 25.468 18.186 32.788 18.186C40.106 18.186 46 23.102 46 29.196C46 32.49 44.232 35.488 41.432 37.504V37.502ZM33.346 16.198C33.1594 16.1918 32.9727 16.1885 32.786 16.188C24.438 16.188 17.574 21.908 17.574 29.198C17.574 30.306 17.734 31.378 18.03 32.398H17.852C16.1045 32.3804 14.3669 32.1329 12.684 31.662C12.536 31.612 12.388 31.612 12.24 31.612C11.9444 31.6183 11.6559 31.7032 11.404 31.858L7.908 33.868C7.808 33.918 7.71 33.968 7.612 33.968C7.46927 33.9664 7.33282 33.909 7.23189 33.8081C7.13095 33.7072 7.07356 33.5707 7.072 33.428C7.072 33.28 7.12 33.182 7.17 33.034C7.218 32.986 7.662 31.366 7.908 30.386C7.908 30.286 7.956 30.14 7.956 30.042C7.95546 29.8706 7.91528 29.7015 7.83861 29.5482C7.76193 29.3948 7.65084 29.2613 7.514 29.158C4.116 26.752 2 23.172 2 19.196C2 11.89 9.14 6 17.9 6C25.43 6 31.76 10.338 33.346 16.196V16.198ZM23.038 17.034C24.184 17.034 25.09 16.08 25.09 14.982C25.09 13.836 24.184 12.93 23.038 12.93C21.892 12.93 20.986 13.836 20.986 14.982C20.986 16.128 21.892 17.034 23.038 17.034ZM12.518 17.034C13.664 17.034 14.572 16.08 14.572 14.982C14.572 13.836 13.664 12.93 12.518 12.93C11.374 12.93 10.466 13.836 10.466 14.982C10.466 16.128 11.374 17.034 12.518 17.034Z" fill="#324558"/>
</svg>
