<svg width="48" height="48" viewBox="0 0 48 48" fill="none" xmlns="http://www.w3.org/2000/svg">
<path d="M18.54 28.3384C18.2341 28.4944 17.8796 28.5256 17.5512 28.4252C17.2229 28.3248 16.9463 28.1008 16.78 27.8004L16.694 27.6104L13.058 19.6144C13.0431 19.5183 13.0431 19.4205 13.058 19.3244C13.0577 19.237 13.0749 19.1504 13.1087 19.0697C13.1424 18.9891 13.192 18.916 13.2545 18.8549C13.3169 18.7937 13.391 18.7457 13.4723 18.7137C13.5537 18.6817 13.6406 18.6662 13.728 18.6684C13.8701 18.6654 14.0087 18.7121 14.12 18.8004L18.48 21.8544C18.8032 22.0707 19.1831 22.1868 19.572 22.1884C19.8064 22.1897 20.0389 22.1448 20.256 22.0564L40.35 13.0564C38.2891 10.7802 35.7638 8.97286 32.9446 7.75629C30.1253 6.53972 27.0779 5.9423 24.008 6.00439C12.956 6.00439 4 13.4644 4 22.7404C4.06476 25.2392 4.72674 27.6862 5.93063 29.8769C7.13451 32.0675 8.8453 33.9381 10.92 35.3324C11.1408 35.4952 11.3055 35.7225 11.3915 35.983C11.4775 36.2434 11.4805 36.5242 11.4 36.7864L10.5 40.1884C10.4453 40.3433 10.411 40.5046 10.398 40.6684C10.3961 40.7566 10.4121 40.8444 10.445 40.9263C10.4779 41.0082 10.527 41.0826 10.5894 41.145C10.6518 41.2074 10.7262 41.2565 10.8081 41.2894C10.89 41.3223 10.9778 41.3383 11.066 41.3364C11.2002 41.3291 11.3306 41.2893 11.446 41.2204L15.806 38.6904C16.126 38.4944 16.492 38.3884 16.868 38.3864C17.066 38.3864 17.262 38.4144 17.448 38.4724C19.574 39.0724 21.77 39.3764 23.978 39.3724C35.028 39.3724 43.998 31.9144 43.998 22.7124C44.0189 19.9679 43.2579 17.2742 41.804 14.9464L18.7 28.2504L18.54 28.3384Z" fill="#324558"/>
</svg>
