<svg width="48" height="48" viewBox="0 0 48 48" fill="none" xmlns="http://www.w3.org/2000/svg">
<path d="M4.00803 44L6.71203 34.064C4.9303 31.0097 3.99422 27.536 4.00003 24C4.00003 12.954 12.954 4 24 4C35.046 4 44 12.954 44 24C44 35.046 35.046 44 24 44C20.4656 44.0057 16.9933 43.0703 13.94 41.29L4.00803 44ZM16.782 14.616C16.5237 14.632 16.2714 14.7001 16.04 14.816C15.8231 14.9389 15.625 15.0924 15.452 15.272C15.212 15.498 15.076 15.694 14.93 15.884C14.1908 16.846 13.7932 18.0268 13.8 19.24C13.804 20.22 14.06 21.174 14.46 22.066C15.278 23.87 16.624 25.78 18.402 27.55C18.83 27.976 19.248 28.404 19.698 28.802C21.9048 30.7449 24.5345 32.1461 27.378 32.894L28.516 33.068C28.886 33.088 29.256 33.06 29.628 33.042C30.2105 33.0119 30.7793 32.8542 31.294 32.58C31.626 32.404 31.782 32.316 32.06 32.14C32.06 32.14 32.146 32.084 32.31 31.96C32.58 31.76 32.746 31.618 32.97 31.384C33.136 31.212 33.28 31.01 33.39 30.78C33.546 30.454 33.702 29.832 33.766 29.314C33.814 28.918 33.8 28.702 33.794 28.568C33.786 28.354 33.608 28.132 33.414 28.038L32.25 27.516C32.25 27.516 30.51 26.758 29.448 26.274C29.3361 26.2252 29.2161 26.1974 29.094 26.192C28.9572 26.1779 28.8189 26.1933 28.6885 26.2372C28.5581 26.281 28.4386 26.3522 28.338 26.446V26.442C28.328 26.442 28.194 26.556 26.748 28.308C26.665 28.4195 26.5507 28.5038 26.4196 28.5501C26.2886 28.5964 26.1467 28.6026 26.012 28.568C25.8817 28.5332 25.7541 28.489 25.63 28.436C25.382 28.332 25.296 28.292 25.126 28.218L25.116 28.214C23.9718 27.7145 22.9125 27.0397 21.976 26.214C21.724 25.994 21.49 25.754 21.25 25.522C20.4632 24.7685 19.7775 23.916 19.21 22.986L19.092 22.796C19.0073 22.6683 18.9387 22.5306 18.888 22.386C18.812 22.092 19.01 21.856 19.01 21.856C19.01 21.856 19.496 21.324 19.722 21.036C19.9102 20.7966 20.0858 20.5476 20.248 20.29C20.484 19.91 20.558 19.52 20.434 19.218C19.874 17.85 19.294 16.488 18.698 15.136C18.58 14.868 18.23 14.676 17.912 14.638C17.804 14.626 17.696 14.614 17.588 14.606C17.3194 14.5927 17.0503 14.5953 16.782 14.614V14.616Z" fill="#324558"/>
</svg>
