<svg width="48" height="48" viewBox="0 0 48 48" fill="none" xmlns="http://www.w3.org/2000/svg">
<path d="M43.9655 23.4083C43.9655 23.4083 44.8871 4 23.558 4C4.6972 4 4.10722 22.6167 4.10722 22.6167C4.10722 22.6167 1.33401 44 23.9947 44C45.7321 44 43.9655 23.4083 43.9655 23.4083ZM17.5916 16.6267C21.5915 14.1767 26.7062 15.675 28.6211 19.3567C28.9845 20.055 29.0311 21.1283 28.8011 21.8617C28.0062 24.3883 26.1329 25.805 23.5597 26.4083C24.318 25.7583 24.9213 25.0217 25.1146 24.005C25.2147 23.5226 25.2125 23.0246 25.108 22.5431C25.0035 22.0616 24.7991 21.6075 24.508 21.21C24.0519 20.5837 23.4043 20.1229 22.6631 19.8974C21.9219 19.6719 21.1274 19.6939 20.3998 19.96C18.8166 20.56 17.9499 22.0067 18.1049 23.7833C18.2499 25.4333 19.5032 26.5033 21.8464 26.91C21.4965 27.095 21.2265 27.2317 20.9631 27.3783C19.8892 27.9667 18.9547 28.7796 18.2233 29.7617C17.9849 30.0817 17.8233 30.1083 17.46 29.8867C12.7485 27.005 12.4452 19.775 17.59 16.6267H17.5916ZM14.0668 34.43C13.3085 34.6233 12.5752 34.9067 11.8019 35.16C12.1802 32.6067 15.1701 30.255 17.7 30.5233C16.9668 31.5327 16.5388 32.7312 16.4667 33.9767C15.6267 34.1317 14.8334 34.235 14.0668 34.43ZM30.1711 9.5C30.9177 9.52833 31.6677 9.51667 32.416 9.53333C32.6032 9.54593 32.7892 9.57211 32.9726 9.61167C32.8046 9.8684 32.615 10.1104 32.406 10.335C32.1393 10.585 31.8377 10.8283 31.451 10.45C31.3594 10.3583 31.1394 10.38 30.9794 10.3767C30.2344 10.3683 29.4894 10.3433 28.7461 10.3717C28.1013 10.3924 27.4586 10.4581 26.8229 10.5683C26.7029 10.59 26.5262 10.985 26.5796 11.1317C26.7096 11.4767 26.8979 11.8567 27.1779 12.0767C28.2095 12.8933 29.3061 13.6233 30.3444 14.4317C31.351 15.2183 32.2893 16.0817 32.861 17.265C33.6043 18.8117 33.6276 20.4317 33.3059 22.06C32.7693 24.7767 31.3944 27.0267 29.1678 28.6633C28.2712 29.3217 27.1595 29.6967 26.1329 30.1683C25.228 30.585 24.2997 30.9433 23.393 31.355C21.7598 32.0983 20.8432 33.8717 21.1115 35.7133C21.3598 37.405 22.8447 38.8167 24.543 39.1083C26.5812 39.4583 28.6861 38.1317 29.1845 36.0583C29.7444 33.73 28.4795 31.6483 26.1096 31.0183L25.6829 30.9083C26.3162 30.625 26.8629 30.4233 27.3695 30.145C28.2506 29.6594 29.1161 29.1456 29.9661 28.6033C30.2161 28.4433 30.3511 28.4433 30.5661 28.6267C32.1943 30.0367 33.1659 31.79 33.4393 33.9383C33.8892 37.4967 32.206 40.765 29.0295 42.44C24.1163 45.0317 18.1016 42.0817 17.0167 36.6333C16.0867 31.9667 19.3799 27.7333 23.3447 26.9167C25.0496 26.565 26.6079 25.855 27.8195 24.5417C28.6028 23.695 28.9811 22.9683 29.1111 22.64C29.3514 22.025 29.4741 21.3703 29.4728 20.71C29.4469 20.1389 29.3129 19.5778 29.0778 19.0567C28.6645 18.1133 27.0779 16.6133 26.6862 16.2967L22.9531 13.3733C22.8214 13.265 22.6731 13.2733 22.3531 13.295C21.9698 13.3217 20.9948 13.375 20.5748 13.265C20.9148 13.0067 21.8414 12.6317 22.2414 12.3317C21.0315 11.515 19.6515 11.8083 18.3833 11.565C18.6766 11.0183 20.1265 10.18 20.9515 10.085C20.9025 9.62443 20.8274 9.16703 20.7265 8.715C20.6765 8.53 20.4698 8.34833 20.2882 8.24333C19.8515 7.98667 19.3866 7.775 18.8832 7.52C19.3342 7.22883 19.8566 7.06738 20.3932 7.05333C20.9019 7.03371 21.4109 7.08305 21.9064 7.2C22.8064 7.405 23.523 7.27 24.238 6.66C23.6747 6.43333 23.1114 6.22667 22.5664 5.98167C22.0287 5.73626 21.5046 5.46197 20.9965 5.16C22.4131 5.35667 23.7814 5.88833 25.2296 5.69333L25.2663 5.49667L21.9031 4.71333C23.908 4.53 25.7746 4.5 27.5429 5.36C28.0412 5.60333 28.5595 5.80333 29.0378 6.08C29.2711 6.21333 29.4261 6.48 29.6178 6.68833C29.7678 6.85167 29.8911 7.07167 30.0777 7.17167C30.7844 7.54667 31.561 7.56167 32.3543 7.54333L32.371 7.27667C33.1693 7.52667 34.0659 8.44667 34.0659 9.11833C32.7726 9.11833 31.4827 9.11333 30.1911 9.125C30.0527 9.125 29.9161 9.22667 29.7794 9.28167C29.9094 9.35833 30.0377 9.495 30.1711 9.5ZM28.5045 7.58833C28.478 7.60442 28.4557 7.62653 28.4394 7.65287C28.4231 7.67921 28.4133 7.70902 28.4107 7.73989C28.4081 7.77075 28.4128 7.8018 28.4245 7.83049C28.4361 7.85918 28.4544 7.88471 28.4778 7.905C28.4975 7.93919 28.5237 7.96913 28.555 7.99311C28.5863 8.01709 28.6221 8.03462 28.6602 8.0447C28.6983 8.05477 28.7381 8.05719 28.7771 8.0518C28.8162 8.04642 28.8538 8.03334 28.8878 8.01333C29.0128 7.95 29.1345 7.88333 29.2844 7.805C29.1645 7.70167 29.0678 7.615 28.9678 7.53333C28.7911 7.38833 28.6461 7.48 28.5045 7.58833Z" fill="#324558"/>
</svg>
