<svg width="48" height="48" viewBox="0 0 48 48" fill="none" xmlns="http://www.w3.org/2000/svg">
<path d="M10.836 39.054C14.4764 42.2488 19.1565 44.0072 24 44C28.8452 44.0067 33.527 42.2484 37.17 39.054C40.298 35.868 29.976 24.54 24 20.026C18.03 24.54 7.70002 35.868 10.836 39.054ZM29.436 15.044C33.604 19.98 41.91 32.234 39.564 36.564C42.4409 33.0116 44.0073 28.5772 44 24.006C44.0037 21.3583 43.4793 18.7364 42.4577 16.2938C41.4361 13.8511 39.9376 11.6367 38.05 9.78C38.05 9.78 38.006 9.744 37.914 9.71C37.763 9.65747 37.6039 9.63175 37.444 9.634C36.458 9.634 34.136 10.358 29.436 15.044ZM10.09 9.712C9.99402 9.746 9.95402 9.78 9.94602 9.782C8.05983 11.6391 6.56256 13.8534 5.54165 16.2957C4.52075 18.7379 3.99667 21.359 4.00002 24.006C4.00002 28.764 5.66402 33.128 8.43602 36.562C6.10002 32.22 14.4 19.976 18.568 15.046C13.868 10.356 11.542 9.636 10.56 9.636C10.4004 9.63081 10.2413 9.65732 10.092 9.714V9.71L10.09 9.712ZM24 9.918C24 9.918 19.092 7.046 15.26 6.91C13.754 6.856 12.836 7.402 12.724 7.474C16.298 5.076 20.098 4 23.974 4H24C27.89 4 31.676 5.076 35.276 7.474C35.164 7.398 34.252 6.854 32.744 6.91C28.91 7.046 24 9.91 24 9.91V9.918Z" fill="#324558"/>
</svg>
