<svg width="48" height="48" viewBox="0 0 48 48" fill="none" xmlns="http://www.w3.org/2000/svg">
<path d="M24 4C12.9583 4 4 12.9583 4 24C4 35.0417 12.9583 44 24 44C35.0417 44 44 35.0417 44 24C44 12.9583 35.0417 4 24 4ZM25.28 10.8417C25.585 10.8417 25.885 10.93 26.155 11.1033C26.3633 11.2417 26.6333 11.4117 27.4133 13.0267C27.93 12.88 28.1933 12.9567 28.3317 12.995C28.6717 13.0883 28.9417 13.3117 29.1033 13.62C29.8983 15.1483 30.0067 17.875 29.66 19.6283C29.2583 21.6817 28.4017 23.01 27.775 23.9217C28.315 24.47 29.0717 25.42 29.6367 26.9633C30.1 28.2533 30.1533 29.4267 30.0917 30.3217C30.4372 30.1599 30.7723 29.9768 31.095 29.7733C32.0833 29.1633 33.5733 28.245 35.35 28.2217C36.54 28.2067 37.465 28.9633 37.605 30.06C37.6727 30.5666 37.5487 31.0802 37.2574 31.5002C36.966 31.9201 36.5283 32.2161 36.03 32.33C34.9483 32.5933 34.4467 32.7933 32.995 33.735C30.9417 35.0633 28.7633 35.805 27.975 36.0517C27.6342 36.3317 27.2322 36.5275 26.8017 36.6233C25.5733 36.925 21.3583 37.1483 21.025 37.1483H20.9483C19.6433 37.1483 18.925 36.7467 18.5317 36.33C17.435 36.8783 16.015 36.6467 14.995 36.1067C14.6481 35.9335 14.3665 35.6528 14.1923 35.3065C14.0181 34.9601 13.9606 34.5667 14.0283 34.185C13.9327 34.0854 13.8473 33.9766 13.7733 33.86C13.5033 33.4433 12.8933 32.3 13.0167 30.6167C13.11 29.4117 13.9433 28.3383 14.4833 27.7667C14.4445 26.4796 14.6761 25.1986 15.1633 24.0067C15.6733 22.795 16.6383 21.76 17.3633 21.1117C16.83 20.2167 16.29 18.8333 16.815 17.4283C17.1933 16.425 17.5017 15.8683 18.1817 15.6283H18.1733C18.505 15.505 18.8217 15.3733 18.9833 15.1967C19.9752 14.113 21.3474 13.4543 22.8133 13.3583C22.875 13.2033 22.945 13.05 23.0217 12.8867C23.5383 11.79 24.0867 11.1717 24.7283 10.94C24.9031 10.8744 25.0883 10.8405 25.275 10.84L25.28 10.8417ZM25.29 12.0083C24.445 12.035 23.6217 14.54 23.6217 14.54C23.6217 14.54 21.505 14.2 19.845 15.9917C19.5133 16.355 19.065 16.5483 18.6017 16.725C18.47 16.7717 18.3083 16.7633 17.9067 17.845C17.2883 19.4967 18.9483 21.335 18.9483 21.335C18.9483 21.335 16.9717 22.7333 16.2383 24.47C15.4283 26.3767 15.675 28.2383 15.675 28.2383C15.675 28.2383 14.27 29.4583 14.1767 30.7167C14.0917 31.8217 14.4083 32.7167 14.7483 33.2417C15.1267 33.8133 15.5983 33.535 15.5983 33.535C15.5983 33.535 14.6633 34.6233 15.5367 35.0867C16.3317 35.5033 17.675 35.7433 18.3867 35.025C18.9033 34.5083 19.005 33.3567 19.1967 32.8867C19.2433 32.7783 19.3967 33.0717 19.545 33.2183C19.7067 33.3733 19.985 33.5433 19.985 33.5433C19.985 33.5433 18.7267 34.0833 19.2433 35.32C19.4133 35.73 20.0233 35.9917 21.02 35.9833C21.39 35.975 25.46 35.7517 26.5417 35.49C27.1667 35.3433 27.3833 35.0183 27.3833 35.0183C27.3833 35.0183 29.9933 34.3 32.38 32.7567C33.9083 31.76 34.535 31.49 35.77 31.1967C36.79 30.95 36.72 29.3667 35.3683 29.39C33.97 29.405 32.7433 30.1233 31.7083 30.765C29.77 31.9617 28.805 31.885 28.805 31.885L28.775 31.8317C28.6433 31.615 29.3933 29.6767 28.5517 27.3683C27.64 24.8433 26.1967 24.2333 26.3117 24.04C26.8067 23.2067 28.0417 21.8783 28.535 19.4067C28.8283 17.9083 28.7517 15.445 28.0867 14.155C27.9633 13.915 26.8667 14.5567 26.8667 14.5567C26.8667 14.5567 25.84 12.2717 25.5533 12.085C25.4761 12.0331 25.3847 12.0063 25.2917 12.0083H25.29Z" fill="#324558"/>
</svg>
