<svg width="48" height="48" viewBox="0 0 48 48" fill="none" xmlns="http://www.w3.org/2000/svg">
<path d="M43.086 12.996C44 16.56 44 24 44 24C44 24 44 31.44 43.086 35.004C42.578 36.974 41.092 38.524 39.21 39.048C35.792 40 24 40 24 40C24 40 12.214 40 8.79 39.048C6.9 38.516 5.416 36.968 4.914 35.004C4 31.44 4 24 4 24C4 24 4 16.56 4.914 12.996C5.422 11.026 6.908 9.476 8.79 8.952C12.214 8 24 8 24 8C24 8 35.792 8 39.21 8.952C41.1 9.484 42.584 11.032 43.086 12.996ZM20 31L32 24L20 17V31Z" fill="#324558"/>
</svg>
