<svg width="48" height="48" viewBox="0 0 48 48" fill="none" xmlns="http://www.w3.org/2000/svg">
<path fill-rule="evenodd" clip-rule="evenodd" d="M32 2H16V6H22V8.10401C12.4467 9.1034 5 17.1821 5 27C5 37.4934 13.5066 46 24 46C34.4934 46 43 37.4934 43 27C43 17.1821 35.5533 9.1034 26 8.10401V6H32V2ZM27.2156 28.0777L24.0001 12L20.7845 28.0777C20.3787 30.1068 21.9307 32 24.0001 32C26.0694 32 27.6214 30.1068 27.2156 28.0777Z" fill="#324558"/>
<path d="M38.0891 10.1026L41.3538 7.63867C43.8438 9.87199 45.9005 12.5786 47.3824 15.6171L44.1172 18.0814C42.739 14.9772 40.6633 12.2513 38.0891 10.1026Z" fill="#324558"/>
</svg>
