<svg width="48" height="48" viewBox="0 0 48 48" fill="none" xmlns="http://www.w3.org/2000/svg">
<path d="M26 26.1716V18H22V27.8284L27.5858 33.4142L30.4142 30.5858L26 26.1716Z" fill="#324558"/>
<path fill-rule="evenodd" clip-rule="evenodd" d="M4 12C4 14.4714 4.99614 16.7101 6.6088 18.3366C5.5744 20.6806 5 23.2732 5 26C5 36.4934 13.5066 45 24 45C34.4934 45 43 36.4934 43 26C43 23.2732 42.4256 20.6806 41.3912 18.3366C43.0039 16.7101 44 14.4714 44 12C44 7.02944 39.9706 3 35 3C31.7559 3 28.9127 4.71642 27.329 7.29066C26.2481 7.09964 25.1357 7 24 7C22.8643 7 21.7519 7.09964 20.671 7.29066C19.0873 4.71642 16.2441 3 13 3C8.02944 3 4 7.02944 4 12ZM24 41C32.2843 41 39 34.2843 39 26C39 17.7157 32.2843 11 24 11C15.7157 11 9 17.7157 9 26C9 34.2843 15.7157 41 24 41Z" fill="#324558"/>
</svg>
