<svg width="48" height="48" viewBox="0 0 48 48" fill="none" xmlns="http://www.w3.org/2000/svg">
<path d="M14 4H18V8H30V4H34V8H40C41.1046 8 42 8.89543 42 10V14H6V10C6 8.89543 6.89543 8 8 8H14V4Z" fill="#324558"/>
<path d="M31.5742 28.7857C31.5742 27.7636 31.4408 27.0019 31.1738 26.5005C30.9069 25.9927 30.4837 25.7388 29.9043 25.7388C29.3379 25.7388 28.9245 25.9732 28.6641 26.442C28.4102 26.9107 28.2734 27.6203 28.2539 28.5709V32.2037C28.2539 33.2649 28.3874 34.0429 28.6543 34.5377C28.9212 35.0259 29.3444 35.2701 29.9238 35.2701C30.4837 35.2701 30.8971 35.0325 31.1641 34.5572C31.431 34.0754 31.5677 33.3235 31.5742 32.3013V28.7857Z" fill="#324558"/>
<path fill-rule="evenodd" clip-rule="evenodd" d="M6 17H42V42C42 43.1046 41.1046 44 40 44H8C6.89543 44 6 43.1046 6 42V17ZM16.418 29.1275H17.9707C19.2012 29.1275 19.8164 28.5253 19.8164 27.3209C19.8164 26.8521 19.6699 26.4713 19.377 26.1783C19.084 25.8788 18.6706 25.7291 18.1367 25.7291C17.7005 25.7291 17.3197 25.856 16.9941 26.1099C16.6751 26.3638 16.5156 26.6796 16.5156 27.0572H13.2246C13.2246 26.3085 13.4329 25.6412 13.8496 25.0552C14.2663 24.4693 14.8424 24.0136 15.5781 23.688C16.3203 23.356 17.1341 23.19 18.0195 23.19C19.6016 23.19 20.8451 23.5513 21.75 24.274C22.6549 24.9966 23.1074 25.9895 23.1074 27.2525C23.1074 27.8645 22.9186 28.4439 22.541 28.9908C22.1699 29.5311 21.6263 29.9706 20.9102 30.3091C21.6654 30.5826 22.2578 30.9992 22.6875 31.5591C23.1172 32.1125 23.332 32.7994 23.332 33.6197C23.332 34.8892 22.8438 35.9048 21.8672 36.6666C20.8906 37.4283 19.6081 37.8091 18.0195 37.8091C17.0885 37.8091 16.2227 37.6334 15.4219 37.2818C14.6276 36.9237 14.0254 36.4322 13.6152 35.8072C13.2051 35.1757 13 34.4595 13 33.6588H16.3105C16.3105 34.095 16.4863 34.4726 16.8379 34.7916C17.1895 35.1106 17.6224 35.2701 18.1367 35.2701C18.7161 35.2701 19.1784 35.1106 19.5234 34.7916C19.8685 34.466 20.041 34.0526 20.041 33.5513C20.041 32.8352 19.862 32.3274 19.5039 32.0279C19.1458 31.7284 18.651 31.5787 18.0195 31.5787H16.418V29.1275ZM34.8652 31.8033C34.8652 33.7239 34.4323 35.205 33.5664 36.2466C32.707 37.2883 31.4928 37.8091 29.9238 37.8091C28.3418 37.8091 27.1178 37.2851 26.252 36.2369C25.3861 35.1887 24.9531 33.7108 24.9531 31.8033V29.2056C24.9531 27.2851 25.3828 25.8039 26.2422 24.7623C27.1081 23.7206 28.3288 23.1998 29.9043 23.1998C31.4798 23.1998 32.7005 23.7239 33.5664 24.772C34.4323 25.8202 34.8652 27.3013 34.8652 29.2154V31.8033Z" fill="#324558"/>
</svg>
