<svg width="48" height="48" viewBox="0 0 48 48" fill="none" xmlns="http://www.w3.org/2000/svg">
<path d="M18 4H14V8H8C6.89543 8 6 8.89543 6 10V14H42V10C42 8.89543 41.1046 8 40 8H34V4H30V8H18V4Z" fill="#324558"/>
<path fill-rule="evenodd" clip-rule="evenodd" d="M6 17H42V42C42 43.1046 41.1046 44 40 44H8C6.89543 44 6 43.1046 6 42V17ZM21.1716 31L16.5858 35.5858L19.4142 38.4142L24 33.8284L28.5858 38.4142L31.4142 35.5858L26.8285 31L31.4142 26.4142L28.5858 23.5858L24 28.1716L19.4142 23.5858L16.5858 26.4142L21.1716 31Z" fill="#324558"/>
</svg>
