<svg width="48" height="48" viewBox="0 0 48 48" fill="none" xmlns="http://www.w3.org/2000/svg">
<path d="M14 4H18V8H30V4H34V8H40C41.1046 8 42 8.89543 42 10V14H6V10C6 8.89543 6.89543 8 8 8H14V4Z" fill="#324558"/>
<path d="M42 17H6V42C6 43.1046 6.89543 44 8 44H29.6929C26.8255 41.6154 25 38.0209 25 34C25 26.8203 30.8203 21 38 21C39.3956 21 40.7399 21.2199 42 21.627V17Z" fill="#324558"/>
<path fill-rule="evenodd" clip-rule="evenodd" d="M48 34C48 39.5229 43.5229 44 38 44C32.4772 44 28 39.5229 28 34C28 28.4772 32.4772 24 38 24C43.5229 24 48 28.4772 48 34ZM39.5 28V34.3787L42.5607 37.4393L40.4393 39.5607L36.5 35.6213V28H39.5Z" fill="#324558"/>
</svg>
