<svg width="48" height="48" viewBox="0 0 48 48" fill="none" xmlns="http://www.w3.org/2000/svg">
<path fill-rule="evenodd" clip-rule="evenodd" d="M43.9395 22.4331C42.1592 21.5171 40.14 21 38 21C30.8203 21 25 26.8203 25 34C25 37.6822 26.5309 41.0069 28.991 43.3722C27.3956 43.7821 25.7233 44 24 44C12.9543 44 4 35.0457 4 24C4 12.9543 12.9543 4 24 4C34.5184 4 43.1403 12.1198 43.9395 22.4331ZM22 13V25.1716L15.5858 31.5858L18.4142 34.4142L26 26.8284V13H22Z" fill="#324558"/>
<path fill-rule="evenodd" clip-rule="evenodd" d="M48 34C48 39.5228 43.5228 44 38 44C32.4772 44 28 39.5228 28 34C28 28.4772 32.4772 24 38 24C43.5228 24 48 28.4772 48 34ZM33 32.5H43V35.5H33V32.5Z" fill="#324558"/>
</svg>
