<svg width="48" height="48" viewBox="0 0 48 48" fill="none" xmlns="http://www.w3.org/2000/svg">
<path d="M40 24C40 32.8366 32.8366 40 24 40C21.653 40 19.4241 39.4947 17.4161 38.5869L15.4077 42.0654C18.0109 43.3058 20.9244 44 24 44C35.0457 44 44 35.0457 44 24C44 12.9543 35.0457 4 24 4C19.2875 4 14.9556 5.62989 11.5374 8.3567L9.18089 6.00022L6.53545 15.7167L16.252 13.0713L14.3883 11.2076C17.0644 9.1937 20.3928 8 24 8C32.8366 8 40 15.1634 40 24Z" fill="#324558"/>
<path d="M8.62327 19.5628L4.75804 18.5271C4.26428 20.2665 4 22.1024 4 24C4 25.2079 4.10707 26.3907 4.31224 27.5396L8.19408 26.4994C8.06632 25.685 8 24.8503 8 24C8 22.4605 8.21744 20.9717 8.62327 19.5628Z" fill="#324558"/>
<path d="M8.93644 29.4063C10.0608 32.5388 12.1345 35.2188 14.8107 37.0996L12.8041 40.5751C9.2284 38.155 6.47751 34.6084 5.06107 30.4447L8.93644 29.4063Z" fill="#324558"/>
<path fill-rule="evenodd" clip-rule="evenodd" d="M37 24C37 31.1797 31.1797 37 24 37C16.8203 37 11 31.1797 11 24C11 16.8203 16.8203 11 24 11C31.1797 11 37 16.8203 37 24ZM25.5 18V24.3787L30.0607 28.9393L27.9393 31.0607L22.5 25.6213V18H25.5Z" fill="#324558"/>
</svg>
