<svg width="48" height="48" viewBox="0 0 48 48" fill="none" xmlns="http://www.w3.org/2000/svg">
<path fill-rule="evenodd" clip-rule="evenodd" d="M12 6C12 4.89543 12.8954 4 14 4H34C35.1046 4 36 4.89543 36 6V15.1716C36 15.702 35.7893 16.2107 35.4142 16.5858L28 24L35.4142 31.4142C35.7893 31.7893 36 32.298 36 32.8284V42C36 43.1046 35.1046 44 34 44H14C12.8954 44 12 43.1046 12 42V32.8284C12 32.298 12.2107 31.7893 12.5858 31.4142L20 24L12.5858 16.5858C12.2107 16.2107 12 15.702 12 15.1716V6ZM16 8H32V14L24 22L16 14V8Z" fill="#324558"/>
</svg>
