<svg width="48" height="48" viewBox="0 0 48 48" fill="none" xmlns="http://www.w3.org/2000/svg">
<path d="M26 24.1716V18H22V25.8284L26.0858 29.9142L28.9142 27.0858L26 24.1716Z" fill="#324558"/>
<path fill-rule="evenodd" clip-rule="evenodd" d="M17.8265 2C16.7921 2 15.9283 2.78877 15.8347 3.81893L15.0977 11.9262C11.3988 14.6579 9 19.0488 9 24C9 28.9512 11.3988 33.342 15.0977 36.0738L15.8347 44.1811C15.9283 45.2112 16.7921 46 17.8265 46H30.1736C31.208 46 32.0717 45.2112 32.1654 44.1811L32.9024 36.0738C36.6012 33.342 39 28.9511 39 24C39 19.0489 36.6012 14.658 32.9024 11.9262L32.1654 3.81893C32.0717 2.78877 31.208 2 30.1736 2H17.8265ZM24 35C30.0751 35 35 30.0751 35 24C35 17.9249 30.0751 13 24 13C17.9249 13 13 17.9249 13 24C13 30.0751 17.9249 35 24 35Z" fill="#324558"/>
</svg>
