<svg xmlns="http://www.w3.org/2000/svg" width="24" height="24" viewBox="0 0 24 24">
  <path fill="#324558" fill-rule="evenodd" d="M11.996 2c-.89 2.182-1.427 3.61-2.418 5.728a15.612 15.612 0 002.565 2.241c-1.302-.536-2.19-1.074-2.855-1.632C8.02 10.984 6.033 14.754 2 22c3.17-1.83 5.627-2.958 7.917-3.388a5.803 5.803 0 01-.15-1.358l.003-.102c.05-2.03 1.106-3.592 2.358-3.486 1.251.106 2.224 1.84 2.174 3.87a5.79 5.79 0 01-.128 1.09c2.265.444 4.695 1.569 7.822 3.374-.616-1.135-1.167-2.158-1.692-3.133-.828-.641-1.691-1.476-3.453-2.38 1.211.314 2.078.677 2.753 1.083C14.261 7.622 13.83 6.3 11.996 2z"/>
</svg>
