<svg xmlns="http://www.w3.org/2000/svg" width="24" height="24" viewBox="0 0 24 24">
  <path fill="#324558" d="M12.001 2l-2.34 2.34h1.65v5.832l.69.69.714-.713V4.318h1.604L12.001 2zm1.062 2.666V9.8l3.37-3.37-1.766-1.765h-1.604zm2.097 0l1.642 1.642.123.123-.123.123-3.74 3.74v.639h.653L17.45 7.2l.123-.123.123.123 1.635 1.635v-4.17h-4.17zm-10.453.022V8.8l1.594-1.593.123-.123.123.123 3.726 3.725h.69v-.616L7.2 6.554l-.123-.123.123-.123 1.62-1.62H4.708zm4.607 0L7.57 6.43l3.393 3.393V4.688h-1.65zm8.258 2.881l-3.364 3.364h5.122V9.327L17.572 7.57zm-11.148.008L4.707 9.293v1.64H9.78L6.424 7.577zM4.359 9.64L2 12.001l2.36 2.359v-1.687h5.83l.665-.664-.728-.728H4.359V9.64zm15.319.034v1.606H13.86l-.72.72.673.672h5.865v1.653L22.003 12l-2.325-2.325zM4.708 13.02v1.687l1.723 1.724 3.411-3.41H4.707zm5.627 0l-3.78 3.78-.124.123-.123-.123-1.6-1.601v4.088h4.074l-1.58-1.58-.124-.123.123-.123 3.773-3.773v-.668h-.639zm2.728 0v.731l3.71 3.71.122.123-.123.123-1.58 1.58h4.138v-4.122L17.695 16.8l-.123.123-.123-.123-3.78-3.78h-.606zm1.098 0l3.41 3.41 1.759-1.757V13.02h-5.17zm-2.174.147l-.665.665v5.803h-1.7L11.987 22l2.363-2.364h-1.635v-5.74l-.728-.728zm-1.013 1.013L7.57 17.585l1.704 1.703h1.7v-5.107zm2.089.063v5.044h1.635l1.704-1.703-3.34-3.341z"/>
</svg>
