<svg xmlns="http://www.w3.org/2000/svg" width="24" height="24" viewBox="0 0 24 24">
  <g fill="none">
    <path fill="#324558" d="M12.016 2.049c5.486 0 9.95 4.464 9.95 9.951 0 5.488-4.464 9.951-9.95 9.951-5.488 0-9.952-4.463-9.952-9.951 0-5.487 4.464-9.951 9.952-9.951zm0 .913c-1.6 0-2.958 2.56-3.448 6.117A21.561 21.561 0 008.373 12a21.572 21.572 0 00.151 2.574c.75.098 1.552.164 2.39.195a29.484 29.484 0 002.203 0 26.39 26.39 0 002.637-.228c3.125-.44 5.3-1.41 5.3-2.54a9.038 9.038 0 00-9.038-9.038z"/>
    <path fill="#B6C2CD" d="M12.016 2.962A9.038 9.038 0 0121.053 12c0 1.13-2.174 2.1-5.3 2.54l-.245.034a26.39 26.39 0 01-2.391.194 29.623 29.623 0 01-2.204 0 26.376 26.376 0 01-2.39-.194A21.572 21.572 0 018.374 12a21.561 21.561 0 01.195-2.92c.49-3.558 1.847-6.118 3.448-6.118zm3.738 6.498a4.587 4.587 0 00-.292-.38 4.507 4.507 0 00-3.446-1.6c-.448 0-.847.687-1.103 1.752-.101.424-.18.909-.23 1.435a14.157 14.157 0 000 2.666c.42.04.868.061 1.333.061.463 0 .91-.021 1.333-.061.927-.088 1.727-.266 2.294-.501.56-.232.89-.52.89-.832 0-.941-.287-1.816-.78-2.54z"/>
  </g>
</svg>
