<svg xmlns="http://www.w3.org/2000/svg" width="24" height="24" viewBox="0 0 24 24">
  <path fill="#324558" d="M15.327 12.072c.024-.233-.548.101.115-.733-.058.235-.616.853 0 .465.112-.199.23-.388.275-.606-.05.306-.194.603-.39.874zm2.818-1.475l-.166.351c.244-.74.103-1.548.138-2.245l-.068-.019c-.06-1.755-1.577-3.62-2.928-4.251-1.163-.538-2.955-.63-3.782-.225.113-.1.567-.143.43-.22-1.295.128-1.006.451-2 .705-.272.263.796-.211.221.13-.532.147-.78-.093-1.57.724.07.114.5-.336.141.116-.742-.093-2.344 1.697-2.684 2.29l.178.031c-.292.732-.676 1.199-.728 1.637-.076 1.078-.452 3.043.07 3.648l-.05.504c.072.144.126.29.215.424l-.116.01c.55 1.734.59.031 1.316 1.833-.105-.036-.212-.074-.365-.281-.018.158.223.632.51 1.002l-.12.139c.16.29.307.354.418.455-.598-.326.554 1.075.658 1.254l.092-.164c-.014.235.168.539.51.96l.284-.011c.117.231.545.649.804.669l-.172.225c.651.206.316.274 1.117.557l-.161-.285c.408.354.535.664 1.111.936.8.278.906.168 1.726.403-.695-.02-1.513-.013-2.063-.21-3.752-1.016-7.184-5.417-6.933-9.95-.058-.917.092-2.064-.061-2.293.214-.698.462-1.55.962-2.563-.036-.068.082.199.337-.234.154-.339.28-.712.474-1.04l.1-.024c.1-.58 1.354-1.471 1.728-1.92l.025.172c.815-.764 2.267-1.276 3.085-1.641-.215.238.48-.024.982-.054-.158.088-.315.157-.463.261.601-.143.573.059 1.187-.022-.215.031-.477.117-.435.15.687.079.792-.213 1.427-.001l-.04-.188c.883.319 1.068.265 2.028.774.337.016.37-.208.88 0 .09.156-.02.185.604.558.07-.028-.124-.205-.278-.346 1.257.672 2.623 2.104 3.04 3.637-.39-.72-.04.366-.175.31.174.469.316.953.405 1.454-.116-.41-.367-1.401-.809-2.04-.035.412-.568-.285-.277.623.222.321.045-.326.319.245.004.272.107.542.168.896-.094-.016-.209-.392-.278-.287.095.445.251.677.31.711-.03.075-.109-.07-.114.234.036.697.195.403.27.436-.076.343-.383.746-.231 1.336-.044-.178-.129-.358-.193-.528-.06.504.111.602-.121 1.213.167-.55.149-1.047-.009-.808.07.783-.619 1.383-.544 1.878l-.2-.276c-.543.787-.013.433-.383 1.03.136-.235-.07-.097.105-.362-.117.006-.522.498-.893.787-1.457 1.168-3.198 1.32-4.882.691-.066.054.3.342.57.48.642.238 1.368.247 1.939.226-1.235.516-3.592-.525-4.363-1.905.174.038.772.97 1.219 1.122-.264-.212-.469-.482-.659-.76.358.411.792.747 1.267.969-.03-.116.13-.139-.094-.29-1.428-1.095-2.272-2.025-1.98-4.179.219-.164.276-1.062.776-1.377.305-.673 1.218-1.293 2.193-1.308.996-.055 1.836.53 2.259 1.084-.769-.716-2.027-.934-3.1-.403-1.097.493-1.747 1.702-1.653 2.905.041-.06.077-.023.097-.172-.034 2.339 2.52 4.052 4.358 3.188l.022.048c.745-.203.649-.37 1.136-.706-.038.079-.328.28-.155.283.237-.063.978-.752 1.342-1.076.167-.36-.09-.194.144-.647l.285-.143c.158-.458.334-.716.314-1.25zm-8.187 2.369c.272.525.42.686.62 1.074-.277-.23-.45-.549-.666-.843l.046-.231zm9.577-1.99a5.762 5.762 0 01-.623 1.955 5.864 5.864 0 00.575-1.834l.048-.122z"/>
</svg>
