<svg xmlns="http://www.w3.org/2000/svg" width="24" height="24" viewBox="0 0 24 24">
  <g fill="none">
    <path fill="#324558" d="M10.286 11.567H7.814a4.68 4.68 0 00-4.678 4.677 4.68 4.68 0 004.678 4.678 4.68 4.68 0 004.677-4.678v-2.482h2.473a4.68 4.68 0 004.678-4.678 4.68 4.68 0 00-4.678-4.678 4.68 4.68 0 00-4.678 4.678v2.483zm1.75-9.522c5.508 0 9.972 4.465 9.972 9.972 0 5.506-4.462 9.97-9.968 9.971H4.331a2.267 2.267 0 01-2.267-2.261V12.01c.004-5.504 4.467-9.965 9.972-9.965zm-4.222 11.71h2.09a.4.4 0 01.4.4v2.09a2.491 2.491 0 01-2.49 2.49 2.491 2.491 0 01-2.49-2.49 2.491 2.491 0 012.49-2.49zm7.15-2.181h-2.09a.4.4 0 01-.4-.4v-2.09a2.491 2.491 0 012.49-2.49 2.491 2.491 0 012.49 2.49 2.491 2.491 0 01-2.49 2.49z"/>
    <path fill="#B6C2CD" d="M8.328 11.567l-.004.002c-.611 0-1.105.48-1.105 1.09 0 .607.489 1.09 1.093 1.09l.001.006h-.5a2.491 2.491 0 00-.547 4.919 2.598 2.598 0 00-.343-.025c-.662 0-1.105.444-1.105 1.054 0 .505.432.939.962 1.077.363.095.641.14 1.034.14.211 0 .424-.014.638-.04a4.68 4.68 0 01-5.316-4.635 4.68 4.68 0 014.678-4.678h.514zm6.119 2.195l.007-.003c.611 0 1.105-.48 1.105-1.09 0-.607-.489-1.09-1.094-1.09v-.005h.5a2.491 2.491 0 00.547-4.92c.106.013.206.025.343.025.662 0 1.105-.444 1.105-1.054 0-.505-.433-.939-.962-1.077a3.722 3.722 0 00-1.034-.14h-.169l.17-.002a4.68 4.68 0 014.677 4.678 4.68 4.68 0 01-4.678 4.678h-.517z"/>
  </g>
</svg>
