<svg xmlns="http://www.w3.org/2000/svg" width="24" height="24" viewBox="0 0 24 24">
  <path fill="#324558" d="M22.08 2.341c1.078 1.077-1.907 5.808-2.412 6.313-.505.503-1.786.04-2.863-1.037-1.077-1.076-1.54-2.358-1.036-2.863.505-.505 5.235-3.49 6.312-2.413m-15.1 1.14a10.11 10.11 0 00-3.463 3.565C2.575 5.4 1.5 3.008 2.254 2.254c.744-.744 3.083.293 4.727 1.226zm13.459 4.8c.153-.247.321-.536.494-.852a9.73 9.73 0 011.257 4.796c0 5.398-4.376 9.774-9.775 9.774-5.398 0-9.775-4.376-9.775-9.774 0-5.399 4.377-9.775 9.775-9.775 1.628 0 3.162.398 4.512 1.102-.332.185-.635.366-.891.528-.393-.071-.716-.016-.917.185-.37.37-.247 1.145.242 2.022.25.495.644 1.033 1.149 1.538.093.094.19.185.289.273 1.396 1.329 2.945 1.94 3.518 1.366.246-.245.273-.67.122-1.183z"/>
</svg>
