<svg xmlns="http://www.w3.org/2000/svg" width="24" height="24" viewBox="0 0 24 24">
  <path fill="#324558" fill-rule="evenodd" d="M19.914 16.193c-.023.069-.385 1.302-1.274 2.57-.769 1.093-1.564 2.195-2.82 2.214-1.236.022-1.631-.72-3.042-.72-1.409 0-1.852.701-3.02.742-1.206.048-2.135-1.195-2.907-2.283-1.578-2.23-2.793-6.317-1.164-9.056C6.49 8.289 7.93 7.418 9.5 7.394c1.182-.022 2.308.783 3.026.783.738 0 2.1-.974 3.535-.828.601.025 2.283.245 3.367 1.78-.085.057-2.013 1.168-1.991 3.43.029 2.73 2.451 3.625 2.477 3.634zM15.121 5.886c.648-.771 1.074-1.832.962-2.886-.925.035-2.052.6-2.721 1.367-.592.67-1.114 1.747-.968 2.788 1.027.061 2.083-.525 2.727-1.269z"/>
</svg>
