<svg xmlns="http://www.w3.org/2000/svg" width="24" height="24" viewBox="0 0 24 24">
  <path fill="#324558" fill-rule="evenodd" d="M19.628 17.932c-.49-.396-.3-1.272-.807-1.704.492-2.99-.886-5.627-2.529-7.317-1.378-1.418-.934-2.797-.934-3.991 0-1.908-.783-3.92-3.155-3.92-2.536 0-3.231 2.116-3.256 3.323-.06 2.9.585 3.653-1.111 5.763-1.997 2.483-2.291 4.96-1.84 6.273a2.611 2.611 0 01-1.027.742c-1.469.64-.392 1.711-.798 2.471A1.392 1.392 0 004 20.23c0 .667.53 1.244 1.492 1.158 1.3-.116 2.497.804 3.272.804.685 0 1.247-.39 1.508-.925 1.224-.302 2.735-.263 3.958.052.22.614.815 1.014 1.478 1.014 1.45 0 1.728-1.643 3.392-2.2.599-.2.9-.781.9-1.322 0-.347-.124-.677-.372-.879zM11.497 8.63c-.284 0-.518-.23-.889-.505-.47-.348-.947-.549-.941-.915 0-.252.337-.33.772-.606.468-.296.65-.596 1.11-.596.471 0 .614.238 1.254.515.629.273 1.067.38 1.067.687 0 .315-.658.541-1.03.771-.544.336-.824.65-1.343.65zm1.48-4.635c.784.125.872 1.503.497 2.181l-.316-.129c.164-.483.161-1.277-.386-1.328-.348-.032-.572.427-.62.82a1.499 1.499 0 00-.465-.113c.055-.82.585-1.544 1.29-1.431zm-3.025.294c.6-.15.956.55.958 1.275l-.275.17c-.038-.306-.174-.798-.515-.693-.365.114-.306.963-.102 1.137l-.272.15c-.374-.628-.373-1.895.206-2.04zm-1.88 17.105c-1.745-.794-2.338-.614-2.671-.614-.69 0-.917-.514-.657-1.001.22-.414.152-.847.098-1.194-.084-.533-.099-.706.425-.935.724-.308 1.046-.703 1.286-1 .674-.832 1.354.478 1.911 1.645.362.757 1.074 1.14 1.293 1.978.202.774-.63 1.6-1.685 1.12zm6.21-1.666c-1.23.598-2.797.873-3.97.266-.172-.5-.45-.824-.748-1.15.479-.126.834-.723.408-1.323-.454-.641-1.382-1.088-2.32-1.813-.877-.679-1.154-2.35.04-4.22-.582 1.656-.241 3.181.051 3.618.06-.878.13-2.345 1.33-4.102.605-.888.614-2.06.627-2.792l.552.377c.405.3.744.63 1.232.63.72 0 1.118-.415 1.672-.759.217-.133.545-.268.82-.456.463 2.201 2.378 4.848 2.485 6.356.446-.917-.126-3.124-.126-3.124.749 1.143.808 2.095.841 3.263.524.214 1.085.772 1.137 1.507l-.218-.025c-.112-.817-2.317-2.017-2.515-.479-1.058.161-.673 1.837-.887 2.923-.097.497-.279.89-.41 1.303zm4.308-.036c-.875.337-1.466 1.055-1.873 1.5-.782.859-1.817.447-1.927-.356-.116-.86.32-1.328.509-2.288.171-.878-.02-2.228.383-2.372.262 1.558 1.836.903 2.195.478.584 0 .633.198.764.744.082.342.195.63.514.97.371.396.257 1.006-.565 1.324zM11.48 8.13c-.58 0-1.012-.385-1.364-.684-.18-.152.044-.433.224-.28.344.292.691.6 1.14.6.539 0 1.014-.461 1.659-.715.22-.087.345.253.127.34-.626.245-1.128.739-1.787.739z"/>
</svg>
