<svg xmlns="http://www.w3.org/2000/svg" width="24" height="24" viewBox="0 0 24 24">
  <path fill="#324558" fill-rule="evenodd" d="M10.285 15.253l.03-.003.005-.035c-.008-.028-.026-.053-.054-.4-.023-.306-.071-1.145.351-1.562.164-.162.415-.307.612-.353.81-.198 1.861-.061 2.759.977.463.536.69.781.804.89l.04.037.047.034c.037.021 1.543.714 1.543.714l.03-.007.001-.033c-.01-.011-.954-1.231-.787-2.236.133-.801.77-.73 1.651-.629.288.033.616.07.955.078.947.006 1.967-.168 2.595-.443.407-.178.666-.295.829-.443a.486.486 0 00.12-.211l.022-.057c.027-.067.065-.212.082-.291.008-.035.011-.073-.014-.092l-.087.017c-.275.165-.965.48-1.611.493-.8.016-2.413-.805-2.58-.892l-.017-.02-.333-.789c1.16.765 2.123 1.187 2.86 1.253.82.073 1.46-.375 1.734-.566.053-.036.094-.065.11-.072l.018-.028c-.045-.288-.474-1.683-.798-2.018-.09-.092-.162-.182-.307-.267-1.173-.683-3.956-1.096-4.087-1.115l-.022.006-.009.02-.011.641c-.285-.094-2.352-.762-4.29-.83-1.642-.058-3.886-.136-7.058 1.813l-.093.059c-1.491.93-2.521 2.077-3.06 3.41-.168.42-.396 1.367-.171 2.257.098.39.278.781.522 1.131.55.791 1.475 1.317 2.47 1.405 1.405.126 2.47-.506 2.848-1.687.26-.816 0-2.012-.997-2.622-.811-.498-1.685-.384-2.19-.05-.44.292-.689.744-.684 1.241.01.881.77 1.35 1.315 1.35.159 0 .318-.027.498-.085a.778.778 0 00.19-.085l.02-.013.014-.008-.005.002a.446.446 0 00.183-.492.447.447 0 00-.514-.316l-.03.006-.042.014-.06.02c-.126.032-.221.034-.24.035-.065-.005-.38-.099-.38-.443v-.005a.51.51 0 01.08-.262c.097-.154.365-.305.727-.273.474.04.816.284 1.043.743.21.427.155.952-.142 1.337-.295.381-.82.543-1.52.467a2.08 2.08 0 01-1.633-1.114c-.326-.616-.345-1.348-.047-1.91.714-1.347 2.06-1.333 2.8-1.205 1.093.189 2.086 1.064 2.528 2.229.07.185.106.332.138.466l.047.202 1.235.603.017.012zm8.781-6.57a1.18 1.18 0 00-.377.829 1.196 1.196 0 001.149 1.232c.32.01.622-.102.854-.32a1.18 1.18 0 00.377-.828 1.195 1.195 0 00-1.15-1.233 1.182 1.182 0 00-.853.32zm.816 1.705a.85.85 0 01-.549-1.467.849.849 0 011.157 1.24.849.849 0 01-.608.227zm.197-.768c.207 0 .376-.112.376-.25 0-.139-.169-.251-.376-.251-.208 0-.376.112-.376.251 0 .138.168.25.376.25z"/>
</svg>
