<svg xmlns="http://www.w3.org/2000/svg" width="24" height="24" viewBox="0 0 24 24">
  <g fill="#324558">
    <path d="M17.96 3.768a10.984 10.984 0 00-16.382 12.73h.76c.64 0 1.27-.153 1.837-.446a.973.973 0 01.446-.111.915.915 0 01.816.445c.112.218.278.403.482.538.199.127.433.186.668.167a.462.462 0 00.427-.186.29.29 0 00-.223-.39 1.027 1.027 0 01-.538-.574 1.953 1.953 0 01-.553-.965.883.883 0 011.15-.961c.488.222.876.616 1.091 1.106a.374.374 0 00.554.093.316.316 0 01.553.055c.135.21 1.12 1.524 2.19 1.558a17.022 17.022 0 002.133-.237c.238.045.468.12.687.223.333.053.577-.258.948-.237.298.014.613.223.948.223.335 0 1.049-.407 1.04-.237a7.895 7.895 0 01-.298 1.057 6.31 6.31 0 01-.111.89c-.118.307-.28.595-.482.854a8.56 8.56 0 00-.668.948 6.71 6.71 0 01-.76 1.058c-.135.18.758-.015 1.076-.316a3.273 3.273 0 011.484-1.186c.504-.11.618-.303.553-.482a.195.195 0 01-.018-.074.158.158 0 01.092-.149 5.367 5.367 0 012.004-.352c.45 0 .898.05 1.336.148a10.975 10.975 0 00-3.241-15.19zm2.952 9.002c-.528 2.89-5.255 3.863-9.853 2.47-4.382-1.33-8.23-3.97-7.785-5.519.257-.901 1.688-1.286 3.594-1.08-.289.59-.27 1.284.994 2.055a13.103 13.103 0 004.858 1.553c.262-.027.5-.158.262-.316a1.62 1.62 0 01-.577-1.027c-.075-.308-.158-.735-1.813-1.051-3.556-.679-3.416-1.682-3.311-2.26 0 0 .316-1.422.446-1.918s.467-1.645 2.758-1.13a3.972 3.972 0 002.4-.167 2.852 2.852 0 012.687.543 12.496 12.496 0 011.896 4.117c.177.438.195.923.05 1.372a5.282 5.282 0 01-.38.726c-.046.079-.007.162.093.111.483-.226.834-.664.948-1.185 1.868.423 2.974 1.394 2.733 2.706z"/>
    <path d="M10.85 6.526c-.535 0-.92.07-1.252.079a.939.939 0 01-.711-.385.336.336 0 00-.585.153l-.006.014a.68.68 0 00.418.87s.441.82.776.463c.237-.253.37-.39 1.638-.482.604-.044.666-.184.648-.333a.924.924 0 00-.926-.38zm3.052-1.746h-.062c-.119 0-.242.008-.368.02a2.941 2.941 0 00-1.033.277.033.033 0 00-.02.03.037.037 0 00.036.033h.006c.07-.011.143-.02.214-.03.68-.067 1.255.046 1.282.253a.79.79 0 01-.71.425.047.047 0 000 .092c.203.057.413.088.625.092.703.016 1.283-.237 1.289-.568.006-.33-.556-.608-1.259-.624z"/>
  </g>
</svg>
