<svg xmlns="http://www.w3.org/2000/svg" width="24" height="24" viewBox="0 0 24 24">
  <path fill="#324558" fill-rule="evenodd" d="M8.595 11.785c0 1.463.676 2.77 1.733 3.62L8.785 18.15a7.783 7.783 0 01-2.913-3.905 2.796 2.796 0 00-.084-4.651 7.785 7.785 0 012.93-4.126l1.658 2.655a4.648 4.648 0 00-1.781 3.662zm-2.307.163a2.013 2.013 0 01-4.025 0 2.013 2.013 0 014.025 0zm11.302 4.865A2.797 2.797 0 0014.8 19.4a7.776 7.776 0 01-1.554.156 7.743 7.743 0 01-3.43-.796l1.554-2.718a4.652 4.652 0 006.504-3.777l3.126.06a7.746 7.746 0 01-2.114 4.806 2.779 2.779 0 00-1.296-.318zm2.01 2.797a2.011 2.011 0 11-4.022 0 2.011 2.011 0 014.022 0zm-.5-12.936a7.737 7.737 0 011.893 4.475l-3.126.095a4.654 4.654 0 00-6.535-3.7l-1.545-2.72a7.748 7.748 0 013.459-.81c.496 0 .982.046 1.452.136A2.796 2.796 0 0019.1 6.675zm.396-2.283a2.01 2.01 0 11-4.023 0 2.012 2.012 0 114.023 0z"/>
</svg>
