<svg width="48" height="48" viewBox="0 0 48 48" fill="none" xmlns="http://www.w3.org/2000/svg">
<path d="M38.7834 18.9664C38.5252 18.9886 38.264 19 38 19C33.0294 19 29 14.9706 29 10C29 9.28861 29.0825 8.59649 29.2386 7.9327C27.6065 7.32948 25.8417 7 24 7C15.6544 7 8.88889 13.7655 8.88889 22.1111V32.3529L7 38H41L39.1111 32.3529V22.1111C39.1111 21.0328 38.9982 19.9808 38.7834 18.9664Z" fill="#B6C2CD"/>
<path d="M21 5C21 3.34315 22.3431 2 24 2C25.6569 2 27 3.34315 27 5V7.29778C26.0304 7.10248 25.0272 7 24 7C22.9728 7 21.9696 7.10248 21 7.29778V5Z" fill="#324558"/>
<path d="M44 10C44 13.3137 41.3137 16 38 16C34.6863 16 32 13.3137 32 10C32 6.68629 34.6863 4 38 4C41.3137 4 44 6.68629 44 10Z" fill="#324558"/>
<path d="M17 39C17 38.6605 17.0242 38.3266 17.0709 38H30.9291C30.9758 38.3266 31 38.6605 31 39C31 42.866 27.866 46 24 46C20.134 46 17 42.866 17 39Z" fill="#324558"/>
</svg>
