<svg width="48" height="48" viewBox="0 0 48 48" fill="none" xmlns="http://www.w3.org/2000/svg">
<path d="M10 21C10 13.268 16.268 7 24 7C31.732 7 38 13.268 38 21V32L40 38H8L10 32V21Z" fill="#B6C2CD"/>
<path d="M24 2C22.3431 2 21 3.34315 21 5V7.32218C21.9665 7.11118 22.9703 7 24 7C25.0297 7 26.0335 7.11118 27 7.32218V5C27 3.34315 25.6569 2 24 2Z" fill="#324558"/>
<path d="M17.0709 38C17.0242 38.3266 17 38.6605 17 39C17 42.866 20.134 46 24 46C27.866 46 31 42.866 31 39C31 38.6605 30.9758 38.3266 30.9291 38H17.0709Z" fill="#324558"/>
<path d="M34.8008 5.5996C38.9233 8.69644 41.6729 13.5223 41.9728 19.0004H45.9778C45.6742 12.2132 42.2952 6.22626 37.2009 2.39941L34.8008 5.5996Z" fill="#324558"/>
<path d="M2.02246 19.0004C2.32609 12.2132 5.70504 6.22626 10.7994 2.39941L13.1995 5.5996C9.07697 8.69644 6.32742 13.5223 6.02745 19.0004H2.02246Z" fill="#324558"/>
</svg>
