<svg width="48" height="48" viewBox="0 0 48 48" fill="none" xmlns="http://www.w3.org/2000/svg">
<path d="M21.0001 7.29778C18.7671 7.74753 16.7124 8.68951 14.9539 10.0057L40.0208 35.0726L39.1111 32.3529V22.1111C39.1111 14.7927 33.9085 8.68931 27.0001 7.29778C26.0304 7.10248 25.0272 7 24.0001 7" fill="#B6C2CD"/>
<path d="M24.0001 7C22.9729 7 21.9697 7.10249 21.0001 7.29778L24.0001 7Z" fill="#B6C2CD"/>
<path d="M33.0488 38H7L8.88889 32.3529V22.1111C8.88889 19.7028 9.45226 17.4261 10.4544 15.4056L33.0488 38Z" fill="#B6C2CD"/>
<path d="M24.0001 2C22.3432 2 21.0001 3.34315 21.0001 5V7.29778C21.9697 7.10248 22.9729 7 24.0001 7C25.0272 7 26.0304 7.10248 27.0001 7.29778V5C27.0001 3.34315 25.6569 2 24.0001 2Z" fill="#324558"/>
<path d="M8.79718 8.09155L39.9099 39.2043L37.0814 42.0327L5.96875 10.92L8.79718 8.09155Z" fill="#324558"/>
<path d="M17.0001 39C17.0001 38.6605 17.0242 38.3266 17.0709 38H30.9292C30.9759 38.3266 31.0001 38.6605 31.0001 39C31.0001 42.866 27.8661 46 24.0001 46C20.1341 46 17.0001 42.866 17.0001 39Z" fill="#324558"/>
</svg>
