<svg width="48" height="48" viewBox="0 0 48 48" fill="none" xmlns="http://www.w3.org/2000/svg">
<path fill-rule="evenodd" clip-rule="evenodd" d="M21 7.29778C14.0915 8.68929 8.88889 14.7926 8.88889 22.1111V32.3529L7 38H41L39.1111 32.3529V22.1111C39.1111 14.7926 33.9085 8.68929 27 7.29778C26.0304 7.10248 25.0272 7 24 7C22.9728 7 21.9696 7.10248 21 7.29778ZM25.5 22.25V14L18 23.75H22.5V32L30 22.25H25.5Z" fill="#B6C2CD"/>
<path d="M24 2C22.3431 2 21 3.34315 21 5V7.29778C21.9696 7.10248 22.9728 7 24 7C25.0272 7 26.0304 7.10248 27 7.29778V5C27 3.34315 25.6569 2 24 2Z" fill="#324558"/>
<path d="M17.0709 38C17.0242 38.3266 17 38.6605 17 39C17 42.866 20.134 46 24 46C27.866 46 31 42.866 31 39C31 38.6605 30.9758 38.3266 30.9291 38H17.0709Z" fill="#324558"/>
<path d="M25.5 14V22.25H30L22.5 32V23.75H18L25.5 14Z" fill="#324558"/>
</svg>
