<svg width="48" height="48" viewBox="0 0 48 48" fill="none" xmlns="http://www.w3.org/2000/svg">
<path d="M8.88889 22.1111C8.88889 13.7655 15.6544 7 24 7C32.3456 7 39.1111 13.7655 39.1111 22.1111V32.3529L41 38H7L8.88889 32.3529V22.1111Z" fill="#B6C2CD"/>
<path d="M21 5C21 3.34315 22.3431 2 24 2C25.6569 2 27 3.34315 27 5V7.29778C26.0304 7.10248 25.0272 7 24 7C22.9728 7 21.9696 7.10248 21 7.29778V5Z" fill="#324558"/>
<path d="M17 39C17 38.6605 17.0242 38.3266 17.0709 38H30.9291C30.9758 38.3266 31 38.6605 31 39C31 42.866 27.866 46 24 46C20.134 46 17 42.866 17 39Z" fill="#324558"/>
</svg>
