<svg width="48" height="48" viewBox="0 0 48 48" fill="none" xmlns="http://www.w3.org/2000/svg">
<path d="M39 38.9999L39 2.99994C36.3944 2.90688 33.8216 3.60414 31.6195 5.00012L19 13.0001L19 29.2677L31.5939 37.0406C33.8148 38.4113 36.3919 39.0931 39 38.9999Z" fill="#B6C2CD"/>
<path d="M2 17.678C2 16.7075 2.69671 15.8771 3.65243 15.7084L19 13V45H16.6692C15.7026 45 14.8743 44.3088 14.7014 43.3578L12.0497 28.7735L3.65243 27.2916C2.69671 27.1229 2 26.2925 2 25.322V17.678Z" fill="#324558"/>
<path d="M45 21C45 17.4735 42.3923 14.5561 39 14.0709V27.9291C42.3923 27.4439 45 24.5264 45 21Z" fill="#324558"/>
</svg>
