<svg width="48" height="48" viewBox="0 0 48 48" fill="none" xmlns="http://www.w3.org/2000/svg">
<path d="M2 16.2285L2.95696 16.8281L20.957 27.8281C21.5972 28.2194 22.4025 28.2194 23.0428 27.8281L35.8616 19.9944C37.1006 20.637 38.5079 21.0001 40 21.0001C40.6874 21.0001 41.3568 20.923 42 20.777V40.0001C42 41.1046 41.1046 42.0001 40 42.0001H4C2.89545 42.0001 2 41.1046 2 40.0001V16.2285Z" fill="#B6C2CD"/>
<path d="M40 18C43.3137 18 46 15.3137 46 12C46 8.68629 43.3137 6 40 6C36.6863 6 34 8.68629 34 12C34 15.3137 36.6863 18 40 18Z" fill="#324558"/>
<path d="M4 10H31.223C31.0771 10.6432 31 11.3126 31 12C31 15.4785 32.9734 18.496 35.8617 19.9942L23.0428 27.828C22.4025 28.2193 21.5972 28.2193 20.957 27.828L2.95696 16.828L2 16.2284V12C2 10.8954 2.89543 10 4 10Z" fill="#324558"/>
</svg>
