<svg width="48" height="48" viewBox="0 0 48 48" fill="none" xmlns="http://www.w3.org/2000/svg">
<path d="M4 15V40C4 41.1046 4.89543 42 6 42H42C43.1046 42 44 41.1046 44 40V15L24.8944 24.5528C24.824 24.588 24.7521 24.6188 24.679 24.6452C24.3573 24.7613 24.013 24.7923 23.6792 24.7381C23.482 24.706 23.2885 24.6443 23.1056 24.5528L4 15Z" fill="#B6C2CD"/>
<path d="M4 15L23.1056 5.44723C23.6686 5.1657 24.3314 5.1657 24.8944 5.44723L44 15L24.8944 24.5528C24.3314 24.8343 23.6686 24.8343 23.1056 24.5528L4 15Z" fill="#324558"/>
</svg>
