<svg width="48" height="48" viewBox="0 0 48 48" fill="none" xmlns="http://www.w3.org/2000/svg">
<path d="M4 14.2285V38.0001C4 39.1047 4.89543 40.0001 6 40.0001H42C43.1046 40.0001 44 39.1047 44 38.0001V14.2273L43.0428 14.8281L25.0428 25.8281C24.4025 26.2194 23.5972 26.2194 22.957 25.8281L4.95696 14.8281L4 14.2285Z" fill="#B6C2CD"/>
<path d="M4 14.2284L4.95696 14.828L22.957 25.828C23.5972 26.2193 24.4025 26.2193 25.0428 25.828L43.0428 14.828L44 14.2272V10C44 8.89543 43.1046 8 42 8H6C4.89543 8 4 8.89543 4 10V14.2284Z" fill="#324558"/>
</svg>
