<svg width="48" height="48" viewBox="0 0 48 48" fill="none" xmlns="http://www.w3.org/2000/svg">
<path d="M44 14.2273L43.0428 14.8281L25.0428 25.8281C24.4025 26.2194 23.5972 26.2194 22.957 25.8281L4.95696 14.8281L4 14.2285V38.0001C4 39.1046 4.89539 40.0001 6 40.0001H24.4148C25.0057 38.0739 26.2072 36.0431 27.8829 34.3409C29.9271 32.2643 32.7954 30.5411 36.4729 29.9225V21.3888L44 27.9747V14.2273Z" fill="#B6C2CD"/>
<path d="M4.95696 14.828L4 14.2284V10C4 8.89543 4.89543 8 6 8H42C43.1046 8 44 8.89543 44 10V14.2272L43.0428 14.828L25.0428 25.828C24.4025 26.2193 23.5972 26.2193 22.957 25.828L4.95696 14.828Z" fill="#324558"/>
<path d="M47.7881 35.2758L39.4729 28V32.6773C30.8978 32.6774 27.0001 39.4334 27.0001 42.5516C27.0001 42.5516 28.2824 37.8743 39.4729 37.8743V42.5516L47.7881 35.2758Z" fill="#324558"/>
</svg>
