<svg width="48" height="48" viewBox="0 0 48 48" fill="none" xmlns="http://www.w3.org/2000/svg">
<path fill-rule="evenodd" clip-rule="evenodd" d="M6 6C4.89543 6 4 6.89543 4 8V42.382C4 43.1253 4.78231 43.6088 5.44721 43.2764L11.7889 40.1056C11.9277 40.0361 12.0808 40 12.2361 40H42C43.1046 40 44 39.1046 44 38V8C44 6.89543 43.1046 6 42 6H6ZM12 20H16V26H12V20ZM22 20H26V26H22V20ZM32 20H36V26H32V20Z" fill="#B6C2CD"/>
<path d="M12 20H16V26H12V20Z" fill="#324558"/>
<path d="M22 20H26V26H22V20Z" fill="#324558"/>
<path d="M36 20H32V26H36V20Z" fill="#324558"/>
</svg>
