<svg width="48" height="48" viewBox="0 0 48 48" fill="none" xmlns="http://www.w3.org/2000/svg">
<path fill-rule="evenodd" clip-rule="evenodd" d="M6 6C4.89543 6 4 6.89543 4 8V42.382C4 43.1253 4.78231 43.6088 5.44721 43.2764L12 40H42C43.1046 40 44 39.1046 44 38V8C44 6.89543 43.1046 6 42 6H6ZM21.8437 30.8087L34.4041 18.4242L31.5957 15.5759L21.8437 25.1913L17.4041 20.814L14.5957 23.6623L21.8437 30.8087Z" fill="#B6C2CD"/>
<path fill-rule="evenodd" clip-rule="evenodd" d="M34.4041 18.4242L21.8437 30.8088L14.5957 23.6623L17.4041 20.814L21.8437 25.1914L31.5957 15.5759L34.4041 18.4242Z" fill="#324558"/>
</svg>
