<svg width="48" height="48" viewBox="0 0 48 48" fill="none" xmlns="http://www.w3.org/2000/svg">
<path fill-rule="evenodd" clip-rule="evenodd" d="M44 24C44 35.0457 35.0457 44 24 44H6.41411C5.52321 44 5.07704 42.9229 5.70701 42.2929L9.85781 38.1421C6.23856 34.5228 4 29.5228 4 24C4 12.9543 12.9543 4 24 4C35.0457 4 44 12.9543 44 24ZM22 33.0001V26H15V22H22V15.0001H26V22H33V26H26V33.0001H22Z" fill="#B6C2CD"/>
<path d="M22 25.9999V33H26V25.9999H33V21.9999L26 21.9999V15H22V21.9999L15 21.9999V25.9999H22Z" fill="#324558"/>
</svg>
