<svg width="48" height="48" viewBox="0 0 48 48" fill="none" xmlns="http://www.w3.org/2000/svg">
<path fill-rule="evenodd" clip-rule="evenodd" d="M44 24C44 35.0457 35.0457 44 24 44H6.41411C5.52321 44 5.07704 42.9229 5.70701 42.2929L9.85781 38.1421C6.23856 34.5228 4 29.5228 4 24C4 12.9543 12.9543 4 24 4C35.0457 4 44 12.9543 44 24ZM21.8437 31.8087L34.4041 19.4242L31.5957 16.5759L21.8437 26.1913L17.4041 21.814L14.5957 24.6623L21.8437 31.8087Z" fill="#B6C2CD"/>
<path fill-rule="evenodd" clip-rule="evenodd" d="M34.4041 19.4242L21.8437 31.8088L14.5957 24.6623L17.4041 21.814L21.8437 26.1914L31.5957 16.5759L34.4041 19.4242Z" fill="#324558"/>
</svg>
