<svg width="48" height="48" viewBox="0 0 48 48" fill="none" xmlns="http://www.w3.org/2000/svg">
<path d="M33.7029 6.50715C30.8293 4.90981 27.5209 4 24 4C12.9543 4 4 12.9543 4 24C4 29.5228 6.23856 34.5228 9.85781 38.1421L5.70701 42.2929C5.07704 42.9229 5.52321 44 6.41411 44H24C35.0457 44 44 35.0457 44 24C44 22.2376 43.772 20.5284 43.344 18.9003C42.9055 18.966 42.4567 19 42 19C37.0294 19 33 14.9706 33 10C33 8.76134 33.2502 7.58113 33.7029 6.50715Z" fill="#B6C2CD"/>
<path d="M48 10C48 13.3137 45.3137 16 42 16C38.6863 16 36 13.3137 36 10C36 6.68629 38.6863 4 42 4C45.3137 4 48 6.68629 48 10Z" fill="#324558"/>
</svg>
