<svg width="48" height="48" viewBox="0 0 48 48" fill="none" xmlns="http://www.w3.org/2000/svg">
<g clip-path="url(#clip0_5413_8710)">
<path d="M28.991 43.3722C27.3956 43.7821 25.7233 44 24 44H6.41411C5.52321 44 5.07704 42.9229 5.70701 42.2929L9.85781 38.1421C6.23856 34.5228 4 29.5228 4 24C4 12.9543 12.9543 4 24 4C34.5184 4 43.1403 12.1198 43.9395 22.4331C42.1592 21.5171 40.14 21 38 21C30.8203 21 25 26.8203 25 34C25 37.6822 26.5309 41.0069 28.991 43.3722Z" fill="#B6C2CD"/>
<path fill-rule="evenodd" clip-rule="evenodd" d="M35.1258 26.5234L35.6267 24H40.3733L40.8742 26.5234C41.7095 26.8338 42.4818 27.2674 43.16 27.8145L45.6267 26.9785L48 31.0215L46.0262 32.707C46.0962 33.129 46.1415 33.5586 46.1415 34C46.1415 34.4414 46.0962 34.871 46.0262 35.293L48 36.9785L45.6267 41.0215L43.16 40.1856C42.4818 40.7326 41.7095 41.1662 40.8742 41.4766L40.3733 44H35.6267L35.1258 41.4766C34.2905 41.1662 33.5182 40.7326 32.84 40.1856L30.3733 41.0215L28 36.9785L29.9738 35.293C29.9038 34.871 29.8585 34.4414 29.8585 34C29.8585 33.5586 29.9038 33.129 29.9738 32.707L28 31.0215L30.3733 26.9785L32.84 27.8145C33.5182 27.2674 34.2905 26.8338 35.1258 26.5234ZM38 37.3332C39.841 37.3332 41.3334 35.8408 41.3334 33.9998C41.3334 32.1589 39.841 30.6665 38 30.6665C36.1591 30.6665 34.6667 32.1589 34.6667 33.9998C34.6667 35.8408 36.1591 37.3332 38 37.3332Z" fill="#324558"/>
</g>
<defs>
<clipPath id="clip0_5413_8710">
<rect width="48" height="48" fill="white"/>
</clipPath>
</defs>
</svg>
