<svg width="48" height="48" viewBox="0 0 48 48" fill="none" xmlns="http://www.w3.org/2000/svg">
<path fill-rule="evenodd" clip-rule="evenodd" d="M6 6C4.89543 6 4 6.89543 4 8V42.382C4 43.1253 4.78231 43.6088 5.44721 43.2764L12 40H42C43.1046 40 44 39.1046 44 38V8C44 6.89543 43.1046 6 42 6H6ZM21.4681 18.4041L18 17.7257C18.6087 14.8632 21.0093 13 24.0696 13C26.9361 13 29.514 14.8058 29.9333 17.8935C30.2297 20.0763 29.5385 21.435 27.8667 23.0653C27.8174 23.1133 27.6962 23.2302 27.5813 23.341C27.4797 23.4391 27.3829 23.5324 27.3454 23.5689C26.1351 24.748 25.7155 25.5104 25.7155 27H22.176C22.176 24.4779 23.0207 22.9432 24.8231 21.1873C24.8681 21.1435 24.9762 21.0393 25.0837 20.9356L25.0875 20.9319C25.1956 20.8276 25.3025 20.7246 25.3432 20.6849C26.3275 19.725 26.5525 19.2827 26.4234 18.3319C26.2531 17.0779 25.2778 16.3947 24.0696 16.3947C22.6849 16.3947 21.7394 17.1286 21.4681 18.4041ZM26 31C26 32.1046 25.1046 33 24 33C22.8954 33 22 32.1046 22 31C22 29.8954 22.8954 29 24 29C25.1046 29 26 29.8954 26 31Z" fill="#B6C2CD"/>
<path d="M18 17.7257L21.4681 18.4041C21.7394 17.1286 22.6849 16.3947 24.0696 16.3947C25.2778 16.3947 26.2531 17.0779 26.4234 18.3319C26.5525 19.2827 26.3275 19.725 25.3432 20.6849C25.3025 20.7246 25.1956 20.8276 25.0875 20.9319C24.9787 21.0368 24.8686 21.143 24.8231 21.1873C23.0207 22.9432 22.176 24.4779 22.176 27H25.7155C25.7155 25.5104 26.1351 24.748 27.3454 23.5689C27.3829 23.5324 27.4797 23.4391 27.5813 23.341C27.6962 23.2302 27.8174 23.1133 27.8667 23.0653C29.5385 21.435 30.2297 20.0763 29.9333 17.8935C29.514 14.8058 26.9361 13 24.0696 13C21.0093 13 18.6087 14.8632 18 17.7257Z" fill="#324558"/>
<path d="M24 33C25.1046 33 26 32.1046 26 31C26 29.8954 25.1046 29 24 29C22.8954 29 22 29.8954 22 31C22 32.1046 22.8954 33 24 33Z" fill="#324558"/>
</svg>
