<svg width="48" height="48" viewBox="0 0 48 48" fill="none" xmlns="http://www.w3.org/2000/svg">
<path d="M44 18.777C43.3568 18.9229 42.6874 19 42 19C37.0294 19 33 14.9706 33 10C33 8.56316 33.3367 7.20496 33.9355 6H6C4.89543 6 4 6.89543 4 8V42.382C4 43.1253 4.78231 43.6088 5.44721 43.2764L12 40H42C43.1046 40 44 39.1046 44 38V18.777Z" fill="#B6C2CD"/>
<path d="M48 10C48 13.3137 45.3137 16 42 16C38.6863 16 36 13.3137 36 10C36 6.68629 38.6863 4 42 4C45.3137 4 48 6.68629 48 10Z" fill="#324558"/>
</svg>
