<svg width="48" height="48" viewBox="0 0 48 48" fill="none" xmlns="http://www.w3.org/2000/svg">
<path fill-rule="evenodd" clip-rule="evenodd" d="M24 4C27.5209 4 30.8293 4.90981 33.7029 6.50715C33.2502 7.58113 33 8.76134 33 10C33 14.9706 37.0294 19 42 19C42.4567 19 42.9055 18.966 43.344 18.9003C43.772 20.5284 44 22.2376 44 24C44 35.0457 35.0457 44 24 44H6.41411C5.52321 44 5.07704 42.9229 5.70701 42.2929L9.85781 38.1421C6.23856 34.5228 4 29.5228 4 24C4 12.9543 12.9543 4 24 4ZM18 21H14V27H18V21ZM34 21H30V27H34V21ZM22 21H26V27H22V21Z" fill="#B6C2CD"/>
<path d="M42 16C45.3137 16 48 13.3137 48 10C48 6.68629 45.3137 4 42 4C38.6863 4 36 6.68629 36 10C36 13.3137 38.6863 16 42 16Z" fill="#324558"/>
<path d="M14 21H18V27H14V21Z" fill="#324558"/>
<path d="M22 21H26V27H22V21Z" fill="#324558"/>
<path d="M30 21H34V27H30V21Z" fill="#324558"/>
</svg>
