<svg width="48" height="48" viewBox="0 0 48 48" fill="none" xmlns="http://www.w3.org/2000/svg">
<path fill-rule="evenodd" clip-rule="evenodd" d="M44 24C44 35.0457 35.0457 44 24 44H6.41411C5.52321 44 5.07704 42.9229 5.70701 42.2929L9.85781 38.1421C6.23856 34.5228 4 29.5228 4 24C4 12.9543 12.9543 4 24 4C35.0457 4 44 12.9543 44 24ZM26.5 14L26 27H22L21.5 14H26.5ZM22 34V30H26V34H22Z" fill="#B6C2CD"/>
<path d="M22 27H26L26.5 14H21.5L22 27Z" fill="#324558"/>
<path d="M26 30H22V34H26V30Z" fill="#324558"/>
</svg>
