<svg width="48" height="48" viewBox="0 0 48 48" fill="none" xmlns="http://www.w3.org/2000/svg">
<path fill-rule="evenodd" clip-rule="evenodd" d="M44 24C44 35.0457 35.0457 44 24 44H6.41411C5.52321 44 5.07704 42.9229 5.70701 42.2929L9.85781 38.1421C6.23856 34.5228 4 29.5228 4 24C4 12.9543 12.9543 4 24 4C35.0457 4 44 12.9543 44 24ZM21.4681 19.4041L18 18.7257C18.6087 15.8632 21.0093 14 24.0696 14C26.9361 14 29.514 15.8058 29.9333 18.8935C30.2297 21.0763 29.5385 22.435 27.8667 24.0653C27.8174 24.1133 27.6962 24.2302 27.5813 24.341C27.4797 24.4391 27.3829 24.5324 27.3454 24.5689C26.1351 25.748 25.7155 26.5104 25.7155 28H22.176C22.176 25.4779 23.0207 23.9432 24.8231 22.1873C24.8681 22.1435 24.9762 22.0393 25.0837 21.9356L25.0875 21.9319C25.1956 21.8276 25.3025 21.7246 25.3432 21.6849C26.3275 20.725 26.5525 20.2827 26.4234 19.3319C26.2531 18.0779 25.2778 17.3947 24.0696 17.3947C22.6849 17.3947 21.7394 18.1286 21.4681 19.4041ZM26 32C26 33.1046 25.1046 34 24 34C22.8954 34 22 33.1046 22 32C22 30.8954 22.8954 30 24 30C25.1046 30 26 30.8954 26 32Z" fill="#B6C2CD"/>
<path d="M18 18.7257L21.4681 19.4041C21.7394 18.1286 22.6849 17.3947 24.0696 17.3947C25.2778 17.3947 26.2531 18.0779 26.4234 19.3319C26.5525 20.2827 26.3275 20.725 25.3432 21.6849C25.3025 21.7246 25.1956 21.8276 25.0875 21.9319C24.9787 22.0368 24.8686 22.143 24.8231 22.1873C23.0207 23.9432 22.176 25.4779 22.176 28H25.7155C25.7155 26.5104 26.1351 25.748 27.3454 24.5689C27.3829 24.5324 27.4797 24.4391 27.5813 24.341C27.6962 24.2302 27.8174 24.1133 27.8667 24.0653C29.5385 22.435 30.2297 21.0763 29.9333 18.8935C29.514 15.8058 26.9361 14 24.0696 14C21.0093 14 18.6087 15.8632 18 18.7257Z" fill="#324558"/>
<path d="M24 34C25.1046 34 26 33.1046 26 32C26 30.8954 25.1046 30 24 30C22.8954 30 22 30.8954 22 32C22 33.1046 22.8954 34 24 34Z" fill="#324558"/>
</svg>
