<svg width="48" height="48" viewBox="0 0 48 48" fill="none" xmlns="http://www.w3.org/2000/svg">
<path d="M22.4444 22H26.4444L25.5556 26H21.5556L22.4444 22Z" fill="#B6C2CD"/>
<path fill-rule="evenodd" clip-rule="evenodd" d="M44 24C44 35.0457 35.0457 44 24 44H6.41411C5.52321 44 5.07704 42.9229 5.70701 42.2929L9.85781 38.1421C6.23856 34.5228 4 29.5228 4 24C4 12.9543 12.9543 4 24 4C35.0457 4 44 12.9543 44 24ZM24 15H21L20.1111 19H17V22H19.4444L18.5556 26H15V29H17.8889L17 33H20L20.8889 29H24.8889L24 33H27L27.8889 29H31V26H28.5556L29.4444 22H33V19H30.1111L31 15H28L27.1111 19H23.1111L24 15Z" fill="#B6C2CD"/>
<path fill-rule="evenodd" clip-rule="evenodd" d="M21 15H24L23.1111 19H27.1111L28 15H31L30.1111 19H33V22H29.4444L28.5556 26H31V29H27.8889L27 33H24L24.8889 29H20.8889L20 33H17L17.8889 29H15V26H18.5556L19.4444 22H17V19H20.1111L21 15ZM25.5556 26L26.4444 22H22.4444L21.5556 26H25.5556Z" fill="#324558"/>
</svg>
