<svg width="48" height="48" viewBox="0 0 48 48" fill="none" xmlns="http://www.w3.org/2000/svg">
<path d="M26.4444 21L25.5556 25H21.5556L22.4444 21H26.4444Z" fill="#B6C2CD"/>
<path fill-rule="evenodd" clip-rule="evenodd" d="M6 6C4.89543 6 4 6.89543 4 8V42.382C4 43.1253 4.78231 43.6088 5.44721 43.2764L12 40H42C43.1046 40 44 39.1046 44 38V8C44 6.89543 43.1046 6 42 6H6ZM24 14H21L20.1111 18H17V21H19.4444L18.5556 25H15V28H17.8889L17 32H20L20.8889 28H24.8889L24 32H27L27.8889 28H31V25H28.5556L29.4444 21H33V18H30.1111L31 14H28L27.1111 18H23.1111L24 14Z" fill="#B6C2CD"/>
<path fill-rule="evenodd" clip-rule="evenodd" d="M21 14H24L23.1111 18H27.1111L28 14H31L30.1111 18H33V21H29.4444L28.5556 25H31V28H27.8889L27 32H24L24.8889 28H20.8889L20 32H17L17.8889 28H15V25H18.5556L19.4444 21H17V18H20.1111L21 14ZM25.5556 25L26.4444 21H22.4444L21.5556 25H25.5556Z" fill="#324558"/>
</svg>
