<svg width="48" height="48" viewBox="0 0 48 48" fill="none" xmlns="http://www.w3.org/2000/svg">
<path fill-rule="evenodd" clip-rule="evenodd" d="M24 44C35.0457 44 44 35.0457 44 24C44 12.9543 35.0457 4 24 4C12.9543 4 4 12.9543 4 24C4 35.0457 12.9543 44 24 44ZM27 15C27 16.1046 26.1046 17 25 17C23.8954 17 23 16.1046 23 15C23 13.8954 23.8954 13 25 13C26.1046 13 27 13.8954 27 15ZM28.1882 34.8187C27.1002 35.2606 26.1105 35.5755 25.2228 35.776C24.3351 35.9724 23.4926 36.0746 22.6951 36.0746C21.9098 36.0746 21.3167 35.8619 20.9116 35.4364C20.5068 35.0111 20.3062 34.3934 20.3062 33.5754C20.3062 33.3668 20.3268 33.1092 20.3678 32.7983C20.4085 32.4915 20.4864 32.0252 20.6009 31.4075L22.327 22.7568L19.6887 22.3478V21.2189L25.2104 20H26.6217L24.5643 30.8636C24.5028 31.1989 24.458 31.469 24.4292 31.6817C24.4006 31.8904 24.3882 32.062 24.3882 32.2011C24.3882 32.7736 24.5233 33.2155 24.7972 33.5101C25.0674 33.8085 25.4599 33.9597 25.9754 33.9597C26.2045 33.9597 26.5071 33.9231 26.8875 33.8493C27.2637 33.7759 27.6974 33.6612 28.1881 33.5018L28.1882 34.8187Z" fill="#324558"/>
</svg>
