<svg width="48" height="48" viewBox="0 0 48 48" fill="none" xmlns="http://www.w3.org/2000/svg">
<path d="M22.8333 10C24.7663 10 26.3333 8.433 26.3333 6.5C26.3333 4.567 24.7663 3 22.8333 3C20.9003 3 19.3333 4.567 19.3333 6.5C19.3333 8.433 20.9003 10 22.8333 10Z" fill="#324558"/>
<path d="M22.8334 44.9998C26.055 44.9998 28.6667 42.3881 28.6667 39.1664C28.6667 35.9448 26.055 33.3331 22.8334 33.3331C19.6117 33.3331 17 35.9448 17 39.1664C17 42.3881 19.6117 44.9998 22.8334 44.9998Z" fill="#324558"/>
<path d="M38 8.83328C38 10.7663 36.433 12.3333 34.5 12.3333C32.567 12.3333 31 10.7663 31 8.83328C31 6.90028 32.567 5.33328 34.5 5.33328C36.433 5.33328 38 6.90028 38 8.83328Z" fill="#324558"/>
<path d="M41.5 24.0002C43.433 24.0002 45 22.4332 45 20.5002C45 18.5672 43.433 17.0002 41.5 17.0002C39.567 17.0002 38 18.5672 38 20.5002C38 22.4332 39.567 24.0002 41.5 24.0002Z" fill="#324558"/>
<path d="M42.6667 33.3332C42.6667 35.9105 40.5774 37.9999 38 37.9999C35.4227 37.9999 33.3334 35.9105 33.3334 33.3332C33.3334 30.7559 35.4227 28.6666 38 28.6666C40.5774 28.6666 42.6667 30.7559 42.6667 33.3332Z" fill="#324558"/>
<path d="M5.33333 24.0001C6.622 24.0001 7.66667 22.9554 7.66667 21.6668C7.66667 20.3781 6.622 19.3334 5.33333 19.3334C4.04467 19.3334 3 20.3781 3 21.6668C3 22.9554 4.04467 24.0001 5.33333 24.0001Z" fill="#324558"/>
<path d="M12.3333 9.99989C12.3333 11.2886 11.2887 12.3332 10 12.3332C8.71135 12.3332 7.66668 11.2886 7.66668 9.99989C7.66668 8.71122 8.71135 7.66655 10 7.66655C11.2887 7.66655 12.3333 8.71122 12.3333 9.99989Z" fill="#324558"/>
<path d="M10 35.6665C11.2887 35.6665 12.3333 34.6218 12.3333 33.3332C12.3333 32.0445 11.2887 30.9998 10 30.9998C8.71135 30.9998 7.66668 32.0445 7.66668 33.3332C7.66668 34.6218 8.71135 35.6665 10 35.6665Z" fill="#324558"/>
</svg>
