<svg width="48" height="48" viewBox="0 0 48 48" fill="none" xmlns="http://www.w3.org/2000/svg">
<path d="M24 8C27.1645 8 30.2579 8.93838 32.8891 10.6965C35.5203 12.4546 37.5711 14.9534 38.7821 17.8771C39.9931 20.8007 40.3099 24.0177 39.6926 27.1214C39.0752 30.2251 37.5513 33.0761 35.3137 35.3137C33.0761 37.5513 30.2251 39.0752 27.1214 39.6926C24.0177 40.3099 20.8007 39.9931 17.8771 38.7821C14.9534 37.5711 12.4546 35.5203 10.6965 32.8891C8.93838 30.2579 8 27.1645 8 24H4C4 27.9556 5.17298 31.8224 7.37061 35.1114C9.56823 38.4004 12.6918 40.9638 16.3463 42.4776C20.0008 43.9913 24.0222 44.3874 27.9018 43.6157C31.7814 42.844 35.3451 40.9392 38.1421 38.1421C40.9392 35.3451 42.844 31.7814 43.6157 27.9018C44.3874 24.0222 43.9913 20.0009 42.4776 16.3463C40.9638 12.6918 38.4004 9.56824 35.1114 7.37061C31.8224 5.17298 27.9556 4 24 4V8Z" fill="#324558"/>
<path d="M19.7574 19.7574C20.8826 18.6321 22.4087 18 24 18V14C21.3478 14 18.8043 15.0536 16.9289 16.9289C15.0536 18.8043 14 21.3478 14 24C14 26.6522 15.0536 29.1957 16.9289 31.0711C18.8043 32.9464 21.3478 34 24 34L24 30C22.4087 30 20.8826 29.3679 19.7574 28.2426C18.6321 27.1174 18 25.5913 18 24C18 22.4087 18.6321 20.8826 19.7574 19.7574Z" fill="#324558"/>
</svg>
