<svg width="48" height="48" viewBox="0 0 48 48" fill="none" xmlns="http://www.w3.org/2000/svg">
<path d="M36 24C36 25.1 35.1 26 34 26C32.9 26 32 25.1 32 24C32 18.5 27.5 14 22 14C16.5 14 12 18.5 12 24C12 22.9 12.9 22 14 22C15.1 22 16 22.9 16 24C16 29.5 20.5 34 26 34C31.5 34 36 29.5 36 24Z" fill="#324558"/>
<path fill-rule="evenodd" clip-rule="evenodd" d="M44 24C44 35.0457 35.0457 44 24 44C12.9543 44 4 35.0457 4 24C4 12.9543 12.9543 4 24 4C35.0457 4 44 12.9543 44 24ZM24 12C17.4 12 12 17.4 12 24C12 30.6 17.4 36 24 36C30.6 36 36 30.6 36 24C36 17.4 30.6 12 24 12Z" fill="#324558"/>
</svg>
