<svg width="48" height="48" viewBox="0 0 48 48" fill="none" xmlns="http://www.w3.org/2000/svg">
<path d="M22 3H26V12.1659C25.3496 12.0568 24.6814 12 24 12C23.3186 12 22.6504 12.0568 22 12.1659V3Z" fill="#324558"/>
<path d="M17.0468 14.2186L10.5648 7.73657L7.73633 10.565L14.2184 17.0471C14.9968 15.954 15.9538 14.997 17.0468 14.2186Z" fill="#324558"/>
<path d="M12.1659 22H3L3 26H12.1659C12.0568 25.3496 12 24.6814 12 24C12 23.3186 12.0568 22.6504 12.1659 22Z" fill="#324558"/>
<path d="M14.2184 30.953L7.73633 37.4351L10.5648 40.2635L17.0468 33.7814C15.9538 33.003 14.9968 32.046 14.2184 30.953Z" fill="#324558"/>
<path d="M22 35.8341V45H26V35.8341C25.3496 35.9432 24.6814 36 24 36C23.3186 36 22.6504 35.9432 22 35.8341Z" fill="#324558"/>
<path d="M30.9529 33.7816L37.4348 40.2635L40.2632 37.4351L33.7814 30.9532C33.003 32.0462 32.046 33.0032 30.9529 33.7816Z" fill="#324558"/>
<path d="M35.8341 26H45V22H35.8341C35.9432 22.6504 36 23.3186 36 24C36 24.6814 35.9432 25.3496 35.8341 26Z" fill="#324558"/>
<path d="M33.7814 17.0468L40.2632 10.565L37.4348 7.73657L30.953 14.2184C32.046 14.9968 33.003 15.9538 33.7814 17.0468Z" fill="#324558"/>
</svg>
