<svg width="48" height="48" viewBox="0 0 48 48" fill="none" xmlns="http://www.w3.org/2000/svg">
<path d="M38 19C38.264 19 38.5252 18.9886 38.7834 18.9664C38.9982 19.9808 39.1111 21.0328 39.1111 22.1111V32.3529L41 38H7L8.88889 32.3529V22.1111C8.88889 14.7926 14.0915 8.68929 21 7.29778V5C21 3.34315 22.3431 2 24 2C25.6569 2 27 3.34315 27 5V7.29778C27.7689 7.45266 28.5167 7.66591 29.2386 7.9327C29.0825 8.59649 29 9.28861 29 10C29 14.9706 33.0294 19 38 19Z" fill="#324558"/>
<path d="M23.9999 46C20.8289 46 18.1503 43.8915 17.2898 41H30.71C29.8495 43.8915 27.1709 46 23.9999 46Z" fill="#324558"/>
<path d="M38 16C41.3137 16 44 13.3137 44 10C44 6.68629 41.3137 4 38 4C34.6863 4 32 6.68629 32 10C32 13.3137 34.6863 16 38 16Z" fill="#324558"/>
</svg>
