<svg width="48" height="48" viewBox="0 0 48 48" fill="none" xmlns="http://www.w3.org/2000/svg">
<path d="M24 2C22.3431 2 21 3.34315 21 5V7.32218C14.7096 8.69552 10 14.2978 10 21V32L8 38H40L38 32V21C38 14.2978 33.2904 8.69552 27 7.32218V5C27 3.34315 25.6569 2 24 2Z" fill="#324558"/>
<path d="M23.9999 46C20.8289 46 18.1503 43.8915 17.2898 41H30.71C29.8495 43.8915 27.1709 46 23.9999 46Z" fill="#324558"/>
<path d="M34.8008 5.5996C38.9233 8.69644 41.6729 13.5223 41.9728 19.0004H45.9778C45.6742 12.2132 42.2952 6.22626 37.2009 2.39941L34.8008 5.5996Z" fill="#324558"/>
<path d="M2.02246 19.0004C2.32609 12.2132 5.70504 6.22626 10.7994 2.39941L13.1995 5.5996C9.07697 8.69644 6.32742 13.5223 6.02745 19.0004H2.02246Z" fill="#324558"/>
</svg>
