<svg width="48" height="48" viewBox="0 0 48 48" fill="none" xmlns="http://www.w3.org/2000/svg">
<g clip-path="url(#clip0_29_234)">
<path d="M21 5C21 3.34315 22.3431 2 24 2C25.6569 2 27 3.34315 27 5V7.29778C33.8883 8.68521 39.0806 14.7569 39.111 22.0468C38.7448 22.0158 38.3742 22 38 22C30.8203 22 25 27.8203 25 35C25 36.0325 25.1204 37.037 25.3479 38H7L8.88889 32.3529V22.1111C8.88889 14.7926 14.0915 8.68929 21 7.29778V5Z" fill="#324558"/>
<path d="M28.7538 44.1382C27.8429 43.2167 27.0688 42.1596 26.4644 41H17.2898C18.1503 43.8915 20.8289 46 23.9999 46C25.8351 46 27.5054 45.2938 28.7538 44.1382Z" fill="#324558"/>
<path fill-rule="evenodd" clip-rule="evenodd" d="M35.6267 25L35.1258 27.5234C34.2905 27.8338 33.5182 28.2674 32.84 28.8145L30.3733 27.9785L28 32.0215L29.9738 33.707C29.9038 34.129 29.8585 34.5586 29.8585 35C29.8585 35.4414 29.9038 35.871 29.9738 36.293L28 37.9785L30.3733 42.0215L32.84 41.1856C33.5182 41.7326 34.2905 42.1662 35.1258 42.4766L35.6267 45H40.3733L40.8742 42.4766C41.7095 42.1662 42.4818 41.7326 43.16 41.1856L45.6267 42.0215L48 37.9785L46.0262 36.293C46.0962 35.871 46.1415 35.4414 46.1415 35C46.1415 34.5586 46.0962 34.129 46.0262 33.707L48 32.0215L45.6267 27.9785L43.16 28.8145C42.4818 28.2674 41.7095 27.8338 40.8742 27.5234L40.3733 25H35.6267ZM41.3334 34.9998C41.3334 36.8408 39.841 38.3332 38 38.3332C36.1591 38.3332 34.6667 36.8408 34.6667 34.9998C34.6667 33.1589 36.1591 31.6665 38 31.6665C39.841 31.6665 41.3334 33.1589 41.3334 34.9998Z" fill="#324558"/>
</g>
<defs>
<clipPath id="clip0_29_234">
<rect width="48" height="48" fill="white"/>
</clipPath>
</defs>
</svg>
