<svg width="48" height="48" viewBox="0 0 48 48" fill="none" xmlns="http://www.w3.org/2000/svg">
<path fill-rule="evenodd" clip-rule="evenodd" d="M24 2C22.3431 2 21 3.34315 21 5V7.29778C14.0915 8.68929 8.88889 14.7926 8.88889 22.1111V32.3529L7 38H41L39.1111 32.3529V22.1111C39.1111 14.7926 33.9085 8.68929 27 7.29778V5C27 3.34315 25.6569 2 24 2ZM25.5 14V22.25H30L22.5 32V23.75H18L25.5 14Z" fill="#324558"/>
<path d="M17.2898 41C18.1503 43.8915 20.8289 46 23.9999 46C27.1709 46 29.8495 43.8915 30.71 41H17.2898Z" fill="#324558"/>
</svg>
