<svg width="48" height="48" viewBox="0 0 48 48" fill="none" xmlns="http://www.w3.org/2000/svg">
<path d="M21.0001 5C21.0001 3.34315 22.3432 2 24.0001 2C25.6569 2 27.0001 3.34315 27.0001 5V7.29778C33.9086 8.68929 39.1112 14.7926 39.1112 22.1111V32.3529L40.0209 35.0726L14.9539 10.0057C16.7124 8.68954 18.7671 7.74754 21.0001 7.29778V5Z" fill="#324558"/>
<path d="M8.79718 8.09155L5.96875 10.92L10.4544 15.4057C9.45231 17.4262 8.88895 19.7028 8.88895 22.1111V32.3529L7.00006 38H33.0488L37.0814 42.0327L39.9099 39.2043L8.79718 8.09155Z" fill="#324558"/>
<path d="M24 46C20.829 46 18.1504 43.8915 17.2899 41H30.7101C29.8495 43.8915 27.171 46 24 46Z" fill="#324558"/>
</svg>
