<svg width="48" height="48" viewBox="0 0 48 48" fill="none" xmlns="http://www.w3.org/2000/svg">
<path d="M39 39V2.99996C36.4105 2.90748 33.8664 3.69794 31.7853 5.24164L22 12.5V29.5L31.7853 36.7583C33.8664 38.302 36.4105 39.0924 39 39Z" fill="#324558"/>
<path d="M3.65243 15.7083C2.69671 15.877 2 16.7074 2 17.6779V25.322C2 26.2925 2.69671 27.1229 3.65243 27.2915L12.0497 28.7734L14.7014 43.3577C14.8743 44.3087 15.7026 44.9999 16.6692 44.9999H19V12.9999L3.65243 15.7083Z" fill="#324558"/>
<path d="M46 20.8999C46 23.3189 44.2822 25.3366 42 25.7999V15.9999C44.2822 16.4632 46 18.481 46 20.8999Z" fill="#324558"/>
</svg>
