<svg width="48" height="48" viewBox="0 0 48 48" fill="none" xmlns="http://www.w3.org/2000/svg">
<path fill-rule="evenodd" clip-rule="evenodd" d="M6 8C4.89543 8 4 8.89543 4 10V38C4 39.1046 4.89543 40 6 40H24.4147C25.0056 38.0737 26.207 36.0431 27.8829 34.3406C29.9271 32.264 32.7953 30.5409 36.4729 29.9224V21.3887L44 27.9749V10C44 8.89543 43.1046 8 42 8H6ZM40 12L23.9999 21.7778L8 12.0001V16.6879L23.9999 26.4656L40 16.6878V12Z" fill="#324558"/>
<path d="M47.7881 35.2758L39.4729 28V32.6773C30.8978 32.6774 27.0001 39.4334 27.0001 42.5516C27.0001 42.5516 28.2824 37.8743 39.4729 37.8743V42.5516L47.7881 35.2758Z" fill="#324558"/>
</svg>
