<svg width="48" height="48" viewBox="0 0 48 48" fill="none" xmlns="http://www.w3.org/2000/svg">
<path d="M42 16C45.3137 16 48 13.3137 48 10C48 6.68629 45.3137 4 42 4C38.6863 4 36 6.68629 36 10C36 13.3137 38.6863 16 42 16Z" fill="#324558"/>
<path d="M44 18.777C43.3568 18.9229 42.6874 19 42 19C40.508 19 39.1008 18.637 37.8619 17.9944L23.9999 26.4656L8 16.6879V12.0001L23.9999 21.7778L34.6869 15.2469C33.6252 13.7698 33 11.9579 33 10C33 9.31261 33.0771 8.64322 33.223 8H6C4.89543 8 4 8.89543 4 10V38C4 39.1046 4.89543 40 6 40H42C43.1046 40 44 39.1046 44 38V18.777Z" fill="#324558"/>
</svg>
