<svg width="48" height="48" viewBox="0 0 48 48" fill="none" xmlns="http://www.w3.org/2000/svg">
<path fill-rule="evenodd" clip-rule="evenodd" d="M6 6C4.89543 6 4 6.89543 4 8V42.382C4 43.1253 4.78231 43.6088 5.44721 43.2764L12 40H42C43.1046 40 44 39.1046 44 38V8C44 6.89543 43.1046 6 42 6H6ZM19.0501 15.2217L24 20.1716L28.9499 15.2217L31.7783 18.0501L26.8284 23L31.778 27.9496L28.9496 30.778L24 25.8284L19.0504 30.778L16.222 27.9496L21.1716 23L16.2217 18.0501L19.0501 15.2217Z" fill="#324558"/>
</svg>
