<svg width="48" height="48" viewBox="0 0 48 48" fill="none" xmlns="http://www.w3.org/2000/svg">
<path d="M42 16C45.3137 16 48 13.3137 48 10C48 6.68629 45.3137 4 42 4C38.6863 4 36 6.68629 36 10C36 13.3137 38.6863 16 42 16Z" fill="#324558"/>
<path fill-rule="evenodd" clip-rule="evenodd" d="M6 6H33.9355C33.3367 7.20496 33 8.56316 33 10C33 14.9706 37.0294 19 42 19C42.6874 19 43.3568 18.9229 44 18.777V38C44 39.1046 43.1046 40 42 40H12L5.44721 43.2764C4.78231 43.6088 4 43.1253 4 42.382V8C4 6.89543 4.89543 6 6 6ZM12 20H16V26H12V20ZM22 20H26V26H22V20ZM32 20H36V26H32V20Z" fill="#324558"/>
</svg>
