<svg width="48" height="48" viewBox="0 0 48 48" fill="none" xmlns="http://www.w3.org/2000/svg">
<path fill-rule="evenodd" clip-rule="evenodd" d="M44 24C44 35.0457 35.0457 44 24 44H6.41411C5.52321 44 5.07704 42.9229 5.70701 42.2929L9.85781 38.1421C6.23856 34.5228 4 29.5228 4 24C4 12.9543 12.9543 4 24 4C35.0457 4 44 12.9543 44 24ZM19.0501 16.2217L24 21.1716L28.9499 16.2217L31.7783 19.0501L26.8284 24L31.778 28.9496L28.9496 31.778L24 26.8284L19.0504 31.778L16.222 28.9496L21.1716 24L16.2217 19.0501L19.0501 16.2217Z" fill="#324558"/>
</svg>
