<svg width="48" height="48" viewBox="0 0 48 48" fill="none" xmlns="http://www.w3.org/2000/svg">
<path fill-rule="evenodd" clip-rule="evenodd" d="M6 6C4.89543 6 4 6.89543 4 8V42.382C4 43.1253 4.78231 43.6088 5.44721 43.2764L12 40H42C43.1046 40 44 39.1046 44 38V8C44 6.89543 43.1046 6 42 6H6ZM22.1643 22.2829H18.5401V21.5594C18.5401 19.3341 19.3246 17.1276 22.1643 16.1127V15C18.648 15 15 18.3654 15 23.9184V29H22.1643V22.2829ZM33 22.2829H29.3758V21.5594C29.3758 19.3341 30.1602 17.1293 33 16.1127V15C29.4837 15 25.8357 18.3671 25.8357 23.9184V29H33V22.2829Z" fill="#324558"/>
</svg>
